  0
SECTION
  2
HEADER
  9
$ACADVER
  1
AC1021
  9
$ACADMAINTVER
 70
    25
  9
$DWGCODEPAGE
  3
ANSI_1252
  9
$INSBASE
 10
0.0
 20
0.0
 30
0.0
  9
$EXTMIN
 10
-8.39283
 20
-23.59697
 30
0.0
  9
$EXTMAX
 10
8.39283
 20
23.59697
 30
0.0
  9
$LIMMIN
 10
0.0
 20
0.0
  9
$LIMMAX
 10
12.0
 20
9.0
  9
$ORTHOMODE
 70
     0
  9
$REGENMODE
 70
     1
  9
$FILLMODE
 70
     1
  9
$QTEXTMODE
 70
     0
  9
$MIRRTEXT
 70
     1
  9
$LTSCALE
 40
1.0
  9
$ATTMODE
 70
     1
  9
$TEXTSIZE
 40
0.2
  9
$TRACEWID
 40
0.05
  9
$TEXTSTYLE
  7
Standard
  9
$CLAYER
  8
0
  9
$CELTYPE
  6
ByLayer
  9
$CECOLOR
 62
   256
  9
$CELTSCALE
 40
1.0
  9
$DISPSILH
 70
     0
  9
$DIMSCALE
 40
1.0
  9
$DIMASZ
 40
0.18
  9
$DIMEXO
 40
0.0625
  9
$DIMDLI
 40
0.38
  9
$DIMRND
 40
0.0
  9
$DIMDLE
 40
0.0
  9
$DIMEXE
 40
0.18
  9
$DIMTP
 40
0.0
  9
$DIMTM
 40
0.0
  9
$DIMTXT
 40
0.18
  9
$DIMCEN
 40
0.09
  9
$DIMTSZ
 40
0.0
  9
$DIMTOL
 70
     0
  9
$DIMLIM
 70
     0
  9
$DIMTIH
 70
     1
  9
$DIMTOH
 70
     1
  9
$DIMSE1
 70
     0
  9
$DIMSE2
 70
     0
  9
$DIMTAD
 70
     0
  9
$DIMZIN
 70
     0
  9
$DIMBLK
  1

  9
$DIMASO
 70
     1
  9
$DIMSHO
 70
     1
  9
$DIMPOST
  1

  9
$DIMAPOST
  1

  9
$DIMALT
 70
     0
  9
$DIMALTD
 70
     2
  9
$DIMALTF
 40
25.4
  9
$DIMLFAC
 40
1.0
  9
$DIMTOFL
 70
     0
  9
$DIMTVP
 40
0.0
  9
$DIMTIX
 70
     0
  9
$DIMSOXD
 70
     0
  9
$DIMSAH
 70
     0
  9
$DIMBLK1
  1

  9
$DIMBLK2
  1

  9
$DIMSTYLE
  2
Standard
  9
$DIMCLRD
 70
     0
  9
$DIMCLRE
 70
     0
  9
$DIMCLRT
 70
     0
  9
$DIMTFAC
 40
1.0
  9
$DIMGAP
 40
0.09
  9
$DIMJUST
 70
     0
  9
$DIMSD1
 70
     0
  9
$DIMSD2
 70
     0
  9
$DIMTOLJ
 70
     1
  9
$DIMTZIN
 70
     0
  9
$DIMALTZ
 70
     0
  9
$DIMALTTZ
 70
     0
  9
$DIMUPT
 70
     0
  9
$DIMDEC
 70
     4
  9
$DIMTDEC
 70
     4
  9
$DIMALTU
 70
     2
  9
$DIMALTTD
 70
     2
  9
$DIMTXSTY
  7
Standard
  9
$DIMAUNIT
 70
     0
  9
$DIMADEC
 70
     0
  9
$DIMALTRND
 40
0.0
  9
$DIMAZIN
 70
     0
  9
$DIMDSEP
 70
    46
  9
$DIMATFIT
 70
     3
  9
$DIMFRAC
 70
     0
  9
$DIMLDRBLK
  1

  9
$DIMLUNIT
 70
     2
  9
$DIMLWD
 70
    -2
  9
$DIMLWE
 70
    -2
  9
$DIMTMOVE
 70
     0
  9
$DIMFXL
 40
1.0
  9
$DIMFXLON
 70
     0
  9
$DIMJOGANG
 40
0.7853981633974483
  9
$DIMTFILL
 70
     0
  9
$DIMTFILLCLR
 70
     0
  9
$DIMARCSYM
 70
     0
  9
$DIMLTYPE
  6

  9
$DIMLTEX1
  6

  9
$DIMLTEX2
  6

  9
$LUNITS
 70
     2
  9
$LUPREC
 70
     4
  9
$SKETCHINC
 40
0.1
  9
$FILLETRAD
 40
0.5
  9
$AUNITS
 70
     0
  9
$AUPREC
 70
     0
  9
$MENU
  1
.
  9
$ELEVATION
 40
0.0
  9
$PELEVATION
 40
0.0
  9
$THICKNESS
 40
0.0
  9
$LIMCHECK
 70
     0
  9
$CHAMFERA
 40
0.5
  9
$CHAMFERB
 40
0.5
  9
$CHAMFERC
 40
1.0
  9
$CHAMFERD
 40
0.0
  9
$SKPOLY
 70
     0
  9
$TDCREATE
 40
2460269.506097118
  9
$TDUCREATE
 40
2460269.506097118
  9
$TDUPDATE
 40
2460269.506097187
  9
$TDUUPDATE
 40
2460269.506097187
  9
$TDINDWG
 40
0.0000000116
  9
$TDUSRTIMER
 40
0.0000000116
  9
$USRTIMER
 70
     1
  9
$ANGBASE
 50
0.0
  9
$ANGDIR
 70
     0
  9
$PDMODE
 70
     0
  9
$PDSIZE
 40
0.0
  9
$PLINEWID
 40
0.0
  9
$SPLFRAME
 70
     0
  9
$SPLINETYPE
 70
     6
  9
$SPLINESEGS
 70
     8
  9
$HANDSEED
  5
A5
  9
$SURFTAB1
 70
     6
  9
$SURFTAB2
 70
     6
  9
$SURFTYPE
 70
     6
  9
$SURFU
 70
     6
  9
$SURFV
 70
     6
  9
$UCSBASE
  2

  9
$UCSNAME
  2

  9
$UCSORG
 10
0.0
 20
0.0
 30
0.0
  9
$UCSXDIR
 10
1.0
 20
0.0
 30
0.0
  9
$UCSYDIR
 10
0.0
 20
1.0
 30
0.0
  9
$UCSORTHOREF
  2

  9
$UCSORTHOVIEW
 70
     0
  9
$UCSORGTOP
 10
0.0
 20
0.0
 30
0.0
  9
$UCSORGBOTTOM
 10
0.0
 20
0.0
 30
0.0
  9
$UCSORGLEFT
 10
0.0
 20
0.0
 30
0.0
  9
$UCSORGRIGHT
 10
0.0
 20
0.0
 30
0.0
  9
$UCSORGFRONT
 10
0.0
 20
0.0
 30
0.0
  9
$UCSORGBACK
 10
0.0
 20
0.0
 30
0.0
  9
$PUCSBASE
  2

  9
$PUCSNAME
  2

  9
$PUCSORG
 10
0.0
 20
0.0
 30
0.0
  9
$PUCSXDIR
 10
1.0
 20
0.0
 30
0.0
  9
$PUCSYDIR
 10
0.0
 20
1.0
 30
0.0
  9
$PUCSORTHOREF
  2

  9
$PUCSORTHOVIEW
 70
     0
  9
$PUCSORGTOP
 10
0.0
 20
0.0
 30
0.0
  9
$PUCSORGBOTTOM
 10
0.0
 20
0.0
 30
0.0
  9
$PUCSORGLEFT
 10
0.0
 20
0.0
 30
0.0
  9
$PUCSORGRIGHT
 10
0.0
 20
0.0
 30
0.0
  9
$PUCSORGFRONT
 10
0.0
 20
0.0
 30
0.0
  9
$PUCSORGBACK
 10
0.0
 20
0.0
 30
0.0
  9
$USERI1
 70
     0
  9
$USERI2
 70
     0
  9
$USERI3
 70
     0
  9
$USERI4
 70
     0
  9
$USERI5
 70
     0
  9
$USERR1
 40
0.0
  9
$USERR2
 40
0.0
  9
$USERR3
 40
0.0
  9
$USERR4
 40
0.0
  9
$USERR5
 40
0.0
  9
$WORLDVIEW
 70
     1
  9
$SHADEDGE
 70
     3
  9
$SHADEDIF
 70
    70
  9
$TILEMODE
 70
     1
  9
$MAXACTVP
 70
    64
  9
$PINSBASE
 10
0.0
 20
0.0
 30
0.0
  9
$PLIMCHECK
 70
     0
  9
$PEXTMIN
 10
1.000000000000000E+20
 20
1.000000000000000E+20
 30
1.000000000000000E+20
  9
$PEXTMAX
 10
-1.000000000000000E+20
 20
-1.000000000000000E+20
 30
-1.000000000000000E+20
  9
$PLIMMIN
 10
0.0
 20
0.0
  9
$PLIMMAX
 10
12.0
 20
9.0
  9
$UNITMODE
 70
     0
  9
$VISRETAIN
 70
     1
  9
$PLINEGEN
 70
     0
  9
$PSLTSCALE
 70
     1
  9
$TREEDEPTH
 70
  3020
  9
$CMLSTYLE
  2
Standard
  9
$CMLJUST
 70
     0
  9
$CMLSCALE
 40
1.0
  9
$PROXYGRAPHICS
 70
     1
  9
$MEASUREMENT
 70
     0
  9
$CELWEIGHT
370
    -1
  9
$ENDCAPS
280
     0
  9
$JOINSTYLE
280
     0
  9
$LWDISPLAY
290
     0
  9
$INSUNITS
 70
     5
  9
$HYPERLINKBASE
  1

  9
$STYLESHEET
  1

  9
$XEDIT
290
     1
  9
$CEPSNTYPE
380
     0
  9
$PSTYLEMODE
290
     1
  9
$FINGERPRINTGUID
  2
{39DB2A6B-FD9E-45B9-9337-2F3FFFE93218}
  9
$VERSIONGUID
  2
{FAEB1C32-E019-11D5-929B-00C0DF256EC4}
  9
$EXTNAMES
290
     1
  9
$PSVPSCALE
 40
0.0
  9
$OLESTARTUP
290
     0
  9
$SORTENTS
280
   127
  9
$INDEXCTL
280
     0
  9
$HIDETEXT
280
     1
  9
$XCLIPFRAME
290
     0
  9
$HALOGAP
280
     0
  9
$OBSCOLOR
 70
   257
  9
$OBSLTYPE
280
     0
  9
$INTERSECTIONDISPLAY
280
     0
  9
$INTERSECTIONCOLOR
 70
   257
  9
$DIMASSOC
280
     2
  9
$PROJECTNAME
  1

  9
$CAMERADISPLAY
290
     0
  9
$LENSLENGTH
 40
50.0
  9
$CAMERAHEIGHT
 40
0.0
  9
$STEPSPERSEC
 40
2.0
  9
$STEPSIZE
 40
6.0
  9
$3DDWFPREC
 40
2.0
  9
$PSOLWIDTH
 40
0.25
  9
$PSOLHEIGHT
 40
4.0
  9
$LOFTANG1
 40
1.570796326794897
  9
$LOFTANG2
 40
1.570796326794897
  9
$LOFTMAG1
 40
0.0
  9
$LOFTMAG2
 40
0.0
  9
$LOFTPARAM
 70
     7
  9
$LOFTNORMALS
280
     1
  9
$LATITUDE
 40
37.795
  9
$LONGITUDE
 40
-122.394
  9
$NORTHDIRECTION
 40
0.0
  9
$TIMEZONE
 70
 -8000
  9
$LIGHTGLYPHDISPLAY
280
     1
  9
$TILEMODELIGHTSYNCH
280
     1
  9
$SOLIDHIST
280
     1
  9
$SHOWHIST
280
     1
  9
$DWFFRAME
280
     2
  9
$DGNFRAME
280
     2
  9
$REALWORLDSCALE
290
     1
  9
$INTERFERECOLOR
 62
   256
  9
$CSHADOW
280
     0
  9
$SHADOWPLANELOCATION
 40
0.0
  0
ENDSEC
  0
SECTION
  2
CLASSES
  0
CLASS
  1
ACDBDICTIONARYWDFLT
  2
AcDbDictionaryWithDefault
  3
ObjectDBX Classes
 90
        0
 91
        4
280
     0
281
     0
  0
CLASS
  1
VISUALSTYLE
  2
AcDbVisualStyle
  3
ObjectDBX Classes
 90
     4095
 91
        4
280
     0
281
     0
  0
CLASS
  1
MATERIAL
  2
AcDbMaterial
  3
ObjectDBX Classes
 90
     1153
 91
        4
280
     0
281
     0
  0
ENDSEC
  0
SECTION
  2
TABLES
  0
TABLE
  2
VPORT
  5
8
330
0
100
AcDbSymbolTable
 70
     1
  0
VPORT
  5
29
330
8
100
AcDbSymbolTableRecord
100
AcDbViewportTableRecord
  2
*Active
 70
     0
 10
0.0
 20
0.0
 11
1.0
 21
1.0
 12
10.42990654205607
 22
4.5
 13
0.0
 23
0.0
 14
0.5
 24
0.5
 15
0.5
 25
0.5
 16
0.0
 26
0.0
 36
1.0
 17
0.0
 27
0.0
 37
0.0
 40
9.0
 41
1.972972972850329
 42
50.0
 43
0.0
 44
0.0
 50
0.0
 51
0.0
 71
     0
 72
   100
 73
     1
 74
     3
 75
     0
 76
     0
 77
     0
 78
     0
281
     0
 65
     1
110
0.0
120
0.0
130
0.0
111
1.0
121
0.0
131
0.0
112
0.0
122
1.0
132
0.0
 79
     0
146
0.0
 60
     3
 61
     5
292
     1
282
     1
141
0.0
142
0.0
 63
   250
  0
ENDTAB
  0
TABLE
  2
LTYPE
  5
5
330
0
100
AcDbSymbolTable
 70
     1
  0
LTYPE
  5
14
330
5
100
AcDbSymbolTableRecord
100
AcDbLinetypeTableRecord
  2
ByBlock
 70
     0
  3

 72
    65
 73
     0
 40
0.0
  0
LTYPE
  5
15
330
5
100
AcDbSymbolTableRecord
100
AcDbLinetypeTableRecord
  2
ByLayer
 70
     0
  3

 72
    65
 73
     0
 40
0.0
  0
LTYPE
  5
16
330
5
100
AcDbSymbolTableRecord
100
AcDbLinetypeTableRecord
  2
Continuous
 70
     0
  3
Solid line
 72
    65
 73
     0
 40
0.0
  0
ENDTAB
  0
TABLE
  2
LAYER
  5
2
330
0
100
AcDbSymbolTable
 70
     2
  0
LAYER
  5
10
330
2
100
AcDbSymbolTableRecord
100
AcDbLayerTableRecord
  2
0
 70
     0
 62
     7
  6
Continuous
370
    -3
390
F
347
3E
  0
LAYER
  5
40
330
2
100
AcDbSymbolTableRecord
100
AcDbLayerTableRecord
  2
Layer 1
 70
     0
 62
     7
  6
Continuous
370
    -3
390
F
347
3E
  0
ENDTAB
  0
TABLE
  2
STYLE
  5
3
330
0
100
AcDbSymbolTable
 70
     1
  0
STYLE
  5
11
330
3
100
AcDbSymbolTableRecord
100
AcDbTextStyleTableRecord
  2
Standard
 70
     0
 40
0.0
 41
1.0
 50
0.0
 71
     0
 42
0.2
  3
txt
  4

  0
ENDTAB
  0
TABLE
  2
VIEW
  5
6
330
0
100
AcDbSymbolTable
 70
     0
  0
ENDTAB
  0
TABLE
  2
UCS
  5
7
330
0
100
AcDbSymbolTable
 70
     0
  0
ENDTAB
  0
TABLE
  2
APPID
  5
9
330
0
100
AcDbSymbolTable
 70
     2
  0
APPID
  5
12
330
9
100
AcDbSymbolTableRecord
100
AcDbRegAppTableRecord
  2
ACAD
 70
     0
  0
APPID
  5
3F
330
9
100
AcDbSymbolTableRecord
100
AcDbRegAppTableRecord
  2
ODA
 70
     0
  0
ENDTAB
  0
TABLE
  2
DIMSTYLE
  5
A
330
0
100
AcDbSymbolTable
 70
     1
100
AcDbDimStyleTable
  0
DIMSTYLE
105
27
330
A
100
AcDbSymbolTableRecord
100
AcDbDimStyleTableRecord
  2
Standard
 70
     0
178
     0
340
11
  0
ENDTAB
  0
TABLE
  2
BLOCK_RECORD
  5
1
330
0
100
AcDbSymbolTable
 70
     1
  0
BLOCK_RECORD
  5
1F
330
1
100
AcDbSymbolTableRecord
100
AcDbBlockTableRecord
  2
*Model_Space
340
22
 70
     0
280
     1
281
     0
  0
BLOCK_RECORD
  5
1B
330
1
100
AcDbSymbolTableRecord
100
AcDbBlockTableRecord
  2
*Paper_Space
340
1E
 70
     0
280
     1
281
     0
  0
BLOCK_RECORD
  5
23
330
1
100
AcDbSymbolTableRecord
100
AcDbBlockTableRecord
  2
*Paper_Space0
340
26
 70
     0
280
     1
281
     0
  0
ENDTAB
  0
ENDSEC
  0
SECTION
  2
BLOCKS
  0
BLOCK
  5
20
330
1F
100
AcDbEntity
  8
0
100
AcDbBlockBegin
  2
*Model_Space
 70
     0
 10
0.0
 20
0.0
 30
0.0
  3
*Model_Space
  1

  0
ENDBLK
  5
21
330
1F
100
AcDbEntity
  8
0
100
AcDbBlockEnd
  0
BLOCK
  5
1C
330
1B
100
AcDbEntity
 67
     1
  8
0
100
AcDbBlockBegin
  2
*Paper_Space
 70
     0
 10
0.0
 20
0.0
 30
0.0
  3
*Paper_Space
  1

  0
ENDBLK
  5
1D
330
1B
100
AcDbEntity
 67
     1
  8
0
100
AcDbBlockEnd
  0
BLOCK
  5
24
330
23
100
AcDbEntity
  8
0
100
AcDbBlockBegin
  2
*Paper_Space0
 70
     0
 10
0.0
 20
0.0
 30
0.0
  3
*Paper_Space0
  1

  0
ENDBLK
  5
25
330
23
100
AcDbEntity
  8
0
100
AcDbBlockEnd
  0
ENDSEC
  0
SECTION
  2
ENTITIES
  0
SPLINE
  5
41
330
1F
100
AcDbEntity
  8
Layer 1
370
    53
100
AcDbSpline
210
0.0
220
0.0
230
1.0
 70
    11
 71
     3
 72
   188
 73
   184
 74
     0
 42
0.0000000001
 43
0.0000000001
 12
1.0
 22
0.0
 32
0.0
 13
1.0
 23
0.0
 33
0.0
 40
0.0
 40
0.0
 40
0.0
 40
0.0
 40
0.0212765957446809
 40
0.0212765957446809
 40
0.0212765957446809
 40
0.0212765957446809
 40
0.0425531914893617
 40
0.0425531914893617
 40
0.0425531914893617
 40
0.0425531914893617
 40
0.0638297872340425
 40
0.0638297872340425
 40
0.0638297872340425
 40
0.0638297872340425
 40
0.0851063829787234
 40
0.0851063829787234
 40
0.0851063829787234
 40
0.0851063829787234
 40
0.1063829787234043
 40
0.1063829787234043
 40
0.1063829787234043
 40
0.1063829787234043
 40
0.1276595744680851
 40
0.1276595744680851
 40
0.1276595744680851
 40
0.1276595744680851
 40
0.148936170212766
 40
0.148936170212766
 40
0.148936170212766
 40
0.148936170212766
 40
0.1702127659574468
 40
0.1702127659574468
 40
0.1702127659574468
 40
0.1702127659574468
 40
0.1914893617021277
 40
0.1914893617021277
 40
0.1914893617021277
 40
0.1914893617021277
 40
0.2127659574468085
 40
0.2127659574468085
 40
0.2127659574468085
 40
0.2127659574468085
 40
0.2340425531914894
 40
0.2340425531914894
 40
0.2340425531914894
 40
0.2340425531914894
 40
0.2553191489361702
 40
0.2553191489361702
 40
0.2553191489361702
 40
0.2553191489361702
 40
0.2765957446808511
 40
0.2765957446808511
 40
0.2765957446808511
 40
0.2765957446808511
 40
0.2978723404255319
 40
0.2978723404255319
 40
0.2978723404255319
 40
0.2978723404255319
 40
0.3191489361702128
 40
0.3191489361702128
 40
0.3191489361702128
 40
0.3191489361702128
 40
0.3404255319148936
 40
0.3404255319148936
 40
0.3404255319148936
 40
0.3404255319148936
 40
0.3617021276595745
 40
0.3617021276595745
 40
0.3617021276595745
 40
0.3617021276595745
 40
0.3829787234042553
 40
0.3829787234042553
 40
0.3829787234042553
 40
0.3829787234042553
 40
0.4042553191489361
 40
0.4042553191489361
 40
0.4042553191489361
 40
0.4042553191489361
 40
0.425531914893617
 40
0.425531914893617
 40
0.425531914893617
 40
0.425531914893617
 40
0.4468085106382979
 40
0.4468085106382979
 40
0.4468085106382979
 40
0.4468085106382979
 40
0.4680851063829787
 40
0.4680851063829787
 40
0.4680851063829787
 40
0.4680851063829787
 40
0.4893617021276596
 40
0.4893617021276596
 40
0.4893617021276596
 40
0.4893617021276596
 40
0.5106382978723404
 40
0.5106382978723404
 40
0.5106382978723404
 40
0.5106382978723404
 40
0.5319148936170213
 40
0.5319148936170213
 40
0.5319148936170213
 40
0.5319148936170213
 40
0.5531914893617021
 40
0.5531914893617021
 40
0.5531914893617021
 40
0.5531914893617021
 40
0.574468085106383
 40
0.574468085106383
 40
0.574468085106383
 40
0.574468085106383
 40
0.5957446808510638
 40
0.5957446808510638
 40
0.5957446808510638
 40
0.5957446808510638
 40
0.6170212765957447
 40
0.6170212765957447
 40
0.6170212765957447
 40
0.6170212765957447
 40
0.6382978723404256
 40
0.6382978723404256
 40
0.6382978723404256
 40
0.6382978723404256
 40
0.6595744680851063
 40
0.6595744680851063
 40
0.6595744680851063
 40
0.6595744680851063
 40
0.6808510638297872
 40
0.6808510638297872
 40
0.6808510638297872
 40
0.6808510638297872
 40
0.7021276595744681
 40
0.7021276595744681
 40
0.7021276595744681
 40
0.7021276595744681
 40
0.723404255319149
 40
0.723404255319149
 40
0.723404255319149
 40
0.723404255319149
 40
0.7446808510638298
 40
0.7446808510638298
 40
0.7446808510638298
 40
0.7446808510638298
 40
0.7659574468085106
 40
0.7659574468085106
 40
0.7659574468085106
 40
0.7659574468085106
 40
0.7872340425531915
 40
0.7872340425531915
 40
0.7872340425531915
 40
0.7872340425531915
 40
0.8085106382978723
 40
0.8085106382978723
 40
0.8085106382978723
 40
0.8085106382978723
 40
0.8297872340425532
 40
0.8297872340425532
 40
0.8297872340425532
 40
0.8297872340425532
 40
0.851063829787234
 40
0.851063829787234
 40
0.851063829787234
 40
0.851063829787234
 40
0.8723404255319149
 40
0.8723404255319149
 40
0.8723404255319149
 40
0.8723404255319149
 40
0.8936170212765957
 40
0.8936170212765957
 40
0.8936170212765957
 40
0.8936170212765957
 40
0.9148936170212766
 40
0.9148936170212766
 40
0.9148936170212766
 40
0.9148936170212766
 40
0.9361702127659575
 40
0.9361702127659575
 40
0.9361702127659575
 40
0.9361702127659575
 40
0.9574468085106383
 40
0.9574468085106383
 40
0.9574468085106383
 40
0.9574468085106383
 40
1.0
 40
1.0
 40
1.0
 40
1.0
 10
1.85975
 20
9.39454
 30
0.0
 10
0.84626
 20
10.69537
 30
0.0
 10
0.20547
 20
12.19327
 30
0.0
 10
-0.36776
 20
13.71543
 30
0.0
 10
-0.36776
 20
13.71543
 30
0.0
 10
-0.69122
 20
14.5742
 30
0.0
 10
-0.80855
 20
15.49534
 30
0.0
 10
-0.86577
 20
16.41461
 30
0.0
 10
-0.86577
 20
16.41461
 30
0.0
 10
-0.87251
 20
16.5228
 30
0.0
 10
-0.82538
 20
16.67062
 30
0.0
 10
-0.74872
 20
16.73906
 30
0.0
 10
-0.74872
 20
16.73906
 30
0.0
 10
-0.63753
 20
16.83833
 30
0.0
 10
-0.52033
 20
16.7429
 30
0.0
 10
-0.42554
 20
16.64987
 30
0.0
 10
-0.42554
 20
16.64987
 30
0.0
 10
0.32743
 20
15.91073
 30
0.0
 10
1.08177
 20
15.173
 30
0.0
 10
1.83386
 20
14.43669
 30
0.0
 10
1.83386
 20
14.43669
 30
0.0
 10
1.82148
 20
14.48519
 30
0.0
 10
1.80807
 20
14.56591
 30
0.0
 10
1.78052
 20
14.64147
 30
0.0
 10
1.78052
 20
14.64147
 30
0.0
 10
1.26035
 20
16.06814
 30
0.0
 10
0.99523
 20
17.53905
 30
0.0
 10
1.03686
 20
19.05853
 30
0.0
 10
1.03686
 20
19.05853
 30
0.0
 10
1.06258
 20
19.99692
 30
0.0
 10
1.29954
 20
20.90116
 30
0.0
 10
1.54081
 20
21.80145
 30
0.0
 10
1.54081
 20
21.80145
 30
0.0
 10
1.63419
 20
22.14996
 30
0.0
 10
1.74658
 20
22.49554
 30
0.0
 10
1.88014
 20
22.83058
 30
0.0
 10
1.88014
 20
22.83058
 30
0.0
 10
2.05597
 20
23.27169
 30
0.0
 10
2.27102
 20
23.3112
 30
0.0
 10
2.56947
 20
22.95839
 30
0.0
 10
2.56947
 20
22.95839
 30
0.0
 10
3.15561
 20
22.26539
 30
0.0
 10
3.66982
 20
21.52025
 30
0.0
 10
4.03484
 20
20.68689
 30
0.0
 10
4.03484
 20
20.68689
 30
0.0
 10
4.16082
 20
20.39927
 30
0.0
 10
4.21151
 20
20.07612
 30
0.0
 10
4.27737
 20
19.76515
 30
0.0
 10
4.27737
 20
19.76515
 30
0.0
 10
4.49715
 20
18.72759
 30
0.0
 10
4.41852
 20
17.69018
 30
0.0
 10
4.26196
 20
16.65322
 30
0.0
 10
4.26196
 20
16.65322
 30
0.0
 10
4.19997
 20
16.24249
 30
0.0
 10
4.14889
 20
15.83009
 30
0.0
 10
4.0928
 20
15.41843
 30
0.0
 10
4.0928
 20
15.41843
 30
0.0
 10
4.12314
 20
15.39247
 30
0.0
 10
4.15351
 20
15.3665
 30
0.0
 10
4.18382
 20
15.34057
 30
0.0
 10
4.18382
 20
15.34057
 30
0.0
 10
4.20908
 20
15.40506
 30
0.0
 10
4.21916
 20
15.48278
 30
0.0
 10
4.26199
 20
15.53199
 30
0.0
 10
4.26199
 20
15.53199
 30
0.0
 10
4.65372
 20
15.98217
 30
0.0
 10
5.04431
 20
16.43373
 30
0.0
 10
5.44838
 20
16.87272
 30
0.0
 10
5.44838
 20
16.87272
 30
0.0
 10
6.18922
 20
17.67748
 30
0.0
 10
7.12866
 20
18.24044
 30
0.0
 10
7.97367
 20
18.91838
 30
0.0
 10
7.97367
 20
18.91838
 30
0.0
 10
8.03446
 20
18.96713
 30
0.0
 10
8.16103
 20
18.98851
 30
0.0
 10
8.23124
 20
18.95976
 30
0.0
 10
8.23124
 20
18.95976
 30
0.0
 10
8.39044
 20
18.89453
 30
0.0
 10
8.38155
 20
18.74294
 30
0.0
 10
8.34211
 20
18.60095
 30
0.0
 10
8.34211
 20
18.60095
 30
0.0
 10
8.15257
 20
17.91896
 30
0.0
 10
7.99759
 20
17.22462
 30
0.0
 10
7.76176
 20
16.55896
 30
0.0
 10
7.76176
 20
16.55896
 30
0.0
 10
7.36905
 20
15.45046
 30
0.0
 10
6.70558
 20
14.48117
 30
0.0
 10
6.07844
 20
13.49629
 30
0.0
 10
6.07844
 20
13.49629
 30
0.0
 10
5.9918
 20
13.36029
 30
0.0
 10
5.90029
 20
13.22743
 30
0.0
 10
5.84981
 20
13.05454
 30
0.0
 10
5.84981
 20
13.05454
 30
0.0
 10
5.95533
 20
13.13402
 30
0.0
 10
6.05541
 20
13.22235
 30
0.0
 10
6.16756
 20
13.29093
 30
0.0
 10
6.16756
 20
13.29093
 30
0.0
 10
6.34825
 20
13.4015
 30
0.0
 10
6.49631
 20
13.64745
 30
0.0
 10
6.74872
 20
13.52218
 30
0.0
 10
6.74872
 20
13.52218
 30
0.0
 10
6.99069
 20
13.40206
 30
0.0
 10
6.94409
 20
13.13286
 30
0.0
 10
6.94607
 20
12.92281
 30
0.0
 10
6.94607
 20
12.92281
 30
0.0
 10
6.95358
 20
12.14455
 30
0.0
 10
6.98639
 20
11.36163
 30
0.0
 10
6.91862
 20
10.58841
 30
0.0
 10
6.91862
 20
10.58841
 30
0.0
 10
6.68078
 20
7.87527
 30
0.0
 10
5.52211
 20
5.58274
 30
0.0
 10
3.63246
 20
3.64638
 30
0.0
 10
3.63246
 20
3.64638
 30
0.0
 10
3.50303
 20
3.51373
 30
0.0
 10
3.43773
 20
3.38747
 30
0.0
 10
3.44552
 20
3.21137
 30
0.0
 10
3.44552
 20
3.21137
 30
0.0
 10
3.50352
 20
1.89829
 30
0.0
 10
3.28123
 20
0.60476
 30
0.0
 10
3.17826
 20
-0.69727
 30
0.0
 10
3.17826
 20
-0.69727
 30
0.0
 10
3.12788
 20
-1.33446
 30
0.0
 10
3.1301
 20
-1.9757
 30
0.0
 10
3.10287
 20
-2.61486
 30
0.0
 10
3.10287
 20
-2.61486
 30
0.0
 10
3.06142
 20
-3.58712
 30
0.0
 10
2.12088
 20
-21.62087
 30
0.0
 10
2.07579
 20
-22.59295
 30
0.0
 10
2.07579
 20
-22.59295
 30
0.0
 10
2.07322
 20
-22.64798
 30
0.0
 10
2.07519
 20
-22.70923
 30
0.0
 10
2.05202
 20
-22.75618
 30
0.0
 10
2.05202
 20
-22.75618
 30
0.0
 10
1.93214
 20
-22.99903
 30
0.0
 10
1.80948
 20
-23.24083
 30
0.0
 10
1.6761
 20
-23.47638
 30
0.0
 10
1.6761
 20
-23.47638
 30
0.0
 10
1.64858
 20
-23.52499
 30
0.0
 10
1.5673
 20
-23.57625
 30
0.0
 10
1.51791
 20
-23.57
 30
0.0
 10
1.51791
 20
-23.57
 30
0.0
 10
1.46954
 20
-23.5639
 30
0.0
 10
1.40361
 20
-23.49148
 30
0.0
 10
1.3926
 20
-23.43838
 30
0.0
 10
1.3926
 20
-23.43838
 30
0.0
 10
1.37038
 20
-23.33131
 30
0.0
 10
1.3725
 20
-23.21723
 30
0.0
 10
1.37807
 20
-23.1067
 30
0.0
 10
1.37807
 20
-23.1067
 30
0.0
 10
1.43215
 20
-22.03743
 30
0.0
 10
1.49741
 20
-20.96869
 30
0.0
 10
1.5432
 20
-19.8991
 30
0.0
 10
1.5432
 20
-19.8991
 30
0.0
 10
1.61041
 20
-18.32949
 30
0.0
 10
2.55434
 20
0.30257
 30
0.0
 10
2.62031
 20
1.87222
 30
0.0
 10
2.62031
 20
1.87222
 30
0.0
 10
2.64888
 20
2.55256
 30
0.0
 10
2.70497
 20
3.23165
 30
0.0
 10
2.73898
 20
3.91181
 30
0.0
 10
2.73898
 20
3.91181
 30
0.0
 10
2.77581
 20
4.64756
 30
0.0
 10
2.8064
 20
5.38377
 30
0.0
 10
2.82792
 20
6.12013
 30
0.0
 10
2.82792
 20
6.12013
 30
0.0
 10
2.83225
 20
6.26967
 30
0.0
 10
2.79391
 20
6.4232
 30
0.0
 10
2.75757
 20
6.57052
 30
0.0
 10
2.75757
 20
6.57052
 30
0.0
 10
2.71785
 20
6.73149
 30
0.0
 10
2.70046
 20
6.93353
 30
0.0
 10
2.59402
 20
7.03213
 30
0.0
 10
2.59402
 20
7.03213
 30
0.0
 10
2.49391
 20
7.12491
 30
0.0
 10
2.29141
 20
7.11249
 30
0.0
 10
2.13238
 20
7.13542
 30
0.0
 10
2.13238
 20
7.13542
 30
0.0
 10
1.64071
 20
7.20619
 30
0.0
 10
1.22768
 20
7.59527
 30
0.0
 10
1.14428
 20
8.07307
 30
0.0
 10
1.14428
 20
8.07307
 30
0.0
 10
1.04639
 20
8.63395
 30
0.0
 10
1.30519
 20
9.11528
 30
0.0
 10
1.85975
 20
9.39454
 30
0.0
  0
SPLINE
  5
42
330
1F
100
AcDbEntity
  8
Layer 1
370
    53
100
AcDbSpline
210
0.0
220
0.0
230
1.0
 70
    11
 71
     3
 72
    24
 73
    20
 74
     0
 42
0.0000000001
 43
0.0000000001
 12
1.0
 22
0.0
 32
0.0
 13
1.0
 23
0.0
 33
0.0
 40
0.0
 40
0.0
 40
0.0
 40
0.0
 40
0.1666666666666667
 40
0.1666666666666667
 40
0.1666666666666667
 40
0.1666666666666667
 40
0.3333333333333333
 40
0.3333333333333333
 40
0.3333333333333333
 40
0.3333333333333333
 40
0.5
 40
0.5
 40
0.5
 40
0.5
 40
0.6666666666666666
 40
0.6666666666666666
 40
0.6666666666666666
 40
0.6666666666666666
 40
1.0
 40
1.0
 40
1.0
 40
1.0
 10
3.9471
 20
18.52605
 30
0.0
 10
3.62837
 20
18.23162
 30
0.0
 10
3.37652
 20
17.91074
 30
0.0
 10
3.13797
 20
17.57577
 30
0.0
 10
3.13797
 20
17.57577
 30
0.0
 10
3.00335
 20
17.38672
 30
0.0
 10
2.94225
 20
17.19315
 30
0.0
 10
2.95597
 20
16.95637
 30
0.0
 10
2.95597
 20
16.95637
 30
0.0
 10
3.01147
 20
16.00052
 30
0.0
 10
3.05126
 20
15.04375
 30
0.0
 10
3.09783
 20
14.0874
 30
0.0
 10
3.09783
 20
14.0874
 30
0.0
 10
3.10209
 20
14.00002
 30
0.0
 10
3.11314
 20
13.91295
 30
0.0
 10
3.12658
 20
13.76457
 30
0.0
 10
3.12658
 20
13.76457
 30
0.0
 10
3.43258
 20
14.39322
 30
0.0
 10
4.03657
 20
17.93977
 30
0.0
 10
3.9471
 20
18.52605
 30
0.0
  0
SPLINE
  5
43
330
1F
100
AcDbEntity
  8
Layer 1
370
    53
100
AcDbSpline
210
0.0
220
0.0
230
1.0
 70
    11
 71
     3
 72
    24
 73
    20
 74
     0
 42
0.0000000001
 43
0.0000000001
 12
1.0
 22
0.0
 32
0.0
 13
1.0
 23
0.0
 33
0.0
 40
0.0
 40
0.0
 40
0.0
 40
0.0
 40
0.1666666666666667
 40
0.1666666666666667
 40
0.1666666666666667
 40
0.1666666666666667
 40
0.3333333333333333
 40
0.3333333333333333
 40
0.3333333333333333
 40
0.3333333333333333
 40
0.5
 40
0.5
 40
0.5
 40
0.5
 40
0.6666666666666666
 40
0.6666666666666666
 40
0.6666666666666666
 40
0.6666666666666666
 40
1.0
 40
1.0
 40
1.0
 40
1.0
 10
3.41307
 20
4.70355
 30
0.0
 10
3.4844
 20
4.73463
 30
0.0
 10
3.50398
 20
4.73717
 30
0.0
 10
3.50648
 20
4.7451
 30
0.0
 10
3.50648
 20
4.7451
 30
0.0
 10
3.83767
 20
5.78901
 30
0.0
 10
4.16808
 20
6.8332
 30
0.0
 10
4.49645
 20
7.87798
 30
0.0
 10
4.49645
 20
7.87798
 30
0.0
 10
4.51261
 20
7.92938
 30
0.0
 10
4.52672
 20
7.9907
 30
0.0
 10
4.51416
 20
8.0404
 30
0.0
 10
4.51416
 20
8.0404
 30
0.0
 10
4.39016
 20
8.5315
 30
0.0
 10
4.21222
 20
8.99943
 30
0.0
 10
3.89193
 20
9.41592
 30
0.0
 10
3.89193
 20
9.41592
 30
0.0
 10
3.63962
 20
7.86204
 30
0.0
 10
3.45575
 20
6.3101
 30
0.0
 10
3.41307
 20
4.70355
 30
0.0
  0
SPLINE
  5
44
330
1F
100
AcDbEntity
  8
Layer 1
370
    53
100
AcDbSpline
210
0.0
220
0.0
230
1.0
 70
    11
 71
     3
 72
    28
 73
    24
 74
     0
 42
0.0000000001
 43
0.0000000001
 12
1.0
 22
0.0
 32
0.0
 13
1.0
 23
0.0
 33
0.0
 40
0.0
 40
0.0
 40
0.0
 40
0.0
 40
0.1428571428571428
 40
0.1428571428571428
 40
0.1428571428571428
 40
0.1428571428571428
 40
0.2857142857142857
 40
0.2857142857142857
 40
0.2857142857142857
 40
0.2857142857142857
 40
0.4285714285714285
 40
0.4285714285714285
 40
0.4285714285714285
 40
0.4285714285714285
 40
0.5714285714285714
 40
0.5714285714285714
 40
0.5714285714285714
 40
0.5714285714285714
 40
0.7142857142857143
 40
0.7142857142857143
 40
0.7142857142857143
 40
0.7142857142857143
 40
1.0
 40
1.0
 40
1.0
 40
1.0
 10
2.60916
 20
16.83988
 30
0.0
 10
2.61515
 20
17.0162
 30
0.0
 10
2.62761
 20
17.10743
 30
0.0
 10
2.61974
 20
17.19682
 30
0.0
 10
2.61974
 20
17.19682
 30
0.0
 10
2.56739
 20
17.79143
 30
0.0
 10
2.5132
 20
18.38589
 30
0.0
 10
2.45446
 20
18.97986
 30
0.0
 10
2.45446
 20
18.97986
 30
0.0
 10
2.41809
 20
19.34785
 30
0.0
 10
2.04387
 20
19.7825
 30
0.0
 10
1.64431
 20
19.9222
 30
0.0
 10
1.64431
 20
19.9222
 30
0.0
 10
1.46489
 20
19.26755
 30
0.0
 10
1.49247
 20
18.60433
 30
0.0
 10
1.5431
 20
17.94051
 30
0.0
 10
1.5431
 20
17.94051
 30
0.0
 10
1.54804
 20
17.87539
 30
0.0
 10
1.56783
 20
17.79347
 30
0.0
 10
1.61164
 20
17.75206
 30
0.0
 10
1.61164
 20
17.75206
 30
0.0
 10
1.91958
 20
17.46137
 30
0.0
 10
2.23567
 20
17.17925
 30
0.0
 10
2.60916
 20
16.83988
 30
0.0
  0
SPLINE
  5
45
330
1F
100
AcDbEntity
  8
Layer 1
370
    53
100
AcDbSpline
210
0.0
220
0.0
230
1.0
 70
    11
 71
     3
 72
    32
 73
    28
 74
     0
 42
0.0000000001
 43
0.0000000001
 12
1.0
 22
0.0
 32
0.0
 13
1.0
 23
0.0
 33
0.0
 40
0.0
 40
0.0
 40
0.0
 40
0.0
 40
0.125
 40
0.125
 40
0.125
 40
0.125
 40
0.25
 40
0.25
 40
0.25
 40
0.25
 40
0.375
 40
0.375
 40
0.375
 40
0.375
 40
0.5
 40
0.5
 40
0.5
 40
0.5
 40
0.625
 40
0.625
 40
0.625
 40
0.625
 40
0.75
 40
0.75
 40
0.75
 40
0.75
 40
1.0
 40
1.0
 40
1.0
 40
1.0
 10
6.39827
 20
10.36891
 30
0.0
 10
6.17489
 20
10.22886
 30
0.0
 10
6.03149
 20
10.1201
 30
0.0
 10
5.8726
 20
10.04354
 30
0.0
 10
5.8726
 20
10.04354
 30
0.0
 10
5.60128
 20
9.91291
 30
0.0
 10
5.46052
 20
9.69969
 30
0.0
 10
5.37169
 20
9.41885
 30
0.0
 10
5.37169
 20
9.41885
 30
0.0
 10
5.24635
 20
9.02239
 30
0.0
 10
5.08566
 20
8.6372
 30
0.0
 10
4.94635
 20
8.24498
 30
0.0
 10
4.94635
 20
8.24498
 30
0.0
 10
4.8693
 20
8.02809
 30
0.0
 10
4.80502
 20
7.80665
 30
0.0
 10
4.735
 20
7.58726
 30
0.0
 10
4.735
 20
7.58726
 30
0.0
 10
5.15844
 20
7.74033
 30
0.0
 10
5.51721
 20
7.93824
 30
0.0
 10
5.8727
 20
8.1419
 30
0.0
 10
5.8727
 20
8.1419
 30
0.0
 10
5.91663
 20
8.16705
 30
0.0
 10
5.95787
 20
8.21725
 30
0.0
 10
5.97543
 20
8.26502
 30
0.0
 10
5.97543
 20
8.26502
 30
0.0
 10
6.21522
 20
8.91646
 30
0.0
 10
6.41355
 20
9.57689
 30
0.0
 10
6.39827
 20
10.36891
 30
0.0
  0
SPLINE
  5
46
330
1F
100
AcDbEntity
  8
Layer 1
370
    53
100
AcDbSpline
210
0.0
220
0.0
230
1.0
 70
    11
 71
     3
 72
    36
 73
    32
 74
     0
 42
0.0000000001
 43
0.0000000001
 12
1.0
 22
0.0
 32
0.0
 13
1.0
 23
0.0
 33
0.0
 40
0.0
 40
0.0
 40
0.0
 40
0.0
 40
0.1111111111111111
 40
0.1111111111111111
 40
0.1111111111111111
 40
0.1111111111111111
 40
0.2222222222222222
 40
0.2222222222222222
 40
0.2222222222222222
 40
0.2222222222222222
 40
0.3333333333333333
 40
0.3333333333333333
 40
0.3333333333333333
 40
0.3333333333333333
 40
0.4444444444444444
 40
0.4444444444444444
 40
0.4444444444444444
 40
0.4444444444444444
 40
0.5555555555555556
 40
0.5555555555555556
 40
0.5555555555555556
 40
0.5555555555555556
 40
0.6666666666666666
 40
0.6666666666666666
 40
0.6666666666666666
 40
0.6666666666666666
 40
0.7777777777777778
 40
0.7777777777777778
 40
0.7777777777777778
 40
0.7777777777777778
 40
1.0
 40
1.0
 40
1.0
 40
1.0
 10
4.56707
 20
13.88237
 30
0.0
 10
4.58944
 20
13.85679
 30
0.0
 10
4.61184
 20
13.83125
 30
0.0
 10
4.63421
 20
13.80567
 30
0.0
 10
4.63421
 20
13.80567
 30
0.0
 10
4.73881
 20
13.83012
 30
0.0
 10
4.84217
 20
13.8661
 30
0.0
 10
4.94814
 20
13.87711
 30
0.0
 10
4.94814
 20
13.87711
 30
0.0
 10
5.5726
 20
13.94185
 30
0.0
 10
6.01953
 20
14.22474
 30
0.0
 10
6.26228
 20
14.83353
 30
0.0
 10
6.26228
 20
14.83353
 30
0.0
 10
6.37524
 20
15.11681
 30
0.0
 10
6.58077
 20
15.36315
 30
0.0
 10
6.74431
 20
15.62625
 30
0.0
 10
6.74431
 20
15.62625
 30
0.0
 10
6.72452
 20
15.65398
 30
0.0
 10
6.70473
 20
15.68167
 30
0.0
 10
6.68498
 20
15.7094
 30
0.0
 10
6.68498
 20
15.7094
 30
0.0
 10
6.33206
 20
15.60442
 30
0.0
 10
5.97804
 20
15.50299
 30
0.0
 10
5.62742
 20
15.39095
 30
0.0
 10
5.62742
 20
15.39095
 30
0.0
 10
5.56773
 20
15.3719
 30
0.0
 10
5.50874
 20
15.31669
 30
0.0
 10
5.47276
 20
15.26268
 30
0.0
 10
5.47276
 20
15.26268
 30
0.0
 10
5.16782
 20
14.8046
 30
0.0
 10
4.86824
 20
14.34292
 30
0.0
 10
4.56707
 20
13.88237
 30
0.0
  0
SPLINE
  5
47
330
1F
100
AcDbEntity
  8
Layer 1
370
    53
100
AcDbSpline
210
0.0
220
0.0
230
1.0
 70
    11
 71
     3
 72
    36
 73
    32
 74
     0
 42
0.0000000001
 43
0.0000000001
 12
1.0
 22
0.0
 32
0.0
 13
1.0
 23
0.0
 33
0.0
 40
0.0
 40
0.0
 40
0.0
 40
0.0
 40
0.1111111111111111
 40
0.1111111111111111
 40
0.1111111111111111
 40
0.1111111111111111
 40
0.2222222222222222
 40
0.2222222222222222
 40
0.2222222222222222
 40
0.2222222222222222
 40
0.3333333333333333
 40
0.3333333333333333
 40
0.3333333333333333
 40
0.3333333333333333
 40
0.4444444444444444
 40
0.4444444444444444
 40
0.4444444444444444
 40
0.4444444444444444
 40
0.5555555555555556
 40
0.5555555555555556
 40
0.5555555555555556
 40
0.5555555555555556
 40
0.6666666666666666
 40
0.6666666666666666
 40
0.6666666666666666
 40
0.6666666666666666
 40
0.7777777777777778
 40
0.7777777777777778
 40
0.7777777777777778
 40
0.7777777777777778
 40
1.0
 40
1.0
 40
1.0
 40
1.0
 10
0.44645
 20
13.35415
 30
0.0
 10
0.42218
 20
13.32706
 30
0.0
 10
0.39791
 20
13.29993
 30
0.0
 10
0.37364
 20
13.27284
 30
0.0
 10
0.37364
 20
13.27284
 30
0.0
 10
0.60453
 20
12.7733
 30
0.0
 10
0.83349
 20
12.27285
 30
0.0
 10
1.06886
 20
11.7754
 30
0.0
 10
1.06886
 20
11.7754
 30
0.0
 10
1.09645
 20
11.71705
 30
0.0
 10
1.14989
 20
11.6526
 30
0.0
 10
1.20697
 20
11.62949
 30
0.0
 10
1.20697
 20
11.62949
 30
0.0
 10
1.55777
 20
11.48764
 30
0.0
 10
1.91302
 20
11.3569
 30
0.0
 10
2.26682
 20
11.22246
 30
0.0
 10
2.26682
 20
11.22246
 30
0.0
 10
2.28954
 20
11.24609
 30
0.0
 10
2.31222
 20
11.26973
 30
0.0
 10
2.33494
 20
11.29337
 30
0.0
 10
2.33494
 20
11.29337
 30
0.0
 10
2.08373
 20
11.79579
 30
0.0
 10
1.8347
 20
12.29931
 30
0.0
 10
1.57824
 20
12.79902
 30
0.0
 10
1.57824
 20
12.79902
 30
0.0
 10
1.54945
 20
12.85504
 30
0.0
 10
1.48545
 20
12.90475
 30
0.0
 10
1.42615
 20
12.93131
 30
0.0
 10
1.42615
 20
12.93131
 30
0.0
 10
1.1016
 20
13.07676
 30
0.0
 10
0.77337
 20
13.21406
 30
0.0
 10
0.44645
 20
13.35415
 30
0.0
  0
SPLINE
  5
48
330
1F
100
AcDbEntity
  8
Layer 1
370
    53
100
AcDbSpline
210
0.0
220
0.0
230
1.0
 70
    11
 71
     3
 72
    36
 73
    32
 74
     0
 42
0.0000000001
 43
0.0000000001
 12
1.0
 22
0.0
 32
0.0
 13
1.0
 23
0.0
 33
0.0
 40
0.0
 40
0.0
 40
0.0
 40
0.0
 40
0.1111111111111111
 40
0.1111111111111111
 40
0.1111111111111111
 40
0.1111111111111111
 40
0.2222222222222222
 40
0.2222222222222222
 40
0.2222222222222222
 40
0.2222222222222222
 40
0.3333333333333333
 40
0.3333333333333333
 40
0.3333333333333333
 40
0.3333333333333333
 40
0.4444444444444444
 40
0.4444444444444444
 40
0.4444444444444444
 40
0.4444444444444444
 40
0.5555555555555556
 40
0.5555555555555556
 40
0.5555555555555556
 40
0.5555555555555556
 40
0.6666666666666666
 40
0.6666666666666666
 40
0.6666666666666666
 40
0.6666666666666666
 40
0.7777777777777778
 40
0.7777777777777778
 40
0.7777777777777778
 40
0.7777777777777778
 40
1.0
 40
1.0
 40
1.0
 40
1.0
 10
3.83234
 20
20.09425
 30
0.0
 10
3.7469
 20
20.06924
 30
0.0
 10
3.71035
 20
20.07009
 30
0.0
 10
3.69822
 20
20.05333
 30
0.0
 10
3.69822
 20
20.05333
 30
0.0
 10
3.42305
 20
19.67276
 30
0.0
 10
3.14855
 20
19.29165
 30
0.0
 10
2.87977
 20
18.90659
 30
0.0
 10
2.87977
 20
18.90659
 30
0.0
 10
2.84308
 20
18.85399
 30
0.0
 10
2.81543
 20
18.77811
 30
0.0
 10
2.82075
 20
18.71623
 30
0.0
 10
2.82075
 20
18.71623
 30
0.0
 10
2.84136
 20
18.47645
 30
0.0
 10
2.87702
 20
18.23794
 30
0.0
 10
2.90708
 20
17.99897
 30
0.0
 10
2.90708
 20
17.99897
 30
0.0
 10
2.93622
 20
17.98951
 30
0.0
 10
2.96536
 20
17.98002
 30
0.0
 10
2.99453
 20
17.97057
 30
0.0
 10
2.99453
 20
17.97057
 30
0.0
 10
3.29545
 20
18.37619
 30
0.0
 10
3.60258
 20
18.77744
 30
0.0
 10
3.89193
 20
19.19118
 30
0.0
 10
3.89193
 20
19.19118
 30
0.0
 10
3.94813
 20
19.27151
 30
0.0
 10
3.95931
 20
19.40302
 30
0.0
 10
3.94834
 20
19.50635
 30
0.0
 10
3.94834
 20
19.50635
 30
0.0
 10
3.92812
 20
19.69614
 30
0.0
 10
3.87605
 20
19.88255
 30
0.0
 10
3.83234
 20
20.09425
 30
0.0
  0
SPLINE
  5
49
330
1F
100
AcDbEntity
  8
Layer 1
370
    53
100
AcDbSpline
210
0.0
220
0.0
230
1.0
 70
    11
 71
     3
 72
    24
 73
    20
 74
     0
 42
0.0000000001
 43
0.0000000001
 12
1.0
 22
0.0
 32
0.0
 13
1.0
 23
0.0
 33
0.0
 40
0.0
 40
0.0
 40
0.0
 40
0.0
 40
0.1666666666666667
 40
0.1666666666666667
 40
0.1666666666666667
 40
0.1666666666666667
 40
0.3333333333333333
 40
0.3333333333333333
 40
0.3333333333333333
 40
0.3333333333333333
 40
0.5
 40
0.5
 40
0.5
 40
0.5
 40
0.6666666666666666
 40
0.6666666666666666
 40
0.6666666666666666
 40
0.6666666666666666
 40
1.0
 40
1.0
 40
1.0
 40
1.0
 10
4.50781
 20
10.99104
 30
0.0
 10
4.29759
 20
10.6784
 30
0.0
 10
4.07597
 20
10.4285
 30
0.0
 10
4.14275
 20
10.1364
 30
0.0
 10
4.14275
 20
10.1364
 30
0.0
 10
4.25811
 20
9.63185
 30
0.0
 10
4.45154
 20
9.14481
 30
0.0
 10
4.73859
 20
8.62933
 30
0.0
 10
4.73859
 20
8.62933
 30
0.0
 10
4.84693
 20
8.90869
 30
0.0
 10
4.93495
 20
9.12322
 30
0.0
 10
5.01175
 20
9.34169
 30
0.0
 10
5.01175
 20
9.34169
 30
0.0
 10
5.0332
 20
9.40272
 30
0.0
 10
5.04209
 20
9.48238
 30
0.0
 10
5.0218
 20
9.54158
 30
0.0
 10
5.0218
 20
9.54158
 30
0.0
 10
4.86482
 20
9.99969
 30
0.0
 10
4.6993
 20
10.45492
 30
0.0
 10
4.50781
 20
10.99104
 30
0.0
  0
SPLINE
  5
4A
330
1F
100
AcDbEntity
  8
Layer 1
370
    53
100
AcDbSpline
210
0.0
220
0.0
230
1.0
 70
    11
 71
     3
 72
    28
 73
    24
 74
     0
 42
0.0000000001
 43
0.0000000001
 12
1.0
 22
0.0
 32
0.0
 13
1.0
 23
0.0
 33
0.0
 40
0.0
 40
0.0
 40
0.0
 40
0.0
 40
0.1428571428571428
 40
0.1428571428571428
 40
0.1428571428571428
 40
0.1428571428571428
 40
0.2857142857142857
 40
0.2857142857142857
 40
0.2857142857142857
 40
0.2857142857142857
 40
0.4285714285714285
 40
0.4285714285714285
 40
0.4285714285714285
 40
0.4285714285714285
 40
0.5714285714285714
 40
0.5714285714285714
 40
0.5714285714285714
 40
0.5714285714285714
 40
0.7142857142857143
 40
0.7142857142857143
 40
0.7142857142857143
 40
0.7142857142857143
 40
1.0
 40
1.0
 40
1.0
 40
1.0
 10
7.6881
 20
17.63208
 30
0.0
 10
7.65984
 20
17.6495
 30
0.0
 10
7.63151
 20
17.66697
 30
0.0
 10
7.60322
 20
17.68439
 30
0.0
 10
7.60322
 20
17.68439
 30
0.0
 10
7.07928
 20
17.11254
 30
0.0
 10
6.55533
 20
16.54065
 30
0.0
 10
6.03138
 20
15.9688
 30
0.0
 10
6.03138
 20
15.9688
 30
0.0
 10
6.04497
 20
15.94446
 30
0.0
 10
6.05858
 20
15.92008
 30
0.0
 10
6.0722
 20
15.89574
 30
0.0
 10
6.0722
 20
15.89574
 30
0.0
 10
6.32391
 20
15.95405
 30
0.0
 10
6.57389
 20
16.022
 30
0.0
 10
6.82789
 20
16.06733
 30
0.0
 10
6.82789
 20
16.06733
 30
0.0
 10
6.99835
 20
16.09778
 30
0.0
 10
7.10401
 20
16.18992
 30
0.0
 10
7.16539
 20
16.33925
 30
0.0
 10
7.16539
 20
16.33925
 30
0.0
 10
7.34213
 20
16.76918
 30
0.0
 10
7.51422
 20
17.20102
 30
0.0
 10
7.6881
 20
17.63208
 30
0.0
  0
SPLINE
  5
4B
330
1F
100
AcDbEntity
  8
Layer 1
370
    53
100
AcDbSpline
210
0.0
220
0.0
230
1.0
 70
    11
 71
     3
 72
    24
 73
    20
 74
     0
 42
0.0000000001
 43
0.0000000001
 12
1.0
 22
0.0
 32
0.0
 13
1.0
 23
0.0
 33
0.0
 40
0.0
 40
0.0
 40
0.0
 40
0.0
 40
0.1666666666666667
 40
0.1666666666666667
 40
0.1666666666666667
 40
0.1666666666666667
 40
0.3333333333333333
 40
0.3333333333333333
 40
0.3333333333333333
 40
0.3333333333333333
 40
0.5
 40
0.5
 40
0.5
 40
0.5
 40
0.6666666666666666
 40
0.6666666666666666
 40
0.6666666666666666
 40
0.6666666666666666
 40
1.0
 40
1.0
 40
1.0
 40
1.0
 10
1.04409
 20
13.48553
 30
0.0
 10
1.06738
 20
13.50595
 30
0.0
 10
1.09066
 20
13.52638
 30
0.0
 10
1.11391
 20
13.5468
 30
0.0
 10
1.11391
 20
13.5468
 30
0.0
 10
0.66743
 20
14.16007
 30
0.0
 10
0.22092
 20
14.77338
 30
0.0
 10
-0.22555
 20
15.38665
 30
0.0
 10
-0.22555
 20
15.38665
 30
0.0
 10
-0.25067
 20
15.10665
 30
0.0
 10
-0.21426
 20
14.86231
 30
0.0
 10
-0.15404
 20
14.62401
 30
0.0
 10
-0.15404
 20
14.62401
 30
0.0
 10
0.0506
 20
13.81389
 30
0.0
 10
0.05371
 20
13.81446
 30
0.0
 10
0.84802
 20
13.54197
 30
0.0
 10
0.84802
 20
13.54197
 30
0.0
 10
0.91226
 20
13.51992
 30
0.0
 10
0.97869
 20
13.50419
 30
0.0
 10
1.04409
 20
13.48553
 30
0.0
  0
SPLINE
  5
4C
330
1F
100
AcDbEntity
  8
Layer 1
370
    53
100
AcDbSpline
210
0.0
220
0.0
230
1.0
 70
    11
 71
     3
 72
    24
 73
    20
 74
     0
 42
0.0000000001
 43
0.0000000001
 12
1.0
 22
0.0
 32
0.0
 13
1.0
 23
0.0
 33
0.0
 40
0.0
 40
0.0
 40
0.0
 40
0.0
 40
0.1666666666666667
 40
0.1666666666666667
 40
0.1666666666666667
 40
0.1666666666666667
 40
0.3333333333333333
 40
0.3333333333333333
 40
0.3333333333333333
 40
0.3333333333333333
 40
0.5
 40
0.5
 40
0.5
 40
0.5
 40
0.6666666666666666
 40
0.6666666666666666
 40
0.6666666666666666
 40
0.6666666666666666
 40
1.0
 40
1.0
 40
1.0
 40
1.0
 10
2.50742
 20
22.398
 30
0.0
 10
2.472
 20
22.38473
 30
0.0
 10
2.43651
 20
22.37151
 30
0.0
 10
2.40105
 20
22.35828
 30
0.0
 10
2.40105
 20
22.35828
 30
0.0
 10
2.50269
 20
21.69315
 30
0.0
 10
2.60432
 20
21.02806
 30
0.0
 10
2.70592
 20
20.36293
 30
0.0
 10
2.70592
 20
20.36293
 30
0.0
 10
2.91936
 20
20.59262
 30
0.0
 10
3.06854
 20
20.82521
 30
0.0
 10
3.18165
 20
21.07417
 30
0.0
 10
3.18165
 20
21.07417
 30
0.0
 10
3.22521
 20
21.17005
 30
0.0
 10
3.23005
 20
21.32989
 30
0.0
 10
3.17787
 20
21.41477
 30
0.0
 10
3.17787
 20
21.41477
 30
0.0
 10
2.9704
 20
21.75235
 30
0.0
 10
2.73348
 20
22.07182
 30
0.0
 10
2.50742
 20
22.398
 30
0.0
  0
SPLINE
  5
4D
330
1F
100
AcDbEntity
  8
Layer 1
370
    53
100
AcDbSpline
210
0.0
220
0.0
230
1.0
 70
    11
 71
     3
 72
    20
 73
    16
 74
     0
 42
0.0000000001
 43
0.0000000001
 12
1.0
 22
0.0
 32
0.0
 13
1.0
 23
0.0
 33
0.0
 40
0.0
 40
0.0
 40
0.0
 40
0.0
 40
0.2
 40
0.2
 40
0.2
 40
0.2
 40
0.4
 40
0.4
 40
0.4
 40
0.4
 40
0.6
 40
0.6
 40
0.6
 40
0.6
 40
1.0
 40
1.0
 40
1.0
 40
1.0
 10
2.73245
 20
8.1558
 30
0.0
 10
2.73767
 20
8.47061
 30
0.0
 10
2.4739
 20
8.72102
 30
0.0
 10
2.11125
 20
8.7456
 30
0.0
 10
2.11125
 20
8.7456
 30
0.0
 10
1.92375
 20
8.7583
 30
0.0
 10
1.68403
 20
8.46497
 30
0.0
 10
1.6792
 20
8.2169
 30
0.0
 10
1.6792
 20
8.2169
 30
0.0
 10
1.67387
 20
7.94215
 30
0.0
 10
1.92198
 20
7.74269
 30
0.0
 10
2.28951
 20
7.72639
 30
0.0
 10
2.28951
 20
7.72639
 30
0.0
 10
2.5501
 20
7.71479
 30
0.0
 10
2.72797
 20
7.88723
 30
0.0
 10
2.73245
 20
8.1558
 30
0.0
  0
SPLINE
  5
4E
330
1F
100
AcDbEntity
  8
Layer 1
370
    53
100
AcDbSpline
210
0.0
220
0.0
230
1.0
 70
    11
 71
     3
 72
    16
 73
    12
 74
     0
 42
0.0000000001
 43
0.0000000001
 12
1.0
 22
0.0
 32
0.0
 13
1.0
 23
0.0
 33
0.0
 40
0.0
 40
0.0
 40
0.0
 40
0.0
 40
0.25
 40
0.25
 40
0.25
 40
0.25
 40
0.5
 40
0.5
 40
0.5
 40
0.5
 40
1.0
 40
1.0
 40
1.0
 40
1.0
 10
2.75062
 20
13.73046
 30
0.0
 10
2.74695
 20
14.08116
 30
0.0
 10
2.74769
 20
14.43196
 30
0.0
 10
2.73842
 20
14.78251
 30
0.0
 10
2.73842
 20
14.78251
 30
0.0
 10
2.72646
 20
15.23478
 30
0.0
 10
2.40829
 20
15.63814
 30
0.0
 10
1.88879
 20
15.83714
 30
0.0
 10
1.88879
 20
15.83714
 30
0.0
 10
2.10684
 20
15.0925
 30
0.0
 10
2.30686
 20
14.37156
 30
0.0
 10
2.75062
 20
13.73046
 30
0.0
  0
SPLINE
  5
4F
330
1F
100
AcDbEntity
  8
Layer 1
370
    53
100
AcDbSpline
210
0.0
220
0.0
230
1.0
 70
    11
 71
     3
 72
    24
 73
    20
 74
     0
 42
0.0000000001
 43
0.0000000001
 12
1.0
 22
0.0
 32
0.0
 13
1.0
 23
0.0
 33
0.0
 40
0.0
 40
0.0
 40
0.0
 40
0.0
 40
0.1666666666666667
 40
0.1666666666666667
 40
0.1666666666666667
 40
0.1666666666666667
 40
0.3333333333333333
 40
0.3333333333333333
 40
0.3333333333333333
 40
0.3333333333333333
 40
0.5
 40
0.5
 40
0.5
 40
0.5
 40
0.6666666666666666
 40
0.6666666666666666
 40
0.6666666666666666
 40
0.6666666666666666
 40
1.0
 40
1.0
 40
1.0
 40
1.0
 10
6.33174
 20
12.79726
 30
0.0
 10
6.30503
 20
12.81726
 30
0.0
 10
6.27833
 20
12.8373
 30
0.0
 10
6.25162
 20
12.8573
 30
0.0
 10
6.25162
 20
12.8573
 30
0.0
 10
5.96566
 20
12.60132
 30
0.0
 10
5.67709
 20
12.34821
 30
0.0
 10
5.39603
 20
12.08697
 30
0.0
 10
5.39603
 20
12.08697
 30
0.0
 10
5.33899
 20
12.03399
 30
0.0
 10
5.27302
 20
11.94918
 30
0.0
 10
5.2751
 20
11.88099
 30
0.0
 10
5.2751
 20
11.88099
 30
0.0
 10
5.28533
 20
11.54737
 30
0.0
 10
5.35077
 20
11.22464
 30
0.0
 10
5.53534
 20
10.90104
 30
0.0
 10
5.53534
 20
10.90104
 30
0.0
 10
5.81354
 20
11.56349
 30
0.0
 10
6.07262
 20
12.18036
 30
0.0
 10
6.33174
 20
12.79726
 30
0.0
  0
SPLINE
  5
50
330
1F
100
AcDbEntity
  8
Layer 1
370
    53
100
AcDbSpline
210
0.0
220
0.0
230
1.0
 70
    11
 71
     3
 72
    24
 73
    20
 74
     0
 42
0.0000000001
 43
0.0000000001
 12
1.0
 22
0.0
 32
0.0
 13
1.0
 23
0.0
 33
0.0
 40
0.0
 40
0.0
 40
0.0
 40
0.0
 40
0.1666666666666667
 40
0.1666666666666667
 40
0.1666666666666667
 40
0.1666666666666667
 40
0.3333333333333333
 40
0.3333333333333333
 40
0.3333333333333333
 40
0.3333333333333333
 40
0.5
 40
0.5
 40
0.5
 40
0.5
 40
0.6666666666666666
 40
0.6666666666666666
 40
0.6666666666666666
 40
0.6666666666666666
 40
1.0
 40
1.0
 40
1.0
 40
1.0
 10
3.78119
 20
4.52031
 30
0.0
 10
3.81015
 20
4.50589
 30
0.0
 10
3.83912
 20
4.49142
 30
0.0
 10
3.86805
 20
4.47699
 30
0.0
 10
3.86805
 20
4.47699
 30
0.0
 10
4.38053
 20
5.04169
 30
0.0
 10
4.7592
 20
5.69771
 30
0.0
 10
5.1022
 20
6.39483
 30
0.0
 10
5.1022
 20
6.39483
 30
0.0
 10
4.80379
 20
6.27426
 30
0.0
 10
4.53617
 20
6.11829
 30
0.0
 10
4.27392
 20
5.95376
 30
0.0
 10
4.27392
 20
5.95376
 30
0.0
 10
4.23208
 20
5.92755
 30
0.0
 10
4.20329
 20
5.86648
 30
0.0
 10
4.18703
 20
5.81557
 30
0.0
 10
4.18703
 20
5.81557
 30
0.0
 10
4.0493
 20
5.38459
 30
0.0
 10
3.91588
 20
4.95226
 30
0.0
 10
3.78119
 20
4.52031
 30
0.0
  0
SPLINE
  5
51
330
1F
100
AcDbEntity
  8
Layer 1
370
    53
100
AcDbSpline
210
0.0
220
0.0
230
1.0
 70
    11
 71
     3
 72
    16
 73
    12
 74
     0
 42
0.0000000001
 43
0.0000000001
 12
1.0
 22
0.0
 32
0.0
 13
1.0
 23
0.0
 33
0.0
 40
0.0
 40
0.0
 40
0.0
 40
0.0
 40
0.25
 40
0.25
 40
0.25
 40
0.25
 40
0.5
 40
0.5
 40
0.5
 40
0.5
 40
1.0
 40
1.0
 40
1.0
 40
1.0
 10
4.51451
 20
15.17978
 30
0.0
 10
3.96749
 20
14.50943
 30
0.0
 10
3.543
 20
13.43194
 30
0.0
 10
3.57231
 20
12.85254
 30
0.0
 10
3.57231
 20
12.85254
 30
0.0
 10
3.86088
 20
13.3864
 30
0.0
 10
4.14469
 20
13.94326
 30
0.0
 10
4.46085
 20
14.48107
 30
0.0
 10
4.46085
 20
14.48107
 30
0.0
 10
4.59226
 20
14.70462
 30
0.0
 10
4.63216
 20
14.90461
 30
0.0
 10
4.51451
 20
15.17978
 30
0.0
  0
SPLINE
  5
52
330
1F
100
AcDbEntity
  8
Layer 1
370
    53
100
AcDbSpline
210
0.0
220
0.0
230
1.0
 70
    11
 71
     3
 72
    12
 73
     8
 74
     0
 42
0.0000000001
 43
0.0000000001
 12
1.0
 22
0.0
 32
0.0
 13
1.0
 23
0.0
 33
0.0
 40
0.0
 40
0.0
 40
0.0
 40
0.0
 40
0.3333333333333333
 40
0.3333333333333333
 40
0.3333333333333333
 40
0.3333333333333333
 40
1.0
 40
1.0
 40
1.0
 40
1.0
 10
2.8888
 20
9.11362
 30
0.0
 10
2.87233
 20
10.05709
 30
0.0
 10
2.54157
 20
10.44582
 30
0.0
 10
1.79837
 20
10.42253
 30
0.0
 10
1.79837
 20
10.42253
 30
0.0
 10
2.07368
 20
9.90691
 30
0.0
 10
2.49239
 20
9.52521
 30
0.0
 10
2.8888
 20
9.11362
 30
0.0
  0
SPLINE
  5
53
330
1F
100
AcDbEntity
  8
Layer 1
370
    53
100
AcDbSpline
210
0.0
220
0.0
230
1.0
 70
    11
 71
     3
 72
    20
 73
    16
 74
     0
 42
0.0000000001
 43
0.0000000001
 12
1.0
 22
0.0
 32
0.0
 13
1.0
 23
0.0
 33
0.0
 40
0.0
 40
0.0
 40
0.0
 40
0.0
 40
0.2
 40
0.2
 40
0.2
 40
0.2
 40
0.4
 40
0.4
 40
0.4
 40
0.4
 40
0.6
 40
0.6
 40
0.6
 40
0.6
 40
1.0
 40
1.0
 40
1.0
 40
1.0
 10
2.56358
 20
12.60358
 30
0.0
 10
2.37819
 20
12.31219
 30
0.0
 10
2.40839
 20
12.11788
 30
0.0
 10
2.50456
 20
11.89453
 30
0.0
 10
2.50456
 20
11.89453
 30
0.0
 10
2.72423
 20
11.38428
 30
0.0
 10
2.91205
 20
10.86026
 30
0.0
 10
3.11356
 20
10.34214
 30
0.0
 10
3.11356
 20
10.34214
 30
0.0
 10
3.13617
 20
10.28407
 30
0.0
 10
3.16376
 20
10.22791
 30
0.0
 10
3.18905
 20
10.17086
 30
0.0
 10
3.18905
 20
10.17086
 30
0.0
 10
3.19382
 20
11.02268
 30
0.0
 10
2.96007
 20
11.80144
 30
0.0
 10
2.56358
 20
12.60358
 30
0.0
  0
SPLINE
  5
54
330
1F
100
AcDbEntity
  8
Layer 1
370
    53
100
AcDbSpline
210
0.0
220
0.0
230
1.0
 70
    11
 71
     3
 72
    20
 73
    16
 74
     0
 42
0.0000000001
 43
0.0000000001
 12
1.0
 22
0.0
 32
0.0
 13
1.0
 23
0.0
 33
0.0
 40
0.0
 40
0.0
 40
0.0
 40
0.0
 40
0.2
 40
0.2
 40
0.2
 40
0.2
 40
0.4
 40
0.4
 40
0.4
 40
0.4
 40
0.6
 40
0.6
 40
0.6
 40
0.6
 40
1.0
 40
1.0
 40
1.0
 40
1.0
 10
2.10938
 20
21.88573
 30
0.0
 10
2.06651
 20
21.8719
 30
0.0
 10
2.04507
 20
21.87003
 30
0.0
 10
2.04373
 20
21.86382
 30
0.0
 10
2.04373
 20
21.86382
 30
0.0
 10
1.98019
 20
21.56827
 30
0.0
 10
1.92061
 20
21.27186
 30
0.0
 10
1.85584
 20
20.97659
 30
0.0
 10
1.85584
 20
20.97659
 30
0.0
 10
1.75536
 20
20.51836
 30
0.0
 10
1.86547
 20
20.31679
 30
0.0
 10
2.35551
 20
20.10293
 30
0.0
 10
2.35551
 20
20.10293
 30
0.0
 10
2.31579
 20
20.70996
 30
0.0
 10
2.2949
 20
21.307
 30
0.0
 10
2.10938
 20
21.88573
 30
0.0
  0
SPLINE
  5
55
330
1F
100
AcDbEntity
  8
Layer 1
370
    53
100
AcDbSpline
210
0.0
220
0.0
230
1.0
 70
    11
 71
     3
 72
    12
 73
     8
 74
     0
 42
0.0000000001
 43
0.0000000001
 12
1.0
 22
0.0
 32
0.0
 13
1.0
 23
0.0
 33
0.0
 40
0.0
 40
0.0
 40
0.0
 40
0.0
 40
0.3333333333333333
 40
0.3333333333333333
 40
0.3333333333333333
 40
0.3333333333333333
 40
1.0
 40
1.0
 40
1.0
 40
1.0
 10
5.06989
 20
13.04184
 30
0.0
 10
4.02514
 20
12.80721
 30
0.0
 10
3.94319
 20
12.83317
 30
0.0
 10
3.73212
 20
11.69536
 30
0.0
 10
3.73212
 20
11.69536
 30
0.0
 10
4.20325
 20
12.13252
 30
0.0
 10
4.67718
 20
12.48216
 30
0.0
 10
5.06989
 20
13.04184
 30
0.0
  0
SPLINE
  5
56
330
1F
100
AcDbEntity
  8
Layer 1
370
    53
100
AcDbSpline
210
0.0
220
0.0
230
1.0
 70
    11
 71
     3
 72
    28
 73
    24
 74
     0
 42
0.0000000001
 43
0.0000000001
 12
1.0
 22
0.0
 32
0.0
 13
1.0
 23
0.0
 33
0.0
 40
0.0
 40
0.0
 40
0.0
 40
0.0
 40
0.1428571428571428
 40
0.1428571428571428
 40
0.1428571428571428
 40
0.1428571428571428
 40
0.2857142857142857
 40
0.2857142857142857
 40
0.2857142857142857
 40
0.2857142857142857
 40
0.4285714285714285
 40
0.4285714285714285
 40
0.4285714285714285
 40
0.4285714285714285
 40
0.5714285714285714
 40
0.5714285714285714
 40
0.5714285714285714
 40
0.5714285714285714
 40
0.7142857142857143
 40
0.7142857142857143
 40
0.7142857142857143
 40
0.7142857142857143
 40
1.0
 40
1.0
 40
1.0
 40
1.0
 10
2.58072
 20
15.79492
 30
0.0
 10
2.58072
 20
15.79492
 30
0.0
 10
2.66514
 20
15.82727
 30
0.0
 10
2.66514
 20
15.82727
 30
0.0
 10
2.66514
 20
15.82727
 30
0.0
 10
2.64334
 20
16.0075
 30
0.0
 10
2.68508
 20
16.24093
 30
0.0
 10
2.58743
 20
16.35767
 30
0.0
 10
2.58743
 20
16.35767
 30
0.0
 10
2.32739
 20
16.66843
 30
0.0
 10
2.00735
 20
16.92892
 30
0.0
 10
1.71116
 20
17.20941
 30
0.0
 10
1.71116
 20
17.20941
 30
0.0
 10
1.67892
 20
17.19019
 30
0.0
 10
1.64671
 20
17.17093
 30
0.0
 10
1.61447
 20
17.15166
 30
0.0
 10
1.61447
 20
17.15166
 30
0.0
 10
1.68086
 20
16.92264
 30
0.0
 10
1.69074
 20
16.64956
 30
0.0
 10
1.82687
 20
16.47493
 30
0.0
 10
1.82687
 20
16.47493
 30
0.0
 10
2.03177
 20
16.21211
 30
0.0
 10
2.32503
 20
16.01815
 30
0.0
 10
2.58072
 20
15.79492
 30
0.0
  0
SPLINE
  5
57
330
1F
100
AcDbEntity
  8
Layer 1
370
    53
100
AcDbSpline
210
0.0
220
0.0
230
1.0
 70
    11
 71
     3
 72
    20
 73
    16
 74
     0
 42
0.0000000001
 43
0.0000000001
 12
1.0
 22
0.0
 32
0.0
 13
1.0
 23
0.0
 33
0.0
 40
0.0
 40
0.0
 40
0.0
 40
0.0
 40
0.2
 40
0.2
 40
0.2
 40
0.2
 40
0.4
 40
0.4
 40
0.4
 40
0.4
 40
0.6
 40
0.6
 40
0.6
 40
0.6
 40
1.0
 40
1.0
 40
1.0
 40
1.0
 10
5.69935
 20
7.67732
 30
0.0
 10
5.37963
 20
7.49
 30
0.0
 10
5.12901
 20
7.31735
 30
0.0
 10
4.85702
 20
7.19056
 30
0.0
 10
4.85702
 20
7.19056
 30
0.0
 10
4.54675
 20
7.04592
 30
0.0
 10
4.46297
 20
6.80455
 30
0.0
 10
4.45535
 20
6.46641
 30
0.0
 10
4.45535
 20
6.46641
 30
0.0
 10
4.66363
 20
6.57489
 30
0.0
 10
4.83896
 20
6.68485
 30
0.0
 10
5.02798
 20
6.76074
 30
0.0
 10
5.02798
 20
6.76074
 30
0.0
 10
5.40785
 20
6.91321
 30
0.0
 10
5.621
 20
7.18668
 30
0.0
 10
5.69935
 20
7.67732
 30
0.0
  0
SPLINE
  5
58
330
1F
100
AcDbEntity
  8
Layer 1
370
    53
100
AcDbSpline
210
0.0
220
0.0
230
1.0
 70
    11
 71
     3
 72
    20
 73
    16
 74
     0
 42
0.0000000001
 43
0.0000000001
 12
1.0
 22
0.0
 32
0.0
 13
1.0
 23
0.0
 33
0.0
 40
0.0
 40
0.0
 40
0.0
 40
0.0
 40
0.2
 40
0.2
 40
0.2
 40
0.2
 40
0.4
 40
0.4
 40
0.4
 40
0.4
 40
0.6
 40
0.6
 40
0.6
 40
0.6
 40
1.0
 40
1.0
 40
1.0
 40
1.0
 10
6.53871
 20
12.22435
 30
0.0
 10
6.15278
 20
11.72347
 30
0.0
 10
5.9796
 20
11.15257
 30
0.0
 10
5.83012
 20
10.55634
 30
0.0
 10
5.83012
 20
10.55634
 30
0.0
 10
6.02578
 20
10.642
 30
0.0
 10
6.19842
 20
10.74885
 30
0.0
 10
6.36462
 20
10.86502
 30
0.0
 10
6.36462
 20
10.86502
 30
0.0
 10
6.40603
 20
10.89395
 30
0.0
 10
6.44925
 20
10.95092
 30
0.0
 10
6.45313
 20
10.9982
 30
0.0
 10
6.45313
 20
10.9982
 30
0.0
 10
6.48664
 20
11.40647
 30
0.0
 10
6.51137
 20
11.81551
 30
0.0
 10
6.53871
 20
12.22435
 30
0.0
  0
SPLINE
  5
59
330
1F
100
AcDbEntity
  8
Layer 1
370
    53
100
AcDbSpline
210
0.0
220
0.0
230
1.0
 70
    11
 71
     3
 72
    24
 73
    20
 74
     0
 42
0.0000000001
 43
0.0000000001
 12
1.0
 22
0.0
 32
0.0
 13
1.0
 23
0.0
 33
0.0
 40
0.0
 40
0.0
 40
0.0
 40
0.0
 40
0.1666666666666667
 40
0.1666666666666667
 40
0.1666666666666667
 40
0.1666666666666667
 40
0.3333333333333333
 40
0.3333333333333333
 40
0.3333333333333333
 40
0.3333333333333333
 40
0.5
 40
0.5
 40
0.5
 40
0.5
 40
0.6666666666666666
 40
0.6666666666666666
 40
0.6666666666666666
 40
0.6666666666666666
 40
1.0
 40
1.0
 40
1.0
 40
1.0
 10
1.70569
 20
13.30416
 30
0.0
 10
1.83622
 20
13.68989
 30
0.0
 10
1.84575
 20
13.69836
 30
0.0
 10
1.65708
 20
13.91108
 30
0.0
 10
1.65708
 20
13.91108
 30
0.0
 10
1.36301
 20
14.24269
 30
0.0
 10
1.05612
 20
14.56309
 30
0.0
 10
0.75072
 20
14.8845
 30
0.0
 10
0.75072
 20
14.8845
 30
0.0
 10
0.6923
 20
14.94599
 30
0.0
 10
0.61572
 20
14.99023
 30
0.0
 10
0.54752
 20
15.04244
 30
0.0
 10
0.54752
 20
15.04244
 30
0.0
 10
0.54752
 20
15.04244
 30
0.0
 10
0.52989
 20
15.01034
 30
0.0
 10
0.52989
 20
15.01034
 30
0.0
 10
0.52989
 20
15.01034
 30
0.0
 10
0.91194
 20
14.45598
 30
0.0
 10
1.29397
 20
13.90159
 30
0.0
 10
1.70569
 20
13.30416
 30
0.0
  0
SPLINE
  5
5A
330
1F
100
AcDbEntity
  8
Layer 1
370
    53
100
AcDbSpline
210
0.0
220
0.0
230
1.0
 70
    11
 71
     3
 72
    20
 73
    16
 74
     0
 42
0.0000000001
 43
0.0000000001
 12
1.0
 22
0.0
 32
0.0
 13
1.0
 23
0.0
 33
0.0
 40
0.0
 40
0.0
 40
0.0
 40
0.0
 40
0.2
 40
0.2
 40
0.2
 40
0.2
 40
0.4
 40
0.4
 40
0.4
 40
0.4
 40
0.6
 40
0.6
 40
0.6
 40
0.6
 40
1.0
 40
1.0
 40
1.0
 40
1.0
 10
5.43699
 20
15.81764
 30
0.0
 10
5.88809
 20
16.33858
 30
0.0
 10
6.3292
 20
16.84799
 30
0.0
 10
6.77031
 20
17.35737
 30
0.0
 10
6.77031
 20
17.35737
 30
0.0
 10
6.7508
 20
17.37642
 30
0.0
 10
6.73133
 20
17.39543
 30
0.0
 10
6.71186
 20
17.41445
 30
0.0
 10
6.71186
 20
17.41445
 30
0.0
 10
6.31474
 20
17.07218
 30
0.0
 10
5.91973
 20
16.72745
 30
0.0
 10
5.51964
 20
16.38868
 30
0.0
 10
5.51964
 20
16.38868
 30
0.0
 10
5.33013
 20
16.22827
 30
0.0
 10
5.3066
 20
16.05026
 30
0.0
 10
5.43699
 20
15.81764
 30
0.0
  0
SPLINE
  5
5B
330
1F
100
AcDbEntity
  8
Layer 1
370
    53
100
AcDbSpline
210
0.0
220
0.0
230
1.0
 70
    11
 71
     3
 72
    20
 73
    16
 74
     0
 42
0.0000000001
 43
0.0000000001
 12
1.0
 22
0.0
 32
0.0
 13
1.0
 23
0.0
 33
0.0
 40
0.0
 40
0.0
 40
0.0
 40
0.0
 40
0.2
 40
0.2
 40
0.2
 40
0.2
 40
0.4
 40
0.4
 40
0.4
 40
0.4
 40
0.6
 40
0.6
 40
0.6
 40
0.6
 40
1.0
 40
1.0
 40
1.0
 40
1.0
 10
2.7231
 20
19.47912
 30
0.0
 10
2.75941
 20
19.45968
 30
0.0
 10
2.79574
 20
19.44024
 30
0.0
 10
2.83208
 20
19.42084
 30
0.0
 10
2.83208
 20
19.42084
 30
0.0
 10
3.0696
 20
19.7571
 30
0.0
 10
3.309
 20
20.09207
 30
0.0
 10
3.54377
 20
20.43028
 30
0.0
 10
3.54377
 20
20.43028
 30
0.0
 10
3.63638
 20
20.56366
 30
0.0
 10
3.62484
 20
20.68883
 30
0.0
 10
3.44612
 20
20.82189
 30
0.0
 10
3.44612
 20
20.82189
 30
0.0
 10
3.22497
 20
20.3558
 30
0.0
 10
2.8349
 20
19.99227
 30
0.0
 10
2.7231
 20
19.47912
 30
0.0
  0
SPLINE
  5
5C
330
1F
100
AcDbEntity
  8
Layer 1
370
    53
100
AcDbSpline
210
0.0
220
0.0
230
1.0
 70
    11
 71
     3
 72
    16
 73
    12
 74
     0
 42
0.0000000001
 43
0.0000000001
 12
1.0
 22
0.0
 32
0.0
 13
1.0
 23
0.0
 33
0.0
 40
0.0
 40
0.0
 40
0.0
 40
0.0
 40
0.25
 40
0.25
 40
0.25
 40
0.25
 40
0.5
 40
0.5
 40
0.5
 40
0.5
 40
1.0
 40
1.0
 40
1.0
 40
1.0
 10
4.85663
 20
11.53103
 30
0.0
 10
4.82968
 20
11.43225
 30
0.0
 10
4.75824
 20
11.32014
 30
0.0
 10
4.78322
 20
11.23696
 30
0.0
 10
4.78322
 20
11.23696
 30
0.0
 10
4.90479
 20
10.83221
 30
0.0
 10
5.05218
 20
10.4352
 30
0.0
 10
5.20684
 20
9.98788
 30
0.0
 10
5.20684
 20
9.98788
 30
0.0
 10
5.34153
 20
10.30658
 30
0.0
 10
5.22479
 20
10.881
 30
0.0
 10
4.85663
 20
11.53103
 30
0.0
  0
SPLINE
  5
5D
330
1F
100
AcDbEntity
  8
Layer 1
370
    53
100
AcDbSpline
210
0.0
220
0.0
230
1.0
 70
    11
 71
     3
 72
    12
 73
     8
 74
     0
 42
0.0000000001
 43
0.0000000001
 12
1.0
 22
0.0
 32
0.0
 13
1.0
 23
0.0
 33
0.0
 40
0.0
 40
0.0
 40
0.0
 40
0.0
 40
0.3333333333333333
 40
0.3333333333333333
 40
0.3333333333333333
 40
0.3333333333333333
 40
1.0
 40
1.0
 40
1.0
 40
1.0
 10
3.83968
 20
10.51701
 30
0.0
 10
3.9942
 20
10.85567
 30
0.0
 10
4.12212
 20
11.13613
 30
0.0
 10
4.2803
 20
11.48291
 30
0.0
 10
4.2803
 20
11.48291
 30
0.0
 10
3.80437
 20
11.18009
 30
0.0
 10
3.71522
 20
11.28225
 30
0.0
 10
3.83968
 20
10.51701
 30
0.0
  0
SPLINE
  5
5E
330
1F
100
AcDbEntity
  8
Layer 1
370
    53
100
AcDbSpline
210
0.0
220
0.0
230
1.0
 70
    11
 71
     3
 72
    12
 73
     8
 74
     0
 42
0.0000000001
 43
0.0000000001
 12
1.0
 22
0.0
 32
0.0
 13
1.0
 23
0.0
 33
0.0
 40
0.0
 40
0.0
 40
0.0
 40
0.0
 40
0.3333333333333333
 40
0.3333333333333333
 40
0.3333333333333333
 40
0.3333333333333333
 40
1.0
 40
1.0
 40
1.0
 40
1.0
 10
5.46179
 20
13.60607
 30
0.0
 10
5.05034
 20
13.5545
 30
0.0
 10
4.64176
 20
13.49713
 30
0.0
 10
4.29321
 20
13.25156
 30
0.0
 10
4.29321
 20
13.25156
 30
0.0
 10
4.69178
 20
13.3435
 30
0.0
 10
5.11885
 20
13.33602
 30
0.0
 10
5.46179
 20
13.60607
 30
0.0
  0
SPLINE
  5
5F
330
1F
100
AcDbEntity
  8
Layer 1
370
    53
100
AcDbSpline
210
0.0
220
0.0
230
1.0
 70
    11
 71
     3
 72
    12
 73
     8
 74
     0
 42
0.0000000001
 43
0.0000000001
 12
1.0
 22
0.0
 32
0.0
 13
1.0
 23
0.0
 33
0.0
 40
0.0
 40
0.0
 40
0.0
 40
0.0
 40
0.3333333333333333
 40
0.3333333333333333
 40
0.3333333333333333
 40
0.3333333333333333
 40
1.0
 40
1.0
 40
1.0
 40
1.0
 10
2.5071
 20
10.66694
 30
0.0
 10
2.17877
 20
10.90506
 30
0.0
 10
1.80994
 20
11.05623
 30
0.0
 10
1.40682
 20
11.1264
 30
0.0
 10
1.40682
 20
11.1264
 30
0.0
 10
1.71028
 20
10.8325
 30
0.0
 10
2.11996
 20
10.77813
 30
0.0
 10
2.5071
 20
10.66694
 30
0.0
  0
SPLINE
  5
60
330
1F
100
AcDbEntity
  8
Layer 1
370
    53
100
AcDbSpline
210
0.0
220
0.0
230
1.0
 70
    11
 71
     3
 72
    12
 73
     8
 74
     0
 42
0.0000000001
 43
0.0000000001
 12
1.0
 22
0.0
 32
0.0
 13
1.0
 23
0.0
 33
0.0
 40
0.0
 40
0.0
 40
0.0
 40
0.0
 40
0.3333333333333333
 40
0.3333333333333333
 40
0.3333333333333333
 40
0.3333333333333333
 40
1.0
 40
1.0
 40
1.0
 40
1.0
 10
2.16392
 20
13.21911
 30
0.0
 10
2.09177
 20
12.99531
 30
0.0
 10
1.96407
 20
12.84594
 30
0.0
 10
2.15019
 20
12.64415
 30
0.0
 10
2.15019
 20
12.64415
 30
0.0
 10
2.22594
 20
12.83264
 30
0.0
 10
2.32327
 20
12.98352
 30
0.0
 10
2.16392
 20
13.21911
 30
0.0
  0
SPLINE
  5
61
330
1F
100
AcDbEntity
  8
Layer 1
370
    53
100
AcDbSpline
210
0.0
220
0.0
230
1.0
 70
    11
 71
     3
 72
    12
 73
     8
 74
     0
 42
0.0000000001
 43
0.0000000001
 12
1.0
 22
0.0
 32
0.0
 13
1.0
 23
0.0
 33
0.0
 40
0.0
 40
0.0
 40
0.0
 40
0.0
 40
0.3333333333333333
 40
0.3333333333333333
 40
0.3333333333333333
 40
0.3333333333333333
 40
1.0
 40
1.0
 40
1.0
 40
1.0
 10
4.99739
 20
15.70072
 30
0.0
 10
4.79123
 20
15.4795
 30
0.0
 10
4.79123
 20
15.4795
 30
0.0
 10
5.0272
 20
15.15251
 30
0.0
 10
5.0272
 20
15.15251
 30
0.0
 10
5.01418
 20
15.39183
 30
0.0
 10
5.00579
 20
15.54628
 30
0.0
 10
4.99739
 20
15.70072
 30
0.0
  0
SPLINE
  5
62
330
1F
100
AcDbEntity
  8
Layer 1
370
    53
100
AcDbSpline
210
0.0
220
0.0
230
1.0
 70
    11
 71
     3
 72
   188
 73
   184
 74
     0
 42
0.0000000001
 43
0.0000000001
 12
1.0
 22
0.0
 32
0.0
 13
1.0
 23
0.0
 33
0.0
 40
0.0
 40
0.0
 40
0.0
 40
0.0
 40
0.0212765957446809
 40
0.0212765957446809
 40
0.0212765957446809
 40
0.0212765957446809
 40
0.0425531914893617
 40
0.0425531914893617
 40
0.0425531914893617
 40
0.0425531914893617
 40
0.0638297872340425
 40
0.0638297872340425
 40
0.0638297872340425
 40
0.0638297872340425
 40
0.0851063829787234
 40
0.0851063829787234
 40
0.0851063829787234
 40
0.0851063829787234
 40
0.1063829787234043
 40
0.1063829787234043
 40
0.1063829787234043
 40
0.1063829787234043
 40
0.1276595744680851
 40
0.1276595744680851
 40
0.1276595744680851
 40
0.1276595744680851
 40
0.148936170212766
 40
0.148936170212766
 40
0.148936170212766
 40
0.148936170212766
 40
0.1702127659574468
 40
0.1702127659574468
 40
0.1702127659574468
 40
0.1702127659574468
 40
0.1914893617021277
 40
0.1914893617021277
 40
0.1914893617021277
 40
0.1914893617021277
 40
0.2127659574468085
 40
0.2127659574468085
 40
0.2127659574468085
 40
0.2127659574468085
 40
0.2340425531914894
 40
0.2340425531914894
 40
0.2340425531914894
 40
0.2340425531914894
 40
0.2553191489361702
 40
0.2553191489361702
 40
0.2553191489361702
 40
0.2553191489361702
 40
0.2765957446808511
 40
0.2765957446808511
 40
0.2765957446808511
 40
0.2765957446808511
 40
0.2978723404255319
 40
0.2978723404255319
 40
0.2978723404255319
 40
0.2978723404255319
 40
0.3191489361702128
 40
0.3191489361702128
 40
0.3191489361702128
 40
0.3191489361702128
 40
0.3404255319148936
 40
0.3404255319148936
 40
0.3404255319148936
 40
0.3404255319148936
 40
0.3617021276595745
 40
0.3617021276595745
 40
0.3617021276595745
 40
0.3617021276595745
 40
0.3829787234042553
 40
0.3829787234042553
 40
0.3829787234042553
 40
0.3829787234042553
 40
0.4042553191489361
 40
0.4042553191489361
 40
0.4042553191489361
 40
0.4042553191489361
 40
0.425531914893617
 40
0.425531914893617
 40
0.425531914893617
 40
0.425531914893617
 40
0.4468085106382979
 40
0.4468085106382979
 40
0.4468085106382979
 40
0.4468085106382979
 40
0.4680851063829787
 40
0.4680851063829787
 40
0.4680851063829787
 40
0.4680851063829787
 40
0.4893617021276596
 40
0.4893617021276596
 40
0.4893617021276596
 40
0.4893617021276596
 40
0.5106382978723404
 40
0.5106382978723404
 40
0.5106382978723404
 40
0.5106382978723404
 40
0.5319148936170213
 40
0.5319148936170213
 40
0.5319148936170213
 40
0.5319148936170213
 40
0.5531914893617021
 40
0.5531914893617021
 40
0.5531914893617021
 40
0.5531914893617021
 40
0.574468085106383
 40
0.574468085106383
 40
0.574468085106383
 40
0.574468085106383
 40
0.5957446808510638
 40
0.5957446808510638
 40
0.5957446808510638
 40
0.5957446808510638
 40
0.6170212765957447
 40
0.6170212765957447
 40
0.6170212765957447
 40
0.6170212765957447
 40
0.6382978723404256
 40
0.6382978723404256
 40
0.6382978723404256
 40
0.6382978723404256
 40
0.6595744680851063
 40
0.6595744680851063
 40
0.6595744680851063
 40
0.6595744680851063
 40
0.6808510638297872
 40
0.6808510638297872
 40
0.6808510638297872
 40
0.6808510638297872
 40
0.7021276595744681
 40
0.7021276595744681
 40
0.7021276595744681
 40
0.7021276595744681
 40
0.723404255319149
 40
0.723404255319149
 40
0.723404255319149
 40
0.723404255319149
 40
0.7446808510638298
 40
0.7446808510638298
 40
0.7446808510638298
 40
0.7446808510638298
 40
0.7659574468085106
 40
0.7659574468085106
 40
0.7659574468085106
 40
0.7659574468085106
 40
0.7872340425531915
 40
0.7872340425531915
 40
0.7872340425531915
 40
0.7872340425531915
 40
0.8085106382978723
 40
0.8085106382978723
 40
0.8085106382978723
 40
0.8085106382978723
 40
0.8297872340425532
 40
0.8297872340425532
 40
0.8297872340425532
 40
0.8297872340425532
 40
0.851063829787234
 40
0.851063829787234
 40
0.851063829787234
 40
0.851063829787234
 40
0.8723404255319149
 40
0.8723404255319149
 40
0.8723404255319149
 40
0.8723404255319149
 40
0.8936170212765957
 40
0.8936170212765957
 40
0.8936170212765957
 40
0.8936170212765957
 40
0.9148936170212766
 40
0.9148936170212766
 40
0.9148936170212766
 40
0.9148936170212766
 40
0.9361702127659575
 40
0.9361702127659575
 40
0.9361702127659575
 40
0.9361702127659575
 40
0.9574468085106383
 40
0.9574468085106383
 40
0.9574468085106383
 40
0.9574468085106383
 40
1.0
 40
1.0
 40
1.0
 40
1.0
 10
-1.85975
 20
-9.39454
 30
0.0
 10
-0.84626
 20
-10.69537
 30
0.0
 10
-0.20547
 20
-12.19327
 30
0.0
 10
0.36776
 20
-13.71543
 30
0.0
 10
0.36776
 20
-13.71543
 30
0.0
 10
0.69122
 20
-14.5742
 30
0.0
 10
0.80855
 20
-15.49534
 30
0.0
 10
0.86577
 20
-16.41461
 30
0.0
 10
0.86577
 20
-16.41461
 30
0.0
 10
0.87251
 20
-16.5228
 30
0.0
 10
0.82538
 20
-16.67062
 30
0.0
 10
0.74872
 20
-16.73906
 30
0.0
 10
0.74872
 20
-16.73906
 30
0.0
 10
0.63753
 20
-16.83833
 30
0.0
 10
0.52033
 20
-16.7429
 30
0.0
 10
0.42554
 20
-16.64987
 30
0.0
 10
0.42554
 20
-16.64987
 30
0.0
 10
-0.32743
 20
-15.91073
 30
0.0
 10
-1.08177
 20
-15.173
 30
0.0
 10
-1.83386
 20
-14.43669
 30
0.0
 10
-1.83386
 20
-14.43669
 30
0.0
 10
-1.82148
 20
-14.48519
 30
0.0
 10
-1.80807
 20
-14.56591
 30
0.0
 10
-1.78052
 20
-14.64147
 30
0.0
 10
-1.78052
 20
-14.64147
 30
0.0
 10
-1.26035
 20
-16.06814
 30
0.0
 10
-0.99523
 20
-17.53905
 30
0.0
 10
-1.03686
 20
-19.05853
 30
0.0
 10
-1.03686
 20
-19.05853
 30
0.0
 10
-1.06258
 20
-19.99692
 30
0.0
 10
-1.29954
 20
-20.90116
 30
0.0
 10
-1.54081
 20
-21.80145
 30
0.0
 10
-1.54081
 20
-21.80145
 30
0.0
 10
-1.63419
 20
-22.14996
 30
0.0
 10
-1.74658
 20
-22.49554
 30
0.0
 10
-1.88014
 20
-22.83058
 30
0.0
 10
-1.88014
 20
-22.83058
 30
0.0
 10
-2.05597
 20
-23.27169
 30
0.0
 10
-2.27102
 20
-23.3112
 30
0.0
 10
-2.56947
 20
-22.95839
 30
0.0
 10
-2.56947
 20
-22.95839
 30
0.0
 10
-3.15561
 20
-22.26539
 30
0.0
 10
-3.66982
 20
-21.52025
 30
0.0
 10
-4.03484
 20
-20.68689
 30
0.0
 10
-4.03484
 20
-20.68689
 30
0.0
 10
-4.16082
 20
-20.39927
 30
0.0
 10
-4.21151
 20
-20.07612
 30
0.0
 10
-4.27737
 20
-19.76515
 30
0.0
 10
-4.27737
 20
-19.76515
 30
0.0
 10
-4.49715
 20
-18.72759
 30
0.0
 10
-4.41852
 20
-17.69018
 30
0.0
 10
-4.26196
 20
-16.65322
 30
0.0
 10
-4.26196
 20
-16.65322
 30
0.0
 10
-4.19997
 20
-16.24249
 30
0.0
 10
-4.14889
 20
-15.83009
 30
0.0
 10
-4.0928
 20
-15.41843
 30
0.0
 10
-4.0928
 20
-15.41843
 30
0.0
 10
-4.12314
 20
-15.39247
 30
0.0
 10
-4.15351
 20
-15.3665
 30
0.0
 10
-4.18382
 20
-15.34057
 30
0.0
 10
-4.18382
 20
-15.34057
 30
0.0
 10
-4.20908
 20
-15.40506
 30
0.0
 10
-4.21916
 20
-15.48278
 30
0.0
 10
-4.26199
 20
-15.53199
 30
0.0
 10
-4.26199
 20
-15.53199
 30
0.0
 10
-4.65372
 20
-15.98217
 30
0.0
 10
-5.04431
 20
-16.43373
 30
0.0
 10
-5.44838
 20
-16.87272
 30
0.0
 10
-5.44838
 20
-16.87272
 30
0.0
 10
-6.18922
 20
-17.67748
 30
0.0
 10
-7.12866
 20
-18.24044
 30
0.0
 10
-7.97367
 20
-18.91838
 30
0.0
 10
-7.97367
 20
-18.91838
 30
0.0
 10
-8.03446
 20
-18.96713
 30
0.0
 10
-8.16103
 20
-18.98851
 30
0.0
 10
-8.23124
 20
-18.95976
 30
0.0
 10
-8.23124
 20
-18.95976
 30
0.0
 10
-8.39044
 20
-18.89453
 30
0.0
 10
-8.38155
 20
-18.74294
 30
0.0
 10
-8.34211
 20
-18.60095
 30
0.0
 10
-8.34211
 20
-18.60095
 30
0.0
 10
-8.15257
 20
-17.91896
 30
0.0
 10
-7.99759
 20
-17.22462
 30
0.0
 10
-7.76176
 20
-16.55896
 30
0.0
 10
-7.76176
 20
-16.55896
 30
0.0
 10
-7.36905
 20
-15.45046
 30
0.0
 10
-6.70558
 20
-14.48117
 30
0.0
 10
-6.07844
 20
-13.49629
 30
0.0
 10
-6.07844
 20
-13.49629
 30
0.0
 10
-5.9918
 20
-13.36029
 30
0.0
 10
-5.90029
 20
-13.22743
 30
0.0
 10
-5.84981
 20
-13.05454
 30
0.0
 10
-5.84981
 20
-13.05454
 30
0.0
 10
-5.95533
 20
-13.13402
 30
0.0
 10
-6.05541
 20
-13.22235
 30
0.0
 10
-6.16756
 20
-13.29093
 30
0.0
 10
-6.16756
 20
-13.29093
 30
0.0
 10
-6.34825
 20
-13.4015
 30
0.0
 10
-6.49631
 20
-13.64745
 30
0.0
 10
-6.74872
 20
-13.52218
 30
0.0
 10
-6.74872
 20
-13.52218
 30
0.0
 10
-6.99069
 20
-13.40206
 30
0.0
 10
-6.94409
 20
-13.13286
 30
0.0
 10
-6.94607
 20
-12.92281
 30
0.0
 10
-6.94607
 20
-12.92281
 30
0.0
 10
-6.95358
 20
-12.14455
 30
0.0
 10
-6.98639
 20
-11.36163
 30
0.0
 10
-6.91862
 20
-10.58841
 30
0.0
 10
-6.91862
 20
-10.58841
 30
0.0
 10
-6.68078
 20
-7.87527
 30
0.0
 10
-5.52211
 20
-5.58274
 30
0.0
 10
-3.63246
 20
-3.64638
 30
0.0
 10
-3.63246
 20
-3.64638
 30
0.0
 10
-3.50303
 20
-3.51373
 30
0.0
 10
-3.43773
 20
-3.38747
 30
0.0
 10
-3.44552
 20
-3.21137
 30
0.0
 10
-3.44552
 20
-3.21137
 30
0.0
 10
-3.50352
 20
-1.89829
 30
0.0
 10
-3.28123
 20
-0.60476
 30
0.0
 10
-3.17826
 20
0.69727
 30
0.0
 10
-3.17826
 20
0.69727
 30
0.0
 10
-3.12788
 20
1.33446
 30
0.0
 10
-3.1301
 20
1.9757
 30
0.0
 10
-3.10287
 20
2.61486
 30
0.0
 10
-3.10287
 20
2.61486
 30
0.0
 10
-3.06142
 20
3.58712
 30
0.0
 10
-2.12088
 20
21.62087
 30
0.0
 10
-2.07579
 20
22.59295
 30
0.0
 10
-2.07579
 20
22.59295
 30
0.0
 10
-2.07322
 20
22.64798
 30
0.0
 10
-2.07519
 20
22.70923
 30
0.0
 10
-2.05202
 20
22.75618
 30
0.0
 10
-2.05202
 20
22.75618
 30
0.0
 10
-1.93214
 20
22.99903
 30
0.0
 10
-1.80948
 20
23.24083
 30
0.0
 10
-1.6761
 20
23.47638
 30
0.0
 10
-1.6761
 20
23.47638
 30
0.0
 10
-1.64858
 20
23.52499
 30
0.0
 10
-1.5673
 20
23.57625
 30
0.0
 10
-1.51791
 20
23.57
 30
0.0
 10
-1.51791
 20
23.57
 30
0.0
 10
-1.46954
 20
23.5639
 30
0.0
 10
-1.40361
 20
23.49148
 30
0.0
 10
-1.3926
 20
23.43838
 30
0.0
 10
-1.3926
 20
23.43838
 30
0.0
 10
-1.37038
 20
23.33131
 30
0.0
 10
-1.3725
 20
23.21723
 30
0.0
 10
-1.37807
 20
23.1067
 30
0.0
 10
-1.37807
 20
23.1067
 30
0.0
 10
-1.43215
 20
22.03743
 30
0.0
 10
-1.49741
 20
20.96869
 30
0.0
 10
-1.5432
 20
19.8991
 30
0.0
 10
-1.5432
 20
19.8991
 30
0.0
 10
-1.61041
 20
18.32949
 30
0.0
 10
-2.55434
 20
-0.30257
 30
0.0
 10
-2.62031
 20
-1.87222
 30
0.0
 10
-2.62031
 20
-1.87222
 30
0.0
 10
-2.64888
 20
-2.55256
 30
0.0
 10
-2.70497
 20
-3.23165
 30
0.0
 10
-2.73898
 20
-3.91181
 30
0.0
 10
-2.73898
 20
-3.91181
 30
0.0
 10
-2.77581
 20
-4.64756
 30
0.0
 10
-2.8064
 20
-5.38377
 30
0.0
 10
-2.82792
 20
-6.12013
 30
0.0
 10
-2.82792
 20
-6.12013
 30
0.0
 10
-2.83225
 20
-6.26967
 30
0.0
 10
-2.79391
 20
-6.4232
 30
0.0
 10
-2.75757
 20
-6.57052
 30
0.0
 10
-2.75757
 20
-6.57052
 30
0.0
 10
-2.71785
 20
-6.73149
 30
0.0
 10
-2.70046
 20
-6.93353
 30
0.0
 10
-2.59402
 20
-7.03213
 30
0.0
 10
-2.59402
 20
-7.03213
 30
0.0
 10
-2.49391
 20
-7.12491
 30
0.0
 10
-2.29141
 20
-7.11249
 30
0.0
 10
-2.13238
 20
-7.13542
 30
0.0
 10
-2.13238
 20
-7.13542
 30
0.0
 10
-1.64071
 20
-7.20619
 30
0.0
 10
-1.22768
 20
-7.59527
 30
0.0
 10
-1.14428
 20
-8.07307
 30
0.0
 10
-1.14428
 20
-8.07307
 30
0.0
 10
-1.04639
 20
-8.63395
 30
0.0
 10
-1.30519
 20
-9.11528
 30
0.0
 10
-1.85975
 20
-9.39454
 30
0.0
  0
SPLINE
  5
63
330
1F
100
AcDbEntity
  8
Layer 1
370
    53
100
AcDbSpline
210
0.0
220
0.0
230
1.0
 70
    11
 71
     3
 72
    24
 73
    20
 74
     0
 42
0.0000000001
 43
0.0000000001
 12
1.0
 22
0.0
 32
0.0
 13
1.0
 23
0.0
 33
0.0
 40
0.0
 40
0.0
 40
0.0
 40
0.0
 40
0.1666666666666667
 40
0.1666666666666667
 40
0.1666666666666667
 40
0.1666666666666667
 40
0.3333333333333333
 40
0.3333333333333333
 40
0.3333333333333333
 40
0.3333333333333333
 40
0.5
 40
0.5
 40
0.5
 40
0.5
 40
0.6666666666666666
 40
0.6666666666666666
 40
0.6666666666666666
 40
0.6666666666666666
 40
1.0
 40
1.0
 40
1.0
 40
1.0
 10
-3.9471
 20
-18.52605
 30
0.0
 10
-3.62837
 20
-18.23162
 30
0.0
 10
-3.37652
 20
-17.91074
 30
0.0
 10
-3.13797
 20
-17.57577
 30
0.0
 10
-3.13797
 20
-17.57577
 30
0.0
 10
-3.00335
 20
-17.38672
 30
0.0
 10
-2.94225
 20
-17.19315
 30
0.0
 10
-2.95597
 20
-16.95637
 30
0.0
 10
-2.95597
 20
-16.95637
 30
0.0
 10
-3.01147
 20
-16.00052
 30
0.0
 10
-3.05126
 20
-15.04375
 30
0.0
 10
-3.09783
 20
-14.0874
 30
0.0
 10
-3.09783
 20
-14.0874
 30
0.0
 10
-3.10209
 20
-14.00002
 30
0.0
 10
-3.11314
 20
-13.91295
 30
0.0
 10
-3.12658
 20
-13.76457
 30
0.0
 10
-3.12658
 20
-13.76457
 30
0.0
 10
-3.43258
 20
-14.39322
 30
0.0
 10
-4.03657
 20
-17.93977
 30
0.0
 10
-3.9471
 20
-18.52605
 30
0.0
  0
SPLINE
  5
64
330
1F
100
AcDbEntity
  8
Layer 1
370
    53
100
AcDbSpline
210
0.0
220
0.0
230
1.0
 70
    11
 71
     3
 72
    24
 73
    20
 74
     0
 42
0.0000000001
 43
0.0000000001
 12
1.0
 22
0.0
 32
0.0
 13
1.0
 23
0.0
 33
0.0
 40
0.0
 40
0.0
 40
0.0
 40
0.0
 40
0.1666666666666667
 40
0.1666666666666667
 40
0.1666666666666667
 40
0.1666666666666667
 40
0.3333333333333333
 40
0.3333333333333333
 40
0.3333333333333333
 40
0.3333333333333333
 40
0.5
 40
0.5
 40
0.5
 40
0.5
 40
0.6666666666666666
 40
0.6666666666666666
 40
0.6666666666666666
 40
0.6666666666666666
 40
1.0
 40
1.0
 40
1.0
 40
1.0
 10
-3.41307
 20
-4.70355
 30
0.0
 10
-3.4844
 20
-4.73463
 30
0.0
 10
-3.50398
 20
-4.73717
 30
0.0
 10
-3.50648
 20
-4.7451
 30
0.0
 10
-3.50648
 20
-4.7451
 30
0.0
 10
-3.83767
 20
-5.78901
 30
0.0
 10
-4.16808
 20
-6.8332
 30
0.0
 10
-4.49645
 20
-7.87798
 30
0.0
 10
-4.49645
 20
-7.87798
 30
0.0
 10
-4.51261
 20
-7.92938
 30
0.0
 10
-4.52672
 20
-7.9907
 30
0.0
 10
-4.51416
 20
-8.0404
 30
0.0
 10
-4.51416
 20
-8.0404
 30
0.0
 10
-4.39016
 20
-8.5315
 30
0.0
 10
-4.21222
 20
-8.99943
 30
0.0
 10
-3.89193
 20
-9.41592
 30
0.0
 10
-3.89193
 20
-9.41592
 30
0.0
 10
-3.63962
 20
-7.86204
 30
0.0
 10
-3.45575
 20
-6.3101
 30
0.0
 10
-3.41307
 20
-4.70355
 30
0.0
  0
SPLINE
  5
65
330
1F
100
AcDbEntity
  8
Layer 1
370
    53
100
AcDbSpline
210
0.0
220
0.0
230
1.0
 70
    11
 71
     3
 72
    28
 73
    24
 74
     0
 42
0.0000000001
 43
0.0000000001
 12
1.0
 22
0.0
 32
0.0
 13
1.0
 23
0.0
 33
0.0
 40
0.0
 40
0.0
 40
0.0
 40
0.0
 40
0.1428571428571428
 40
0.1428571428571428
 40
0.1428571428571428
 40
0.1428571428571428
 40
0.2857142857142857
 40
0.2857142857142857
 40
0.2857142857142857
 40
0.2857142857142857
 40
0.4285714285714285
 40
0.4285714285714285
 40
0.4285714285714285
 40
0.4285714285714285
 40
0.5714285714285714
 40
0.5714285714285714
 40
0.5714285714285714
 40
0.5714285714285714
 40
0.7142857142857143
 40
0.7142857142857143
 40
0.7142857142857143
 40
0.7142857142857143
 40
1.0
 40
1.0
 40
1.0
 40
1.0
 10
-2.60916
 20
-16.83988
 30
0.0
 10
-2.61515
 20
-17.0162
 30
0.0
 10
-2.62761
 20
-17.10743
 30
0.0
 10
-2.61974
 20
-17.19682
 30
0.0
 10
-2.61974
 20
-17.19682
 30
0.0
 10
-2.56739
 20
-17.79143
 30
0.0
 10
-2.5132
 20
-18.38589
 30
0.0
 10
-2.45446
 20
-18.97986
 30
0.0
 10
-2.45446
 20
-18.97986
 30
0.0
 10
-2.41809
 20
-19.34785
 30
0.0
 10
-2.04387
 20
-19.7825
 30
0.0
 10
-1.64431
 20
-19.9222
 30
0.0
 10
-1.64431
 20
-19.9222
 30
0.0
 10
-1.46489
 20
-19.26755
 30
0.0
 10
-1.49247
 20
-18.60433
 30
0.0
 10
-1.5431
 20
-17.94051
 30
0.0
 10
-1.5431
 20
-17.94051
 30
0.0
 10
-1.54804
 20
-17.87539
 30
0.0
 10
-1.56783
 20
-17.79347
 30
0.0
 10
-1.61164
 20
-17.75206
 30
0.0
 10
-1.61164
 20
-17.75206
 30
0.0
 10
-1.91958
 20
-17.46137
 30
0.0
 10
-2.23567
 20
-17.17925
 30
0.0
 10
-2.60916
 20
-16.83988
 30
0.0
  0
SPLINE
  5
66
330
1F
100
AcDbEntity
  8
Layer 1
370
    53
100
AcDbSpline
210
0.0
220
0.0
230
1.0
 70
    11
 71
     3
 72
    32
 73
    28
 74
     0
 42
0.0000000001
 43
0.0000000001
 12
1.0
 22
0.0
 32
0.0
 13
1.0
 23
0.0
 33
0.0
 40
0.0
 40
0.0
 40
0.0
 40
0.0
 40
0.125
 40
0.125
 40
0.125
 40
0.125
 40
0.25
 40
0.25
 40
0.25
 40
0.25
 40
0.375
 40
0.375
 40
0.375
 40
0.375
 40
0.5
 40
0.5
 40
0.5
 40
0.5
 40
0.625
 40
0.625
 40
0.625
 40
0.625
 40
0.75
 40
0.75
 40
0.75
 40
0.75
 40
1.0
 40
1.0
 40
1.0
 40
1.0
 10
-6.39827
 20
-10.36891
 30
0.0
 10
-6.17489
 20
-10.22886
 30
0.0
 10
-6.03149
 20
-10.1201
 30
0.0
 10
-5.8726
 20
-10.04354
 30
0.0
 10
-5.8726
 20
-10.04354
 30
0.0
 10
-5.60128
 20
-9.91291
 30
0.0
 10
-5.46052
 20
-9.69969
 30
0.0
 10
-5.37169
 20
-9.41885
 30
0.0
 10
-5.37169
 20
-9.41885
 30
0.0
 10
-5.24635
 20
-9.02239
 30
0.0
 10
-5.08566
 20
-8.6372
 30
0.0
 10
-4.94635
 20
-8.24498
 30
0.0
 10
-4.94635
 20
-8.24498
 30
0.0
 10
-4.8693
 20
-8.02809
 30
0.0
 10
-4.80502
 20
-7.80665
 30
0.0
 10
-4.735
 20
-7.58726
 30
0.0
 10
-4.735
 20
-7.58726
 30
0.0
 10
-5.15844
 20
-7.74033
 30
0.0
 10
-5.51721
 20
-7.93824
 30
0.0
 10
-5.8727
 20
-8.1419
 30
0.0
 10
-5.8727
 20
-8.1419
 30
0.0
 10
-5.91663
 20
-8.16705
 30
0.0
 10
-5.95787
 20
-8.21725
 30
0.0
 10
-5.97543
 20
-8.26502
 30
0.0
 10
-5.97543
 20
-8.26502
 30
0.0
 10
-6.21522
 20
-8.91646
 30
0.0
 10
-6.41355
 20
-9.57689
 30
0.0
 10
-6.39827
 20
-10.36891
 30
0.0
  0
SPLINE
  5
67
330
1F
100
AcDbEntity
  8
Layer 1
370
    53
100
AcDbSpline
210
0.0
220
0.0
230
1.0
 70
    11
 71
     3
 72
    36
 73
    32
 74
     0
 42
0.0000000001
 43
0.0000000001
 12
1.0
 22
0.0
 32
0.0
 13
1.0
 23
0.0
 33
0.0
 40
0.0
 40
0.0
 40
0.0
 40
0.0
 40
0.1111111111111111
 40
0.1111111111111111
 40
0.1111111111111111
 40
0.1111111111111111
 40
0.2222222222222222
 40
0.2222222222222222
 40
0.2222222222222222
 40
0.2222222222222222
 40
0.3333333333333333
 40
0.3333333333333333
 40
0.3333333333333333
 40
0.3333333333333333
 40
0.4444444444444444
 40
0.4444444444444444
 40
0.4444444444444444
 40
0.4444444444444444
 40
0.5555555555555556
 40
0.5555555555555556
 40
0.5555555555555556
 40
0.5555555555555556
 40
0.6666666666666666
 40
0.6666666666666666
 40
0.6666666666666666
 40
0.6666666666666666
 40
0.7777777777777778
 40
0.7777777777777778
 40
0.7777777777777778
 40
0.7777777777777778
 40
1.0
 40
1.0
 40
1.0
 40
1.0
 10
-4.56707
 20
-13.88237
 30
0.0
 10
-4.58944
 20
-13.85679
 30
0.0
 10
-4.61184
 20
-13.83125
 30
0.0
 10
-4.63421
 20
-13.80567
 30
0.0
 10
-4.63421
 20
-13.80567
 30
0.0
 10
-4.73881
 20
-13.83012
 30
0.0
 10
-4.84217
 20
-13.8661
 30
0.0
 10
-4.94814
 20
-13.87711
 30
0.0
 10
-4.94814
 20
-13.87711
 30
0.0
 10
-5.5726
 20
-13.94185
 30
0.0
 10
-6.01953
 20
-14.22474
 30
0.0
 10
-6.26228
 20
-14.83353
 30
0.0
 10
-6.26228
 20
-14.83353
 30
0.0
 10
-6.37524
 20
-15.11681
 30
0.0
 10
-6.58077
 20
-15.36315
 30
0.0
 10
-6.74431
 20
-15.62625
 30
0.0
 10
-6.74431
 20
-15.62625
 30
0.0
 10
-6.72452
 20
-15.65398
 30
0.0
 10
-6.70473
 20
-15.68167
 30
0.0
 10
-6.68498
 20
-15.7094
 30
0.0
 10
-6.68498
 20
-15.7094
 30
0.0
 10
-6.33206
 20
-15.60442
 30
0.0
 10
-5.97804
 20
-15.50299
 30
0.0
 10
-5.62742
 20
-15.39095
 30
0.0
 10
-5.62742
 20
-15.39095
 30
0.0
 10
-5.56773
 20
-15.3719
 30
0.0
 10
-5.50874
 20
-15.31669
 30
0.0
 10
-5.47276
 20
-15.26268
 30
0.0
 10
-5.47276
 20
-15.26268
 30
0.0
 10
-5.16782
 20
-14.8046
 30
0.0
 10
-4.86824
 20
-14.34292
 30
0.0
 10
-4.56707
 20
-13.88237
 30
0.0
  0
SPLINE
  5
68
330
1F
100
AcDbEntity
  8
Layer 1
370
    53
100
AcDbSpline
210
0.0
220
0.0
230
1.0
 70
    11
 71
     3
 72
    36
 73
    32
 74
     0
 42
0.0000000001
 43
0.0000000001
 12
1.0
 22
0.0
 32
0.0
 13
1.0
 23
0.0
 33
0.0
 40
0.0
 40
0.0
 40
0.0
 40
0.0
 40
0.1111111111111111
 40
0.1111111111111111
 40
0.1111111111111111
 40
0.1111111111111111
 40
0.2222222222222222
 40
0.2222222222222222
 40
0.2222222222222222
 40
0.2222222222222222
 40
0.3333333333333333
 40
0.3333333333333333
 40
0.3333333333333333
 40
0.3333333333333333
 40
0.4444444444444444
 40
0.4444444444444444
 40
0.4444444444444444
 40
0.4444444444444444
 40
0.5555555555555556
 40
0.5555555555555556
 40
0.5555555555555556
 40
0.5555555555555556
 40
0.6666666666666666
 40
0.6666666666666666
 40
0.6666666666666666
 40
0.6666666666666666
 40
0.7777777777777778
 40
0.7777777777777778
 40
0.7777777777777778
 40
0.7777777777777778
 40
1.0
 40
1.0
 40
1.0
 40
1.0
 10
-0.44645
 20
-13.35415
 30
0.0
 10
-0.42218
 20
-13.32706
 30
0.0
 10
-0.39791
 20
-13.29993
 30
0.0
 10
-0.37364
 20
-13.27284
 30
0.0
 10
-0.37364
 20
-13.27284
 30
0.0
 10
-0.60453
 20
-12.7733
 30
0.0
 10
-0.83349
 20
-12.27285
 30
0.0
 10
-1.06886
 20
-11.7754
 30
0.0
 10
-1.06886
 20
-11.7754
 30
0.0
 10
-1.09645
 20
-11.71705
 30
0.0
 10
-1.14989
 20
-11.6526
 30
0.0
 10
-1.20697
 20
-11.62949
 30
0.0
 10
-1.20697
 20
-11.62949
 30
0.0
 10
-1.55777
 20
-11.48764
 30
0.0
 10
-1.91302
 20
-11.3569
 30
0.0
 10
-2.26682
 20
-11.22246
 30
0.0
 10
-2.26682
 20
-11.22246
 30
0.0
 10
-2.28954
 20
-11.24609
 30
0.0
 10
-2.31222
 20
-11.26973
 30
0.0
 10
-2.33494
 20
-11.29337
 30
0.0
 10
-2.33494
 20
-11.29337
 30
0.0
 10
-2.08373
 20
-11.79579
 30
0.0
 10
-1.8347
 20
-12.29931
 30
0.0
 10
-1.57824
 20
-12.79902
 30
0.0
 10
-1.57824
 20
-12.79902
 30
0.0
 10
-1.54945
 20
-12.85504
 30
0.0
 10
-1.48545
 20
-12.90475
 30
0.0
 10
-1.42615
 20
-12.93131
 30
0.0
 10
-1.42615
 20
-12.93131
 30
0.0
 10
-1.1016
 20
-13.07676
 30
0.0
 10
-0.77337
 20
-13.21406
 30
0.0
 10
-0.44645
 20
-13.35415
 30
0.0
  0
SPLINE
  5
69
330
1F
100
AcDbEntity
  8
Layer 1
370
    53
100
AcDbSpline
210
0.0
220
0.0
230
1.0
 70
    11
 71
     3
 72
    36
 73
    32
 74
     0
 42
0.0000000001
 43
0.0000000001
 12
1.0
 22
0.0
 32
0.0
 13
1.0
 23
0.0
 33
0.0
 40
0.0
 40
0.0
 40
0.0
 40
0.0
 40
0.1111111111111111
 40
0.1111111111111111
 40
0.1111111111111111
 40
0.1111111111111111
 40
0.2222222222222222
 40
0.2222222222222222
 40
0.2222222222222222
 40
0.2222222222222222
 40
0.3333333333333333
 40
0.3333333333333333
 40
0.3333333333333333
 40
0.3333333333333333
 40
0.4444444444444444
 40
0.4444444444444444
 40
0.4444444444444444
 40
0.4444444444444444
 40
0.5555555555555556
 40
0.5555555555555556
 40
0.5555555555555556
 40
0.5555555555555556
 40
0.6666666666666666
 40
0.6666666666666666
 40
0.6666666666666666
 40
0.6666666666666666
 40
0.7777777777777778
 40
0.7777777777777778
 40
0.7777777777777778
 40
0.7777777777777778
 40
1.0
 40
1.0
 40
1.0
 40
1.0
 10
-3.83234
 20
-20.09425
 30
0.0
 10
-3.7469
 20
-20.06924
 30
0.0
 10
-3.71035
 20
-20.07009
 30
0.0
 10
-3.69822
 20
-20.05333
 30
0.0
 10
-3.69822
 20
-20.05333
 30
0.0
 10
-3.42305
 20
-19.67276
 30
0.0
 10
-3.14855
 20
-19.29165
 30
0.0
 10
-2.87977
 20
-18.90659
 30
0.0
 10
-2.87977
 20
-18.90659
 30
0.0
 10
-2.84308
 20
-18.85399
 30
0.0
 10
-2.81543
 20
-18.77811
 30
0.0
 10
-2.82075
 20
-18.71623
 30
0.0
 10
-2.82075
 20
-18.71623
 30
0.0
 10
-2.84136
 20
-18.47645
 30
0.0
 10
-2.87702
 20
-18.23794
 30
0.0
 10
-2.90708
 20
-17.99897
 30
0.0
 10
-2.90708
 20
-17.99897
 30
0.0
 10
-2.93622
 20
-17.98951
 30
0.0
 10
-2.96536
 20
-17.98002
 30
0.0
 10
-2.99453
 20
-17.97057
 30
0.0
 10
-2.99453
 20
-17.97057
 30
0.0
 10
-3.29545
 20
-18.37619
 30
0.0
 10
-3.60258
 20
-18.77744
 30
0.0
 10
-3.89193
 20
-19.19118
 30
0.0
 10
-3.89193
 20
-19.19118
 30
0.0
 10
-3.94813
 20
-19.27151
 30
0.0
 10
-3.95931
 20
-19.40302
 30
0.0
 10
-3.94834
 20
-19.50635
 30
0.0
 10
-3.94834
 20
-19.50635
 30
0.0
 10
-3.92812
 20
-19.69614
 30
0.0
 10
-3.87605
 20
-19.88255
 30
0.0
 10
-3.83234
 20
-20.09425
 30
0.0
  0
SPLINE
  5
6A
330
1F
100
AcDbEntity
  8
Layer 1
370
    53
100
AcDbSpline
210
0.0
220
0.0
230
1.0
 70
    11
 71
     3
 72
    24
 73
    20
 74
     0
 42
0.0000000001
 43
0.0000000001
 12
1.0
 22
0.0
 32
0.0
 13
1.0
 23
0.0
 33
0.0
 40
0.0
 40
0.0
 40
0.0
 40
0.0
 40
0.1666666666666667
 40
0.1666666666666667
 40
0.1666666666666667
 40
0.1666666666666667
 40
0.3333333333333333
 40
0.3333333333333333
 40
0.3333333333333333
 40
0.3333333333333333
 40
0.5
 40
0.5
 40
0.5
 40
0.5
 40
0.6666666666666666
 40
0.6666666666666666
 40
0.6666666666666666
 40
0.6666666666666666
 40
1.0
 40
1.0
 40
1.0
 40
1.0
 10
-4.50781
 20
-10.99104
 30
0.0
 10
-4.29759
 20
-10.6784
 30
0.0
 10
-4.07597
 20
-10.4285
 30
0.0
 10
-4.14275
 20
-10.1364
 30
0.0
 10
-4.14275
 20
-10.1364
 30
0.0
 10
-4.25811
 20
-9.63185
 30
0.0
 10
-4.45154
 20
-9.14481
 30
0.0
 10
-4.73859
 20
-8.62933
 30
0.0
 10
-4.73859
 20
-8.62933
 30
0.0
 10
-4.84693
 20
-8.90869
 30
0.0
 10
-4.93495
 20
-9.12322
 30
0.0
 10
-5.01175
 20
-9.34169
 30
0.0
 10
-5.01175
 20
-9.34169
 30
0.0
 10
-5.0332
 20
-9.40272
 30
0.0
 10
-5.04209
 20
-9.48238
 30
0.0
 10
-5.0218
 20
-9.54158
 30
0.0
 10
-5.0218
 20
-9.54158
 30
0.0
 10
-4.86482
 20
-9.99969
 30
0.0
 10
-4.6993
 20
-10.45492
 30
0.0
 10
-4.50781
 20
-10.99104
 30
0.0
  0
SPLINE
  5
6B
330
1F
100
AcDbEntity
  8
Layer 1
370
    53
100
AcDbSpline
210
0.0
220
0.0
230
1.0
 70
    11
 71
     3
 72
    28
 73
    24
 74
     0
 42
0.0000000001
 43
0.0000000001
 12
1.0
 22
0.0
 32
0.0
 13
1.0
 23
0.0
 33
0.0
 40
0.0
 40
0.0
 40
0.0
 40
0.0
 40
0.1428571428571428
 40
0.1428571428571428
 40
0.1428571428571428
 40
0.1428571428571428
 40
0.2857142857142857
 40
0.2857142857142857
 40
0.2857142857142857
 40
0.2857142857142857
 40
0.4285714285714285
 40
0.4285714285714285
 40
0.4285714285714285
 40
0.4285714285714285
 40
0.5714285714285714
 40
0.5714285714285714
 40
0.5714285714285714
 40
0.5714285714285714
 40
0.7142857142857143
 40
0.7142857142857143
 40
0.7142857142857143
 40
0.7142857142857143
 40
1.0
 40
1.0
 40
1.0
 40
1.0
 10
-7.6881
 20
-17.63208
 30
0.0
 10
-7.65984
 20
-17.6495
 30
0.0
 10
-7.63151
 20
-17.66697
 30
0.0
 10
-7.60322
 20
-17.68439
 30
0.0
 10
-7.60322
 20
-17.68439
 30
0.0
 10
-7.07928
 20
-17.11254
 30
0.0
 10
-6.55533
 20
-16.54065
 30
0.0
 10
-6.03138
 20
-15.9688
 30
0.0
 10
-6.03138
 20
-15.9688
 30
0.0
 10
-6.04497
 20
-15.94446
 30
0.0
 10
-6.05858
 20
-15.92008
 30
0.0
 10
-6.0722
 20
-15.89574
 30
0.0
 10
-6.0722
 20
-15.89574
 30
0.0
 10
-6.32391
 20
-15.95405
 30
0.0
 10
-6.57389
 20
-16.022
 30
0.0
 10
-6.82789
 20
-16.06733
 30
0.0
 10
-6.82789
 20
-16.06733
 30
0.0
 10
-6.99835
 20
-16.09778
 30
0.0
 10
-7.10401
 20
-16.18992
 30
0.0
 10
-7.16539
 20
-16.33925
 30
0.0
 10
-7.16539
 20
-16.33925
 30
0.0
 10
-7.34213
 20
-16.76918
 30
0.0
 10
-7.51422
 20
-17.20102
 30
0.0
 10
-7.6881
 20
-17.63208
 30
0.0
  0
SPLINE
  5
6C
330
1F
100
AcDbEntity
  8
Layer 1
370
    53
100
AcDbSpline
210
0.0
220
0.0
230
1.0
 70
    11
 71
     3
 72
    24
 73
    20
 74
     0
 42
0.0000000001
 43
0.0000000001
 12
1.0
 22
0.0
 32
0.0
 13
1.0
 23
0.0
 33
0.0
 40
0.0
 40
0.0
 40
0.0
 40
0.0
 40
0.1666666666666667
 40
0.1666666666666667
 40
0.1666666666666667
 40
0.1666666666666667
 40
0.3333333333333333
 40
0.3333333333333333
 40
0.3333333333333333
 40
0.3333333333333333
 40
0.5
 40
0.5
 40
0.5
 40
0.5
 40
0.6666666666666666
 40
0.6666666666666666
 40
0.6666666666666666
 40
0.6666666666666666
 40
1.0
 40
1.0
 40
1.0
 40
1.0
 10
-1.04409
 20
-13.48553
 30
0.0
 10
-1.06738
 20
-13.50595
 30
0.0
 10
-1.09066
 20
-13.52638
 30
0.0
 10
-1.11391
 20
-13.5468
 30
0.0
 10
-1.11391
 20
-13.5468
 30
0.0
 10
-0.66743
 20
-14.16007
 30
0.0
 10
-0.22092
 20
-14.77338
 30
0.0
 10
0.22555
 20
-15.38665
 30
0.0
 10
0.22555
 20
-15.38665
 30
0.0
 10
0.25067
 20
-15.10665
 30
0.0
 10
0.21426
 20
-14.86231
 30
0.0
 10
0.15404
 20
-14.62401
 30
0.0
 10
0.15404
 20
-14.62401
 30
0.0
 10
-0.0506
 20
-13.81389
 30
0.0
 10
-0.05371
 20
-13.81446
 30
0.0
 10
-0.84802
 20
-13.54197
 30
0.0
 10
-0.84802
 20
-13.54197
 30
0.0
 10
-0.91226
 20
-13.51992
 30
0.0
 10
-0.97869
 20
-13.50419
 30
0.0
 10
-1.04409
 20
-13.48553
 30
0.0
  0
SPLINE
  5
6D
330
1F
100
AcDbEntity
  8
Layer 1
370
    53
100
AcDbSpline
210
0.0
220
0.0
230
1.0
 70
    11
 71
     3
 72
    24
 73
    20
 74
     0
 42
0.0000000001
 43
0.0000000001
 12
1.0
 22
0.0
 32
0.0
 13
1.0
 23
0.0
 33
0.0
 40
0.0
 40
0.0
 40
0.0
 40
0.0
 40
0.1666666666666667
 40
0.1666666666666667
 40
0.1666666666666667
 40
0.1666666666666667
 40
0.3333333333333333
 40
0.3333333333333333
 40
0.3333333333333333
 40
0.3333333333333333
 40
0.5
 40
0.5
 40
0.5
 40
0.5
 40
0.6666666666666666
 40
0.6666666666666666
 40
0.6666666666666666
 40
0.6666666666666666
 40
1.0
 40
1.0
 40
1.0
 40
1.0
 10
-2.50742
 20
-22.398
 30
0.0
 10
-2.472
 20
-22.38473
 30
0.0
 10
-2.43651
 20
-22.37151
 30
0.0
 10
-2.40105
 20
-22.35828
 30
0.0
 10
-2.40105
 20
-22.35828
 30
0.0
 10
-2.50269
 20
-21.69315
 30
0.0
 10
-2.60432
 20
-21.02806
 30
0.0
 10
-2.70592
 20
-20.36293
 30
0.0
 10
-2.70592
 20
-20.36293
 30
0.0
 10
-2.91936
 20
-20.59262
 30
0.0
 10
-3.06854
 20
-20.82521
 30
0.0
 10
-3.18165
 20
-21.07417
 30
0.0
 10
-3.18165
 20
-21.07417
 30
0.0
 10
-3.22521
 20
-21.17005
 30
0.0
 10
-3.23005
 20
-21.32989
 30
0.0
 10
-3.17787
 20
-21.41477
 30
0.0
 10
-3.17787
 20
-21.41477
 30
0.0
 10
-2.9704
 20
-21.75235
 30
0.0
 10
-2.73348
 20
-22.07182
 30
0.0
 10
-2.50742
 20
-22.398
 30
0.0
  0
SPLINE
  5
6E
330
1F
100
AcDbEntity
  8
Layer 1
370
    53
100
AcDbSpline
210
0.0
220
0.0
230
1.0
 70
    11
 71
     3
 72
    20
 73
    16
 74
     0
 42
0.0000000001
 43
0.0000000001
 12
1.0
 22
0.0
 32
0.0
 13
1.0
 23
0.0
 33
0.0
 40
0.0
 40
0.0
 40
0.0
 40
0.0
 40
0.2
 40
0.2
 40
0.2
 40
0.2
 40
0.4
 40
0.4
 40
0.4
 40
0.4
 40
0.6
 40
0.6
 40
0.6
 40
0.6
 40
1.0
 40
1.0
 40
1.0
 40
1.0
 10
-2.73245
 20
-8.1558
 30
0.0
 10
-2.73767
 20
-8.47061
 30
0.0
 10
-2.4739
 20
-8.72102
 30
0.0
 10
-2.11125
 20
-8.7456
 30
0.0
 10
-2.11125
 20
-8.7456
 30
0.0
 10
-1.92375
 20
-8.7583
 30
0.0
 10
-1.68403
 20
-8.46497
 30
0.0
 10
-1.6792
 20
-8.2169
 30
0.0
 10
-1.6792
 20
-8.2169
 30
0.0
 10
-1.67387
 20
-7.94215
 30
0.0
 10
-1.92198
 20
-7.74269
 30
0.0
 10
-2.28951
 20
-7.72639
 30
0.0
 10
-2.28951
 20
-7.72639
 30
0.0
 10
-2.5501
 20
-7.71479
 30
0.0
 10
-2.72797
 20
-7.88723
 30
0.0
 10
-2.73245
 20
-8.1558
 30
0.0
  0
SPLINE
  5
6F
330
1F
100
AcDbEntity
  8
Layer 1
370
    53
100
AcDbSpline
210
0.0
220
0.0
230
1.0
 70
    11
 71
     3
 72
    16
 73
    12
 74
     0
 42
0.0000000001
 43
0.0000000001
 12
1.0
 22
0.0
 32
0.0
 13
1.0
 23
0.0
 33
0.0
 40
0.0
 40
0.0
 40
0.0
 40
0.0
 40
0.25
 40
0.25
 40
0.25
 40
0.25
 40
0.5
 40
0.5
 40
0.5
 40
0.5
 40
1.0
 40
1.0
 40
1.0
 40
1.0
 10
-2.75062
 20
-13.73046
 30
0.0
 10
-2.74695
 20
-14.08116
 30
0.0
 10
-2.74769
 20
-14.43196
 30
0.0
 10
-2.73842
 20
-14.78251
 30
0.0
 10
-2.73842
 20
-14.78251
 30
0.0
 10
-2.72646
 20
-15.23478
 30
0.0
 10
-2.40829
 20
-15.63814
 30
0.0
 10
-1.88879
 20
-15.83714
 30
0.0
 10
-1.88879
 20
-15.83714
 30
0.0
 10
-2.10684
 20
-15.0925
 30
0.0
 10
-2.30686
 20
-14.37156
 30
0.0
 10
-2.75062
 20
-13.73046
 30
0.0
  0
SPLINE
  5
70
330
1F
100
AcDbEntity
  8
Layer 1
370
    53
100
AcDbSpline
210
0.0
220
0.0
230
1.0
 70
    11
 71
     3
 72
    24
 73
    20
 74
     0
 42
0.0000000001
 43
0.0000000001
 12
1.0
 22
0.0
 32
0.0
 13
1.0
 23
0.0
 33
0.0
 40
0.0
 40
0.0
 40
0.0
 40
0.0
 40
0.1666666666666667
 40
0.1666666666666667
 40
0.1666666666666667
 40
0.1666666666666667
 40
0.3333333333333333
 40
0.3333333333333333
 40
0.3333333333333333
 40
0.3333333333333333
 40
0.5
 40
0.5
 40
0.5
 40
0.5
 40
0.6666666666666666
 40
0.6666666666666666
 40
0.6666666666666666
 40
0.6666666666666666
 40
1.0
 40
1.0
 40
1.0
 40
1.0
 10
-6.33174
 20
-12.79726
 30
0.0
 10
-6.30503
 20
-12.81726
 30
0.0
 10
-6.27833
 20
-12.8373
 30
0.0
 10
-6.25162
 20
-12.8573
 30
0.0
 10
-6.25162
 20
-12.8573
 30
0.0
 10
-5.96566
 20
-12.60132
 30
0.0
 10
-5.67709
 20
-12.34821
 30
0.0
 10
-5.39603
 20
-12.08697
 30
0.0
 10
-5.39603
 20
-12.08697
 30
0.0
 10
-5.33899
 20
-12.03399
 30
0.0
 10
-5.27302
 20
-11.94918
 30
0.0
 10
-5.2751
 20
-11.88099
 30
0.0
 10
-5.2751
 20
-11.88099
 30
0.0
 10
-5.28533
 20
-11.54737
 30
0.0
 10
-5.35077
 20
-11.22464
 30
0.0
 10
-5.53534
 20
-10.90104
 30
0.0
 10
-5.53534
 20
-10.90104
 30
0.0
 10
-5.81354
 20
-11.56349
 30
0.0
 10
-6.07262
 20
-12.18036
 30
0.0
 10
-6.33174
 20
-12.79726
 30
0.0
  0
SPLINE
  5
71
330
1F
100
AcDbEntity
  8
Layer 1
370
    53
100
AcDbSpline
210
0.0
220
0.0
230
1.0
 70
    11
 71
     3
 72
    24
 73
    20
 74
     0
 42
0.0000000001
 43
0.0000000001
 12
1.0
 22
0.0
 32
0.0
 13
1.0
 23
0.0
 33
0.0
 40
0.0
 40
0.0
 40
0.0
 40
0.0
 40
0.1666666666666667
 40
0.1666666666666667
 40
0.1666666666666667
 40
0.1666666666666667
 40
0.3333333333333333
 40
0.3333333333333333
 40
0.3333333333333333
 40
0.3333333333333333
 40
0.5
 40
0.5
 40
0.5
 40
0.5
 40
0.6666666666666666
 40
0.6666666666666666
 40
0.6666666666666666
 40
0.6666666666666666
 40
1.0
 40
1.0
 40
1.0
 40
1.0
 10
-3.78119
 20
-4.52031
 30
0.0
 10
-3.81015
 20
-4.50589
 30
0.0
 10
-3.83912
 20
-4.49142
 30
0.0
 10
-3.86805
 20
-4.47699
 30
0.0
 10
-3.86805
 20
-4.47699
 30
0.0
 10
-4.38053
 20
-5.04169
 30
0.0
 10
-4.7592
 20
-5.69771
 30
0.0
 10
-5.1022
 20
-6.39483
 30
0.0
 10
-5.1022
 20
-6.39483
 30
0.0
 10
-4.80379
 20
-6.27426
 30
0.0
 10
-4.53617
 20
-6.11829
 30
0.0
 10
-4.27392
 20
-5.95376
 30
0.0
 10
-4.27392
 20
-5.95376
 30
0.0
 10
-4.23208
 20
-5.92755
 30
0.0
 10
-4.20329
 20
-5.86648
 30
0.0
 10
-4.18703
 20
-5.81557
 30
0.0
 10
-4.18703
 20
-5.81557
 30
0.0
 10
-4.0493
 20
-5.38459
 30
0.0
 10
-3.91588
 20
-4.95226
 30
0.0
 10
-3.78119
 20
-4.52031
 30
0.0
  0
SPLINE
  5
72
330
1F
100
AcDbEntity
  8
Layer 1
370
    53
100
AcDbSpline
210
0.0
220
0.0
230
1.0
 70
    11
 71
     3
 72
    16
 73
    12
 74
     0
 42
0.0000000001
 43
0.0000000001
 12
1.0
 22
0.0
 32
0.0
 13
1.0
 23
0.0
 33
0.0
 40
0.0
 40
0.0
 40
0.0
 40
0.0
 40
0.25
 40
0.25
 40
0.25
 40
0.25
 40
0.5
 40
0.5
 40
0.5
 40
0.5
 40
1.0
 40
1.0
 40
1.0
 40
1.0
 10
-4.51451
 20
-15.17978
 30
0.0
 10
-3.96749
 20
-14.50943
 30
0.0
 10
-3.543
 20
-13.43194
 30
0.0
 10
-3.57231
 20
-12.85254
 30
0.0
 10
-3.57231
 20
-12.85254
 30
0.0
 10
-3.86088
 20
-13.3864
 30
0.0
 10
-4.14469
 20
-13.94326
 30
0.0
 10
-4.46085
 20
-14.48107
 30
0.0
 10
-4.46085
 20
-14.48107
 30
0.0
 10
-4.59226
 20
-14.70462
 30
0.0
 10
-4.63216
 20
-14.90461
 30
0.0
 10
-4.51451
 20
-15.17978
 30
0.0
  0
SPLINE
  5
73
330
1F
100
AcDbEntity
  8
Layer 1
370
    53
100
AcDbSpline
210
0.0
220
0.0
230
1.0
 70
    11
 71
     3
 72
    12
 73
     8
 74
     0
 42
0.0000000001
 43
0.0000000001
 12
1.0
 22
0.0
 32
0.0
 13
1.0
 23
0.0
 33
0.0
 40
0.0
 40
0.0
 40
0.0
 40
0.0
 40
0.3333333333333333
 40
0.3333333333333333
 40
0.3333333333333333
 40
0.3333333333333333
 40
1.0
 40
1.0
 40
1.0
 40
1.0
 10
-2.8888
 20
-9.11362
 30
0.0
 10
-2.87233
 20
-10.05709
 30
0.0
 10
-2.54157
 20
-10.44582
 30
0.0
 10
-1.79837
 20
-10.42253
 30
0.0
 10
-1.79837
 20
-10.42253
 30
0.0
 10
-2.07368
 20
-9.90691
 30
0.0
 10
-2.49239
 20
-9.52521
 30
0.0
 10
-2.8888
 20
-9.11362
 30
0.0
  0
SPLINE
  5
74
330
1F
100
AcDbEntity
  8
Layer 1
370
    53
100
AcDbSpline
210
0.0
220
0.0
230
1.0
 70
    11
 71
     3
 72
    20
 73
    16
 74
     0
 42
0.0000000001
 43
0.0000000001
 12
1.0
 22
0.0
 32
0.0
 13
1.0
 23
0.0
 33
0.0
 40
0.0
 40
0.0
 40
0.0
 40
0.0
 40
0.2
 40
0.2
 40
0.2
 40
0.2
 40
0.4
 40
0.4
 40
0.4
 40
0.4
 40
0.6
 40
0.6
 40
0.6
 40
0.6
 40
1.0
 40
1.0
 40
1.0
 40
1.0
 10
-2.56358
 20
-12.60358
 30
0.0
 10
-2.37819
 20
-12.31219
 30
0.0
 10
-2.40839
 20
-12.11788
 30
0.0
 10
-2.50456
 20
-11.89453
 30
0.0
 10
-2.50456
 20
-11.89453
 30
0.0
 10
-2.72423
 20
-11.38428
 30
0.0
 10
-2.91205
 20
-10.86026
 30
0.0
 10
-3.11356
 20
-10.34214
 30
0.0
 10
-3.11356
 20
-10.34214
 30
0.0
 10
-3.13617
 20
-10.28407
 30
0.0
 10
-3.16376
 20
-10.22791
 30
0.0
 10
-3.18905
 20
-10.17086
 30
0.0
 10
-3.18905
 20
-10.17086
 30
0.0
 10
-3.19382
 20
-11.02268
 30
0.0
 10
-2.96007
 20
-11.80144
 30
0.0
 10
-2.56358
 20
-12.60358
 30
0.0
  0
SPLINE
  5
75
330
1F
100
AcDbEntity
  8
Layer 1
370
    53
100
AcDbSpline
210
0.0
220
0.0
230
1.0
 70
    11
 71
     3
 72
    20
 73
    16
 74
     0
 42
0.0000000001
 43
0.0000000001
 12
1.0
 22
0.0
 32
0.0
 13
1.0
 23
0.0
 33
0.0
 40
0.0
 40
0.0
 40
0.0
 40
0.0
 40
0.2
 40
0.2
 40
0.2
 40
0.2
 40
0.4
 40
0.4
 40
0.4
 40
0.4
 40
0.6
 40
0.6
 40
0.6
 40
0.6
 40
1.0
 40
1.0
 40
1.0
 40
1.0
 10
-2.10938
 20
-21.88573
 30
0.0
 10
-2.06651
 20
-21.8719
 30
0.0
 10
-2.04507
 20
-21.87003
 30
0.0
 10
-2.04373
 20
-21.86382
 30
0.0
 10
-2.04373
 20
-21.86382
 30
0.0
 10
-1.98019
 20
-21.56827
 30
0.0
 10
-1.92061
 20
-21.27186
 30
0.0
 10
-1.85584
 20
-20.97659
 30
0.0
 10
-1.85584
 20
-20.97659
 30
0.0
 10
-1.75536
 20
-20.51836
 30
0.0
 10
-1.86547
 20
-20.31679
 30
0.0
 10
-2.35551
 20
-20.10293
 30
0.0
 10
-2.35551
 20
-20.10293
 30
0.0
 10
-2.31579
 20
-20.70996
 30
0.0
 10
-2.2949
 20
-21.307
 30
0.0
 10
-2.10938
 20
-21.88573
 30
0.0
  0
SPLINE
  5
76
330
1F
100
AcDbEntity
  8
Layer 1
370
    53
100
AcDbSpline
210
0.0
220
0.0
230
1.0
 70
    11
 71
     3
 72
    12
 73
     8
 74
     0
 42
0.0000000001
 43
0.0000000001
 12
1.0
 22
0.0
 32
0.0
 13
1.0
 23
0.0
 33
0.0
 40
0.0
 40
0.0
 40
0.0
 40
0.0
 40
0.3333333333333333
 40
0.3333333333333333
 40
0.3333333333333333
 40
0.3333333333333333
 40
1.0
 40
1.0
 40
1.0
 40
1.0
 10
-5.06989
 20
-13.04184
 30
0.0
 10
-4.02514
 20
-12.80721
 30
0.0
 10
-3.94319
 20
-12.83317
 30
0.0
 10
-3.73212
 20
-11.69536
 30
0.0
 10
-3.73212
 20
-11.69536
 30
0.0
 10
-4.20325
 20
-12.13252
 30
0.0
 10
-4.67718
 20
-12.48216
 30
0.0
 10
-5.06989
 20
-13.04184
 30
0.0
  0
SPLINE
  5
77
330
1F
100
AcDbEntity
  8
Layer 1
370
    53
100
AcDbSpline
210
0.0
220
0.0
230
1.0
 70
    11
 71
     3
 72
    28
 73
    24
 74
     0
 42
0.0000000001
 43
0.0000000001
 12
1.0
 22
0.0
 32
0.0
 13
1.0
 23
0.0
 33
0.0
 40
0.0
 40
0.0
 40
0.0
 40
0.0
 40
0.1428571428571428
 40
0.1428571428571428
 40
0.1428571428571428
 40
0.1428571428571428
 40
0.2857142857142857
 40
0.2857142857142857
 40
0.2857142857142857
 40
0.2857142857142857
 40
0.4285714285714285
 40
0.4285714285714285
 40
0.4285714285714285
 40
0.4285714285714285
 40
0.5714285714285714
 40
0.5714285714285714
 40
0.5714285714285714
 40
0.5714285714285714
 40
0.7142857142857143
 40
0.7142857142857143
 40
0.7142857142857143
 40
0.7142857142857143
 40
1.0
 40
1.0
 40
1.0
 40
1.0
 10
-2.58072
 20
-15.79492
 30
0.0
 10
-2.58072
 20
-15.79492
 30
0.0
 10
-2.66514
 20
-15.82727
 30
0.0
 10
-2.66514
 20
-15.82727
 30
0.0
 10
-2.66514
 20
-15.82727
 30
0.0
 10
-2.64334
 20
-16.0075
 30
0.0
 10
-2.68508
 20
-16.24093
 30
0.0
 10
-2.58743
 20
-16.35767
 30
0.0
 10
-2.58743
 20
-16.35767
 30
0.0
 10
-2.32739
 20
-16.66843
 30
0.0
 10
-2.00735
 20
-16.92892
 30
0.0
 10
-1.71116
 20
-17.20941
 30
0.0
 10
-1.71116
 20
-17.20941
 30
0.0
 10
-1.67892
 20
-17.19019
 30
0.0
 10
-1.64671
 20
-17.17093
 30
0.0
 10
-1.61447
 20
-17.15166
 30
0.0
 10
-1.61447
 20
-17.15166
 30
0.0
 10
-1.68086
 20
-16.92264
 30
0.0
 10
-1.69074
 20
-16.64956
 30
0.0
 10
-1.82687
 20
-16.47493
 30
0.0
 10
-1.82687
 20
-16.47493
 30
0.0
 10
-2.03177
 20
-16.21211
 30
0.0
 10
-2.32503
 20
-16.01815
 30
0.0
 10
-2.58072
 20
-15.79492
 30
0.0
  0
SPLINE
  5
78
330
1F
100
AcDbEntity
  8
Layer 1
370
    53
100
AcDbSpline
210
0.0
220
0.0
230
1.0
 70
    11
 71
     3
 72
    20
 73
    16
 74
     0
 42
0.0000000001
 43
0.0000000001
 12
1.0
 22
0.0
 32
0.0
 13
1.0
 23
0.0
 33
0.0
 40
0.0
 40
0.0
 40
0.0
 40
0.0
 40
0.2
 40
0.2
 40
0.2
 40
0.2
 40
0.4
 40
0.4
 40
0.4
 40
0.4
 40
0.6
 40
0.6
 40
0.6
 40
0.6
 40
1.0
 40
1.0
 40
1.0
 40
1.0
 10
-5.69935
 20
-7.67732
 30
0.0
 10
-5.37963
 20
-7.49
 30
0.0
 10
-5.12901
 20
-7.31735
 30
0.0
 10
-4.85702
 20
-7.19056
 30
0.0
 10
-4.85702
 20
-7.19056
 30
0.0
 10
-4.54675
 20
-7.04592
 30
0.0
 10
-4.46297
 20
-6.80455
 30
0.0
 10
-4.45535
 20
-6.46641
 30
0.0
 10
-4.45535
 20
-6.46641
 30
0.0
 10
-4.66363
 20
-6.57489
 30
0.0
 10
-4.83896
 20
-6.68485
 30
0.0
 10
-5.02798
 20
-6.76074
 30
0.0
 10
-5.02798
 20
-6.76074
 30
0.0
 10
-5.40785
 20
-6.91321
 30
0.0
 10
-5.621
 20
-7.18668
 30
0.0
 10
-5.69935
 20
-7.67732
 30
0.0
  0
SPLINE
  5
79
330
1F
100
AcDbEntity
  8
Layer 1
370
    53
100
AcDbSpline
210
0.0
220
0.0
230
1.0
 70
    11
 71
     3
 72
    20
 73
    16
 74
     0
 42
0.0000000001
 43
0.0000000001
 12
1.0
 22
0.0
 32
0.0
 13
1.0
 23
0.0
 33
0.0
 40
0.0
 40
0.0
 40
0.0
 40
0.0
 40
0.2
 40
0.2
 40
0.2
 40
0.2
 40
0.4
 40
0.4
 40
0.4
 40
0.4
 40
0.6
 40
0.6
 40
0.6
 40
0.6
 40
1.0
 40
1.0
 40
1.0
 40
1.0
 10
-6.53871
 20
-12.22435
 30
0.0
 10
-6.15278
 20
-11.72347
 30
0.0
 10
-5.9796
 20
-11.15257
 30
0.0
 10
-5.83012
 20
-10.55634
 30
0.0
 10
-5.83012
 20
-10.55634
 30
0.0
 10
-6.02578
 20
-10.642
 30
0.0
 10
-6.19842
 20
-10.74885
 30
0.0
 10
-6.36462
 20
-10.86502
 30
0.0
 10
-6.36462
 20
-10.86502
 30
0.0
 10
-6.40603
 20
-10.89395
 30
0.0
 10
-6.44925
 20
-10.95092
 30
0.0
 10
-6.45313
 20
-10.9982
 30
0.0
 10
-6.45313
 20
-10.9982
 30
0.0
 10
-6.48664
 20
-11.40647
 30
0.0
 10
-6.51137
 20
-11.81551
 30
0.0
 10
-6.53871
 20
-12.22435
 30
0.0
  0
SPLINE
  5
7A
330
1F
100
AcDbEntity
  8
Layer 1
370
    53
100
AcDbSpline
210
0.0
220
0.0
230
1.0
 70
    11
 71
     3
 72
    24
 73
    20
 74
     0
 42
0.0000000001
 43
0.0000000001
 12
1.0
 22
0.0
 32
0.0
 13
1.0
 23
0.0
 33
0.0
 40
0.0
 40
0.0
 40
0.0
 40
0.0
 40
0.1666666666666667
 40
0.1666666666666667
 40
0.1666666666666667
 40
0.1666666666666667
 40
0.3333333333333333
 40
0.3333333333333333
 40
0.3333333333333333
 40
0.3333333333333333
 40
0.5
 40
0.5
 40
0.5
 40
0.5
 40
0.6666666666666666
 40
0.6666666666666666
 40
0.6666666666666666
 40
0.6666666666666666
 40
1.0
 40
1.0
 40
1.0
 40
1.0
 10
-1.70569
 20
-13.30416
 30
0.0
 10
-1.83622
 20
-13.68989
 30
0.0
 10
-1.84575
 20
-13.69836
 30
0.0
 10
-1.65708
 20
-13.91108
 30
0.0
 10
-1.65708
 20
-13.91108
 30
0.0
 10
-1.36301
 20
-14.24269
 30
0.0
 10
-1.05612
 20
-14.56309
 30
0.0
 10
-0.75072
 20
-14.8845
 30
0.0
 10
-0.75072
 20
-14.8845
 30
0.0
 10
-0.6923
 20
-14.94599
 30
0.0
 10
-0.61572
 20
-14.99023
 30
0.0
 10
-0.54752
 20
-15.04244
 30
0.0
 10
-0.54752
 20
-15.04244
 30
0.0
 10
-0.54752
 20
-15.04244
 30
0.0
 10
-0.52989
 20
-15.01034
 30
0.0
 10
-0.52989
 20
-15.01034
 30
0.0
 10
-0.52989
 20
-15.01034
 30
0.0
 10
-0.91194
 20
-14.45598
 30
0.0
 10
-1.29397
 20
-13.90159
 30
0.0
 10
-1.70569
 20
-13.30416
 30
0.0
  0
SPLINE
  5
7B
330
1F
100
AcDbEntity
  8
Layer 1
370
    53
100
AcDbSpline
210
0.0
220
0.0
230
1.0
 70
    11
 71
     3
 72
    20
 73
    16
 74
     0
 42
0.0000000001
 43
0.0000000001
 12
1.0
 22
0.0
 32
0.0
 13
1.0
 23
0.0
 33
0.0
 40
0.0
 40
0.0
 40
0.0
 40
0.0
 40
0.2
 40
0.2
 40
0.2
 40
0.2
 40
0.4
 40
0.4
 40
0.4
 40
0.4
 40
0.6
 40
0.6
 40
0.6
 40
0.6
 40
1.0
 40
1.0
 40
1.0
 40
1.0
 10
-5.43699
 20
-15.81764
 30
0.0
 10
-5.88809
 20
-16.33858
 30
0.0
 10
-6.3292
 20
-16.84799
 30
0.0
 10
-6.77031
 20
-17.35737
 30
0.0
 10
-6.77031
 20
-17.35737
 30
0.0
 10
-6.7508
 20
-17.37642
 30
0.0
 10
-6.73133
 20
-17.39543
 30
0.0
 10
-6.71186
 20
-17.41445
 30
0.0
 10
-6.71186
 20
-17.41445
 30
0.0
 10
-6.31474
 20
-17.07218
 30
0.0
 10
-5.91973
 20
-16.72745
 30
0.0
 10
-5.51964
 20
-16.38868
 30
0.0
 10
-5.51964
 20
-16.38868
 30
0.0
 10
-5.33013
 20
-16.22827
 30
0.0
 10
-5.3066
 20
-16.05026
 30
0.0
 10
-5.43699
 20
-15.81764
 30
0.0
  0
SPLINE
  5
7C
330
1F
100
AcDbEntity
  8
Layer 1
370
    53
100
AcDbSpline
210
0.0
220
0.0
230
1.0
 70
    11
 71
     3
 72
    20
 73
    16
 74
     0
 42
0.0000000001
 43
0.0000000001
 12
1.0
 22
0.0
 32
0.0
 13
1.0
 23
0.0
 33
0.0
 40
0.0
 40
0.0
 40
0.0
 40
0.0
 40
0.2
 40
0.2
 40
0.2
 40
0.2
 40
0.4
 40
0.4
 40
0.4
 40
0.4
 40
0.6
 40
0.6
 40
0.6
 40
0.6
 40
1.0
 40
1.0
 40
1.0
 40
1.0
 10
-2.7231
 20
-19.47912
 30
0.0
 10
-2.75941
 20
-19.45968
 30
0.0
 10
-2.79574
 20
-19.44024
 30
0.0
 10
-2.83208
 20
-19.42084
 30
0.0
 10
-2.83208
 20
-19.42084
 30
0.0
 10
-3.0696
 20
-19.7571
 30
0.0
 10
-3.309
 20
-20.09207
 30
0.0
 10
-3.54377
 20
-20.43028
 30
0.0
 10
-3.54377
 20
-20.43028
 30
0.0
 10
-3.63638
 20
-20.56366
 30
0.0
 10
-3.62484
 20
-20.68883
 30
0.0
 10
-3.44612
 20
-20.82189
 30
0.0
 10
-3.44612
 20
-20.82189
 30
0.0
 10
-3.22497
 20
-20.3558
 30
0.0
 10
-2.8349
 20
-19.99227
 30
0.0
 10
-2.7231
 20
-19.47912
 30
0.0
  0
SPLINE
  5
7D
330
1F
100
AcDbEntity
  8
Layer 1
370
    53
100
AcDbSpline
210
0.0
220
0.0
230
1.0
 70
    11
 71
     3
 72
    16
 73
    12
 74
     0
 42
0.0000000001
 43
0.0000000001
 12
1.0
 22
0.0
 32
0.0
 13
1.0
 23
0.0
 33
0.0
 40
0.0
 40
0.0
 40
0.0
 40
0.0
 40
0.25
 40
0.25
 40
0.25
 40
0.25
 40
0.5
 40
0.5
 40
0.5
 40
0.5
 40
1.0
 40
1.0
 40
1.0
 40
1.0
 10
-4.85663
 20
-11.53103
 30
0.0
 10
-4.82968
 20
-11.43225
 30
0.0
 10
-4.75824
 20
-11.32014
 30
0.0
 10
-4.78322
 20
-11.23696
 30
0.0
 10
-4.78322
 20
-11.23696
 30
0.0
 10
-4.90479
 20
-10.83221
 30
0.0
 10
-5.05218
 20
-10.4352
 30
0.0
 10
-5.20684
 20
-9.98788
 30
0.0
 10
-5.20684
 20
-9.98788
 30
0.0
 10
-5.34153
 20
-10.30658
 30
0.0
 10
-5.22479
 20
-10.881
 30
0.0
 10
-4.85663
 20
-11.53103
 30
0.0
  0
SPLINE
  5
7E
330
1F
100
AcDbEntity
  8
Layer 1
370
    53
100
AcDbSpline
210
0.0
220
0.0
230
1.0
 70
    11
 71
     3
 72
    12
 73
     8
 74
     0
 42
0.0000000001
 43
0.0000000001
 12
1.0
 22
0.0
 32
0.0
 13
1.0
 23
0.0
 33
0.0
 40
0.0
 40
0.0
 40
0.0
 40
0.0
 40
0.3333333333333333
 40
0.3333333333333333
 40
0.3333333333333333
 40
0.3333333333333333
 40
1.0
 40
1.0
 40
1.0
 40
1.0
 10
-3.83968
 20
-10.51701
 30
0.0
 10
-3.9942
 20
-10.85567
 30
0.0
 10
-4.12212
 20
-11.13613
 30
0.0
 10
-4.2803
 20
-11.48291
 30
0.0
 10
-4.2803
 20
-11.48291
 30
0.0
 10
-3.80437
 20
-11.18009
 30
0.0
 10
-3.71522
 20
-11.28225
 30
0.0
 10
-3.83968
 20
-10.51701
 30
0.0
  0
SPLINE
  5
7F
330
1F
100
AcDbEntity
  8
Layer 1
370
    53
100
AcDbSpline
210
0.0
220
0.0
230
1.0
 70
    11
 71
     3
 72
    12
 73
     8
 74
     0
 42
0.0000000001
 43
0.0000000001
 12
1.0
 22
0.0
 32
0.0
 13
1.0
 23
0.0
 33
0.0
 40
0.0
 40
0.0
 40
0.0
 40
0.0
 40
0.3333333333333333
 40
0.3333333333333333
 40
0.3333333333333333
 40
0.3333333333333333
 40
1.0
 40
1.0
 40
1.0
 40
1.0
 10
-5.46179
 20
-13.60607
 30
0.0
 10
-5.05034
 20
-13.5545
 30
0.0
 10
-4.64176
 20
-13.49713
 30
0.0
 10
-4.29321
 20
-13.25156
 30
0.0
 10
-4.29321
 20
-13.25156
 30
0.0
 10
-4.69178
 20
-13.3435
 30
0.0
 10
-5.11885
 20
-13.33602
 30
0.0
 10
-5.46179
 20
-13.60607
 30
0.0
  0
SPLINE
  5
80
330
1F
100
AcDbEntity
  8
Layer 1
370
    53
100
AcDbSpline
210
0.0
220
0.0
230
1.0
 70
    11
 71
     3
 72
    12
 73
     8
 74
     0
 42
0.0000000001
 43
0.0000000001
 12
1.0
 22
0.0
 32
0.0
 13
1.0
 23
0.0
 33
0.0
 40
0.0
 40
0.0
 40
0.0
 40
0.0
 40
0.3333333333333333
 40
0.3333333333333333
 40
0.3333333333333333
 40
0.3333333333333333
 40
1.0
 40
1.0
 40
1.0
 40
1.0
 10
-2.5071
 20
-10.66694
 30
0.0
 10
-2.17877
 20
-10.90506
 30
0.0
 10
-1.80994
 20
-11.05623
 30
0.0
 10
-1.40682
 20
-11.1264
 30
0.0
 10
-1.40682
 20
-11.1264
 30
0.0
 10
-1.71028
 20
-10.8325
 30
0.0
 10
-2.11996
 20
-10.77813
 30
0.0
 10
-2.5071
 20
-10.66694
 30
0.0
  0
SPLINE
  5
81
330
1F
100
AcDbEntity
  8
Layer 1
370
    53
100
AcDbSpline
210
0.0
220
0.0
230
1.0
 70
    11
 71
     3
 72
    12
 73
     8
 74
     0
 42
0.0000000001
 43
0.0000000001
 12
1.0
 22
0.0
 32
0.0
 13
1.0
 23
0.0
 33
0.0
 40
0.0
 40
0.0
 40
0.0
 40
0.0
 40
0.3333333333333333
 40
0.3333333333333333
 40
0.3333333333333333
 40
0.3333333333333333
 40
1.0
 40
1.0
 40
1.0
 40
1.0
 10
-2.16392
 20
-13.21911
 30
0.0
 10
-2.09177
 20
-12.99531
 30
0.0
 10
-1.96407
 20
-12.84594
 30
0.0
 10
-2.15019
 20
-12.64415
 30
0.0
 10
-2.15019
 20
-12.64415
 30
0.0
 10
-2.22594
 20
-12.83264
 30
0.0
 10
-2.32327
 20
-12.98352
 30
0.0
 10
-2.16392
 20
-13.21911
 30
0.0
  0
SPLINE
  5
82
330
1F
100
AcDbEntity
  8
Layer 1
370
    53
100
AcDbSpline
210
0.0
220
0.0
230
1.0
 70
    11
 71
     3
 72
    12
 73
     8
 74
     0
 42
0.0000000001
 43
0.0000000001
 12
1.0
 22
0.0
 32
0.0
 13
1.0
 23
0.0
 33
0.0
 40
0.0
 40
0.0
 40
0.0
 40
0.0
 40
0.3333333333333333
 40
0.3333333333333333
 40
0.3333333333333333
 40
0.3333333333333333
 40
1.0
 40
1.0
 40
1.0
 40
1.0
 10
-4.99739
 20
-15.70072
 30
0.0
 10
-4.79123
 20
-15.4795
 30
0.0
 10
-4.79123
 20
-15.4795
 30
0.0
 10
-5.0272
 20
-15.15251
 30
0.0
 10
-5.0272
 20
-15.15251
 30
0.0
 10
-5.01418
 20
-15.39183
 30
0.0
 10
-5.00579
 20
-15.54628
 30
0.0
 10
-4.99739
 20
-15.70072
 30
0.0
  0
ENDSEC
  0
SECTION
  2
OBJECTS
  0
DICTIONARY
  5
C
330
0
100
AcDbDictionary
281
     1
  3
ACAD_GROUP
350
D
  3
ACAD_LAYOUT
350
1A
  3
ACAD_MATERIAL
350
3B
  3
ACAD_MLEADERSTYLE
350
A4
  3
ACAD_MLINESTYLE
350
17
  3
ACAD_PLOTSETTINGS
350
19
  3
ACAD_PLOTSTYLENAME
350
E
  3
ACAD_TABLESTYLE
350
A3
  3
ACAD_VISUALSTYLE
350
2A
  0
DICTIONARY
  5
D
102
{ACAD_REACTORS
330
C
102
}
330
C
100
AcDbDictionary
281
     1
  0
DICTIONARY
  5
1A
102
{ACAD_REACTORS
330
C
102
}
330
C
100
AcDbDictionary
281
     1
  3
Layout1
350
1E
  3
Layout2
350
26
  3
Model
350
22
  0
DICTIONARY
  5
3B
102
{ACAD_REACTORS
330
C
102
}
330
C
100
AcDbDictionary
281
     1
  3
ByBlock
350
3D
  3
ByLayer
350
3C
  3
Global
350
3E
  0
DICTIONARY
  5
A4
102
{ACAD_REACTORS
330
C
102
}
330
C
100
AcDbDictionary
281
     1
  0
DICTIONARY
  5
17
102
{ACAD_REACTORS
330
C
102
}
330
C
100
AcDbDictionary
281
     1
  3
Standard
350
18
  0
DICTIONARY
  5
19
102
{ACAD_REACTORS
330
C
102
}
330
C
100
AcDbDictionary
281
     1
  0
ACDBDICTIONARYWDFLT
  5
E
102
{ACAD_REACTORS
330
C
102
}
330
C
100
AcDbDictionary
281
     1
  3
Normal
350
F
100
AcDbDictionaryWithDefault
340
F
  0
DICTIONARY
  5
A3
102
{ACAD_REACTORS
330
C
102
}
330
C
100
AcDbDictionary
281
     1
  0
DICTIONARY
  5
2A
102
{ACAD_REACTORS
330
C
102
}
330
C
100
AcDbDictionary
281
     1
  3
2dWireframe
350
2F
  3
3D Hidden
350
31
  3
3dWireframe
350
30
  3
Basic
350
32
  3
Brighten
350
36
  3
ColorChange
350
3A
  3
Conceptual
350
34
  3
Dim
350
35
  3
Facepattern
350
39
  3
Flat
350
2B
  3
FlatWithEdges
350
2C
  3
Gouraud
350
2D
  3
GouraudWithEdges
350
2E
  3
Linepattern
350
38
  3
Realistic
350
33
  3
Thicken
350
37
  0
LAYOUT
  5
1E
102
{ACAD_REACTORS
330
1A
102
}
330
1A
100
AcDbPlotSettings
  1

  2
none_device
  4

  6

 40
0.0
 41
0.0
 42
0.0
 43
0.0
 44
0.0
 45
0.0
 46
0.0
 47
0.0
 48
0.0
 49
0.0
140
0.0
141
0.0
142
1.0
143
1.0
 70
   688
 72
     0
 73
     0
 74
     5
  7

 75
    16
 76
     0
 77
     2
 78
   300
147
1.0
148
0.0
149
0.0
100
AcDbLayout
  1
Layout1
 70
     1
 71
     1
 10
0.0
 20
0.0
 11
12.0
 21
9.0
 12
0.0
 22
0.0
 32
0.0
 14
1.000000000000000E+20
 24
1.000000000000000E+20
 34
1.000000000000000E+20
 15
-1.000000000000000E+20
 25
-1.000000000000000E+20
 35
-1.000000000000000E+20
146
0.0
 13
0.0
 23
0.0
 33
0.0
 16
1.0
 26
0.0
 36
0.0
 17
0.0
 27
1.0
 37
0.0
 76
     0
330
1B
  0
LAYOUT
  5
26
102
{ACAD_REACTORS
330
1A
102
}
330
1A
100
AcDbPlotSettings
  1

  2
none_device
  4

  6

 40
0.0
 41
0.0
 42
0.0
 43
0.0
 44
0.0
 45
0.0
 46
0.0
 47
0.0
 48
0.0
 49
0.0
140
0.0
141
0.0
142
1.0
143
1.0
 70
   688
 72
     0
 73
     0
 74
     5
  7

 75
    16
 76
     0
 77
     2
 78
   300
147
1.0
148
0.0
149
0.0
100
AcDbLayout
  1
Layout2
 70
     1
 71
     2
 10
0.0
 20
0.0
 11
0.0
 21
0.0
 12
0.0
 22
0.0
 32
0.0
 14
0.0
 24
0.0
 34
0.0
 15
0.0
 25
0.0
 35
0.0
146
0.0
 13
0.0
 23
0.0
 33
0.0
 16
1.0
 26
0.0
 36
0.0
 17
0.0
 27
1.0
 37
0.0
 76
     0
330
23
  0
LAYOUT
  5
22
102
{ACAD_REACTORS
330
1A
102
}
330
1A
100
AcDbPlotSettings
  1

  2
none_device
  4

  6

 40
0.0
 41
0.0
 42
0.0
 43
0.0
 44
0.0
 45
0.0
 46
0.0
 47
0.0
 48
0.0
 49
0.0
140
0.0
141
0.0
142
1.0
143
1.0
 70
  1712
 72
     0
 73
     0
 74
     0
  7

 75
     0
 76
     0
 77
     2
 78
   300
147
1.0
148
0.0
149
0.0
100
AcDbLayout
  1
Model
 70
     1
 71
     0
 10
0.0
 20
0.0
 11
12.0
 21
9.0
 12
0.0
 22
0.0
 32
0.0
 14
-8.39283
 24
-23.59697
 34
0.0
 15
8.39283
 25
23.59697
 35
0.0
146
0.0
 13
0.0
 23
0.0
 33
0.0
 16
1.0
 26
0.0
 36
0.0
 17
0.0
 27
1.0
 37
0.0
 76
     0
330
1F
331
29
  0
MATERIAL
  5
3D
102
{ACAD_REACTORS
330
3B
102
}
330
3B
100
AcDbMaterial
  1
ByBlock
 72
     1
 94
      127
  0
MATERIAL
  5
3C
102
{ACAD_REACTORS
330
3B
102
}
330
3B
100
AcDbMaterial
  1
ByLayer
 72
     1
 94
      127
  0
MATERIAL
  5
3E
102
{ACAD_REACTORS
330
3B
102
}
330
3B
100
AcDbMaterial
  1
Global
 72
     1
 94
      127
  0
MLINESTYLE
  5
18
102
{ACAD_REACTORS
330
17
102
}
330
17
100
AcDbMlineStyle
  2
Standard
 70
     0
  3

 62
   256
 51
90.0
 52
90.0
 71
     2
 49
0.5
 62
   256
  6
BYLAYER
 49
-0.5
 62
   256
  6
BYLAYER
  0
ACDBPLACEHOLDER
  5
F
102
{ACAD_REACTORS
330
E
102
}
330
E
  0
VISUALSTYLE
  5
2F
102
{ACAD_REACTORS
330
2A
102
}
102
{ACAD_XDICTIONARY
360
8B
102
}
330
2A
100
AcDbVisualStyle
  2
2dWireframe
 70
     4
 71
     0
 72
     2
 73
     0
 90
        0
 40
-0.6
 41
-30.0
 62
     5
 63
     7
421
 16777215
 74
     1
 91
        4
 64
     7
 65
   257
 75
     1
175
     1
 42
1.0
 92
        0
 66
   257
 43
1.0
 76
     1
 77
     6
 78
     2
 67
     7
 79
     5
170
     0
171
     0
290
     0
174
     0
 93
        1
 44
0.0
173
     0
291
     0
 45
0.0
  0
VISUALSTYLE
  5
31
102
{ACAD_REACTORS
330
2A
102
}
102
{ACAD_XDICTIONARY
360
8F
102
}
330
2A
100
AcDbVisualStyle
  2
3D Hidden
 70
     6
 71
     1
 72
     2
 73
     2
 90
        0
 40
-0.6
 41
-30.0
 62
     5
 63
     7
421
 16777215
 74
     2
 91
        2
 64
     7
 65
   257
 75
     2
175
     1
 42
40.0
 92
        0
 66
   257
 43
1.0
 76
     1
 77
     6
 78
     2
 67
     7
 79
     3
170
     0
171
     0
290
     0
174
     0
 93
        1
 44
0.0
173
     0
291
     0
 45
0.0
  0
VISUALSTYLE
  5
30
102
{ACAD_REACTORS
330
2A
102
}
102
{ACAD_XDICTIONARY
360
8D
102
}
330
2A
100
AcDbVisualStyle
  2
3dWireframe
 70
     5
 71
     0
 72
     2
 73
     0
 90
        0
 40
-0.6
 41
-30.0
 62
     5
 63
     7
421
 16777215
 74
     1
 91
        4
 64
     7
 65
   257
 75
     1
175
     1
 42
1.0
 92
        0
 66
   257
 43
1.0
 76
     1
 77
     6
 78
     2
 67
     7
 79
     5
170
     0
171
     0
290
     0
174
     0
 93
        1
 44
0.0
173
     0
291
     0
 45
0.0
  0
VISUALSTYLE
  5
32
102
{ACAD_REACTORS
330
2A
102
}
102
{ACAD_XDICTIONARY
360
91
102
}
330
2A
100
AcDbVisualStyle
  2
Basic
 70
     7
 71
     1
 72
     0
 73
     1
 90
        0
 40
-0.6
 41
-30.0
 62
     5
 63
     7
421
 16777215
 74
     0
 91
        4
 64
     7
 65
   257
 75
     1
175
     1
 42
1.0
 92
        8
 66
     7
 43
1.0
 76
     1
 77
     6
 78
     2
 67
     7
 79
     5
170
     0
171
     0
290
     0
174
     0
 93
        1
 44
0.0
173
     0
291
     1
 45
0.0
  0
VISUALSTYLE
  5
36
102
{ACAD_REACTORS
330
2A
102
}
102
{ACAD_XDICTIONARY
360
99
102
}
330
2A
100
AcDbVisualStyle
  2
Brighten
 70
    12
 71
     2
 72
     2
 73
     0
 90
        0
 40
-0.6
 41
-30.0
 62
     5
 63
     7
421
 16777215
 74
     1
 91
        4
 64
     7
 65
   257
 75
     1
175
     1
 42
1.0
 92
        8
 66
     7
 43
1.0
 76
     1
 77
     6
 78
     2
 67
     7
 79
     5
170
     0
171
     0
290
     0
174
     0
 93
        1
 44
50.0
173
     0
291
     1
 45
0.0
  0
VISUALSTYLE
  5
3A
102
{ACAD_REACTORS
330
2A
102
}
102
{ACAD_XDICTIONARY
360
A1
102
}
330
2A
100
AcDbVisualStyle
  2
ColorChange
 70
    16
 71
     2
 72
     2
 73
     3
 90
        0
 40
-0.6
 41
-30.0
 62
     5
 63
     8
421
  8421504
 74
     1
 91
        4
 64
     7
 65
   257
 75
     1
175
     1
 42
1.0
 92
        8
 66
     8
424
  8421504
 43
1.0
 76
     1
 77
     6
 78
     2
 67
     7
 79
     5
170
     0
171
     0
290
     0
174
     0
 93
        1
 44
0.0
173
     0
291
     1
 45
0.0
  0
VISUALSTYLE
  5
34
102
{ACAD_REACTORS
330
2A
102
}
102
{ACAD_XDICTIONARY
360
95
102
}
330
2A
100
AcDbVisualStyle
  2
Conceptual
 70
     9
 71
     3
 72
     2
 73
     0
 90
        0
 40
-0.6
 41
-30.0
 62
     5
 63
     7
421
 16777215
 74
     2
 91
        2
 64
     7
 65
   257
 75
     1
175
     1
 42
40.0
 92
        8
 66
     7
 43
1.0
 76
     1
 77
     6
 78
     2
 67
     7
 79
     3
170
     0
171
     0
290
     0
174
     0
 93
        1
 44
0.0
173
     0
291
     0
 45
0.0
  0
VISUALSTYLE
  5
35
102
{ACAD_REACTORS
330
2A
102
}
102
{ACAD_XDICTIONARY
360
97
102
}
330
2A
100
AcDbVisualStyle
  2
Dim
 70
    11
 71
     2
 72
     2
 73
     0
 90
        0
 40
-0.6
 41
-30.0
 62
     5
 63
     7
421
 16777215
 74
     1
 91
        4
 64
     7
 65
   257
 75
     1
175
     1
 42
1.0
 92
        8
 66
     7
 43
1.0
 76
     1
 77
     6
 78
     2
 67
     7
 79
     5
170
     0
171
     0
290
     0
174
     0
 93
        1
 44
-50.0
173
     0
291
     1
 45
0.0
  0
VISUALSTYLE
  5
39
102
{ACAD_REACTORS
330
2A
102
}
102
{ACAD_XDICTIONARY
360
9F
102
}
330
2A
100
AcDbVisualStyle
  2
Facepattern
 70
    15
 71
     2
 72
     2
 73
     0
 90
        0
 40
-0.6
 41
-30.0
 62
     5
 63
     7
421
 16777215
 74
     1
 91
        4
 64
     7
 65
   257
 75
     1
175
     1
 42
1.0
 92
        8
 66
     7
 43
1.0
 76
     1
 77
     6
 78
     2
 67
     7
 79
     5
170
     0
171
     0
290
     0
174
     0
 93
        1
 44
0.0
173
     0
291
     1
 45
0.0
  0
VISUALSTYLE
  5
2B
102
{ACAD_REACTORS
330
2A
102
}
102
{ACAD_XDICTIONARY
360
83
102
}
330
2A
100
AcDbVisualStyle
  2
Flat
 70
     0
 71
     2
 72
     1
 73
     1
 90
        2
 40
-0.6
 41
30.0
 62
     5
 63
     7
421
 16777215
 74
     0
 91
        4
 64
     7
 65
   257
 75
     1
175
     1
 42
1.0
 92
        8
 66
     7
 43
1.0
 76
     1
 77
     6
 78
     2
 67
     7
 79
     5
170
     0
171
     0
290
     0
174
     0
 93
       13
 44
0.0
173
     0
291
     1
 45
0.0
  0
VISUALSTYLE
  5
2C
102
{ACAD_REACTORS
330
2A
102
}
102
{ACAD_XDICTIONARY
360
85
102
}
330
2A
100
AcDbVisualStyle
  2
FlatWithEdges
 70
     1
 71
     2
 72
     1
 73
     1
 90
        2
 40
-0.6
 41
30.0
 62
     5
 63
     7
421
 16777215
 74
     1
 91
        4
 64
     7
 65
   257
 75
     1
175
     1
 42
1.0
 92
        0
 66
   257
 43
1.0
 76
     1
 77
     6
 78
     2
 67
     7
 79
     5
170
     0
171
     0
290
     0
174
     0
 93
       13
 44
0.0
173
     0
291
     1
 45
0.0
  0
VISUALSTYLE
  5
2D
102
{ACAD_REACTORS
330
2A
102
}
102
{ACAD_XDICTIONARY
360
87
102
}
330
2A
100
AcDbVisualStyle
  2
Gouraud
 70
     2
 71
     2
 72
     2
 73
     1
 90
        2
 40
-0.6
 41
30.0
 62
     5
 63
     7
421
 16777215
 74
     0
 91
        4
 64
     7
 65
   257
 75
     1
175
     1
 42
1.0
 92
        0
 66
     7
 43
1.0
 76
     1
 77
     6
 78
     2
 67
     7
 79
     5
170
     0
171
     0
290
     0
174
     0
 93
       13
 44
0.0
173
     0
291
     1
 45
0.0
  0
VISUALSTYLE
  5
2E
102
{ACAD_REACTORS
330
2A
102
}
102
{ACAD_XDICTIONARY
360
89
102
}
330
2A
100
AcDbVisualStyle
  2
GouraudWithEdges
 70
     3
 71
     2
 72
     2
 73
     1
 90
        2
 40
-0.6
 41
30.0
 62
     5
 63
     7
421
 16777215
 74
     1
 91
        4
 64
     7
 65
   257
 75
     1
175
     1
 42
1.0
 92
        0
 66
   257
 43
1.0
 76
     1
 77
     6
 78
     2
 67
     7
 79
     5
170
     0
171
     0
290
     0
174
     0
 93
       13
 44
0.0
173
     0
291
     1
 45
0.0
  0
VISUALSTYLE
  5
38
102
{ACAD_REACTORS
330
2A
102
}
102
{ACAD_XDICTIONARY
360
9D
102
}
330
2A
100
AcDbVisualStyle
  2
Linepattern
 70
    14
 71
     2
 72
     2
 73
     0
 90
        0
 40
-0.6
 41
-30.0
 62
     5
 63
     7
421
 16777215
 74
     1
 91
        4
 64
     7
 65
   257
 75
     7
175
     7
 42
1.0
 92
        8
 66
     7
 43
1.0
 76
     1
 77
     6
 78
     2
 67
     7
 79
     5
170
     0
171
     0
290
     0
174
     0
 93
        1
 44
0.0
173
     0
291
     1
 45
0.0
  0
VISUALSTYLE
  5
33
102
{ACAD_REACTORS
330
2A
102
}
102
{ACAD_XDICTIONARY
360
93
102
}
330
2A
100
AcDbVisualStyle
  2
Realistic
 70
     8
 71
     2
 72
     2
 73
     0
 90
        0
 40
-0.6
 41
-30.0
 62
     5
 63
     7
421
 16777215
 74
     1
 91
        0
 64
     7
 65
   257
 75
     1
175
     1
 42
1.0
 92
        8
 66
     8
424
  7895160
 43
1.0
 76
     1
 77
     6
 78
     2
 67
     7
 79
     5
170
     0
171
     0
290
     0
174
     0
 93
       13
 44
0.0
173
     0
291
     0
 45
0.0
  0
VISUALSTYLE
  5
37
102
{ACAD_REACTORS
330
2A
102
}
102
{ACAD_XDICTIONARY
360
9B
102
}
330
2A
100
AcDbVisualStyle
  2
Thicken
 70
    13
 71
     2
 72
     2
 73
     0
 90
        0
 40
-0.6
 41
-30.0
 62
     5
 63
     7
421
 16777215
 74
     1
 91
        4
 64
     7
 65
   257
 75
     1
175
     1
 42
1.0
 92
       12
 66
     7
 43
1.0
 76
     1
 77
     6
 78
     2
 67
     7
 79
     5
170
     0
171
     0
290
     0
174
     0
 93
        1
 44
0.0
173
     0
291
     1
 45
0.0
  0
DICTIONARY
  5
8B
330
2F
100
AcDbDictionary
280
     1
281
     1
  3
ACAD_XREC_ROUNDTRIP
360
8C
  0
DICTIONARY
  5
8F
330
31
100
AcDbDictionary
280
     1
281
     1
  3
ACAD_XREC_ROUNDTRIP
360
90
  0
DICTIONARY
  5
8D
330
30
100
AcDbDictionary
280
     1
281
     1
  3
ACAD_XREC_ROUNDTRIP
360
8E
  0
DICTIONARY
  5
91
330
32
100
AcDbDictionary
280
     1
281
     1
  3
ACAD_XREC_ROUNDTRIP
360
92
  0
DICTIONARY
  5
99
330
36
100
AcDbDictionary
280
     1
281
     1
  3
ACAD_XREC_ROUNDTRIP
360
9A
  0
DICTIONARY
  5
A1
330
3A
100
AcDbDictionary
280
     1
281
     1
  3
ACAD_XREC_ROUNDTRIP
360
A2
  0
DICTIONARY
  5
95
330
34
100
AcDbDictionary
280
     1
281
     1
  3
ACAD_XREC_ROUNDTRIP
360
96
  0
DICTIONARY
  5
97
330
35
100
AcDbDictionary
280
     1
281
     1
  3
ACAD_XREC_ROUNDTRIP
360
98
  0
DICTIONARY
  5
9F
330
39
100
AcDbDictionary
280
     1
281
     1
  3
ACAD_XREC_ROUNDTRIP
360
A0
  0
DICTIONARY
  5
83
330
2B
100
AcDbDictionary
280
     1
281
     1
  3
ACAD_XREC_ROUNDTRIP
360
84
  0
DICTIONARY
  5
85
330
2C
100
AcDbDictionary
280
     1
281
     1
  3
ACAD_XREC_ROUNDTRIP
360
86
  0
DICTIONARY
  5
87
330
2D
100
AcDbDictionary
280
     1
281
     1
  3
ACAD_XREC_ROUNDTRIP
360
88
  0
DICTIONARY
  5
89
330
2E
100
AcDbDictionary
280
     1
281
     1
  3
ACAD_XREC_ROUNDTRIP
360
8A
  0
DICTIONARY
  5
9D
330
38
100
AcDbDictionary
280
     1
281
     1
  3
ACAD_XREC_ROUNDTRIP
360
9E
  0
DICTIONARY
  5
93
330
33
100
AcDbDictionary
280
     1
281
     1
  3
ACAD_XREC_ROUNDTRIP
360
94
  0
DICTIONARY
  5
9B
330
37
100
AcDbDictionary
280
     1
281
     1
  3
ACAD_XREC_ROUNDTRIP
360
9C
  0
XRECORD
  5
8C
102
{ACAD_REACTORS
330
8B
102
}
330
8B
100
AcDbXrecord
280
     1
102
RTVSPropertyOp0
 70
     1
102
RTVSPropertyOp1
 70
     1
102
RTVSPropertyOp2
 70
     1
102
RTVSPropertyOp3
 70
     1
102
RTVSPropertyOp4
 70
     1
102
RTVSPropertyOp5
 70
     1
102
RTVSPropertyOp6
 70
     1
102
RTVSPropertyOp7
 70
     1
102
RTVSPropertyOp8
 70
     1
102
RTVSPropertyOp9
 70
     1
102
RTVSPropertyOp10
 70
     1
102
RTVSPropertyOp11
 70
     1
102
RTVSPropertyOp12
 70
     1
102
RTVSPropertyOp13
 70
     1
102
RTVSPropertyOp14
 70
     1
102
RTVSPropertyOp15
 70
     1
102
RTVSPropertyOp16
 70
     1
102
RTVSPropertyOp17
 70
     1
102
RTVSPropertyOp18
 70
     1
102
RTVSPropertyOp19
 70
     1
102
RTVSPropertyOp20
 70
     1
102
RTVSPropertyOp21
 70
     1
102
RTVSPropertyOp22
 70
     1
102
RTVSPropertyOp23
 70
     1
102
RTVSPropertyOp24
 70
     1
102
RTVSPropertyOp25
 70
     1
102
RTVSPropertyOp26
 70
     1
102
RTVSPropertyOp27
 70
     1
102
RTVSPropertyOp28
 70
     1
102
RTVSPropertyOp29
 70
     1
102
RTVSPropertyOp30
 70
     1
102
RTVSPropertyOp31
 70
     1
102
RTVSPropertyOp32
 70
     1
  0
XRECORD
  5
90
102
{ACAD_REACTORS
330
8F
102
}
330
8F
100
AcDbXrecord
280
     1
102
RTVSPropertyOp0
 70
     1
102
RTVSPropertyOp1
 70
     1
102
RTVSPropertyOp2
 70
     1
102
RTVSPropertyOp3
 70
     1
102
RTVSPropertyOp4
 70
     1
102
RTVSPropertyOp5
 70
     1
102
RTVSPropertyOp6
 70
     1
102
RTVSPropertyOp7
 70
     1
102
RTVSPropertyOp8
 70
     1
102
RTVSPropertyOp9
 70
     1
102
RTVSPropertyOp10
 70
     1
102
RTVSPropertyOp11
 70
     1
102
RTVSPropertyOp12
 70
     1
102
RTVSPropertyOp13
 70
     1
102
RTVSPropertyOp14
 70
     1
102
RTVSPropertyOp15
 70
     1
102
RTVSPropertyOp16
 70
     1
102
RTVSPropertyOp17
 70
     1
102
RTVSPropertyOp18
 70
     1
102
RTVSPropertyOp19
 70
     1
102
RTVSPropertyOp20
 70
     1
102
RTVSPropertyOp21
 70
     1
102
RTVSPropertyOp22
 70
     1
102
RTVSPropertyOp23
 70
     1
102
RTVSPropertyOp24
 70
     1
102
RTVSPropertyOp25
 70
     1
102
RTVSPropertyOp26
 70
     1
102
RTVSPropertyOp27
 70
     1
102
RTVSPropertyOp28
 70
     1
102
RTVSPropertyOp29
 70
     1
102
RTVSPropertyOp30
 70
     1
102
RTVSPropertyOp31
 70
     1
102
RTVSPropertyOp32
 70
     1
  0
XRECORD
  5
8E
102
{ACAD_REACTORS
330
8D
102
}
330
8D
100
AcDbXrecord
280
     1
102
RTVSPropertyOp0
 70
     1
102
RTVSPropertyOp1
 70
     1
102
RTVSPropertyOp2
 70
     1
102
RTVSPropertyOp3
 70
     1
102
RTVSPropertyOp4
 70
     1
102
RTVSPropertyOp5
 70
     1
102
RTVSPropertyOp6
 70
     1
102
RTVSPropertyOp7
 70
     1
102
RTVSPropertyOp8
 70
     1
102
RTVSPropertyOp9
 70
     1
102
RTVSPropertyOp10
 70
     1
102
RTVSPropertyOp11
 70
     1
102
RTVSPropertyOp12
 70
     1
102
RTVSPropertyOp13
 70
     1
102
RTVSPropertyOp14
 70
     1
102
RTVSPropertyOp15
 70
     1
102
RTVSPropertyOp16
 70
     1
102
RTVSPropertyOp17
 70
     1
102
RTVSPropertyOp18
 70
     1
102
RTVSPropertyOp19
 70
     1
102
RTVSPropertyOp20
 70
     1
102
RTVSPropertyOp21
 70
     1
102
RTVSPropertyOp22
 70
     1
102
RTVSPropertyOp23
 70
     1
102
RTVSPropertyOp24
 70
     1
102
RTVSPropertyOp25
 70
     1
102
RTVSPropertyOp26
 70
     1
102
RTVSPropertyOp27
 70
     1
102
RTVSPropertyOp28
 70
     1
102
RTVSPropertyOp29
 70
     1
102
RTVSPropertyOp30
 70
     1
102
RTVSPropertyOp31
 70
     1
102
RTVSPropertyOp32
 70
     1
  0
XRECORD
  5
92
102
{ACAD_REACTORS
330
91
102
}
330
91
100
AcDbXrecord
280
     1
102
RTVSPropertyOp0
 70
     1
102
RTVSPropertyOp1
 70
     1
102
RTVSPropertyOp2
 70
     1
102
RTVSPropertyOp3
 70
     1
102
RTVSPropertyOp4
 70
     1
102
RTVSPropertyOp5
 70
     1
102
RTVSPropertyOp6
 70
     1
102
RTVSPropertyOp7
 70
     1
102
RTVSPropertyOp8
 70
     1
102
RTVSPropertyOp9
 70
     1
102
RTVSPropertyOp10
 70
     1
102
RTVSPropertyOp11
 70
     1
102
RTVSPropertyOp12
 70
     1
102
RTVSPropertyOp13
 70
     1
102
RTVSPropertyOp14
 70
     1
102
RTVSPropertyOp15
 70
     1
102
RTVSPropertyOp16
 70
     1
102
RTVSPropertyOp17
 70
     1
102
RTVSPropertyOp18
 70
     1
102
RTVSPropertyOp19
 70
     1
102
RTVSPropertyOp20
 70
     1
102
RTVSPropertyOp21
 70
     1
102
RTVSPropertyOp22
 70
     1
102
RTVSPropertyOp23
 70
     1
102
RTVSPropertyOp24
 70
     1
102
RTVSPropertyOp25
 70
     1
102
RTVSPropertyOp26
 70
     1
102
RTVSPropertyOp27
 70
     1
102
RTVSPropertyOp28
 70
     1
102
RTVSPropertyOp29
 70
     1
102
RTVSPropertyOp30
 70
     1
102
RTVSPropertyOp31
 70
     1
102
RTVSPropertyOp32
 70
     1
  0
XRECORD
  5
9A
102
{ACAD_REACTORS
330
99
102
}
330
99
100
AcDbXrecord
280
     1
102
RTVSPropertyOp0
 70
     1
102
RTVSPropertyOp1
 70
     1
102
RTVSPropertyOp2
 70
     1
102
RTVSPropertyOp3
 70
     1
102
RTVSPropertyOp4
 70
     1
102
RTVSPropertyOp5
 70
     1
102
RTVSPropertyOp6
 70
     1
102
RTVSPropertyOp7
 70
     1
102
RTVSPropertyOp8
 70
     1
102
RTVSPropertyOp9
 70
     1
102
RTVSPropertyOp10
 70
     1
102
RTVSPropertyOp11
 70
     1
102
RTVSPropertyOp12
 70
     1
102
RTVSPropertyOp13
 70
     1
102
RTVSPropertyOp14
 70
     1
102
RTVSPropertyOp15
 70
     1
102
RTVSPropertyOp16
 70
     1
102
RTVSPropertyOp17
 70
     1
102
RTVSPropertyOp18
 70
     1
102
RTVSPropertyOp19
 70
     1
102
RTVSPropertyOp20
 70
     1
102
RTVSPropertyOp21
 70
     1
102
RTVSPropertyOp22
 70
     1
102
RTVSPropertyOp23
 70
     1
102
RTVSPropertyOp24
 70
     1
102
RTVSPropertyOp25
 70
     1
102
RTVSPropertyOp26
 70
     1
102
RTVSPropertyOp27
 70
     1
102
RTVSPropertyOp28
 70
     1
102
RTVSPropertyOp29
 70
     1
102
RTVSPropertyOp30
 70
     1
102
RTVSPropertyOp31
 70
     1
102
RTVSPropertyOp32
 70
     1
  0
XRECORD
  5
A2
102
{ACAD_REACTORS
330
A1
102
}
330
A1
100
AcDbXrecord
280
     1
102
RTVSPropertyOp0
 70
     1
102
RTVSPropertyOp1
 70
     1
102
RTVSPropertyOp2
 70
     1
102
RTVSPropertyOp3
 70
     1
102
RTVSPropertyOp4
 70
     1
102
RTVSPropertyOp5
 70
     1
102
RTVSPropertyOp6
 70
     1
102
RTVSPropertyOp7
 70
     1
102
RTVSPropertyOp8
 70
     1
102
RTVSPropertyOp9
 70
     1
102
RTVSPropertyOp10
 70
     1
102
RTVSPropertyOp11
 70
     1
102
RTVSPropertyOp12
 70
     1
102
RTVSPropertyOp13
 70
     1
102
RTVSPropertyOp14
 70
     1
102
RTVSPropertyOp15
 70
     1
102
RTVSPropertyOp16
 70
     1
102
RTVSPropertyOp17
 70
     1
102
RTVSPropertyOp18
 70
     1
102
RTVSPropertyOp19
 70
     1
102
RTVSPropertyOp20
 70
     1
102
RTVSPropertyOp21
 70
     1
102
RTVSPropertyOp22
 70
     1
102
RTVSPropertyOp23
 70
     1
102
RTVSPropertyOp24
 70
     1
102
RTVSPropertyOp25
 70
     1
102
RTVSPropertyOp26
 70
     1
102
RTVSPropertyOp27
 70
     1
102
RTVSPropertyOp28
 70
     1
102
RTVSPropertyOp29
 70
     1
102
RTVSPropertyOp30
 70
     1
102
RTVSPropertyOp31
 70
     1
102
RTVSPropertyOp32
 70
     1
  0
XRECORD
  5
96
102
{ACAD_REACTORS
330
95
102
}
330
95
100
AcDbXrecord
280
     1
102
RTVSPropertyOp0
 70
     1
102
RTVSPropertyOp1
 70
     1
102
RTVSPropertyOp2
 70
     1
102
RTVSPropertyOp3
 70
     1
102
RTVSPropertyOp4
 70
     1
102
RTVSPropertyOp5
 70
     1
102
RTVSPropertyOp6
 70
     1
102
RTVSPropertyOp7
 70
     1
102
RTVSPropertyOp8
 70
     1
102
RTVSPropertyOp9
 70
     1
102
RTVSPropertyOp10
 70
     1
102
RTVSPropertyOp11
 70
     1
102
RTVSPropertyOp12
 70
     1
102
RTVSPropertyOp13
 70
     1
102
RTVSPropertyOp14
 70
     1
102
RTVSPropertyOp15
 70
     1
102
RTVSPropertyOp16
 70
     1
102
RTVSPropertyOp17
 70
     1
102
RTVSPropertyOp18
 70
     1
102
RTVSPropertyOp19
 70
     1
102
RTVSPropertyOp20
 70
     1
102
RTVSPropertyOp21
 70
     1
102
RTVSPropertyOp22
 70
     1
102
RTVSPropertyOp23
 70
     1
102
RTVSPropertyOp24
 70
     1
102
RTVSPropertyOp25
 70
     1
102
RTVSPropertyOp26
 70
     1
102
RTVSPropertyOp27
 70
     1
102
RTVSPropertyOp28
 70
     1
102
RTVSPropertyOp29
 70
     1
102
RTVSPropertyOp30
 70
     1
102
RTVSPropertyOp31
 70
     1
102
RTVSPropertyOp32
 70
     1
  0
XRECORD
  5
98
102
{ACAD_REACTORS
330
97
102
}
330
97
100
AcDbXrecord
280
     1
102
RTVSPropertyOp0
 70
     1
102
RTVSPropertyOp1
 70
     1
102
RTVSPropertyOp2
 70
     1
102
RTVSPropertyOp3
 70
     1
102
RTVSPropertyOp4
 70
     1
102
RTVSPropertyOp5
 70
     1
102
RTVSPropertyOp6
 70
     1
102
RTVSPropertyOp7
 70
     1
102
RTVSPropertyOp8
 70
     1
102
RTVSPropertyOp9
 70
     1
102
RTVSPropertyOp10
 70
     1
102
RTVSPropertyOp11
 70
     1
102
RTVSPropertyOp12
 70
     1
102
RTVSPropertyOp13
 70
     1
102
RTVSPropertyOp14
 70
     1
102
RTVSPropertyOp15
 70
     1
102
RTVSPropertyOp16
 70
     1
102
RTVSPropertyOp17
 70
     1
102
RTVSPropertyOp18
 70
     1
102
RTVSPropertyOp19
 70
     1
102
RTVSPropertyOp20
 70
     1
102
RTVSPropertyOp21
 70
     1
102
RTVSPropertyOp22
 70
     1
102
RTVSPropertyOp23
 70
     1
102
RTVSPropertyOp24
 70
     1
102
RTVSPropertyOp25
 70
     1
102
RTVSPropertyOp26
 70
     1
102
RTVSPropertyOp27
 70
     1
102
RTVSPropertyOp28
 70
     1
102
RTVSPropertyOp29
 70
     1
102
RTVSPropertyOp30
 70
     1
102
RTVSPropertyOp31
 70
     1
102
RTVSPropertyOp32
 70
     1
  0
XRECORD
  5
A0
102
{ACAD_REACTORS
330
9F
102
}
330
9F
100
AcDbXrecord
280
     1
102
RTVSPropertyOp0
 70
     1
102
RTVSPropertyOp1
 70
     1
102
RTVSPropertyOp2
 70
     1
102
RTVSPropertyOp3
 70
     1
102
RTVSPropertyOp4
 70
     1
102
RTVSPropertyOp5
 70
     1
102
RTVSPropertyOp6
 70
     1
102
RTVSPropertyOp7
 70
     1
102
RTVSPropertyOp8
 70
     1
102
RTVSPropertyOp9
 70
     1
102
RTVSPropertyOp10
 70
     1
102
RTVSPropertyOp11
 70
     1
102
RTVSPropertyOp12
 70
     1
102
RTVSPropertyOp13
 70
     1
102
RTVSPropertyOp14
 70
     1
102
RTVSPropertyOp15
 70
     1
102
RTVSPropertyOp16
 70
     1
102
RTVSPropertyOp17
 70
     1
102
RTVSPropertyOp18
 70
     1
102
RTVSPropertyOp19
 70
     1
102
RTVSPropertyOp20
 70
     1
102
RTVSPropertyOp21
 70
     1
102
RTVSPropertyOp22
 70
     1
102
RTVSPropertyOp23
 70
     1
102
RTVSPropertyOp24
 70
     1
102
RTVSPropertyOp25
 70
     1
102
RTVSPropertyOp26
 70
     1
102
RTVSPropertyOp27
 70
     1
102
RTVSPropertyOp28
 70
     1
102
RTVSPropertyOp29
 70
     1
102
RTVSPropertyOp30
 70
     1
102
RTVSPropertyOp31
 70
     1
102
RTVSPropertyOp32
 70
     1
  0
XRECORD
  5
84
102
{ACAD_REACTORS
330
83
102
}
330
83
100
AcDbXrecord
280
     1
102
RTVSPropertyOp0
 70
     1
102
RTVSPropertyOp1
 70
     1
102
RTVSPropertyOp2
 70
     1
102
RTVSPropertyOp3
 70
     1
102
RTVSPropertyOp4
 70
     1
102
RTVSPropertyOp5
 70
     1
102
RTVSPropertyOp6
 70
     1
102
RTVSPropertyOp7
 70
     1
102
RTVSPropertyOp8
 70
     1
102
RTVSPropertyOp9
 70
     1
102
RTVSPropertyOp10
 70
     1
102
RTVSPropertyOp11
 70
     1
102
RTVSPropertyOp12
 70
     1
102
RTVSPropertyOp13
 70
     1
102
RTVSPropertyOp14
 70
     1
102
RTVSPropertyOp15
 70
     1
102
RTVSPropertyOp16
 70
     1
102
RTVSPropertyOp17
 70
     1
102
RTVSPropertyOp18
 70
     1
102
RTVSPropertyOp19
 70
     1
102
RTVSPropertyOp20
 70
     1
102
RTVSPropertyOp21
 70
     1
102
RTVSPropertyOp22
 70
     1
102
RTVSPropertyOp23
 70
     1
102
RTVSPropertyOp24
 70
     1
102
RTVSPropertyOp25
 70
     1
102
RTVSPropertyOp26
 70
     1
102
RTVSPropertyOp27
 70
     1
102
RTVSPropertyOp28
 70
     1
102
RTVSPropertyOp29
 70
     1
102
RTVSPropertyOp30
 70
     1
102
RTVSPropertyOp31
 70
     1
102
RTVSPropertyOp32
 70
     1
  0
XRECORD
  5
86
102
{ACAD_REACTORS
330
85
102
}
330
85
100
AcDbXrecord
280
     1
102
RTVSPropertyOp0
 70
     1
102
RTVSPropertyOp1
 70
     1
102
RTVSPropertyOp2
 70
     1
102
RTVSPropertyOp3
 70
     1
102
RTVSPropertyOp4
 70
     1
102
RTVSPropertyOp5
 70
     1
102
RTVSPropertyOp6
 70
     1
102
RTVSPropertyOp7
 70
     1
102
RTVSPropertyOp8
 70
     1
102
RTVSPropertyOp9
 70
     1
102
RTVSPropertyOp10
 70
     1
102
RTVSPropertyOp11
 70
     1
102
RTVSPropertyOp12
 70
     1
102
RTVSPropertyOp13
 70
     1
102
RTVSPropertyOp14
 70
     1
102
RTVSPropertyOp15
 70
     1
102
RTVSPropertyOp16
 70
     1
102
RTVSPropertyOp17
 70
     1
102
RTVSPropertyOp18
 70
     1
102
RTVSPropertyOp19
 70
     1
102
RTVSPropertyOp20
 70
     1
102
RTVSPropertyOp21
 70
     1
102
RTVSPropertyOp22
 70
     1
102
RTVSPropertyOp23
 70
     1
102
RTVSPropertyOp24
 70
     1
102
RTVSPropertyOp25
 70
     1
102
RTVSPropertyOp26
 70
     1
102
RTVSPropertyOp27
 70
     1
102
RTVSPropertyOp28
 70
     1
102
RTVSPropertyOp29
 70
     1
102
RTVSPropertyOp30
 70
     1
102
RTVSPropertyOp31
 70
     1
102
RTVSPropertyOp32
 70
     1
  0
XRECORD
  5
88
102
{ACAD_REACTORS
330
87
102
}
330
87
100
AcDbXrecord
280
     1
102
RTVSPropertyOp0
 70
     1
102
RTVSPropertyOp1
 70
     1
102
RTVSPropertyOp2
 70
     1
102
RTVSPropertyOp3
 70
     1
102
RTVSPropertyOp4
 70
     1
102
RTVSPropertyOp5
 70
     1
102
RTVSPropertyOp6
 70
     1
102
RTVSPropertyOp7
 70
     1
102
RTVSPropertyOp8
 70
     1
102
RTVSPropertyOp9
 70
     1
102
RTVSPropertyOp10
 70
     1
102
RTVSPropertyOp11
 70
     1
102
RTVSPropertyOp12
 70
     1
102
RTVSPropertyOp13
 70
     1
102
RTVSPropertyOp14
 70
     1
102
RTVSPropertyOp15
 70
     1
102
RTVSPropertyOp16
 70
     1
102
RTVSPropertyOp17
 70
     1
102
RTVSPropertyOp18
 70
     1
102
RTVSPropertyOp19
 70
     1
102
RTVSPropertyOp20
 70
     1
102
RTVSPropertyOp21
 70
     1
102
RTVSPropertyOp22
 70
     1
102
RTVSPropertyOp23
 70
     1
102
RTVSPropertyOp24
 70
     1
102
RTVSPropertyOp25
 70
     1
102
RTVSPropertyOp26
 70
     1
102
RTVSPropertyOp27
 70
     1
102
RTVSPropertyOp28
 70
     1
102
RTVSPropertyOp29
 70
     1
102
RTVSPropertyOp30
 70
     1
102
RTVSPropertyOp31
 70
     1
102
RTVSPropertyOp32
 70
     1
  0
XRECORD
  5
8A
102
{ACAD_REACTORS
330
89
102
}
330
89
100
AcDbXrecord
280
     1
102
RTVSPropertyOp0
 70
     1
102
RTVSPropertyOp1
 70
     1
102
RTVSPropertyOp2
 70
     1
102
RTVSPropertyOp3
 70
     1
102
RTVSPropertyOp4
 70
     1
102
RTVSPropertyOp5
 70
     1
102
RTVSPropertyOp6
 70
     1
102
RTVSPropertyOp7
 70
     1
102
RTVSPropertyOp8
 70
     1
102
RTVSPropertyOp9
 70
     1
102
RTVSPropertyOp10
 70
     1
102
RTVSPropertyOp11
 70
     1
102
RTVSPropertyOp12
 70
     1
102
RTVSPropertyOp13
 70
     1
102
RTVSPropertyOp14
 70
     1
102
RTVSPropertyOp15
 70
     1
102
RTVSPropertyOp16
 70
     1
102
RTVSPropertyOp17
 70
     1
102
RTVSPropertyOp18
 70
     1
102
RTVSPropertyOp19
 70
     1
102
RTVSPropertyOp20
 70
     1
102
RTVSPropertyOp21
 70
     1
102
RTVSPropertyOp22
 70
     1
102
RTVSPropertyOp23
 70
     1
102
RTVSPropertyOp24
 70
     1
102
RTVSPropertyOp25
 70
     1
102
RTVSPropertyOp26
 70
     1
102
RTVSPropertyOp27
 70
     1
102
RTVSPropertyOp28
 70
     1
102
RTVSPropertyOp29
 70
     1
102
RTVSPropertyOp30
 70
     1
102
RTVSPropertyOp31
 70
     1
102
RTVSPropertyOp32
 70
     1
  0
XRECORD
  5
9E
102
{ACAD_REACTORS
330
9D
102
}
330
9D
100
AcDbXrecord
280
     1
102
RTVSPropertyOp0
 70
     1
102
RTVSPropertyOp1
 70
     1
102
RTVSPropertyOp2
 70
     1
102
RTVSPropertyOp3
 70
     1
102
RTVSPropertyOp4
 70
     1
102
RTVSPropertyOp5
 70
     1
102
RTVSPropertyOp6
 70
     1
102
RTVSPropertyOp7
 70
     1
102
RTVSPropertyOp8
 70
     1
102
RTVSPropertyOp9
 70
     1
102
RTVSPropertyOp10
 70
     1
102
RTVSPropertyOp11
 70
     1
102
RTVSPropertyOp12
 70
     1
102
RTVSPropertyOp13
 70
     1
102
RTVSPropertyOp14
 70
     1
102
RTVSPropertyOp15
 70
     1
102
RTVSPropertyOp16
 70
     1
102
RTVSPropertyOp17
 70
     1
102
RTVSPropertyOp18
 70
     1
102
RTVSPropertyOp19
 70
     1
102
RTVSPropertyOp20
 70
     1
102
RTVSPropertyOp21
 70
     1
102
RTVSPropertyOp22
 70
     1
102
RTVSPropertyOp23
 70
     1
102
RTVSPropertyOp24
 70
     1
102
RTVSPropertyOp25
 70
     1
102
RTVSPropertyOp26
 70
     1
102
RTVSPropertyOp27
 70
     1
102
RTVSPropertyOp28
 70
     1
102
RTVSPropertyOp29
 70
     1
102
RTVSPropertyOp30
 70
     1
102
RTVSPropertyOp31
 70
     1
102
RTVSPropertyOp32
 70
     1
  0
XRECORD
  5
94
102
{ACAD_REACTORS
330
93
102
}
330
93
100
AcDbXrecord
280
     1
102
RTVSPropertyOp0
 70
     1
102
RTVSPropertyOp1
 70
     1
102
RTVSPropertyOp2
 70
     1
102
RTVSPropertyOp3
 70
     1
102
RTVSPropertyOp4
 70
     1
102
RTVSPropertyOp5
 70
     1
102
RTVSPropertyOp6
 70
     1
102
RTVSPropertyOp7
 70
     1
102
RTVSPropertyOp8
 70
     1
102
RTVSPropertyOp9
 70
     1
102
RTVSPropertyOp10
 70
     1
102
RTVSPropertyOp11
 70
     1
102
RTVSPropertyOp12
 70
     1
102
RTVSPropertyOp13
 70
     1
102
RTVSPropertyOp14
 70
     1
102
RTVSPropertyOp15
 70
     1
102
RTVSPropertyOp16
 70
     1
102
RTVSPropertyOp17
 70
     1
102
RTVSPropertyOp18
 70
     1
102
RTVSPropertyOp19
 70
     1
102
RTVSPropertyOp20
 70
     1
102
RTVSPropertyOp21
 70
     1
102
RTVSPropertyOp22
 70
     1
102
RTVSPropertyOp23
 70
     1
102
RTVSPropertyOp24
 70
     1
102
RTVSPropertyOp25
 70
     1
102
RTVSPropertyOp26
 70
     1
102
RTVSPropertyOp27
 70
     1
102
RTVSPropertyOp28
 70
     1
102
RTVSPropertyOp29
 70
     1
102
RTVSPropertyOp30
 70
     1
102
RTVSPropertyOp31
 70
     1
102
RTVSPropertyOp32
 70
     1
  0
XRECORD
  5
9C
102
{ACAD_REACTORS
330
9B
102
}
330
9B
100
AcDbXrecord
280
     1
102
RTVSPropertyOp0
 70
     1
102
RTVSPropertyOp1
 70
     1
102
RTVSPropertyOp2
 70
     1
102
RTVSPropertyOp3
 70
     1
102
RTVSPropertyOp4
 70
     1
102
RTVSPropertyOp5
 70
     1
102
RTVSPropertyOp6
 70
     1
102
RTVSPropertyOp7
 70
     1
102
RTVSPropertyOp8
 70
     1
102
RTVSPropertyOp9
 70
     1
102
RTVSPropertyOp10
 70
     1
102
RTVSPropertyOp11
 70
     1
102
RTVSPropertyOp12
 70
     1
102
RTVSPropertyOp13
 70
     1
102
RTVSPropertyOp14
 70
     1
102
RTVSPropertyOp15
 70
     1
102
RTVSPropertyOp16
 70
     1
102
RTVSPropertyOp17
 70
     1
102
RTVSPropertyOp18
 70
     1
102
RTVSPropertyOp19
 70
     1
102
RTVSPropertyOp20
 70
     1
102
RTVSPropertyOp21
 70
     1
102
RTVSPropertyOp22
 70
     1
102
RTVSPropertyOp23
 70
     1
102
RTVSPropertyOp24
 70
     1
102
RTVSPropertyOp25
 70
     1
102
RTVSPropertyOp26
 70
     1
102
RTVSPropertyOp27
 70
     1
102
RTVSPropertyOp28
 70
     1
102
RTVSPropertyOp29
 70
     1
102
RTVSPropertyOp30
 70
     1
102
RTVSPropertyOp31
 70
     1
102
RTVSPropertyOp32
 70
     1
  0
ENDSEC
  0
EOF
