<?xml version="1.0" encoding="UTF-8"?>
<!DOCTYPE svg PUBLIC "-//W3C//DTD SVG 1.1//EN" "http://www.w3.org/Graphics/SVG/1.1/DTD/svg11.dtd">
<!-- Creator: CorelDRAW X6 -->
<svg xmlns="http://www.w3.org/2000/svg" xml:space="preserve" width="300mm" height="600mm" version="1.1" style="shape-rendering:geometricPrecision; text-rendering:geometricPrecision; image-rendering:optimizeQuality; fill-rule:evenodd; clip-rule:evenodd"
viewBox="0 0 30000 60000"
 xmlns:xlink="http://www.w3.org/1999/xlink">
 <defs>
  <style type="text/css">
   <![CDATA[
    .str0 {stroke:black;stroke-width:52.92;stroke-linecap:round;stroke-linejoin:round}
    .fil0 {fill:none;fill-rule:nonzero}
   ]]>
  </style>
 </defs>
 <g id="Layer_x0020_1">
  <metadata id="CorelCorpID_0Corel-Layer"/>
  <g id="_880419392">
   <path class="fil0 str0" d="M16860 20605c-1013,-1301 -1654,-2799 -2228,-4321 -323,-859 -441,-1780 -498,-2699 -7,-108 40,-256 117,-324 111,-99 228,-4 323,89 753,739 1507,1477 2259,2213 -12,-49 -26,-129 -53,-205 -520,-1427 -785,-2898 -744,-4417 26,-938 263,-1843 504,-2743 93,-349 206,-694 339,-1029 176,-441 391,-481 689,-128 586,693 1100,1438 1465,2272 126,288 177,611 243,922 220,1038 141,2075 -15,3112 -62,411 -113,823 -169,1235 30,26 61,52 91,78 25,-64 35,-142 78,-191 392,-450 782,-902 1186,-1341 741,-805 1680,-1368 2525,-2046 61,-49 187,-70 258,-41 159,65 150,217 111,359 -190,682 -345,1376 -580,2042 -393,1108 -1056,2078 -1683,3063 -87,136 -178,269 -229,442 106,-79 206,-168 318,-236 181,-111 329,-357 581,-231 242,120 195,389 197,599 8,778 40,1561 -27,2334 -238,2713 -1397,5006 -3286,6942 -129,133 -195,259 -187,435 58,1313 -164,2607 -267,3909 -50,637 -48,1278 -75,1918 -41,972 -982,19006 -1027,19978 -3,55 -1,116 -24,163 -120,243 -243,485 -376,720 -28,49 -109,100 -158,94 -48,-6 -114,-79 -125,-132 -22,-107 -20,-221 -15,-332 54,-1069 119,-2138 165,-3208 67,-1570 1011,-20202 1077,-21771 29,-680 85,-1359 119,-2040 37,-736 67,-1472 89,-2208 4,-150 -34,-303 -70,-450 -40,-161 -57,-363 -164,-462 -100,-93 -303,-80 -462,-103 -492,-71 -905,-460 -988,-938 -98,-561 161,-1042 715,-1321z"/>
   <path class="fil0 str0" d="M18947 11474c-319,294 -571,615 -809,950 -135,189 -196,383 -182,619 56,956 95,1913 142,2869 4,87 15,174 29,323 306,-629 910,-4175 821,-4761z"/>
   <path class="fil0 str0" d="M18413 25296c71,-31 91,-34 93,-42 331,-1044 662,-2088 990,-3133 16,-51 30,-113 18,-162 -124,-491 -302,-959 -622,-1376 -252,1554 -436,3106 -479,4712z"/>
   <path class="fil0 str0" d="M17609 13160c6,-176 18,-268 11,-357 -52,-595 -107,-1189 -165,-1783 -36,-368 -411,-803 -810,-942 -179,655 -152,1318 -101,1982 5,65 25,147 69,188 308,291 624,573 998,912z"/>
   <path class="fil0 str0" d="M21398 19631c-223,140 -367,249 -526,325 -271,131 -412,344 -501,625 -125,396 -286,782 -425,1174 -77,217 -141,438 -211,658 423,-153 782,-351 1138,-555 44,-25 85,-75 103,-123 240,-651 438,-1312 423,-2104z"/>
   <path class="fil0 str0" d="M19567 16118c22,26 45,51 67,77 105,-24 208,-60 314,-71 624,-65 1071,-348 1314,-956 113,-283 318,-530 482,-793 -20,-28 -40,-55 -59,-83 -353,105 -707,206 -1058,318 -60,19 -119,74 -155,128 -305,458 -605,920 -906,1380z"/>
   <path class="fil0 str0" d="M15446 16646c-24,27 -49,54 -73,81 231,500 460,1000 695,1497 28,58 81,123 138,146 351,142 706,273 1060,407 23,-24 45,-47 68,-71 -251,-502 -500,-1006 -757,-1506 -29,-56 -93,-106 -152,-132 -325,-145 -653,-283 -980,-423z"/>
   <path class="fil0 str0" d="M18832 9906c-85,25 -122,24 -134,41 -275,381 -550,762 -818,1147 -37,53 -64,128 -59,190 21,240 56,478 86,717 29,9 58,19 87,28 301,-406 608,-807 897,-1221 56,-80 67,-212 56,-315 -20,-190 -72,-376 -116,-588z"/>
   <path class="fil0 str0" d="M19508 19009c-210,313 -432,563 -365,855 115,505 309,992 596,1507 108,-279 196,-494 273,-712 21,-61 30,-141 10,-200 -157,-458 -323,-913 -514,-1449z"/>
   <path class="fil0 str0" d="M22688 12368c-28,-17 -57,-35 -85,-52 -524,572 -1048,1144 -1572,1716 14,24 27,49 41,73 252,-58 502,-126 756,-172 170,-30 276,-123 338,-272 177,-430 349,-862 523,-1293z"/>
   <path class="fil0 str0" d="M16044 16514c23,-20 47,-41 70,-61 -446,-613 -893,-1227 -1339,-1840 -25,280 11,524 72,763 205,810 208,810 1002,1082 64,22 131,38 196,56z"/>
   <path class="fil0 str0" d="M17507 7602c-35,13 -71,26 -106,40 102,665 203,1330 305,1995 213,-230 363,-462 476,-711 44,-96 48,-256 -4,-341 -207,-338 -444,-657 -670,-983z"/>
   <path class="fil0 str0" d="M17732 21844c5,-315 -259,-565 -621,-590 -188,-13 -427,281 -432,529 -5,275 243,474 610,491 261,12 438,-161 443,-429z"/>
   <path class="fil0 str0" d="M17751 16270c-4,-351 -3,-702 -12,-1052 -12,-452 -330,-856 -850,-1055 218,745 418,1466 862,2107z"/>
   <path class="fil0 str0" d="M21332 17203c-27,-20 -53,-40 -80,-60 -286,256 -575,509 -856,770 -57,53 -123,138 -121,206 10,334 76,656 260,980 278,-662 537,-1279 796,-1896z"/>
   <path class="fil0 str0" d="M18781 25480c29,14 58,29 87,43 512,-565 891,-1221 1234,-1918 -298,121 -566,277 -828,441 -42,26 -71,87 -87,138 -138,431 -271,863 -406,1295z"/>
   <path class="fil0 str0" d="M19515 14820c-547,670 -972,1748 -942,2327 289,-534 572,-1091 889,-1629 131,-224 171,-424 54,-699z"/>
   <path class="fil0 str0" d="M17889 20886c-16,-943 -347,-1332 -1090,-1309 275,516 694,897 1090,1309z"/>
   <path class="fil0 str0" d="M17564 17396c-185,291 -155,486 -59,709 220,510 407,1034 609,1552 23,58 50,114 75,171 5,-852 -229,-1631 -625,-2433z"/>
   <path class="fil0 str0" d="M17109 8114c-43,14 -64,16 -66,22 -64,296 -123,592 -188,887 -100,458 10,660 500,874 -40,-607 -61,-1204 -246,-1783z"/>
   <path class="fil0 str0" d="M20070 16958c-1045,235 -1127,209 -1338,1346 471,-437 945,-787 1338,-1346z"/>
   <path class="fil0 str0" d="M17581 14205l84 -32c-22,-180 20,-414 -78,-530 -260,-311 -580,-571 -876,-852 -32,19 -64,38 -97,58 66,229 76,502 212,677 205,263 498,457 754,680z"/>
   <path class="fil0 str0" d="M20699 22323c-320,187 -570,360 -842,487 -310,145 -394,386 -402,724 208,-108 384,-218 573,-294 380,-152 593,-426 671,-917z"/>
   <path class="fil0 str0" d="M21539 17776c-386,501 -559,1072 -709,1668 196,-86 368,-193 535,-309 41,-29 85,-86 89,-133 34,-408 58,-817 86,-1226z"/>
   <path class="fil0 str0" d="M16706 16696c131,-386 140,-394 -49,-607 -294,-332 -601,-652 -906,-973 -58,-61 -135,-106 -203,-158l-18 32c382,554 764,1109 1176,1706z"/>
   <path class="fil0 str0" d="M20437 14182c451,-521 892,-1030 1333,-1540 -20,-19 -39,-38 -58,-57 -397,342 -792,687 -1192,1026 -190,160 -213,338 -83,571z"/>
   <path class="fil0 str0" d="M17723 10521c36,19 73,39 109,58 238,-336 477,-671 712,-1009 93,-133 81,-259 -98,-392 -221,466 -611,830 -723,1343z"/>
   <path class="fil0 str0" d="M19857 18469c-27,99 -98,211 -73,294 122,405 269,802 424,1249 135,-319 18,-893 -350,-1543z"/>
   <path class="fil0 str0" d="M18840 19483c155,-339 282,-619 441,-966 -476,303 -565,201 -441,966z"/>
   <path class="fil0 str0" d="M20462 16394c-411,52 -820,109 -1169,355 399,-92 826,-84 1169,-355z"/>
   <path class="fil0 str0" d="M17507 19333c-328,-238 -697,-389 -1100,-459 303,294 713,348 1100,459z"/>
   <path class="fil0 str0" d="M17164 16781c-72,224 -200,373 -14,575 76,-188 173,-339 14,-575z"/>
   <path class="fil0 str0" d="M19997 14299c-206,221 -206,221 30,548 -13,-239 -21,-394 -30,-548z"/>
  </g>
  <g id="_877364384">
   <path class="fil0 str0" d="M13140 39395c1013,1301 1654,2799 2228,4321 323,859 441,1780 498,2699 7,108 -40,256 -117,324 -111,99 -228,4 -323,-89 -753,-739 -1507,-1477 -2259,-2213 12,49 26,129 53,205 520,1427 785,2898 744,4417 -26,938 -263,1843 -504,2743 -93,349 -206,694 -339,1029 -176,441 -391,481 -689,128 -586,-693 -1100,-1438 -1465,-2272 -126,-288 -177,-611 -243,-922 -220,-1038 -141,-2075 15,-3112 62,-411 113,-823 169,-1235 -30,-26 -61,-52 -91,-78 -25,64 -35,142 -78,191 -392,450 -782,902 -1186,1341 -741,805 -1680,1368 -2525,2046 -61,49 -187,70 -258,41 -159,-65 -150,-217 -111,-359 190,-682 345,-1376 580,-2042 393,-1109 1056,-2078 1683,-3063 87,-136 178,-269 229,-442 -106,79 -206,168 -318,236 -181,111 -329,357 -581,231 -242,-120 -195,-389 -197,-599 -8,-778 -40,-1561 27,-2334 238,-2713 1397,-5006 3286,-6942 129,-133 195,-259 187,-435 -58,-1313 164,-2607 267,-3909 50,-637 48,-1278 75,-1918 41,-972 982,-19006 1027,-19978 3,-55 1,-116 24,-163 120,-243 243,-485 376,-720 28,-49 109,-100 158,-94 48,6 114,79 125,132 22,107 20,221 15,332 -54,1069 -119,2138 -165,3208 -67,1570 -1011,20202 -1077,21771 -29,680 -85,1359 -119,2040 -37,736 -67,1472 -89,2208 -4,150 34,303 70,450 40,161 57,363 164,462 100,93 303,80 462,103 492,71 905,460 988,938 98,561 -161,1042 -715,1321z"/>
   <path class="fil0 str0" d="M11053 48526c319,-294 571,-615 809,-950 135,-189 196,-383 182,-619 -56,-956 -95,-1913 -142,-2869 -4,-87 -15,-174 -29,-323 -306,629 -910,4175 -821,4761z"/>
   <path class="fil0 str0" d="M11587 34704c-71,31 -91,34 -93,42 -331,1044 -662,2088 -990,3133 -16,51 -30,113 -18,162 124,491 302,959 622,1376 252,-1554 436,-3106 479,-4712z"/>
   <path class="fil0 str0" d="M12391 46840c-6,176 -18,268 -11,357 52,595 107,1189 165,1783 36,368 411,803 810,942 179,-655 152,-1318 101,-1982 -5,-65 -25,-147 -69,-188 -308,-291 -624,-573 -998,-912z"/>
   <path class="fil0 str0" d="M8602 40369c223,-140 367,-249 526,-325 271,-131 412,-344 501,-625 125,-396 286,-782 425,-1174 77,-217 141,-438 211,-658 -423,153 -782,351 -1138,555 -44,25 -85,75 -103,123 -240,651 -438,1312 -423,2104z"/>
   <path class="fil0 str0" d="M10433 43882c-22,-26 -45,-51 -67,-77 -105,24 -208,60 -314,71 -624,65 -1071,348 -1314,956 -113,283 -318,530 -482,793 20,28 40,55 59,83 353,-105 707,-206 1058,-318 60,-19 119,-74 155,-128 305,-458 605,-920 906,-1380z"/>
   <path class="fil0 str0" d="M14554 43354c24,-27 49,-54 73,-81 -231,-500 -460,-1000 -695,-1497 -28,-58 -81,-123 -138,-146 -351,-142 -706,-273 -1060,-407 -23,24 -45,47 -68,71 251,502 500,1006 757,1506 29,56 93,106 152,132 325,145 653,283 980,423z"/>
   <path class="fil0 str0" d="M11168 50094c85,-25 122,-24 134,-41 275,-381 550,-762 818,-1147 37,-53 64,-128 59,-190 -21,-240 -56,-478 -86,-717 -29,-9 -58,-19 -87,-28 -301,406 -608,807 -897,1221 -56,80 -67,212 -56,315 20,190 72,376 116,588z"/>
   <path class="fil0 str0" d="M10492 40991c210,-313 432,-563 365,-855 -115,-505 -309,-992 -596,-1507 -108,279 -196,494 -273,712 -21,61 -30,141 -10,200 157,458 323,913 514,1449z"/>
   <path class="fil0 str0" d="M7312 47632c28,17 57,35 85,52 524,-572 1048,-1144 1572,-1716 -14,-24 -27,-49 -41,-73 -252,58 -502,126 -756,172 -170,30 -276,123 -338,272 -177,430 -349,862 -523,1293z"/>
   <path class="fil0 str0" d="M13956 43486c-23,20 -47,41 -70,61 446,613 893,1227 1339,1840 25,-280 -11,-524 -72,-763 -205,-810 -208,-810 -1002,-1082 -64,-22 -131,-38 -196,-56z"/>
   <path class="fil0 str0" d="M12493 52398c35,-13 71,-26 106,-40 -102,-665 -203,-1330 -305,-1995 -213,230 -363,462 -476,711 -44,96 -48,256 4,341 207,338 444,657 670,983z"/>
   <path class="fil0 str0" d="M12268 38156c-5,315 259,565 621,590 188,13 427,-281 432,-529 5,-275 -243,-474 -610,-491 -261,-12 -438,161 -443,429z"/>
   <path class="fil0 str0" d="M12249 43730c4,351 3,702 12,1052 12,452 330,856 850,1055 -218,-745 -418,-1466 -862,-2107z"/>
   <path class="fil0 str0" d="M8668 42797c27,20 53,40 80,60 286,-256 575,-509 856,-770 57,-53 123,-138 121,-206 -10,-334 -76,-656 -260,-980 -278,662 -537,1279 -796,1896z"/>
   <path class="fil0 str0" d="M11219 34520c-29,-14 -58,-29 -87,-43 -512,565 -891,1221 -1234,1918 298,-121 566,-277 828,-441 42,-26 71,-87 87,-138 138,-431 271,-863 406,-1295z"/>
   <path class="fil0 str0" d="M10485 45180c547,-670 972,-1748 942,-2327 -289,534 -572,1091 -889,1629 -131,224 -171,424 -54,699z"/>
   <path class="fil0 str0" d="M12111 39114c16,943 347,1332 1090,1309 -275,-516 -694,-897 -1090,-1309z"/>
   <path class="fil0 str0" d="M12436 42604c185,-291 155,-486 59,-709 -220,-510 -407,-1034 -609,-1552 -23,-58 -50,-114 -75,-171 -5,852 229,1631 625,2433z"/>
   <path class="fil0 str0" d="M12891 51886c43,-14 64,-16 66,-22 64,-296 123,-592 188,-887 100,-458 -10,-660 -500,-874 40,607 61,1204 246,1783z"/>
   <path class="fil0 str0" d="M9930 43042c1045,-235 1127,-209 1338,-1346 -471,437 -945,787 -1338,1346z"/>
   <path class="fil0 str0" d="M12419 45795l-84 32c22,180 -20,414 78,530 260,311 580,571 876,852 32,-19 64,-38 97,-58 -66,-229 -76,-502 -212,-677 -205,-263 -498,-457 -754,-680z"/>
   <path class="fil0 str0" d="M9301 37677c320,-187 570,-360 842,-487 310,-145 394,-386 402,-724 -208,108 -384,218 -573,294 -380,152 -593,426 -671,917z"/>
   <path class="fil0 str0" d="M8461 42224c386,-501 559,-1072 709,-1668 -196,86 -368,193 -535,309 -41,29 -85,86 -89,133 -34,408 -58,817 -86,1226z"/>
   <path class="fil0 str0" d="M13294 43304c-131,386 -140,394 49,607 294,332 601,652 906,973 58,61 135,106 203,158l18 -32c-382,-554 -764,-1109 -1176,-1706z"/>
   <path class="fil0 str0" d="M9563 45818c-451,521 -892,1030 -1333,1540 20,19 39,38 58,57 397,-342 792,-687 1192,-1026 190,-160 213,-338 83,-571z"/>
   <path class="fil0 str0" d="M12277 49479c-36,-19 -73,-39 -109,-58 -238,336 -477,671 -712,1009 -93,133 -81,259 98,392 221,-466 611,-830 723,-1343z"/>
   <path class="fil0 str0" d="M10143 41531c27,-99 98,-211 73,-294 -122,-405 -269,-802 -424,-1249 -135,319 -18,893 350,1543z"/>
   <path class="fil0 str0" d="M11160 40517c-155,339 -282,619 -441,966 476,-303 565,-201 441,-966z"/>
   <path class="fil0 str0" d="M9538 43606c411,-52 820,-109 1169,-355 -399,92 -826,84 -1169,355z"/>
   <path class="fil0 str0" d="M12493 40667c328,238 697,389 1100,459 -303,-294 -713,-348 -1100,-459z"/>
   <path class="fil0 str0" d="M12836 43219c72,-224 200,-373 14,-575 -76,188 -173,339 -14,575z"/>
   <path class="fil0 str0" d="M10003 45701c206,-221 206,-221 -30,-548 13,239 21,394 30,548z"/>
  </g>
 </g>
</svg>
