<?xml version="1.0" encoding="UTF-8"?>
<!DOCTYPE svg PUBLIC "-//W3C//DTD SVG 1.1//EN" "http://www.w3.org/Graphics/SVG/1.1/DTD/svg11.dtd">
<!-- Creator: CorelDRAW X6 -->
<svg xmlns="http://www.w3.org/2000/svg" xml:space="preserve" width="300mm" height="600mm" version="1.1" style="shape-rendering:geometricPrecision; text-rendering:geometricPrecision; image-rendering:optimizeQuality; fill-rule:evenodd; clip-rule:evenodd"
viewBox="0 0 30000 60000"
 xmlns:xlink="http://www.w3.org/1999/xlink">
 <defs>
  <style type="text/css">
   <![CDATA[
    .str0 {stroke:black;stroke-width:52.92;stroke-linecap:round;stroke-linejoin:round}
    .fil0 {fill:none;fill-rule:nonzero}
   ]]>
  </style>
 </defs>
 <g id="Layer_x0020_1">
  <metadata id="CorelCorpID_0Corel-Layer"/>
  <g id="_694802528">
   <path class="fil0 str0" d="M10411 10981c195,-593 455,-1128 1194,-1087 308,17 624,139 755,435 117,264 131,574 199,901 78,-48 163,-70 188,-122 48,-98 46,-221 94,-319 347,-706 957,-822 1576,-383 196,139 254,362 240,597 -8,139 -36,277 -58,442 175,23 329,44 508,68 60,-145 107,-276 166,-401 164,-347 416,-608 794,-707 407,-106 809,119 945,531 74,225 101,465 162,763 345,58 730,126 1117,187 267,43 538,66 803,118 145,29 282,99 422,150 -755,2024 -2824,4279 -6050,4755 -8,471 -16,951 -25,1528 196,-205 320,-343 453,-471 537,-513 1140,-870 1922,-781 110,12 222,32 325,71 163,62 265,176 228,368 -18,94 -31,189 -60,279 -355,1087 -1420,1923 -2560,2014 -110,9 -220,13 -360,22 -14,116 -28,220 -38,325 -151,1472 -308,2944 -450,4417 -100,1046 -194,2093 -265,3141 -147,2176 -632,12809 -760,14987 -38,651 -37,1305 -55,1957 -4,163 -69,278 -252,282 -175,4 -262,-98 -286,-259 -12,-78 -12,-159 -12,-238 -1,-302 -16,-606 3,-907 75,-1223 532,-10900 587,-12124 55,-1240 29,-2484 101,-3722 57,-968 227,-1928 317,-2895 144,-1552 264,-3106 396,-4685 -150,-33 -252,-66 -356,-77 -1030,-107 -1643,-764 -2113,-1606 -46,-82 -68,-179 -88,-272 -118,-542 146,-848 692,-781 604,75 1135,308 1538,784 102,120 204,240 391,460 -5,-682 -9,-1252 -13,-1766 -674,-400 -1284,-770 -1901,-1126 -1093,-631 -1705,-1601 -1964,-2807 -113,-528 -190,-1067 -247,-1604 -42,-397 87,-514 495,-506 428,9 855,43 1300,67z"/>
   <path class="fil0 str0" d="M12694 11618c-16,1582 -31,3099 -47,4671 319,25 605,48 951,75 -8,-1591 -16,-3106 -23,-4639 -300,-37 -548,-67 -881,-107z"/>
   <path class="fil0 str0" d="M14870 16037c-11,-1414 -22,-2773 -33,-4163 -261,-33 -488,-61 -771,-96 108,1514 -55,2977 23,4497 286,-87 508,-154 780,-237z"/>
   <path class="fil0 str0" d="M12199 11615c-226,-47 -415,-86 -684,-141 -25,1435 -49,2793 -73,4159 259,150 483,280 774,448 -6,-1529 -11,-2968 -17,-4466z"/>
   <path class="fil0 str0" d="M15340 15811c115,-56 222,-118 336,-162 315,-122 402,-351 384,-675 -26,-476 -6,-954 -19,-1431 -15,-519 -46,-1038 -71,-1566 -158,-18 -267,-33 -376,-41 -76,-6 -153,-4 -224,-5 -128,522 -152,3406 -30,3881z"/>
   <path class="fil0 str0" d="M10975 15291c8,-1357 16,-2587 23,-3851 -226,-22 -440,-42 -633,-60 -32,58 -47,72 -47,86 -20,1000 -40,2000 -53,3000 -1,69 44,154 94,207 171,184 354,358 616,619z"/>
   <path class="fil0 str0" d="M16552 12015c-1,1030 -2,1989 -4,3002 265,-150 475,-268 492,-511 54,-789 82,-1580 122,-2408 -200,-27 -368,-50 -610,-82z"/>
   <path class="fil0 str0" d="M9696 13852c35,-7 70,-14 105,-21 -20,-822 -40,-1643 -61,-2500 -241,-11 -420,-20 -646,-31 102,917 92,1797 601,2552z"/>
   <path class="fil0 str0" d="M13749 19463c972,-32 1838,-689 2027,-1509 -748,440 -1407,948 -2027,1509z"/>
   <path class="fil0 str0" d="M17494 14027c35,17 70,33 106,50 130,-189 336,-363 375,-569 78,-410 64,-838 89,-1281 -182,-21 -317,-36 -499,-56 -25,639 -48,1248 -72,1857z"/>
   <path class="fil0 str0" d="M12331 19722c-626,-600 -1199,-1151 -1834,-1759 106,892 916,1650 1834,1759z"/>
   <path class="fil0 str0" d="M13718 18783l61 85c575,-412 1150,-823 1725,-1235 -841,42 -1367,522 -1786,1150z"/>
   <path class="fil0 str0" d="M15729 11553c247,21 489,42 725,62 123,-496 86,-641 -162,-710 -261,-73 -464,148 -563,647z"/>
   <path class="fil0 str0" d="M11058 11044c264,25 523,49 784,74 32,-504 -37,-651 -293,-685 -263,-35 -395,120 -491,611z"/>
   <path class="fil0 str0" d="M11187 17952c132,335 1012,1179 1396,1323 -335,-607 -701,-1128 -1396,-1323z"/>
   <path class="fil0 str0" d="M14031 10735c-492,16 -602,103 -738,572 231,21 452,41 716,64 9,-249 15,-441 22,-636z"/>
   <path class="fil0 str0" d="M18882 12365c-163,-20 -262,-32 -388,-47 -4,199 -8,367 -11,535 32,6 63,11 95,17 92,-153 184,-305 304,-505z"/>
  </g>
  <g id="_695178016">
   <path class="fil0 str0" d="M19589 49019c-195,593 -455,1128 -1194,1087 -308,-17 -624,-139 -755,-435 -117,-264 -131,-574 -199,-901 -78,48 -163,70 -188,122 -48,98 -46,221 -94,319 -347,706 -957,822 -1576,383 -196,-139 -254,-362 -240,-597 8,-139 36,-277 58,-442 -175,-23 -329,-44 -508,-68 -60,145 -107,276 -166,401 -164,347 -416,608 -794,707 -407,106 -809,-119 -945,-531 -74,-225 -101,-465 -162,-763 -345,-58 -730,-126 -1117,-187 -267,-43 -538,-66 -803,-118 -145,-29 -282,-99 -422,-150 755,-2024 2824,-4279 6050,-4755 8,-471 16,-951 25,-1528 -196,205 -320,343 -453,471 -537,513 -1140,870 -1922,781 -110,-12 -222,-32 -325,-71 -163,-62 -265,-176 -228,-368 18,-94 31,-189 60,-279 355,-1087 1420,-1923 2560,-2014 110,-9 220,-13 360,-22 14,-116 28,-220 38,-325 151,-1472 308,-2944 450,-4417 100,-1046 194,-2093 265,-3141 147,-2176 632,-12809 760,-14987 38,-651 37,-1305 55,-1957 4,-163 69,-278 252,-282 175,-4 262,98 286,259 12,78 12,159 12,238 1,302 16,606 -3,907 -75,1223 -532,10900 -587,12124 -55,1240 -29,2484 -101,3722 -57,968 -227,1928 -317,2895 -144,1552 -264,3106 -396,4685 150,33 252,66 356,77 1030,107 1643,764 2113,1606 46,82 68,179 88,272 118,542 -146,848 -692,781 -604,-75 -1135,-308 -1538,-784 -102,-120 -204,-240 -391,-460 5,682 9,1252 13,1766 674,400 1284,770 1901,1126 1093,631 1705,1601 1964,2807 113,528 190,1067 247,1604 42,397 -87,514 -495,506 -428,-9 -855,-43 -1300,-67z"/>
   <path class="fil0 str0" d="M17306 48382c16,-1582 31,-3099 47,-4671 -319,-25 -605,-48 -951,-75 8,1591 16,3106 23,4639 300,37 548,67 881,107z"/>
   <path class="fil0 str0" d="M15130 43963c11,1414 22,2773 33,4163 261,33 488,61 771,96 -108,-1514 55,-2977 -23,-4497 -286,87 -508,154 -780,237z"/>
   <path class="fil0 str0" d="M17801 48385c226,47 415,86 684,141 25,-1435 49,-2793 73,-4159 -259,-150 -483,-280 -774,-448 6,1529 11,2968 17,4466z"/>
   <path class="fil0 str0" d="M14660 44189c-115,56 -222,118 -336,162 -315,122 -402,351 -384,675 26,476 6,954 19,1431 15,519 46,1038 71,1566 158,18 267,33 376,41 76,6 153,4 224,5 128,-522 152,-3406 30,-3881z"/>
   <path class="fil0 str0" d="M19025 44709c-8,1357 -16,2587 -23,3851 226,22 440,42 633,60 32,-58 47,-72 47,-86 20,-1000 40,-2000 53,-3000 1,-69 -44,-154 -94,-207 -171,-184 -354,-358 -616,-619z"/>
   <path class="fil0 str0" d="M13448 47985c1,-1030 2,-1989 4,-3002 -265,150 -475,268 -492,511 -54,789 -82,1580 -122,2408 200,27 368,50 610,82z"/>
   <path class="fil0 str0" d="M20304 46148c-35,7 -70,14 -105,21 20,822 40,1643 61,2500 241,11 420,20 646,31 -102,-917 -92,-1797 -601,-2552z"/>
   <path class="fil0 str0" d="M16251 40537c-972,32 -1838,689 -2027,1509 748,-440 1407,-948 2027,-1509z"/>
   <path class="fil0 str0" d="M12506 45973c-35,-17 -70,-33 -106,-50 -130,189 -336,363 -375,569 -78,410 -64,838 -89,1281 182,21 317,36 499,56 25,-639 48,-1248 72,-1857z"/>
   <path class="fil0 str0" d="M17669 40278c626,600 1199,1151 1834,1759 -106,-892 -916,-1650 -1834,-1759z"/>
   <path class="fil0 str0" d="M16282 41217l-61 -85c-575,412 -1150,823 -1725,1235 841,-42 1367,-522 1786,-1150z"/>
   <path class="fil0 str0" d="M14271 48447c-247,-21 -489,-42 -725,-62 -123,496 -86,641 162,710 261,73 464,-148 563,-647z"/>
   <path class="fil0 str0" d="M18942 48956c-264,-25 -523,-49 -784,-74 -32,504 37,651 293,685 263,35 395,-120 491,-611z"/>
   <path class="fil0 str0" d="M18813 42048c-132,-335 -1012,-1179 -1396,-1323 335,607 701,1128 1396,1323z"/>
   <path class="fil0 str0" d="M15969 49265c492,-16 602,-103 738,-572 -231,-21 -452,-41 -716,-64 -9,249 -15,441 -22,636z"/>
   <path class="fil0 str0" d="M11118 47635c163,20 262,32 388,47 4,-199 8,-367 11,-535 -32,-6 -63,-11 -95,-17 -92,153 -184,305 -304,505z"/>
  </g>
 </g>
</svg>
