  0
SECTION
  2
HEADER
  9
$ACADVER
  1
AC1021
  9
$ACADMAINTVER
 70
    25
  9
$DWGCODEPAGE
  3
ANSI_1252
  9
$INSBASE
 10
0.0
 20
0.0
 30
0.0
  9
$EXTMIN
 10
-6.41841
 20
-20.13468
 30
0.0
  9
$EXTMAX
 10
6.41841
 20
20.13468
 30
0.0
  9
$LIMMIN
 10
0.0
 20
0.0
  9
$LIMMAX
 10
12.0
 20
9.0
  9
$ORTHOMODE
 70
     0
  9
$REGENMODE
 70
     1
  9
$FILLMODE
 70
     1
  9
$QTEXTMODE
 70
     0
  9
$MIRRTEXT
 70
     1
  9
$LTSCALE
 40
1.0
  9
$ATTMODE
 70
     1
  9
$TEXTSIZE
 40
0.2
  9
$TRACEWID
 40
0.05
  9
$TEXTSTYLE
  7
Standard
  9
$CLAYER
  8
0
  9
$CELTYPE
  6
ByLayer
  9
$CECOLOR
 62
   256
  9
$CELTSCALE
 40
1.0
  9
$DISPSILH
 70
     0
  9
$DIMSCALE
 40
1.0
  9
$DIMASZ
 40
0.18
  9
$DIMEXO
 40
0.0625
  9
$DIMDLI
 40
0.38
  9
$DIMRND
 40
0.0
  9
$DIMDLE
 40
0.0
  9
$DIMEXE
 40
0.18
  9
$DIMTP
 40
0.0
  9
$DIMTM
 40
0.0
  9
$DIMTXT
 40
0.18
  9
$DIMCEN
 40
0.09
  9
$DIMTSZ
 40
0.0
  9
$DIMTOL
 70
     0
  9
$DIMLIM
 70
     0
  9
$DIMTIH
 70
     1
  9
$DIMTOH
 70
     1
  9
$DIMSE1
 70
     0
  9
$DIMSE2
 70
     0
  9
$DIMTAD
 70
     0
  9
$DIMZIN
 70
     0
  9
$DIMBLK
  1

  9
$DIMASO
 70
     1
  9
$DIMSHO
 70
     1
  9
$DIMPOST
  1

  9
$DIMAPOST
  1

  9
$DIMALT
 70
     0
  9
$DIMALTD
 70
     2
  9
$DIMALTF
 40
25.4
  9
$DIMLFAC
 40
1.0
  9
$DIMTOFL
 70
     0
  9
$DIMTVP
 40
0.0
  9
$DIMTIX
 70
     0
  9
$DIMSOXD
 70
     0
  9
$DIMSAH
 70
     0
  9
$DIMBLK1
  1

  9
$DIMBLK2
  1

  9
$DIMSTYLE
  2
Standard
  9
$DIMCLRD
 70
     0
  9
$DIMCLRE
 70
     0
  9
$DIMCLRT
 70
     0
  9
$DIMTFAC
 40
1.0
  9
$DIMGAP
 40
0.09
  9
$DIMJUST
 70
     0
  9
$DIMSD1
 70
     0
  9
$DIMSD2
 70
     0
  9
$DIMTOLJ
 70
     1
  9
$DIMTZIN
 70
     0
  9
$DIMALTZ
 70
     0
  9
$DIMALTTZ
 70
     0
  9
$DIMUPT
 70
     0
  9
$DIMDEC
 70
     4
  9
$DIMTDEC
 70
     4
  9
$DIMALTU
 70
     2
  9
$DIMALTTD
 70
     2
  9
$DIMTXSTY
  7
Standard
  9
$DIMAUNIT
 70
     0
  9
$DIMADEC
 70
     0
  9
$DIMALTRND
 40
0.0
  9
$DIMAZIN
 70
     0
  9
$DIMDSEP
 70
    46
  9
$DIMATFIT
 70
     3
  9
$DIMFRAC
 70
     0
  9
$DIMLDRBLK
  1

  9
$DIMLUNIT
 70
     2
  9
$DIMLWD
 70
    -2
  9
$DIMLWE
 70
    -2
  9
$DIMTMOVE
 70
     0
  9
$DIMFXL
 40
1.0
  9
$DIMFXLON
 70
     0
  9
$DIMJOGANG
 40
0.7853981633974483
  9
$DIMTFILL
 70
     0
  9
$DIMTFILLCLR
 70
     0
  9
$DIMARCSYM
 70
     0
  9
$DIMLTYPE
  6

  9
$DIMLTEX1
  6

  9
$DIMLTEX2
  6

  9
$LUNITS
 70
     2
  9
$LUPREC
 70
     4
  9
$SKETCHINC
 40
0.1
  9
$FILLETRAD
 40
0.5
  9
$AUNITS
 70
     0
  9
$AUPREC
 70
     0
  9
$MENU
  1
.
  9
$ELEVATION
 40
0.0
  9
$PELEVATION
 40
0.0
  9
$THICKNESS
 40
0.0
  9
$LIMCHECK
 70
     0
  9
$CHAMFERA
 40
0.5
  9
$CHAMFERB
 40
0.5
  9
$CHAMFERC
 40
1.0
  9
$CHAMFERD
 40
0.0
  9
$SKPOLY
 70
     0
  9
$TDCREATE
 40
2460269.448458322
  9
$TDUCREATE
 40
2460269.448458322
  9
$TDUPDATE
 40
2460269.448458356
  9
$TDUUPDATE
 40
2460269.448458356
  9
$TDINDWG
 40
0.0000000116
  9
$TDUSRTIMER
 40
0.0000000116
  9
$USRTIMER
 70
     1
  9
$ANGBASE
 50
0.0
  9
$ANGDIR
 70
     0
  9
$PDMODE
 70
     0
  9
$PDSIZE
 40
0.0
  9
$PLINEWID
 40
0.0
  9
$SPLFRAME
 70
     0
  9
$SPLINETYPE
 70
     6
  9
$SPLINESEGS
 70
     8
  9
$HANDSEED
  5
85
  9
$SURFTAB1
 70
     6
  9
$SURFTAB2
 70
     6
  9
$SURFTYPE
 70
     6
  9
$SURFU
 70
     6
  9
$SURFV
 70
     6
  9
$UCSBASE
  2

  9
$UCSNAME
  2

  9
$UCSORG
 10
0.0
 20
0.0
 30
0.0
  9
$UCSXDIR
 10
1.0
 20
0.0
 30
0.0
  9
$UCSYDIR
 10
0.0
 20
1.0
 30
0.0
  9
$UCSORTHOREF
  2

  9
$UCSORTHOVIEW
 70
     0
  9
$UCSORGTOP
 10
0.0
 20
0.0
 30
0.0
  9
$UCSORGBOTTOM
 10
0.0
 20
0.0
 30
0.0
  9
$UCSORGLEFT
 10
0.0
 20
0.0
 30
0.0
  9
$UCSORGRIGHT
 10
0.0
 20
0.0
 30
0.0
  9
$UCSORGFRONT
 10
0.0
 20
0.0
 30
0.0
  9
$UCSORGBACK
 10
0.0
 20
0.0
 30
0.0
  9
$PUCSBASE
  2

  9
$PUCSNAME
  2

  9
$PUCSORG
 10
0.0
 20
0.0
 30
0.0
  9
$PUCSXDIR
 10
1.0
 20
0.0
 30
0.0
  9
$PUCSYDIR
 10
0.0
 20
1.0
 30
0.0
  9
$PUCSORTHOREF
  2

  9
$PUCSORTHOVIEW
 70
     0
  9
$PUCSORGTOP
 10
0.0
 20
0.0
 30
0.0
  9
$PUCSORGBOTTOM
 10
0.0
 20
0.0
 30
0.0
  9
$PUCSORGLEFT
 10
0.0
 20
0.0
 30
0.0
  9
$PUCSORGRIGHT
 10
0.0
 20
0.0
 30
0.0
  9
$PUCSORGFRONT
 10
0.0
 20
0.0
 30
0.0
  9
$PUCSORGBACK
 10
0.0
 20
0.0
 30
0.0
  9
$USERI1
 70
     0
  9
$USERI2
 70
     0
  9
$USERI3
 70
     0
  9
$USERI4
 70
     0
  9
$USERI5
 70
     0
  9
$USERR1
 40
0.0
  9
$USERR2
 40
0.0
  9
$USERR3
 40
0.0
  9
$USERR4
 40
0.0
  9
$USERR5
 40
0.0
  9
$WORLDVIEW
 70
     1
  9
$SHADEDGE
 70
     3
  9
$SHADEDIF
 70
    70
  9
$TILEMODE
 70
     1
  9
$MAXACTVP
 70
    64
  9
$PINSBASE
 10
0.0
 20
0.0
 30
0.0
  9
$PLIMCHECK
 70
     0
  9
$PEXTMIN
 10
1.000000000000000E+20
 20
1.000000000000000E+20
 30
1.000000000000000E+20
  9
$PEXTMAX
 10
-1.000000000000000E+20
 20
-1.000000000000000E+20
 30
-1.000000000000000E+20
  9
$PLIMMIN
 10
0.0
 20
0.0
  9
$PLIMMAX
 10
12.0
 20
9.0
  9
$UNITMODE
 70
     0
  9
$VISRETAIN
 70
     1
  9
$PLINEGEN
 70
     0
  9
$PSLTSCALE
 70
     1
  9
$TREEDEPTH
 70
  3020
  9
$CMLSTYLE
  2
Standard
  9
$CMLJUST
 70
     0
  9
$CMLSCALE
 40
1.0
  9
$PROXYGRAPHICS
 70
     1
  9
$MEASUREMENT
 70
     0
  9
$CELWEIGHT
370
    -1
  9
$ENDCAPS
280
     0
  9
$JOINSTYLE
280
     0
  9
$LWDISPLAY
290
     0
  9
$INSUNITS
 70
     5
  9
$HYPERLINKBASE
  1

  9
$STYLESHEET
  1

  9
$XEDIT
290
     1
  9
$CEPSNTYPE
380
     0
  9
$PSTYLEMODE
290
     1
  9
$FINGERPRINTGUID
  2
{4673EFD1-3F5A-4D6E-B826-9F59C293F6E5}
  9
$VERSIONGUID
  2
{FAEB1C32-E019-11D5-929B-00C0DF256EC4}
  9
$EXTNAMES
290
     1
  9
$PSVPSCALE
 40
0.0
  9
$OLESTARTUP
290
     0
  9
$SORTENTS
280
   127
  9
$INDEXCTL
280
     0
  9
$HIDETEXT
280
     1
  9
$XCLIPFRAME
290
     0
  9
$HALOGAP
280
     0
  9
$OBSCOLOR
 70
   257
  9
$OBSLTYPE
280
     0
  9
$INTERSECTIONDISPLAY
280
     0
  9
$INTERSECTIONCOLOR
 70
   257
  9
$DIMASSOC
280
     2
  9
$PROJECTNAME
  1

  9
$CAMERADISPLAY
290
     0
  9
$LENSLENGTH
 40
50.0
  9
$CAMERAHEIGHT
 40
0.0
  9
$STEPSPERSEC
 40
2.0
  9
$STEPSIZE
 40
6.0
  9
$3DDWFPREC
 40
2.0
  9
$PSOLWIDTH
 40
0.25
  9
$PSOLHEIGHT
 40
4.0
  9
$LOFTANG1
 40
1.570796326794897
  9
$LOFTANG2
 40
1.570796326794897
  9
$LOFTMAG1
 40
0.0
  9
$LOFTMAG2
 40
0.0
  9
$LOFTPARAM
 70
     7
  9
$LOFTNORMALS
280
     1
  9
$LATITUDE
 40
37.795
  9
$LONGITUDE
 40
-122.394
  9
$NORTHDIRECTION
 40
0.0
  9
$TIMEZONE
 70
 -8000
  9
$LIGHTGLYPHDISPLAY
280
     1
  9
$TILEMODELIGHTSYNCH
280
     1
  9
$SOLIDHIST
280
     1
  9
$SHOWHIST
280
     1
  9
$DWFFRAME
280
     2
  9
$DGNFRAME
280
     2
  9
$REALWORLDSCALE
290
     1
  9
$INTERFERECOLOR
 62
   256
  9
$CSHADOW
280
     0
  9
$SHADOWPLANELOCATION
 40
0.0
  0
ENDSEC
  0
SECTION
  2
CLASSES
  0
CLASS
  1
ACDBDICTIONARYWDFLT
  2
AcDbDictionaryWithDefault
  3
ObjectDBX Classes
 90
        0
 91
        4
280
     0
281
     0
  0
CLASS
  1
VISUALSTYLE
  2
AcDbVisualStyle
  3
ObjectDBX Classes
 90
     4095
 91
        4
280
     0
281
     0
  0
CLASS
  1
MATERIAL
  2
AcDbMaterial
  3
ObjectDBX Classes
 90
     1153
 91
        4
280
     0
281
     0
  0
ENDSEC
  0
SECTION
  2
TABLES
  0
TABLE
  2
VPORT
  5
8
330
0
100
AcDbSymbolTable
 70
     1
  0
VPORT
  5
29
330
8
100
AcDbSymbolTableRecord
100
AcDbViewportTableRecord
  2
*Active
 70
     0
 10
0.0
 20
0.0
 11
1.0
 21
1.0
 12
10.42990654205607
 22
4.5
 13
0.0
 23
0.0
 14
0.5
 24
0.5
 15
0.5
 25
0.5
 16
0.0
 26
0.0
 36
1.0
 17
0.0
 27
0.0
 37
0.0
 40
9.0
 41
1.972972972850329
 42
50.0
 43
0.0
 44
0.0
 50
0.0
 51
0.0
 71
     0
 72
   100
 73
     1
 74
     3
 75
     0
 76
     0
 77
     0
 78
     0
281
     0
 65
     1
110
0.0
120
0.0
130
0.0
111
1.0
121
0.0
131
0.0
112
0.0
122
1.0
132
0.0
 79
     0
146
0.0
 60
     3
 61
     5
292
     1
282
     1
141
0.0
142
0.0
 63
   250
  0
ENDTAB
  0
TABLE
  2
LTYPE
  5
5
330
0
100
AcDbSymbolTable
 70
     1
  0
LTYPE
  5
14
330
5
100
AcDbSymbolTableRecord
100
AcDbLinetypeTableRecord
  2
ByBlock
 70
     0
  3

 72
    65
 73
     0
 40
0.0
  0
LTYPE
  5
15
330
5
100
AcDbSymbolTableRecord
100
AcDbLinetypeTableRecord
  2
ByLayer
 70
     0
  3

 72
    65
 73
     0
 40
0.0
  0
LTYPE
  5
16
330
5
100
AcDbSymbolTableRecord
100
AcDbLinetypeTableRecord
  2
Continuous
 70
     0
  3
Solid line
 72
    65
 73
     0
 40
0.0
  0
ENDTAB
  0
TABLE
  2
LAYER
  5
2
330
0
100
AcDbSymbolTable
 70
     2
  0
LAYER
  5
10
330
2
100
AcDbSymbolTableRecord
100
AcDbLayerTableRecord
  2
0
 70
     0
 62
     7
  6
Continuous
370
    -3
390
F
347
3E
  0
LAYER
  5
40
330
2
100
AcDbSymbolTableRecord
100
AcDbLayerTableRecord
  2
Layer 1
 70
     0
 62
     7
  6
Continuous
370
    -3
390
F
347
3E
  0
ENDTAB
  0
TABLE
  2
STYLE
  5
3
330
0
100
AcDbSymbolTable
 70
     1
  0
STYLE
  5
11
330
3
100
AcDbSymbolTableRecord
100
AcDbTextStyleTableRecord
  2
Standard
 70
     0
 40
0.0
 41
1.0
 50
0.0
 71
     0
 42
0.2
  3
txt
  4

  0
ENDTAB
  0
TABLE
  2
VIEW
  5
6
330
0
100
AcDbSymbolTable
 70
     0
  0
ENDTAB
  0
TABLE
  2
UCS
  5
7
330
0
100
AcDbSymbolTable
 70
     0
  0
ENDTAB
  0
TABLE
  2
APPID
  5
9
330
0
100
AcDbSymbolTable
 70
     2
  0
APPID
  5
12
330
9
100
AcDbSymbolTableRecord
100
AcDbRegAppTableRecord
  2
ACAD
 70
     0
  0
APPID
  5
3F
330
9
100
AcDbSymbolTableRecord
100
AcDbRegAppTableRecord
  2
ODA
 70
     0
  0
ENDTAB
  0
TABLE
  2
DIMSTYLE
  5
A
330
0
100
AcDbSymbolTable
 70
     1
100
AcDbDimStyleTable
  0
DIMSTYLE
105
27
330
A
100
AcDbSymbolTableRecord
100
AcDbDimStyleTableRecord
  2
Standard
 70
     0
178
     0
340
11
  0
ENDTAB
  0
TABLE
  2
BLOCK_RECORD
  5
1
330
0
100
AcDbSymbolTable
 70
     1
  0
BLOCK_RECORD
  5
1F
330
1
100
AcDbSymbolTableRecord
100
AcDbBlockTableRecord
  2
*Model_Space
340
22
 70
     0
280
     1
281
     0
  0
BLOCK_RECORD
  5
1B
330
1
100
AcDbSymbolTableRecord
100
AcDbBlockTableRecord
  2
*Paper_Space
340
1E
 70
     0
280
     1
281
     0
  0
BLOCK_RECORD
  5
23
330
1
100
AcDbSymbolTableRecord
100
AcDbBlockTableRecord
  2
*Paper_Space0
340
26
 70
     0
280
     1
281
     0
  0
ENDTAB
  0
ENDSEC
  0
SECTION
  2
BLOCKS
  0
BLOCK
  5
20
330
1F
100
AcDbEntity
  8
0
100
AcDbBlockBegin
  2
*Model_Space
 70
     0
 10
0.0
 20
0.0
 30
0.0
  3
*Model_Space
  1

  0
ENDBLK
  5
21
330
1F
100
AcDbEntity
  8
0
100
AcDbBlockEnd
  0
BLOCK
  5
1C
330
1B
100
AcDbEntity
 67
     1
  8
0
100
AcDbBlockBegin
  2
*Paper_Space
 70
     0
 10
0.0
 20
0.0
 30
0.0
  3
*Paper_Space
  1

  0
ENDBLK
  5
1D
330
1B
100
AcDbEntity
 67
     1
  8
0
100
AcDbBlockEnd
  0
BLOCK
  5
24
330
23
100
AcDbEntity
  8
0
100
AcDbBlockBegin
  2
*Paper_Space0
 70
     0
 10
0.0
 20
0.0
 30
0.0
  3
*Paper_Space0
  1

  0
ENDBLK
  5
25
330
23
100
AcDbEntity
  8
0
100
AcDbBlockEnd
  0
ENDSEC
  0
SECTION
  2
ENTITIES
  0
SPLINE
  5
41
330
1F
100
AcDbEntity
  8
Layer 1
370
    53
100
AcDbSpline
210
0.0
220
0.0
230
1.0
 70
    11
 71
     3
 72
   204
 73
   200
 74
     0
 42
0.0000000001
 43
0.0000000001
 12
1.0
 22
0.0
 32
0.0
 13
1.0
 23
0.0
 33
0.0
 40
0.0
 40
0.0
 40
0.0
 40
0.0
 40
0.0196078431372549
 40
0.0196078431372549
 40
0.0196078431372549
 40
0.0196078431372549
 40
0.0392156862745098
 40
0.0392156862745098
 40
0.0392156862745098
 40
0.0392156862745098
 40
0.0588235294117647
 40
0.0588235294117647
 40
0.0588235294117647
 40
0.0588235294117647
 40
0.0784313725490196
 40
0.0784313725490196
 40
0.0784313725490196
 40
0.0784313725490196
 40
0.0980392156862745
 40
0.0980392156862745
 40
0.0980392156862745
 40
0.0980392156862745
 40
0.1176470588235294
 40
0.1176470588235294
 40
0.1176470588235294
 40
0.1176470588235294
 40
0.1372549019607843
 40
0.1372549019607843
 40
0.1372549019607843
 40
0.1372549019607843
 40
0.1568627450980392
 40
0.1568627450980392
 40
0.1568627450980392
 40
0.1568627450980392
 40
0.1764705882352941
 40
0.1764705882352941
 40
0.1764705882352941
 40
0.1764705882352941
 40
0.196078431372549
 40
0.196078431372549
 40
0.196078431372549
 40
0.196078431372549
 40
0.2156862745098039
 40
0.2156862745098039
 40
0.2156862745098039
 40
0.2156862745098039
 40
0.2352941176470588
 40
0.2352941176470588
 40
0.2352941176470588
 40
0.2352941176470588
 40
0.2549019607843137
 40
0.2549019607843137
 40
0.2549019607843137
 40
0.2549019607843137
 40
0.2745098039215687
 40
0.2745098039215687
 40
0.2745098039215687
 40
0.2745098039215687
 40
0.2941176470588235
 40
0.2941176470588235
 40
0.2941176470588235
 40
0.2941176470588235
 40
0.3137254901960784
 40
0.3137254901960784
 40
0.3137254901960784
 40
0.3137254901960784
 40
0.3333333333333333
 40
0.3333333333333333
 40
0.3333333333333333
 40
0.3333333333333333
 40
0.3529411764705883
 40
0.3529411764705883
 40
0.3529411764705883
 40
0.3529411764705883
 40
0.3725490196078431
 40
0.3725490196078431
 40
0.3725490196078431
 40
0.3725490196078431
 40
0.392156862745098
 40
0.392156862745098
 40
0.392156862745098
 40
0.392156862745098
 40
0.4117647058823529
 40
0.4117647058823529
 40
0.4117647058823529
 40
0.4117647058823529
 40
0.4313725490196079
 40
0.4313725490196079
 40
0.4313725490196079
 40
0.4313725490196079
 40
0.4509803921568628
 40
0.4509803921568628
 40
0.4509803921568628
 40
0.4509803921568628
 40
0.4705882352941176
 40
0.4705882352941176
 40
0.4705882352941176
 40
0.4705882352941176
 40
0.4901960784313725
 40
0.4901960784313725
 40
0.4901960784313725
 40
0.4901960784313725
 40
0.5098039215686274
 40
0.5098039215686274
 40
0.5098039215686274
 40
0.5098039215686274
 40
0.5294117647058824
 40
0.5294117647058824
 40
0.5294117647058824
 40
0.5294117647058824
 40
0.5490196078431373
 40
0.5490196078431373
 40
0.5490196078431373
 40
0.5490196078431373
 40
0.5686274509803921
 40
0.5686274509803921
 40
0.5686274509803921
 40
0.5686274509803921
 40
0.5882352941176471
 40
0.5882352941176471
 40
0.5882352941176471
 40
0.5882352941176471
 40
0.6078431372549019
 40
0.6078431372549019
 40
0.6078431372549019
 40
0.6078431372549019
 40
0.6274509803921569
 40
0.6274509803921569
 40
0.6274509803921569
 40
0.6274509803921569
 40
0.6470588235294118
 40
0.6470588235294118
 40
0.6470588235294118
 40
0.6470588235294118
 40
0.6666666666666666
 40
0.6666666666666666
 40
0.6666666666666666
 40
0.6666666666666666
 40
0.6862745098039216
 40
0.6862745098039216
 40
0.6862745098039216
 40
0.6862745098039216
 40
0.7058823529411765
 40
0.7058823529411765
 40
0.7058823529411765
 40
0.7058823529411765
 40
0.7254901960784313
 40
0.7254901960784313
 40
0.7254901960784313
 40
0.7254901960784313
 40
0.7450980392156863
 40
0.7450980392156863
 40
0.7450980392156863
 40
0.7450980392156863
 40
0.7647058823529411
 40
0.7647058823529411
 40
0.7647058823529411
 40
0.7647058823529411
 40
0.7843137254901961
 40
0.7843137254901961
 40
0.7843137254901961
 40
0.7843137254901961
 40
0.803921568627451
 40
0.803921568627451
 40
0.803921568627451
 40
0.803921568627451
 40
0.8235294117647058
 40
0.8235294117647058
 40
0.8235294117647058
 40
0.8235294117647058
 40
0.8431372549019608
 40
0.8431372549019608
 40
0.8431372549019608
 40
0.8431372549019608
 40
0.8627450980392157
 40
0.8627450980392157
 40
0.8627450980392157
 40
0.8627450980392157
 40
0.8823529411764706
 40
0.8823529411764706
 40
0.8823529411764706
 40
0.8823529411764706
 40
0.9019607843137255
 40
0.9019607843137255
 40
0.9019607843137255
 40
0.9019607843137255
 40
0.9215686274509803
 40
0.9215686274509803
 40
0.9215686274509803
 40
0.9215686274509803
 40
0.9411764705882353
 40
0.9411764705882353
 40
0.9411764705882353
 40
0.9411764705882353
 40
0.9607843137254902
 40
0.9607843137254902
 40
0.9607843137254902
 40
0.9607843137254902
 40
1.0
 40
1.0
 40
1.0
 40
1.0
 10
-4.58933
 20
19.0187
 30
0.0
 10
-4.39421
 20
19.61182
 30
0.0
 10
-4.134
 20
20.14685
 30
0.0
 10
-3.39511
 20
20.10607
 30
0.0
 10
-3.39511
 20
20.10607
 30
0.0
 10
-3.08699
 20
20.08906
 30
0.0
 10
-2.7709
 20
19.96704
 30
0.0
 10
-2.64023
 20
19.67099
 30
0.0
 10
-2.64023
 20
19.67099
 30
0.0
 10
-2.52357
 20
19.40672
 30
0.0
 10
-2.509
 20
19.09733
 30
0.0
 10
-2.44166
 20
18.77024
 30
0.0
 10
-2.44166
 20
18.77024
 30
0.0
 10
-2.36383
 20
18.81804
 30
0.0
 10
-2.2791
 20
18.84048
 30
0.0
 10
-2.25355
 20
18.89216
 30
0.0
 10
-2.25355
 20
18.89216
 30
0.0
 10
-2.20515
 20
18.99009
 30
0.0
 10
-2.20762
 20
19.11314
 30
0.0
 10
-2.15943
 20
19.21125
 30
0.0
 10
-2.15943
 20
19.21125
 30
0.0
 10
-1.81276
 20
19.91715
 30
0.0
 10
-1.20249
 20
20.03336
 30
0.0
 10
-0.58297
 20
19.59464
 30
0.0
 10
-0.58297
 20
19.59464
 30
0.0
 10
-0.38725
 20
19.45607
 30
0.0
 10
-0.32915
 20
19.23227
 30
0.0
 10
-0.34294
 20
18.99813
 30
0.0
 10
-0.34294
 20
18.99813
 30
0.0
 10
-0.35116
 20
18.85886
 30
0.0
 10
-0.37875
 20
18.72071
 30
0.0
 10
-0.40108
 20
18.55649
 30
0.0
 10
-0.40108
 20
18.55649
 30
0.0
 10
-0.22575
 20
18.53314
 30
0.0
 10
-0.07159
 20
18.51264
 30
0.0
 10
0.10646
 20
18.48893
 30
0.0
 10
0.10646
 20
18.48893
 30
0.0
 10
0.16611
 20
18.63389
 30
0.0
 10
0.21342
 20
18.76456
 30
0.0
 10
0.27262
 20
18.88962
 30
0.0
 10
0.27262
 20
18.88962
 30
0.0
 10
0.43691
 20
19.23686
 30
0.0
 10
0.68911
 20
19.49788
 30
0.0
 10
1.06704
 20
19.59651
 30
0.0
 10
1.06704
 20
19.59651
 30
0.0
 10
1.47368
 20
19.70263
 30
0.0
 10
1.87634
 20
19.47745
 30
0.0
 10
2.01231
 20
19.0658
 30
0.0
 10
2.01231
 20
19.0658
 30
0.0
 10
2.08649
 20
18.84122
 30
0.0
 10
2.11302
 20
18.6009
 30
0.0
 10
2.17444
 20
18.30274
 30
0.0
 10
2.17444
 20
18.30274
 30
0.0
 10
2.51907
 20
18.24471
 30
0.0
 10
2.90483
 20
18.17708
 30
0.0
 10
3.29158
 20
18.11559
 30
0.0
 10
3.29158
 20
18.11559
 30
0.0
 10
3.55888
 20
18.07308
 30
0.0
 10
3.82953
 20
18.0493
 30
0.0
 10
4.09479
 20
17.99713
 30
0.0
 10
4.09479
 20
17.99713
 30
0.0
 10
4.23964
 20
17.96862
 30
0.0
 10
4.3763
 20
17.89845
 30
0.0
 10
4.51699
 20
17.84695
 30
0.0
 10
4.51699
 20
17.84695
 30
0.0
 10
3.76159
 20
15.82338
 30
0.0
 10
1.69272
 20
13.56828
 30
0.0
 10
-1.53269
 20
13.09196
 30
0.0
 10
-1.53269
 20
13.09196
 30
0.0
 10
-1.54048
 20
12.62146
 30
0.0
 10
-1.54846
 20
12.14073
 30
0.0
 10
-1.55802
 20
11.56408
 30
0.0
 10
-1.55802
 20
11.56408
 30
0.0
 10
-1.36173
 20
11.76876
 30
0.0
 10
-1.23847
 20
11.90723
 30
0.0
 10
-1.10487
 20
12.03486
 30
0.0
 10
-1.10487
 20
12.03486
 30
0.0
 10
-0.56773
 20
12.54798
 30
0.0
 10
0.03559
 20
12.9046
 30
0.0
 10
0.81702
 20
12.8163
 30
0.0
 10
0.81702
 20
12.8163
 30
0.0
 10
0.92691
 20
12.80388
 30
0.0
 10
1.03941
 20
12.78452
 30
0.0
 10
1.14214
 20
12.74568
 30
0.0
 10
1.14214
 20
12.74568
 30
0.0
 10
1.30527
 20
12.68401
 30
0.0
 10
1.40726
 20
12.56978
 30
0.0
 10
1.37004
 20
12.37769
 30
0.0
 10
1.37004
 20
12.37769
 30
0.0
 10
1.35194
 20
12.28417
 30
0.0
 10
1.33952
 20
12.18839
 30
0.0
 10
1.3101
 20
12.09833
 30
0.0
 10
1.3101
 20
12.09833
 30
0.0
 10
0.95464
 20
11.01156
 30
0.0
 10
-0.11025
 20
10.17495
 30
0.0
 10
-1.24994
 20
10.08453
 30
0.0
 10
-1.24994
 20
10.08453
 30
0.0
 10
-1.35993
 20
10.07582
 30
0.0
 10
-1.47021
 20
10.07113
 30
0.0
 10
-1.61002
 20
10.06284
 30
0.0
 10
-1.61002
 20
10.06284
 30
0.0
 10
-1.62381
 20
9.94635
 30
0.0
 10
-1.6376
 20
9.84235
 30
0.0
 10
-1.64826
 20
9.73803
 30
0.0
 10
-1.64826
 20
9.73803
 30
0.0
 10
-1.79914
 20
8.26589
 30
0.0
 10
-1.95634
 20
6.79439
 30
0.0
 10
-2.0978
 20
5.32133
 30
0.0
 10
-2.0978
 20
5.32133
 30
0.0
 10
-2.19824
 20
4.27559
 30
0.0
 10
-2.29187
 20
3.22879
 30
0.0
 10
-2.3627
 20
2.18069
 30
0.0
 10
-2.3627
 20
2.18069
 30
0.0
 10
-2.50988
 20
0.00426
 30
0.0
 10
-2.99474
 20
-10.62853
 30
0.0
 10
-3.12319
 20
-12.80616
 30
0.0
 10
-3.12319
 20
-12.80616
 30
0.0
 10
-3.1616
 20
-13.45739
 30
0.0
 10
-3.16026
 20
-14.11098
 30
0.0
 10
-3.17822
 20
-14.76348
 30
0.0
 10
-3.17822
 20
-14.76348
 30
0.0
 10
-3.1827
 20
-14.92695
 30
0.0
 10
-3.24761
 20
-15.04182
 30
0.0
 10
-3.43049
 20
-15.04566
 30
0.0
 10
-3.43049
 20
-15.04566
 30
0.0
 10
-3.60554
 20
-15.0493
 30
0.0
 10
-3.69225
 20
-14.94805
 30
0.0
 10
-3.71606
 20
-14.78644
 30
0.0
 10
-3.71606
 20
-14.78644
 30
0.0
 10
-3.7276
 20
-14.70809
 30
0.0
 10
-3.7276
 20
-14.62762
 30
0.0
 10
-3.72792
 20
-14.54811
 30
0.0
 10
-3.72792
 20
-14.54811
 30
0.0
 10
-3.72898
 20
-14.24567
 30
0.0
 10
-3.74369
 20
-13.94225
 30
0.0
 10
-3.7251
 20
-13.64097
 30
0.0
 10
-3.7251
 20
-13.64097
 30
0.0
 10
-3.64967
 20
-12.41775
 30
0.0
 10
-3.19297
 20
-2.74067
 30
0.0
 10
-3.13832
 20
-1.51664
 30
0.0
 10
-3.13832
 20
-1.51664
 30
0.0
 10
-3.08301
 20
-0.27687
 30
0.0
 10
-3.10957
 20
0.96703
 30
0.0
 10
-3.037
 20
2.20542
 30
0.0
 10
-3.037
 20
2.20542
 30
0.0
 10
-2.98031
 20
3.17312
 30
0.0
 10
-2.8101
 20
4.13356
 30
0.0
 10
-2.72021
 20
5.10003
 30
0.0
 10
-2.72021
 20
5.10003
 30
0.0
 10
-2.57585
 20
6.65165
 30
0.0
 10
-2.45622
 20
8.20557
 30
0.0
 10
-2.32393
 20
9.78531
 30
0.0
 10
-2.32393
 20
9.78531
 30
0.0
 10
-2.47415
 20
9.8184
 30
0.0
 10
-2.57592
 20
9.8512
 30
0.0
 10
-2.67996
 20
9.86207
 30
0.0
 10
-2.67996
 20
9.86207
 30
0.0
 10
-3.71035
 20
9.96949
 30
0.0
 10
-4.32288
 20
10.62605
 30
0.0
 10
-4.7926
 20
11.46813
 30
0.0
 10
-4.7926
 20
11.46813
 30
0.0
 10
-4.83818
 20
11.54983
 30
0.0
 10
-4.86048
 20
11.64713
 30
0.0
 10
-4.88069
 20
11.74001
 30
0.0
 10
-4.88069
 20
11.74001
 30
0.0
 10
-4.99866
 20
12.28202
 30
0.0
 10
-4.7346
 20
12.58848
 30
0.0
 10
-4.18875
 20
12.52106
 30
0.0
 10
-4.18875
 20
12.52106
 30
0.0
 10
-3.58494
 20
12.44645
 30
0.0
 10
-3.05376
 20
12.2133
 30
0.0
 10
-2.65071
 20
11.73691
 30
0.0
 10
-2.65071
 20
11.73691
 30
0.0
 10
-2.54911
 20
11.61682
 30
0.0
 10
-2.44702
 20
11.49716
 30
0.0
 10
-2.25976
 20
11.27692
 30
0.0
 10
-2.25976
 20
11.27692
 30
0.0
 10
-2.26484
 20
11.95849
 30
0.0
 10
-2.26911
 20
12.52844
 30
0.0
 10
-2.27292
 20
13.043
 30
0.0
 10
-2.27292
 20
13.043
 30
0.0
 10
-2.94683
 20
13.44276
 30
0.0
 10
-3.55654
 20
13.81251
 30
0.0
 10
-4.1739
 20
14.16889
 30
0.0
 10
-4.1739
 20
14.16889
 30
0.0
 10
-5.26705
 20
14.7999
 30
0.0
 10
-5.87884
 20
15.76965
 30
0.0
 10
-6.13785
 20
16.97576
 30
0.0
 10
-6.13785
 20
16.97576
 30
0.0
 10
-6.2513
 20
17.50401
 30
0.0
 10
-6.32786
 20
18.04232
 30
0.0
 10
-6.38448
 20
18.57991
 30
0.0
 10
-6.38448
 20
18.57991
 30
0.0
 10
-6.42624
 20
18.97647
 30
0.0
 10
-6.29794
 20
19.09402
 30
0.0
 10
-5.88963
 20
19.08555
 30
0.0
 10
-5.88963
 20
19.08555
 30
0.0
 10
-5.46186
 20
19.07666
 30
0.0
 10
-5.03457
 20
19.04265
 30
0.0
 10
-4.58933
 20
19.0187
 30
0.0
  0
SPLINE
  5
42
330
1F
100
AcDbEntity
  8
Layer 1
370
    53
100
AcDbSpline
210
0.0
220
0.0
230
1.0
 70
    11
 71
     3
 72
    20
 73
    16
 74
     0
 42
0.0000000001
 43
0.0000000001
 12
1.0
 22
0.0
 32
0.0
 13
1.0
 23
0.0
 33
0.0
 40
0.0
 40
0.0
 40
0.0
 40
0.0
 40
0.2
 40
0.2
 40
0.2
 40
0.2
 40
0.4
 40
0.4
 40
0.4
 40
0.4
 40
0.6
 40
0.6
 40
0.6
 40
0.6
 40
1.0
 40
1.0
 40
1.0
 40
1.0
 10
-2.30594
 20
18.38239
 30
0.0
 10
-2.32175
 20
16.80019
 30
0.0
 10
-2.33684
 20
15.28374
 30
0.0
 10
-2.35254
 20
13.7114
 30
0.0
 10
-2.35254
 20
13.7114
 30
0.0
 10
-2.03391
 20
13.68636
 30
0.0
 10
-1.7476
 20
13.66385
 30
0.0
 10
-1.40163
 20
13.63665
 30
0.0
 10
-1.40163
 20
13.63665
 30
0.0
 10
-1.40964
 20
15.22733
 30
0.0
 10
-1.41729
 20
16.74222
 30
0.0
 10
-1.42502
 20
18.2754
 30
0.0
 10
-1.42502
 20
18.2754
 30
0.0
 10
-1.72548
 20
18.31191
 30
0.0
 10
-1.97331
 20
18.342
 30
0.0
 10
-2.30594
 20
18.38239
 30
0.0
  0
SPLINE
  5
43
330
1F
100
AcDbEntity
  8
Layer 1
370
    53
100
AcDbSpline
210
0.0
220
0.0
230
1.0
 70
    11
 71
     3
 72
    20
 73
    16
 74
     0
 42
0.0000000001
 43
0.0000000001
 12
1.0
 22
0.0
 32
0.0
 13
1.0
 23
0.0
 33
0.0
 40
0.0
 40
0.0
 40
0.0
 40
0.0
 40
0.2
 40
0.2
 40
0.2
 40
0.2
 40
0.4
 40
0.4
 40
0.4
 40
0.4
 40
0.6
 40
0.6
 40
0.6
 40
0.6
 40
1.0
 40
1.0
 40
1.0
 40
1.0
 10
-0.13029
 20
13.96332
 30
0.0
 10
-0.14144
 20
15.37754
 30
0.0
 10
-0.15209
 20
16.73595
 30
0.0
 10
-0.16303
 20
18.12628
 30
0.0
 10
-0.16303
 20
18.12628
 30
0.0
 10
-0.42401
 20
18.15898
 30
0.0
 10
-0.65092
 20
18.18734
 30
0.0
 10
-0.9336
 20
18.22273
 30
0.0
 10
-0.9336
 20
18.22273
 30
0.0
 10
-0.82512
 20
16.7092
 30
0.0
 10
-0.9887
 20
15.24588
 30
0.0
 10
-0.91046
 20
13.72619
 30
0.0
 10
-0.91046
 20
13.72619
 30
0.0
 10
-0.62404
 20
13.81325
 30
0.0
 10
-0.40292
 20
13.88046
 30
0.0
 10
-0.13029
 20
13.96332
 30
0.0
  0
SPLINE
  5
44
330
1F
100
AcDbEntity
  8
Layer 1
370
    53
100
AcDbSpline
210
0.0
220
0.0
230
1.0
 70
    11
 71
     3
 72
    20
 73
    16
 74
     0
 42
0.0000000001
 43
0.0000000001
 12
1.0
 22
0.0
 32
0.0
 13
1.0
 23
0.0
 33
0.0
 40
0.0
 40
0.0
 40
0.0
 40
0.0
 40
0.2
 40
0.2
 40
0.2
 40
0.2
 40
0.4
 40
0.4
 40
0.4
 40
0.4
 40
0.6
 40
0.6
 40
0.6
 40
0.6
 40
1.0
 40
1.0
 40
1.0
 40
1.0
 10
-2.80107
 20
18.38529
 30
0.0
 10
-3.02716
 20
18.43203
 30
0.0
 10
-3.21646
 20
18.47115
 30
0.0
 10
-3.4851
 20
18.52665
 30
0.0
 10
-3.4851
 20
18.52665
 30
0.0
 10
-3.51025
 20
17.09207
 30
0.0
 10
-3.5341
 20
15.73346
 30
0.0
 10
-3.55806
 20
14.36761
 30
0.0
 10
-3.55806
 20
14.36761
 30
0.0
 10
-3.29887
 20
14.21764
 30
0.0
 10
-3.07493
 20
14.08803
 30
0.0
 10
-2.78396
 20
13.91965
 30
0.0
 10
-2.78396
 20
13.91965
 30
0.0
 10
-2.78981
 20
15.44834
 30
0.0
 10
-2.79531
 20
16.88775
 30
0.0
 10
-2.80107
 20
18.38529
 30
0.0
  0
SPLINE
  5
45
330
1F
100
AcDbEntity
  8
Layer 1
370
    53
100
AcDbSpline
210
0.0
220
0.0
230
1.0
 70
    11
 71
     3
 72
    32
 73
    28
 74
     0
 42
0.0000000001
 43
0.0000000001
 12
1.0
 22
0.0
 32
0.0
 13
1.0
 23
0.0
 33
0.0
 40
0.0
 40
0.0
 40
0.0
 40
0.0
 40
0.125
 40
0.125
 40
0.125
 40
0.125
 40
0.25
 40
0.25
 40
0.25
 40
0.25
 40
0.375
 40
0.375
 40
0.375
 40
0.375
 40
0.5
 40
0.5
 40
0.5
 40
0.5
 40
0.625
 40
0.625
 40
0.625
 40
0.625
 40
0.75
 40
0.75
 40
0.75
 40
0.75
 40
1.0
 40
1.0
 40
1.0
 40
1.0
 10
0.33975
 20
14.18868
 30
0.0
 10
0.45507
 20
14.24498
 30
0.0
 10
0.56193
 20
14.30675
 30
0.0
 10
0.6757
 20
14.35085
 30
0.0
 10
0.6757
 20
14.35085
 30
0.0
 10
0.99041
 20
14.47277
 30
0.0
 10
1.07766
 20
14.70225
 30
0.0
 10
1.06012
 20
15.02614
 30
0.0
 10
1.06012
 20
15.02614
 30
0.0
 10
1.0343
 20
15.50218
 30
0.0
 10
1.05458
 20
15.98051
 30
0.0
 10
1.04083
 20
16.45743
 30
0.0
 10
1.04083
 20
16.45743
 30
0.0
 10
1.02587
 20
16.97675
 30
0.0
 10
0.99447
 20
17.49558
 30
0.0
 10
0.96981
 20
18.02348
 30
0.0
 10
0.96981
 20
18.02348
 30
0.0
 10
0.81205
 20
18.04122
 30
0.0
 10
0.70308
 20
18.05618
 30
0.0
 10
0.59364
 20
18.06482
 30
0.0
 10
0.59364
 20
18.06482
 30
0.0
 10
0.51744
 20
18.07089
 30
0.0
 10
0.44057
 20
18.06832
 30
0.0
 10
0.36935
 20
18.06952
 30
0.0
 10
0.36935
 20
18.06952
 30
0.0
 10
0.2409
 20
17.54762
 30
0.0
 10
0.21734
 20
14.66316
 30
0.0
 10
0.33975
 20
14.18868
 30
0.0
  0
SPLINE
  5
46
330
1F
100
AcDbEntity
  8
Layer 1
370
    53
100
AcDbSpline
210
0.0
220
0.0
230
1.0
 70
    11
 71
     3
 72
    28
 73
    24
 74
     0
 42
0.0000000001
 43
0.0000000001
 12
1.0
 22
0.0
 32
0.0
 13
1.0
 23
0.0
 33
0.0
 40
0.0
 40
0.0
 40
0.0
 40
0.0
 40
0.1428571428571428
 40
0.1428571428571428
 40
0.1428571428571428
 40
0.1428571428571428
 40
0.2857142857142857
 40
0.2857142857142857
 40
0.2857142857142857
 40
0.2857142857142857
 40
0.4285714285714285
 40
0.4285714285714285
 40
0.4285714285714285
 40
0.4285714285714285
 40
0.5714285714285714
 40
0.5714285714285714
 40
0.5714285714285714
 40
0.5714285714285714
 40
0.7142857142857143
 40
0.7142857142857143
 40
0.7142857142857143
 40
0.7142857142857143
 40
1.0
 40
1.0
 40
1.0
 40
1.0
 10
-4.02485
 20
14.70857
 30
0.0
 10
-4.01663
 20
16.06549
 30
0.0
 10
-4.00912
 20
17.29542
 30
0.0
 10
-4.00143
 20
18.55988
 30
0.0
 10
-4.00143
 20
18.55988
 30
0.0
 10
-4.22784
 20
18.58147
 30
0.0
 10
-4.44134
 20
18.60186
 30
0.0
 10
-4.63438
 20
18.62024
 30
0.0
 10
-4.63438
 20
18.62024
 30
0.0
 10
-4.66666
 20
18.56238
 30
0.0
 10
-4.68095
 20
18.54862
 30
0.0
 10
-4.68123
 20
18.53458
 30
0.0
 10
-4.68123
 20
18.53458
 30
0.0
 10
-4.70099
 20
17.53446
 30
0.0
 10
-4.72155
 20
16.53437
 30
0.0
 10
-4.73404
 20
15.53417
 30
0.0
 10
-4.73404
 20
15.53417
 30
0.0
 10
-4.73489
 20
15.46478
 30
0.0
 10
-4.68994
 20
15.38061
 30
0.0
 10
-4.64045
 20
15.32734
 30
0.0
 10
-4.64045
 20
15.32734
 30
0.0
 10
-4.46928
 20
15.14312
 30
0.0
 10
-4.28672
 20
14.96952
 30
0.0
 10
-4.02485
 20
14.70857
 30
0.0
  0
SPLINE
  5
47
330
1F
100
AcDbEntity
  8
Layer 1
370
    53
100
AcDbSpline
210
0.0
220
0.0
230
1.0
 70
    11
 71
     3
 72
    20
 73
    16
 74
     0
 42
0.0000000001
 43
0.0000000001
 12
1.0
 22
0.0
 32
0.0
 13
1.0
 23
0.0
 33
0.0
 40
0.0
 40
0.0
 40
0.0
 40
0.0
 40
0.2
 40
0.2
 40
0.2
 40
0.2
 40
0.4
 40
0.4
 40
0.4
 40
0.4
 40
0.6
 40
0.6
 40
0.6
 40
0.6
 40
1.0
 40
1.0
 40
1.0
 40
1.0
 10
1.55197
 20
17.98513
 30
0.0
 10
1.55073
 20
16.9553
 30
0.0
 10
1.54953
 20
15.99649
 30
0.0
 10
1.5483
 20
14.98342
 30
0.0
 10
1.5483
 20
14.98342
 30
0.0
 10
1.81373
 20
15.13342
 30
0.0
 10
2.02363
 20
15.25191
 30
0.0
 10
2.04007
 20
15.49473
 30
0.0
 10
2.04007
 20
15.49473
 30
0.0
 10
2.09362
 20
16.28383
 30
0.0
 10
2.12213
 20
17.07465
 30
0.0
 10
2.16213
 20
17.90293
 30
0.0
 10
2.16213
 20
17.90293
 30
0.0
 10
1.96186
 20
17.92992
 30
0.0
 10
1.79372
 20
17.95257
 30
0.0
 10
1.55197
 20
17.98513
 30
0.0
  0
SPLINE
  5
48
330
1F
100
AcDbEntity
  8
Layer 1
370
    53
100
AcDbSpline
210
0.0
220
0.0
230
1.0
 70
    11
 71
     3
 72
    20
 73
    16
 74
     0
 42
0.0000000001
 43
0.0000000001
 12
1.0
 22
0.0
 32
0.0
 13
1.0
 23
0.0
 33
0.0
 40
0.0
 40
0.0
 40
0.0
 40
0.0
 40
0.2
 40
0.2
 40
0.2
 40
0.2
 40
0.4
 40
0.4
 40
0.4
 40
0.4
 40
0.6
 40
0.6
 40
0.6
 40
0.6
 40
1.0
 40
1.0
 40
1.0
 40
1.0
 10
-5.30416
 20
16.14762
 30
0.0
 10
-5.2691
 20
16.15471
 30
0.0
 10
-5.234
 20
16.16183
 30
0.0
 10
-5.1989
 20
16.16893
 30
0.0
 10
-5.1989
 20
16.16893
 30
0.0
 10
-5.21883
 20
16.99054
 30
0.0
 10
-5.23872
 20
17.81213
 30
0.0
 10
-5.2595
 20
18.66906
 30
0.0
 10
-5.2595
 20
18.66906
 30
0.0
 10
-5.5008
 20
18.68046
 30
0.0
 10
-5.67938
 20
18.68892
 30
0.0
 10
-5.90547
 20
18.69961
 30
0.0
 10
-5.90547
 20
18.69961
 30
0.0
 10
-5.80363
 20
17.78214
 30
0.0
 10
-5.81312
 20
16.90263
 30
0.0
 10
-5.30416
 20
16.14762
 30
0.0
  0
SPLINE
  5
49
330
1F
100
AcDbEntity
  8
Layer 1
370
    53
100
AcDbSpline
210
0.0
220
0.0
230
1.0
 70
    11
 71
     3
 72
    12
 73
     8
 74
     0
 42
0.0000000001
 43
0.0000000001
 12
1.0
 22
0.0
 32
0.0
 13
1.0
 23
0.0
 33
0.0
 40
0.0
 40
0.0
 40
0.0
 40
0.0
 40
0.3333333333333333
 40
0.3333333333333333
 40
0.3333333333333333
 40
0.3333333333333333
 40
1.0
 40
1.0
 40
1.0
 40
1.0
 10
-1.25085
 20
10.53715
 30
0.0
 10
-0.27906
 20
10.56935
 30
0.0
 10
0.5868
 20
11.22612
 30
0.0
 10
0.7766
 20
12.04584
 30
0.0
 10
0.7766
 20
12.04584
 30
0.0
 10
0.02828
 20
11.60585
 30
0.0
 10
-0.62996
 20
11.09799
 30
0.0
 10
-1.25085
 20
10.53715
 30
0.0
  0
SPLINE
  5
4A
330
1F
100
AcDbEntity
  8
Layer 1
370
    53
100
AcDbSpline
210
0.0
220
0.0
230
1.0
 70
    11
 71
     3
 72
    24
 73
    20
 74
     0
 42
0.0000000001
 43
0.0000000001
 12
1.0
 22
0.0
 32
0.0
 13
1.0
 23
0.0
 33
0.0
 40
0.0
 40
0.0
 40
0.0
 40
0.0
 40
0.1666666666666667
 40
0.1666666666666667
 40
0.1666666666666667
 40
0.1666666666666667
 40
0.3333333333333333
 40
0.3333333333333333
 40
0.3333333333333333
 40
0.3333333333333333
 40
0.5
 40
0.5
 40
0.5
 40
0.5
 40
0.6666666666666666
 40
0.6666666666666666
 40
0.6666666666666666
 40
0.6666666666666666
 40
1.0
 40
1.0
 40
1.0
 40
1.0
 10
2.49353
 20
15.97264
 30
0.0
 10
2.52877
 20
15.95602
 30
0.0
 10
2.56401
 20
15.93941
 30
0.0
 10
2.59922
 20
15.92279
 30
0.0
 10
2.59922
 20
15.92279
 30
0.0
 10
2.72964
 20
16.1116
 30
0.0
 10
2.93542
 20
16.28608
 30
0.0
 10
2.97454
 20
16.49221
 30
0.0
 10
2.97454
 20
16.49221
 30
0.0
 10
3.05233
 20
16.90235
 30
0.0
 10
3.03843
 20
17.32992
 30
0.0
 10
3.06372
 20
17.77325
 30
0.0
 10
3.06372
 20
17.77325
 30
0.0
 10
2.88204
 20
17.79382
 30
0.0
 10
2.74661
 20
17.80913
 30
0.0
 10
2.56504
 20
17.82966
 30
0.0
 10
2.56504
 20
17.82966
 30
0.0
 10
2.54045
 20
17.19085
 30
0.0
 10
2.51699
 20
16.58175
 30
0.0
 10
2.49353
 20
15.97264
 30
0.0
  0
SPLINE
  5
4B
330
1F
100
AcDbEntity
  8
Layer 1
370
    53
100
AcDbSpline
210
0.0
220
0.0
230
1.0
 70
    11
 71
     3
 72
    12
 73
     8
 74
     0
 42
0.0000000001
 43
0.0000000001
 12
1.0
 22
0.0
 32
0.0
 13
1.0
 23
0.0
 33
0.0
 40
0.0
 40
0.0
 40
0.0
 40
0.0
 40
0.3333333333333333
 40
0.3333333333333333
 40
0.3333333333333333
 40
0.3333333333333333
 40
1.0
 40
1.0
 40
1.0
 40
1.0
 10
-2.66906
 20
10.2781
 30
0.0
 10
-3.2946
 20
10.87832
 30
0.0
 10
-3.86832
 20
11.42883
 30
0.0
 10
-4.50262
 20
12.03751
 30
0.0
 10
-4.50262
 20
12.03751
 30
0.0
 10
-4.39675
 20
11.14533
 30
0.0
 10
-3.58709
 20
10.38732
 30
0.0
 10
-2.66906
 20
10.2781
 30
0.0
  0
SPLINE
  5
4C
330
1F
100
AcDbEntity
  8
Layer 1
370
    53
100
AcDbSpline
210
0.0
220
0.0
230
1.0
 70
    11
 71
     3
 72
    16
 73
    12
 74
     0
 42
0.0000000001
 43
0.0000000001
 12
1.0
 22
0.0
 32
0.0
 13
1.0
 23
0.0
 33
0.0
 40
0.0
 40
0.0
 40
0.0
 40
0.0
 40
0.25
 40
0.25
 40
0.25
 40
0.25
 40
0.5
 40
0.5
 40
0.5
 40
0.5
 40
1.0
 40
1.0
 40
1.0
 40
1.0
 10
-1.28169
 20
11.2166
 30
0.0
 10
-1.28169
 20
11.2166
 30
0.0
 10
-1.22076
 20
11.13189
 30
0.0
 10
-1.22076
 20
11.13189
 30
0.0
 10
-1.22076
 20
11.13189
 30
0.0
 10
-0.64563
 20
11.54348
 30
0.0
 10
-0.07046
 20
11.95507
 30
0.0
 10
0.50464
 20
12.36669
 30
0.0
 10
0.50464
 20
12.36669
 30
0.0
 10
-0.33659
 20
12.32509
 30
0.0
 10
-0.86241
 20
11.84493
 30
0.0
 10
-1.28169
 20
11.2166
 30
0.0
  0
SPLINE
  5
4D
330
1F
100
AcDbEntity
  8
Layer 1
370
    53
100
AcDbSpline
210
0.0
220
0.0
230
1.0
 70
    11
 71
     3
 72
    16
 73
    12
 74
     0
 42
0.0000000001
 43
0.0000000001
 12
1.0
 22
0.0
 32
0.0
 13
1.0
 23
0.0
 33
0.0
 40
0.0
 40
0.0
 40
0.0
 40
0.0
 40
0.25
 40
0.25
 40
0.25
 40
0.25
 40
0.5
 40
0.5
 40
0.5
 40
0.5
 40
1.0
 40
1.0
 40
1.0
 40
1.0
 10
0.72908
 20
18.44741
 30
0.0
 10
0.97627
 20
18.42621
 30
0.0
 10
1.21856
 20
18.40543
 30
0.0
 10
1.45389
 20
18.38522
 30
0.0
 10
1.45389
 20
18.38522
 30
0.0
 10
1.57719
 20
18.88147
 30
0.0
 10
1.53987
 20
19.02579
 30
0.0
 10
1.29204
 20
19.09486
 30
0.0
 10
1.29204
 20
19.09486
 30
0.0
 10
1.03088
 20
19.16764
 30
0.0
 10
0.82849
 20
18.94733
 30
0.0
 10
0.72908
 20
18.44741
 30
0.0
  0
SPLINE
  5
4E
330
1F
100
AcDbEntity
  8
Layer 1
370
    53
100
AcDbSpline
210
0.0
220
0.0
230
1.0
 70
    11
 71
     3
 72
    16
 73
    12
 74
     0
 42
0.0000000001
 43
0.0000000001
 12
1.0
 22
0.0
 32
0.0
 13
1.0
 23
0.0
 33
0.0
 40
0.0
 40
0.0
 40
0.0
 40
0.0
 40
0.25
 40
0.25
 40
0.25
 40
0.25
 40
0.5
 40
0.5
 40
0.5
 40
0.5
 40
1.0
 40
1.0
 40
1.0
 40
1.0
 10
-3.94174
 20
18.95647
 30
0.0
 10
-3.67793
 20
18.93153
 30
0.0
 10
-3.41857
 20
18.90705
 30
0.0
 10
-3.15783
 20
18.88239
 30
0.0
 10
-3.15783
 20
18.88239
 30
0.0
 10
-3.12629
 20
19.3864
 30
0.0
 10
-3.1948
 20
19.53358
 30
0.0
 10
-3.45113
 20
19.56727
 30
0.0
 10
-3.45113
 20
19.56727
 30
0.0
 10
-3.71455
 20
19.60188
 30
0.0
 10
-3.84606
 20
19.44701
 30
0.0
 10
-3.94174
 20
18.95647
 30
0.0
  0
SPLINE
  5
4F
330
1F
100
AcDbEntity
  8
Layer 1
370
    53
100
AcDbSpline
210
0.0
220
0.0
230
1.0
 70
    11
 71
     3
 72
    12
 73
     8
 74
     0
 42
0.0000000001
 43
0.0000000001
 12
1.0
 22
0.0
 32
0.0
 13
1.0
 23
0.0
 33
0.0
 40
0.0
 40
0.0
 40
0.0
 40
0.0
 40
0.3333333333333333
 40
0.3333333333333333
 40
0.3333333333333333
 40
0.3333333333333333
 40
1.0
 40
1.0
 40
1.0
 40
1.0
 10
-3.81304
 20
12.04788
 30
0.0
 10
-3.68139
 20
11.71242
 30
0.0
 10
-2.80145
 20
10.86936
 30
0.0
 10
-2.41696
 20
10.72451
 30
0.0
 10
-2.41696
 20
10.72451
 30
0.0
 10
-2.7521
 20
11.33181
 30
0.0
 10
-3.11842
 20
11.85202
 30
0.0
 10
-3.81304
 20
12.04788
 30
0.0
  0
SPLINE
  5
50
330
1F
100
AcDbEntity
  8
Layer 1
370
    53
100
AcDbSpline
210
0.0
220
0.0
230
1.0
 70
    11
 71
     3
 72
    16
 73
    12
 74
     0
 42
0.0000000001
 43
0.0000000001
 12
1.0
 22
0.0
 32
0.0
 13
1.0
 23
0.0
 33
0.0
 40
0.0
 40
0.0
 40
0.0
 40
0.0
 40
0.25
 40
0.25
 40
0.25
 40
0.25
 40
0.5
 40
0.5
 40
0.5
 40
0.5
 40
1.0
 40
1.0
 40
1.0
 40
1.0
 10
-0.96937
 20
19.26476
 30
0.0
 10
-1.46093
 20
19.24832
 30
0.0
 10
-1.57089
 20
19.16217
 30
0.0
 10
-1.70724
 20
18.69242
 30
0.0
 10
-1.70724
 20
18.69242
 30
0.0
 10
-1.476
 20
18.67171
 30
0.0
 10
-1.25477
 20
18.65192
 30
0.0
 10
-0.99163
 20
18.62839
 30
0.0
 10
-0.99163
 20
18.62839
 30
0.0
 10
-0.98292
 20
18.87695
 30
0.0
 10
-0.97622
 20
19.06911
 30
0.0
 10
-0.96937
 20
19.26476
 30
0.0
  0
SPLINE
  5
51
330
1F
100
AcDbEntity
  8
Layer 1
370
    53
100
AcDbSpline
210
0.0
220
0.0
230
1.0
 70
    11
 71
     3
 72
    20
 73
    16
 74
     0
 42
0.0000000001
 43
0.0000000001
 12
1.0
 22
0.0
 32
0.0
 13
1.0
 23
0.0
 33
0.0
 40
0.0
 40
0.0
 40
0.0
 40
0.0
 40
0.2
 40
0.2
 40
0.2
 40
0.2
 40
0.4
 40
0.4
 40
0.4
 40
0.4
 40
0.6
 40
0.6
 40
0.6
 40
0.6
 40
1.0
 40
1.0
 40
1.0
 40
1.0
 10
3.88171
 20
17.63514
 30
0.0
 10
3.71869
 20
17.655
 30
0.0
 10
3.62005
 20
17.66703
 30
0.0
 10
3.49376
 20
17.68241
 30
0.0
 10
3.49376
 20
17.68241
 30
0.0
 10
3.48963
 20
17.48327
 30
0.0
 10
3.48618
 20
17.31531
 30
0.0
 10
3.48268
 20
17.14732
 30
0.0
 10
3.48268
 20
17.14732
 30
0.0
 10
3.51426
 20
17.14164
 30
0.0
 10
3.54583
 20
17.13592
 30
0.0
 10
3.5774
 20
17.13021
 30
0.0
 10
3.5774
 20
17.13021
 30
0.0
 10
3.66934
 20
17.28279
 30
0.0
 10
3.76131
 20
17.43536
 30
0.0
 10
3.88171
 20
17.63514
 30
0.0
  0
SPLINE
  5
52
330
1F
100
AcDbEntity
  8
Layer 1
370
    53
100
AcDbSpline
210
0.0
220
0.0
230
1.0
 70
    11
 71
     3
 72
   204
 73
   200
 74
     0
 42
0.0000000001
 43
0.0000000001
 12
1.0
 22
0.0
 32
0.0
 13
1.0
 23
0.0
 33
0.0
 40
0.0
 40
0.0
 40
0.0
 40
0.0
 40
0.0196078431372549
 40
0.0196078431372549
 40
0.0196078431372549
 40
0.0196078431372549
 40
0.0392156862745098
 40
0.0392156862745098
 40
0.0392156862745098
 40
0.0392156862745098
 40
0.0588235294117647
 40
0.0588235294117647
 40
0.0588235294117647
 40
0.0588235294117647
 40
0.0784313725490196
 40
0.0784313725490196
 40
0.0784313725490196
 40
0.0784313725490196
 40
0.0980392156862745
 40
0.0980392156862745
 40
0.0980392156862745
 40
0.0980392156862745
 40
0.1176470588235294
 40
0.1176470588235294
 40
0.1176470588235294
 40
0.1176470588235294
 40
0.1372549019607843
 40
0.1372549019607843
 40
0.1372549019607843
 40
0.1372549019607843
 40
0.1568627450980392
 40
0.1568627450980392
 40
0.1568627450980392
 40
0.1568627450980392
 40
0.1764705882352941
 40
0.1764705882352941
 40
0.1764705882352941
 40
0.1764705882352941
 40
0.196078431372549
 40
0.196078431372549
 40
0.196078431372549
 40
0.196078431372549
 40
0.2156862745098039
 40
0.2156862745098039
 40
0.2156862745098039
 40
0.2156862745098039
 40
0.2352941176470588
 40
0.2352941176470588
 40
0.2352941176470588
 40
0.2352941176470588
 40
0.2549019607843137
 40
0.2549019607843137
 40
0.2549019607843137
 40
0.2549019607843137
 40
0.2745098039215687
 40
0.2745098039215687
 40
0.2745098039215687
 40
0.2745098039215687
 40
0.2941176470588235
 40
0.2941176470588235
 40
0.2941176470588235
 40
0.2941176470588235
 40
0.3137254901960784
 40
0.3137254901960784
 40
0.3137254901960784
 40
0.3137254901960784
 40
0.3333333333333333
 40
0.3333333333333333
 40
0.3333333333333333
 40
0.3333333333333333
 40
0.3529411764705883
 40
0.3529411764705883
 40
0.3529411764705883
 40
0.3529411764705883
 40
0.3725490196078431
 40
0.3725490196078431
 40
0.3725490196078431
 40
0.3725490196078431
 40
0.392156862745098
 40
0.392156862745098
 40
0.392156862745098
 40
0.392156862745098
 40
0.4117647058823529
 40
0.4117647058823529
 40
0.4117647058823529
 40
0.4117647058823529
 40
0.4313725490196079
 40
0.4313725490196079
 40
0.4313725490196079
 40
0.4313725490196079
 40
0.4509803921568628
 40
0.4509803921568628
 40
0.4509803921568628
 40
0.4509803921568628
 40
0.4705882352941176
 40
0.4705882352941176
 40
0.4705882352941176
 40
0.4705882352941176
 40
0.4901960784313725
 40
0.4901960784313725
 40
0.4901960784313725
 40
0.4901960784313725
 40
0.5098039215686274
 40
0.5098039215686274
 40
0.5098039215686274
 40
0.5098039215686274
 40
0.5294117647058824
 40
0.5294117647058824
 40
0.5294117647058824
 40
0.5294117647058824
 40
0.5490196078431373
 40
0.5490196078431373
 40
0.5490196078431373
 40
0.5490196078431373
 40
0.5686274509803921
 40
0.5686274509803921
 40
0.5686274509803921
 40
0.5686274509803921
 40
0.5882352941176471
 40
0.5882352941176471
 40
0.5882352941176471
 40
0.5882352941176471
 40
0.6078431372549019
 40
0.6078431372549019
 40
0.6078431372549019
 40
0.6078431372549019
 40
0.6274509803921569
 40
0.6274509803921569
 40
0.6274509803921569
 40
0.6274509803921569
 40
0.6470588235294118
 40
0.6470588235294118
 40
0.6470588235294118
 40
0.6470588235294118
 40
0.6666666666666666
 40
0.6666666666666666
 40
0.6666666666666666
 40
0.6666666666666666
 40
0.6862745098039216
 40
0.6862745098039216
 40
0.6862745098039216
 40
0.6862745098039216
 40
0.7058823529411765
 40
0.7058823529411765
 40
0.7058823529411765
 40
0.7058823529411765
 40
0.7254901960784313
 40
0.7254901960784313
 40
0.7254901960784313
 40
0.7254901960784313
 40
0.7450980392156863
 40
0.7450980392156863
 40
0.7450980392156863
 40
0.7450980392156863
 40
0.7647058823529411
 40
0.7647058823529411
 40
0.7647058823529411
 40
0.7647058823529411
 40
0.7843137254901961
 40
0.7843137254901961
 40
0.7843137254901961
 40
0.7843137254901961
 40
0.803921568627451
 40
0.803921568627451
 40
0.803921568627451
 40
0.803921568627451
 40
0.8235294117647058
 40
0.8235294117647058
 40
0.8235294117647058
 40
0.8235294117647058
 40
0.8431372549019608
 40
0.8431372549019608
 40
0.8431372549019608
 40
0.8431372549019608
 40
0.8627450980392157
 40
0.8627450980392157
 40
0.8627450980392157
 40
0.8627450980392157
 40
0.8823529411764706
 40
0.8823529411764706
 40
0.8823529411764706
 40
0.8823529411764706
 40
0.9019607843137255
 40
0.9019607843137255
 40
0.9019607843137255
 40
0.9019607843137255
 40
0.9215686274509803
 40
0.9215686274509803
 40
0.9215686274509803
 40
0.9215686274509803
 40
0.9411764705882353
 40
0.9411764705882353
 40
0.9411764705882353
 40
0.9411764705882353
 40
0.9607843137254902
 40
0.9607843137254902
 40
0.9607843137254902
 40
0.9607843137254902
 40
1.0
 40
1.0
 40
1.0
 40
1.0
 10
4.58933
 20
-19.0187
 30
0.0
 10
4.39421
 20
-19.61182
 30
0.0
 10
4.134
 20
-20.14685
 30
0.0
 10
3.39511
 20
-20.10607
 30
0.0
 10
3.39511
 20
-20.10607
 30
0.0
 10
3.08699
 20
-20.08906
 30
0.0
 10
2.7709
 20
-19.96704
 30
0.0
 10
2.64023
 20
-19.67099
 30
0.0
 10
2.64023
 20
-19.67099
 30
0.0
 10
2.52357
 20
-19.40672
 30
0.0
 10
2.509
 20
-19.09733
 30
0.0
 10
2.44166
 20
-18.77024
 30
0.0
 10
2.44166
 20
-18.77024
 30
0.0
 10
2.36383
 20
-18.81804
 30
0.0
 10
2.2791
 20
-18.84048
 30
0.0
 10
2.25355
 20
-18.89216
 30
0.0
 10
2.25355
 20
-18.89216
 30
0.0
 10
2.20515
 20
-18.99009
 30
0.0
 10
2.20762
 20
-19.11314
 30
0.0
 10
2.15943
 20
-19.21125
 30
0.0
 10
2.15943
 20
-19.21125
 30
0.0
 10
1.81276
 20
-19.91715
 30
0.0
 10
1.20249
 20
-20.03336
 30
0.0
 10
0.58297
 20
-19.59464
 30
0.0
 10
0.58297
 20
-19.59464
 30
0.0
 10
0.38725
 20
-19.45607
 30
0.0
 10
0.32915
 20
-19.23227
 30
0.0
 10
0.34294
 20
-18.99813
 30
0.0
 10
0.34294
 20
-18.99813
 30
0.0
 10
0.35116
 20
-18.85886
 30
0.0
 10
0.37875
 20
-18.72071
 30
0.0
 10
0.40108
 20
-18.55649
 30
0.0
 10
0.40108
 20
-18.55649
 30
0.0
 10
0.22575
 20
-18.53314
 30
0.0
 10
0.07159
 20
-18.51264
 30
0.0
 10
-0.10646
 20
-18.48893
 30
0.0
 10
-0.10646
 20
-18.48893
 30
0.0
 10
-0.16611
 20
-18.63389
 30
0.0
 10
-0.21342
 20
-18.76456
 30
0.0
 10
-0.27262
 20
-18.88962
 30
0.0
 10
-0.27262
 20
-18.88962
 30
0.0
 10
-0.43691
 20
-19.23686
 30
0.0
 10
-0.68911
 20
-19.49788
 30
0.0
 10
-1.06704
 20
-19.59651
 30
0.0
 10
-1.06704
 20
-19.59651
 30
0.0
 10
-1.47368
 20
-19.70263
 30
0.0
 10
-1.87634
 20
-19.47745
 30
0.0
 10
-2.01231
 20
-19.0658
 30
0.0
 10
-2.01231
 20
-19.0658
 30
0.0
 10
-2.08649
 20
-18.84122
 30
0.0
 10
-2.11302
 20
-18.6009
 30
0.0
 10
-2.17444
 20
-18.30274
 30
0.0
 10
-2.17444
 20
-18.30274
 30
0.0
 10
-2.51907
 20
-18.24471
 30
0.0
 10
-2.90483
 20
-18.17708
 30
0.0
 10
-3.29158
 20
-18.11559
 30
0.0
 10
-3.29158
 20
-18.11559
 30
0.0
 10
-3.55888
 20
-18.07308
 30
0.0
 10
-3.82953
 20
-18.0493
 30
0.0
 10
-4.09479
 20
-17.99713
 30
0.0
 10
-4.09479
 20
-17.99713
 30
0.0
 10
-4.23964
 20
-17.96862
 30
0.0
 10
-4.3763
 20
-17.89845
 30
0.0
 10
-4.51699
 20
-17.84695
 30
0.0
 10
-4.51699
 20
-17.84695
 30
0.0
 10
-3.76159
 20
-15.82338
 30
0.0
 10
-1.69272
 20
-13.56828
 30
0.0
 10
1.53269
 20
-13.09196
 30
0.0
 10
1.53269
 20
-13.09196
 30
0.0
 10
1.54048
 20
-12.62146
 30
0.0
 10
1.54846
 20
-12.14073
 30
0.0
 10
1.55802
 20
-11.56408
 30
0.0
 10
1.55802
 20
-11.56408
 30
0.0
 10
1.36173
 20
-11.76876
 30
0.0
 10
1.23847
 20
-11.90723
 30
0.0
 10
1.10487
 20
-12.03486
 30
0.0
 10
1.10487
 20
-12.03486
 30
0.0
 10
0.56773
 20
-12.54798
 30
0.0
 10
-0.03559
 20
-12.9046
 30
0.0
 10
-0.81702
 20
-12.8163
 30
0.0
 10
-0.81702
 20
-12.8163
 30
0.0
 10
-0.92691
 20
-12.80388
 30
0.0
 10
-1.03941
 20
-12.78452
 30
0.0
 10
-1.14214
 20
-12.74568
 30
0.0
 10
-1.14214
 20
-12.74568
 30
0.0
 10
-1.30527
 20
-12.68401
 30
0.0
 10
-1.40726
 20
-12.56978
 30
0.0
 10
-1.37004
 20
-12.37769
 30
0.0
 10
-1.37004
 20
-12.37769
 30
0.0
 10
-1.35194
 20
-12.28417
 30
0.0
 10
-1.33952
 20
-12.18839
 30
0.0
 10
-1.3101
 20
-12.09833
 30
0.0
 10
-1.3101
 20
-12.09833
 30
0.0
 10
-0.95464
 20
-11.01156
 30
0.0
 10
0.11025
 20
-10.17495
 30
0.0
 10
1.24994
 20
-10.08453
 30
0.0
 10
1.24994
 20
-10.08453
 30
0.0
 10
1.35993
 20
-10.07582
 30
0.0
 10
1.47021
 20
-10.07113
 30
0.0
 10
1.61002
 20
-10.06284
 30
0.0
 10
1.61002
 20
-10.06284
 30
0.0
 10
1.62381
 20
-9.94635
 30
0.0
 10
1.6376
 20
-9.84235
 30
0.0
 10
1.64826
 20
-9.73803
 30
0.0
 10
1.64826
 20
-9.73803
 30
0.0
 10
1.79914
 20
-8.26589
 30
0.0
 10
1.95634
 20
-6.79439
 30
0.0
 10
2.0978
 20
-5.32133
 30
0.0
 10
2.0978
 20
-5.32133
 30
0.0
 10
2.19824
 20
-4.27559
 30
0.0
 10
2.29187
 20
-3.22879
 30
0.0
 10
2.3627
 20
-2.18069
 30
0.0
 10
2.3627
 20
-2.18069
 30
0.0
 10
2.50988
 20
-0.00426
 30
0.0
 10
2.99474
 20
10.62853
 30
0.0
 10
3.12319
 20
12.80616
 30
0.0
 10
3.12319
 20
12.80616
 30
0.0
 10
3.1616
 20
13.45739
 30
0.0
 10
3.16026
 20
14.11098
 30
0.0
 10
3.17822
 20
14.76348
 30
0.0
 10
3.17822
 20
14.76348
 30
0.0
 10
3.1827
 20
14.92695
 30
0.0
 10
3.24761
 20
15.04182
 30
0.0
 10
3.43049
 20
15.04566
 30
0.0
 10
3.43049
 20
15.04566
 30
0.0
 10
3.60554
 20
15.0493
 30
0.0
 10
3.69225
 20
14.94805
 30
0.0
 10
3.71606
 20
14.78644
 30
0.0
 10
3.71606
 20
14.78644
 30
0.0
 10
3.7276
 20
14.70809
 30
0.0
 10
3.7276
 20
14.62762
 30
0.0
 10
3.72792
 20
14.54811
 30
0.0
 10
3.72792
 20
14.54811
 30
0.0
 10
3.72898
 20
14.24567
 30
0.0
 10
3.74369
 20
13.94225
 30
0.0
 10
3.7251
 20
13.64097
 30
0.0
 10
3.7251
 20
13.64097
 30
0.0
 10
3.64967
 20
12.41775
 30
0.0
 10
3.19297
 20
2.74067
 30
0.0
 10
3.13832
 20
1.51664
 30
0.0
 10
3.13832
 20
1.51664
 30
0.0
 10
3.08301
 20
0.27687
 30
0.0
 10
3.10957
 20
-0.96703
 30
0.0
 10
3.037
 20
-2.20542
 30
0.0
 10
3.037
 20
-2.20542
 30
0.0
 10
2.98031
 20
-3.17312
 30
0.0
 10
2.8101
 20
-4.13356
 30
0.0
 10
2.72021
 20
-5.10003
 30
0.0
 10
2.72021
 20
-5.10003
 30
0.0
 10
2.57585
 20
-6.65165
 30
0.0
 10
2.45622
 20
-8.20557
 30
0.0
 10
2.32393
 20
-9.78531
 30
0.0
 10
2.32393
 20
-9.78531
 30
0.0
 10
2.47415
 20
-9.8184
 30
0.0
 10
2.57592
 20
-9.8512
 30
0.0
 10
2.67996
 20
-9.86207
 30
0.0
 10
2.67996
 20
-9.86207
 30
0.0
 10
3.71035
 20
-9.96949
 30
0.0
 10
4.32288
 20
-10.62605
 30
0.0
 10
4.7926
 20
-11.46813
 30
0.0
 10
4.7926
 20
-11.46813
 30
0.0
 10
4.83818
 20
-11.54983
 30
0.0
 10
4.86048
 20
-11.64713
 30
0.0
 10
4.88069
 20
-11.74001
 30
0.0
 10
4.88069
 20
-11.74001
 30
0.0
 10
4.99866
 20
-12.28202
 30
0.0
 10
4.7346
 20
-12.58848
 30
0.0
 10
4.18875
 20
-12.52106
 30
0.0
 10
4.18875
 20
-12.52106
 30
0.0
 10
3.58494
 20
-12.44645
 30
0.0
 10
3.05376
 20
-12.2133
 30
0.0
 10
2.65071
 20
-11.73691
 30
0.0
 10
2.65071
 20
-11.73691
 30
0.0
 10
2.54911
 20
-11.61682
 30
0.0
 10
2.44702
 20
-11.49716
 30
0.0
 10
2.25976
 20
-11.27692
 30
0.0
 10
2.25976
 20
-11.27692
 30
0.0
 10
2.26484
 20
-11.95849
 30
0.0
 10
2.26911
 20
-12.52844
 30
0.0
 10
2.27292
 20
-13.043
 30
0.0
 10
2.27292
 20
-13.043
 30
0.0
 10
2.94683
 20
-13.44276
 30
0.0
 10
3.55654
 20
-13.81251
 30
0.0
 10
4.1739
 20
-14.16889
 30
0.0
 10
4.1739
 20
-14.16889
 30
0.0
 10
5.26705
 20
-14.7999
 30
0.0
 10
5.87884
 20
-15.76965
 30
0.0
 10
6.13785
 20
-16.97576
 30
0.0
 10
6.13785
 20
-16.97576
 30
0.0
 10
6.2513
 20
-17.50401
 30
0.0
 10
6.32786
 20
-18.04232
 30
0.0
 10
6.38448
 20
-18.57991
 30
0.0
 10
6.38448
 20
-18.57991
 30
0.0
 10
6.42624
 20
-18.97647
 30
0.0
 10
6.29794
 20
-19.09402
 30
0.0
 10
5.88963
 20
-19.08555
 30
0.0
 10
5.88963
 20
-19.08555
 30
0.0
 10
5.46186
 20
-19.07666
 30
0.0
 10
5.03457
 20
-19.04265
 30
0.0
 10
4.58933
 20
-19.0187
 30
0.0
  0
SPLINE
  5
53
330
1F
100
AcDbEntity
  8
Layer 1
370
    53
100
AcDbSpline
210
0.0
220
0.0
230
1.0
 70
    11
 71
     3
 72
    20
 73
    16
 74
     0
 42
0.0000000001
 43
0.0000000001
 12
1.0
 22
0.0
 32
0.0
 13
1.0
 23
0.0
 33
0.0
 40
0.0
 40
0.0
 40
0.0
 40
0.0
 40
0.2
 40
0.2
 40
0.2
 40
0.2
 40
0.4
 40
0.4
 40
0.4
 40
0.4
 40
0.6
 40
0.6
 40
0.6
 40
0.6
 40
1.0
 40
1.0
 40
1.0
 40
1.0
 10
2.30594
 20
-18.38239
 30
0.0
 10
2.32175
 20
-16.80019
 30
0.0
 10
2.33684
 20
-15.28374
 30
0.0
 10
2.35254
 20
-13.7114
 30
0.0
 10
2.35254
 20
-13.7114
 30
0.0
 10
2.03391
 20
-13.68636
 30
0.0
 10
1.7476
 20
-13.66385
 30
0.0
 10
1.40163
 20
-13.63665
 30
0.0
 10
1.40163
 20
-13.63665
 30
0.0
 10
1.40964
 20
-15.22733
 30
0.0
 10
1.41729
 20
-16.74222
 30
0.0
 10
1.42502
 20
-18.2754
 30
0.0
 10
1.42502
 20
-18.2754
 30
0.0
 10
1.72548
 20
-18.31191
 30
0.0
 10
1.97331
 20
-18.342
 30
0.0
 10
2.30594
 20
-18.38239
 30
0.0
  0
SPLINE
  5
54
330
1F
100
AcDbEntity
  8
Layer 1
370
    53
100
AcDbSpline
210
0.0
220
0.0
230
1.0
 70
    11
 71
     3
 72
    20
 73
    16
 74
     0
 42
0.0000000001
 43
0.0000000001
 12
1.0
 22
0.0
 32
0.0
 13
1.0
 23
0.0
 33
0.0
 40
0.0
 40
0.0
 40
0.0
 40
0.0
 40
0.2
 40
0.2
 40
0.2
 40
0.2
 40
0.4
 40
0.4
 40
0.4
 40
0.4
 40
0.6
 40
0.6
 40
0.6
 40
0.6
 40
1.0
 40
1.0
 40
1.0
 40
1.0
 10
0.13029
 20
-13.96332
 30
0.0
 10
0.14144
 20
-15.37754
 30
0.0
 10
0.15209
 20
-16.73595
 30
0.0
 10
0.16303
 20
-18.12628
 30
0.0
 10
0.16303
 20
-18.12628
 30
0.0
 10
0.42401
 20
-18.15898
 30
0.0
 10
0.65092
 20
-18.18734
 30
0.0
 10
0.9336
 20
-18.22273
 30
0.0
 10
0.9336
 20
-18.22273
 30
0.0
 10
0.82512
 20
-16.7092
 30
0.0
 10
0.9887
 20
-15.24588
 30
0.0
 10
0.91046
 20
-13.72619
 30
0.0
 10
0.91046
 20
-13.72619
 30
0.0
 10
0.62404
 20
-13.81325
 30
0.0
 10
0.40292
 20
-13.88046
 30
0.0
 10
0.13029
 20
-13.96332
 30
0.0
  0
SPLINE
  5
55
330
1F
100
AcDbEntity
  8
Layer 1
370
    53
100
AcDbSpline
210
0.0
220
0.0
230
1.0
 70
    11
 71
     3
 72
    20
 73
    16
 74
     0
 42
0.0000000001
 43
0.0000000001
 12
1.0
 22
0.0
 32
0.0
 13
1.0
 23
0.0
 33
0.0
 40
0.0
 40
0.0
 40
0.0
 40
0.0
 40
0.2
 40
0.2
 40
0.2
 40
0.2
 40
0.4
 40
0.4
 40
0.4
 40
0.4
 40
0.6
 40
0.6
 40
0.6
 40
0.6
 40
1.0
 40
1.0
 40
1.0
 40
1.0
 10
2.80107
 20
-18.38529
 30
0.0
 10
3.02716
 20
-18.43203
 30
0.0
 10
3.21646
 20
-18.47115
 30
0.0
 10
3.4851
 20
-18.52665
 30
0.0
 10
3.4851
 20
-18.52665
 30
0.0
 10
3.51025
 20
-17.09207
 30
0.0
 10
3.5341
 20
-15.73346
 30
0.0
 10
3.55806
 20
-14.36761
 30
0.0
 10
3.55806
 20
-14.36761
 30
0.0
 10
3.29887
 20
-14.21764
 30
0.0
 10
3.07493
 20
-14.08803
 30
0.0
 10
2.78396
 20
-13.91965
 30
0.0
 10
2.78396
 20
-13.91965
 30
0.0
 10
2.78981
 20
-15.44834
 30
0.0
 10
2.79531
 20
-16.88775
 30
0.0
 10
2.80107
 20
-18.38529
 30
0.0
  0
SPLINE
  5
56
330
1F
100
AcDbEntity
  8
Layer 1
370
    53
100
AcDbSpline
210
0.0
220
0.0
230
1.0
 70
    11
 71
     3
 72
    32
 73
    28
 74
     0
 42
0.0000000001
 43
0.0000000001
 12
1.0
 22
0.0
 32
0.0
 13
1.0
 23
0.0
 33
0.0
 40
0.0
 40
0.0
 40
0.0
 40
0.0
 40
0.125
 40
0.125
 40
0.125
 40
0.125
 40
0.25
 40
0.25
 40
0.25
 40
0.25
 40
0.375
 40
0.375
 40
0.375
 40
0.375
 40
0.5
 40
0.5
 40
0.5
 40
0.5
 40
0.625
 40
0.625
 40
0.625
 40
0.625
 40
0.75
 40
0.75
 40
0.75
 40
0.75
 40
1.0
 40
1.0
 40
1.0
 40
1.0
 10
-0.33975
 20
-14.18868
 30
0.0
 10
-0.45507
 20
-14.24498
 30
0.0
 10
-0.56193
 20
-14.30675
 30
0.0
 10
-0.6757
 20
-14.35085
 30
0.0
 10
-0.6757
 20
-14.35085
 30
0.0
 10
-0.99041
 20
-14.47277
 30
0.0
 10
-1.07766
 20
-14.70225
 30
0.0
 10
-1.06012
 20
-15.02614
 30
0.0
 10
-1.06012
 20
-15.02614
 30
0.0
 10
-1.0343
 20
-15.50218
 30
0.0
 10
-1.05458
 20
-15.98051
 30
0.0
 10
-1.04083
 20
-16.45743
 30
0.0
 10
-1.04083
 20
-16.45743
 30
0.0
 10
-1.02587
 20
-16.97675
 30
0.0
 10
-0.99447
 20
-17.49558
 30
0.0
 10
-0.96981
 20
-18.02348
 30
0.0
 10
-0.96981
 20
-18.02348
 30
0.0
 10
-0.81205
 20
-18.04122
 30
0.0
 10
-0.70308
 20
-18.05618
 30
0.0
 10
-0.59364
 20
-18.06482
 30
0.0
 10
-0.59364
 20
-18.06482
 30
0.0
 10
-0.51744
 20
-18.07089
 30
0.0
 10
-0.44057
 20
-18.06832
 30
0.0
 10
-0.36935
 20
-18.06952
 30
0.0
 10
-0.36935
 20
-18.06952
 30
0.0
 10
-0.2409
 20
-17.54762
 30
0.0
 10
-0.21734
 20
-14.66316
 30
0.0
 10
-0.33975
 20
-14.18868
 30
0.0
  0
SPLINE
  5
57
330
1F
100
AcDbEntity
  8
Layer 1
370
    53
100
AcDbSpline
210
0.0
220
0.0
230
1.0
 70
    11
 71
     3
 72
    28
 73
    24
 74
     0
 42
0.0000000001
 43
0.0000000001
 12
1.0
 22
0.0
 32
0.0
 13
1.0
 23
0.0
 33
0.0
 40
0.0
 40
0.0
 40
0.0
 40
0.0
 40
0.1428571428571428
 40
0.1428571428571428
 40
0.1428571428571428
 40
0.1428571428571428
 40
0.2857142857142857
 40
0.2857142857142857
 40
0.2857142857142857
 40
0.2857142857142857
 40
0.4285714285714285
 40
0.4285714285714285
 40
0.4285714285714285
 40
0.4285714285714285
 40
0.5714285714285714
 40
0.5714285714285714
 40
0.5714285714285714
 40
0.5714285714285714
 40
0.7142857142857143
 40
0.7142857142857143
 40
0.7142857142857143
 40
0.7142857142857143
 40
1.0
 40
1.0
 40
1.0
 40
1.0
 10
4.02485
 20
-14.70857
 30
0.0
 10
4.01663
 20
-16.06549
 30
0.0
 10
4.00912
 20
-17.29542
 30
0.0
 10
4.00143
 20
-18.55988
 30
0.0
 10
4.00143
 20
-18.55988
 30
0.0
 10
4.22784
 20
-18.58147
 30
0.0
 10
4.44134
 20
-18.60186
 30
0.0
 10
4.63438
 20
-18.62024
 30
0.0
 10
4.63438
 20
-18.62024
 30
0.0
 10
4.66666
 20
-18.56238
 30
0.0
 10
4.68095
 20
-18.54862
 30
0.0
 10
4.68123
 20
-18.53458
 30
0.0
 10
4.68123
 20
-18.53458
 30
0.0
 10
4.70099
 20
-17.53446
 30
0.0
 10
4.72155
 20
-16.53437
 30
0.0
 10
4.73404
 20
-15.53417
 30
0.0
 10
4.73404
 20
-15.53417
 30
0.0
 10
4.73489
 20
-15.46478
 30
0.0
 10
4.68994
 20
-15.38061
 30
0.0
 10
4.64045
 20
-15.32734
 30
0.0
 10
4.64045
 20
-15.32734
 30
0.0
 10
4.46928
 20
-15.14312
 30
0.0
 10
4.28672
 20
-14.96952
 30
0.0
 10
4.02485
 20
-14.70857
 30
0.0
  0
SPLINE
  5
58
330
1F
100
AcDbEntity
  8
Layer 1
370
    53
100
AcDbSpline
210
0.0
220
0.0
230
1.0
 70
    11
 71
     3
 72
    20
 73
    16
 74
     0
 42
0.0000000001
 43
0.0000000001
 12
1.0
 22
0.0
 32
0.0
 13
1.0
 23
0.0
 33
0.0
 40
0.0
 40
0.0
 40
0.0
 40
0.0
 40
0.2
 40
0.2
 40
0.2
 40
0.2
 40
0.4
 40
0.4
 40
0.4
 40
0.4
 40
0.6
 40
0.6
 40
0.6
 40
0.6
 40
1.0
 40
1.0
 40
1.0
 40
1.0
 10
-1.55197
 20
-17.98513
 30
0.0
 10
-1.55073
 20
-16.9553
 30
0.0
 10
-1.54953
 20
-15.99649
 30
0.0
 10
-1.5483
 20
-14.98342
 30
0.0
 10
-1.5483
 20
-14.98342
 30
0.0
 10
-1.81373
 20
-15.13342
 30
0.0
 10
-2.02363
 20
-15.25191
 30
0.0
 10
-2.04007
 20
-15.49473
 30
0.0
 10
-2.04007
 20
-15.49473
 30
0.0
 10
-2.09362
 20
-16.28383
 30
0.0
 10
-2.12213
 20
-17.07465
 30
0.0
 10
-2.16213
 20
-17.90293
 30
0.0
 10
-2.16213
 20
-17.90293
 30
0.0
 10
-1.96186
 20
-17.92992
 30
0.0
 10
-1.79372
 20
-17.95257
 30
0.0
 10
-1.55197
 20
-17.98513
 30
0.0
  0
SPLINE
  5
59
330
1F
100
AcDbEntity
  8
Layer 1
370
    53
100
AcDbSpline
210
0.0
220
0.0
230
1.0
 70
    11
 71
     3
 72
    20
 73
    16
 74
     0
 42
0.0000000001
 43
0.0000000001
 12
1.0
 22
0.0
 32
0.0
 13
1.0
 23
0.0
 33
0.0
 40
0.0
 40
0.0
 40
0.0
 40
0.0
 40
0.2
 40
0.2
 40
0.2
 40
0.2
 40
0.4
 40
0.4
 40
0.4
 40
0.4
 40
0.6
 40
0.6
 40
0.6
 40
0.6
 40
1.0
 40
1.0
 40
1.0
 40
1.0
 10
5.30416
 20
-16.14762
 30
0.0
 10
5.2691
 20
-16.15471
 30
0.0
 10
5.234
 20
-16.16183
 30
0.0
 10
5.1989
 20
-16.16893
 30
0.0
 10
5.1989
 20
-16.16893
 30
0.0
 10
5.21883
 20
-16.99054
 30
0.0
 10
5.23872
 20
-17.81213
 30
0.0
 10
5.2595
 20
-18.66906
 30
0.0
 10
5.2595
 20
-18.66906
 30
0.0
 10
5.5008
 20
-18.68046
 30
0.0
 10
5.67938
 20
-18.68892
 30
0.0
 10
5.90547
 20
-18.69961
 30
0.0
 10
5.90547
 20
-18.69961
 30
0.0
 10
5.80363
 20
-17.78214
 30
0.0
 10
5.81312
 20
-16.90263
 30
0.0
 10
5.30416
 20
-16.14762
 30
0.0
  0
SPLINE
  5
5A
330
1F
100
AcDbEntity
  8
Layer 1
370
    53
100
AcDbSpline
210
0.0
220
0.0
230
1.0
 70
    11
 71
     3
 72
    12
 73
     8
 74
     0
 42
0.0000000001
 43
0.0000000001
 12
1.0
 22
0.0
 32
0.0
 13
1.0
 23
0.0
 33
0.0
 40
0.0
 40
0.0
 40
0.0
 40
0.0
 40
0.3333333333333333
 40
0.3333333333333333
 40
0.3333333333333333
 40
0.3333333333333333
 40
1.0
 40
1.0
 40
1.0
 40
1.0
 10
1.25085
 20
-10.53715
 30
0.0
 10
0.27906
 20
-10.56935
 30
0.0
 10
-0.5868
 20
-11.22612
 30
0.0
 10
-0.7766
 20
-12.04584
 30
0.0
 10
-0.7766
 20
-12.04584
 30
0.0
 10
-0.02828
 20
-11.60585
 30
0.0
 10
0.62996
 20
-11.09799
 30
0.0
 10
1.25085
 20
-10.53715
 30
0.0
  0
SPLINE
  5
5B
330
1F
100
AcDbEntity
  8
Layer 1
370
    53
100
AcDbSpline
210
0.0
220
0.0
230
1.0
 70
    11
 71
     3
 72
    24
 73
    20
 74
     0
 42
0.0000000001
 43
0.0000000001
 12
1.0
 22
0.0
 32
0.0
 13
1.0
 23
0.0
 33
0.0
 40
0.0
 40
0.0
 40
0.0
 40
0.0
 40
0.1666666666666667
 40
0.1666666666666667
 40
0.1666666666666667
 40
0.1666666666666667
 40
0.3333333333333333
 40
0.3333333333333333
 40
0.3333333333333333
 40
0.3333333333333333
 40
0.5
 40
0.5
 40
0.5
 40
0.5
 40
0.6666666666666666
 40
0.6666666666666666
 40
0.6666666666666666
 40
0.6666666666666666
 40
1.0
 40
1.0
 40
1.0
 40
1.0
 10
-2.49353
 20
-15.97264
 30
0.0
 10
-2.52877
 20
-15.95602
 30
0.0
 10
-2.56401
 20
-15.93941
 30
0.0
 10
-2.59922
 20
-15.92279
 30
0.0
 10
-2.59922
 20
-15.92279
 30
0.0
 10
-2.72964
 20
-16.1116
 30
0.0
 10
-2.93542
 20
-16.28608
 30
0.0
 10
-2.97454
 20
-16.49221
 30
0.0
 10
-2.97454
 20
-16.49221
 30
0.0
 10
-3.05233
 20
-16.90235
 30
0.0
 10
-3.03843
 20
-17.32992
 30
0.0
 10
-3.06372
 20
-17.77325
 30
0.0
 10
-3.06372
 20
-17.77325
 30
0.0
 10
-2.88204
 20
-17.79382
 30
0.0
 10
-2.74661
 20
-17.80913
 30
0.0
 10
-2.56504
 20
-17.82966
 30
0.0
 10
-2.56504
 20
-17.82966
 30
0.0
 10
-2.54045
 20
-17.19085
 30
0.0
 10
-2.51699
 20
-16.58175
 30
0.0
 10
-2.49353
 20
-15.97264
 30
0.0
  0
SPLINE
  5
5C
330
1F
100
AcDbEntity
  8
Layer 1
370
    53
100
AcDbSpline
210
0.0
220
0.0
230
1.0
 70
    11
 71
     3
 72
    12
 73
     8
 74
     0
 42
0.0000000001
 43
0.0000000001
 12
1.0
 22
0.0
 32
0.0
 13
1.0
 23
0.0
 33
0.0
 40
0.0
 40
0.0
 40
0.0
 40
0.0
 40
0.3333333333333333
 40
0.3333333333333333
 40
0.3333333333333333
 40
0.3333333333333333
 40
1.0
 40
1.0
 40
1.0
 40
1.0
 10
2.66906
 20
-10.2781
 30
0.0
 10
3.2946
 20
-10.87832
 30
0.0
 10
3.86832
 20
-11.42883
 30
0.0
 10
4.50262
 20
-12.03751
 30
0.0
 10
4.50262
 20
-12.03751
 30
0.0
 10
4.39675
 20
-11.14533
 30
0.0
 10
3.58709
 20
-10.38732
 30
0.0
 10
2.66906
 20
-10.2781
 30
0.0
  0
SPLINE
  5
5D
330
1F
100
AcDbEntity
  8
Layer 1
370
    53
100
AcDbSpline
210
0.0
220
0.0
230
1.0
 70
    11
 71
     3
 72
    16
 73
    12
 74
     0
 42
0.0000000001
 43
0.0000000001
 12
1.0
 22
0.0
 32
0.0
 13
1.0
 23
0.0
 33
0.0
 40
0.0
 40
0.0
 40
0.0
 40
0.0
 40
0.25
 40
0.25
 40
0.25
 40
0.25
 40
0.5
 40
0.5
 40
0.5
 40
0.5
 40
1.0
 40
1.0
 40
1.0
 40
1.0
 10
1.28169
 20
-11.2166
 30
0.0
 10
1.28169
 20
-11.2166
 30
0.0
 10
1.22076
 20
-11.13189
 30
0.0
 10
1.22076
 20
-11.13189
 30
0.0
 10
1.22076
 20
-11.13189
 30
0.0
 10
0.64563
 20
-11.54348
 30
0.0
 10
0.07046
 20
-11.95507
 30
0.0
 10
-0.50464
 20
-12.36669
 30
0.0
 10
-0.50464
 20
-12.36669
 30
0.0
 10
0.33659
 20
-12.32509
 30
0.0
 10
0.86241
 20
-11.84493
 30
0.0
 10
1.28169
 20
-11.2166
 30
0.0
  0
SPLINE
  5
5E
330
1F
100
AcDbEntity
  8
Layer 1
370
    53
100
AcDbSpline
210
0.0
220
0.0
230
1.0
 70
    11
 71
     3
 72
    16
 73
    12
 74
     0
 42
0.0000000001
 43
0.0000000001
 12
1.0
 22
0.0
 32
0.0
 13
1.0
 23
0.0
 33
0.0
 40
0.0
 40
0.0
 40
0.0
 40
0.0
 40
0.25
 40
0.25
 40
0.25
 40
0.25
 40
0.5
 40
0.5
 40
0.5
 40
0.5
 40
1.0
 40
1.0
 40
1.0
 40
1.0
 10
-0.72908
 20
-18.44741
 30
0.0
 10
-0.97627
 20
-18.42621
 30
0.0
 10
-1.21856
 20
-18.40543
 30
0.0
 10
-1.45389
 20
-18.38522
 30
0.0
 10
-1.45389
 20
-18.38522
 30
0.0
 10
-1.57719
 20
-18.88147
 30
0.0
 10
-1.53987
 20
-19.02579
 30
0.0
 10
-1.29204
 20
-19.09486
 30
0.0
 10
-1.29204
 20
-19.09486
 30
0.0
 10
-1.03088
 20
-19.16764
 30
0.0
 10
-0.82849
 20
-18.94733
 30
0.0
 10
-0.72908
 20
-18.44741
 30
0.0
  0
SPLINE
  5
5F
330
1F
100
AcDbEntity
  8
Layer 1
370
    53
100
AcDbSpline
210
0.0
220
0.0
230
1.0
 70
    11
 71
     3
 72
    16
 73
    12
 74
     0
 42
0.0000000001
 43
0.0000000001
 12
1.0
 22
0.0
 32
0.0
 13
1.0
 23
0.0
 33
0.0
 40
0.0
 40
0.0
 40
0.0
 40
0.0
 40
0.25
 40
0.25
 40
0.25
 40
0.25
 40
0.5
 40
0.5
 40
0.5
 40
0.5
 40
1.0
 40
1.0
 40
1.0
 40
1.0
 10
3.94174
 20
-18.95647
 30
0.0
 10
3.67793
 20
-18.93153
 30
0.0
 10
3.41857
 20
-18.90705
 30
0.0
 10
3.15783
 20
-18.88239
 30
0.0
 10
3.15783
 20
-18.88239
 30
0.0
 10
3.12629
 20
-19.3864
 30
0.0
 10
3.1948
 20
-19.53358
 30
0.0
 10
3.45113
 20
-19.56727
 30
0.0
 10
3.45113
 20
-19.56727
 30
0.0
 10
3.71455
 20
-19.60188
 30
0.0
 10
3.84606
 20
-19.44701
 30
0.0
 10
3.94174
 20
-18.95647
 30
0.0
  0
SPLINE
  5
60
330
1F
100
AcDbEntity
  8
Layer 1
370
    53
100
AcDbSpline
210
0.0
220
0.0
230
1.0
 70
    11
 71
     3
 72
    12
 73
     8
 74
     0
 42
0.0000000001
 43
0.0000000001
 12
1.0
 22
0.0
 32
0.0
 13
1.0
 23
0.0
 33
0.0
 40
0.0
 40
0.0
 40
0.0
 40
0.0
 40
0.3333333333333333
 40
0.3333333333333333
 40
0.3333333333333333
 40
0.3333333333333333
 40
1.0
 40
1.0
 40
1.0
 40
1.0
 10
3.81304
 20
-12.04788
 30
0.0
 10
3.68139
 20
-11.71242
 30
0.0
 10
2.80145
 20
-10.86936
 30
0.0
 10
2.41696
 20
-10.72451
 30
0.0
 10
2.41696
 20
-10.72451
 30
0.0
 10
2.7521
 20
-11.33181
 30
0.0
 10
3.11842
 20
-11.85202
 30
0.0
 10
3.81304
 20
-12.04788
 30
0.0
  0
SPLINE
  5
61
330
1F
100
AcDbEntity
  8
Layer 1
370
    53
100
AcDbSpline
210
0.0
220
0.0
230
1.0
 70
    11
 71
     3
 72
    16
 73
    12
 74
     0
 42
0.0000000001
 43
0.0000000001
 12
1.0
 22
0.0
 32
0.0
 13
1.0
 23
0.0
 33
0.0
 40
0.0
 40
0.0
 40
0.0
 40
0.0
 40
0.25
 40
0.25
 40
0.25
 40
0.25
 40
0.5
 40
0.5
 40
0.5
 40
0.5
 40
1.0
 40
1.0
 40
1.0
 40
1.0
 10
0.96937
 20
-19.26476
 30
0.0
 10
1.46093
 20
-19.24832
 30
0.0
 10
1.57089
 20
-19.16217
 30
0.0
 10
1.70724
 20
-18.69242
 30
0.0
 10
1.70724
 20
-18.69242
 30
0.0
 10
1.476
 20
-18.67171
 30
0.0
 10
1.25477
 20
-18.65192
 30
0.0
 10
0.99163
 20
-18.62839
 30
0.0
 10
0.99163
 20
-18.62839
 30
0.0
 10
0.98292
 20
-18.87695
 30
0.0
 10
0.97622
 20
-19.06911
 30
0.0
 10
0.96937
 20
-19.26476
 30
0.0
  0
SPLINE
  5
62
330
1F
100
AcDbEntity
  8
Layer 1
370
    53
100
AcDbSpline
210
0.0
220
0.0
230
1.0
 70
    11
 71
     3
 72
    20
 73
    16
 74
     0
 42
0.0000000001
 43
0.0000000001
 12
1.0
 22
0.0
 32
0.0
 13
1.0
 23
0.0
 33
0.0
 40
0.0
 40
0.0
 40
0.0
 40
0.0
 40
0.2
 40
0.2
 40
0.2
 40
0.2
 40
0.4
 40
0.4
 40
0.4
 40
0.4
 40
0.6
 40
0.6
 40
0.6
 40
0.6
 40
1.0
 40
1.0
 40
1.0
 40
1.0
 10
-3.88171
 20
-17.63514
 30
0.0
 10
-3.71869
 20
-17.655
 30
0.0
 10
-3.62005
 20
-17.66703
 30
0.0
 10
-3.49376
 20
-17.68241
 30
0.0
 10
-3.49376
 20
-17.68241
 30
0.0
 10
-3.48963
 20
-17.48327
 30
0.0
 10
-3.48618
 20
-17.31531
 30
0.0
 10
-3.48268
 20
-17.14732
 30
0.0
 10
-3.48268
 20
-17.14732
 30
0.0
 10
-3.51426
 20
-17.14164
 30
0.0
 10
-3.54583
 20
-17.13592
 30
0.0
 10
-3.5774
 20
-17.13021
 30
0.0
 10
-3.5774
 20
-17.13021
 30
0.0
 10
-3.66934
 20
-17.28279
 30
0.0
 10
-3.76131
 20
-17.43536
 30
0.0
 10
-3.88171
 20
-17.63514
 30
0.0
  0
ENDSEC
  0
SECTION
  2
OBJECTS
  0
DICTIONARY
  5
C
330
0
100
AcDbDictionary
281
     1
  3
ACAD_GROUP
350
D
  3
ACAD_LAYOUT
350
1A
  3
ACAD_MATERIAL
350
3B
  3
ACAD_MLEADERSTYLE
350
84
  3
ACAD_MLINESTYLE
350
17
  3
ACAD_PLOTSETTINGS
350
19
  3
ACAD_PLOTSTYLENAME
350
E
  3
ACAD_TABLESTYLE
350
83
  3
ACAD_VISUALSTYLE
350
2A
  0
DICTIONARY
  5
D
102
{ACAD_REACTORS
330
C
102
}
330
C
100
AcDbDictionary
281
     1
  0
DICTIONARY
  5
1A
102
{ACAD_REACTORS
330
C
102
}
330
C
100
AcDbDictionary
281
     1
  3
Layout1
350
1E
  3
Layout2
350
26
  3
Model
350
22
  0
DICTIONARY
  5
3B
102
{ACAD_REACTORS
330
C
102
}
330
C
100
AcDbDictionary
281
     1
  3
ByBlock
350
3D
  3
ByLayer
350
3C
  3
Global
350
3E
  0
DICTIONARY
  5
84
102
{ACAD_REACTORS
330
C
102
}
330
C
100
AcDbDictionary
281
     1
  0
DICTIONARY
  5
17
102
{ACAD_REACTORS
330
C
102
}
330
C
100
AcDbDictionary
281
     1
  3
Standard
350
18
  0
DICTIONARY
  5
19
102
{ACAD_REACTORS
330
C
102
}
330
C
100
AcDbDictionary
281
     1
  0
ACDBDICTIONARYWDFLT
  5
E
102
{ACAD_REACTORS
330
C
102
}
330
C
100
AcDbDictionary
281
     1
  3
Normal
350
F
100
AcDbDictionaryWithDefault
340
F
  0
DICTIONARY
  5
83
102
{ACAD_REACTORS
330
C
102
}
330
C
100
AcDbDictionary
281
     1
  0
DICTIONARY
  5
2A
102
{ACAD_REACTORS
330
C
102
}
330
C
100
AcDbDictionary
281
     1
  3
2dWireframe
350
2F
  3
3D Hidden
350
31
  3
3dWireframe
350
30
  3
Basic
350
32
  3
Brighten
350
36
  3
ColorChange
350
3A
  3
Conceptual
350
34
  3
Dim
350
35
  3
Facepattern
350
39
  3
Flat
350
2B
  3
FlatWithEdges
350
2C
  3
Gouraud
350
2D
  3
GouraudWithEdges
350
2E
  3
Linepattern
350
38
  3
Realistic
350
33
  3
Thicken
350
37
  0
LAYOUT
  5
1E
102
{ACAD_REACTORS
330
1A
102
}
330
1A
100
AcDbPlotSettings
  1

  2
none_device
  4

  6

 40
0.0
 41
0.0
 42
0.0
 43
0.0
 44
0.0
 45
0.0
 46
0.0
 47
0.0
 48
0.0
 49
0.0
140
0.0
141
0.0
142
1.0
143
1.0
 70
   688
 72
     0
 73
     0
 74
     5
  7

 75
    16
 76
     0
 77
     2
 78
   300
147
1.0
148
0.0
149
0.0
100
AcDbLayout
  1
Layout1
 70
     1
 71
     1
 10
0.0
 20
0.0
 11
12.0
 21
9.0
 12
0.0
 22
0.0
 32
0.0
 14
1.000000000000000E+20
 24
1.000000000000000E+20
 34
1.000000000000000E+20
 15
-1.000000000000000E+20
 25
-1.000000000000000E+20
 35
-1.000000000000000E+20
146
0.0
 13
0.0
 23
0.0
 33
0.0
 16
1.0
 26
0.0
 36
0.0
 17
0.0
 27
1.0
 37
0.0
 76
     0
330
1B
  0
LAYOUT
  5
26
102
{ACAD_REACTORS
330
1A
102
}
330
1A
100
AcDbPlotSettings
  1

  2
none_device
  4

  6

 40
0.0
 41
0.0
 42
0.0
 43
0.0
 44
0.0
 45
0.0
 46
0.0
 47
0.0
 48
0.0
 49
0.0
140
0.0
141
0.0
142
1.0
143
1.0
 70
   688
 72
     0
 73
     0
 74
     5
  7

 75
    16
 76
     0
 77
     2
 78
   300
147
1.0
148
0.0
149
0.0
100
AcDbLayout
  1
Layout2
 70
     1
 71
     2
 10
0.0
 20
0.0
 11
0.0
 21
0.0
 12
0.0
 22
0.0
 32
0.0
 14
0.0
 24
0.0
 34
0.0
 15
0.0
 25
0.0
 35
0.0
146
0.0
 13
0.0
 23
0.0
 33
0.0
 16
1.0
 26
0.0
 36
0.0
 17
0.0
 27
1.0
 37
0.0
 76
     0
330
23
  0
LAYOUT
  5
22
102
{ACAD_REACTORS
330
1A
102
}
330
1A
100
AcDbPlotSettings
  1

  2
none_device
  4

  6

 40
0.0
 41
0.0
 42
0.0
 43
0.0
 44
0.0
 45
0.0
 46
0.0
 47
0.0
 48
0.0
 49
0.0
140
0.0
141
0.0
142
1.0
143
1.0
 70
  1712
 72
     0
 73
     0
 74
     0
  7

 75
     0
 76
     0
 77
     2
 78
   300
147
1.0
148
0.0
149
0.0
100
AcDbLayout
  1
Model
 70
     1
 71
     0
 10
0.0
 20
0.0
 11
12.0
 21
9.0
 12
0.0
 22
0.0
 32
0.0
 14
-6.41841
 24
-20.13468
 34
0.0
 15
6.41841
 25
20.13468
 35
0.0
146
0.0
 13
0.0
 23
0.0
 33
0.0
 16
1.0
 26
0.0
 36
0.0
 17
0.0
 27
1.0
 37
0.0
 76
     0
330
1F
331
29
  0
MATERIAL
  5
3D
102
{ACAD_REACTORS
330
3B
102
}
330
3B
100
AcDbMaterial
  1
ByBlock
 72
     1
 94
      127
  0
MATERIAL
  5
3C
102
{ACAD_REACTORS
330
3B
102
}
330
3B
100
AcDbMaterial
  1
ByLayer
 72
     1
 94
      127
  0
MATERIAL
  5
3E
102
{ACAD_REACTORS
330
3B
102
}
330
3B
100
AcDbMaterial
  1
Global
 72
     1
 94
      127
  0
MLINESTYLE
  5
18
102
{ACAD_REACTORS
330
17
102
}
330
17
100
AcDbMlineStyle
  2
Standard
 70
     0
  3

 62
   256
 51
90.0
 52
90.0
 71
     2
 49
0.5
 62
   256
  6
BYLAYER
 49
-0.5
 62
   256
  6
BYLAYER
  0
ACDBPLACEHOLDER
  5
F
102
{ACAD_REACTORS
330
E
102
}
330
E
  0
VISUALSTYLE
  5
2F
102
{ACAD_REACTORS
330
2A
102
}
102
{ACAD_XDICTIONARY
360
6B
102
}
330
2A
100
AcDbVisualStyle
  2
2dWireframe
 70
     4
 71
     0
 72
     2
 73
     0
 90
        0
 40
-0.6
 41
-30.0
 62
     5
 63
     7
421
 16777215
 74
     1
 91
        4
 64
     7
 65
   257
 75
     1
175
     1
 42
1.0
 92
        0
 66
   257
 43
1.0
 76
     1
 77
     6
 78
     2
 67
     7
 79
     5
170
     0
171
     0
290
     0
174
     0
 93
        1
 44
0.0
173
     0
291
     0
 45
0.0
  0
VISUALSTYLE
  5
31
102
{ACAD_REACTORS
330
2A
102
}
102
{ACAD_XDICTIONARY
360
6F
102
}
330
2A
100
AcDbVisualStyle
  2
3D Hidden
 70
     6
 71
     1
 72
     2
 73
     2
 90
        0
 40
-0.6
 41
-30.0
 62
     5
 63
     7
421
 16777215
 74
     2
 91
        2
 64
     7
 65
   257
 75
     2
175
     1
 42
40.0
 92
        0
 66
   257
 43
1.0
 76
     1
 77
     6
 78
     2
 67
     7
 79
     3
170
     0
171
     0
290
     0
174
     0
 93
        1
 44
0.0
173
     0
291
     0
 45
0.0
  0
VISUALSTYLE
  5
30
102
{ACAD_REACTORS
330
2A
102
}
102
{ACAD_XDICTIONARY
360
6D
102
}
330
2A
100
AcDbVisualStyle
  2
3dWireframe
 70
     5
 71
     0
 72
     2
 73
     0
 90
        0
 40
-0.6
 41
-30.0
 62
     5
 63
     7
421
 16777215
 74
     1
 91
        4
 64
     7
 65
   257
 75
     1
175
     1
 42
1.0
 92
        0
 66
   257
 43
1.0
 76
     1
 77
     6
 78
     2
 67
     7
 79
     5
170
     0
171
     0
290
     0
174
     0
 93
        1
 44
0.0
173
     0
291
     0
 45
0.0
  0
VISUALSTYLE
  5
32
102
{ACAD_REACTORS
330
2A
102
}
102
{ACAD_XDICTIONARY
360
71
102
}
330
2A
100
AcDbVisualStyle
  2
Basic
 70
     7
 71
     1
 72
     0
 73
     1
 90
        0
 40
-0.6
 41
-30.0
 62
     5
 63
     7
421
 16777215
 74
     0
 91
        4
 64
     7
 65
   257
 75
     1
175
     1
 42
1.0
 92
        8
 66
     7
 43
1.0
 76
     1
 77
     6
 78
     2
 67
     7
 79
     5
170
     0
171
     0
290
     0
174
     0
 93
        1
 44
0.0
173
     0
291
     1
 45
0.0
  0
VISUALSTYLE
  5
36
102
{ACAD_REACTORS
330
2A
102
}
102
{ACAD_XDICTIONARY
360
79
102
}
330
2A
100
AcDbVisualStyle
  2
Brighten
 70
    12
 71
     2
 72
     2
 73
     0
 90
        0
 40
-0.6
 41
-30.0
 62
     5
 63
     7
421
 16777215
 74
     1
 91
        4
 64
     7
 65
   257
 75
     1
175
     1
 42
1.0
 92
        8
 66
     7
 43
1.0
 76
     1
 77
     6
 78
     2
 67
     7
 79
     5
170
     0
171
     0
290
     0
174
     0
 93
        1
 44
50.0
173
     0
291
     1
 45
0.0
  0
VISUALSTYLE
  5
3A
102
{ACAD_REACTORS
330
2A
102
}
102
{ACAD_XDICTIONARY
360
81
102
}
330
2A
100
AcDbVisualStyle
  2
ColorChange
 70
    16
 71
     2
 72
     2
 73
     3
 90
        0
 40
-0.6
 41
-30.0
 62
     5
 63
     8
421
  8421504
 74
     1
 91
        4
 64
     7
 65
   257
 75
     1
175
     1
 42
1.0
 92
        8
 66
     8
424
  8421504
 43
1.0
 76
     1
 77
     6
 78
     2
 67
     7
 79
     5
170
     0
171
     0
290
     0
174
     0
 93
        1
 44
0.0
173
     0
291
     1
 45
0.0
  0
VISUALSTYLE
  5
34
102
{ACAD_REACTORS
330
2A
102
}
102
{ACAD_XDICTIONARY
360
75
102
}
330
2A
100
AcDbVisualStyle
  2
Conceptual
 70
     9
 71
     3
 72
     2
 73
     0
 90
        0
 40
-0.6
 41
-30.0
 62
     5
 63
     7
421
 16777215
 74
     2
 91
        2
 64
     7
 65
   257
 75
     1
175
     1
 42
40.0
 92
        8
 66
     7
 43
1.0
 76
     1
 77
     6
 78
     2
 67
     7
 79
     3
170
     0
171
     0
290
     0
174
     0
 93
        1
 44
0.0
173
     0
291
     0
 45
0.0
  0
VISUALSTYLE
  5
35
102
{ACAD_REACTORS
330
2A
102
}
102
{ACAD_XDICTIONARY
360
77
102
}
330
2A
100
AcDbVisualStyle
  2
Dim
 70
    11
 71
     2
 72
     2
 73
     0
 90
        0
 40
-0.6
 41
-30.0
 62
     5
 63
     7
421
 16777215
 74
     1
 91
        4
 64
     7
 65
   257
 75
     1
175
     1
 42
1.0
 92
        8
 66
     7
 43
1.0
 76
     1
 77
     6
 78
     2
 67
     7
 79
     5
170
     0
171
     0
290
     0
174
     0
 93
        1
 44
-50.0
173
     0
291
     1
 45
0.0
  0
VISUALSTYLE
  5
39
102
{ACAD_REACTORS
330
2A
102
}
102
{ACAD_XDICTIONARY
360
7F
102
}
330
2A
100
AcDbVisualStyle
  2
Facepattern
 70
    15
 71
     2
 72
     2
 73
     0
 90
        0
 40
-0.6
 41
-30.0
 62
     5
 63
     7
421
 16777215
 74
     1
 91
        4
 64
     7
 65
   257
 75
     1
175
     1
 42
1.0
 92
        8
 66
     7
 43
1.0
 76
     1
 77
     6
 78
     2
 67
     7
 79
     5
170
     0
171
     0
290
     0
174
     0
 93
        1
 44
0.0
173
     0
291
     1
 45
0.0
  0
VISUALSTYLE
  5
2B
102
{ACAD_REACTORS
330
2A
102
}
102
{ACAD_XDICTIONARY
360
63
102
}
330
2A
100
AcDbVisualStyle
  2
Flat
 70
     0
 71
     2
 72
     1
 73
     1
 90
        2
 40
-0.6
 41
30.0
 62
     5
 63
     7
421
 16777215
 74
     0
 91
        4
 64
     7
 65
   257
 75
     1
175
     1
 42
1.0
 92
        8
 66
     7
 43
1.0
 76
     1
 77
     6
 78
     2
 67
     7
 79
     5
170
     0
171
     0
290
     0
174
     0
 93
       13
 44
0.0
173
     0
291
     1
 45
0.0
  0
VISUALSTYLE
  5
2C
102
{ACAD_REACTORS
330
2A
102
}
102
{ACAD_XDICTIONARY
360
65
102
}
330
2A
100
AcDbVisualStyle
  2
FlatWithEdges
 70
     1
 71
     2
 72
     1
 73
     1
 90
        2
 40
-0.6
 41
30.0
 62
     5
 63
     7
421
 16777215
 74
     1
 91
        4
 64
     7
 65
   257
 75
     1
175
     1
 42
1.0
 92
        0
 66
   257
 43
1.0
 76
     1
 77
     6
 78
     2
 67
     7
 79
     5
170
     0
171
     0
290
     0
174
     0
 93
       13
 44
0.0
173
     0
291
     1
 45
0.0
  0
VISUALSTYLE
  5
2D
102
{ACAD_REACTORS
330
2A
102
}
102
{ACAD_XDICTIONARY
360
67
102
}
330
2A
100
AcDbVisualStyle
  2
Gouraud
 70
     2
 71
     2
 72
     2
 73
     1
 90
        2
 40
-0.6
 41
30.0
 62
     5
 63
     7
421
 16777215
 74
     0
 91
        4
 64
     7
 65
   257
 75
     1
175
     1
 42
1.0
 92
        0
 66
     7
 43
1.0
 76
     1
 77
     6
 78
     2
 67
     7
 79
     5
170
     0
171
     0
290
     0
174
     0
 93
       13
 44
0.0
173
     0
291
     1
 45
0.0
  0
VISUALSTYLE
  5
2E
102
{ACAD_REACTORS
330
2A
102
}
102
{ACAD_XDICTIONARY
360
69
102
}
330
2A
100
AcDbVisualStyle
  2
GouraudWithEdges
 70
     3
 71
     2
 72
     2
 73
     1
 90
        2
 40
-0.6
 41
30.0
 62
     5
 63
     7
421
 16777215
 74
     1
 91
        4
 64
     7
 65
   257
 75
     1
175
     1
 42
1.0
 92
        0
 66
   257
 43
1.0
 76
     1
 77
     6
 78
     2
 67
     7
 79
     5
170
     0
171
     0
290
     0
174
     0
 93
       13
 44
0.0
173
     0
291
     1
 45
0.0
  0
VISUALSTYLE
  5
38
102
{ACAD_REACTORS
330
2A
102
}
102
{ACAD_XDICTIONARY
360
7D
102
}
330
2A
100
AcDbVisualStyle
  2
Linepattern
 70
    14
 71
     2
 72
     2
 73
     0
 90
        0
 40
-0.6
 41
-30.0
 62
     5
 63
     7
421
 16777215
 74
     1
 91
        4
 64
     7
 65
   257
 75
     7
175
     7
 42
1.0
 92
        8
 66
     7
 43
1.0
 76
     1
 77
     6
 78
     2
 67
     7
 79
     5
170
     0
171
     0
290
     0
174
     0
 93
        1
 44
0.0
173
     0
291
     1
 45
0.0
  0
VISUALSTYLE
  5
33
102
{ACAD_REACTORS
330
2A
102
}
102
{ACAD_XDICTIONARY
360
73
102
}
330
2A
100
AcDbVisualStyle
  2
Realistic
 70
     8
 71
     2
 72
     2
 73
     0
 90
        0
 40
-0.6
 41
-30.0
 62
     5
 63
     7
421
 16777215
 74
     1
 91
        0
 64
     7
 65
   257
 75
     1
175
     1
 42
1.0
 92
        8
 66
     8
424
  7895160
 43
1.0
 76
     1
 77
     6
 78
     2
 67
     7
 79
     5
170
     0
171
     0
290
     0
174
     0
 93
       13
 44
0.0
173
     0
291
     0
 45
0.0
  0
VISUALSTYLE
  5
37
102
{ACAD_REACTORS
330
2A
102
}
102
{ACAD_XDICTIONARY
360
7B
102
}
330
2A
100
AcDbVisualStyle
  2
Thicken
 70
    13
 71
     2
 72
     2
 73
     0
 90
        0
 40
-0.6
 41
-30.0
 62
     5
 63
     7
421
 16777215
 74
     1
 91
        4
 64
     7
 65
   257
 75
     1
175
     1
 42
1.0
 92
       12
 66
     7
 43
1.0
 76
     1
 77
     6
 78
     2
 67
     7
 79
     5
170
     0
171
     0
290
     0
174
     0
 93
        1
 44
0.0
173
     0
291
     1
 45
0.0
  0
DICTIONARY
  5
6B
330
2F
100
AcDbDictionary
280
     1
281
     1
  3
ACAD_XREC_ROUNDTRIP
360
6C
  0
DICTIONARY
  5
6F
330
31
100
AcDbDictionary
280
     1
281
     1
  3
ACAD_XREC_ROUNDTRIP
360
70
  0
DICTIONARY
  5
6D
330
30
100
AcDbDictionary
280
     1
281
     1
  3
ACAD_XREC_ROUNDTRIP
360
6E
  0
DICTIONARY
  5
71
330
32
100
AcDbDictionary
280
     1
281
     1
  3
ACAD_XREC_ROUNDTRIP
360
72
  0
DICTIONARY
  5
79
330
36
100
AcDbDictionary
280
     1
281
     1
  3
ACAD_XREC_ROUNDTRIP
360
7A
  0
DICTIONARY
  5
81
330
3A
100
AcDbDictionary
280
     1
281
     1
  3
ACAD_XREC_ROUNDTRIP
360
82
  0
DICTIONARY
  5
75
330
34
100
AcDbDictionary
280
     1
281
     1
  3
ACAD_XREC_ROUNDTRIP
360
76
  0
DICTIONARY
  5
77
330
35
100
AcDbDictionary
280
     1
281
     1
  3
ACAD_XREC_ROUNDTRIP
360
78
  0
DICTIONARY
  5
7F
330
39
100
AcDbDictionary
280
     1
281
     1
  3
ACAD_XREC_ROUNDTRIP
360
80
  0
DICTIONARY
  5
63
330
2B
100
AcDbDictionary
280
     1
281
     1
  3
ACAD_XREC_ROUNDTRIP
360
64
  0
DICTIONARY
  5
65
330
2C
100
AcDbDictionary
280
     1
281
     1
  3
ACAD_XREC_ROUNDTRIP
360
66
  0
DICTIONARY
  5
67
330
2D
100
AcDbDictionary
280
     1
281
     1
  3
ACAD_XREC_ROUNDTRIP
360
68
  0
DICTIONARY
  5
69
330
2E
100
AcDbDictionary
280
     1
281
     1
  3
ACAD_XREC_ROUNDTRIP
360
6A
  0
DICTIONARY
  5
7D
330
38
100
AcDbDictionary
280
     1
281
     1
  3
ACAD_XREC_ROUNDTRIP
360
7E
  0
DICTIONARY
  5
73
330
33
100
AcDbDictionary
280
     1
281
     1
  3
ACAD_XREC_ROUNDTRIP
360
74
  0
DICTIONARY
  5
7B
330
37
100
AcDbDictionary
280
     1
281
     1
  3
ACAD_XREC_ROUNDTRIP
360
7C
  0
XRECORD
  5
6C
102
{ACAD_REACTORS
330
6B
102
}
330
6B
100
AcDbXrecord
280
     1
102
RTVSPropertyOp0
 70
     1
102
RTVSPropertyOp1
 70
     1
102
RTVSPropertyOp2
 70
     1
102
RTVSPropertyOp3
 70
     1
102
RTVSPropertyOp4
 70
     1
102
RTVSPropertyOp5
 70
     1
102
RTVSPropertyOp6
 70
     1
102
RTVSPropertyOp7
 70
     1
102
RTVSPropertyOp8
 70
     1
102
RTVSPropertyOp9
 70
     1
102
RTVSPropertyOp10
 70
     1
102
RTVSPropertyOp11
 70
     1
102
RTVSPropertyOp12
 70
     1
102
RTVSPropertyOp13
 70
     1
102
RTVSPropertyOp14
 70
     1
102
RTVSPropertyOp15
 70
     1
102
RTVSPropertyOp16
 70
     1
102
RTVSPropertyOp17
 70
     1
102
RTVSPropertyOp18
 70
     1
102
RTVSPropertyOp19
 70
     1
102
RTVSPropertyOp20
 70
     1
102
RTVSPropertyOp21
 70
     1
102
RTVSPropertyOp22
 70
     1
102
RTVSPropertyOp23
 70
     1
102
RTVSPropertyOp24
 70
     1
102
RTVSPropertyOp25
 70
     1
102
RTVSPropertyOp26
 70
     1
102
RTVSPropertyOp27
 70
     1
102
RTVSPropertyOp28
 70
     1
102
RTVSPropertyOp29
 70
     1
102
RTVSPropertyOp30
 70
     1
102
RTVSPropertyOp31
 70
     1
102
RTVSPropertyOp32
 70
     1
  0
XRECORD
  5
70
102
{ACAD_REACTORS
330
6F
102
}
330
6F
100
AcDbXrecord
280
     1
102
RTVSPropertyOp0
 70
     1
102
RTVSPropertyOp1
 70
     1
102
RTVSPropertyOp2
 70
     1
102
RTVSPropertyOp3
 70
     1
102
RTVSPropertyOp4
 70
     1
102
RTVSPropertyOp5
 70
     1
102
RTVSPropertyOp6
 70
     1
102
RTVSPropertyOp7
 70
     1
102
RTVSPropertyOp8
 70
     1
102
RTVSPropertyOp9
 70
     1
102
RTVSPropertyOp10
 70
     1
102
RTVSPropertyOp11
 70
     1
102
RTVSPropertyOp12
 70
     1
102
RTVSPropertyOp13
 70
     1
102
RTVSPropertyOp14
 70
     1
102
RTVSPropertyOp15
 70
     1
102
RTVSPropertyOp16
 70
     1
102
RTVSPropertyOp17
 70
     1
102
RTVSPropertyOp18
 70
     1
102
RTVSPropertyOp19
 70
     1
102
RTVSPropertyOp20
 70
     1
102
RTVSPropertyOp21
 70
     1
102
RTVSPropertyOp22
 70
     1
102
RTVSPropertyOp23
 70
     1
102
RTVSPropertyOp24
 70
     1
102
RTVSPropertyOp25
 70
     1
102
RTVSPropertyOp26
 70
     1
102
RTVSPropertyOp27
 70
     1
102
RTVSPropertyOp28
 70
     1
102
RTVSPropertyOp29
 70
     1
102
RTVSPropertyOp30
 70
     1
102
RTVSPropertyOp31
 70
     1
102
RTVSPropertyOp32
 70
     1
  0
XRECORD
  5
6E
102
{ACAD_REACTORS
330
6D
102
}
330
6D
100
AcDbXrecord
280
     1
102
RTVSPropertyOp0
 70
     1
102
RTVSPropertyOp1
 70
     1
102
RTVSPropertyOp2
 70
     1
102
RTVSPropertyOp3
 70
     1
102
RTVSPropertyOp4
 70
     1
102
RTVSPropertyOp5
 70
     1
102
RTVSPropertyOp6
 70
     1
102
RTVSPropertyOp7
 70
     1
102
RTVSPropertyOp8
 70
     1
102
RTVSPropertyOp9
 70
     1
102
RTVSPropertyOp10
 70
     1
102
RTVSPropertyOp11
 70
     1
102
RTVSPropertyOp12
 70
     1
102
RTVSPropertyOp13
 70
     1
102
RTVSPropertyOp14
 70
     1
102
RTVSPropertyOp15
 70
     1
102
RTVSPropertyOp16
 70
     1
102
RTVSPropertyOp17
 70
     1
102
RTVSPropertyOp18
 70
     1
102
RTVSPropertyOp19
 70
     1
102
RTVSPropertyOp20
 70
     1
102
RTVSPropertyOp21
 70
     1
102
RTVSPropertyOp22
 70
     1
102
RTVSPropertyOp23
 70
     1
102
RTVSPropertyOp24
 70
     1
102
RTVSPropertyOp25
 70
     1
102
RTVSPropertyOp26
 70
     1
102
RTVSPropertyOp27
 70
     1
102
RTVSPropertyOp28
 70
     1
102
RTVSPropertyOp29
 70
     1
102
RTVSPropertyOp30
 70
     1
102
RTVSPropertyOp31
 70
     1
102
RTVSPropertyOp32
 70
     1
  0
XRECORD
  5
72
102
{ACAD_REACTORS
330
71
102
}
330
71
100
AcDbXrecord
280
     1
102
RTVSPropertyOp0
 70
     1
102
RTVSPropertyOp1
 70
     1
102
RTVSPropertyOp2
 70
     1
102
RTVSPropertyOp3
 70
     1
102
RTVSPropertyOp4
 70
     1
102
RTVSPropertyOp5
 70
     1
102
RTVSPropertyOp6
 70
     1
102
RTVSPropertyOp7
 70
     1
102
RTVSPropertyOp8
 70
     1
102
RTVSPropertyOp9
 70
     1
102
RTVSPropertyOp10
 70
     1
102
RTVSPropertyOp11
 70
     1
102
RTVSPropertyOp12
 70
     1
102
RTVSPropertyOp13
 70
     1
102
RTVSPropertyOp14
 70
     1
102
RTVSPropertyOp15
 70
     1
102
RTVSPropertyOp16
 70
     1
102
RTVSPropertyOp17
 70
     1
102
RTVSPropertyOp18
 70
     1
102
RTVSPropertyOp19
 70
     1
102
RTVSPropertyOp20
 70
     1
102
RTVSPropertyOp21
 70
     1
102
RTVSPropertyOp22
 70
     1
102
RTVSPropertyOp23
 70
     1
102
RTVSPropertyOp24
 70
     1
102
RTVSPropertyOp25
 70
     1
102
RTVSPropertyOp26
 70
     1
102
RTVSPropertyOp27
 70
     1
102
RTVSPropertyOp28
 70
     1
102
RTVSPropertyOp29
 70
     1
102
RTVSPropertyOp30
 70
     1
102
RTVSPropertyOp31
 70
     1
102
RTVSPropertyOp32
 70
     1
  0
XRECORD
  5
7A
102
{ACAD_REACTORS
330
79
102
}
330
79
100
AcDbXrecord
280
     1
102
RTVSPropertyOp0
 70
     1
102
RTVSPropertyOp1
 70
     1
102
RTVSPropertyOp2
 70
     1
102
RTVSPropertyOp3
 70
     1
102
RTVSPropertyOp4
 70
     1
102
RTVSPropertyOp5
 70
     1
102
RTVSPropertyOp6
 70
     1
102
RTVSPropertyOp7
 70
     1
102
RTVSPropertyOp8
 70
     1
102
RTVSPropertyOp9
 70
     1
102
RTVSPropertyOp10
 70
     1
102
RTVSPropertyOp11
 70
     1
102
RTVSPropertyOp12
 70
     1
102
RTVSPropertyOp13
 70
     1
102
RTVSPropertyOp14
 70
     1
102
RTVSPropertyOp15
 70
     1
102
RTVSPropertyOp16
 70
     1
102
RTVSPropertyOp17
 70
     1
102
RTVSPropertyOp18
 70
     1
102
RTVSPropertyOp19
 70
     1
102
RTVSPropertyOp20
 70
     1
102
RTVSPropertyOp21
 70
     1
102
RTVSPropertyOp22
 70
     1
102
RTVSPropertyOp23
 70
     1
102
RTVSPropertyOp24
 70
     1
102
RTVSPropertyOp25
 70
     1
102
RTVSPropertyOp26
 70
     1
102
RTVSPropertyOp27
 70
     1
102
RTVSPropertyOp28
 70
     1
102
RTVSPropertyOp29
 70
     1
102
RTVSPropertyOp30
 70
     1
102
RTVSPropertyOp31
 70
     1
102
RTVSPropertyOp32
 70
     1
  0
XRECORD
  5
82
102
{ACAD_REACTORS
330
81
102
}
330
81
100
AcDbXrecord
280
     1
102
RTVSPropertyOp0
 70
     1
102
RTVSPropertyOp1
 70
     1
102
RTVSPropertyOp2
 70
     1
102
RTVSPropertyOp3
 70
     1
102
RTVSPropertyOp4
 70
     1
102
RTVSPropertyOp5
 70
     1
102
RTVSPropertyOp6
 70
     1
102
RTVSPropertyOp7
 70
     1
102
RTVSPropertyOp8
 70
     1
102
RTVSPropertyOp9
 70
     1
102
RTVSPropertyOp10
 70
     1
102
RTVSPropertyOp11
 70
     1
102
RTVSPropertyOp12
 70
     1
102
RTVSPropertyOp13
 70
     1
102
RTVSPropertyOp14
 70
     1
102
RTVSPropertyOp15
 70
     1
102
RTVSPropertyOp16
 70
     1
102
RTVSPropertyOp17
 70
     1
102
RTVSPropertyOp18
 70
     1
102
RTVSPropertyOp19
 70
     1
102
RTVSPropertyOp20
 70
     1
102
RTVSPropertyOp21
 70
     1
102
RTVSPropertyOp22
 70
     1
102
RTVSPropertyOp23
 70
     1
102
RTVSPropertyOp24
 70
     1
102
RTVSPropertyOp25
 70
     1
102
RTVSPropertyOp26
 70
     1
102
RTVSPropertyOp27
 70
     1
102
RTVSPropertyOp28
 70
     1
102
RTVSPropertyOp29
 70
     1
102
RTVSPropertyOp30
 70
     1
102
RTVSPropertyOp31
 70
     1
102
RTVSPropertyOp32
 70
     1
  0
XRECORD
  5
76
102
{ACAD_REACTORS
330
75
102
}
330
75
100
AcDbXrecord
280
     1
102
RTVSPropertyOp0
 70
     1
102
RTVSPropertyOp1
 70
     1
102
RTVSPropertyOp2
 70
     1
102
RTVSPropertyOp3
 70
     1
102
RTVSPropertyOp4
 70
     1
102
RTVSPropertyOp5
 70
     1
102
RTVSPropertyOp6
 70
     1
102
RTVSPropertyOp7
 70
     1
102
RTVSPropertyOp8
 70
     1
102
RTVSPropertyOp9
 70
     1
102
RTVSPropertyOp10
 70
     1
102
RTVSPropertyOp11
 70
     1
102
RTVSPropertyOp12
 70
     1
102
RTVSPropertyOp13
 70
     1
102
RTVSPropertyOp14
 70
     1
102
RTVSPropertyOp15
 70
     1
102
RTVSPropertyOp16
 70
     1
102
RTVSPropertyOp17
 70
     1
102
RTVSPropertyOp18
 70
     1
102
RTVSPropertyOp19
 70
     1
102
RTVSPropertyOp20
 70
     1
102
RTVSPropertyOp21
 70
     1
102
RTVSPropertyOp22
 70
     1
102
RTVSPropertyOp23
 70
     1
102
RTVSPropertyOp24
 70
     1
102
RTVSPropertyOp25
 70
     1
102
RTVSPropertyOp26
 70
     1
102
RTVSPropertyOp27
 70
     1
102
RTVSPropertyOp28
 70
     1
102
RTVSPropertyOp29
 70
     1
102
RTVSPropertyOp30
 70
     1
102
RTVSPropertyOp31
 70
     1
102
RTVSPropertyOp32
 70
     1
  0
XRECORD
  5
78
102
{ACAD_REACTORS
330
77
102
}
330
77
100
AcDbXrecord
280
     1
102
RTVSPropertyOp0
 70
     1
102
RTVSPropertyOp1
 70
     1
102
RTVSPropertyOp2
 70
     1
102
RTVSPropertyOp3
 70
     1
102
RTVSPropertyOp4
 70
     1
102
RTVSPropertyOp5
 70
     1
102
RTVSPropertyOp6
 70
     1
102
RTVSPropertyOp7
 70
     1
102
RTVSPropertyOp8
 70
     1
102
RTVSPropertyOp9
 70
     1
102
RTVSPropertyOp10
 70
     1
102
RTVSPropertyOp11
 70
     1
102
RTVSPropertyOp12
 70
     1
102
RTVSPropertyOp13
 70
     1
102
RTVSPropertyOp14
 70
     1
102
RTVSPropertyOp15
 70
     1
102
RTVSPropertyOp16
 70
     1
102
RTVSPropertyOp17
 70
     1
102
RTVSPropertyOp18
 70
     1
102
RTVSPropertyOp19
 70
     1
102
RTVSPropertyOp20
 70
     1
102
RTVSPropertyOp21
 70
     1
102
RTVSPropertyOp22
 70
     1
102
RTVSPropertyOp23
 70
     1
102
RTVSPropertyOp24
 70
     1
102
RTVSPropertyOp25
 70
     1
102
RTVSPropertyOp26
 70
     1
102
RTVSPropertyOp27
 70
     1
102
RTVSPropertyOp28
 70
     1
102
RTVSPropertyOp29
 70
     1
102
RTVSPropertyOp30
 70
     1
102
RTVSPropertyOp31
 70
     1
102
RTVSPropertyOp32
 70
     1
  0
XRECORD
  5
80
102
{ACAD_REACTORS
330
7F
102
}
330
7F
100
AcDbXrecord
280
     1
102
RTVSPropertyOp0
 70
     1
102
RTVSPropertyOp1
 70
     1
102
RTVSPropertyOp2
 70
     1
102
RTVSPropertyOp3
 70
     1
102
RTVSPropertyOp4
 70
     1
102
RTVSPropertyOp5
 70
     1
102
RTVSPropertyOp6
 70
     1
102
RTVSPropertyOp7
 70
     1
102
RTVSPropertyOp8
 70
     1
102
RTVSPropertyOp9
 70
     1
102
RTVSPropertyOp10
 70
     1
102
RTVSPropertyOp11
 70
     1
102
RTVSPropertyOp12
 70
     1
102
RTVSPropertyOp13
 70
     1
102
RTVSPropertyOp14
 70
     1
102
RTVSPropertyOp15
 70
     1
102
RTVSPropertyOp16
 70
     1
102
RTVSPropertyOp17
 70
     1
102
RTVSPropertyOp18
 70
     1
102
RTVSPropertyOp19
 70
     1
102
RTVSPropertyOp20
 70
     1
102
RTVSPropertyOp21
 70
     1
102
RTVSPropertyOp22
 70
     1
102
RTVSPropertyOp23
 70
     1
102
RTVSPropertyOp24
 70
     1
102
RTVSPropertyOp25
 70
     1
102
RTVSPropertyOp26
 70
     1
102
RTVSPropertyOp27
 70
     1
102
RTVSPropertyOp28
 70
     1
102
RTVSPropertyOp29
 70
     1
102
RTVSPropertyOp30
 70
     1
102
RTVSPropertyOp31
 70
     1
102
RTVSPropertyOp32
 70
     1
  0
XRECORD
  5
64
102
{ACAD_REACTORS
330
63
102
}
330
63
100
AcDbXrecord
280
     1
102
RTVSPropertyOp0
 70
     1
102
RTVSPropertyOp1
 70
     1
102
RTVSPropertyOp2
 70
     1
102
RTVSPropertyOp3
 70
     1
102
RTVSPropertyOp4
 70
     1
102
RTVSPropertyOp5
 70
     1
102
RTVSPropertyOp6
 70
     1
102
RTVSPropertyOp7
 70
     1
102
RTVSPropertyOp8
 70
     1
102
RTVSPropertyOp9
 70
     1
102
RTVSPropertyOp10
 70
     1
102
RTVSPropertyOp11
 70
     1
102
RTVSPropertyOp12
 70
     1
102
RTVSPropertyOp13
 70
     1
102
RTVSPropertyOp14
 70
     1
102
RTVSPropertyOp15
 70
     1
102
RTVSPropertyOp16
 70
     1
102
RTVSPropertyOp17
 70
     1
102
RTVSPropertyOp18
 70
     1
102
RTVSPropertyOp19
 70
     1
102
RTVSPropertyOp20
 70
     1
102
RTVSPropertyOp21
 70
     1
102
RTVSPropertyOp22
 70
     1
102
RTVSPropertyOp23
 70
     1
102
RTVSPropertyOp24
 70
     1
102
RTVSPropertyOp25
 70
     1
102
RTVSPropertyOp26
 70
     1
102
RTVSPropertyOp27
 70
     1
102
RTVSPropertyOp28
 70
     1
102
RTVSPropertyOp29
 70
     1
102
RTVSPropertyOp30
 70
     1
102
RTVSPropertyOp31
 70
     1
102
RTVSPropertyOp32
 70
     1
  0
XRECORD
  5
66
102
{ACAD_REACTORS
330
65
102
}
330
65
100
AcDbXrecord
280
     1
102
RTVSPropertyOp0
 70
     1
102
RTVSPropertyOp1
 70
     1
102
RTVSPropertyOp2
 70
     1
102
RTVSPropertyOp3
 70
     1
102
RTVSPropertyOp4
 70
     1
102
RTVSPropertyOp5
 70
     1
102
RTVSPropertyOp6
 70
     1
102
RTVSPropertyOp7
 70
     1
102
RTVSPropertyOp8
 70
     1
102
RTVSPropertyOp9
 70
     1
102
RTVSPropertyOp10
 70
     1
102
RTVSPropertyOp11
 70
     1
102
RTVSPropertyOp12
 70
     1
102
RTVSPropertyOp13
 70
     1
102
RTVSPropertyOp14
 70
     1
102
RTVSPropertyOp15
 70
     1
102
RTVSPropertyOp16
 70
     1
102
RTVSPropertyOp17
 70
     1
102
RTVSPropertyOp18
 70
     1
102
RTVSPropertyOp19
 70
     1
102
RTVSPropertyOp20
 70
     1
102
RTVSPropertyOp21
 70
     1
102
RTVSPropertyOp22
 70
     1
102
RTVSPropertyOp23
 70
     1
102
RTVSPropertyOp24
 70
     1
102
RTVSPropertyOp25
 70
     1
102
RTVSPropertyOp26
 70
     1
102
RTVSPropertyOp27
 70
     1
102
RTVSPropertyOp28
 70
     1
102
RTVSPropertyOp29
 70
     1
102
RTVSPropertyOp30
 70
     1
102
RTVSPropertyOp31
 70
     1
102
RTVSPropertyOp32
 70
     1
  0
XRECORD
  5
68
102
{ACAD_REACTORS
330
67
102
}
330
67
100
AcDbXrecord
280
     1
102
RTVSPropertyOp0
 70
     1
102
RTVSPropertyOp1
 70
     1
102
RTVSPropertyOp2
 70
     1
102
RTVSPropertyOp3
 70
     1
102
RTVSPropertyOp4
 70
     1
102
RTVSPropertyOp5
 70
     1
102
RTVSPropertyOp6
 70
     1
102
RTVSPropertyOp7
 70
     1
102
RTVSPropertyOp8
 70
     1
102
RTVSPropertyOp9
 70
     1
102
RTVSPropertyOp10
 70
     1
102
RTVSPropertyOp11
 70
     1
102
RTVSPropertyOp12
 70
     1
102
RTVSPropertyOp13
 70
     1
102
RTVSPropertyOp14
 70
     1
102
RTVSPropertyOp15
 70
     1
102
RTVSPropertyOp16
 70
     1
102
RTVSPropertyOp17
 70
     1
102
RTVSPropertyOp18
 70
     1
102
RTVSPropertyOp19
 70
     1
102
RTVSPropertyOp20
 70
     1
102
RTVSPropertyOp21
 70
     1
102
RTVSPropertyOp22
 70
     1
102
RTVSPropertyOp23
 70
     1
102
RTVSPropertyOp24
 70
     1
102
RTVSPropertyOp25
 70
     1
102
RTVSPropertyOp26
 70
     1
102
RTVSPropertyOp27
 70
     1
102
RTVSPropertyOp28
 70
     1
102
RTVSPropertyOp29
 70
     1
102
RTVSPropertyOp30
 70
     1
102
RTVSPropertyOp31
 70
     1
102
RTVSPropertyOp32
 70
     1
  0
XRECORD
  5
6A
102
{ACAD_REACTORS
330
69
102
}
330
69
100
AcDbXrecord
280
     1
102
RTVSPropertyOp0
 70
     1
102
RTVSPropertyOp1
 70
     1
102
RTVSPropertyOp2
 70
     1
102
RTVSPropertyOp3
 70
     1
102
RTVSPropertyOp4
 70
     1
102
RTVSPropertyOp5
 70
     1
102
RTVSPropertyOp6
 70
     1
102
RTVSPropertyOp7
 70
     1
102
RTVSPropertyOp8
 70
     1
102
RTVSPropertyOp9
 70
     1
102
RTVSPropertyOp10
 70
     1
102
RTVSPropertyOp11
 70
     1
102
RTVSPropertyOp12
 70
     1
102
RTVSPropertyOp13
 70
     1
102
RTVSPropertyOp14
 70
     1
102
RTVSPropertyOp15
 70
     1
102
RTVSPropertyOp16
 70
     1
102
RTVSPropertyOp17
 70
     1
102
RTVSPropertyOp18
 70
     1
102
RTVSPropertyOp19
 70
     1
102
RTVSPropertyOp20
 70
     1
102
RTVSPropertyOp21
 70
     1
102
RTVSPropertyOp22
 70
     1
102
RTVSPropertyOp23
 70
     1
102
RTVSPropertyOp24
 70
     1
102
RTVSPropertyOp25
 70
     1
102
RTVSPropertyOp26
 70
     1
102
RTVSPropertyOp27
 70
     1
102
RTVSPropertyOp28
 70
     1
102
RTVSPropertyOp29
 70
     1
102
RTVSPropertyOp30
 70
     1
102
RTVSPropertyOp31
 70
     1
102
RTVSPropertyOp32
 70
     1
  0
XRECORD
  5
7E
102
{ACAD_REACTORS
330
7D
102
}
330
7D
100
AcDbXrecord
280
     1
102
RTVSPropertyOp0
 70
     1
102
RTVSPropertyOp1
 70
     1
102
RTVSPropertyOp2
 70
     1
102
RTVSPropertyOp3
 70
     1
102
RTVSPropertyOp4
 70
     1
102
RTVSPropertyOp5
 70
     1
102
RTVSPropertyOp6
 70
     1
102
RTVSPropertyOp7
 70
     1
102
RTVSPropertyOp8
 70
     1
102
RTVSPropertyOp9
 70
     1
102
RTVSPropertyOp10
 70
     1
102
RTVSPropertyOp11
 70
     1
102
RTVSPropertyOp12
 70
     1
102
RTVSPropertyOp13
 70
     1
102
RTVSPropertyOp14
 70
     1
102
RTVSPropertyOp15
 70
     1
102
RTVSPropertyOp16
 70
     1
102
RTVSPropertyOp17
 70
     1
102
RTVSPropertyOp18
 70
     1
102
RTVSPropertyOp19
 70
     1
102
RTVSPropertyOp20
 70
     1
102
RTVSPropertyOp21
 70
     1
102
RTVSPropertyOp22
 70
     1
102
RTVSPropertyOp23
 70
     1
102
RTVSPropertyOp24
 70
     1
102
RTVSPropertyOp25
 70
     1
102
RTVSPropertyOp26
 70
     1
102
RTVSPropertyOp27
 70
     1
102
RTVSPropertyOp28
 70
     1
102
RTVSPropertyOp29
 70
     1
102
RTVSPropertyOp30
 70
     1
102
RTVSPropertyOp31
 70
     1
102
RTVSPropertyOp32
 70
     1
  0
XRECORD
  5
74
102
{ACAD_REACTORS
330
73
102
}
330
73
100
AcDbXrecord
280
     1
102
RTVSPropertyOp0
 70
     1
102
RTVSPropertyOp1
 70
     1
102
RTVSPropertyOp2
 70
     1
102
RTVSPropertyOp3
 70
     1
102
RTVSPropertyOp4
 70
     1
102
RTVSPropertyOp5
 70
     1
102
RTVSPropertyOp6
 70
     1
102
RTVSPropertyOp7
 70
     1
102
RTVSPropertyOp8
 70
     1
102
RTVSPropertyOp9
 70
     1
102
RTVSPropertyOp10
 70
     1
102
RTVSPropertyOp11
 70
     1
102
RTVSPropertyOp12
 70
     1
102
RTVSPropertyOp13
 70
     1
102
RTVSPropertyOp14
 70
     1
102
RTVSPropertyOp15
 70
     1
102
RTVSPropertyOp16
 70
     1
102
RTVSPropertyOp17
 70
     1
102
RTVSPropertyOp18
 70
     1
102
RTVSPropertyOp19
 70
     1
102
RTVSPropertyOp20
 70
     1
102
RTVSPropertyOp21
 70
     1
102
RTVSPropertyOp22
 70
     1
102
RTVSPropertyOp23
 70
     1
102
RTVSPropertyOp24
 70
     1
102
RTVSPropertyOp25
 70
     1
102
RTVSPropertyOp26
 70
     1
102
RTVSPropertyOp27
 70
     1
102
RTVSPropertyOp28
 70
     1
102
RTVSPropertyOp29
 70
     1
102
RTVSPropertyOp30
 70
     1
102
RTVSPropertyOp31
 70
     1
102
RTVSPropertyOp32
 70
     1
  0
XRECORD
  5
7C
102
{ACAD_REACTORS
330
7B
102
}
330
7B
100
AcDbXrecord
280
     1
102
RTVSPropertyOp0
 70
     1
102
RTVSPropertyOp1
 70
     1
102
RTVSPropertyOp2
 70
     1
102
RTVSPropertyOp3
 70
     1
102
RTVSPropertyOp4
 70
     1
102
RTVSPropertyOp5
 70
     1
102
RTVSPropertyOp6
 70
     1
102
RTVSPropertyOp7
 70
     1
102
RTVSPropertyOp8
 70
     1
102
RTVSPropertyOp9
 70
     1
102
RTVSPropertyOp10
 70
     1
102
RTVSPropertyOp11
 70
     1
102
RTVSPropertyOp12
 70
     1
102
RTVSPropertyOp13
 70
     1
102
RTVSPropertyOp14
 70
     1
102
RTVSPropertyOp15
 70
     1
102
RTVSPropertyOp16
 70
     1
102
RTVSPropertyOp17
 70
     1
102
RTVSPropertyOp18
 70
     1
102
RTVSPropertyOp19
 70
     1
102
RTVSPropertyOp20
 70
     1
102
RTVSPropertyOp21
 70
     1
102
RTVSPropertyOp22
 70
     1
102
RTVSPropertyOp23
 70
     1
102
RTVSPropertyOp24
 70
     1
102
RTVSPropertyOp25
 70
     1
102
RTVSPropertyOp26
 70
     1
102
RTVSPropertyOp27
 70
     1
102
RTVSPropertyOp28
 70
     1
102
RTVSPropertyOp29
 70
     1
102
RTVSPropertyOp30
 70
     1
102
RTVSPropertyOp31
 70
     1
102
RTVSPropertyOp32
 70
     1
  0
ENDSEC
  0
EOF
