  0
SECTION
  2
HEADER
  9
$ACADVER
  1
AC1021
  9
$ACADMAINTVER
 70
    25
  9
$DWGCODEPAGE
  3
ANSI_1252
  9
$INSBASE
 10
0.0
 20
0.0
 30
0.0
  9
$EXTMIN
 10
-4.42842
 20
-17.94339
 30
0.0
  9
$EXTMAX
 10
4.42842
 20
17.94339
 30
0.0
  9
$LIMMIN
 10
0.0
 20
0.0
  9
$LIMMAX
 10
12.0
 20
9.0
  9
$ORTHOMODE
 70
     0
  9
$REGENMODE
 70
     1
  9
$FILLMODE
 70
     1
  9
$QTEXTMODE
 70
     0
  9
$MIRRTEXT
 70
     1
  9
$LTSCALE
 40
1.0
  9
$ATTMODE
 70
     1
  9
$TEXTSIZE
 40
0.2
  9
$TRACEWID
 40
0.05
  9
$TEXTSTYLE
  7
Standard
  9
$CLAYER
  8
0
  9
$CELTYPE
  6
ByLayer
  9
$CECOLOR
 62
   256
  9
$CELTSCALE
 40
1.0
  9
$DISPSILH
 70
     0
  9
$DIMSCALE
 40
1.0
  9
$DIMASZ
 40
0.18
  9
$DIMEXO
 40
0.0625
  9
$DIMDLI
 40
0.38
  9
$DIMRND
 40
0.0
  9
$DIMDLE
 40
0.0
  9
$DIMEXE
 40
0.18
  9
$DIMTP
 40
0.0
  9
$DIMTM
 40
0.0
  9
$DIMTXT
 40
0.18
  9
$DIMCEN
 40
0.09
  9
$DIMTSZ
 40
0.0
  9
$DIMTOL
 70
     0
  9
$DIMLIM
 70
     0
  9
$DIMTIH
 70
     1
  9
$DIMTOH
 70
     1
  9
$DIMSE1
 70
     0
  9
$DIMSE2
 70
     0
  9
$DIMTAD
 70
     0
  9
$DIMZIN
 70
     0
  9
$DIMBLK
  1

  9
$DIMASO
 70
     1
  9
$DIMSHO
 70
     1
  9
$DIMPOST
  1

  9
$DIMAPOST
  1

  9
$DIMALT
 70
     0
  9
$DIMALTD
 70
     2
  9
$DIMALTF
 40
25.4
  9
$DIMLFAC
 40
1.0
  9
$DIMTOFL
 70
     0
  9
$DIMTVP
 40
0.0
  9
$DIMTIX
 70
     0
  9
$DIMSOXD
 70
     0
  9
$DIMSAH
 70
     0
  9
$DIMBLK1
  1

  9
$DIMBLK2
  1

  9
$DIMSTYLE
  2
Standard
  9
$DIMCLRD
 70
     0
  9
$DIMCLRE
 70
     0
  9
$DIMCLRT
 70
     0
  9
$DIMTFAC
 40
1.0
  9
$DIMGAP
 40
0.09
  9
$DIMJUST
 70
     0
  9
$DIMSD1
 70
     0
  9
$DIMSD2
 70
     0
  9
$DIMTOLJ
 70
     1
  9
$DIMTZIN
 70
     0
  9
$DIMALTZ
 70
     0
  9
$DIMALTTZ
 70
     0
  9
$DIMUPT
 70
     0
  9
$DIMDEC
 70
     4
  9
$DIMTDEC
 70
     4
  9
$DIMALTU
 70
     2
  9
$DIMALTTD
 70
     2
  9
$DIMTXSTY
  7
Standard
  9
$DIMAUNIT
 70
     0
  9
$DIMADEC
 70
     0
  9
$DIMALTRND
 40
0.0
  9
$DIMAZIN
 70
     0
  9
$DIMDSEP
 70
    46
  9
$DIMATFIT
 70
     3
  9
$DIMFRAC
 70
     0
  9
$DIMLDRBLK
  1

  9
$DIMLUNIT
 70
     2
  9
$DIMLWD
 70
    -2
  9
$DIMLWE
 70
    -2
  9
$DIMTMOVE
 70
     0
  9
$DIMFXL
 40
1.0
  9
$DIMFXLON
 70
     0
  9
$DIMJOGANG
 40
0.7853981633974483
  9
$DIMTFILL
 70
     0
  9
$DIMTFILLCLR
 70
     0
  9
$DIMARCSYM
 70
     0
  9
$DIMLTYPE
  6

  9
$DIMLTEX1
  6

  9
$DIMLTEX2
  6

  9
$LUNITS
 70
     2
  9
$LUPREC
 70
     4
  9
$SKETCHINC
 40
0.1
  9
$FILLETRAD
 40
0.5
  9
$AUNITS
 70
     0
  9
$AUPREC
 70
     0
  9
$MENU
  1
.
  9
$ELEVATION
 40
0.0
  9
$PELEVATION
 40
0.0
  9
$THICKNESS
 40
0.0
  9
$LIMCHECK
 70
     0
  9
$CHAMFERA
 40
0.5
  9
$CHAMFERB
 40
0.5
  9
$CHAMFERC
 40
1.0
  9
$CHAMFERD
 40
0.0
  9
$SKPOLY
 70
     0
  9
$TDCREATE
 40
2460266.567432326
  9
$TDUCREATE
 40
2460266.567432326
  9
$TDUPDATE
 40
2460266.567432419
  9
$TDUUPDATE
 40
2460266.567432419
  9
$TDINDWG
 40
0.0000000116
  9
$TDUSRTIMER
 40
0.0000000116
  9
$USRTIMER
 70
     1
  9
$ANGBASE
 50
0.0
  9
$ANGDIR
 70
     0
  9
$PDMODE
 70
     0
  9
$PDSIZE
 40
0.0
  9
$PLINEWID
 40
0.0
  9
$SPLFRAME
 70
     0
  9
$SPLINETYPE
 70
     6
  9
$SPLINESEGS
 70
     8
  9
$HANDSEED
  5
7B
  9
$SURFTAB1
 70
     6
  9
$SURFTAB2
 70
     6
  9
$SURFTYPE
 70
     6
  9
$SURFU
 70
     6
  9
$SURFV
 70
     6
  9
$UCSBASE
  2

  9
$UCSNAME
  2

  9
$UCSORG
 10
0.0
 20
0.0
 30
0.0
  9
$UCSXDIR
 10
1.0
 20
0.0
 30
0.0
  9
$UCSYDIR
 10
0.0
 20
1.0
 30
0.0
  9
$UCSORTHOREF
  2

  9
$UCSORTHOVIEW
 70
     0
  9
$UCSORGTOP
 10
0.0
 20
0.0
 30
0.0
  9
$UCSORGBOTTOM
 10
0.0
 20
0.0
 30
0.0
  9
$UCSORGLEFT
 10
0.0
 20
0.0
 30
0.0
  9
$UCSORGRIGHT
 10
0.0
 20
0.0
 30
0.0
  9
$UCSORGFRONT
 10
0.0
 20
0.0
 30
0.0
  9
$UCSORGBACK
 10
0.0
 20
0.0
 30
0.0
  9
$PUCSBASE
  2

  9
$PUCSNAME
  2

  9
$PUCSORG
 10
0.0
 20
0.0
 30
0.0
  9
$PUCSXDIR
 10
1.0
 20
0.0
 30
0.0
  9
$PUCSYDIR
 10
0.0
 20
1.0
 30
0.0
  9
$PUCSORTHOREF
  2

  9
$PUCSORTHOVIEW
 70
     0
  9
$PUCSORGTOP
 10
0.0
 20
0.0
 30
0.0
  9
$PUCSORGBOTTOM
 10
0.0
 20
0.0
 30
0.0
  9
$PUCSORGLEFT
 10
0.0
 20
0.0
 30
0.0
  9
$PUCSORGRIGHT
 10
0.0
 20
0.0
 30
0.0
  9
$PUCSORGFRONT
 10
0.0
 20
0.0
 30
0.0
  9
$PUCSORGBACK
 10
0.0
 20
0.0
 30
0.0
  9
$USERI1
 70
     0
  9
$USERI2
 70
     0
  9
$USERI3
 70
     0
  9
$USERI4
 70
     0
  9
$USERI5
 70
     0
  9
$USERR1
 40
0.0
  9
$USERR2
 40
0.0
  9
$USERR3
 40
0.0
  9
$USERR4
 40
0.0
  9
$USERR5
 40
0.0
  9
$WORLDVIEW
 70
     1
  9
$SHADEDGE
 70
     3
  9
$SHADEDIF
 70
    70
  9
$TILEMODE
 70
     1
  9
$MAXACTVP
 70
    64
  9
$PINSBASE
 10
0.0
 20
0.0
 30
0.0
  9
$PLIMCHECK
 70
     0
  9
$PEXTMIN
 10
1.000000000000000E+20
 20
1.000000000000000E+20
 30
1.000000000000000E+20
  9
$PEXTMAX
 10
-1.000000000000000E+20
 20
-1.000000000000000E+20
 30
-1.000000000000000E+20
  9
$PLIMMIN
 10
0.0
 20
0.0
  9
$PLIMMAX
 10
12.0
 20
9.0
  9
$UNITMODE
 70
     0
  9
$VISRETAIN
 70
     1
  9
$PLINEGEN
 70
     0
  9
$PSLTSCALE
 70
     1
  9
$TREEDEPTH
 70
  3020
  9
$CMLSTYLE
  2
Standard
  9
$CMLJUST
 70
     0
  9
$CMLSCALE
 40
1.0
  9
$PROXYGRAPHICS
 70
     1
  9
$MEASUREMENT
 70
     0
  9
$CELWEIGHT
370
    -1
  9
$ENDCAPS
280
     0
  9
$JOINSTYLE
280
     0
  9
$LWDISPLAY
290
     0
  9
$INSUNITS
 70
     5
  9
$HYPERLINKBASE
  1

  9
$STYLESHEET
  1

  9
$XEDIT
290
     1
  9
$CEPSNTYPE
380
     0
  9
$PSTYLEMODE
290
     1
  9
$FINGERPRINTGUID
  2
{12FA8DDA-7C13-4AC0-B68F-4135024BC43E}
  9
$VERSIONGUID
  2
{FAEB1C32-E019-11D5-929B-00C0DF256EC4}
  9
$EXTNAMES
290
     1
  9
$PSVPSCALE
 40
0.0
  9
$OLESTARTUP
290
     0
  9
$SORTENTS
280
   127
  9
$INDEXCTL
280
     0
  9
$HIDETEXT
280
     1
  9
$XCLIPFRAME
290
     0
  9
$HALOGAP
280
     0
  9
$OBSCOLOR
 70
   257
  9
$OBSLTYPE
280
     0
  9
$INTERSECTIONDISPLAY
280
     0
  9
$INTERSECTIONCOLOR
 70
   257
  9
$DIMASSOC
280
     2
  9
$PROJECTNAME
  1

  9
$CAMERADISPLAY
290
     0
  9
$LENSLENGTH
 40
50.0
  9
$CAMERAHEIGHT
 40
0.0
  9
$STEPSPERSEC
 40
2.0
  9
$STEPSIZE
 40
6.0
  9
$3DDWFPREC
 40
2.0
  9
$PSOLWIDTH
 40
0.25
  9
$PSOLHEIGHT
 40
4.0
  9
$LOFTANG1
 40
1.570796326794897
  9
$LOFTANG2
 40
1.570796326794897
  9
$LOFTMAG1
 40
0.0
  9
$LOFTMAG2
 40
0.0
  9
$LOFTPARAM
 70
     7
  9
$LOFTNORMALS
280
     1
  9
$LATITUDE
 40
37.795
  9
$LONGITUDE
 40
-122.394
  9
$NORTHDIRECTION
 40
0.0
  9
$TIMEZONE
 70
 -8000
  9
$LIGHTGLYPHDISPLAY
280
     1
  9
$TILEMODELIGHTSYNCH
280
     1
  9
$SOLIDHIST
280
     1
  9
$SHOWHIST
280
     1
  9
$DWFFRAME
280
     2
  9
$DGNFRAME
280
     2
  9
$REALWORLDSCALE
290
     1
  9
$INTERFERECOLOR
 62
   256
  9
$CSHADOW
280
     0
  9
$SHADOWPLANELOCATION
 40
0.0
  0
ENDSEC
  0
SECTION
  2
CLASSES
  0
CLASS
  1
ACDBDICTIONARYWDFLT
  2
AcDbDictionaryWithDefault
  3
ObjectDBX Classes
 90
        0
 91
        4
280
     0
281
     0
  0
CLASS
  1
VISUALSTYLE
  2
AcDbVisualStyle
  3
ObjectDBX Classes
 90
     4095
 91
        4
280
     0
281
     0
  0
CLASS
  1
MATERIAL
  2
AcDbMaterial
  3
ObjectDBX Classes
 90
     1153
 91
        4
280
     0
281
     0
  0
ENDSEC
  0
SECTION
  2
TABLES
  0
TABLE
  2
VPORT
  5
8
330
0
100
AcDbSymbolTable
 70
     1
  0
VPORT
  5
29
330
8
100
AcDbSymbolTableRecord
100
AcDbViewportTableRecord
  2
*Active
 70
     0
 10
0.0
 20
0.0
 11
1.0
 21
1.0
 12
10.42990654205607
 22
4.5
 13
0.0
 23
0.0
 14
0.5
 24
0.5
 15
0.5
 25
0.5
 16
0.0
 26
0.0
 36
1.0
 17
0.0
 27
0.0
 37
0.0
 40
9.0
 41
1.972972972850329
 42
50.0
 43
0.0
 44
0.0
 50
0.0
 51
0.0
 71
     0
 72
   100
 73
     1
 74
     3
 75
     0
 76
     0
 77
     0
 78
     0
281
     0
 65
     1
110
0.0
120
0.0
130
0.0
111
1.0
121
0.0
131
0.0
112
0.0
122
1.0
132
0.0
 79
     0
146
0.0
 60
     3
 61
     5
292
     1
282
     1
141
0.0
142
0.0
 63
   250
  0
ENDTAB
  0
TABLE
  2
LTYPE
  5
5
330
0
100
AcDbSymbolTable
 70
     1
  0
LTYPE
  5
14
330
5
100
AcDbSymbolTableRecord
100
AcDbLinetypeTableRecord
  2
ByBlock
 70
     0
  3

 72
    65
 73
     0
 40
0.0
  0
LTYPE
  5
15
330
5
100
AcDbSymbolTableRecord
100
AcDbLinetypeTableRecord
  2
ByLayer
 70
     0
  3

 72
    65
 73
     0
 40
0.0
  0
LTYPE
  5
16
330
5
100
AcDbSymbolTableRecord
100
AcDbLinetypeTableRecord
  2
Continuous
 70
     0
  3
Solid line
 72
    65
 73
     0
 40
0.0
  0
ENDTAB
  0
TABLE
  2
LAYER
  5
2
330
0
100
AcDbSymbolTable
 70
     2
  0
LAYER
  5
10
330
2
100
AcDbSymbolTableRecord
100
AcDbLayerTableRecord
  2
0
 70
     0
 62
     7
  6
Continuous
370
    -3
390
F
347
3E
  0
LAYER
  5
40
330
2
100
AcDbSymbolTableRecord
100
AcDbLayerTableRecord
  2
Layer 1
 70
     0
 62
     7
  6
Continuous
370
    -3
390
F
347
3E
  0
ENDTAB
  0
TABLE
  2
STYLE
  5
3
330
0
100
AcDbSymbolTable
 70
     1
  0
STYLE
  5
11
330
3
100
AcDbSymbolTableRecord
100
AcDbTextStyleTableRecord
  2
Standard
 70
     0
 40
0.0
 41
1.0
 50
0.0
 71
     0
 42
0.2
  3
txt
  4

  0
ENDTAB
  0
TABLE
  2
VIEW
  5
6
330
0
100
AcDbSymbolTable
 70
     0
  0
ENDTAB
  0
TABLE
  2
UCS
  5
7
330
0
100
AcDbSymbolTable
 70
     0
  0
ENDTAB
  0
TABLE
  2
APPID
  5
9
330
0
100
AcDbSymbolTable
 70
     2
  0
APPID
  5
12
330
9
100
AcDbSymbolTableRecord
100
AcDbRegAppTableRecord
  2
ACAD
 70
     0
  0
APPID
  5
3F
330
9
100
AcDbSymbolTableRecord
100
AcDbRegAppTableRecord
  2
ODA
 70
     0
  0
ENDTAB
  0
TABLE
  2
DIMSTYLE
  5
A
330
0
100
AcDbSymbolTable
 70
     1
100
AcDbDimStyleTable
  0
DIMSTYLE
105
27
330
A
100
AcDbSymbolTableRecord
100
AcDbDimStyleTableRecord
  2
Standard
 70
     0
178
     0
340
11
  0
ENDTAB
  0
TABLE
  2
BLOCK_RECORD
  5
1
330
0
100
AcDbSymbolTable
 70
     1
  0
BLOCK_RECORD
  5
1F
330
1
100
AcDbSymbolTableRecord
100
AcDbBlockTableRecord
  2
*Model_Space
340
22
 70
     0
280
     1
281
     0
  0
BLOCK_RECORD
  5
1B
330
1
100
AcDbSymbolTableRecord
100
AcDbBlockTableRecord
  2
*Paper_Space
340
1E
 70
     0
280
     1
281
     0
  0
BLOCK_RECORD
  5
23
330
1
100
AcDbSymbolTableRecord
100
AcDbBlockTableRecord
  2
*Paper_Space0
340
26
 70
     0
280
     1
281
     0
  0
ENDTAB
  0
ENDSEC
  0
SECTION
  2
BLOCKS
  0
BLOCK
  5
20
330
1F
100
AcDbEntity
  8
0
100
AcDbBlockBegin
  2
*Model_Space
 70
     0
 10
0.0
 20
0.0
 30
0.0
  3
*Model_Space
  1

  0
ENDBLK
  5
21
330
1F
100
AcDbEntity
  8
0
100
AcDbBlockEnd
  0
BLOCK
  5
1C
330
1B
100
AcDbEntity
 67
     1
  8
0
100
AcDbBlockBegin
  2
*Paper_Space
 70
     0
 10
0.0
 20
0.0
 30
0.0
  3
*Paper_Space
  1

  0
ENDBLK
  5
1D
330
1B
100
AcDbEntity
 67
     1
  8
0
100
AcDbBlockEnd
  0
BLOCK
  5
24
330
23
100
AcDbEntity
  8
0
100
AcDbBlockBegin
  2
*Paper_Space0
 70
     0
 10
0.0
 20
0.0
 30
0.0
  3
*Paper_Space0
  1

  0
ENDBLK
  5
25
330
23
100
AcDbEntity
  8
0
100
AcDbBlockEnd
  0
ENDSEC
  0
SECTION
  2
ENTITIES
  0
SPLINE
  5
41
330
1F
100
AcDbEntity
  8
Layer 1
370
    53
100
AcDbSpline
210
0.0
220
0.0
230
1.0
 70
    11
 71
     3
 72
   316
 73
   312
 74
     0
 42
0.0000000001
 43
0.0000000001
 12
1.0
 22
0.0
 32
0.0
 13
1.0
 23
0.0
 33
0.0
 40
0.0
 40
0.0
 40
0.0
 40
0.0
 40
0.0126582278481013
 40
0.0126582278481013
 40
0.0126582278481013
 40
0.0126582278481013
 40
0.0253164556962025
 40
0.0253164556962025
 40
0.0253164556962025
 40
0.0253164556962025
 40
0.0379746835443038
 40
0.0379746835443038
 40
0.0379746835443038
 40
0.0379746835443038
 40
0.0506329113924051
 40
0.0506329113924051
 40
0.0506329113924051
 40
0.0506329113924051
 40
0.0632911392405063
 40
0.0632911392405063
 40
0.0632911392405063
 40
0.0632911392405063
 40
0.0759493670886076
 40
0.0759493670886076
 40
0.0759493670886076
 40
0.0759493670886076
 40
0.0886075949367089
 40
0.0886075949367089
 40
0.0886075949367089
 40
0.0886075949367089
 40
0.1012658227848101
 40
0.1012658227848101
 40
0.1012658227848101
 40
0.1012658227848101
 40
0.1139240506329114
 40
0.1139240506329114
 40
0.1139240506329114
 40
0.1139240506329114
 40
0.1265822784810127
 40
0.1265822784810127
 40
0.1265822784810127
 40
0.1265822784810127
 40
0.1392405063291139
 40
0.1392405063291139
 40
0.1392405063291139
 40
0.1392405063291139
 40
0.1518987341772152
 40
0.1518987341772152
 40
0.1518987341772152
 40
0.1518987341772152
 40
0.1645569620253164
 40
0.1645569620253164
 40
0.1645569620253164
 40
0.1645569620253164
 40
0.1772151898734177
 40
0.1772151898734177
 40
0.1772151898734177
 40
0.1772151898734177
 40
0.189873417721519
 40
0.189873417721519
 40
0.189873417721519
 40
0.189873417721519
 40
0.2025316455696203
 40
0.2025316455696203
 40
0.2025316455696203
 40
0.2025316455696203
 40
0.2151898734177215
 40
0.2151898734177215
 40
0.2151898734177215
 40
0.2151898734177215
 40
0.2278481012658228
 40
0.2278481012658228
 40
0.2278481012658228
 40
0.2278481012658228
 40
0.2405063291139241
 40
0.2405063291139241
 40
0.2405063291139241
 40
0.2405063291139241
 40
0.2531645569620253
 40
0.2531645569620253
 40
0.2531645569620253
 40
0.2531645569620253
 40
0.2658227848101266
 40
0.2658227848101266
 40
0.2658227848101266
 40
0.2658227848101266
 40
0.2784810126582278
 40
0.2784810126582278
 40
0.2784810126582278
 40
0.2784810126582278
 40
0.2911392405063291
 40
0.2911392405063291
 40
0.2911392405063291
 40
0.2911392405063291
 40
0.3037974683544304
 40
0.3037974683544304
 40
0.3037974683544304
 40
0.3037974683544304
 40
0.3164556962025317
 40
0.3164556962025317
 40
0.3164556962025317
 40
0.3164556962025317
 40
0.3291139240506329
 40
0.3291139240506329
 40
0.3291139240506329
 40
0.3291139240506329
 40
0.3417721518987342
 40
0.3417721518987342
 40
0.3417721518987342
 40
0.3417721518987342
 40
0.3544303797468354
 40
0.3544303797468354
 40
0.3544303797468354
 40
0.3544303797468354
 40
0.3670886075949367
 40
0.3670886075949367
 40
0.3670886075949367
 40
0.3670886075949367
 40
0.379746835443038
 40
0.379746835443038
 40
0.379746835443038
 40
0.379746835443038
 40
0.3924050632911392
 40
0.3924050632911392
 40
0.3924050632911392
 40
0.3924050632911392
 40
0.4050632911392405
 40
0.4050632911392405
 40
0.4050632911392405
 40
0.4050632911392405
 40
0.4177215189873418
 40
0.4177215189873418
 40
0.4177215189873418
 40
0.4177215189873418
 40
0.4303797468354431
 40
0.4303797468354431
 40
0.4303797468354431
 40
0.4303797468354431
 40
0.4430379746835443
 40
0.4430379746835443
 40
0.4430379746835443
 40
0.4430379746835443
 40
0.4556962025316456
 40
0.4556962025316456
 40
0.4556962025316456
 40
0.4556962025316456
 40
0.4683544303797468
 40
0.4683544303797468
 40
0.4683544303797468
 40
0.4683544303797468
 40
0.4810126582278481
 40
0.4810126582278481
 40
0.4810126582278481
 40
0.4810126582278481
 40
0.4936708860759494
 40
0.4936708860759494
 40
0.4936708860759494
 40
0.4936708860759494
 40
0.5063291139240507
 40
0.5063291139240507
 40
0.5063291139240507
 40
0.5063291139240507
 40
0.5189873417721519
 40
0.5189873417721519
 40
0.5189873417721519
 40
0.5189873417721519
 40
0.5316455696202531
 40
0.5316455696202531
 40
0.5316455696202531
 40
0.5316455696202531
 40
0.5443037974683544
 40
0.5443037974683544
 40
0.5443037974683544
 40
0.5443037974683544
 40
0.5569620253164557
 40
0.5569620253164557
 40
0.5569620253164557
 40
0.5569620253164557
 40
0.569620253164557
 40
0.569620253164557
 40
0.569620253164557
 40
0.569620253164557
 40
0.5822784810126582
 40
0.5822784810126582
 40
0.5822784810126582
 40
0.5822784810126582
 40
0.5949367088607594
 40
0.5949367088607594
 40
0.5949367088607594
 40
0.5949367088607594
 40
0.6075949367088608
 40
0.6075949367088608
 40
0.6075949367088608
 40
0.6075949367088608
 40
0.620253164556962
 40
0.620253164556962
 40
0.620253164556962
 40
0.620253164556962
 40
0.6329113924050633
 40
0.6329113924050633
 40
0.6329113924050633
 40
0.6329113924050633
 40
0.6455696202531646
 40
0.6455696202531646
 40
0.6455696202531646
 40
0.6455696202531646
 40
0.6582278481012658
 40
0.6582278481012658
 40
0.6582278481012658
 40
0.6582278481012658
 40
0.6708860759493671
 40
0.6708860759493671
 40
0.6708860759493671
 40
0.6708860759493671
 40
0.6835443037974683
 40
0.6835443037974683
 40
0.6835443037974683
 40
0.6835443037974683
 40
0.6962025316455697
 40
0.6962025316455697
 40
0.6962025316455697
 40
0.6962025316455697
 40
0.7088607594936709
 40
0.7088607594936709
 40
0.7088607594936709
 40
0.7088607594936709
 40
0.7215189873417721
 40
0.7215189873417721
 40
0.7215189873417721
 40
0.7215189873417721
 40
0.7341772151898734
 40
0.7341772151898734
 40
0.7341772151898734
 40
0.7341772151898734
 40
0.7468354430379747
 40
0.7468354430379747
 40
0.7468354430379747
 40
0.7468354430379747
 40
0.759493670886076
 40
0.759493670886076
 40
0.759493670886076
 40
0.759493670886076
 40
0.7721518987341772
 40
0.7721518987341772
 40
0.7721518987341772
 40
0.7721518987341772
 40
0.7848101265822784
 40
0.7848101265822784
 40
0.7848101265822784
 40
0.7848101265822784
 40
0.7974683544303798
 40
0.7974683544303798
 40
0.7974683544303798
 40
0.7974683544303798
 40
0.810126582278481
 40
0.810126582278481
 40
0.810126582278481
 40
0.810126582278481
 40
0.8227848101265823
 40
0.8227848101265823
 40
0.8227848101265823
 40
0.8227848101265823
 40
0.8354430379746836
 40
0.8354430379746836
 40
0.8354430379746836
 40
0.8354430379746836
 40
0.8481012658227848
 40
0.8481012658227848
 40
0.8481012658227848
 40
0.8481012658227848
 40
0.8607594936708861
 40
0.8607594936708861
 40
0.8607594936708861
 40
0.8607594936708861
 40
0.8734177215189873
 40
0.8734177215189873
 40
0.8734177215189873
 40
0.8734177215189873
 40
0.8860759493670886
 40
0.8860759493670886
 40
0.8860759493670886
 40
0.8860759493670886
 40
0.8987341772151899
 40
0.8987341772151899
 40
0.8987341772151899
 40
0.8987341772151899
 40
0.9113924050632911
 40
0.9113924050632911
 40
0.9113924050632911
 40
0.9113924050632911
 40
0.9240506329113924
 40
0.9240506329113924
 40
0.9240506329113924
 40
0.9240506329113924
 40
0.9367088607594937
 40
0.9367088607594937
 40
0.9367088607594937
 40
0.9367088607594937
 40
0.9493670886075949
 40
0.9493670886075949
 40
0.9493670886075949
 40
0.9493670886075949
 40
0.9620253164556962
 40
0.9620253164556962
 40
0.9620253164556962
 40
0.9620253164556962
 40
0.9746835443037974
 40
0.9746835443037974
 40
0.9746835443037974
 40
0.9746835443037974
 40
1.0
 40
1.0
 40
1.0
 40
1.0
 10
-3.41826
 20
9.89898
 30
0.0
 10
-3.62922
 20
10.13767
 30
0.0
 10
-3.85691
 20
10.362
 30
0.0
 10
-4.06145
 20
10.60584
 30
0.0
 10
-4.06145
 20
10.60584
 30
0.0
 10
-4.17225
 20
10.73799
 30
0.0
 10
-4.27082
 20
10.88919
 30
0.0
 10
-4.3376
 20
11.04752
 30
0.0
 10
-4.3376
 20
11.04752
 30
0.0
 10
-4.45843
 20
11.33401
 30
0.0
 10
-4.40636
 20
11.52938
 30
0.0
 10
-4.20524
 20
11.69134
 30
0.0
 10
-4.20524
 20
11.69134
 30
0.0
 10
-3.99142
 20
11.86349
 30
0.0
 10
-3.67854
 20
11.87482
 30
0.0
 10
-3.45502
 20
11.69247
 30
0.0
 10
-3.45502
 20
11.69247
 30
0.0
 10
-3.33427
 20
11.59397
 30
0.0
 10
-3.23979
 20
11.46101
 30
0.0
 10
-3.14281
 20
11.3363
 30
0.0
 10
-3.14281
 20
11.3363
 30
0.0
 10
-3.06908
 20
11.24147
 30
0.0
 10
-3.0101
 20
11.13518
 30
0.0
 10
-2.9334
 20
11.01683
 30
0.0
 10
-2.9334
 20
11.01683
 30
0.0
 10
-2.81314
 20
11.24493
 30
0.0
 10
-2.84673
 20
11.38213
 30
0.0
 10
-3.00788
 20
11.55368
 30
0.0
 10
-3.00788
 20
11.55368
 30
0.0
 10
-3.25426
 20
11.81597
 30
0.0
 10
-3.48166
 20
12.11199
 30
0.0
 10
-3.64686
 20
12.43016
 30
0.0
 10
-3.64686
 20
12.43016
 30
0.0
 10
-3.8072
 20
12.73898
 30
0.0
 10
-3.64365
 20
13.12912
 30
0.0
 10
-3.37932
 20
13.25072
 30
0.0
 10
-3.37932
 20
13.25072
 30
0.0
 10
-3.09028
 20
13.38368
 30
0.0
 10
-2.81819
 20
13.2909
 30
0.0
 10
-2.59657
 20
12.98254
 30
0.0
 10
-2.59657
 20
12.98254
 30
0.0
 10
-2.53053
 20
12.8906
 30
0.0
 10
-2.46693
 20
12.79698
 30
0.0
 10
-2.39489
 20
12.69361
 30
0.0
 10
-2.39489
 20
12.69361
 30
0.0
 10
-2.207
 20
12.91809
 30
0.0
 10
-2.33993
 20
13.06181
 30
0.0
 10
-2.42742
 20
13.20913
 30
0.0
 10
-2.42742
 20
13.20913
 30
0.0
 10
-2.69884
 20
13.66601
 30
0.0
 10
-2.90698
 20
14.14854
 30
0.0
 10
-2.95471
 20
14.68152
 30
0.0
 10
-2.95471
 20
14.68152
 30
0.0
 10
-2.99267
 20
15.10548
 30
0.0
 10
-2.64832
 20
15.42401
 30
0.0
 10
-2.27297
 20
15.28826
 30
0.0
 10
-2.27297
 20
15.28826
 30
0.0
 10
-2.08444
 20
15.2201
 30
0.0
 10
-1.91208
 20
15.03461
 30
0.0
 10
-1.79541
 20
14.86006
 30
0.0
 10
-1.79541
 20
14.86006
 30
0.0
 10
-1.6706
 20
14.6733
 30
0.0
 10
-1.61994
 20
14.43694
 30
0.0
 10
-1.53503
 20
14.21744
 30
0.0
 10
-1.53503
 20
14.21744
 30
0.0
 10
-1.31306
 20
14.34394
 30
0.0
 10
-1.41925
 20
14.50121
 30
0.0
 10
-1.44588
 20
14.65061
 30
0.0
 10
-1.44588
 20
14.65061
 30
0.0
 10
-1.51559
 20
15.04153
 30
0.0
 10
-1.60449
 20
15.43131
 30
0.0
 10
-1.6386
 20
15.82565
 30
0.0
 10
-1.6386
 20
15.82565
 30
0.0
 10
-1.6773
 20
16.27254
 30
0.0
 10
-1.44715
 20
16.62698
 30
0.0
 10
-1.07649
 20
16.78965
 30
0.0
 10
-1.07649
 20
16.78965
 30
0.0
 10
-0.81236
 20
16.90553
 30
0.0
 10
-0.63467
 20
16.86807
 30
0.0
 10
-0.44025
 20
16.64864
 30
0.0
 10
-0.44025
 20
16.64864
 30
0.0
 10
-0.39171
 20
16.59385
 30
0.0
 10
-0.35566
 20
16.52796
 30
0.0
 10
-0.26372
 20
16.39418
 30
0.0
 10
-0.26372
 20
16.39418
 30
0.0
 10
-0.22337
 20
16.74819
 30
0.0
 10
-0.21941
 20
17.01983
 30
0.0
 10
-0.15701
 20
17.27726
 30
0.0
 10
-0.15701
 20
17.27726
 30
0.0
 10
-0.05241
 20
17.70874
 30
0.0
 10
0.40264
 20
17.99371
 30
0.0
 10
0.78025
 20
17.89864
 30
0.0
 10
0.78025
 20
17.89864
 30
0.0
 10
1.16422
 20
17.80194
 30
0.0
 10
1.329
 20
17.48663
 30
0.0
 10
1.24828
 20
16.98674
 30
0.0
 10
1.24828
 20
16.98674
 30
0.0
 10
1.22196
 20
16.82394
 30
0.0
 10
1.1778
 20
16.66402
 30
0.0
 10
1.13352
 20
16.46569
 30
0.0
 10
1.13352
 20
16.46569
 30
0.0
 10
1.52715
 20
16.60811
 30
0.0
 10
1.83171
 20
16.78192
 30
0.0
 10
2.06659
 20
17.08746
 30
0.0
 10
2.06659
 20
17.08746
 30
0.0
 10
2.40984
 20
17.53394
 30
0.0
 10
2.9087
 20
17.71735
 30
0.0
 10
3.44623
 20
17.74479
 30
0.0
 10
3.44623
 20
17.74479
 30
0.0
 10
3.6652
 20
17.75601
 30
0.0
 10
3.91722
 20
17.65949
 30
0.0
 10
4.10917
 20
17.53976
 30
0.0
 10
4.10917
 20
17.53976
 30
0.0
 10
4.42995
 20
17.3397
 30
0.0
 10
4.49433
 20
17.01197
 30
0.0
 10
4.26683
 20
16.71637
 30
0.0
 10
4.26683
 20
16.71637
 30
0.0
 10
4.11905
 20
16.52436
 30
0.0
 10
3.90491
 20
16.35516
 30
0.0
 10
3.68464
 20
16.25314
 30
0.0
 10
3.68464
 20
16.25314
 30
0.0
 10
3.2571
 20
16.05513
 30
0.0
 10
2.78946
 20
16.05132
 30
0.0
 10
2.32355
 20
16.09235
 30
0.0
 10
2.32355
 20
16.09235
 30
0.0
 10
1.68297
 20
16.14875
 30
0.0
 10
1.17639
 20
15.8527
 30
0.0
 10
0.69287
 20
15.48906
 30
0.0
 10
0.69287
 20
15.48906
 30
0.0
 10
0.84633
 20
15.44549
 30
0.0
 10
0.98836
 20
15.44528
 30
0.0
 10
1.1301
 20
15.43854
 30
0.0
 10
1.1301
 20
15.43854
 30
0.0
 10
1.49163
 20
15.42136
 30
0.0
 10
1.81714
 20
15.29655
 30
0.0
 10
2.09978
 20
15.07596
 30
0.0
 10
2.09978
 20
15.07596
 30
0.0
 10
2.49768
 20
14.76537
 30
0.0
 10
2.43637
 20
14.29618
 30
0.0
 10
1.96975
 20
14.09449
 30
0.0
 10
1.96975
 20
14.09449
 30
0.0
 10
1.62628
 20
13.94605
 30
0.0
 10
1.26504
 20
13.88004
 30
0.0
 10
0.89833
 20
14.00478
 30
0.0
 10
0.89833
 20
14.00478
 30
0.0
 10
0.43354
 20
14.1629
 30
0.0
 10
-0.02669
 20
14.33417
 30
0.0
 10
-0.50192
 20
14.50442
 30
0.0
 10
-0.50192
 20
14.50442
 30
0.0
 10
-0.85071
 20
14.23349
 30
0.0
 10
-0.97147
 20
14.07424
 30
0.0
 10
-1.07599
 20
13.73018
 30
0.0
 10
-1.07599
 20
13.73018
 30
0.0
 10
-0.86853
 20
13.76027
 30
0.0
 10
-0.66631
 20
13.79481
 30
0.0
 10
-0.46283
 20
13.81792
 30
0.0
 10
-0.46283
 20
13.81792
 30
0.0
 10
-0.17877
 20
13.8502
 30
0.0
 10
0.07385
 20
13.76408
 30
0.0
 10
0.2931
 20
13.58526
 30
0.0
 10
0.2931
 20
13.58526
 30
0.0
 10
0.57896
 20
13.35221
 30
0.0
 10
0.6118
 20
13.08269
 30
0.0
 10
0.38884
 20
12.795
 30
0.0
 10
0.38884
 20
12.795
 30
0.0
 10
0.16988
 20
12.51243
 30
0.0
 10
-0.11118
 20
12.34884
 30
0.0
 10
-0.47927
 20
12.39696
 30
0.0
 10
-0.47927
 20
12.39696
 30
0.0
 10
-0.73126
 20
12.42988
 30
0.0
 10
-0.98103
 20
12.48061
 30
0.0
 10
-1.23086
 20
12.52841
 30
0.0
 10
-1.23086
 20
12.52841
 30
0.0
 10
-1.42955
 20
12.5664
 30
0.0
 10
-1.62679
 20
12.61195
 30
0.0
 10
-1.82275
 20
12.65375
 30
0.0
 10
-1.82275
 20
12.65375
 30
0.0
 10
-1.98168
 20
12.37456
 30
0.0
 10
-2.1139
 20
12.13901
 30
0.0
 10
-2.10582
 20
11.84557
 30
0.0
 10
-2.10582
 20
11.84557
 30
0.0
 10
-1.75456
 20
11.95162
 30
0.0
 10
-1.45618
 20
12.0656
 30
0.0
 10
-1.14743
 20
12.1285
 30
0.0
 10
-1.14743
 20
12.1285
 30
0.0
 10
-0.79917
 20
12.19948
 30
0.0
 10
-0.51769
 20
12.04016
 30
0.0
 10
-0.39979
 20
11.75847
 30
0.0
 10
-0.39979
 20
11.75847
 30
0.0
 10
-0.29149
 20
11.49971
 30
0.0
 10
-0.37951
 20
11.23135
 30
0.0
 10
-0.65238
 20
11.0018
 30
0.0
 10
-0.65238
 20
11.0018
 30
0.0
 10
-0.92187
 20
10.77514
 30
0.0
 10
-1.25097
 20
10.71573
 30
0.0
 10
-1.58636
 20
10.68116
 30
0.0
 10
-1.58636
 20
10.68116
 30
0.0
 10
-1.83577
 20
10.6554
 30
0.0
 10
-2.08607
 20
10.6384
 30
0.0
 10
-2.36215
 20
10.61533
 30
0.0
 10
-2.36215
 20
10.61533
 30
0.0
 10
-2.37404
 20
10.37639
 30
0.0
 10
-2.38367
 20
10.18356
 30
0.0
 10
-2.39697
 20
9.91648
 30
0.0
 10
-2.39697
 20
9.91648
 30
0.0
 10
-2.20238
 20
10.05
 30
0.0
 10
-2.09489
 20
10.14638
 30
0.0
 10
-1.96969
 20
10.20448
 30
0.0
 10
-1.96969
 20
10.20448
 30
0.0
 10
-1.76934
 20
10.29744
 30
0.0
 10
-1.56244
 20
10.3874
 30
0.0
 10
-1.34866
 20
10.43704
 30
0.0
 10
-1.34866
 20
10.43704
 30
0.0
 10
-1.12577
 20
10.48875
 30
0.0
 10
-0.93584
 20
10.37615
 30
0.0
 10
-0.82005
 20
10.18783
 30
0.0
 10
-0.82005
 20
10.18783
 30
0.0
 10
-0.70579
 20
10.00199
 30
0.0
 10
-0.76209
 20
9.80412
 30
0.0
 10
-0.90317
 20
9.66022
 30
0.0
 10
-0.90317
 20
9.66022
 30
0.0
 10
-1.09109
 20
9.46845
 30
0.0
 10
-1.29701
 20
9.29051
 30
0.0
 10
-1.51351
 20
9.13151
 30
0.0
 10
-1.51351
 20
9.13151
 30
0.0
 10
-1.75417
 20
8.9548
 30
0.0
 10
-2.01541
 20
8.80611
 30
0.0
 10
-2.25431
 20
8.65374
 30
0.0
 10
-2.25431
 20
8.65374
 30
0.0
 10
-2.20562
 20
8.29924
 30
0.0
 10
-2.14985
 20
7.98611
 30
0.0
 10
-2.12138
 20
7.67052
 30
0.0
 10
-2.12138
 20
7.67052
 30
0.0
 10
-1.97784
 20
6.07843
 30
0.0
 10
-2.00172
 20
4.48769
 30
0.0
 10
-2.20732
 20
2.90251
 30
0.0
 10
-2.20732
 20
2.90251
 30
0.0
 10
-2.34088
 20
1.87293
 30
0.0
 10
-2.40501
 20
0.84307
 30
0.0
 10
-2.29696
 20
-0.19131
 30
0.0
 10
-2.29696
 20
-0.19131
 30
0.0
 10
-2.19275
 20
-1.18886
 30
0.0
 10
-2.05633
 20
-2.18331
 30
0.0
 10
-1.96753
 20
-3.18213
 30
0.0
 10
-1.96753
 20
-3.18213
 30
0.0
 10
-1.91695
 20
-3.75119
 30
0.0
 10
-2.55604
 20
-11.10739
 30
0.0
 10
-2.60871
 20
-11.67356
 30
0.0
 10
-2.60871
 20
-11.67356
 30
0.0
 10
-2.69277
 20
-12.57674
 30
0.0
 10
-2.85675
 20
-13.47255
 30
0.0
 10
-2.98805
 20
-14.37129
 30
0.0
 10
-2.98805
 20
-14.37129
 30
0.0
 10
-2.99955
 20
-14.44996
 30
0.0
 10
-3.00639
 20
-14.5331
 30
0.0
 10
-3.03786
 20
-14.60422
 30
0.0
 10
-3.03786
 20
-14.60422
 30
0.0
 10
-3.10817
 20
-14.76287
 30
0.0
 10
-3.18529
 20
-14.97185
 30
0.0
 10
-3.39942
 20
-14.90373
 30
0.0
 10
-3.39942
 20
-14.90373
 30
0.0
 10
-3.59712
 20
-14.8409
 30
0.0
 10
-3.50977
 20
-14.63767
 30
0.0
 10
-3.49362
 20
-14.48509
 30
0.0
 10
-3.49362
 20
-14.48509
 30
0.0
 10
-3.49026
 20
-14.45352
 30
0.0
 10
-3.4837
 20
-14.42191
 30
0.0
 10
-3.47481
 20
-14.39143
 30
0.0
 10
-3.47481
 20
-14.39143
 30
0.0
 10
-3.14729
 20
-13.26928
 30
0.0
 10
-2.53455
 20
-5.3382
 30
0.0
 10
-2.57163
 20
-4.19717
 30
0.0
 10
-2.57163
 20
-4.19717
 30
0.0
 10
-2.60458
 20
-3.18177
 30
0.0
 10
-2.80884
 20
-2.17272
 30
0.0
 10
-2.85939
 20
-1.15697
 30
0.0
 10
-2.85939
 20
-1.15697
 30
0.0
 10
-2.91231
 20
-0.09444
 30
0.0
 10
-2.98329
 20
0.98781
 30
0.0
 10
-2.84186
 20
2.03376
 30
0.0
 10
-2.84186
 20
2.03376
 30
0.0
 10
-2.69457
 20
3.12328
 30
0.0
 10
-2.57717
 20
4.21269
 30
0.0
 10
-2.48961
 20
5.30627
 30
0.0
 10
-2.48961
 20
5.30627
 30
0.0
 10
-2.41412
 20
6.24977
 30
0.0
 10
-2.60123
 20
7.1683
 30
0.0
 10
-2.78668
 20
8.08175
 30
0.0
 10
-2.78668
 20
8.08175
 30
0.0
 10
-2.92663
 20
8.11597
 30
0.0
 10
-3.0362
 20
8.13587
 30
0.0
 10
-3.1413
 20
8.16966
 30
0.0
 10
-3.1413
 20
8.16966
 30
0.0
 10
-3.54914
 20
8.30082
 30
0.0
 10
-3.89564
 20
8.53034
 30
0.0
 10
-4.1077
 20
8.90369
 30
0.0
 10
-4.1077
 20
8.90369
 30
0.0
 10
-4.18196
 20
9.03446
 30
0.0
 10
-4.19511
 20
9.24627
 30
0.0
 10
-4.14562
 20
9.38989
 30
0.0
 10
-4.14562
 20
9.38989
 30
0.0
 10
-4.07535
 20
9.5939
 30
0.0
 10
-3.86174
 20
9.62748
 30
0.0
 10
-3.65917
 20
9.58931
 30
0.0
 10
-3.65917
 20
9.58931
 30
0.0
 10
-3.49023
 20
9.55749
 30
0.0
 10
-3.32449
 20
9.50852
 30
0.0
 10
-3.06446
 20
9.44414
 30
0.0
 10
-3.06446
 20
9.44414
 30
0.0
 10
-3.21302
 20
9.63641
 30
0.0
 10
-3.30813
 20
9.77431
 30
0.0
 10
-3.41826
 20
9.89898
 30
0.0
  0
SPLINE
  5
42
330
1F
100
AcDbEntity
  8
Layer 1
370
    53
100
AcDbSpline
210
0.0
220
0.0
230
1.0
 70
    11
 71
     3
 72
    20
 73
    16
 74
     0
 42
0.0000000001
 43
0.0000000001
 12
1.0
 22
0.0
 32
0.0
 13
1.0
 23
0.0
 33
0.0
 40
0.0
 40
0.0
 40
0.0
 40
0.0
 40
0.2
 40
0.2
 40
0.2
 40
0.2
 40
0.4
 40
0.4
 40
0.4
 40
0.4
 40
0.6
 40
0.6
 40
0.6
 40
0.6
 40
1.0
 40
1.0
 40
1.0
 40
1.0
 10
-0.7761
 20
16.08522
 30
0.0
 10
-0.79783
 20
16.17514
 30
0.0
 10
-0.90193
 20
16.24513
 30
0.0
 10
-0.96808
 20
16.32433
 30
0.0
 10
-0.96808
 20
16.32433
 30
0.0
 10
-1.0488
 20
16.23892
 30
0.0
 10
-1.19022
 20
16.15976
 30
0.0
 10
-1.19975
 20
16.06705
 30
0.0
 10
-1.19975
 20
16.06705
 30
0.0
 10
-1.2412
 20
15.66227
 30
0.0
 10
-1.17262
 20
15.26568
 30
0.0
 10
-1.01772
 20
14.80065
 30
0.0
 10
-1.01772
 20
14.80065
 30
0.0
 10
-0.75278
 20
15.25217
 30
0.0
 10
-0.67217
 20
15.65504
 30
0.0
 10
-0.7761
 20
16.08522
 30
0.0
  0
SPLINE
  5
43
330
1F
100
AcDbEntity
  8
Layer 1
370
    53
100
AcDbSpline
210
0.0
220
0.0
230
1.0
 70
    11
 71
     3
 72
    16
 73
    12
 74
     0
 42
0.0000000001
 43
0.0000000001
 12
1.0
 22
0.0
 32
0.0
 13
1.0
 23
0.0
 33
0.0
 40
0.0
 40
0.0
 40
0.0
 40
0.0
 40
0.25
 40
0.25
 40
0.25
 40
0.25
 40
0.5
 40
0.5
 40
0.5
 40
0.5
 40
1.0
 40
1.0
 40
1.0
 40
1.0
 10
0.83977
 20
17.02671
 30
0.0
 10
0.87095
 20
17.1632
 30
0.0
 10
0.83176
 20
17.31349
 30
0.0
 10
0.59148
 20
17.37857
 30
0.0
 10
0.59148
 20
17.37857
 30
0.0
 10
0.26922
 20
16.96367
 30
0.0
 10
0.2338
 20
16.46033
 30
0.0
 10
0.23408
 20
15.94125
 30
0.0
 10
0.23408
 20
15.94125
 30
0.0
 10
0.62193
 20
16.21028
 30
0.0
 10
0.74561
 20
16.61463
 30
0.0
 10
0.83977
 20
17.02671
 30
0.0
  0
SPLINE
  5
44
330
1F
100
AcDbEntity
  8
Layer 1
370
    53
100
AcDbSpline
210
0.0
220
0.0
230
1.0
 70
    11
 71
     3
 72
    12
 73
     8
 74
     0
 42
0.0000000001
 43
0.0000000001
 12
1.0
 22
0.0
 32
0.0
 13
1.0
 23
0.0
 33
0.0
 40
0.0
 40
0.0
 40
0.0
 40
0.0
 40
0.3333333333333333
 40
0.3333333333333333
 40
0.3333333333333333
 40
0.3333333333333333
 40
1.0
 40
1.0
 40
1.0
 40
1.0
 10
3.7457
 20
17.03479
 30
0.0
 10
3.24716
 20
17.23189
 30
0.0
 10
2.81807
 20
17.09656
 30
0.0
 10
2.42437
 20
16.64282
 30
0.0
 10
2.42437
 20
16.64282
 30
0.0
 10
2.9298
 20
16.57149
 30
0.0
 10
3.33941
 20
16.7163
 30
0.0
 10
3.7457
 20
17.03479
 30
0.0
  0
SPLINE
  5
45
330
1F
100
AcDbEntity
  8
Layer 1
370
    53
100
AcDbSpline
210
0.0
220
0.0
230
1.0
 70
    11
 71
     3
 72
    12
 73
     8
 74
     0
 42
0.0000000001
 43
0.0000000001
 12
1.0
 22
0.0
 32
0.0
 13
1.0
 23
0.0
 33
0.0
 40
0.0
 40
0.0
 40
0.0
 40
0.0
 40
0.3333333333333333
 40
0.3333333333333333
 40
0.3333333333333333
 40
0.3333333333333333
 40
1.0
 40
1.0
 40
1.0
 40
1.0
 10
-2.48838
 20
14.71574
 30
0.0
 10
-2.53307
 20
14.23913
 30
0.0
 10
-2.3171
 20
13.87373
 30
0.0
 10
-2.08155
 20
13.51393
 30
0.0
 10
-2.08155
 20
13.51393
 30
0.0
 10
-1.9307
 20
14.32955
 30
0.0
 10
-1.99978
 20
14.53275
 30
0.0
 10
-2.48838
 20
14.71574
 30
0.0
  0
SPLINE
  5
46
330
1F
100
AcDbEntity
  8
Layer 1
370
    53
100
AcDbSpline
210
0.0
220
0.0
230
1.0
 70
    11
 71
     3
 72
    12
 73
     8
 74
     0
 42
0.0000000001
 43
0.0000000001
 12
1.0
 22
0.0
 32
0.0
 13
1.0
 23
0.0
 33
0.0
 40
0.0
 40
0.0
 40
0.0
 40
0.0
 40
0.3333333333333333
 40
0.3333333333333333
 40
0.3333333333333333
 40
0.3333333333333333
 40
1.0
 40
1.0
 40
1.0
 40
1.0
 10
1.68065
 20
14.63047
 30
0.0
 10
1.42068
 20
14.84238
 30
0.0
 10
1.11147
 20
14.87022
 30
0.0
 10
0.35163
 20
14.75013
 30
0.0
 10
0.35163
 20
14.75013
 30
0.0
 10
0.7582
 20
14.42155
 30
0.0
 10
1.25837
 20
14.37654
 30
0.0
 10
1.68065
 20
14.63047
 30
0.0
  0
SPLINE
  5
47
330
1F
100
AcDbEntity
  8
Layer 1
370
    53
100
AcDbSpline
210
0.0
220
0.0
230
1.0
 70
    11
 71
     3
 72
    16
 73
    12
 74
     0
 42
0.0000000001
 43
0.0000000001
 12
1.0
 22
0.0
 32
0.0
 13
1.0
 23
0.0
 33
0.0
 40
0.0
 40
0.0
 40
0.0
 40
0.0
 40
0.25
 40
0.25
 40
0.25
 40
0.25
 40
0.5
 40
0.5
 40
0.5
 40
0.5
 40
1.0
 40
1.0
 40
1.0
 40
1.0
 10
-3.73735
 20
11.4113
 30
0.0
 10
-3.7987
 20
11.31972
 30
0.0
 10
-3.89278
 20
11.24373
 30
0.0
 10
-3.88478
 20
11.18073
 30
0.0
 10
-3.88478
 20
11.18073
 30
0.0
 10
-3.8368
 20
10.80244
 30
0.0
 10
-3.51538
 20
10.61388
 30
0.0
 10
-3.25711
 20
10.37085
 30
0.0
 10
-3.25711
 20
10.37085
 30
0.0
 10
-3.3337
 20
10.74046
 30
0.0
 10
-3.43308
 20
11.09952
 30
0.0
 10
-3.73735
 20
11.4113
 30
0.0
  0
SPLINE
  5
48
330
1F
100
AcDbEntity
  8
Layer 1
370
    53
100
AcDbSpline
210
0.0
220
0.0
230
1.0
 70
    11
 71
     3
 72
    12
 73
     8
 74
     0
 42
0.0000000001
 43
0.0000000001
 12
1.0
 22
0.0
 32
0.0
 13
1.0
 23
0.0
 33
0.0
 40
0.0
 40
0.0
 40
0.0
 40
0.0
 40
0.3333333333333333
 40
0.3333333333333333
 40
0.3333333333333333
 40
0.3333333333333333
 40
1.0
 40
1.0
 40
1.0
 40
1.0
 10
-3.18479
 20
12.84894
 30
0.0
 10
-3.321
 20
12.44268
 30
0.0
 10
-3.12084
 20
12.0946
 30
0.0
 10
-2.70255
 20
12.00065
 30
0.0
 10
-2.70255
 20
12.00065
 30
0.0
 10
-2.75532
 20
12.3469
 30
0.0
 10
-2.78453
 20
12.69788
 30
0.0
 10
-3.18479
 20
12.84894
 30
0.0
  0
SPLINE
  5
49
330
1F
100
AcDbEntity
  8
Layer 1
370
    53
100
AcDbSpline
210
0.0
220
0.0
230
1.0
 70
    11
 71
     3
 72
    12
 73
     8
 74
     0
 42
0.0000000001
 43
0.0000000001
 12
1.0
 22
0.0
 32
0.0
 13
1.0
 23
0.0
 33
0.0
 40
0.0
 40
0.0
 40
0.0
 40
0.0
 40
0.3333333333333333
 40
0.3333333333333333
 40
0.3333333333333333
 40
0.3333333333333333
 40
1.0
 40
1.0
 40
1.0
 40
1.0
 10
-1.22384
 20
13.03598
 30
0.0
 10
-0.74216
 20
12.80065
 30
0.0
 10
-0.49264
 20
12.81772
 30
0.0
 10
-0.14692
 20
13.11388
 30
0.0
 10
-0.14692
 20
13.11388
 30
0.0
 10
-0.53307
 20
13.35733
 30
0.0
 10
-0.86306
 20
13.16881
 30
0.0
 10
-1.22384
 20
13.03598
 30
0.0
  0
SPLINE
  5
4A
330
1F
100
AcDbEntity
  8
Layer 1
370
    53
100
AcDbSpline
210
0.0
220
0.0
230
1.0
 70
    11
 71
     3
 72
    12
 73
     8
 74
     0
 42
0.0000000001
 43
0.0000000001
 12
1.0
 22
0.0
 32
0.0
 13
1.0
 23
0.0
 33
0.0
 40
0.0
 40
0.0
 40
0.0
 40
0.0
 40
0.3333333333333333
 40
0.3333333333333333
 40
0.3333333333333333
 40
0.3333333333333333
 40
1.0
 40
1.0
 40
1.0
 40
1.0
 10
-2.11171
 20
11.11451
 30
0.0
 10
-1.68291
 20
11.11395
 30
0.0
 10
-1.27348
 20
11.16859
 30
0.0
 10
-0.9593
 20
11.51389
 30
0.0
 10
-0.9593
 20
11.51389
 30
0.0
 10
-1.41685
 20
11.58533
 30
0.0
 10
-1.75439
 20
11.3242
 30
0.0
 10
-2.11171
 20
11.11451
 30
0.0
  0
SPLINE
  5
4B
330
1F
100
AcDbEntity
  8
Layer 1
370
    53
100
AcDbSpline
210
0.0
220
0.0
230
1.0
 70
    11
 71
     3
 72
    12
 73
     8
 74
     0
 42
0.0000000001
 43
0.0000000001
 12
1.0
 22
0.0
 32
0.0
 13
1.0
 23
0.0
 33
0.0
 40
0.0
 40
0.0
 40
0.0
 40
0.0
 40
0.3333333333333333
 40
0.3333333333333333
 40
0.3333333333333333
 40
0.3333333333333333
 40
1.0
 40
1.0
 40
1.0
 40
1.0
 10
-2.96357
 20
8.62774
 30
0.0
 10
-3.11537
 20
8.93593
 30
0.0
 10
-3.35201
 20
9.12378
 30
0.0
 10
-3.77735
 20
9.19804
 30
0.0
 10
-3.77735
 20
9.19804
 30
0.0
 10
-3.57952
 20
8.80487
 30
0.0
 10
-3.2581
 20
8.73753
 30
0.0
 10
-2.96357
 20
8.62774
 30
0.0
  0
SPLINE
  5
4C
330
1F
100
AcDbEntity
  8
Layer 1
370
    53
100
AcDbSpline
210
0.0
220
0.0
230
1.0
 70
    11
 71
     3
 72
    12
 73
     8
 74
     0
 42
0.0000000001
 43
0.0000000001
 12
1.0
 22
0.0
 32
0.0
 13
1.0
 23
0.0
 33
0.0
 40
0.0
 40
0.0
 40
0.0
 40
0.0
 40
0.3333333333333333
 40
0.3333333333333333
 40
0.3333333333333333
 40
0.3333333333333333
 40
1.0
 40
1.0
 40
1.0
 40
1.0
 10
-2.20584
 20
9.35016
 30
0.0
 10
-1.86675
 20
9.45236
 30
0.0
 10
-1.55923
 20
9.6054
 30
0.0
 10
-1.35465
 20
9.92692
 30
0.0
 10
-1.35465
 20
9.92692
 30
0.0
 10
-1.73971
 20
9.88942
 30
0.0
 10
-1.99745
 20
9.65789
 30
0.0
 10
-2.20584
 20
9.35016
 30
0.0
  0
SPLINE
  5
4D
330
1F
100
AcDbEntity
  8
Layer 1
370
    53
100
AcDbSpline
210
0.0
220
0.0
230
1.0
 70
    11
 71
     3
 72
   316
 73
   312
 74
     0
 42
0.0000000001
 43
0.0000000001
 12
1.0
 22
0.0
 32
0.0
 13
1.0
 23
0.0
 33
0.0
 40
0.0
 40
0.0
 40
0.0
 40
0.0
 40
0.0126582278481013
 40
0.0126582278481013
 40
0.0126582278481013
 40
0.0126582278481013
 40
0.0253164556962025
 40
0.0253164556962025
 40
0.0253164556962025
 40
0.0253164556962025
 40
0.0379746835443038
 40
0.0379746835443038
 40
0.0379746835443038
 40
0.0379746835443038
 40
0.0506329113924051
 40
0.0506329113924051
 40
0.0506329113924051
 40
0.0506329113924051
 40
0.0632911392405063
 40
0.0632911392405063
 40
0.0632911392405063
 40
0.0632911392405063
 40
0.0759493670886076
 40
0.0759493670886076
 40
0.0759493670886076
 40
0.0759493670886076
 40
0.0886075949367089
 40
0.0886075949367089
 40
0.0886075949367089
 40
0.0886075949367089
 40
0.1012658227848101
 40
0.1012658227848101
 40
0.1012658227848101
 40
0.1012658227848101
 40
0.1139240506329114
 40
0.1139240506329114
 40
0.1139240506329114
 40
0.1139240506329114
 40
0.1265822784810127
 40
0.1265822784810127
 40
0.1265822784810127
 40
0.1265822784810127
 40
0.1392405063291139
 40
0.1392405063291139
 40
0.1392405063291139
 40
0.1392405063291139
 40
0.1518987341772152
 40
0.1518987341772152
 40
0.1518987341772152
 40
0.1518987341772152
 40
0.1645569620253164
 40
0.1645569620253164
 40
0.1645569620253164
 40
0.1645569620253164
 40
0.1772151898734177
 40
0.1772151898734177
 40
0.1772151898734177
 40
0.1772151898734177
 40
0.189873417721519
 40
0.189873417721519
 40
0.189873417721519
 40
0.189873417721519
 40
0.2025316455696203
 40
0.2025316455696203
 40
0.2025316455696203
 40
0.2025316455696203
 40
0.2151898734177215
 40
0.2151898734177215
 40
0.2151898734177215
 40
0.2151898734177215
 40
0.2278481012658228
 40
0.2278481012658228
 40
0.2278481012658228
 40
0.2278481012658228
 40
0.2405063291139241
 40
0.2405063291139241
 40
0.2405063291139241
 40
0.2405063291139241
 40
0.2531645569620253
 40
0.2531645569620253
 40
0.2531645569620253
 40
0.2531645569620253
 40
0.2658227848101266
 40
0.2658227848101266
 40
0.2658227848101266
 40
0.2658227848101266
 40
0.2784810126582278
 40
0.2784810126582278
 40
0.2784810126582278
 40
0.2784810126582278
 40
0.2911392405063291
 40
0.2911392405063291
 40
0.2911392405063291
 40
0.2911392405063291
 40
0.3037974683544304
 40
0.3037974683544304
 40
0.3037974683544304
 40
0.3037974683544304
 40
0.3164556962025317
 40
0.3164556962025317
 40
0.3164556962025317
 40
0.3164556962025317
 40
0.3291139240506329
 40
0.3291139240506329
 40
0.3291139240506329
 40
0.3291139240506329
 40
0.3417721518987342
 40
0.3417721518987342
 40
0.3417721518987342
 40
0.3417721518987342
 40
0.3544303797468354
 40
0.3544303797468354
 40
0.3544303797468354
 40
0.3544303797468354
 40
0.3670886075949367
 40
0.3670886075949367
 40
0.3670886075949367
 40
0.3670886075949367
 40
0.379746835443038
 40
0.379746835443038
 40
0.379746835443038
 40
0.379746835443038
 40
0.3924050632911392
 40
0.3924050632911392
 40
0.3924050632911392
 40
0.3924050632911392
 40
0.4050632911392405
 40
0.4050632911392405
 40
0.4050632911392405
 40
0.4050632911392405
 40
0.4177215189873418
 40
0.4177215189873418
 40
0.4177215189873418
 40
0.4177215189873418
 40
0.4303797468354431
 40
0.4303797468354431
 40
0.4303797468354431
 40
0.4303797468354431
 40
0.4430379746835443
 40
0.4430379746835443
 40
0.4430379746835443
 40
0.4430379746835443
 40
0.4556962025316456
 40
0.4556962025316456
 40
0.4556962025316456
 40
0.4556962025316456
 40
0.4683544303797468
 40
0.4683544303797468
 40
0.4683544303797468
 40
0.4683544303797468
 40
0.4810126582278481
 40
0.4810126582278481
 40
0.4810126582278481
 40
0.4810126582278481
 40
0.4936708860759494
 40
0.4936708860759494
 40
0.4936708860759494
 40
0.4936708860759494
 40
0.5063291139240507
 40
0.5063291139240507
 40
0.5063291139240507
 40
0.5063291139240507
 40
0.5189873417721519
 40
0.5189873417721519
 40
0.5189873417721519
 40
0.5189873417721519
 40
0.5316455696202531
 40
0.5316455696202531
 40
0.5316455696202531
 40
0.5316455696202531
 40
0.5443037974683544
 40
0.5443037974683544
 40
0.5443037974683544
 40
0.5443037974683544
 40
0.5569620253164557
 40
0.5569620253164557
 40
0.5569620253164557
 40
0.5569620253164557
 40
0.569620253164557
 40
0.569620253164557
 40
0.569620253164557
 40
0.569620253164557
 40
0.5822784810126582
 40
0.5822784810126582
 40
0.5822784810126582
 40
0.5822784810126582
 40
0.5949367088607594
 40
0.5949367088607594
 40
0.5949367088607594
 40
0.5949367088607594
 40
0.6075949367088608
 40
0.6075949367088608
 40
0.6075949367088608
 40
0.6075949367088608
 40
0.620253164556962
 40
0.620253164556962
 40
0.620253164556962
 40
0.620253164556962
 40
0.6329113924050633
 40
0.6329113924050633
 40
0.6329113924050633
 40
0.6329113924050633
 40
0.6455696202531646
 40
0.6455696202531646
 40
0.6455696202531646
 40
0.6455696202531646
 40
0.6582278481012658
 40
0.6582278481012658
 40
0.6582278481012658
 40
0.6582278481012658
 40
0.6708860759493671
 40
0.6708860759493671
 40
0.6708860759493671
 40
0.6708860759493671
 40
0.6835443037974683
 40
0.6835443037974683
 40
0.6835443037974683
 40
0.6835443037974683
 40
0.6962025316455697
 40
0.6962025316455697
 40
0.6962025316455697
 40
0.6962025316455697
 40
0.7088607594936709
 40
0.7088607594936709
 40
0.7088607594936709
 40
0.7088607594936709
 40
0.7215189873417721
 40
0.7215189873417721
 40
0.7215189873417721
 40
0.7215189873417721
 40
0.7341772151898734
 40
0.7341772151898734
 40
0.7341772151898734
 40
0.7341772151898734
 40
0.7468354430379747
 40
0.7468354430379747
 40
0.7468354430379747
 40
0.7468354430379747
 40
0.759493670886076
 40
0.759493670886076
 40
0.759493670886076
 40
0.759493670886076
 40
0.7721518987341772
 40
0.7721518987341772
 40
0.7721518987341772
 40
0.7721518987341772
 40
0.7848101265822784
 40
0.7848101265822784
 40
0.7848101265822784
 40
0.7848101265822784
 40
0.7974683544303798
 40
0.7974683544303798
 40
0.7974683544303798
 40
0.7974683544303798
 40
0.810126582278481
 40
0.810126582278481
 40
0.810126582278481
 40
0.810126582278481
 40
0.8227848101265823
 40
0.8227848101265823
 40
0.8227848101265823
 40
0.8227848101265823
 40
0.8354430379746836
 40
0.8354430379746836
 40
0.8354430379746836
 40
0.8354430379746836
 40
0.8481012658227848
 40
0.8481012658227848
 40
0.8481012658227848
 40
0.8481012658227848
 40
0.8607594936708861
 40
0.8607594936708861
 40
0.8607594936708861
 40
0.8607594936708861
 40
0.8734177215189873
 40
0.8734177215189873
 40
0.8734177215189873
 40
0.8734177215189873
 40
0.8860759493670886
 40
0.8860759493670886
 40
0.8860759493670886
 40
0.8860759493670886
 40
0.8987341772151899
 40
0.8987341772151899
 40
0.8987341772151899
 40
0.8987341772151899
 40
0.9113924050632911
 40
0.9113924050632911
 40
0.9113924050632911
 40
0.9113924050632911
 40
0.9240506329113924
 40
0.9240506329113924
 40
0.9240506329113924
 40
0.9240506329113924
 40
0.9367088607594937
 40
0.9367088607594937
 40
0.9367088607594937
 40
0.9367088607594937
 40
0.9493670886075949
 40
0.9493670886075949
 40
0.9493670886075949
 40
0.9493670886075949
 40
0.9620253164556962
 40
0.9620253164556962
 40
0.9620253164556962
 40
0.9620253164556962
 40
0.9746835443037974
 40
0.9746835443037974
 40
0.9746835443037974
 40
0.9746835443037974
 40
1.0
 40
1.0
 40
1.0
 40
1.0
 10
3.41826
 20
-9.89898
 30
0.0
 10
3.62922
 20
-10.13767
 30
0.0
 10
3.85691
 20
-10.362
 30
0.0
 10
4.06145
 20
-10.60584
 30
0.0
 10
4.06145
 20
-10.60584
 30
0.0
 10
4.17225
 20
-10.73799
 30
0.0
 10
4.27082
 20
-10.88919
 30
0.0
 10
4.3376
 20
-11.04752
 30
0.0
 10
4.3376
 20
-11.04752
 30
0.0
 10
4.45843
 20
-11.33401
 30
0.0
 10
4.40636
 20
-11.52938
 30
0.0
 10
4.20524
 20
-11.69134
 30
0.0
 10
4.20524
 20
-11.69134
 30
0.0
 10
3.99142
 20
-11.86349
 30
0.0
 10
3.67854
 20
-11.87482
 30
0.0
 10
3.45502
 20
-11.69247
 30
0.0
 10
3.45502
 20
-11.69247
 30
0.0
 10
3.33427
 20
-11.59397
 30
0.0
 10
3.23979
 20
-11.46101
 30
0.0
 10
3.14281
 20
-11.3363
 30
0.0
 10
3.14281
 20
-11.3363
 30
0.0
 10
3.06908
 20
-11.24147
 30
0.0
 10
3.0101
 20
-11.13518
 30
0.0
 10
2.9334
 20
-11.01683
 30
0.0
 10
2.9334
 20
-11.01683
 30
0.0
 10
2.81314
 20
-11.24493
 30
0.0
 10
2.84673
 20
-11.38213
 30
0.0
 10
3.00788
 20
-11.55368
 30
0.0
 10
3.00788
 20
-11.55368
 30
0.0
 10
3.25426
 20
-11.81597
 30
0.0
 10
3.48166
 20
-12.11199
 30
0.0
 10
3.64686
 20
-12.43016
 30
0.0
 10
3.64686
 20
-12.43016
 30
0.0
 10
3.8072
 20
-12.73898
 30
0.0
 10
3.64365
 20
-13.12912
 30
0.0
 10
3.37932
 20
-13.25072
 30
0.0
 10
3.37932
 20
-13.25072
 30
0.0
 10
3.09028
 20
-13.38368
 30
0.0
 10
2.81819
 20
-13.2909
 30
0.0
 10
2.59657
 20
-12.98254
 30
0.0
 10
2.59657
 20
-12.98254
 30
0.0
 10
2.53053
 20
-12.8906
 30
0.0
 10
2.46693
 20
-12.79698
 30
0.0
 10
2.39489
 20
-12.69361
 30
0.0
 10
2.39489
 20
-12.69361
 30
0.0
 10
2.207
 20
-12.91809
 30
0.0
 10
2.33993
 20
-13.06181
 30
0.0
 10
2.42742
 20
-13.20913
 30
0.0
 10
2.42742
 20
-13.20913
 30
0.0
 10
2.69884
 20
-13.66601
 30
0.0
 10
2.90698
 20
-14.14854
 30
0.0
 10
2.95471
 20
-14.68152
 30
0.0
 10
2.95471
 20
-14.68152
 30
0.0
 10
2.99267
 20
-15.10548
 30
0.0
 10
2.64832
 20
-15.42401
 30
0.0
 10
2.27297
 20
-15.28826
 30
0.0
 10
2.27297
 20
-15.28826
 30
0.0
 10
2.08444
 20
-15.2201
 30
0.0
 10
1.91208
 20
-15.03461
 30
0.0
 10
1.79541
 20
-14.86006
 30
0.0
 10
1.79541
 20
-14.86006
 30
0.0
 10
1.6706
 20
-14.6733
 30
0.0
 10
1.61994
 20
-14.43694
 30
0.0
 10
1.53503
 20
-14.21744
 30
0.0
 10
1.53503
 20
-14.21744
 30
0.0
 10
1.31306
 20
-14.34394
 30
0.0
 10
1.41925
 20
-14.50121
 30
0.0
 10
1.44588
 20
-14.65061
 30
0.0
 10
1.44588
 20
-14.65061
 30
0.0
 10
1.51559
 20
-15.04153
 30
0.0
 10
1.60449
 20
-15.43131
 30
0.0
 10
1.6386
 20
-15.82565
 30
0.0
 10
1.6386
 20
-15.82565
 30
0.0
 10
1.6773
 20
-16.27254
 30
0.0
 10
1.44715
 20
-16.62698
 30
0.0
 10
1.07649
 20
-16.78965
 30
0.0
 10
1.07649
 20
-16.78965
 30
0.0
 10
0.81236
 20
-16.90553
 30
0.0
 10
0.63467
 20
-16.86807
 30
0.0
 10
0.44025
 20
-16.64864
 30
0.0
 10
0.44025
 20
-16.64864
 30
0.0
 10
0.39171
 20
-16.59385
 30
0.0
 10
0.35566
 20
-16.52796
 30
0.0
 10
0.26372
 20
-16.39418
 30
0.0
 10
0.26372
 20
-16.39418
 30
0.0
 10
0.22337
 20
-16.74819
 30
0.0
 10
0.21941
 20
-17.01983
 30
0.0
 10
0.15701
 20
-17.27726
 30
0.0
 10
0.15701
 20
-17.27726
 30
0.0
 10
0.05241
 20
-17.70874
 30
0.0
 10
-0.40264
 20
-17.99371
 30
0.0
 10
-0.78025
 20
-17.89864
 30
0.0
 10
-0.78025
 20
-17.89864
 30
0.0
 10
-1.16422
 20
-17.80194
 30
0.0
 10
-1.329
 20
-17.48663
 30
0.0
 10
-1.24828
 20
-16.98674
 30
0.0
 10
-1.24828
 20
-16.98674
 30
0.0
 10
-1.22196
 20
-16.82394
 30
0.0
 10
-1.1778
 20
-16.66402
 30
0.0
 10
-1.13352
 20
-16.46569
 30
0.0
 10
-1.13352
 20
-16.46569
 30
0.0
 10
-1.52715
 20
-16.60811
 30
0.0
 10
-1.83171
 20
-16.78192
 30
0.0
 10
-2.06659
 20
-17.08746
 30
0.0
 10
-2.06659
 20
-17.08746
 30
0.0
 10
-2.40984
 20
-17.53394
 30
0.0
 10
-2.9087
 20
-17.71735
 30
0.0
 10
-3.44623
 20
-17.74479
 30
0.0
 10
-3.44623
 20
-17.74479
 30
0.0
 10
-3.6652
 20
-17.75601
 30
0.0
 10
-3.91722
 20
-17.65949
 30
0.0
 10
-4.10917
 20
-17.53976
 30
0.0
 10
-4.10917
 20
-17.53976
 30
0.0
 10
-4.42995
 20
-17.3397
 30
0.0
 10
-4.49433
 20
-17.01197
 30
0.0
 10
-4.26683
 20
-16.71637
 30
0.0
 10
-4.26683
 20
-16.71637
 30
0.0
 10
-4.11905
 20
-16.52436
 30
0.0
 10
-3.90491
 20
-16.35516
 30
0.0
 10
-3.68464
 20
-16.25314
 30
0.0
 10
-3.68464
 20
-16.25314
 30
0.0
 10
-3.2571
 20
-16.05513
 30
0.0
 10
-2.78946
 20
-16.05132
 30
0.0
 10
-2.32355
 20
-16.09235
 30
0.0
 10
-2.32355
 20
-16.09235
 30
0.0
 10
-1.68297
 20
-16.14875
 30
0.0
 10
-1.17639
 20
-15.8527
 30
0.0
 10
-0.69287
 20
-15.48906
 30
0.0
 10
-0.69287
 20
-15.48906
 30
0.0
 10
-0.84633
 20
-15.44549
 30
0.0
 10
-0.98836
 20
-15.44528
 30
0.0
 10
-1.1301
 20
-15.43854
 30
0.0
 10
-1.1301
 20
-15.43854
 30
0.0
 10
-1.49163
 20
-15.42136
 30
0.0
 10
-1.81714
 20
-15.29655
 30
0.0
 10
-2.09978
 20
-15.07596
 30
0.0
 10
-2.09978
 20
-15.07596
 30
0.0
 10
-2.49768
 20
-14.76537
 30
0.0
 10
-2.43637
 20
-14.29618
 30
0.0
 10
-1.96975
 20
-14.09449
 30
0.0
 10
-1.96975
 20
-14.09449
 30
0.0
 10
-1.62628
 20
-13.94605
 30
0.0
 10
-1.26504
 20
-13.88004
 30
0.0
 10
-0.89833
 20
-14.00478
 30
0.0
 10
-0.89833
 20
-14.00478
 30
0.0
 10
-0.43354
 20
-14.1629
 30
0.0
 10
0.02669
 20
-14.33417
 30
0.0
 10
0.50192
 20
-14.50442
 30
0.0
 10
0.50192
 20
-14.50442
 30
0.0
 10
0.85071
 20
-14.23349
 30
0.0
 10
0.97147
 20
-14.07424
 30
0.0
 10
1.07599
 20
-13.73018
 30
0.0
 10
1.07599
 20
-13.73018
 30
0.0
 10
0.86853
 20
-13.76027
 30
0.0
 10
0.66631
 20
-13.79481
 30
0.0
 10
0.46283
 20
-13.81792
 30
0.0
 10
0.46283
 20
-13.81792
 30
0.0
 10
0.17877
 20
-13.8502
 30
0.0
 10
-0.07385
 20
-13.76408
 30
0.0
 10
-0.2931
 20
-13.58526
 30
0.0
 10
-0.2931
 20
-13.58526
 30
0.0
 10
-0.57896
 20
-13.35221
 30
0.0
 10
-0.6118
 20
-13.08269
 30
0.0
 10
-0.38884
 20
-12.795
 30
0.0
 10
-0.38884
 20
-12.795
 30
0.0
 10
-0.16988
 20
-12.51243
 30
0.0
 10
0.11118
 20
-12.34884
 30
0.0
 10
0.47927
 20
-12.39696
 30
0.0
 10
0.47927
 20
-12.39696
 30
0.0
 10
0.73126
 20
-12.42988
 30
0.0
 10
0.98103
 20
-12.48061
 30
0.0
 10
1.23086
 20
-12.52841
 30
0.0
 10
1.23086
 20
-12.52841
 30
0.0
 10
1.42955
 20
-12.5664
 30
0.0
 10
1.62679
 20
-12.61195
 30
0.0
 10
1.82275
 20
-12.65375
 30
0.0
 10
1.82275
 20
-12.65375
 30
0.0
 10
1.98168
 20
-12.37456
 30
0.0
 10
2.1139
 20
-12.13901
 30
0.0
 10
2.10582
 20
-11.84557
 30
0.0
 10
2.10582
 20
-11.84557
 30
0.0
 10
1.75456
 20
-11.95162
 30
0.0
 10
1.45618
 20
-12.0656
 30
0.0
 10
1.14743
 20
-12.1285
 30
0.0
 10
1.14743
 20
-12.1285
 30
0.0
 10
0.79917
 20
-12.19948
 30
0.0
 10
0.51769
 20
-12.04016
 30
0.0
 10
0.39979
 20
-11.75847
 30
0.0
 10
0.39979
 20
-11.75847
 30
0.0
 10
0.29149
 20
-11.49971
 30
0.0
 10
0.37951
 20
-11.23135
 30
0.0
 10
0.65238
 20
-11.0018
 30
0.0
 10
0.65238
 20
-11.0018
 30
0.0
 10
0.92187
 20
-10.77514
 30
0.0
 10
1.25097
 20
-10.71573
 30
0.0
 10
1.58636
 20
-10.68116
 30
0.0
 10
1.58636
 20
-10.68116
 30
0.0
 10
1.83577
 20
-10.6554
 30
0.0
 10
2.08607
 20
-10.6384
 30
0.0
 10
2.36215
 20
-10.61533
 30
0.0
 10
2.36215
 20
-10.61533
 30
0.0
 10
2.37404
 20
-10.37639
 30
0.0
 10
2.38367
 20
-10.18356
 30
0.0
 10
2.39697
 20
-9.91648
 30
0.0
 10
2.39697
 20
-9.91648
 30
0.0
 10
2.20238
 20
-10.05
 30
0.0
 10
2.09489
 20
-10.14638
 30
0.0
 10
1.96969
 20
-10.20448
 30
0.0
 10
1.96969
 20
-10.20448
 30
0.0
 10
1.76934
 20
-10.29744
 30
0.0
 10
1.56244
 20
-10.3874
 30
0.0
 10
1.34866
 20
-10.43704
 30
0.0
 10
1.34866
 20
-10.43704
 30
0.0
 10
1.12577
 20
-10.48875
 30
0.0
 10
0.93584
 20
-10.37615
 30
0.0
 10
0.82005
 20
-10.18783
 30
0.0
 10
0.82005
 20
-10.18783
 30
0.0
 10
0.70579
 20
-10.00199
 30
0.0
 10
0.76209
 20
-9.80412
 30
0.0
 10
0.90317
 20
-9.66022
 30
0.0
 10
0.90317
 20
-9.66022
 30
0.0
 10
1.09109
 20
-9.46845
 30
0.0
 10
1.29701
 20
-9.29051
 30
0.0
 10
1.51351
 20
-9.13151
 30
0.0
 10
1.51351
 20
-9.13151
 30
0.0
 10
1.75417
 20
-8.9548
 30
0.0
 10
2.01541
 20
-8.80611
 30
0.0
 10
2.25431
 20
-8.65374
 30
0.0
 10
2.25431
 20
-8.65374
 30
0.0
 10
2.20562
 20
-8.29924
 30
0.0
 10
2.14985
 20
-7.98611
 30
0.0
 10
2.12138
 20
-7.67052
 30
0.0
 10
2.12138
 20
-7.67052
 30
0.0
 10
1.97784
 20
-6.07843
 30
0.0
 10
2.00172
 20
-4.48769
 30
0.0
 10
2.20732
 20
-2.90251
 30
0.0
 10
2.20732
 20
-2.90251
 30
0.0
 10
2.34088
 20
-1.87293
 30
0.0
 10
2.40501
 20
-0.84307
 30
0.0
 10
2.29696
 20
0.19131
 30
0.0
 10
2.29696
 20
0.19131
 30
0.0
 10
2.19275
 20
1.18886
 30
0.0
 10
2.05633
 20
2.18331
 30
0.0
 10
1.96753
 20
3.18213
 30
0.0
 10
1.96753
 20
3.18213
 30
0.0
 10
1.91695
 20
3.75119
 30
0.0
 10
2.55604
 20
11.10739
 30
0.0
 10
2.60871
 20
11.67356
 30
0.0
 10
2.60871
 20
11.67356
 30
0.0
 10
2.69277
 20
12.57674
 30
0.0
 10
2.85675
 20
13.47255
 30
0.0
 10
2.98805
 20
14.37129
 30
0.0
 10
2.98805
 20
14.37129
 30
0.0
 10
2.99955
 20
14.44996
 30
0.0
 10
3.00639
 20
14.5331
 30
0.0
 10
3.03786
 20
14.60422
 30
0.0
 10
3.03786
 20
14.60422
 30
0.0
 10
3.10817
 20
14.76287
 30
0.0
 10
3.18529
 20
14.97185
 30
0.0
 10
3.39942
 20
14.90373
 30
0.0
 10
3.39942
 20
14.90373
 30
0.0
 10
3.59712
 20
14.8409
 30
0.0
 10
3.50977
 20
14.63767
 30
0.0
 10
3.49362
 20
14.48509
 30
0.0
 10
3.49362
 20
14.48509
 30
0.0
 10
3.49026
 20
14.45352
 30
0.0
 10
3.4837
 20
14.42191
 30
0.0
 10
3.47481
 20
14.39143
 30
0.0
 10
3.47481
 20
14.39143
 30
0.0
 10
3.14729
 20
13.26928
 30
0.0
 10
2.53455
 20
5.3382
 30
0.0
 10
2.57163
 20
4.19717
 30
0.0
 10
2.57163
 20
4.19717
 30
0.0
 10
2.60458
 20
3.18177
 30
0.0
 10
2.80884
 20
2.17272
 30
0.0
 10
2.85939
 20
1.15697
 30
0.0
 10
2.85939
 20
1.15697
 30
0.0
 10
2.91231
 20
0.09444
 30
0.0
 10
2.98329
 20
-0.98781
 30
0.0
 10
2.84186
 20
-2.03376
 30
0.0
 10
2.84186
 20
-2.03376
 30
0.0
 10
2.69457
 20
-3.12328
 30
0.0
 10
2.57717
 20
-4.21269
 30
0.0
 10
2.48961
 20
-5.30627
 30
0.0
 10
2.48961
 20
-5.30627
 30
0.0
 10
2.41412
 20
-6.24977
 30
0.0
 10
2.60123
 20
-7.1683
 30
0.0
 10
2.78668
 20
-8.08175
 30
0.0
 10
2.78668
 20
-8.08175
 30
0.0
 10
2.92663
 20
-8.11597
 30
0.0
 10
3.0362
 20
-8.13587
 30
0.0
 10
3.1413
 20
-8.16966
 30
0.0
 10
3.1413
 20
-8.16966
 30
0.0
 10
3.54914
 20
-8.30082
 30
0.0
 10
3.89564
 20
-8.53034
 30
0.0
 10
4.1077
 20
-8.90369
 30
0.0
 10
4.1077
 20
-8.90369
 30
0.0
 10
4.18196
 20
-9.03446
 30
0.0
 10
4.19511
 20
-9.24627
 30
0.0
 10
4.14562
 20
-9.38989
 30
0.0
 10
4.14562
 20
-9.38989
 30
0.0
 10
4.07535
 20
-9.5939
 30
0.0
 10
3.86174
 20
-9.62748
 30
0.0
 10
3.65917
 20
-9.58931
 30
0.0
 10
3.65917
 20
-9.58931
 30
0.0
 10
3.49023
 20
-9.55749
 30
0.0
 10
3.32449
 20
-9.50852
 30
0.0
 10
3.06446
 20
-9.44414
 30
0.0
 10
3.06446
 20
-9.44414
 30
0.0
 10
3.21302
 20
-9.63641
 30
0.0
 10
3.30813
 20
-9.77431
 30
0.0
 10
3.41826
 20
-9.89898
 30
0.0
  0
SPLINE
  5
4E
330
1F
100
AcDbEntity
  8
Layer 1
370
    53
100
AcDbSpline
210
0.0
220
0.0
230
1.0
 70
    11
 71
     3
 72
    20
 73
    16
 74
     0
 42
0.0000000001
 43
0.0000000001
 12
1.0
 22
0.0
 32
0.0
 13
1.0
 23
0.0
 33
0.0
 40
0.0
 40
0.0
 40
0.0
 40
0.0
 40
0.2
 40
0.2
 40
0.2
 40
0.2
 40
0.4
 40
0.4
 40
0.4
 40
0.4
 40
0.6
 40
0.6
 40
0.6
 40
0.6
 40
1.0
 40
1.0
 40
1.0
 40
1.0
 10
0.7761
 20
-16.08522
 30
0.0
 10
0.79783
 20
-16.17514
 30
0.0
 10
0.90193
 20
-16.24513
 30
0.0
 10
0.96808
 20
-16.32433
 30
0.0
 10
0.96808
 20
-16.32433
 30
0.0
 10
1.0488
 20
-16.23892
 30
0.0
 10
1.19022
 20
-16.15976
 30
0.0
 10
1.19975
 20
-16.06705
 30
0.0
 10
1.19975
 20
-16.06705
 30
0.0
 10
1.2412
 20
-15.66227
 30
0.0
 10
1.17262
 20
-15.26568
 30
0.0
 10
1.01772
 20
-14.80065
 30
0.0
 10
1.01772
 20
-14.80065
 30
0.0
 10
0.75278
 20
-15.25217
 30
0.0
 10
0.67217
 20
-15.65504
 30
0.0
 10
0.7761
 20
-16.08522
 30
0.0
  0
SPLINE
  5
4F
330
1F
100
AcDbEntity
  8
Layer 1
370
    53
100
AcDbSpline
210
0.0
220
0.0
230
1.0
 70
    11
 71
     3
 72
    16
 73
    12
 74
     0
 42
0.0000000001
 43
0.0000000001
 12
1.0
 22
0.0
 32
0.0
 13
1.0
 23
0.0
 33
0.0
 40
0.0
 40
0.0
 40
0.0
 40
0.0
 40
0.25
 40
0.25
 40
0.25
 40
0.25
 40
0.5
 40
0.5
 40
0.5
 40
0.5
 40
1.0
 40
1.0
 40
1.0
 40
1.0
 10
-0.83977
 20
-17.02671
 30
0.0
 10
-0.87095
 20
-17.1632
 30
0.0
 10
-0.83176
 20
-17.31349
 30
0.0
 10
-0.59148
 20
-17.37857
 30
0.0
 10
-0.59148
 20
-17.37857
 30
0.0
 10
-0.26922
 20
-16.96367
 30
0.0
 10
-0.2338
 20
-16.46033
 30
0.0
 10
-0.23408
 20
-15.94125
 30
0.0
 10
-0.23408
 20
-15.94125
 30
0.0
 10
-0.62193
 20
-16.21028
 30
0.0
 10
-0.74561
 20
-16.61463
 30
0.0
 10
-0.83977
 20
-17.02671
 30
0.0
  0
SPLINE
  5
50
330
1F
100
AcDbEntity
  8
Layer 1
370
    53
100
AcDbSpline
210
0.0
220
0.0
230
1.0
 70
    11
 71
     3
 72
    12
 73
     8
 74
     0
 42
0.0000000001
 43
0.0000000001
 12
1.0
 22
0.0
 32
0.0
 13
1.0
 23
0.0
 33
0.0
 40
0.0
 40
0.0
 40
0.0
 40
0.0
 40
0.3333333333333333
 40
0.3333333333333333
 40
0.3333333333333333
 40
0.3333333333333333
 40
1.0
 40
1.0
 40
1.0
 40
1.0
 10
-3.7457
 20
-17.03479
 30
0.0
 10
-3.24716
 20
-17.23189
 30
0.0
 10
-2.81807
 20
-17.09656
 30
0.0
 10
-2.42437
 20
-16.64282
 30
0.0
 10
-2.42437
 20
-16.64282
 30
0.0
 10
-2.9298
 20
-16.57149
 30
0.0
 10
-3.33941
 20
-16.7163
 30
0.0
 10
-3.7457
 20
-17.03479
 30
0.0
  0
SPLINE
  5
51
330
1F
100
AcDbEntity
  8
Layer 1
370
    53
100
AcDbSpline
210
0.0
220
0.0
230
1.0
 70
    11
 71
     3
 72
    12
 73
     8
 74
     0
 42
0.0000000001
 43
0.0000000001
 12
1.0
 22
0.0
 32
0.0
 13
1.0
 23
0.0
 33
0.0
 40
0.0
 40
0.0
 40
0.0
 40
0.0
 40
0.3333333333333333
 40
0.3333333333333333
 40
0.3333333333333333
 40
0.3333333333333333
 40
1.0
 40
1.0
 40
1.0
 40
1.0
 10
2.48838
 20
-14.71574
 30
0.0
 10
2.53307
 20
-14.23913
 30
0.0
 10
2.3171
 20
-13.87373
 30
0.0
 10
2.08155
 20
-13.51393
 30
0.0
 10
2.08155
 20
-13.51393
 30
0.0
 10
1.9307
 20
-14.32955
 30
0.0
 10
1.99978
 20
-14.53275
 30
0.0
 10
2.48838
 20
-14.71574
 30
0.0
  0
SPLINE
  5
52
330
1F
100
AcDbEntity
  8
Layer 1
370
    53
100
AcDbSpline
210
0.0
220
0.0
230
1.0
 70
    11
 71
     3
 72
    12
 73
     8
 74
     0
 42
0.0000000001
 43
0.0000000001
 12
1.0
 22
0.0
 32
0.0
 13
1.0
 23
0.0
 33
0.0
 40
0.0
 40
0.0
 40
0.0
 40
0.0
 40
0.3333333333333333
 40
0.3333333333333333
 40
0.3333333333333333
 40
0.3333333333333333
 40
1.0
 40
1.0
 40
1.0
 40
1.0
 10
-1.68065
 20
-14.63047
 30
0.0
 10
-1.42068
 20
-14.84238
 30
0.0
 10
-1.11147
 20
-14.87022
 30
0.0
 10
-0.35163
 20
-14.75013
 30
0.0
 10
-0.35163
 20
-14.75013
 30
0.0
 10
-0.7582
 20
-14.42155
 30
0.0
 10
-1.25837
 20
-14.37654
 30
0.0
 10
-1.68065
 20
-14.63047
 30
0.0
  0
SPLINE
  5
53
330
1F
100
AcDbEntity
  8
Layer 1
370
    53
100
AcDbSpline
210
0.0
220
0.0
230
1.0
 70
    11
 71
     3
 72
    16
 73
    12
 74
     0
 42
0.0000000001
 43
0.0000000001
 12
1.0
 22
0.0
 32
0.0
 13
1.0
 23
0.0
 33
0.0
 40
0.0
 40
0.0
 40
0.0
 40
0.0
 40
0.25
 40
0.25
 40
0.25
 40
0.25
 40
0.5
 40
0.5
 40
0.5
 40
0.5
 40
1.0
 40
1.0
 40
1.0
 40
1.0
 10
3.73735
 20
-11.4113
 30
0.0
 10
3.7987
 20
-11.31972
 30
0.0
 10
3.89278
 20
-11.24373
 30
0.0
 10
3.88478
 20
-11.18073
 30
0.0
 10
3.88478
 20
-11.18073
 30
0.0
 10
3.8368
 20
-10.80244
 30
0.0
 10
3.51538
 20
-10.61388
 30
0.0
 10
3.25711
 20
-10.37085
 30
0.0
 10
3.25711
 20
-10.37085
 30
0.0
 10
3.3337
 20
-10.74046
 30
0.0
 10
3.43308
 20
-11.09952
 30
0.0
 10
3.73735
 20
-11.4113
 30
0.0
  0
SPLINE
  5
54
330
1F
100
AcDbEntity
  8
Layer 1
370
    53
100
AcDbSpline
210
0.0
220
0.0
230
1.0
 70
    11
 71
     3
 72
    12
 73
     8
 74
     0
 42
0.0000000001
 43
0.0000000001
 12
1.0
 22
0.0
 32
0.0
 13
1.0
 23
0.0
 33
0.0
 40
0.0
 40
0.0
 40
0.0
 40
0.0
 40
0.3333333333333333
 40
0.3333333333333333
 40
0.3333333333333333
 40
0.3333333333333333
 40
1.0
 40
1.0
 40
1.0
 40
1.0
 10
3.18479
 20
-12.84894
 30
0.0
 10
3.321
 20
-12.44268
 30
0.0
 10
3.12084
 20
-12.0946
 30
0.0
 10
2.70255
 20
-12.00065
 30
0.0
 10
2.70255
 20
-12.00065
 30
0.0
 10
2.75532
 20
-12.3469
 30
0.0
 10
2.78453
 20
-12.69788
 30
0.0
 10
3.18479
 20
-12.84894
 30
0.0
  0
SPLINE
  5
55
330
1F
100
AcDbEntity
  8
Layer 1
370
    53
100
AcDbSpline
210
0.0
220
0.0
230
1.0
 70
    11
 71
     3
 72
    12
 73
     8
 74
     0
 42
0.0000000001
 43
0.0000000001
 12
1.0
 22
0.0
 32
0.0
 13
1.0
 23
0.0
 33
0.0
 40
0.0
 40
0.0
 40
0.0
 40
0.0
 40
0.3333333333333333
 40
0.3333333333333333
 40
0.3333333333333333
 40
0.3333333333333333
 40
1.0
 40
1.0
 40
1.0
 40
1.0
 10
1.22384
 20
-13.03598
 30
0.0
 10
0.74216
 20
-12.80065
 30
0.0
 10
0.49264
 20
-12.81772
 30
0.0
 10
0.14692
 20
-13.11388
 30
0.0
 10
0.14692
 20
-13.11388
 30
0.0
 10
0.53307
 20
-13.35733
 30
0.0
 10
0.86306
 20
-13.16881
 30
0.0
 10
1.22384
 20
-13.03598
 30
0.0
  0
SPLINE
  5
56
330
1F
100
AcDbEntity
  8
Layer 1
370
    53
100
AcDbSpline
210
0.0
220
0.0
230
1.0
 70
    11
 71
     3
 72
    12
 73
     8
 74
     0
 42
0.0000000001
 43
0.0000000001
 12
1.0
 22
0.0
 32
0.0
 13
1.0
 23
0.0
 33
0.0
 40
0.0
 40
0.0
 40
0.0
 40
0.0
 40
0.3333333333333333
 40
0.3333333333333333
 40
0.3333333333333333
 40
0.3333333333333333
 40
1.0
 40
1.0
 40
1.0
 40
1.0
 10
2.11171
 20
-11.11451
 30
0.0
 10
1.68291
 20
-11.11395
 30
0.0
 10
1.27348
 20
-11.16859
 30
0.0
 10
0.9593
 20
-11.51389
 30
0.0
 10
0.9593
 20
-11.51389
 30
0.0
 10
1.41685
 20
-11.58533
 30
0.0
 10
1.75439
 20
-11.3242
 30
0.0
 10
2.11171
 20
-11.11451
 30
0.0
  0
SPLINE
  5
57
330
1F
100
AcDbEntity
  8
Layer 1
370
    53
100
AcDbSpline
210
0.0
220
0.0
230
1.0
 70
    11
 71
     3
 72
    12
 73
     8
 74
     0
 42
0.0000000001
 43
0.0000000001
 12
1.0
 22
0.0
 32
0.0
 13
1.0
 23
0.0
 33
0.0
 40
0.0
 40
0.0
 40
0.0
 40
0.0
 40
0.3333333333333333
 40
0.3333333333333333
 40
0.3333333333333333
 40
0.3333333333333333
 40
1.0
 40
1.0
 40
1.0
 40
1.0
 10
2.96357
 20
-8.62774
 30
0.0
 10
3.11537
 20
-8.93593
 30
0.0
 10
3.35201
 20
-9.12378
 30
0.0
 10
3.77735
 20
-9.19804
 30
0.0
 10
3.77735
 20
-9.19804
 30
0.0
 10
3.57952
 20
-8.80487
 30
0.0
 10
3.2581
 20
-8.73753
 30
0.0
 10
2.96357
 20
-8.62774
 30
0.0
  0
SPLINE
  5
58
330
1F
100
AcDbEntity
  8
Layer 1
370
    53
100
AcDbSpline
210
0.0
220
0.0
230
1.0
 70
    11
 71
     3
 72
    12
 73
     8
 74
     0
 42
0.0000000001
 43
0.0000000001
 12
1.0
 22
0.0
 32
0.0
 13
1.0
 23
0.0
 33
0.0
 40
0.0
 40
0.0
 40
0.0
 40
0.0
 40
0.3333333333333333
 40
0.3333333333333333
 40
0.3333333333333333
 40
0.3333333333333333
 40
1.0
 40
1.0
 40
1.0
 40
1.0
 10
2.20584
 20
-9.35016
 30
0.0
 10
1.86675
 20
-9.45236
 30
0.0
 10
1.55923
 20
-9.6054
 30
0.0
 10
1.35465
 20
-9.92692
 30
0.0
 10
1.35465
 20
-9.92692
 30
0.0
 10
1.73971
 20
-9.88942
 30
0.0
 10
1.99745
 20
-9.65789
 30
0.0
 10
2.20584
 20
-9.35016
 30
0.0
  0
ENDSEC
  0
SECTION
  2
OBJECTS
  0
DICTIONARY
  5
C
330
0
100
AcDbDictionary
281
     1
  3
ACAD_GROUP
350
D
  3
ACAD_LAYOUT
350
1A
  3
ACAD_MATERIAL
350
3B
  3
ACAD_MLEADERSTYLE
350
7A
  3
ACAD_MLINESTYLE
350
17
  3
ACAD_PLOTSETTINGS
350
19
  3
ACAD_PLOTSTYLENAME
350
E
  3
ACAD_TABLESTYLE
350
79
  3
ACAD_VISUALSTYLE
350
2A
  0
DICTIONARY
  5
D
102
{ACAD_REACTORS
330
C
102
}
330
C
100
AcDbDictionary
281
     1
  0
DICTIONARY
  5
1A
102
{ACAD_REACTORS
330
C
102
}
330
C
100
AcDbDictionary
281
     1
  3
Layout1
350
1E
  3
Layout2
350
26
  3
Model
350
22
  0
DICTIONARY
  5
3B
102
{ACAD_REACTORS
330
C
102
}
330
C
100
AcDbDictionary
281
     1
  3
ByBlock
350
3D
  3
ByLayer
350
3C
  3
Global
350
3E
  0
DICTIONARY
  5
7A
102
{ACAD_REACTORS
330
C
102
}
330
C
100
AcDbDictionary
281
     1
  0
DICTIONARY
  5
17
102
{ACAD_REACTORS
330
C
102
}
330
C
100
AcDbDictionary
281
     1
  3
Standard
350
18
  0
DICTIONARY
  5
19
102
{ACAD_REACTORS
330
C
102
}
330
C
100
AcDbDictionary
281
     1
  0
ACDBDICTIONARYWDFLT
  5
E
102
{ACAD_REACTORS
330
C
102
}
330
C
100
AcDbDictionary
281
     1
  3
Normal
350
F
100
AcDbDictionaryWithDefault
340
F
  0
DICTIONARY
  5
79
102
{ACAD_REACTORS
330
C
102
}
330
C
100
AcDbDictionary
281
     1
  0
DICTIONARY
  5
2A
102
{ACAD_REACTORS
330
C
102
}
330
C
100
AcDbDictionary
281
     1
  3
2dWireframe
350
2F
  3
3D Hidden
350
31
  3
3dWireframe
350
30
  3
Basic
350
32
  3
Brighten
350
36
  3
ColorChange
350
3A
  3
Conceptual
350
34
  3
Dim
350
35
  3
Facepattern
350
39
  3
Flat
350
2B
  3
FlatWithEdges
350
2C
  3
Gouraud
350
2D
  3
GouraudWithEdges
350
2E
  3
Linepattern
350
38
  3
Realistic
350
33
  3
Thicken
350
37
  0
LAYOUT
  5
1E
102
{ACAD_REACTORS
330
1A
102
}
330
1A
100
AcDbPlotSettings
  1

  2
none_device
  4

  6

 40
0.0
 41
0.0
 42
0.0
 43
0.0
 44
0.0
 45
0.0
 46
0.0
 47
0.0
 48
0.0
 49
0.0
140
0.0
141
0.0
142
1.0
143
1.0
 70
   688
 72
     0
 73
     0
 74
     5
  7

 75
    16
 76
     0
 77
     2
 78
   300
147
1.0
148
0.0
149
0.0
100
AcDbLayout
  1
Layout1
 70
     1
 71
     1
 10
0.0
 20
0.0
 11
12.0
 21
9.0
 12
0.0
 22
0.0
 32
0.0
 14
1.000000000000000E+20
 24
1.000000000000000E+20
 34
1.000000000000000E+20
 15
-1.000000000000000E+20
 25
-1.000000000000000E+20
 35
-1.000000000000000E+20
146
0.0
 13
0.0
 23
0.0
 33
0.0
 16
1.0
 26
0.0
 36
0.0
 17
0.0
 27
1.0
 37
0.0
 76
     0
330
1B
  0
LAYOUT
  5
26
102
{ACAD_REACTORS
330
1A
102
}
330
1A
100
AcDbPlotSettings
  1

  2
none_device
  4

  6

 40
0.0
 41
0.0
 42
0.0
 43
0.0
 44
0.0
 45
0.0
 46
0.0
 47
0.0
 48
0.0
 49
0.0
140
0.0
141
0.0
142
1.0
143
1.0
 70
   688
 72
     0
 73
     0
 74
     5
  7

 75
    16
 76
     0
 77
     2
 78
   300
147
1.0
148
0.0
149
0.0
100
AcDbLayout
  1
Layout2
 70
     1
 71
     2
 10
0.0
 20
0.0
 11
0.0
 21
0.0
 12
0.0
 22
0.0
 32
0.0
 14
0.0
 24
0.0
 34
0.0
 15
0.0
 25
0.0
 35
0.0
146
0.0
 13
0.0
 23
0.0
 33
0.0
 16
1.0
 26
0.0
 36
0.0
 17
0.0
 27
1.0
 37
0.0
 76
     0
330
23
  0
LAYOUT
  5
22
102
{ACAD_REACTORS
330
1A
102
}
330
1A
100
AcDbPlotSettings
  1

  2
none_device
  4

  6

 40
0.0
 41
0.0
 42
0.0
 43
0.0
 44
0.0
 45
0.0
 46
0.0
 47
0.0
 48
0.0
 49
0.0
140
0.0
141
0.0
142
1.0
143
1.0
 70
  1712
 72
     0
 73
     0
 74
     0
  7

 75
     0
 76
     0
 77
     2
 78
   300
147
1.0
148
0.0
149
0.0
100
AcDbLayout
  1
Model
 70
     1
 71
     0
 10
0.0
 20
0.0
 11
12.0
 21
9.0
 12
0.0
 22
0.0
 32
0.0
 14
-4.42842
 24
-17.94339
 34
0.0
 15
4.42842
 25
17.94339
 35
0.0
146
0.0
 13
0.0
 23
0.0
 33
0.0
 16
1.0
 26
0.0
 36
0.0
 17
0.0
 27
1.0
 37
0.0
 76
     0
330
1F
331
29
  0
MATERIAL
  5
3D
102
{ACAD_REACTORS
330
3B
102
}
330
3B
100
AcDbMaterial
  1
ByBlock
 72
     1
 94
      127
  0
MATERIAL
  5
3C
102
{ACAD_REACTORS
330
3B
102
}
330
3B
100
AcDbMaterial
  1
ByLayer
 72
     1
 94
      127
  0
MATERIAL
  5
3E
102
{ACAD_REACTORS
330
3B
102
}
330
3B
100
AcDbMaterial
  1
Global
 72
     1
 94
      127
  0
MLINESTYLE
  5
18
102
{ACAD_REACTORS
330
17
102
}
330
17
100
AcDbMlineStyle
  2
Standard
 70
     0
  3

 62
   256
 51
90.0
 52
90.0
 71
     2
 49
0.5
 62
   256
  6
BYLAYER
 49
-0.5
 62
   256
  6
BYLAYER
  0
ACDBPLACEHOLDER
  5
F
102
{ACAD_REACTORS
330
E
102
}
330
E
  0
VISUALSTYLE
  5
2F
102
{ACAD_REACTORS
330
2A
102
}
102
{ACAD_XDICTIONARY
360
61
102
}
330
2A
100
AcDbVisualStyle
  2
2dWireframe
 70
     4
 71
     0
 72
     2
 73
     0
 90
        0
 40
-0.6
 41
-30.0
 62
     5
 63
     7
421
 16777215
 74
     1
 91
        4
 64
     7
 65
   257
 75
     1
175
     1
 42
1.0
 92
        0
 66
   257
 43
1.0
 76
     1
 77
     6
 78
     2
 67
     7
 79
     5
170
     0
171
     0
290
     0
174
     0
 93
        1
 44
0.0
173
     0
291
     0
 45
0.0
  0
VISUALSTYLE
  5
31
102
{ACAD_REACTORS
330
2A
102
}
102
{ACAD_XDICTIONARY
360
65
102
}
330
2A
100
AcDbVisualStyle
  2
3D Hidden
 70
     6
 71
     1
 72
     2
 73
     2
 90
        0
 40
-0.6
 41
-30.0
 62
     5
 63
     7
421
 16777215
 74
     2
 91
        2
 64
     7
 65
   257
 75
     2
175
     1
 42
40.0
 92
        0
 66
   257
 43
1.0
 76
     1
 77
     6
 78
     2
 67
     7
 79
     3
170
     0
171
     0
290
     0
174
     0
 93
        1
 44
0.0
173
     0
291
     0
 45
0.0
  0
VISUALSTYLE
  5
30
102
{ACAD_REACTORS
330
2A
102
}
102
{ACAD_XDICTIONARY
360
63
102
}
330
2A
100
AcDbVisualStyle
  2
3dWireframe
 70
     5
 71
     0
 72
     2
 73
     0
 90
        0
 40
-0.6
 41
-30.0
 62
     5
 63
     7
421
 16777215
 74
     1
 91
        4
 64
     7
 65
   257
 75
     1
175
     1
 42
1.0
 92
        0
 66
   257
 43
1.0
 76
     1
 77
     6
 78
     2
 67
     7
 79
     5
170
     0
171
     0
290
     0
174
     0
 93
        1
 44
0.0
173
     0
291
     0
 45
0.0
  0
VISUALSTYLE
  5
32
102
{ACAD_REACTORS
330
2A
102
}
102
{ACAD_XDICTIONARY
360
67
102
}
330
2A
100
AcDbVisualStyle
  2
Basic
 70
     7
 71
     1
 72
     0
 73
     1
 90
        0
 40
-0.6
 41
-30.0
 62
     5
 63
     7
421
 16777215
 74
     0
 91
        4
 64
     7
 65
   257
 75
     1
175
     1
 42
1.0
 92
        8
 66
     7
 43
1.0
 76
     1
 77
     6
 78
     2
 67
     7
 79
     5
170
     0
171
     0
290
     0
174
     0
 93
        1
 44
0.0
173
     0
291
     1
 45
0.0
  0
VISUALSTYLE
  5
36
102
{ACAD_REACTORS
330
2A
102
}
102
{ACAD_XDICTIONARY
360
6F
102
}
330
2A
100
AcDbVisualStyle
  2
Brighten
 70
    12
 71
     2
 72
     2
 73
     0
 90
        0
 40
-0.6
 41
-30.0
 62
     5
 63
     7
421
 16777215
 74
     1
 91
        4
 64
     7
 65
   257
 75
     1
175
     1
 42
1.0
 92
        8
 66
     7
 43
1.0
 76
     1
 77
     6
 78
     2
 67
     7
 79
     5
170
     0
171
     0
290
     0
174
     0
 93
        1
 44
50.0
173
     0
291
     1
 45
0.0
  0
VISUALSTYLE
  5
3A
102
{ACAD_REACTORS
330
2A
102
}
102
{ACAD_XDICTIONARY
360
77
102
}
330
2A
100
AcDbVisualStyle
  2
ColorChange
 70
    16
 71
     2
 72
     2
 73
     3
 90
        0
 40
-0.6
 41
-30.0
 62
     5
 63
     8
421
  8421504
 74
     1
 91
        4
 64
     7
 65
   257
 75
     1
175
     1
 42
1.0
 92
        8
 66
     8
424
  8421504
 43
1.0
 76
     1
 77
     6
 78
     2
 67
     7
 79
     5
170
     0
171
     0
290
     0
174
     0
 93
        1
 44
0.0
173
     0
291
     1
 45
0.0
  0
VISUALSTYLE
  5
34
102
{ACAD_REACTORS
330
2A
102
}
102
{ACAD_XDICTIONARY
360
6B
102
}
330
2A
100
AcDbVisualStyle
  2
Conceptual
 70
     9
 71
     3
 72
     2
 73
     0
 90
        0
 40
-0.6
 41
-30.0
 62
     5
 63
     7
421
 16777215
 74
     2
 91
        2
 64
     7
 65
   257
 75
     1
175
     1
 42
40.0
 92
        8
 66
     7
 43
1.0
 76
     1
 77
     6
 78
     2
 67
     7
 79
     3
170
     0
171
     0
290
     0
174
     0
 93
        1
 44
0.0
173
     0
291
     0
 45
0.0
  0
VISUALSTYLE
  5
35
102
{ACAD_REACTORS
330
2A
102
}
102
{ACAD_XDICTIONARY
360
6D
102
}
330
2A
100
AcDbVisualStyle
  2
Dim
 70
    11
 71
     2
 72
     2
 73
     0
 90
        0
 40
-0.6
 41
-30.0
 62
     5
 63
     7
421
 16777215
 74
     1
 91
        4
 64
     7
 65
   257
 75
     1
175
     1
 42
1.0
 92
        8
 66
     7
 43
1.0
 76
     1
 77
     6
 78
     2
 67
     7
 79
     5
170
     0
171
     0
290
     0
174
     0
 93
        1
 44
-50.0
173
     0
291
     1
 45
0.0
  0
VISUALSTYLE
  5
39
102
{ACAD_REACTORS
330
2A
102
}
102
{ACAD_XDICTIONARY
360
75
102
}
330
2A
100
AcDbVisualStyle
  2
Facepattern
 70
    15
 71
     2
 72
     2
 73
     0
 90
        0
 40
-0.6
 41
-30.0
 62
     5
 63
     7
421
 16777215
 74
     1
 91
        4
 64
     7
 65
   257
 75
     1
175
     1
 42
1.0
 92
        8
 66
     7
 43
1.0
 76
     1
 77
     6
 78
     2
 67
     7
 79
     5
170
     0
171
     0
290
     0
174
     0
 93
        1
 44
0.0
173
     0
291
     1
 45
0.0
  0
VISUALSTYLE
  5
2B
102
{ACAD_REACTORS
330
2A
102
}
102
{ACAD_XDICTIONARY
360
59
102
}
330
2A
100
AcDbVisualStyle
  2
Flat
 70
     0
 71
     2
 72
     1
 73
     1
 90
        2
 40
-0.6
 41
30.0
 62
     5
 63
     7
421
 16777215
 74
     0
 91
        4
 64
     7
 65
   257
 75
     1
175
     1
 42
1.0
 92
        8
 66
     7
 43
1.0
 76
     1
 77
     6
 78
     2
 67
     7
 79
     5
170
     0
171
     0
290
     0
174
     0
 93
       13
 44
0.0
173
     0
291
     1
 45
0.0
  0
VISUALSTYLE
  5
2C
102
{ACAD_REACTORS
330
2A
102
}
102
{ACAD_XDICTIONARY
360
5B
102
}
330
2A
100
AcDbVisualStyle
  2
FlatWithEdges
 70
     1
 71
     2
 72
     1
 73
     1
 90
        2
 40
-0.6
 41
30.0
 62
     5
 63
     7
421
 16777215
 74
     1
 91
        4
 64
     7
 65
   257
 75
     1
175
     1
 42
1.0
 92
        0
 66
   257
 43
1.0
 76
     1
 77
     6
 78
     2
 67
     7
 79
     5
170
     0
171
     0
290
     0
174
     0
 93
       13
 44
0.0
173
     0
291
     1
 45
0.0
  0
VISUALSTYLE
  5
2D
102
{ACAD_REACTORS
330
2A
102
}
102
{ACAD_XDICTIONARY
360
5D
102
}
330
2A
100
AcDbVisualStyle
  2
Gouraud
 70
     2
 71
     2
 72
     2
 73
     1
 90
        2
 40
-0.6
 41
30.0
 62
     5
 63
     7
421
 16777215
 74
     0
 91
        4
 64
     7
 65
   257
 75
     1
175
     1
 42
1.0
 92
        0
 66
     7
 43
1.0
 76
     1
 77
     6
 78
     2
 67
     7
 79
     5
170
     0
171
     0
290
     0
174
     0
 93
       13
 44
0.0
173
     0
291
     1
 45
0.0
  0
VISUALSTYLE
  5
2E
102
{ACAD_REACTORS
330
2A
102
}
102
{ACAD_XDICTIONARY
360
5F
102
}
330
2A
100
AcDbVisualStyle
  2
GouraudWithEdges
 70
     3
 71
     2
 72
     2
 73
     1
 90
        2
 40
-0.6
 41
30.0
 62
     5
 63
     7
421
 16777215
 74
     1
 91
        4
 64
     7
 65
   257
 75
     1
175
     1
 42
1.0
 92
        0
 66
   257
 43
1.0
 76
     1
 77
     6
 78
     2
 67
     7
 79
     5
170
     0
171
     0
290
     0
174
     0
 93
       13
 44
0.0
173
     0
291
     1
 45
0.0
  0
VISUALSTYLE
  5
38
102
{ACAD_REACTORS
330
2A
102
}
102
{ACAD_XDICTIONARY
360
73
102
}
330
2A
100
AcDbVisualStyle
  2
Linepattern
 70
    14
 71
     2
 72
     2
 73
     0
 90
        0
 40
-0.6
 41
-30.0
 62
     5
 63
     7
421
 16777215
 74
     1
 91
        4
 64
     7
 65
   257
 75
     7
175
     7
 42
1.0
 92
        8
 66
     7
 43
1.0
 76
     1
 77
     6
 78
     2
 67
     7
 79
     5
170
     0
171
     0
290
     0
174
     0
 93
        1
 44
0.0
173
     0
291
     1
 45
0.0
  0
VISUALSTYLE
  5
33
102
{ACAD_REACTORS
330
2A
102
}
102
{ACAD_XDICTIONARY
360
69
102
}
330
2A
100
AcDbVisualStyle
  2
Realistic
 70
     8
 71
     2
 72
     2
 73
     0
 90
        0
 40
-0.6
 41
-30.0
 62
     5
 63
     7
421
 16777215
 74
     1
 91
        0
 64
     7
 65
   257
 75
     1
175
     1
 42
1.0
 92
        8
 66
     8
424
  7895160
 43
1.0
 76
     1
 77
     6
 78
     2
 67
     7
 79
     5
170
     0
171
     0
290
     0
174
     0
 93
       13
 44
0.0
173
     0
291
     0
 45
0.0
  0
VISUALSTYLE
  5
37
102
{ACAD_REACTORS
330
2A
102
}
102
{ACAD_XDICTIONARY
360
71
102
}
330
2A
100
AcDbVisualStyle
  2
Thicken
 70
    13
 71
     2
 72
     2
 73
     0
 90
        0
 40
-0.6
 41
-30.0
 62
     5
 63
     7
421
 16777215
 74
     1
 91
        4
 64
     7
 65
   257
 75
     1
175
     1
 42
1.0
 92
       12
 66
     7
 43
1.0
 76
     1
 77
     6
 78
     2
 67
     7
 79
     5
170
     0
171
     0
290
     0
174
     0
 93
        1
 44
0.0
173
     0
291
     1
 45
0.0
  0
DICTIONARY
  5
61
330
2F
100
AcDbDictionary
280
     1
281
     1
  3
ACAD_XREC_ROUNDTRIP
360
62
  0
DICTIONARY
  5
65
330
31
100
AcDbDictionary
280
     1
281
     1
  3
ACAD_XREC_ROUNDTRIP
360
66
  0
DICTIONARY
  5
63
330
30
100
AcDbDictionary
280
     1
281
     1
  3
ACAD_XREC_ROUNDTRIP
360
64
  0
DICTIONARY
  5
67
330
32
100
AcDbDictionary
280
     1
281
     1
  3
ACAD_XREC_ROUNDTRIP
360
68
  0
DICTIONARY
  5
6F
330
36
100
AcDbDictionary
280
     1
281
     1
  3
ACAD_XREC_ROUNDTRIP
360
70
  0
DICTIONARY
  5
77
330
3A
100
AcDbDictionary
280
     1
281
     1
  3
ACAD_XREC_ROUNDTRIP
360
78
  0
DICTIONARY
  5
6B
330
34
100
AcDbDictionary
280
     1
281
     1
  3
ACAD_XREC_ROUNDTRIP
360
6C
  0
DICTIONARY
  5
6D
330
35
100
AcDbDictionary
280
     1
281
     1
  3
ACAD_XREC_ROUNDTRIP
360
6E
  0
DICTIONARY
  5
75
330
39
100
AcDbDictionary
280
     1
281
     1
  3
ACAD_XREC_ROUNDTRIP
360
76
  0
DICTIONARY
  5
59
330
2B
100
AcDbDictionary
280
     1
281
     1
  3
ACAD_XREC_ROUNDTRIP
360
5A
  0
DICTIONARY
  5
5B
330
2C
100
AcDbDictionary
280
     1
281
     1
  3
ACAD_XREC_ROUNDTRIP
360
5C
  0
DICTIONARY
  5
5D
330
2D
100
AcDbDictionary
280
     1
281
     1
  3
ACAD_XREC_ROUNDTRIP
360
5E
  0
DICTIONARY
  5
5F
330
2E
100
AcDbDictionary
280
     1
281
     1
  3
ACAD_XREC_ROUNDTRIP
360
60
  0
DICTIONARY
  5
73
330
38
100
AcDbDictionary
280
     1
281
     1
  3
ACAD_XREC_ROUNDTRIP
360
74
  0
DICTIONARY
  5
69
330
33
100
AcDbDictionary
280
     1
281
     1
  3
ACAD_XREC_ROUNDTRIP
360
6A
  0
DICTIONARY
  5
71
330
37
100
AcDbDictionary
280
     1
281
     1
  3
ACAD_XREC_ROUNDTRIP
360
72
  0
XRECORD
  5
62
102
{ACAD_REACTORS
330
61
102
}
330
61
100
AcDbXrecord
280
     1
102
RTVSPropertyOp0
 70
     1
102
RTVSPropertyOp1
 70
     1
102
RTVSPropertyOp2
 70
     1
102
RTVSPropertyOp3
 70
     1
102
RTVSPropertyOp4
 70
     1
102
RTVSPropertyOp5
 70
     1
102
RTVSPropertyOp6
 70
     1
102
RTVSPropertyOp7
 70
     1
102
RTVSPropertyOp8
 70
     1
102
RTVSPropertyOp9
 70
     1
102
RTVSPropertyOp10
 70
     1
102
RTVSPropertyOp11
 70
     1
102
RTVSPropertyOp12
 70
     1
102
RTVSPropertyOp13
 70
     1
102
RTVSPropertyOp14
 70
     1
102
RTVSPropertyOp15
 70
     1
102
RTVSPropertyOp16
 70
     1
102
RTVSPropertyOp17
 70
     1
102
RTVSPropertyOp18
 70
     1
102
RTVSPropertyOp19
 70
     1
102
RTVSPropertyOp20
 70
     1
102
RTVSPropertyOp21
 70
     1
102
RTVSPropertyOp22
 70
     1
102
RTVSPropertyOp23
 70
     1
102
RTVSPropertyOp24
 70
     1
102
RTVSPropertyOp25
 70
     1
102
RTVSPropertyOp26
 70
     1
102
RTVSPropertyOp27
 70
     1
102
RTVSPropertyOp28
 70
     1
102
RTVSPropertyOp29
 70
     1
102
RTVSPropertyOp30
 70
     1
102
RTVSPropertyOp31
 70
     1
102
RTVSPropertyOp32
 70
     1
  0
XRECORD
  5
66
102
{ACAD_REACTORS
330
65
102
}
330
65
100
AcDbXrecord
280
     1
102
RTVSPropertyOp0
 70
     1
102
RTVSPropertyOp1
 70
     1
102
RTVSPropertyOp2
 70
     1
102
RTVSPropertyOp3
 70
     1
102
RTVSPropertyOp4
 70
     1
102
RTVSPropertyOp5
 70
     1
102
RTVSPropertyOp6
 70
     1
102
RTVSPropertyOp7
 70
     1
102
RTVSPropertyOp8
 70
     1
102
RTVSPropertyOp9
 70
     1
102
RTVSPropertyOp10
 70
     1
102
RTVSPropertyOp11
 70
     1
102
RTVSPropertyOp12
 70
     1
102
RTVSPropertyOp13
 70
     1
102
RTVSPropertyOp14
 70
     1
102
RTVSPropertyOp15
 70
     1
102
RTVSPropertyOp16
 70
     1
102
RTVSPropertyOp17
 70
     1
102
RTVSPropertyOp18
 70
     1
102
RTVSPropertyOp19
 70
     1
102
RTVSPropertyOp20
 70
     1
102
RTVSPropertyOp21
 70
     1
102
RTVSPropertyOp22
 70
     1
102
RTVSPropertyOp23
 70
     1
102
RTVSPropertyOp24
 70
     1
102
RTVSPropertyOp25
 70
     1
102
RTVSPropertyOp26
 70
     1
102
RTVSPropertyOp27
 70
     1
102
RTVSPropertyOp28
 70
     1
102
RTVSPropertyOp29
 70
     1
102
RTVSPropertyOp30
 70
     1
102
RTVSPropertyOp31
 70
     1
102
RTVSPropertyOp32
 70
     1
  0
XRECORD
  5
64
102
{ACAD_REACTORS
330
63
102
}
330
63
100
AcDbXrecord
280
     1
102
RTVSPropertyOp0
 70
     1
102
RTVSPropertyOp1
 70
     1
102
RTVSPropertyOp2
 70
     1
102
RTVSPropertyOp3
 70
     1
102
RTVSPropertyOp4
 70
     1
102
RTVSPropertyOp5
 70
     1
102
RTVSPropertyOp6
 70
     1
102
RTVSPropertyOp7
 70
     1
102
RTVSPropertyOp8
 70
     1
102
RTVSPropertyOp9
 70
     1
102
RTVSPropertyOp10
 70
     1
102
RTVSPropertyOp11
 70
     1
102
RTVSPropertyOp12
 70
     1
102
RTVSPropertyOp13
 70
     1
102
RTVSPropertyOp14
 70
     1
102
RTVSPropertyOp15
 70
     1
102
RTVSPropertyOp16
 70
     1
102
RTVSPropertyOp17
 70
     1
102
RTVSPropertyOp18
 70
     1
102
RTVSPropertyOp19
 70
     1
102
RTVSPropertyOp20
 70
     1
102
RTVSPropertyOp21
 70
     1
102
RTVSPropertyOp22
 70
     1
102
RTVSPropertyOp23
 70
     1
102
RTVSPropertyOp24
 70
     1
102
RTVSPropertyOp25
 70
     1
102
RTVSPropertyOp26
 70
     1
102
RTVSPropertyOp27
 70
     1
102
RTVSPropertyOp28
 70
     1
102
RTVSPropertyOp29
 70
     1
102
RTVSPropertyOp30
 70
     1
102
RTVSPropertyOp31
 70
     1
102
RTVSPropertyOp32
 70
     1
  0
XRECORD
  5
68
102
{ACAD_REACTORS
330
67
102
}
330
67
100
AcDbXrecord
280
     1
102
RTVSPropertyOp0
 70
     1
102
RTVSPropertyOp1
 70
     1
102
RTVSPropertyOp2
 70
     1
102
RTVSPropertyOp3
 70
     1
102
RTVSPropertyOp4
 70
     1
102
RTVSPropertyOp5
 70
     1
102
RTVSPropertyOp6
 70
     1
102
RTVSPropertyOp7
 70
     1
102
RTVSPropertyOp8
 70
     1
102
RTVSPropertyOp9
 70
     1
102
RTVSPropertyOp10
 70
     1
102
RTVSPropertyOp11
 70
     1
102
RTVSPropertyOp12
 70
     1
102
RTVSPropertyOp13
 70
     1
102
RTVSPropertyOp14
 70
     1
102
RTVSPropertyOp15
 70
     1
102
RTVSPropertyOp16
 70
     1
102
RTVSPropertyOp17
 70
     1
102
RTVSPropertyOp18
 70
     1
102
RTVSPropertyOp19
 70
     1
102
RTVSPropertyOp20
 70
     1
102
RTVSPropertyOp21
 70
     1
102
RTVSPropertyOp22
 70
     1
102
RTVSPropertyOp23
 70
     1
102
RTVSPropertyOp24
 70
     1
102
RTVSPropertyOp25
 70
     1
102
RTVSPropertyOp26
 70
     1
102
RTVSPropertyOp27
 70
     1
102
RTVSPropertyOp28
 70
     1
102
RTVSPropertyOp29
 70
     1
102
RTVSPropertyOp30
 70
     1
102
RTVSPropertyOp31
 70
     1
102
RTVSPropertyOp32
 70
     1
  0
XRECORD
  5
70
102
{ACAD_REACTORS
330
6F
102
}
330
6F
100
AcDbXrecord
280
     1
102
RTVSPropertyOp0
 70
     1
102
RTVSPropertyOp1
 70
     1
102
RTVSPropertyOp2
 70
     1
102
RTVSPropertyOp3
 70
     1
102
RTVSPropertyOp4
 70
     1
102
RTVSPropertyOp5
 70
     1
102
RTVSPropertyOp6
 70
     1
102
RTVSPropertyOp7
 70
     1
102
RTVSPropertyOp8
 70
     1
102
RTVSPropertyOp9
 70
     1
102
RTVSPropertyOp10
 70
     1
102
RTVSPropertyOp11
 70
     1
102
RTVSPropertyOp12
 70
     1
102
RTVSPropertyOp13
 70
     1
102
RTVSPropertyOp14
 70
     1
102
RTVSPropertyOp15
 70
     1
102
RTVSPropertyOp16
 70
     1
102
RTVSPropertyOp17
 70
     1
102
RTVSPropertyOp18
 70
     1
102
RTVSPropertyOp19
 70
     1
102
RTVSPropertyOp20
 70
     1
102
RTVSPropertyOp21
 70
     1
102
RTVSPropertyOp22
 70
     1
102
RTVSPropertyOp23
 70
     1
102
RTVSPropertyOp24
 70
     1
102
RTVSPropertyOp25
 70
     1
102
RTVSPropertyOp26
 70
     1
102
RTVSPropertyOp27
 70
     1
102
RTVSPropertyOp28
 70
     1
102
RTVSPropertyOp29
 70
     1
102
RTVSPropertyOp30
 70
     1
102
RTVSPropertyOp31
 70
     1
102
RTVSPropertyOp32
 70
     1
  0
XRECORD
  5
78
102
{ACAD_REACTORS
330
77
102
}
330
77
100
AcDbXrecord
280
     1
102
RTVSPropertyOp0
 70
     1
102
RTVSPropertyOp1
 70
     1
102
RTVSPropertyOp2
 70
     1
102
RTVSPropertyOp3
 70
     1
102
RTVSPropertyOp4
 70
     1
102
RTVSPropertyOp5
 70
     1
102
RTVSPropertyOp6
 70
     1
102
RTVSPropertyOp7
 70
     1
102
RTVSPropertyOp8
 70
     1
102
RTVSPropertyOp9
 70
     1
102
RTVSPropertyOp10
 70
     1
102
RTVSPropertyOp11
 70
     1
102
RTVSPropertyOp12
 70
     1
102
RTVSPropertyOp13
 70
     1
102
RTVSPropertyOp14
 70
     1
102
RTVSPropertyOp15
 70
     1
102
RTVSPropertyOp16
 70
     1
102
RTVSPropertyOp17
 70
     1
102
RTVSPropertyOp18
 70
     1
102
RTVSPropertyOp19
 70
     1
102
RTVSPropertyOp20
 70
     1
102
RTVSPropertyOp21
 70
     1
102
RTVSPropertyOp22
 70
     1
102
RTVSPropertyOp23
 70
     1
102
RTVSPropertyOp24
 70
     1
102
RTVSPropertyOp25
 70
     1
102
RTVSPropertyOp26
 70
     1
102
RTVSPropertyOp27
 70
     1
102
RTVSPropertyOp28
 70
     1
102
RTVSPropertyOp29
 70
     1
102
RTVSPropertyOp30
 70
     1
102
RTVSPropertyOp31
 70
     1
102
RTVSPropertyOp32
 70
     1
  0
XRECORD
  5
6C
102
{ACAD_REACTORS
330
6B
102
}
330
6B
100
AcDbXrecord
280
     1
102
RTVSPropertyOp0
 70
     1
102
RTVSPropertyOp1
 70
     1
102
RTVSPropertyOp2
 70
     1
102
RTVSPropertyOp3
 70
     1
102
RTVSPropertyOp4
 70
     1
102
RTVSPropertyOp5
 70
     1
102
RTVSPropertyOp6
 70
     1
102
RTVSPropertyOp7
 70
     1
102
RTVSPropertyOp8
 70
     1
102
RTVSPropertyOp9
 70
     1
102
RTVSPropertyOp10
 70
     1
102
RTVSPropertyOp11
 70
     1
102
RTVSPropertyOp12
 70
     1
102
RTVSPropertyOp13
 70
     1
102
RTVSPropertyOp14
 70
     1
102
RTVSPropertyOp15
 70
     1
102
RTVSPropertyOp16
 70
     1
102
RTVSPropertyOp17
 70
     1
102
RTVSPropertyOp18
 70
     1
102
RTVSPropertyOp19
 70
     1
102
RTVSPropertyOp20
 70
     1
102
RTVSPropertyOp21
 70
     1
102
RTVSPropertyOp22
 70
     1
102
RTVSPropertyOp23
 70
     1
102
RTVSPropertyOp24
 70
     1
102
RTVSPropertyOp25
 70
     1
102
RTVSPropertyOp26
 70
     1
102
RTVSPropertyOp27
 70
     1
102
RTVSPropertyOp28
 70
     1
102
RTVSPropertyOp29
 70
     1
102
RTVSPropertyOp30
 70
     1
102
RTVSPropertyOp31
 70
     1
102
RTVSPropertyOp32
 70
     1
  0
XRECORD
  5
6E
102
{ACAD_REACTORS
330
6D
102
}
330
6D
100
AcDbXrecord
280
     1
102
RTVSPropertyOp0
 70
     1
102
RTVSPropertyOp1
 70
     1
102
RTVSPropertyOp2
 70
     1
102
RTVSPropertyOp3
 70
     1
102
RTVSPropertyOp4
 70
     1
102
RTVSPropertyOp5
 70
     1
102
RTVSPropertyOp6
 70
     1
102
RTVSPropertyOp7
 70
     1
102
RTVSPropertyOp8
 70
     1
102
RTVSPropertyOp9
 70
     1
102
RTVSPropertyOp10
 70
     1
102
RTVSPropertyOp11
 70
     1
102
RTVSPropertyOp12
 70
     1
102
RTVSPropertyOp13
 70
     1
102
RTVSPropertyOp14
 70
     1
102
RTVSPropertyOp15
 70
     1
102
RTVSPropertyOp16
 70
     1
102
RTVSPropertyOp17
 70
     1
102
RTVSPropertyOp18
 70
     1
102
RTVSPropertyOp19
 70
     1
102
RTVSPropertyOp20
 70
     1
102
RTVSPropertyOp21
 70
     1
102
RTVSPropertyOp22
 70
     1
102
RTVSPropertyOp23
 70
     1
102
RTVSPropertyOp24
 70
     1
102
RTVSPropertyOp25
 70
     1
102
RTVSPropertyOp26
 70
     1
102
RTVSPropertyOp27
 70
     1
102
RTVSPropertyOp28
 70
     1
102
RTVSPropertyOp29
 70
     1
102
RTVSPropertyOp30
 70
     1
102
RTVSPropertyOp31
 70
     1
102
RTVSPropertyOp32
 70
     1
  0
XRECORD
  5
76
102
{ACAD_REACTORS
330
75
102
}
330
75
100
AcDbXrecord
280
     1
102
RTVSPropertyOp0
 70
     1
102
RTVSPropertyOp1
 70
     1
102
RTVSPropertyOp2
 70
     1
102
RTVSPropertyOp3
 70
     1
102
RTVSPropertyOp4
 70
     1
102
RTVSPropertyOp5
 70
     1
102
RTVSPropertyOp6
 70
     1
102
RTVSPropertyOp7
 70
     1
102
RTVSPropertyOp8
 70
     1
102
RTVSPropertyOp9
 70
     1
102
RTVSPropertyOp10
 70
     1
102
RTVSPropertyOp11
 70
     1
102
RTVSPropertyOp12
 70
     1
102
RTVSPropertyOp13
 70
     1
102
RTVSPropertyOp14
 70
     1
102
RTVSPropertyOp15
 70
     1
102
RTVSPropertyOp16
 70
     1
102
RTVSPropertyOp17
 70
     1
102
RTVSPropertyOp18
 70
     1
102
RTVSPropertyOp19
 70
     1
102
RTVSPropertyOp20
 70
     1
102
RTVSPropertyOp21
 70
     1
102
RTVSPropertyOp22
 70
     1
102
RTVSPropertyOp23
 70
     1
102
RTVSPropertyOp24
 70
     1
102
RTVSPropertyOp25
 70
     1
102
RTVSPropertyOp26
 70
     1
102
RTVSPropertyOp27
 70
     1
102
RTVSPropertyOp28
 70
     1
102
RTVSPropertyOp29
 70
     1
102
RTVSPropertyOp30
 70
     1
102
RTVSPropertyOp31
 70
     1
102
RTVSPropertyOp32
 70
     1
  0
XRECORD
  5
5A
102
{ACAD_REACTORS
330
59
102
}
330
59
100
AcDbXrecord
280
     1
102
RTVSPropertyOp0
 70
     1
102
RTVSPropertyOp1
 70
     1
102
RTVSPropertyOp2
 70
     1
102
RTVSPropertyOp3
 70
     1
102
RTVSPropertyOp4
 70
     1
102
RTVSPropertyOp5
 70
     1
102
RTVSPropertyOp6
 70
     1
102
RTVSPropertyOp7
 70
     1
102
RTVSPropertyOp8
 70
     1
102
RTVSPropertyOp9
 70
     1
102
RTVSPropertyOp10
 70
     1
102
RTVSPropertyOp11
 70
     1
102
RTVSPropertyOp12
 70
     1
102
RTVSPropertyOp13
 70
     1
102
RTVSPropertyOp14
 70
     1
102
RTVSPropertyOp15
 70
     1
102
RTVSPropertyOp16
 70
     1
102
RTVSPropertyOp17
 70
     1
102
RTVSPropertyOp18
 70
     1
102
RTVSPropertyOp19
 70
     1
102
RTVSPropertyOp20
 70
     1
102
RTVSPropertyOp21
 70
     1
102
RTVSPropertyOp22
 70
     1
102
RTVSPropertyOp23
 70
     1
102
RTVSPropertyOp24
 70
     1
102
RTVSPropertyOp25
 70
     1
102
RTVSPropertyOp26
 70
     1
102
RTVSPropertyOp27
 70
     1
102
RTVSPropertyOp28
 70
     1
102
RTVSPropertyOp29
 70
     1
102
RTVSPropertyOp30
 70
     1
102
RTVSPropertyOp31
 70
     1
102
RTVSPropertyOp32
 70
     1
  0
XRECORD
  5
5C
102
{ACAD_REACTORS
330
5B
102
}
330
5B
100
AcDbXrecord
280
     1
102
RTVSPropertyOp0
 70
     1
102
RTVSPropertyOp1
 70
     1
102
RTVSPropertyOp2
 70
     1
102
RTVSPropertyOp3
 70
     1
102
RTVSPropertyOp4
 70
     1
102
RTVSPropertyOp5
 70
     1
102
RTVSPropertyOp6
 70
     1
102
RTVSPropertyOp7
 70
     1
102
RTVSPropertyOp8
 70
     1
102
RTVSPropertyOp9
 70
     1
102
RTVSPropertyOp10
 70
     1
102
RTVSPropertyOp11
 70
     1
102
RTVSPropertyOp12
 70
     1
102
RTVSPropertyOp13
 70
     1
102
RTVSPropertyOp14
 70
     1
102
RTVSPropertyOp15
 70
     1
102
RTVSPropertyOp16
 70
     1
102
RTVSPropertyOp17
 70
     1
102
RTVSPropertyOp18
 70
     1
102
RTVSPropertyOp19
 70
     1
102
RTVSPropertyOp20
 70
     1
102
RTVSPropertyOp21
 70
     1
102
RTVSPropertyOp22
 70
     1
102
RTVSPropertyOp23
 70
     1
102
RTVSPropertyOp24
 70
     1
102
RTVSPropertyOp25
 70
     1
102
RTVSPropertyOp26
 70
     1
102
RTVSPropertyOp27
 70
     1
102
RTVSPropertyOp28
 70
     1
102
RTVSPropertyOp29
 70
     1
102
RTVSPropertyOp30
 70
     1
102
RTVSPropertyOp31
 70
     1
102
RTVSPropertyOp32
 70
     1
  0
XRECORD
  5
5E
102
{ACAD_REACTORS
330
5D
102
}
330
5D
100
AcDbXrecord
280
     1
102
RTVSPropertyOp0
 70
     1
102
RTVSPropertyOp1
 70
     1
102
RTVSPropertyOp2
 70
     1
102
RTVSPropertyOp3
 70
     1
102
RTVSPropertyOp4
 70
     1
102
RTVSPropertyOp5
 70
     1
102
RTVSPropertyOp6
 70
     1
102
RTVSPropertyOp7
 70
     1
102
RTVSPropertyOp8
 70
     1
102
RTVSPropertyOp9
 70
     1
102
RTVSPropertyOp10
 70
     1
102
RTVSPropertyOp11
 70
     1
102
RTVSPropertyOp12
 70
     1
102
RTVSPropertyOp13
 70
     1
102
RTVSPropertyOp14
 70
     1
102
RTVSPropertyOp15
 70
     1
102
RTVSPropertyOp16
 70
     1
102
RTVSPropertyOp17
 70
     1
102
RTVSPropertyOp18
 70
     1
102
RTVSPropertyOp19
 70
     1
102
RTVSPropertyOp20
 70
     1
102
RTVSPropertyOp21
 70
     1
102
RTVSPropertyOp22
 70
     1
102
RTVSPropertyOp23
 70
     1
102
RTVSPropertyOp24
 70
     1
102
RTVSPropertyOp25
 70
     1
102
RTVSPropertyOp26
 70
     1
102
RTVSPropertyOp27
 70
     1
102
RTVSPropertyOp28
 70
     1
102
RTVSPropertyOp29
 70
     1
102
RTVSPropertyOp30
 70
     1
102
RTVSPropertyOp31
 70
     1
102
RTVSPropertyOp32
 70
     1
  0
XRECORD
  5
60
102
{ACAD_REACTORS
330
5F
102
}
330
5F
100
AcDbXrecord
280
     1
102
RTVSPropertyOp0
 70
     1
102
RTVSPropertyOp1
 70
     1
102
RTVSPropertyOp2
 70
     1
102
RTVSPropertyOp3
 70
     1
102
RTVSPropertyOp4
 70
     1
102
RTVSPropertyOp5
 70
     1
102
RTVSPropertyOp6
 70
     1
102
RTVSPropertyOp7
 70
     1
102
RTVSPropertyOp8
 70
     1
102
RTVSPropertyOp9
 70
     1
102
RTVSPropertyOp10
 70
     1
102
RTVSPropertyOp11
 70
     1
102
RTVSPropertyOp12
 70
     1
102
RTVSPropertyOp13
 70
     1
102
RTVSPropertyOp14
 70
     1
102
RTVSPropertyOp15
 70
     1
102
RTVSPropertyOp16
 70
     1
102
RTVSPropertyOp17
 70
     1
102
RTVSPropertyOp18
 70
     1
102
RTVSPropertyOp19
 70
     1
102
RTVSPropertyOp20
 70
     1
102
RTVSPropertyOp21
 70
     1
102
RTVSPropertyOp22
 70
     1
102
RTVSPropertyOp23
 70
     1
102
RTVSPropertyOp24
 70
     1
102
RTVSPropertyOp25
 70
     1
102
RTVSPropertyOp26
 70
     1
102
RTVSPropertyOp27
 70
     1
102
RTVSPropertyOp28
 70
     1
102
RTVSPropertyOp29
 70
     1
102
RTVSPropertyOp30
 70
     1
102
RTVSPropertyOp31
 70
     1
102
RTVSPropertyOp32
 70
     1
  0
XRECORD
  5
74
102
{ACAD_REACTORS
330
73
102
}
330
73
100
AcDbXrecord
280
     1
102
RTVSPropertyOp0
 70
     1
102
RTVSPropertyOp1
 70
     1
102
RTVSPropertyOp2
 70
     1
102
RTVSPropertyOp3
 70
     1
102
RTVSPropertyOp4
 70
     1
102
RTVSPropertyOp5
 70
     1
102
RTVSPropertyOp6
 70
     1
102
RTVSPropertyOp7
 70
     1
102
RTVSPropertyOp8
 70
     1
102
RTVSPropertyOp9
 70
     1
102
RTVSPropertyOp10
 70
     1
102
RTVSPropertyOp11
 70
     1
102
RTVSPropertyOp12
 70
     1
102
RTVSPropertyOp13
 70
     1
102
RTVSPropertyOp14
 70
     1
102
RTVSPropertyOp15
 70
     1
102
RTVSPropertyOp16
 70
     1
102
RTVSPropertyOp17
 70
     1
102
RTVSPropertyOp18
 70
     1
102
RTVSPropertyOp19
 70
     1
102
RTVSPropertyOp20
 70
     1
102
RTVSPropertyOp21
 70
     1
102
RTVSPropertyOp22
 70
     1
102
RTVSPropertyOp23
 70
     1
102
RTVSPropertyOp24
 70
     1
102
RTVSPropertyOp25
 70
     1
102
RTVSPropertyOp26
 70
     1
102
RTVSPropertyOp27
 70
     1
102
RTVSPropertyOp28
 70
     1
102
RTVSPropertyOp29
 70
     1
102
RTVSPropertyOp30
 70
     1
102
RTVSPropertyOp31
 70
     1
102
RTVSPropertyOp32
 70
     1
  0
XRECORD
  5
6A
102
{ACAD_REACTORS
330
69
102
}
330
69
100
AcDbXrecord
280
     1
102
RTVSPropertyOp0
 70
     1
102
RTVSPropertyOp1
 70
     1
102
RTVSPropertyOp2
 70
     1
102
RTVSPropertyOp3
 70
     1
102
RTVSPropertyOp4
 70
     1
102
RTVSPropertyOp5
 70
     1
102
RTVSPropertyOp6
 70
     1
102
RTVSPropertyOp7
 70
     1
102
RTVSPropertyOp8
 70
     1
102
RTVSPropertyOp9
 70
     1
102
RTVSPropertyOp10
 70
     1
102
RTVSPropertyOp11
 70
     1
102
RTVSPropertyOp12
 70
     1
102
RTVSPropertyOp13
 70
     1
102
RTVSPropertyOp14
 70
     1
102
RTVSPropertyOp15
 70
     1
102
RTVSPropertyOp16
 70
     1
102
RTVSPropertyOp17
 70
     1
102
RTVSPropertyOp18
 70
     1
102
RTVSPropertyOp19
 70
     1
102
RTVSPropertyOp20
 70
     1
102
RTVSPropertyOp21
 70
     1
102
RTVSPropertyOp22
 70
     1
102
RTVSPropertyOp23
 70
     1
102
RTVSPropertyOp24
 70
     1
102
RTVSPropertyOp25
 70
     1
102
RTVSPropertyOp26
 70
     1
102
RTVSPropertyOp27
 70
     1
102
RTVSPropertyOp28
 70
     1
102
RTVSPropertyOp29
 70
     1
102
RTVSPropertyOp30
 70
     1
102
RTVSPropertyOp31
 70
     1
102
RTVSPropertyOp32
 70
     1
  0
XRECORD
  5
72
102
{ACAD_REACTORS
330
71
102
}
330
71
100
AcDbXrecord
280
     1
102
RTVSPropertyOp0
 70
     1
102
RTVSPropertyOp1
 70
     1
102
RTVSPropertyOp2
 70
     1
102
RTVSPropertyOp3
 70
     1
102
RTVSPropertyOp4
 70
     1
102
RTVSPropertyOp5
 70
     1
102
RTVSPropertyOp6
 70
     1
102
RTVSPropertyOp7
 70
     1
102
RTVSPropertyOp8
 70
     1
102
RTVSPropertyOp9
 70
     1
102
RTVSPropertyOp10
 70
     1
102
RTVSPropertyOp11
 70
     1
102
RTVSPropertyOp12
 70
     1
102
RTVSPropertyOp13
 70
     1
102
RTVSPropertyOp14
 70
     1
102
RTVSPropertyOp15
 70
     1
102
RTVSPropertyOp16
 70
     1
102
RTVSPropertyOp17
 70
     1
102
RTVSPropertyOp18
 70
     1
102
RTVSPropertyOp19
 70
     1
102
RTVSPropertyOp20
 70
     1
102
RTVSPropertyOp21
 70
     1
102
RTVSPropertyOp22
 70
     1
102
RTVSPropertyOp23
 70
     1
102
RTVSPropertyOp24
 70
     1
102
RTVSPropertyOp25
 70
     1
102
RTVSPropertyOp26
 70
     1
102
RTVSPropertyOp27
 70
     1
102
RTVSPropertyOp28
 70
     1
102
RTVSPropertyOp29
 70
     1
102
RTVSPropertyOp30
 70
     1
102
RTVSPropertyOp31
 70
     1
102
RTVSPropertyOp32
 70
     1
  0
ENDSEC
  0
EOF
