<?xml version="1.0" encoding="UTF-8"?>
<!DOCTYPE svg PUBLIC "-//W3C//DTD SVG 1.1//EN" "http://www.w3.org/Graphics/SVG/1.1/DTD/svg11.dtd">
<!-- Creator: CorelDRAW X6 -->
<svg xmlns="http://www.w3.org/2000/svg" xml:space="preserve" width="300mm" height="600mm" version="1.1" style="shape-rendering:geometricPrecision; text-rendering:geometricPrecision; image-rendering:optimizeQuality; fill-rule:evenodd; clip-rule:evenodd"
viewBox="0 0 30000 60000"
 xmlns:xlink="http://www.w3.org/1999/xlink">
 <defs>
  <style type="text/css">
   <![CDATA[
    .str0 {stroke:black;stroke-width:52.92;stroke-linecap:round;stroke-linejoin:round}
    .fil0 {fill:none;fill-rule:nonzero}
   ]]>
  </style>
 </defs>
 <g id="Layer_x0020_1">
  <metadata id="CorelCorpID_0Corel-Layer"/>
  <g id="_781511600">
   <path class="fil0 str0" d="M14339 9803c1,1238 14,2476 0,3713 -15,1338 -58,2675 -86,4013 -18,867 -29,1734 -47,2601 -20,965 -46,1930 -67,2895 -36,1609 -62,3218 -109,4827 -24,828 -1152,19374 -1192,20202 -9,197 3,396 3,593 -1,297 -118,376 -398,283 -245,-82 -412,-234 -441,-496 -26,-232 -34,-466 -39,-699 -6,-284 -5,-569 1,-853 20,-891 1115,-19500 1131,-20392 28,-1536 35,-3072 76,-4607 25,-916 68,-1897 153,-3266 80,-1300 120,-1950 200,-2840 182,-2014 150,-4041 258,-6060 1,-13 4,-60 -14,-115 -10,-31 -25,-62 -49,-95 -47,202 -305,2358 -346,2561 -85,428 -217,839 -438,1217 -39,66 -118,153 -176,152 -61,-2 -144,-87 -176,-156 -302,-641 -541,-1296 -623,-2012 -104,-900 -200,-1794 6,-2756 -110,71 -171,99 -219,142 -677,595 -1465,1012 -2263,1411 -216,108 -444,179 -658,-70 290,-1321 1099,-2314 2138,-3244 -113,-3 -155,-13 -193,-4 -386,90 -786,143 -1153,283 -728,277 -1434,610 -2077,1060 -51,36 -102,71 -149,111 -105,89 -216,117 -341,42 -149,-89 -135,-224 -99,-360 194,-732 592,-1326 1194,-1789 488,-376 1030,-637 1711,-811 -152,-55 -221,-91 -293,-103 -818,-136 -1563,-467 -2287,-856 -44,-24 -89,-45 -127,-76 -150,-121 -136,-247 38,-345 32,-18 67,-33 102,-44 628,-192 1254,-383 1923,-393 328,-5 655,-85 1047,-140 -151,-128 -264,-234 -387,-326 -271,-204 -271,-349 27,-522 182,-105 370,-226 570,-266 340,-69 623,-237 898,-422 392,-263 802,-307 1238,-154 347,122 690,253 1037,382 79,-348 142,-713 248,-1066 204,-680 324,-768 991,-361 319,194 533,489 601,860 64,352 91,710 133,1066 7,59 8,118 13,194 721,52 1420,80 2106,-154 442,-151 895,-194 1353,-56 71,22 145,38 211,70 178,87 373,170 391,405 15,212 -163,292 -307,382 -461,288 -927,569 -1390,854 -52,32 -99,70 -167,118 848,569 1453,1349 2071,2117 131,491 592,628 939,893 191,146 363,338 489,542 138,225 33,393 -229,401 -801,25 -1602,36 -2424,53 40,72 92,175 154,271 350,542 678,1095 892,1708 116,333 211,665 -55,1004 -291,-22 -552,-137 -759,-334 -376,-357 -733,-735 -1096,-1106 -372,-380 -736,-767 -1117,-1138 -120,-117 -282,-191 -477,-319 19,132 23,208 41,282 139,586 123,1181 114,1776 -10,684 -78,1360 -294,2015 -58,175 -100,361 -293,450 -208,-33 -281,-208 -345,-360 -229,-549 -415,-928 -547,-1420 -90,-335 -249,-809 -550,-1362z"/>
   <path class="fil0 str0" d="M14505 6512c65,72 122,154 197,214 473,378 929,784 1432,1118 655,435 1264,912 1788,1498 346,388 691,778 1043,1160 100,109 188,254 381,266 -11,-81 -9,-146 -30,-200 -64,-161 -133,-320 -209,-475 -658,-1362 -1438,-2630 -2705,-3525 -342,-241 -667,-512 -1059,-594 -288,185 -546,351 -838,539z"/>
   <path class="fil0 str0" d="M13693 6295c-264,421 -443,793 -702,1097 -310,363 -511,750 -561,1221 -8,73 -29,146 -47,218 -209,842 -231,1691 -66,2542 83,429 187,855 478,1280 29,-184 47,-302 67,-420 118,-695 225,-1391 356,-2084 129,-681 296,-1354 419,-2036 103,-572 124,-1153 55,-1818z"/>
   <path class="fil0 str0" d="M15674 5615c83,55 131,91 183,121 806,472 1555,1014 2170,1727 40,46 86,89 138,121 799,500 1637,413 2550,173 -146,-103 -246,-171 -342,-243 -327,-244 -666,-474 -976,-738 -325,-276 -642,-542 -1087,-598 -133,-16 -259,-82 -389,-124 -531,-169 -1060,-343 -1594,-504 -199,-60 -408,-113 -652,64z"/>
   <path class="fil0 str0" d="M14183 6844c17,385 -33,694 86,1010 169,451 310,913 437,1378 249,907 513,1808 887,2674 35,82 85,157 162,297 32,-170 59,-265 67,-361 37,-481 58,-963 105,-1442 75,-769 -62,-1502 -336,-2218 -63,-165 -139,-306 -284,-419 -360,-280 -708,-577 -1123,-918z"/>
   <path class="fil0 str0" d="M9359 9612c1058,-370 3260,-2105 3956,-3596 -69,-67 -144,-140 -236,-229 -1612,938 -2880,2172 -3719,3824z"/>
   <path class="fil0 str0" d="M12502 4707c25,-108 37,-156 47,-204 68,-341 56,-371 -286,-471 -213,-62 -431,-122 -650,-147 -1124,-127 -2247,-94 -3366,63 -122,17 -261,15 -408,150 1508,775 3053,857 4663,610z"/>
   <path class="fil0 str0" d="M12679 5450c-78,-175 -189,-203 -365,-176 -292,45 -591,46 -887,64 -123,7 -251,-9 -370,17 -864,189 -1700,450 -2425,983 -414,304 -791,644 -1065,1154 291,-124 536,-210 764,-329 877,-457 1801,-757 2784,-869 264,-30 498,-124 716,-283 269,-196 555,-369 848,-562z"/>
   <path class="fil0 str0" d="M16164 4543c221,-12 504,-29 754,-187 272,-172 539,-350 806,-530 328,-221 651,-448 978,-670 125,-85 255,-163 440,-282 -151,-39 -222,-78 -289,-72 -330,32 -669,39 -987,123 -661,173 -1307,387 -2007,212 -168,-42 -358,8 -555,16 292,473 562,909 859,1389z"/>
   <path class="fil0 str0" d="M14293 744c-71,259 -151,481 -190,710 -64,376 -115,755 -143,1135 -17,234 44,268 290,253 98,-6 211,-43 293,-9 257,108 477,18 725,-81 64,-425 2,-837 -100,-1244 -109,-436 -429,-638 -874,-764z"/>
   <path class="fil0 str0" d="M11376 2221c-3,27 -5,55 -8,82 678,181 1238,551 1694,1056 159,-91 279,-155 394,-227 222,-139 251,-337 47,-507 -188,-157 -400,-292 -614,-412 -544,-306 -547,-528 -1349,-70 -52,30 -109,52 -164,77z"/>
   <path class="fil0 str0" d="M16091 5117c999,177 1918,526 2850,843 -296,-397 -648,-725 -1055,-986 -335,-215 -710,-281 -1105,-209 -181,33 -359,86 -541,110 -157,21 -178,104 -149,242z"/>
   <path class="fil0 str0" d="M12772 3763c121,-222 -24,-298 -111,-350 -453,-275 -905,-557 -1383,-785 -284,-136 -588,-48 -883,139 211,200 384,375 570,536 70,61 166,121 254,129 529,44 1054,94 1553,332z"/>
   <path class="fil0 str0" d="M14690 4576c-41,86 -91,145 -89,201 1,39 74,76 114,114 43,-62 96,-120 121,-188 6,-18 -77,-68 -147,-127z"/>
   <path class="fil0 str0" d="M13871 5576c54,-83 111,-135 116,-192 3,-35 -82,-116 -109,-109 -58,15 -138,71 -144,118 -6,45 71,100 137,182z"/>
   <path class="fil0 str0" d="M14609 4278c-69,-55 -125,-125 -152,-115 -54,19 -107,76 -128,131 -9,22 74,115 102,109 56,-11 103,-68 179,-124z"/>
   <path class="fil0 str0" d="M14015 4593c-67,-41 -133,-102 -153,-89 -51,32 -113,99 -111,149 2,43 86,83 134,124 39,-54 77,-109 131,-184z"/>
   <path class="fil0 str0" d="M14365 5994c-74,-45 -127,-102 -164,-93 -43,11 -99,81 -97,122 2,38 75,100 116,99 40,-1 80,-67 145,-129z"/>
   <path class="fil0 str0" d="M15042 5501c-69,-39 -123,-93 -158,-82 -42,13 -105,101 -94,120 29,50 92,79 141,117 31,-44 63,-88 110,-154z"/>
   <path class="fil0 str0" d="M13318 4808c-172,-72 -244,-122 -263,-107 -47,39 -83,104 -96,165 -4,19 89,86 126,78 65,-13 122,-68 232,-136z"/>
   <path class="fil0 str0" d="M13590 3811c-36,88 -76,146 -74,202 1,25 109,79 128,66 46,-35 85,-99 94,-156 4,-23 -77,-60 -148,-112z"/>
   <path class="fil0 str0" d="M13971 3161c-48,66 -106,112 -104,155 2,41 87,118 100,111 56,-29 99,-84 147,-129 -41,-38 -81,-77 -144,-137z"/>
   <path class="fil0 str0" d="M15620 5019c47,-76 105,-128 97,-167 -9,-43 -78,-74 -120,-111 -34,43 -95,86 -95,130 -1,41 62,83 118,148z"/>
   <path class="fil0 str0" d="M15236 4057c-14,90 -37,146 -24,192 8,26 74,36 114,53 18,-49 52,-100 49,-147 -2,-26 -66,-49 -139,-98z"/>
   <path class="fil0 str0" d="M14745 3603c26,-77 62,-133 48,-156 -27,-41 -84,-63 -129,-93 -24,39 -77,91 -67,114 20,45 76,74 148,135z"/>
  </g>
  <g id="_691678272">
   <path class="fil0 str0" d="M15661 50197c-1,-1238 -14,-2476 0,-3713 15,-1338 58,-2675 86,-4013 18,-867 29,-1734 47,-2601 20,-965 46,-1930 67,-2895 36,-1609 62,-3218 109,-4827 24,-828 1152,-19374 1192,-20202 9,-197 -3,-396 -3,-593 1,-297 118,-376 398,-283 245,82 412,234 441,496 26,232 34,466 39,699 6,284 5,569 -1,853 -20,891 -1115,19500 -1131,20392 -28,1536 -35,3072 -76,4607 -25,916 -68,1897 -153,3266 -80,1300 -120,1950 -200,2840 -182,2014 -150,4041 -258,6060 -1,13 -4,60 14,115 10,31 25,62 49,95 47,-202 305,-2358 346,-2561 85,-428 217,-839 438,-1217 39,-66 118,-153 176,-152 61,2 144,87 176,156 302,641 541,1296 623,2012 104,900 200,1794 -6,2756 110,-71 171,-99 219,-142 677,-595 1465,-1012 2263,-1411 216,-108 444,-179 658,70 -290,1321 -1099,2314 -2138,3244 113,3 155,13 193,4 386,-90 786,-143 1153,-283 728,-277 1434,-610 2077,-1060 51,-36 102,-71 149,-111 105,-89 216,-117 341,-42 149,89 135,224 99,360 -194,732 -592,1326 -1194,1789 -488,376 -1030,637 -1711,811 152,55 221,91 293,103 818,136 1563,467 2287,856 44,24 89,45 127,76 150,121 136,247 -38,345 -32,18 -67,33 -102,44 -628,192 -1254,383 -1923,393 -328,5 -655,85 -1047,140 151,128 264,234 387,326 271,204 271,349 -27,522 -182,105 -370,226 -570,266 -340,69 -623,237 -898,422 -392,263 -802,307 -1238,154 -347,-122 -690,-253 -1037,-382 -79,348 -142,713 -248,1066 -204,680 -324,768 -991,361 -319,-194 -533,-489 -601,-860 -64,-352 -91,-710 -133,-1066 -7,-59 -8,-118 -13,-194 -721,-52 -1420,-80 -2106,154 -442,151 -895,194 -1353,56 -71,-22 -145,-38 -211,-70 -178,-87 -373,-170 -391,-405 -15,-212 163,-292 307,-382 461,-288 927,-569 1390,-854 52,-32 99,-70 167,-118 -848,-569 -1453,-1349 -2071,-2117 -131,-491 -592,-628 -939,-893 -191,-146 -363,-338 -489,-542 -138,-225 -33,-393 229,-401 801,-25 1602,-36 2424,-53 -40,-72 -92,-175 -154,-271 -350,-542 -678,-1095 -892,-1708 -116,-333 -211,-665 55,-1004 291,22 552,137 759,334 376,357 733,735 1096,1106 372,380 736,767 1117,1138 120,117 282,191 477,319 -19,-132 -23,-208 -41,-282 -139,-586 -123,-1181 -114,-1776 10,-684 78,-1360 294,-2015 58,-175 100,-361 293,-450 208,33 281,208 345,360 229,549 415,928 547,1420 90,335 249,809 550,1362z"/>
   <path class="fil0 str0" d="M15495 53488c-65,-72 -122,-154 -197,-214 -473,-378 -929,-784 -1432,-1118 -655,-435 -1264,-912 -1788,-1498 -346,-388 -691,-778 -1043,-1160 -100,-109 -188,-254 -381,-266 11,81 9,146 30,200 64,161 133,320 209,475 658,1362 1438,2630 2705,3525 342,241 667,512 1059,594 288,-185 546,-351 838,-539z"/>
   <path class="fil0 str0" d="M16307 53705c264,-421 443,-793 702,-1097 310,-363 511,-750 561,-1221 8,-73 29,-146 47,-218 209,-842 231,-1691 66,-2542 -83,-429 -187,-855 -478,-1280 -29,184 -47,302 -67,420 -118,695 -225,1391 -356,2084 -129,681 -296,1354 -418,2036 -103,572 -124,1153 -55,1818z"/>
   <path class="fil0 str0" d="M14326 54385c-83,-55 -131,-91 -183,-121 -806,-472 -1556,-1014 -2170,-1727 -40,-46 -86,-89 -138,-121 -799,-500 -1637,-413 -2550,-173 146,103 246,171 342,243 327,244 666,474 976,738 325,276 642,542 1087,598 133,16 259,82 389,124 531,169 1060,343 1594,504 199,60 408,113 652,-64z"/>
   <path class="fil0 str0" d="M15817 53156c-17,-385 33,-694 -86,-1010 -169,-451 -310,-913 -437,-1378 -249,-907 -513,-1808 -887,-2674 -35,-82 -85,-157 -162,-297 -32,170 -59,265 -67,361 -37,481 -58,963 -105,1442 -75,769 62,1502 336,2218 63,165 139,306 284,419 360,280 708,577 1123,918z"/>
   <path class="fil0 str0" d="M20641 50388c-1058,370 -3260,2105 -3956,3596 69,67 144,140 236,229 1612,-938 2880,-2172 3719,-3824z"/>
   <path class="fil0 str0" d="M17498 55293c-25,108 -37,156 -47,204 -68,341 -56,371 286,471 213,62 431,122 650,147 1124,127 2247,94 3366,-63 122,-17 261,-15 408,-150 -1508,-775 -3053,-857 -4663,-610z"/>
   <path class="fil0 str0" d="M17321 54550c78,175 189,203 365,176 292,-45 591,-46 887,-64 123,-7 251,9 370,-17 864,-189 1700,-450 2425,-983 414,-304 791,-644 1065,-1154 -291,124 -536,210 -764,329 -877,457 -1801,757 -2784,869 -264,30 -498,124 -716,283 -269,196 -555,369 -848,562z"/>
   <path class="fil0 str0" d="M13836 55457c-221,12 -504,29 -754,187 -272,172 -539,350 -806,530 -328,221 -651,448 -978,670 -125,85 -255,163 -440,282 151,39 222,78 289,72 330,-32 669,-39 987,-123 661,-173 1307,-387 2007,-212 168,42 358,-8 555,-16 -292,-473 -562,-909 -859,-1389z"/>
   <path class="fil0 str0" d="M15707 59256c71,-259 151,-481 190,-710 64,-376 115,-755 143,-1135 17,-234 -44,-268 -290,-253 -98,6 -211,43 -293,9 -257,-108 -477,-18 -725,81 -64,425 -2,837 100,1244 109,436 429,638 874,764z"/>
   <path class="fil0 str0" d="M18624 57779c3,-27 5,-55 8,-82 -678,-181 -1238,-551 -1694,-1056 -159,91 -279,155 -394,227 -222,139 -251,337 -47,507 188,157 400,292 614,412 544,306 547,528 1349,70 52,-30 109,-52 164,-77z"/>
   <path class="fil0 str0" d="M13909 54883c-999,-177 -1918,-526 -2850,-843 296,397 648,725 1055,986 335,215 710,281 1105,209 181,-33 359,-86 541,-110 157,-21 178,-104 149,-242z"/>
   <path class="fil0 str0" d="M17228 56237c-121,222 24,298 111,350 453,275 905,557 1383,785 284,136 588,48 883,-139 -211,-200 -384,-375 -570,-536 -70,-61 -166,-121 -254,-129 -529,-44 -1054,-94 -1553,-332z"/>
   <path class="fil0 str0" d="M15310 55424c41,-86 91,-145 89,-201 -1,-39 -74,-76 -114,-114 -43,62 -96,120 -121,188 -6,18 77,68 147,127z"/>
   <path class="fil0 str0" d="M16129 54424c-54,83 -111,135 -116,192 -3,35 82,116 109,109 58,-15 138,-71 144,-118 6,-45 -71,-100 -137,-182z"/>
   <path class="fil0 str0" d="M15391 55722c69,55 125,125 152,115 54,-19 107,-76 128,-131 9,-22 -74,-115 -102,-109 -56,11 -103,68 -179,124z"/>
   <path class="fil0 str0" d="M15985 55407c67,41 133,102 153,89 51,-32 113,-99 111,-149 -2,-43 -86,-83 -134,-124 -39,54 -77,109 -131,184z"/>
   <path class="fil0 str0" d="M15635 54006c74,45 127,102 164,93 43,-11 99,-81 97,-122 -2,-38 -75,-100 -116,-99 -40,1 -80,67 -145,129z"/>
   <path class="fil0 str0" d="M14958 54499c69,39 123,93 158,82 42,-13 105,-101 94,-120 -29,-50 -92,-79 -141,-117 -31,44 -63,88 -110,154z"/>
   <path class="fil0 str0" d="M16682 55192c172,72 244,122 263,107 47,-39 83,-104 96,-165 4,-19 -89,-86 -126,-78 -65,13 -122,68 -232,136z"/>
   <path class="fil0 str0" d="M16410 56189c36,-88 76,-146 74,-202 -1,-25 -109,-79 -128,-66 -46,35 -85,99 -94,156 -4,23 77,60 148,112z"/>
   <path class="fil0 str0" d="M16029 56839c48,-66 106,-112 104,-155 -2,-41 -87,-118 -100,-111 -56,29 -99,84 -147,129 41,38 81,77 144,137z"/>
   <path class="fil0 str0" d="M14380 54981c-47,76 -105,128 -97,167 9,43 78,74 120,111 34,-43 95,-86 95,-130 1,-41 -62,-83 -118,-148z"/>
   <path class="fil0 str0" d="M14764 55943c14,-90 37,-146 24,-192 -8,-26 -74,-36 -114,-53 -18,49 -52,100 -49,147 2,26 66,49 139,98z"/>
   <path class="fil0 str0" d="M15255 56397c-26,77 -62,133 -48,156 27,41 84,63 129,93 24,-39 77,-91 67,-114 -20,-45 -76,-74 -148,-135z"/>
  </g>
 </g>
</svg>
