<?xml version="1.0" encoding="UTF-8"?>
<!DOCTYPE svg PUBLIC "-//W3C//DTD SVG 1.1//EN" "http://www.w3.org/Graphics/SVG/1.1/DTD/svg11.dtd">
<!-- Creator: CorelDRAW X6 -->
<svg xmlns="http://www.w3.org/2000/svg" xml:space="preserve" width="300mm" height="600mm" version="1.1" style="shape-rendering:geometricPrecision; text-rendering:geometricPrecision; image-rendering:optimizeQuality; fill-rule:evenodd; clip-rule:evenodd"
viewBox="0 0 30000 60000"
 xmlns:xlink="http://www.w3.org/1999/xlink">
 <defs>
  <style type="text/css">
   <![CDATA[
    .str0 {stroke:black;stroke-width:52.92;stroke-linecap:round;stroke-linejoin:round}
    .fil0 {fill:none;fill-rule:nonzero}
   ]]>
  </style>
 </defs>
 <g id="Layer_x0020_1">
  <metadata id="CorelCorpID_0Corel-Layer"/>
  <g id="_876196064">
   <path class="fil0 str0" d="M19896 13532c761,21 1494,144 2204,348 461,133 903,344 1335,559 344,171 326,277 25,503 -866,651 -1816,1007 -2915,883 -41,-5 -83,8 -162,16 333,292 693,527 941,848 244,316 527,644 574,1078 -1251,453 -3930,433 -5268,-1041 -21,39 -54,73 -56,108 -116,2708 -228,5415 -344,8123 -102,2380 -191,14106 -11,16490 60,793 87,1595 -52,2390 -59,338 -143,508 -315,479 -252,-42 -286,-268 -306,-460 -41,-396 -50,-796 -72,-1194 -29,-526 -69,-1053 -86,-1580 -26,-812 -60,-1626 -46,-2438 17,-1013 34,-11372 68,-12384 48,-1454 85,-2909 127,-4363 21,-727 68,-1455 61,-2182 -13,-1396 84,-2796 -83,-4189 -17,-139 -38,-278 -55,-399 -424,-71 -818,-120 -1204,-206 -840,-188 -1496,-699 -2081,-1290 -218,-221 -371,-550 -450,-856 -217,-840 -228,-1697 6,-2538 67,-240 193,-479 345,-676 490,-635 1119,-1049 1893,-1324 1246,-444 2513,-482 3799,-397 809,53 1507,372 2097,950 466,457 856,933 1035,1585 142,519 127,1016 -15,1515 -178,627 -517,1163 -991,1641z"/>
   <path class="fil0 str0" d="M14445 11435c21,42 24,57 33,66 545,493 1595,654 2249,346 269,-127 496,-539 422,-769 -58,-179 -194,-266 -364,-328 -674,-244 -1844,90 -2340,684z"/>
   <path class="fil0 str0" d="M19485 15971c-689,-523 -2230,-801 -2911,-495 731,250 1421,466 2095,725 357,137 589,22 816,-230z"/>
   <path class="fil0 str0" d="M20036 10692c-178,-86 -293,-184 -413,-191 -310,-19 -625,-22 -932,17 -204,25 -406,116 -591,212 -79,41 -151,168 -158,262 -13,158 128,209 261,224 639,70 1244,7 1835,-523z"/>
   <path class="fil0 str0" d="M20239 10099c-355,-644 -879,-1042 -1540,-1353 156,473 26,883 -136,1259 560,31 1093,61 1676,94z"/>
   <path class="fil0 str0" d="M18912 11724c182,210 342,371 474,552 129,177 231,374 348,567 390,-450 703,-1288 647,-1752 -376,459 -943,442 -1470,633z"/>
   <path class="fil0 str0" d="M17864 11772c-158,132 -205,249 -89,391 214,264 422,534 646,789 72,81 181,140 284,181 155,62 336,59 416,-97 44,-86 4,-250 -52,-346 -272,-462 -708,-718 -1205,-918z"/>
   <path class="fil0 str0" d="M14693 12470c-567,-306 -702,-288 -1057,120 -111,128 -211,270 -292,419 -88,161 -149,336 -35,563 676,-96 942,-663 1384,-1102z"/>
   <path class="fil0 str0" d="M15938 12690c-195,-12 -359,-23 -568,-36 -120,355 -258,683 -337,1025 -72,310 135,458 428,318 106,-51 202,-156 262,-260 174,-303 238,-636 216,-1047z"/>
   <path class="fil0 str0" d="M14560 10387c-101,-412 -183,-789 -552,-999 -84,-48 -244,-68 -308,-21 -85,63 -169,217 -151,313 69,362 202,702 543,926 150,-70 288,-134 469,-219z"/>
   <path class="fil0 str0" d="M17242 9030c-187,-257 -542,-223 -698,39 -160,269 -109,551 -19,822 30,91 126,204 208,220 85,17 247,-47 278,-119 112,-254 189,-524 265,-792 17,-59 -27,-135 -35,-171z"/>
   <path class="fil0 str0" d="M20774 14838c-12,26 -23,52 -35,78 165,151 322,314 500,448 81,61 208,101 308,91 452,-45 859,-207 1275,-550 -735,-24 -1392,-46 -2049,-67z"/>
   <path class="fil0 str0" d="M18464 16490c-17,29 -34,58 -52,86 224,339 477,657 808,901 226,167 494,152 831,160 -182,-255 -314,-450 -458,-636 -58,-75 -131,-155 -215,-188 -301,-118 -609,-217 -914,-323z"/>
   <path class="fil0 str0" d="M13255 10691c-113,-444 -221,-874 -325,-1284 -441,357 -642,721 -680,1275 334,3 668,6 1006,9z"/>
   <path class="fil0 str0" d="M17357 14814c654,252 2065,495 2395,459 -98,-103 -203,-184 -270,-289 -161,-255 -393,-288 -665,-272 -327,20 -655,4 -983,20 -160,8 -318,53 -477,81z"/>
   <path class="fil0 str0" d="M13171 12221c-363,-48 -718,-95 -1074,-142 -29,522 100,897 375,1171 228,-336 461,-678 699,-1029z"/>
   <path class="fil0 str0" d="M16822 14034c409,-122 402,-441 457,-704 55,-263 -22,-515 -207,-713 -111,-119 -292,-70 -325,105 -54,278 -86,565 -82,847 2,152 99,302 158,465z"/>
   <path class="fil0 str0" d="M18725 14360c379,16 761,10 1136,55 388,46 605,-179 916,-460 -785,-61 -1462,-67 -2053,406z"/>
   <path class="fil0 str0" d="M12205 11146c30,379 319,392 532,445 342,85 696,107 1009,-212 -505,-302 -986,-477 -1541,-232z"/>
   <path class="fil0 str0" d="M17566 10434c546,-195 616,-662 781,-1055 58,-138 115,-301 -101,-424 -592,297 -633,855 -680,1479z"/>
   <path class="fil0 str0" d="M15045 8971c-63,366 43,842 220,1071 114,147 232,130 360,30 52,-802 -75,-1053 -580,-1101z"/>
   <path class="fil0 str0" d="M17871 13282c-48,234 -102,501 -156,764 239,-74 525,-147 765,-359 -239,-160 -451,-300 -608,-406z"/>
   <path class="fil0 str0" d="M20458 16451c-491,-368 -602,-369 -936,-15 486,326 581,327 936,15z"/>
   <path class="fil0 str0" d="M13632 14068c331,82 585,146 866,215 -26,-265 -46,-466 -67,-683 -265,155 -493,289 -799,468z"/>
   <path class="fil0 str0" d="M15559 8486c142,199 246,344 359,502 147,-176 289,-347 477,-572 -294,25 -538,45 -836,70z"/>
   <path class="fil0 str0" d="M19815 14759c442,638 600,746 956,644 -331,-191 -442,-643 -956,-644z"/>
   <path class="fil0 str0" d="M16635 15911c157,381 415,664 756,869 -266,-281 -307,-757 -756,-869z"/>
   <path class="fil0 str0" d="M16149 13784c-158,251 -277,440 -433,688 265,-10 453,-17 666,-26 -78,-221 -142,-403 -233,-662z"/>
   <path class="fil0 str0" d="M21686 14174c-455,-151 -530,-122 -829,285 342,142 549,-92 829,-285z"/>
   <path class="fil0 str0" d="M18266 17189c19,-15 39,-29 58,-44 -148,-267 -288,-539 -449,-798 -69,-110 -189,-169 -377,-62 263,310 516,607 768,904z"/>
   <path class="fil0 str0" d="M17603 8839c202,-98 371,-180 541,-262l-8 -80c-254,-22 -508,-44 -828,-71 123,171 199,279 295,412z"/>
   <path class="fil0 str0" d="M21870 14546c341,0 622,-1 971,-1 -549,-346 -599,-347 -971,1z"/>
   <path class="fil0 str0" d="M20953 17420c-219,-92 -438,-184 -657,-276 277,449 277,449 657,276z"/>
   <path class="fil0 str0" d="M20573 16878c210,93 382,168 554,244 20,-30 40,-59 60,-89 -119,-119 -238,-238 -365,-364 -94,79 -154,130 -249,209z"/>
   <path class="fil0 str0" d="M14147 8676c108,112 182,188 282,291 47,-130 82,-228 133,-368 -156,29 -260,48 -415,77z"/>
  </g>
  <g id="_878827888">
   <path class="fil0 str0" d="M10104 46468c-761,-21 -1494,-144 -2204,-348 -461,-133 -903,-344 -1335,-559 -344,-171 -326,-277 -25,-503 866,-651 1816,-1007 2915,-883 41,5 83,-8 162,-16 -333,-292 -693,-527 -941,-848 -244,-316 -527,-644 -574,-1078 1251,-453 3930,-433 5268,1041 21,-39 54,-73 56,-108 116,-2708 228,-5415 344,-8123 102,-2380 191,-14106 11,-16490 -60,-793 -87,-1595 52,-2390 59,-338 143,-508 315,-479 252,42 286,268 306,460 41,396 50,796 72,1194 29,526 69,1053 86,1580 26,812 60,1626 46,2438 -17,1013 -34,11372 -68,12384 -48,1454 -85,2909 -127,4363 -21,727 -68,1455 -61,2182 13,1396 -84,2796 83,4189 17,139 38,278 55,399 424,71 818,120 1204,206 840,188 1496,699 2081,1290 218,221 371,550 450,856 217,840 228,1697 -6,2538 -67,240 -193,479 -345,676 -490,635 -1119,1049 -1893,1324 -1246,444 -2513,482 -3799,397 -809,-53 -1507,-372 -2097,-950 -466,-457 -856,-933 -1035,-1585 -142,-519 -127,-1016 15,-1515 178,-627 517,-1163 991,-1641z"/>
   <path class="fil0 str0" d="M15555 48565c-21,-42 -24,-57 -33,-66 -545,-493 -1595,-654 -2249,-346 -269,127 -496,539 -422,769 58,179 194,266 364,328 674,244 1844,-90 2340,-684z"/>
   <path class="fil0 str0" d="M10515 44029c689,523 2230,801 2911,495 -731,-250 -1421,-466 -2095,-725 -357,-137 -589,-22 -816,230z"/>
   <path class="fil0 str0" d="M9964 49308c178,86 293,184 413,191 310,19 625,22 932,-17 204,-25 406,-116 591,-212 79,-41 151,-168 158,-262 13,-158 -128,-209 -261,-224 -639,-70 -1244,-7 -1835,523z"/>
   <path class="fil0 str0" d="M9761 49901c355,644 879,1042 1540,1353 -156,-473 -26,-883 136,-1259 -560,-31 -1093,-61 -1676,-94z"/>
   <path class="fil0 str0" d="M11088 48276c-182,-210 -342,-371 -474,-552 -129,-177 -231,-374 -348,-567 -390,450 -703,1288 -647,1752 376,-459 943,-442 1470,-633z"/>
   <path class="fil0 str0" d="M12136 48228c158,-132 205,-249 89,-391 -214,-264 -422,-534 -646,-789 -72,-81 -181,-140 -284,-181 -155,-62 -336,-59 -416,97 -44,86 -4,250 52,346 272,462 708,718 1205,918z"/>
   <path class="fil0 str0" d="M15307 47530c567,306 702,288 1057,-120 111,-128 211,-270 292,-419 88,-161 149,-336 35,-563 -676,96 -942,663 -1384,1102z"/>
   <path class="fil0 str0" d="M14062 47310c195,12 359,23 568,36 120,-355 258,-683 337,-1025 72,-310 -135,-458 -428,-318 -106,51 -202,156 -262,260 -174,303 -238,636 -216,1047z"/>
   <path class="fil0 str0" d="M15440 49613c101,412 183,789 552,999 84,48 244,68 308,21 85,-63 169,-217 151,-313 -69,-362 -202,-702 -542,-926 -150,70 -288,134 -469,219z"/>
   <path class="fil0 str0" d="M12758 50970c187,257 542,223 698,-39 160,-269 109,-551 19,-822 -30,-91 -126,-204 -208,-220 -85,-17 -247,47 -278,119 -112,254 -189,524 -265,792 -17,59 27,135 35,171z"/>
   <path class="fil0 str0" d="M9226 45162c12,-26 23,-52 35,-78 -165,-151 -322,-314 -500,-448 -81,-61 -208,-101 -308,-91 -452,45 -859,207 -1275,550 735,24 1392,46 2049,67z"/>
   <path class="fil0 str0" d="M11536 43510c17,-29 34,-58 52,-86 -224,-339 -477,-657 -808,-901 -226,-167 -494,-152 -831,-160 182,255 314,450 458,636 58,75 131,155 215,188 301,118 609,217 914,323z"/>
   <path class="fil0 str0" d="M16745 49309c113,444 221,874 325,1284 441,-357 642,-721 680,-1275 -334,-3 -668,-6 -1006,-9z"/>
   <path class="fil0 str0" d="M12643 45186c-654,-252 -2065,-495 -2395,-459 98,103 203,184 270,289 161,255 393,288 665,272 327,-20 655,-4 983,-20 160,-8 318,-53 477,-81z"/>
   <path class="fil0 str0" d="M16829 47779c363,48 718,95 1074,142 29,-522 -100,-897 -375,-1171 -228,336 -461,678 -699,1029z"/>
   <path class="fil0 str0" d="M13178 45966c-409,122 -402,441 -457,704 -55,263 22,515 207,713 111,119 292,70 325,-105 54,-278 86,-565 82,-847 -2,-152 -99,-302 -158,-465z"/>
   <path class="fil0 str0" d="M11275 45640c-379,-16 -761,-10 -1136,-55 -388,-46 -605,179 -916,460 785,61 1462,67 2053,-406z"/>
   <path class="fil0 str0" d="M17795 48854c-30,-379 -319,-392 -532,-445 -342,-85 -696,-107 -1009,212 505,302 986,477 1541,232z"/>
   <path class="fil0 str0" d="M12434 49566c-546,195 -616,662 -781,1055 -58,138 -115,301 101,424 592,-297 633,-855 680,-1479z"/>
   <path class="fil0 str0" d="M14955 51029c63,-366 -43,-842 -220,-1071 -114,-147 -232,-130 -360,-30 -52,802 75,1053 580,1101z"/>
   <path class="fil0 str0" d="M12129 46718c48,-234 102,-501 156,-764 -239,74 -525,147 -765,359 239,160 451,300 608,406z"/>
   <path class="fil0 str0" d="M9542 43549c491,368 602,369 936,15 -486,-326 -581,-327 -936,-15z"/>
   <path class="fil0 str0" d="M16368 45932c-331,-82 -585,-146 -866,-215 26,265 46,466 67,683 265,-155 493,-289 799,-468z"/>
   <path class="fil0 str0" d="M14441 51514c-142,-199 -246,-344 -359,-502 -147,176 -289,347 -477,572 294,-25 538,-45 836,-70z"/>
   <path class="fil0 str0" d="M10185 45241c-442,-638 -600,-746 -956,-644 331,191 442,643 956,644z"/>
   <path class="fil0 str0" d="M13365 44089c-157,-381 -415,-664 -756,-869 266,281 307,757 756,869z"/>
   <path class="fil0 str0" d="M13851 46216c158,-251 277,-440 433,-688 -265,10 -453,17 -666,26 78,221 142,403 233,662z"/>
   <path class="fil0 str0" d="M8314 45826c455,151 530,122 829,-285 -342,-142 -549,92 -829,285z"/>
   <path class="fil0 str0" d="M11734 42811c-19,15 -39,29 -58,44 148,267 288,539 449,798 69,110 189,169 377,62 -263,-310 -516,-607 -768,-904z"/>
   <path class="fil0 str0" d="M12397 51161c-202,98 -371,180 -541,262l8 80c254,22 508,44 828,71 -123,-171 -199,-279 -295,-412z"/>
   <path class="fil0 str0" d="M8130 45454c-341,0 -622,1 -971,1 549,346 599,347 971,-1z"/>
   <path class="fil0 str0" d="M9047 42580c219,92 438,184 657,276 -277,-449 -277,-449 -657,-276z"/>
   <path class="fil0 str0" d="M9427 43123c-210,-93 -382,-168 -554,-244 -20,30 -40,59 -60,89 119,119 238,238 365,364 94,-79 154,-130 249,-209z"/>
   <path class="fil0 str0" d="M15853 51324c-108,-112 -182,-188 -282,-291 -47,130 -82,228 -133,368 156,-29 260,-48 415,-77z"/>
  </g>
 </g>
</svg>
