  0
SECTION
  2
HEADER
  9
$ACADVER
  1
AC1021
  9
$ACADMAINTVER
 70
    25
  9
$DWGCODEPAGE
  3
ANSI_1252
  9
$INSBASE
 10
0.0
 20
0.0
 30
0.0
  9
$EXTMIN
 10
-8.71597
 20
-22.22157
 30
0.0
  9
$EXTMAX
 10
8.71597
 20
22.22157
 30
0.0
  9
$LIMMIN
 10
0.0
 20
0.0
  9
$LIMMAX
 10
12.0
 20
9.0
  9
$ORTHOMODE
 70
     0
  9
$REGENMODE
 70
     1
  9
$FILLMODE
 70
     1
  9
$QTEXTMODE
 70
     0
  9
$MIRRTEXT
 70
     1
  9
$LTSCALE
 40
1.0
  9
$ATTMODE
 70
     1
  9
$TEXTSIZE
 40
0.2
  9
$TRACEWID
 40
0.05
  9
$TEXTSTYLE
  7
Standard
  9
$CLAYER
  8
0
  9
$CELTYPE
  6
ByLayer
  9
$CECOLOR
 62
   256
  9
$CELTSCALE
 40
1.0
  9
$DISPSILH
 70
     0
  9
$DIMSCALE
 40
1.0
  9
$DIMASZ
 40
0.18
  9
$DIMEXO
 40
0.0625
  9
$DIMDLI
 40
0.38
  9
$DIMRND
 40
0.0
  9
$DIMDLE
 40
0.0
  9
$DIMEXE
 40
0.18
  9
$DIMTP
 40
0.0
  9
$DIMTM
 40
0.0
  9
$DIMTXT
 40
0.18
  9
$DIMCEN
 40
0.09
  9
$DIMTSZ
 40
0.0
  9
$DIMTOL
 70
     0
  9
$DIMLIM
 70
     0
  9
$DIMTIH
 70
     1
  9
$DIMTOH
 70
     1
  9
$DIMSE1
 70
     0
  9
$DIMSE2
 70
     0
  9
$DIMTAD
 70
     0
  9
$DIMZIN
 70
     0
  9
$DIMBLK
  1

  9
$DIMASO
 70
     1
  9
$DIMSHO
 70
     1
  9
$DIMPOST
  1

  9
$DIMAPOST
  1

  9
$DIMALT
 70
     0
  9
$DIMALTD
 70
     2
  9
$DIMALTF
 40
25.4
  9
$DIMLFAC
 40
1.0
  9
$DIMTOFL
 70
     0
  9
$DIMTVP
 40
0.0
  9
$DIMTIX
 70
     0
  9
$DIMSOXD
 70
     0
  9
$DIMSAH
 70
     0
  9
$DIMBLK1
  1

  9
$DIMBLK2
  1

  9
$DIMSTYLE
  2
Standard
  9
$DIMCLRD
 70
     0
  9
$DIMCLRE
 70
     0
  9
$DIMCLRT
 70
     0
  9
$DIMTFAC
 40
1.0
  9
$DIMGAP
 40
0.09
  9
$DIMJUST
 70
     0
  9
$DIMSD1
 70
     0
  9
$DIMSD2
 70
     0
  9
$DIMTOLJ
 70
     1
  9
$DIMTZIN
 70
     0
  9
$DIMALTZ
 70
     0
  9
$DIMALTTZ
 70
     0
  9
$DIMUPT
 70
     0
  9
$DIMDEC
 70
     4
  9
$DIMTDEC
 70
     4
  9
$DIMALTU
 70
     2
  9
$DIMALTTD
 70
     2
  9
$DIMTXSTY
  7
Standard
  9
$DIMAUNIT
 70
     0
  9
$DIMADEC
 70
     0
  9
$DIMALTRND
 40
0.0
  9
$DIMAZIN
 70
     0
  9
$DIMDSEP
 70
    46
  9
$DIMATFIT
 70
     3
  9
$DIMFRAC
 70
     0
  9
$DIMLDRBLK
  1

  9
$DIMLUNIT
 70
     2
  9
$DIMLWD
 70
    -2
  9
$DIMLWE
 70
    -2
  9
$DIMTMOVE
 70
     0
  9
$DIMFXL
 40
1.0
  9
$DIMFXLON
 70
     0
  9
$DIMJOGANG
 40
0.7853981633974483
  9
$DIMTFILL
 70
     0
  9
$DIMTFILLCLR
 70
     0
  9
$DIMARCSYM
 70
     0
  9
$DIMLTYPE
  6

  9
$DIMLTEX1
  6

  9
$DIMLTEX2
  6

  9
$LUNITS
 70
     2
  9
$LUPREC
 70
     4
  9
$SKETCHINC
 40
0.1
  9
$FILLETRAD
 40
0.5
  9
$AUNITS
 70
     0
  9
$AUPREC
 70
     0
  9
$MENU
  1
.
  9
$ELEVATION
 40
0.0
  9
$PELEVATION
 40
0.0
  9
$THICKNESS
 40
0.0
  9
$LIMCHECK
 70
     0
  9
$CHAMFERA
 40
0.5
  9
$CHAMFERB
 40
0.5
  9
$CHAMFERC
 40
1.0
  9
$CHAMFERD
 40
0.0
  9
$SKPOLY
 70
     0
  9
$TDCREATE
 40
2460266.550337269
  9
$TDUCREATE
 40
2460266.550337269
  9
$TDUPDATE
 40
2460266.55033735
  9
$TDUUPDATE
 40
2460266.55033735
  9
$TDINDWG
 40
0.0000000116
  9
$TDUSRTIMER
 40
0.0000000116
  9
$USRTIMER
 70
     1
  9
$ANGBASE
 50
0.0
  9
$ANGDIR
 70
     0
  9
$PDMODE
 70
     0
  9
$PDSIZE
 40
0.0
  9
$PLINEWID
 40
0.0
  9
$SPLFRAME
 70
     0
  9
$SPLINETYPE
 70
     6
  9
$SPLINESEGS
 70
     8
  9
$HANDSEED
  5
A9
  9
$SURFTAB1
 70
     6
  9
$SURFTAB2
 70
     6
  9
$SURFTYPE
 70
     6
  9
$SURFU
 70
     6
  9
$SURFV
 70
     6
  9
$UCSBASE
  2

  9
$UCSNAME
  2

  9
$UCSORG
 10
0.0
 20
0.0
 30
0.0
  9
$UCSXDIR
 10
1.0
 20
0.0
 30
0.0
  9
$UCSYDIR
 10
0.0
 20
1.0
 30
0.0
  9
$UCSORTHOREF
  2

  9
$UCSORTHOVIEW
 70
     0
  9
$UCSORGTOP
 10
0.0
 20
0.0
 30
0.0
  9
$UCSORGBOTTOM
 10
0.0
 20
0.0
 30
0.0
  9
$UCSORGLEFT
 10
0.0
 20
0.0
 30
0.0
  9
$UCSORGRIGHT
 10
0.0
 20
0.0
 30
0.0
  9
$UCSORGFRONT
 10
0.0
 20
0.0
 30
0.0
  9
$UCSORGBACK
 10
0.0
 20
0.0
 30
0.0
  9
$PUCSBASE
  2

  9
$PUCSNAME
  2

  9
$PUCSORG
 10
0.0
 20
0.0
 30
0.0
  9
$PUCSXDIR
 10
1.0
 20
0.0
 30
0.0
  9
$PUCSYDIR
 10
0.0
 20
1.0
 30
0.0
  9
$PUCSORTHOREF
  2

  9
$PUCSORTHOVIEW
 70
     0
  9
$PUCSORGTOP
 10
0.0
 20
0.0
 30
0.0
  9
$PUCSORGBOTTOM
 10
0.0
 20
0.0
 30
0.0
  9
$PUCSORGLEFT
 10
0.0
 20
0.0
 30
0.0
  9
$PUCSORGRIGHT
 10
0.0
 20
0.0
 30
0.0
  9
$PUCSORGFRONT
 10
0.0
 20
0.0
 30
0.0
  9
$PUCSORGBACK
 10
0.0
 20
0.0
 30
0.0
  9
$USERI1
 70
     0
  9
$USERI2
 70
     0
  9
$USERI3
 70
     0
  9
$USERI4
 70
     0
  9
$USERI5
 70
     0
  9
$USERR1
 40
0.0
  9
$USERR2
 40
0.0
  9
$USERR3
 40
0.0
  9
$USERR4
 40
0.0
  9
$USERR5
 40
0.0
  9
$WORLDVIEW
 70
     1
  9
$SHADEDGE
 70
     3
  9
$SHADEDIF
 70
    70
  9
$TILEMODE
 70
     1
  9
$MAXACTVP
 70
    64
  9
$PINSBASE
 10
0.0
 20
0.0
 30
0.0
  9
$PLIMCHECK
 70
     0
  9
$PEXTMIN
 10
1.000000000000000E+20
 20
1.000000000000000E+20
 30
1.000000000000000E+20
  9
$PEXTMAX
 10
-1.000000000000000E+20
 20
-1.000000000000000E+20
 30
-1.000000000000000E+20
  9
$PLIMMIN
 10
0.0
 20
0.0
  9
$PLIMMAX
 10
12.0
 20
9.0
  9
$UNITMODE
 70
     0
  9
$VISRETAIN
 70
     1
  9
$PLINEGEN
 70
     0
  9
$PSLTSCALE
 70
     1
  9
$TREEDEPTH
 70
  3020
  9
$CMLSTYLE
  2
Standard
  9
$CMLJUST
 70
     0
  9
$CMLSCALE
 40
1.0
  9
$PROXYGRAPHICS
 70
     1
  9
$MEASUREMENT
 70
     0
  9
$CELWEIGHT
370
    -1
  9
$ENDCAPS
280
     0
  9
$JOINSTYLE
280
     0
  9
$LWDISPLAY
290
     0
  9
$INSUNITS
 70
     5
  9
$HYPERLINKBASE
  1

  9
$STYLESHEET
  1

  9
$XEDIT
290
     1
  9
$CEPSNTYPE
380
     0
  9
$PSTYLEMODE
290
     1
  9
$FINGERPRINTGUID
  2
{7BE63675-9038-48FF-A012-7D4DDA58319E}
  9
$VERSIONGUID
  2
{FAEB1C32-E019-11D5-929B-00C0DF256EC4}
  9
$EXTNAMES
290
     1
  9
$PSVPSCALE
 40
0.0
  9
$OLESTARTUP
290
     0
  9
$SORTENTS
280
   127
  9
$INDEXCTL
280
     0
  9
$HIDETEXT
280
     1
  9
$XCLIPFRAME
290
     0
  9
$HALOGAP
280
     0
  9
$OBSCOLOR
 70
   257
  9
$OBSLTYPE
280
     0
  9
$INTERSECTIONDISPLAY
280
     0
  9
$INTERSECTIONCOLOR
 70
   257
  9
$DIMASSOC
280
     2
  9
$PROJECTNAME
  1

  9
$CAMERADISPLAY
290
     0
  9
$LENSLENGTH
 40
50.0
  9
$CAMERAHEIGHT
 40
0.0
  9
$STEPSPERSEC
 40
2.0
  9
$STEPSIZE
 40
6.0
  9
$3DDWFPREC
 40
2.0
  9
$PSOLWIDTH
 40
0.25
  9
$PSOLHEIGHT
 40
4.0
  9
$LOFTANG1
 40
1.570796326794897
  9
$LOFTANG2
 40
1.570796326794897
  9
$LOFTMAG1
 40
0.0
  9
$LOFTMAG2
 40
0.0
  9
$LOFTPARAM
 70
     7
  9
$LOFTNORMALS
280
     1
  9
$LATITUDE
 40
37.795
  9
$LONGITUDE
 40
-122.394
  9
$NORTHDIRECTION
 40
0.0
  9
$TIMEZONE
 70
 -8000
  9
$LIGHTGLYPHDISPLAY
280
     1
  9
$TILEMODELIGHTSYNCH
280
     1
  9
$SOLIDHIST
280
     1
  9
$SHOWHIST
280
     1
  9
$DWFFRAME
280
     2
  9
$DGNFRAME
280
     2
  9
$REALWORLDSCALE
290
     1
  9
$INTERFERECOLOR
 62
   256
  9
$CSHADOW
280
     0
  9
$SHADOWPLANELOCATION
 40
0.0
  0
ENDSEC
  0
SECTION
  2
CLASSES
  0
CLASS
  1
ACDBDICTIONARYWDFLT
  2
AcDbDictionaryWithDefault
  3
ObjectDBX Classes
 90
        0
 91
        4
280
     0
281
     0
  0
CLASS
  1
VISUALSTYLE
  2
AcDbVisualStyle
  3
ObjectDBX Classes
 90
     4095
 91
        4
280
     0
281
     0
  0
CLASS
  1
MATERIAL
  2
AcDbMaterial
  3
ObjectDBX Classes
 90
     1153
 91
        4
280
     0
281
     0
  0
ENDSEC
  0
SECTION
  2
TABLES
  0
TABLE
  2
VPORT
  5
8
330
0
100
AcDbSymbolTable
 70
     1
  0
VPORT
  5
29
330
8
100
AcDbSymbolTableRecord
100
AcDbViewportTableRecord
  2
*Active
 70
     0
 10
0.0
 20
0.0
 11
1.0
 21
1.0
 12
10.42990654205607
 22
4.5
 13
0.0
 23
0.0
 14
0.5
 24
0.5
 15
0.5
 25
0.5
 16
0.0
 26
0.0
 36
1.0
 17
0.0
 27
0.0
 37
0.0
 40
9.0
 41
1.972972972850329
 42
50.0
 43
0.0
 44
0.0
 50
0.0
 51
0.0
 71
     0
 72
   100
 73
     1
 74
     3
 75
     0
 76
     0
 77
     0
 78
     0
281
     0
 65
     1
110
0.0
120
0.0
130
0.0
111
1.0
121
0.0
131
0.0
112
0.0
122
1.0
132
0.0
 79
     0
146
0.0
 60
     3
 61
     5
292
     1
282
     1
141
0.0
142
0.0
 63
   250
  0
ENDTAB
  0
TABLE
  2
LTYPE
  5
5
330
0
100
AcDbSymbolTable
 70
     1
  0
LTYPE
  5
14
330
5
100
AcDbSymbolTableRecord
100
AcDbLinetypeTableRecord
  2
ByBlock
 70
     0
  3

 72
    65
 73
     0
 40
0.0
  0
LTYPE
  5
15
330
5
100
AcDbSymbolTableRecord
100
AcDbLinetypeTableRecord
  2
ByLayer
 70
     0
  3

 72
    65
 73
     0
 40
0.0
  0
LTYPE
  5
16
330
5
100
AcDbSymbolTableRecord
100
AcDbLinetypeTableRecord
  2
Continuous
 70
     0
  3
Solid line
 72
    65
 73
     0
 40
0.0
  0
ENDTAB
  0
TABLE
  2
LAYER
  5
2
330
0
100
AcDbSymbolTable
 70
     2
  0
LAYER
  5
10
330
2
100
AcDbSymbolTableRecord
100
AcDbLayerTableRecord
  2
0
 70
     0
 62
     7
  6
Continuous
370
    -3
390
F
347
3E
  0
LAYER
  5
40
330
2
100
AcDbSymbolTableRecord
100
AcDbLayerTableRecord
  2
Layer 1
 70
     0
 62
     7
  6
Continuous
370
    -3
390
F
347
3E
  0
ENDTAB
  0
TABLE
  2
STYLE
  5
3
330
0
100
AcDbSymbolTable
 70
     1
  0
STYLE
  5
11
330
3
100
AcDbSymbolTableRecord
100
AcDbTextStyleTableRecord
  2
Standard
 70
     0
 40
0.0
 41
1.0
 50
0.0
 71
     0
 42
0.2
  3
txt
  4

  0
ENDTAB
  0
TABLE
  2
VIEW
  5
6
330
0
100
AcDbSymbolTable
 70
     0
  0
ENDTAB
  0
TABLE
  2
UCS
  5
7
330
0
100
AcDbSymbolTable
 70
     0
  0
ENDTAB
  0
TABLE
  2
APPID
  5
9
330
0
100
AcDbSymbolTable
 70
     2
  0
APPID
  5
12
330
9
100
AcDbSymbolTableRecord
100
AcDbRegAppTableRecord
  2
ACAD
 70
     0
  0
APPID
  5
3F
330
9
100
AcDbSymbolTableRecord
100
AcDbRegAppTableRecord
  2
ODA
 70
     0
  0
ENDTAB
  0
TABLE
  2
DIMSTYLE
  5
A
330
0
100
AcDbSymbolTable
 70
     1
100
AcDbDimStyleTable
  0
DIMSTYLE
105
27
330
A
100
AcDbSymbolTableRecord
100
AcDbDimStyleTableRecord
  2
Standard
 70
     0
178
     0
340
11
  0
ENDTAB
  0
TABLE
  2
BLOCK_RECORD
  5
1
330
0
100
AcDbSymbolTable
 70
     1
  0
BLOCK_RECORD
  5
1F
330
1
100
AcDbSymbolTableRecord
100
AcDbBlockTableRecord
  2
*Model_Space
340
22
 70
     0
280
     1
281
     0
  0
BLOCK_RECORD
  5
1B
330
1
100
AcDbSymbolTableRecord
100
AcDbBlockTableRecord
  2
*Paper_Space
340
1E
 70
     0
280
     1
281
     0
  0
BLOCK_RECORD
  5
23
330
1
100
AcDbSymbolTableRecord
100
AcDbBlockTableRecord
  2
*Paper_Space0
340
26
 70
     0
280
     1
281
     0
  0
ENDTAB
  0
ENDSEC
  0
SECTION
  2
BLOCKS
  0
BLOCK
  5
20
330
1F
100
AcDbEntity
  8
0
100
AcDbBlockBegin
  2
*Model_Space
 70
     0
 10
0.0
 20
0.0
 30
0.0
  3
*Model_Space
  1

  0
ENDBLK
  5
21
330
1F
100
AcDbEntity
  8
0
100
AcDbBlockEnd
  0
BLOCK
  5
1C
330
1B
100
AcDbEntity
 67
     1
  8
0
100
AcDbBlockBegin
  2
*Paper_Space
 70
     0
 10
0.0
 20
0.0
 30
0.0
  3
*Paper_Space
  1

  0
ENDBLK
  5
1D
330
1B
100
AcDbEntity
 67
     1
  8
0
100
AcDbBlockEnd
  0
BLOCK
  5
24
330
23
100
AcDbEntity
  8
0
100
AcDbBlockBegin
  2
*Paper_Space0
 70
     0
 10
0.0
 20
0.0
 30
0.0
  3
*Paper_Space0
  1

  0
ENDBLK
  5
25
330
23
100
AcDbEntity
  8
0
100
AcDbBlockEnd
  0
ENDSEC
  0
SECTION
  2
ENTITIES
  0
SPLINE
  5
41
330
1F
100
AcDbEntity
  8
Layer 1
370
    53
100
AcDbSpline
210
0.0
220
0.0
230
1.0
 70
    11
 71
     3
 72
   136
 73
   132
 74
     0
 42
0.0000000001
 43
0.0000000001
 12
1.0
 22
0.0
 32
0.0
 13
1.0
 23
0.0
 33
0.0
 40
0.0
 40
0.0
 40
0.0
 40
0.0
 40
0.0294117647058824
 40
0.0294117647058824
 40
0.0294117647058824
 40
0.0294117647058824
 40
0.0588235294117647
 40
0.0588235294117647
 40
0.0588235294117647
 40
0.0588235294117647
 40
0.0882352941176471
 40
0.0882352941176471
 40
0.0882352941176471
 40
0.0882352941176471
 40
0.1176470588235294
 40
0.1176470588235294
 40
0.1176470588235294
 40
0.1176470588235294
 40
0.1470588235294118
 40
0.1470588235294118
 40
0.1470588235294118
 40
0.1470588235294118
 40
0.1764705882352941
 40
0.1764705882352941
 40
0.1764705882352941
 40
0.1764705882352941
 40
0.2058823529411765
 40
0.2058823529411765
 40
0.2058823529411765
 40
0.2058823529411765
 40
0.2352941176470588
 40
0.2352941176470588
 40
0.2352941176470588
 40
0.2352941176470588
 40
0.2647058823529412
 40
0.2647058823529412
 40
0.2647058823529412
 40
0.2647058823529412
 40
0.2941176470588235
 40
0.2941176470588235
 40
0.2941176470588235
 40
0.2941176470588235
 40
0.3235294117647059
 40
0.3235294117647059
 40
0.3235294117647059
 40
0.3235294117647059
 40
0.3529411764705883
 40
0.3529411764705883
 40
0.3529411764705883
 40
0.3529411764705883
 40
0.3823529411764706
 40
0.3823529411764706
 40
0.3823529411764706
 40
0.3823529411764706
 40
0.4117647058823529
 40
0.4117647058823529
 40
0.4117647058823529
 40
0.4117647058823529
 40
0.4411764705882353
 40
0.4411764705882353
 40
0.4411764705882353
 40
0.4411764705882353
 40
0.4705882352941176
 40
0.4705882352941176
 40
0.4705882352941176
 40
0.4705882352941176
 40
0.5
 40
0.5
 40
0.5
 40
0.5
 40
0.5294117647058824
 40
0.5294117647058824
 40
0.5294117647058824
 40
0.5294117647058824
 40
0.5588235294117647
 40
0.5588235294117647
 40
0.5588235294117647
 40
0.5588235294117647
 40
0.5882352941176471
 40
0.5882352941176471
 40
0.5882352941176471
 40
0.5882352941176471
 40
0.6176470588235294
 40
0.6176470588235294
 40
0.6176470588235294
 40
0.6176470588235294
 40
0.6470588235294118
 40
0.6470588235294118
 40
0.6470588235294118
 40
0.6470588235294118
 40
0.6764705882352942
 40
0.6764705882352942
 40
0.6764705882352942
 40
0.6764705882352942
 40
0.7058823529411765
 40
0.7058823529411765
 40
0.7058823529411765
 40
0.7058823529411765
 40
0.7352941176470589
 40
0.7352941176470589
 40
0.7352941176470589
 40
0.7352941176470589
 40
0.7647058823529411
 40
0.7647058823529411
 40
0.7647058823529411
 40
0.7647058823529411
 40
0.7941176470588235
 40
0.7941176470588235
 40
0.7941176470588235
 40
0.7941176470588235
 40
0.8235294117647058
 40
0.8235294117647058
 40
0.8235294117647058
 40
0.8235294117647058
 40
0.8529411764705882
 40
0.8529411764705882
 40
0.8529411764705882
 40
0.8529411764705882
 40
0.8823529411764706
 40
0.8823529411764706
 40
0.8823529411764706
 40
0.8823529411764706
 40
0.9117647058823529
 40
0.9117647058823529
 40
0.9117647058823529
 40
0.9117647058823529
 40
0.9411764705882353
 40
0.9411764705882353
 40
0.9411764705882353
 40
0.9411764705882353
 40
1.0
 40
1.0
 40
1.0
 40
1.0
 10
4.89627
 20
16.46782
 30
0.0
 10
5.65763
 20
16.44704
 30
0.0
 10
6.38989
 20
16.32431
 30
0.0
 10
7.10042
 20
16.11949
 30
0.0
 10
7.10042
 20
16.11949
 30
0.0
 10
7.56129
 20
15.98667
 30
0.0
 10
8.00375
 20
15.77521
 30
0.0
 10
8.43548
 20
15.56079
 30
0.0
 10
8.43548
 20
15.56079
 30
0.0
 10
8.77898
 20
15.39015
 30
0.0
 10
8.76102
 20
15.28383
 30
0.0
 10
8.46059
 20
15.05805
 30
0.0
 10
8.46059
 20
15.05805
 30
0.0
 10
7.59488
 20
14.40739
 30
0.0
 10
6.64467
 20
14.05101
 30
0.0
 10
5.54605
 20
14.17536
 30
0.0
 10
5.54605
 20
14.17536
 30
0.0
 10
5.50544
 20
14.17995
 30
0.0
 10
5.46297
 20
14.16757
 30
0.0
 10
5.38384
 20
14.15907
 30
0.0
 10
5.38384
 20
14.15907
 30
0.0
 10
5.71683
 20
13.86714
 30
0.0
 10
6.07719
 20
13.63247
 30
0.0
 10
6.32498
 20
13.31106
 30
0.0
 10
6.32498
 20
13.31106
 30
0.0
 10
6.56893
 20
12.99458
 30
0.0
 10
6.8515
 20
12.66699
 30
0.0
 10
6.8986
 20
12.23297
 30
0.0
 10
6.8986
 20
12.23297
 30
0.0
 10
5.64797
 20
11.78025
 30
0.0
 10
2.96823
 20
11.80025
 30
0.0
 10
1.63085
 20
13.27395
 30
0.0
 10
1.63085
 20
13.27395
 30
0.0
 10
1.61021
 20
13.23535
 30
0.0
 10
1.57652
 20
13.20113
 30
0.0
 10
1.57501
 20
13.16554
 30
0.0
 10
1.57501
 20
13.16554
 30
0.0
 10
1.45884
 20
10.4579
 30
0.0
 10
1.34676
 20
7.75012
 30
0.0
 10
1.23091
 20
5.04248
 30
0.0
 10
1.23091
 20
5.04248
 30
0.0
 10
1.1291
 20
2.66243
 30
0.0
 10
1.03981
 20
-9.06359
 30
0.0
 10
1.21965
 20
-11.44791
 30
0.0
 10
1.21965
 20
-11.44791
 30
0.0
 10
1.27941
 20
-12.24049
 30
0.0
 10
1.30633
 20
-13.04282
 30
0.0
 10
1.16804
 20
-13.83787
 30
0.0
 10
1.16804
 20
-13.83787
 30
0.0
 10
1.10927
 20
-14.17573
 30
0.0
 10
1.02552
 20
-14.34577
 30
0.0
 10
0.85298
 20
-14.31712
 30
0.0
 10
0.85298
 20
-14.31712
 30
0.0
 10
0.6012
 20
-14.27542
 30
0.0
 10
0.56687
 20
-14.04919
 30
0.0
 10
0.54698
 20
-13.85728
 30
0.0
 10
0.54698
 20
-13.85728
 30
0.0
 10
0.50591
 20
-13.461
 30
0.0
 10
0.49702
 20
-13.06137
 30
0.0
 10
0.47487
 20
-12.66312
 30
0.0
 10
0.47487
 20
-12.66312
 30
0.0
 10
0.44559
 20
-12.13664
 30
0.0
 10
0.40594
 20
-11.61047
 30
0.0
 10
0.38936
 20
-11.08356
 30
0.0
 10
0.38936
 20
-11.08356
 30
0.0
 10
0.36374
 20
-10.27115
 30
0.0
 10
0.32984
 20
-9.45782
 30
0.0
 10
0.3436
 20
-8.64562
 30
0.0
 10
0.3436
 20
-8.64562
 30
0.0
 10
0.36075
 20
-7.63311
 30
0.0
 10
0.37786
 20
2.72628
 30
0.0
 10
0.41158
 20
3.73865
 30
0.0
 10
0.41158
 20
3.73865
 30
0.0
 10
0.46002
 20
5.19287
 30
0.0
 10
0.49639
 20
6.64747
 30
0.0
 10
0.53865
 20
8.10187
 30
0.0
 10
0.53865
 20
8.10187
 30
0.0
 10
0.55978
 20
8.82919
 30
0.0
 10
0.60631
 20
9.55666
 30
0.0
 10
0.5994
 20
10.28366
 30
0.0
 10
0.5994
 20
10.28366
 30
0.0
 10
0.5861
 20
11.68006
 30
0.0
 10
0.68361
 20
13.07918
 30
0.0
 10
0.51607
 20
14.47247
 30
0.0
 10
0.51607
 20
14.47247
 30
0.0
 10
0.49935
 20
14.61154
 30
0.0
 10
0.47815
 20
14.75004
 30
0.0
 10
0.4615
 20
14.87118
 30
0.0
 10
0.4615
 20
14.87118
 30
0.0
 10
0.03732
 20
14.94259
 30
0.0
 10
-0.35688
 20
14.9913
 30
0.0
 10
-0.74271
 20
15.07745
 30
0.0
 10
-0.74271
 20
15.07745
 30
0.0
 10
-1.5825
 20
15.26502
 30
0.0
 10
-2.23919
 20
15.77683
 30
0.0
 10
-2.82322
 20
16.36763
 30
0.0
 10
-2.82322
 20
16.36763
 30
0.0
 10
-3.04155
 20
16.5884
 30
0.0
 10
-3.1943
 20
16.91758
 30
0.0
 10
-3.27343
 20
17.22403
 30
0.0
 10
-3.27343
 20
17.22403
 30
0.0
 10
-3.49032
 20
18.06389
 30
0.0
 10
-3.50157
 20
18.92054
 30
0.0
 10
-3.26701
 20
19.76199
 30
0.0
 10
-3.26701
 20
19.76199
 30
0.0
 10
-3.20016
 20
20.00177
 30
0.0
 10
-3.07443
 20
20.24053
 30
0.0
 10
-2.92182
 20
20.43819
 30
0.0
 10
-2.92182
 20
20.43819
 30
0.0
 10
-2.4317
 20
21.07312
 30
0.0
 10
-1.80238
 20
21.487
 30
0.0
 10
-1.0293
 20
21.76217
 30
0.0
 10
-1.0293
 20
21.76217
 30
0.0
 10
0.21678
 20
22.20575
 30
0.0
 10
1.48381
 20
22.24374
 30
0.0
 10
2.76958
 20
22.15897
 30
0.0
 10
2.76958
 20
22.15897
 30
0.0
 10
3.5785
 20
22.10567
 30
0.0
 10
4.27679
 20
21.78651
 30
0.0
 10
4.86685
 20
21.20873
 30
0.0
 10
4.86685
 20
21.20873
 30
0.0
 10
5.33318
 20
20.75206
 30
0.0
 10
5.72321
 20
20.27524
 30
0.0
 10
5.902
 20
19.62391
 30
0.0
 10
5.902
 20
19.62391
 30
0.0
 10
6.04449
 20
19.1048
 30
0.0
 10
6.02876
 20
18.60802
 30
0.0
 10
5.88722
 20
18.10884
 30
0.0
 10
5.88722
 20
18.10884
 30
0.0
 10
5.70949
 20
17.4823
 30
0.0
 10
5.37065
 20
16.94583
 30
0.0
 10
4.89627
 20
16.46782
 30
0.0
  0
SPLINE
  5
42
330
1F
100
AcDbEntity
  8
Layer 1
370
    53
100
AcDbSpline
210
0.0
220
0.0
230
1.0
 70
    11
 71
     3
 72
    24
 73
    20
 74
     0
 42
0.0000000001
 43
0.0000000001
 12
1.0
 22
0.0
 32
0.0
 13
1.0
 23
0.0
 33
0.0
 40
0.0
 40
0.0
 40
0.0
 40
0.0
 40
0.1666666666666667
 40
0.1666666666666667
 40
0.1666666666666667
 40
0.1666666666666667
 40
0.3333333333333333
 40
0.3333333333333333
 40
0.3333333333333333
 40
0.3333333333333333
 40
0.5
 40
0.5
 40
0.5
 40
0.5
 40
0.6666666666666666
 40
0.6666666666666666
 40
0.6666666666666666
 40
0.6666666666666666
 40
1.0
 40
1.0
 40
1.0
 40
1.0
 10
-0.55471
 20
18.56463
 30
0.0
 10
-0.53415
 20
18.523
 30
0.0
 10
-0.53101
 20
18.50737
 30
0.0
 10
-0.52148
 20
18.49876
 30
0.0
 10
-0.52148
 20
18.49876
 30
0.0
 10
0.02356
 20
18.00621
 30
0.0
 10
1.07382
 20
17.84485
 30
0.0
 10
1.72741
 20
18.15255
 30
0.0
 10
1.72741
 20
18.15255
 30
0.0
 10
1.99626
 20
18.27912
 30
0.0
 10
2.22369
 20
18.69124
 30
0.0
 10
2.14926
 20
18.92114
 30
0.0
 10
2.14926
 20
18.92114
 30
0.0
 10
2.09137
 20
19.09982
 30
0.0
 10
1.95498
 20
19.18724
 30
0.0
 10
1.78484
 20
19.24887
 30
0.0
 10
1.78484
 20
19.24887
 30
0.0
 10
1.11124
 20
19.49296
 30
0.0
 10
-0.05952
 20
19.15877
 30
0.0
 10
-0.55471
 20
18.56463
 30
0.0
  0
SPLINE
  5
43
330
1F
100
AcDbEntity
  8
Layer 1
370
    53
100
AcDbSpline
210
0.0
220
0.0
230
1.0
 70
    11
 71
     3
 72
    16
 73
    12
 74
     0
 42
0.0000000001
 43
0.0000000001
 12
1.0
 22
0.0
 32
0.0
 13
1.0
 23
0.0
 33
0.0
 40
0.0
 40
0.0
 40
0.0
 40
0.0
 40
0.25
 40
0.25
 40
0.25
 40
0.25
 40
0.5
 40
0.5
 40
0.5
 40
0.5
 40
1.0
 40
1.0
 40
1.0
 40
1.0
 10
4.48518
 20
14.02868
 30
0.0
 10
3.79624
 20
14.55206
 30
0.0
 10
2.25551
 20
14.82952
 30
0.0
 10
1.57465
 20
14.52352
 30
0.0
 10
1.57465
 20
14.52352
 30
0.0
 10
2.30519
 20
14.27351
 30
0.0
 10
2.9954
 20
14.05715
 30
0.0
 10
3.66938
 20
13.79853
 30
0.0
 10
3.66938
 20
13.79853
 30
0.0
 10
4.02614
 20
13.66161
 30
0.0
 10
4.25795
 20
13.77651
 30
0.0
 10
4.48518
 20
14.02868
 30
0.0
  0
SPLINE
  5
44
330
1F
100
AcDbEntity
  8
Layer 1
370
    53
100
AcDbSpline
210
0.0
220
0.0
230
1.0
 70
    11
 71
     3
 72
    28
 73
    24
 74
     0
 42
0.0000000001
 43
0.0000000001
 12
1.0
 22
0.0
 32
0.0
 13
1.0
 23
0.0
 33
0.0
 40
0.0
 40
0.0
 40
0.0
 40
0.0
 40
0.1428571428571428
 40
0.1428571428571428
 40
0.1428571428571428
 40
0.1428571428571428
 40
0.2857142857142857
 40
0.2857142857142857
 40
0.2857142857142857
 40
0.2857142857142857
 40
0.4285714285714285
 40
0.4285714285714285
 40
0.4285714285714285
 40
0.4285714285714285
 40
0.5714285714285714
 40
0.5714285714285714
 40
0.5714285714285714
 40
0.5714285714285714
 40
0.7142857142857143
 40
0.7142857142857143
 40
0.7142857142857143
 40
0.7142857142857143
 40
1.0
 40
1.0
 40
1.0
 40
1.0
 10
5.03639
 20
19.30761
 30
0.0
 10
4.8581
 20
19.39362
 30
0.0
 10
4.74323
 20
19.49148
 30
0.0
 10
4.6229
 20
19.49878
 30
0.0
 10
4.6229
 20
19.49878
 30
0.0
 10
4.31306
 20
19.51748
 30
0.0
 10
3.99778
 20
19.52044
 30
0.0
 10
3.69061
 20
19.48209
 30
0.0
 10
3.69061
 20
19.48209
 30
0.0
 10
3.48692
 20
19.45666
 30
0.0
 10
3.28443
 20
19.36649
 30
0.0
 10
3.09964
 20
19.27025
 30
0.0
 10
3.09964
 20
19.27025
 30
0.0
 10
3.02016
 20
19.22887
 30
0.0
 10
2.94876
 20
19.10187
 30
0.0
 10
2.94117
 20
19.00831
 30
0.0
 10
2.94117
 20
19.00831
 30
0.0
 10
2.92844
 20
18.85076
 30
0.0
 10
3.06906
 20
18.79919
 30
0.0
 10
3.20181
 20
18.78462
 30
0.0
 10
3.20181
 20
18.78462
 30
0.0
 10
3.84047
 20
18.71456
 30
0.0
 10
4.44588
 20
18.77739
 30
0.0
 10
5.03639
 20
19.30761
 30
0.0
  0
SPLINE
  5
45
330
1F
100
AcDbEntity
  8
Layer 1
370
    53
100
AcDbSpline
210
0.0
220
0.0
230
1.0
 70
    11
 71
     3
 72
    16
 73
    12
 74
     0
 42
0.0000000001
 43
0.0000000001
 12
1.0
 22
0.0
 32
0.0
 13
1.0
 23
0.0
 33
0.0
 40
0.0
 40
0.0
 40
0.0
 40
0.0
 40
0.25
 40
0.25
 40
0.25
 40
0.25
 40
0.5
 40
0.5
 40
0.5
 40
0.5
 40
1.0
 40
1.0
 40
1.0
 40
1.0
 10
5.2391
 20
19.90144
 30
0.0
 10
4.88385
 20
20.54519
 30
0.0
 10
4.35994
 20
20.94309
 30
0.0
 10
3.69933
 20
21.25424
 30
0.0
 10
3.69933
 20
21.25424
 30
0.0
 10
3.85568
 20
20.78137
 30
0.0
 10
3.72512
 20
20.37116
 30
0.0
 10
3.56337
 20
19.99542
 30
0.0
 10
3.56337
 20
19.99542
 30
0.0
 10
4.12383
 20
19.96399
 30
0.0
 10
4.65634
 20
19.93411
 30
0.0
 10
5.2391
 20
19.90144
 30
0.0
  0
SPLINE
  5
46
330
1F
100
AcDbEntity
  8
Layer 1
370
    53
100
AcDbSpline
210
0.0
220
0.0
230
1.0
 70
    11
 71
     3
 72
    20
 73
    16
 74
     0
 42
0.0000000001
 43
0.0000000001
 12
1.0
 22
0.0
 32
0.0
 13
1.0
 23
0.0
 33
0.0
 40
0.0
 40
0.0
 40
0.0
 40
0.0
 40
0.2
 40
0.2
 40
0.2
 40
0.2
 40
0.4
 40
0.4
 40
0.4
 40
0.4
 40
0.6
 40
0.6
 40
0.6
 40
0.6
 40
1.0
 40
1.0
 40
1.0
 40
1.0
 10
3.91202
 20
18.27602
 30
0.0
 10
4.09444
 20
18.06615
 30
0.0
 10
4.25404
 20
17.9049
 30
0.0
 10
4.38647
 20
17.72378
 30
0.0
 10
4.38647
 20
17.72378
 30
0.0
 10
4.51594
 20
17.54672
 30
0.0
 10
4.61771
 20
17.34941
 30
0.0
 10
4.73427
 20
17.15665
 30
0.0
 10
4.73427
 20
17.15665
 30
0.0
 10
5.12437
 20
17.60705
 30
0.0
 10
5.43708
 20
18.44457
 30
0.0
 10
5.38166
 20
18.90901
 30
0.0
 10
5.38166
 20
18.90901
 30
0.0
 10
5.00605
 20
18.45011
 30
0.0
 10
4.43857
 20
18.46743
 30
0.0
 10
3.91202
 20
18.27602
 30
0.0
  0
SPLINE
  5
47
330
1F
100
AcDbEntity
  8
Layer 1
370
    53
100
AcDbSpline
210
0.0
220
0.0
230
1.0
 70
    11
 71
     3
 72
    28
 73
    24
 74
     0
 42
0.0000000001
 43
0.0000000001
 12
1.0
 22
0.0
 32
0.0
 13
1.0
 23
0.0
 33
0.0
 40
0.0
 40
0.0
 40
0.0
 40
0.0
 40
0.1428571428571428
 40
0.1428571428571428
 40
0.1428571428571428
 40
0.1428571428571428
 40
0.2857142857142857
 40
0.2857142857142857
 40
0.2857142857142857
 40
0.2857142857142857
 40
0.4285714285714285
 40
0.4285714285714285
 40
0.4285714285714285
 40
0.4285714285714285
 40
0.5714285714285714
 40
0.5714285714285714
 40
0.5714285714285714
 40
0.5714285714285714
 40
0.7142857142857143
 40
0.7142857142857143
 40
0.7142857142857143
 40
0.7142857142857143
 40
1.0
 40
1.0
 40
1.0
 40
1.0
 10
2.86427
 20
18.22797
 30
0.0
 10
2.7064
 20
18.096
 30
0.0
 10
2.65948
 20
17.9793
 30
0.0
 10
2.77537
 20
17.83653
 30
0.0
 10
2.77537
 20
17.83653
 30
0.0
 10
2.98968
 20
17.5724
 30
0.0
 10
3.19736
 20
17.30249
 30
0.0
 10
3.42169
 20
17.04715
 30
0.0
 10
3.42169
 20
17.04715
 30
0.0
 10
3.4932
 20
16.96573
 30
0.0
 10
3.60235
 20
16.90713
 30
0.0
 10
3.70543
 20
16.86604
 30
0.0
 10
3.70543
 20
16.86604
 30
0.0
 10
3.86034
 20
16.8043
 30
0.0
 10
4.04159
 20
16.80751
 30
0.0
 10
4.12143
 20
16.9634
 30
0.0
 10
4.12143
 20
16.9634
 30
0.0
 10
4.16545
 20
17.04937
 30
0.0
 10
4.12577
 20
17.21327
 30
0.0
 10
4.069
 20
17.30983
 30
0.0
 10
4.069
 20
17.30983
 30
0.0
 10
3.79744
 20
17.77186
 30
0.0
 10
3.36144
 20
18.02809
 30
0.0
 10
2.86427
 20
18.22797
 30
0.0
  0
SPLINE
  5
48
330
1F
100
AcDbEntity
  8
Layer 1
370
    53
100
AcDbSpline
210
0.0
220
0.0
230
1.0
 70
    11
 71
     3
 72
    20
 73
    16
 74
     0
 42
0.0000000001
 43
0.0000000001
 12
1.0
 22
0.0
 32
0.0
 13
1.0
 23
0.0
 33
0.0
 40
0.0
 40
0.0
 40
0.0
 40
0.0
 40
0.2
 40
0.2
 40
0.2
 40
0.2
 40
0.4
 40
0.4
 40
0.4
 40
0.4
 40
0.6
 40
0.6
 40
0.6
 40
0.6
 40
1.0
 40
1.0
 40
1.0
 40
1.0
 10
-0.30664
 20
17.52972
 30
0.0
 10
-0.87338
 20
17.83596
 30
0.0
 10
-1.00874
 20
17.81779
 30
0.0
 10
-1.36367
 20
17.4096
 30
0.0
 10
-1.36367
 20
17.4096
 30
0.0
 10
-1.47493
 20
17.28164
 30
0.0
 10
-1.57442
 20
17.1393
 30
0.0
 10
-1.65577
 20
16.99071
 30
0.0
 10
-1.65577
 20
16.99071
 30
0.0
 10
-1.74364
 20
16.83009
 30
0.0
 10
-1.80499
 20
16.65447
 30
0.0
 10
-1.69112
 20
16.4275
 30
0.0
 10
-1.69112
 20
16.4275
 30
0.0
 10
-1.01541
 20
16.52324
 30
0.0
 10
-0.74959
 20
17.09068
 30
0.0
 10
-0.30664
 20
17.52972
 30
0.0
  0
SPLINE
  5
49
330
1F
100
AcDbEntity
  8
Layer 1
370
    53
100
AcDbSpline
210
0.0
220
0.0
230
1.0
 70
    11
 71
     3
 72
    24
 73
    20
 74
     0
 42
0.0000000001
 43
0.0000000001
 12
1.0
 22
0.0
 32
0.0
 13
1.0
 23
0.0
 33
0.0
 40
0.0
 40
0.0
 40
0.0
 40
0.0
 40
0.1666666666666667
 40
0.1666666666666667
 40
0.1666666666666667
 40
0.1666666666666667
 40
0.3333333333333333
 40
0.3333333333333333
 40
0.3333333333333333
 40
0.3333333333333333
 40
0.5
 40
0.5
 40
0.5
 40
0.5
 40
0.6666666666666666
 40
0.6666666666666666
 40
0.6666666666666666
 40
0.6666666666666666
 40
1.0
 40
1.0
 40
1.0
 40
1.0
 10
0.93817
 20
17.30983
 30
0.0
 10
0.74347
 20
17.32204
 30
0.0
 10
0.57911
 20
17.33237
 30
0.0
 10
0.36985
 20
17.3455
 30
0.0
 10
0.36985
 20
17.3455
 30
0.0
 10
0.25026
 20
16.99095
 30
0.0
 10
0.11193
 20
16.66276
 30
0.0
 10
0.03238
 20
16.32092
 30
0.0
 10
0.03238
 20
16.32092
 30
0.0
 10
-0.0398
 20
16.01058
 30
0.0
 10
0.16778
 20
15.8633
 30
0.0
 10
0.46009
 20
16.00279
 30
0.0
 10
0.46009
 20
16.00279
 30
0.0
 10
0.56589
 20
16.05331
 30
0.0
 10
0.66258
 20
16.15882
 30
0.0
 10
0.72241
 20
16.26286
 30
0.0
 10
0.72241
 20
16.26286
 30
0.0
 10
0.89644
 20
16.56536
 30
0.0
 10
0.96064
 20
16.89849
 30
0.0
 10
0.93817
 20
17.30983
 30
0.0
  0
SPLINE
  5
4A
330
1F
100
AcDbEntity
  8
Layer 1
370
    53
100
AcDbSpline
210
0.0
220
0.0
230
1.0
 70
    11
 71
     3
 72
    24
 73
    20
 74
     0
 42
0.0000000001
 43
0.0000000001
 12
1.0
 22
0.0
 32
0.0
 13
1.0
 23
0.0
 33
0.0
 40
0.0
 40
0.0
 40
0.0
 40
0.0
 40
0.1666666666666667
 40
0.1666666666666667
 40
0.1666666666666667
 40
0.1666666666666667
 40
0.3333333333333333
 40
0.3333333333333333
 40
0.3333333333333333
 40
0.3333333333333333
 40
0.5
 40
0.5
 40
0.5
 40
0.5
 40
0.6666666666666666
 40
0.6666666666666666
 40
0.6666666666666666
 40
0.6666666666666666
 40
1.0
 40
1.0
 40
1.0
 40
1.0
 10
-0.44034
 20
19.61319
 30
0.0
 10
-0.54177
 20
20.02509
 30
0.0
 10
-0.62379
 20
20.40207
 30
0.0
 10
-0.99219
 20
20.6125
 30
0.0
 10
-0.99219
 20
20.6125
 30
0.0
 10
-1.07633
 20
20.66055
 30
0.0
 10
-1.23572
 20
20.68097
 30
0.0
 10
-1.30038
 20
20.63303
 30
0.0
 10
-1.30038
 20
20.63303
 30
0.0
 10
-1.38533
 20
20.5701
 30
0.0
 10
-1.46947
 20
20.41572
 30
0.0
 10
-1.45137
 20
20.32008
 30
0.0
 10
-1.45137
 20
20.32008
 30
0.0
 10
-1.38279
 20
19.9581
 30
0.0
 10
-1.24958
 20
19.61827
 30
0.0
 10
-0.90887
 20
19.39436
 30
0.0
 10
-0.90887
 20
19.39436
 30
0.0
 10
-0.75883
 20
19.46442
 30
0.0
 10
-0.62125
 20
19.5287
 30
0.0
 10
-0.44034
 20
19.61319
 30
0.0
  0
SPLINE
  5
4B
330
1F
100
AcDbEntity
  8
Layer 1
370
    53
100
AcDbSpline
210
0.0
220
0.0
230
1.0
 70
    11
 71
     3
 72
    28
 73
    24
 74
     0
 42
0.0000000001
 43
0.0000000001
 12
1.0
 22
0.0
 32
0.0
 13
1.0
 23
0.0
 33
0.0
 40
0.0
 40
0.0
 40
0.0
 40
0.0
 40
0.1428571428571428
 40
0.1428571428571428
 40
0.1428571428571428
 40
0.1428571428571428
 40
0.2857142857142857
 40
0.2857142857142857
 40
0.2857142857142857
 40
0.2857142857142857
 40
0.4285714285714285
 40
0.4285714285714285
 40
0.4285714285714285
 40
0.4285714285714285
 40
0.5714285714285714
 40
0.5714285714285714
 40
0.5714285714285714
 40
0.5714285714285714
 40
0.7142857142857143
 40
0.7142857142857143
 40
0.7142857142857143
 40
0.7142857142857143
 40
1.0
 40
1.0
 40
1.0
 40
1.0
 10
2.24225
 20
20.96969
 30
0.0
 10
2.05482
 20
21.22633
 30
0.0
 10
1.70003
 20
21.19233
 30
0.0
 10
1.54421
 20
20.93021
 30
0.0
 10
1.54421
 20
20.93021
 30
0.0
 10
1.38429
 20
20.66125
 30
0.0
 10
1.43502
 20
20.37931
 30
0.0
 10
1.52495
 20
20.10785
 30
0.0
 10
1.52495
 20
20.10785
 30
0.0
 10
1.55497
 20
20.01719
 30
0.0
 10
1.65068
 20
19.90388
 30
0.0
 10
1.73344
 20
19.88747
 30
0.0
 10
1.73344
 20
19.88747
 30
0.0
 10
1.81871
 20
19.87061
 30
0.0
 10
1.98031
 20
19.93478
 30
0.0
 10
2.01192
 20
20.00622
 30
0.0
 10
2.01192
 20
20.00622
 30
0.0
 10
2.12421
 20
20.25997
 30
0.0
 10
2.20133
 20
20.53023
 30
0.0
 10
2.27725
 20
20.79838
 30
0.0
 10
2.27725
 20
20.79838
 30
0.0
 10
2.2939
 20
20.85726
 30
0.0
 10
2.25072
 20
20.93314
 30
0.0
 10
2.24225
 20
20.96969
 30
0.0
  0
SPLINE
  5
4C
330
1F
100
AcDbEntity
  8
Layer 1
370
    53
100
AcDbSpline
210
0.0
220
0.0
230
1.0
 70
    11
 71
     3
 72
    24
 73
    20
 74
     0
 42
0.0000000001
 43
0.0000000001
 12
1.0
 22
0.0
 32
0.0
 13
1.0
 23
0.0
 33
0.0
 40
0.0
 40
0.0
 40
0.0
 40
0.0
 40
0.1666666666666667
 40
0.1666666666666667
 40
0.1666666666666667
 40
0.1666666666666667
 40
0.3333333333333333
 40
0.3333333333333333
 40
0.3333333333333333
 40
0.3333333333333333
 40
0.5
 40
0.5
 40
0.5
 40
0.5
 40
0.6666666666666666
 40
0.6666666666666666
 40
0.6666666666666666
 40
0.6666666666666666
 40
1.0
 40
1.0
 40
1.0
 40
1.0
 10
5.7737
 20
15.1618
 30
0.0
 10
5.76213
 20
15.13591
 30
0.0
 10
5.75055
 20
15.11001
 30
0.0
 10
5.73895
 20
15.08412
 30
0.0
 10
5.73895
 20
15.08412
 30
0.0
 10
5.90426
 20
14.93306
 30
0.0
 10
6.06086
 20
14.77043
 30
0.0
 10
6.2388
 20
14.63616
 30
0.0
 10
6.2388
 20
14.63616
 30
0.0
 10
6.31997
 20
14.57492
 30
0.0
 10
6.4468
 20
14.53492
 30
0.0
 10
6.54699
 20
14.54486
 30
0.0
 10
6.54699
 20
14.54486
 30
0.0
 10
6.99889
 20
14.58981
 30
0.0
 10
7.40642
 20
14.75173
 30
0.0
 10
7.82242
 20
15.0947
 30
0.0
 10
7.82242
 20
15.0947
 30
0.0
 10
7.08719
 20
15.11876
 30
0.0
 10
6.43043
 20
15.14028
 30
0.0
 10
5.7737
 20
15.1618
 30
0.0
  0
SPLINE
  5
4D
330
1F
100
AcDbEntity
  8
Layer 1
370
    53
100
AcDbSpline
210
0.0
220
0.0
230
1.0
 70
    11
 71
     3
 72
    28
 73
    24
 74
     0
 42
0.0000000001
 43
0.0000000001
 12
1.0
 22
0.0
 32
0.0
 13
1.0
 23
0.0
 33
0.0
 40
0.0
 40
0.0
 40
0.0
 40
0.0
 40
0.1428571428571428
 40
0.1428571428571428
 40
0.1428571428571428
 40
0.1428571428571428
 40
0.2857142857142857
 40
0.2857142857142857
 40
0.2857142857142857
 40
0.2857142857142857
 40
0.4285714285714285
 40
0.4285714285714285
 40
0.4285714285714285
 40
0.4285714285714285
 40
0.5714285714285714
 40
0.5714285714285714
 40
0.5714285714285714
 40
0.5714285714285714
 40
0.7142857142857143
 40
0.7142857142857143
 40
0.7142857142857143
 40
0.7142857142857143
 40
1.0
 40
1.0
 40
1.0
 40
1.0
 10
3.46353
 20
13.51024
 30
0.0
 10
3.44635
 20
13.48145
 30
0.0
 10
3.42921
 20
13.45263
 30
0.0
 10
3.41203
 20
13.42381
 30
0.0
 10
3.41203
 20
13.42381
 30
0.0
 10
3.63646
 20
13.08525
 30
0.0
 10
3.88866
 20
12.76715
 30
0.0
 10
4.21989
 20
12.52239
 30
0.0
 10
4.21989
 20
12.52239
 30
0.0
 10
4.44609
 20
12.35524
 30
0.0
 10
4.71413
 20
12.37084
 30
0.0
 10
5.05117
 20
12.36251
 30
0.0
 10
5.05117
 20
12.36251
 30
0.0
 10
4.86886
 20
12.61757
 30
0.0
 10
4.73674
 20
12.81269
 30
0.0
 10
4.59288
 20
12.99867
 30
0.0
 10
4.59288
 20
12.99867
 30
0.0
 10
4.53509
 20
13.07332
 30
0.0
 10
4.46168
 20
13.15407
 30
0.0
 10
4.37776
 20
13.18706
 30
0.0
 10
4.37776
 20
13.18706
 30
0.0
 10
4.07708
 20
13.3052
 30
0.0
 10
3.7689
 20
13.40409
 30
0.0
 10
3.46353
 20
13.51024
 30
0.0
  0
SPLINE
  5
4E
330
1F
100
AcDbEntity
  8
Layer 1
370
    53
100
AcDbSpline
210
0.0
220
0.0
230
1.0
 70
    11
 71
     3
 72
    16
 73
    12
 74
     0
 42
0.0000000001
 43
0.0000000001
 12
1.0
 22
0.0
 32
0.0
 13
1.0
 23
0.0
 33
0.0
 40
0.0
 40
0.0
 40
0.0
 40
0.0
 40
0.25
 40
0.25
 40
0.25
 40
0.25
 40
0.5
 40
0.5
 40
0.5
 40
0.5
 40
1.0
 40
1.0
 40
1.0
 40
1.0
 10
-1.74502
 20
19.30899
 30
0.0
 10
-1.85752
 20
19.7531
 30
0.0
 10
-1.96635
 20
20.18275
 30
0.0
 10
-2.07025
 20
20.59271
 30
0.0
 10
-2.07025
 20
20.59271
 30
0.0
 10
-2.51161
 20
20.23609
 30
0.0
 10
-2.71198
 20
19.87205
 30
0.0
 10
-2.75061
 20
19.3177
 30
0.0
 10
-2.75061
 20
19.3177
 30
0.0
 10
-2.41667
 20
19.31481
 30
0.0
 10
-2.0827
 20
19.31191
 30
0.0
 10
-1.74502
 20
19.30899
 30
0.0
  0
SPLINE
  5
4F
330
1F
100
AcDbEntity
  8
Layer 1
370
    53
100
AcDbSpline
210
0.0
220
0.0
230
1.0
 70
    11
 71
     3
 72
    24
 73
    20
 74
     0
 42
0.0000000001
 43
0.0000000001
 12
1.0
 22
0.0
 32
0.0
 13
1.0
 23
0.0
 33
0.0
 40
0.0
 40
0.0
 40
0.0
 40
0.0
 40
0.1666666666666667
 40
0.1666666666666667
 40
0.1666666666666667
 40
0.1666666666666667
 40
0.3333333333333333
 40
0.3333333333333333
 40
0.3333333333333333
 40
0.3333333333333333
 40
0.5
 40
0.5
 40
0.5
 40
0.5
 40
0.6666666666666666
 40
0.6666666666666666
 40
0.6666666666666666
 40
0.6666666666666666
 40
1.0
 40
1.0
 40
1.0
 40
1.0
 10
2.35701
 20
15.18568
 30
0.0
 10
3.01067
 20
14.93405
 30
0.0
 10
4.4221
 20
14.6907
 30
0.0
 10
4.75191
 20
14.7263
 30
0.0
 10
4.75191
 20
14.7263
 30
0.0
 10
4.65345
 20
14.82966
 30
0.0
 10
4.54861
 20
14.91024
 30
0.0
 10
4.48232
 20
15.01515
 30
0.0
 10
4.48232
 20
15.01515
 30
0.0
 10
4.32121
 20
15.27017
 30
0.0
 10
4.08922
 20
15.30309
 30
0.0
 10
3.81694
 20
15.28679
 30
0.0
 10
3.81694
 20
15.28679
 30
0.0
 10
3.4902
 20
15.26721
 30
0.0
 10
3.16145
 20
15.28291
 30
0.0
 10
2.83435
 20
15.26686
 30
0.0
 10
2.83435
 20
15.26686
 30
0.0
 10
2.6743
 20
15.25899
 30
0.0
 10
2.51608
 20
15.21391
 30
0.0
 10
2.35701
 20
15.18568
 30
0.0
  0
SPLINE
  5
50
330
1F
100
AcDbEntity
  8
Layer 1
370
    53
100
AcDbSpline
210
0.0
220
0.0
230
1.0
 70
    11
 71
     3
 72
    16
 73
    12
 74
     0
 42
0.0000000001
 43
0.0000000001
 12
1.0
 22
0.0
 32
0.0
 13
1.0
 23
0.0
 33
0.0
 40
0.0
 40
0.0
 40
0.0
 40
0.0
 40
0.25
 40
0.25
 40
0.25
 40
0.25
 40
0.5
 40
0.5
 40
0.5
 40
0.5
 40
1.0
 40
1.0
 40
1.0
 40
1.0
 10
-1.82877
 20
17.77924
 30
0.0
 10
-2.1921
 20
17.82721
 30
0.0
 10
-2.54713
 20
17.8741
 30
0.0
 10
-2.90298
 20
17.92112
 30
0.0
 10
-2.90298
 20
17.92112
 30
0.0
 10
-2.93191
 20
17.39905
 30
0.0
 10
-2.80282
 20
17.02394
 30
0.0
 10
-2.52808
 20
16.75039
 30
0.0
 10
-2.52808
 20
16.75039
 30
0.0
 10
-2.29987
 20
17.0861
 30
0.0
 10
-2.06725
 20
17.4284
 30
0.0
 10
-1.82877
 20
17.77924
 30
0.0
  0
SPLINE
  5
51
330
1F
100
AcDbEntity
  8
Layer 1
370
    53
100
AcDbSpline
210
0.0
220
0.0
230
1.0
 70
    11
 71
     3
 72
    24
 73
    20
 74
     0
 42
0.0000000001
 43
0.0000000001
 12
1.0
 22
0.0
 32
0.0
 13
1.0
 23
0.0
 33
0.0
 40
0.0
 40
0.0
 40
0.0
 40
0.0
 40
0.1666666666666667
 40
0.1666666666666667
 40
0.1666666666666667
 40
0.1666666666666667
 40
0.3333333333333333
 40
0.3333333333333333
 40
0.3333333333333333
 40
0.3333333333333333
 40
0.5
 40
0.5
 40
0.5
 40
0.5
 40
0.6666666666666666
 40
0.6666666666666666
 40
0.6666666666666666
 40
0.6666666666666666
 40
1.0
 40
1.0
 40
1.0
 40
1.0
 10
1.8217
 20
15.96568
 30
0.0
 10
2.23071
 20
16.08767
 30
0.0
 10
2.22352
 20
16.40651
 30
0.0
 10
2.27837
 20
16.66919
 30
0.0
 10
2.27837
 20
16.66919
 30
0.0
 10
2.3332
 20
16.93193
 30
0.0
 10
2.25654
 20
17.18392
 30
0.0
 10
2.07129
 20
17.38264
 30
0.0
 10
2.07129
 20
17.38264
 30
0.0
 10
1.95999
 20
17.50206
 30
0.0
 10
1.77965
 20
17.45221
 30
0.0
 10
1.746
 20
17.27759
 30
0.0
 10
1.746
 20
17.27759
 30
0.0
 10
1.69238
 20
16.99956
 30
0.0
 10
1.65985
 20
16.71272
 30
0.0
 10
1.66401
 20
16.43028
 30
0.0
 10
1.66401
 20
16.43028
 30
0.0
 10
1.66623
 20
16.27834
 30
0.0
 10
1.76343
 20
16.12781
 30
0.0
 10
1.8217
 20
15.96568
 30
0.0
  0
SPLINE
  5
52
330
1F
100
AcDbEntity
  8
Layer 1
370
    53
100
AcDbSpline
210
0.0
220
0.0
230
1.0
 70
    11
 71
     3
 72
    16
 73
    12
 74
     0
 42
0.0000000001
 43
0.0000000001
 12
1.0
 22
0.0
 32
0.0
 13
1.0
 23
0.0
 33
0.0
 40
0.0
 40
0.0
 40
0.0
 40
0.0
 40
0.25
 40
0.25
 40
0.25
 40
0.25
 40
0.5
 40
0.5
 40
0.5
 40
0.5
 40
1.0
 40
1.0
 40
1.0
 40
1.0
 10
3.7249
 20
15.64006
 30
0.0
 10
4.10386
 20
15.6239
 30
0.0
 10
4.48546
 20
15.63001
 30
0.0
 10
4.86103
 20
15.58538
 30
0.0
 10
4.86103
 20
15.58538
 30
0.0
 10
5.2494
 20
15.53924
 30
0.0
 10
5.46629
 20
15.76459
 30
0.0
 10
5.7774
 20
16.04558
 30
0.0
 10
5.7774
 20
16.04558
 30
0.0
 10
4.99258
 20
16.10686
 30
0.0
 10
4.3157
 20
16.11222
 30
0.0
 10
3.7249
 20
15.64006
 30
0.0
  0
SPLINE
  5
53
330
1F
100
AcDbEntity
  8
Layer 1
370
    53
100
AcDbSpline
210
0.0
220
0.0
230
1.0
 70
    11
 71
     3
 72
    16
 73
    12
 74
     0
 42
0.0000000001
 43
0.0000000001
 12
1.0
 22
0.0
 32
0.0
 13
1.0
 23
0.0
 33
0.0
 40
0.0
 40
0.0
 40
0.0
 40
0.0
 40
0.25
 40
0.25
 40
0.25
 40
0.25
 40
0.5
 40
0.5
 40
0.5
 40
0.5
 40
1.0
 40
1.0
 40
1.0
 40
1.0
 10
-2.79524
 20
18.8539
 30
0.0
 10
-2.76561
 20
18.47456
 30
0.0
 10
-2.47647
 20
18.46204
 30
0.0
 10
-2.26318
 20
18.40916
 30
0.0
 10
-2.26318
 20
18.40916
 30
0.0
 10
-1.92081
 20
18.32424
 30
0.0
 10
-1.56701
 20
18.30223
 30
0.0
 10
-1.25417
 20
18.62149
 30
0.0
 10
-1.25417
 20
18.62149
 30
0.0
 10
-1.75878
 20
18.92336
 30
0.0
 10
-2.23969
 20
19.09831
 30
0.0
 10
-2.79524
 20
18.8539
 30
0.0
  0
SPLINE
  5
54
330
1F
100
AcDbEntity
  8
Layer 1
370
    53
100
AcDbSpline
210
0.0
220
0.0
230
1.0
 70
    11
 71
     3
 72
    16
 73
    12
 74
     0
 42
0.0000000001
 43
0.0000000001
 12
1.0
 22
0.0
 32
0.0
 13
1.0
 23
0.0
 33
0.0
 40
0.0
 40
0.0
 40
0.0
 40
0.0
 40
0.25
 40
0.25
 40
0.25
 40
0.25
 40
0.5
 40
0.5
 40
0.5
 40
0.5
 40
1.0
 40
1.0
 40
1.0
 40
1.0
 10
2.56617
 20
19.56623
 30
0.0
 10
3.11248
 20
19.7616
 30
0.0
 10
3.18187
 20
20.22783
 30
0.0
 10
3.34673
 20
20.62132
 30
0.0
 10
3.34673
 20
20.62132
 30
0.0
 10
3.40441
 20
20.7589
 30
0.0
 10
3.46173
 20
20.92273
 30
0.0
 10
3.24573
 20
21.0455
 30
0.0
 10
3.24573
 20
21.0455
 30
0.0
 10
2.65348
 20
20.74881
 30
0.0
 10
2.61238
 20
20.19082
 30
0.0
 10
2.56617
 20
19.56623
 30
0.0
  0
SPLINE
  5
55
330
1F
100
AcDbEntity
  8
Layer 1
370
    53
100
AcDbSpline
210
0.0
220
0.0
230
1.0
 70
    11
 71
     3
 72
    16
 73
    12
 74
     0
 42
0.0000000001
 43
0.0000000001
 12
1.0
 22
0.0
 32
0.0
 13
1.0
 23
0.0
 33
0.0
 40
0.0
 40
0.0
 40
0.0
 40
0.0
 40
0.25
 40
0.25
 40
0.25
 40
0.25
 40
0.5
 40
0.5
 40
0.5
 40
0.5
 40
1.0
 40
1.0
 40
1.0
 40
1.0
 10
0.04462
 20
21.02941
 30
0.0
 10
-0.01831
 20
20.66386
 30
0.0
 10
0.08766
 20
20.18733
 30
0.0
 10
0.26479
 20
19.95813
 30
0.0
 10
0.26479
 20
19.95813
 30
0.0
 10
0.37842
 20
19.81099
 30
0.0
 10
0.49706
 20
19.82845
 30
0.0
 10
0.6248
 20
19.92832
 30
0.0
 10
0.6248
 20
19.92832
 30
0.0
 10
0.67705
 20
20.73065
 30
0.0
 10
0.55026
 20
20.98154
 30
0.0
 10
0.04462
 20
21.02941
 30
0.0
  0
SPLINE
  5
56
330
1F
100
AcDbEntity
  8
Layer 1
370
    53
100
AcDbSpline
210
0.0
220
0.0
230
1.0
 70
    11
 71
     3
 72
    16
 73
    12
 74
     0
 42
0.0000000001
 43
0.0000000001
 12
1.0
 22
0.0
 32
0.0
 13
1.0
 23
0.0
 33
0.0
 40
0.0
 40
0.0
 40
0.0
 40
0.0
 40
0.25
 40
0.25
 40
0.25
 40
0.25
 40
0.5
 40
0.5
 40
0.5
 40
0.5
 40
1.0
 40
1.0
 40
1.0
 40
1.0
 10
2.87132
 20
16.71797
 30
0.0
 10
2.82349
 20
16.48429
 30
0.0
 10
2.76884
 20
16.21738
 30
0.0
 10
2.71483
 20
15.95351
 30
0.0
 10
2.71483
 20
15.95351
 30
0.0
 10
2.95334
 20
16.02769
 30
0.0
 10
3.24008
 20
16.10037
 30
0.0
 10
3.47976
 20
16.31235
 30
0.0
 10
3.47976
 20
16.31235
 30
0.0
 10
3.2404
 20
16.47191
 30
0.0
 10
3.02923
 20
16.61267
 30
0.0
 10
2.87132
 20
16.71797
 30
0.0
  0
SPLINE
  5
57
330
1F
100
AcDbEntity
  8
Layer 1
370
    53
100
AcDbSpline
210
0.0
220
0.0
230
1.0
 70
    11
 71
     3
 72
    12
 73
     8
 74
     0
 42
0.0000000001
 43
0.0000000001
 12
1.0
 22
0.0
 32
0.0
 13
1.0
 23
0.0
 33
0.0
 40
0.0
 40
0.0
 40
0.0
 40
0.0
 40
0.3333333333333333
 40
0.3333333333333333
 40
0.3333333333333333
 40
0.3333333333333333
 40
1.0
 40
1.0
 40
1.0
 40
1.0
 10
5.45824
 20
13.54851
 30
0.0
 10
4.96764
 20
13.91618
 30
0.0
 10
4.8564
 20
13.91794
 30
0.0
 10
4.52229
 20
13.56322
 30
0.0
 10
4.52229
 20
13.56322
 30
0.0
 10
5.00866
 20
13.23754
 30
0.0
 10
5.10367
 20
13.23606
 30
0.0
 10
5.45824
 20
13.54851
 30
0.0
  0
SPLINE
  5
58
330
1F
100
AcDbEntity
  8
Layer 1
370
    53
100
AcDbSpline
210
0.0
220
0.0
230
1.0
 70
    11
 71
     3
 72
    16
 73
    12
 74
     0
 42
0.0000000001
 43
0.0000000001
 12
1.0
 22
0.0
 32
0.0
 13
1.0
 23
0.0
 33
0.0
 40
0.0
 40
0.0
 40
0.0
 40
0.0
 40
0.25
 40
0.25
 40
0.25
 40
0.25
 40
0.5
 40
0.5
 40
0.5
 40
0.5
 40
1.0
 40
1.0
 40
1.0
 40
1.0
 10
-1.36822
 20
15.93184
 30
0.0
 10
-1.03745
 20
15.84958
 30
0.0
 10
-0.78289
 20
15.78622
 30
0.0
 10
-0.50236
 20
15.71644
 30
0.0
 10
-0.50236
 20
15.71644
 30
0.0
 10
-0.52836
 20
15.98183
 30
0.0
 10
-0.5479
 20
16.18221
 30
0.0
 10
-0.56921
 20
16.39984
 30
0.0
 10
-0.56921
 20
16.39984
 30
0.0
 10
-0.83454
 20
16.24444
 30
0.0
 10
-1.06194
 20
16.11127
 30
0.0
 10
-1.36822
 20
15.93184
 30
0.0
  0
SPLINE
  5
59
330
1F
100
AcDbEntity
  8
Layer 1
370
    53
100
AcDbSpline
210
0.0
220
0.0
230
1.0
 70
    11
 71
     3
 72
    16
 73
    12
 74
     0
 42
0.0000000001
 43
0.0000000001
 12
1.0
 22
0.0
 32
0.0
 13
1.0
 23
0.0
 33
0.0
 40
0.0
 40
0.0
 40
0.0
 40
0.0
 40
0.25
 40
0.25
 40
0.25
 40
0.25
 40
0.5
 40
0.5
 40
0.5
 40
0.5
 40
1.0
 40
1.0
 40
1.0
 40
1.0
 10
0.55862
 20
21.51392
 30
0.0
 10
0.70086
 20
21.31488
 30
0.0
 10
0.8045
 20
21.16985
 30
0.0
 10
0.91739
 20
21.01192
 30
0.0
 10
0.91739
 20
21.01192
 30
0.0
 10
1.06397
 20
21.18763
 30
0.0
 10
1.20681
 20
21.35884
 30
0.0
 10
1.39431
 20
21.58363
 30
0.0
 10
1.39431
 20
21.58363
 30
0.0
 10
1.09985
 20
21.55907
 30
0.0
 10
0.85636
 20
21.53875
 30
0.0
 10
0.55862
 20
21.51392
 30
0.0
  0
SPLINE
  5
5A
330
1F
100
AcDbEntity
  8
Layer 1
370
    53
100
AcDbSpline
210
0.0
220
0.0
230
1.0
 70
    11
 71
     3
 72
    12
 73
     8
 74
     0
 42
0.0000000001
 43
0.0000000001
 12
1.0
 22
0.0
 32
0.0
 13
1.0
 23
0.0
 33
0.0
 40
0.0
 40
0.0
 40
0.0
 40
0.0
 40
0.3333333333333333
 40
0.3333333333333333
 40
0.3333333333333333
 40
0.3333333333333333
 40
1.0
 40
1.0
 40
1.0
 40
1.0
 10
4.81506
 20
15.24072
 30
0.0
 10
5.25656
 20
14.60279
 30
0.0
 10
5.41513
 20
14.49442
 30
0.0
 10
5.77077
 20
14.59669
 30
0.0
 10
5.77077
 20
14.59669
 30
0.0
 10
5.43944
 20
14.78768
 30
0.0
 10
5.32916
 20
15.23959
 30
0.0
 10
4.81506
 20
15.24072
 30
0.0
  0
SPLINE
  5
5B
330
1F
100
AcDbEntity
  8
Layer 1
370
    53
100
AcDbSpline
210
0.0
220
0.0
230
1.0
 70
    11
 71
     3
 72
    12
 73
     8
 74
     0
 42
0.0000000001
 43
0.0000000001
 12
1.0
 22
0.0
 32
0.0
 13
1.0
 23
0.0
 33
0.0
 40
0.0
 40
0.0
 40
0.0
 40
0.0
 40
0.3333333333333333
 40
0.3333333333333333
 40
0.3333333333333333
 40
0.3333333333333333
 40
1.0
 40
1.0
 40
1.0
 40
1.0
 10
1.6353
 20
14.08911
 30
0.0
 10
1.79278
 20
13.70776
 30
0.0
 10
2.0502
 20
13.42479
 30
0.0
 10
2.39162
 20
13.22054
 30
0.0
 10
2.39162
 20
13.22054
 30
0.0
 10
2.12605
 20
13.50152
 30
0.0
 10
2.08435
 20
13.97763
 30
0.0
 10
1.6353
 20
14.08911
 30
0.0
  0
SPLINE
  5
5C
330
1F
100
AcDbEntity
  8
Layer 1
370
    53
100
AcDbSpline
210
0.0
220
0.0
230
1.0
 70
    11
 71
     3
 72
    16
 73
    12
 74
     0
 42
0.0000000001
 43
0.0000000001
 12
1.0
 22
0.0
 32
0.0
 13
1.0
 23
0.0
 33
0.0
 40
0.0
 40
0.0
 40
0.0
 40
0.0
 40
0.25
 40
0.25
 40
0.25
 40
0.25
 40
0.5
 40
0.5
 40
0.5
 40
0.5
 40
1.0
 40
1.0
 40
1.0
 40
1.0
 10
1.14942
 20
16.21611
 30
0.0
 10
0.99105
 20
15.96476
 30
0.0
 10
0.87217
 20
15.77616
 30
0.0
 10
0.71613
 20
15.52848
 30
0.0
 10
0.71613
 20
15.52848
 30
0.0
 10
0.98156
 20
15.53871
 30
0.0
 10
1.16892
 20
15.54591
 30
0.0
 10
1.38225
 20
15.55409
 30
0.0
 10
1.38225
 20
15.55409
 30
0.0
 10
1.30446
 20
15.77521
 30
0.0
 10
1.24068
 20
15.95668
 30
0.0
 10
1.14942
 20
16.21611
 30
0.0
  0
SPLINE
  5
5D
330
1F
100
AcDbEntity
  8
Layer 1
370
    53
100
AcDbSpline
210
0.0
220
0.0
230
1.0
 70
    11
 71
     3
 72
    12
 73
     8
 74
     0
 42
0.0000000001
 43
0.0000000001
 12
1.0
 22
0.0
 32
0.0
 13
1.0
 23
0.0
 33
0.0
 40
0.0
 40
0.0
 40
0.0
 40
0.0
 40
0.3333333333333333
 40
0.3333333333333333
 40
0.3333333333333333
 40
0.3333333333333333
 40
1.0
 40
1.0
 40
1.0
 40
1.0
 10
6.68626
 20
15.82587
 30
0.0
 10
6.23083
 20
15.97661
 30
0.0
 10
6.15607
 20
15.94758
 30
0.0
 10
5.85741
 20
15.54051
 30
0.0
 10
5.85741
 20
15.54051
 30
0.0
 10
6.19922
 20
15.39869
 30
0.0
 10
6.40591
 20
15.63269
 30
0.0
 10
6.68626
 20
15.82587
 30
0.0
  0
SPLINE
  5
5E
330
1F
100
AcDbEntity
  8
Layer 1
370
    53
100
AcDbSpline
210
0.0
220
0.0
230
1.0
 70
    11
 71
     3
 72
    20
 73
    16
 74
     0
 42
0.0000000001
 43
0.0000000001
 12
1.0
 22
0.0
 32
0.0
 13
1.0
 23
0.0
 33
0.0
 40
0.0
 40
0.0
 40
0.0
 40
0.0
 40
0.2
 40
0.2
 40
0.2
 40
0.2
 40
0.4
 40
0.4
 40
0.4
 40
0.4
 40
0.6
 40
0.6
 40
0.6
 40
0.6
 40
1.0
 40
1.0
 40
1.0
 40
1.0
 10
3.2658
 20
12.81085
 30
0.0
 10
3.2851
 20
12.82546
 30
0.0
 10
3.30439
 20
12.84006
 30
0.0
 10
3.32366
 20
12.85467
 30
0.0
 10
3.32366
 20
12.85467
 30
0.0
 10
3.17524
 20
13.12151
 30
0.0
 10
3.03572
 20
13.39386
 30
0.0
 10
2.87425
 20
13.65255
 30
0.0
 10
2.87425
 20
13.65255
 30
0.0
 10
2.80539
 20
13.76297
 30
0.0
 10
2.68516
 20
13.82125
 30
0.0
 10
2.49756
 20
13.71502
 30
0.0
 10
2.49756
 20
13.71502
 30
0.0
 10
2.76101
 20
13.40493
 30
0.0
 10
3.01342
 20
13.10789
 30
0.0
 10
3.2658
 20
12.81085
 30
0.0
  0
SPLINE
  5
5F
330
1F
100
AcDbEntity
  8
Layer 1
370
    53
100
AcDbSpline
210
0.0
220
0.0
230
1.0
 70
    11
 71
     3
 72
    20
 73
    16
 74
     0
 42
0.0000000001
 43
0.0000000001
 12
1.0
 22
0.0
 32
0.0
 13
1.0
 23
0.0
 33
0.0
 40
0.0
 40
0.0
 40
0.0
 40
0.0
 40
0.2
 40
0.2
 40
0.2
 40
0.2
 40
0.4
 40
0.4
 40
0.4
 40
0.4
 40
0.6
 40
0.6
 40
0.6
 40
0.6
 40
1.0
 40
1.0
 40
1.0
 40
1.0
 10
2.60286
 20
21.16114
 30
0.0
 10
2.80461
 20
21.25875
 30
0.0
 10
2.97412
 20
21.34077
 30
0.0
 10
3.14367
 20
21.42283
 30
0.0
 10
3.14367
 20
21.42283
 30
0.0
 10
3.14367
 20
21.42283
 30
0.0
 10
3.1357
 20
21.50245
 30
0.0
 10
3.1357
 20
21.50245
 30
0.0
 10
3.1357
 20
21.50245
 30
0.0
 10
2.88187
 20
21.52422
 30
0.0
 10
2.62801
 20
21.54599
 30
0.0
 10
2.30815
 20
21.57343
 30
0.0
 10
2.30815
 20
21.57343
 30
0.0
 10
2.43074
 20
21.40195
 30
0.0
 10
2.50733
 20
21.29477
 30
0.0
 10
2.60286
 20
21.16114
 30
0.0
  0
SPLINE
  5
60
330
1F
100
AcDbEntity
  8
Layer 1
370
    53
100
AcDbSpline
210
0.0
220
0.0
230
1.0
 70
    11
 71
     3
 72
    12
 73
     8
 74
     0
 42
0.0000000001
 43
0.0000000001
 12
1.0
 22
0.0
 32
0.0
 13
1.0
 23
0.0
 33
0.0
 40
0.0
 40
0.0
 40
0.0
 40
0.0
 40
0.3333333333333333
 40
0.3333333333333333
 40
0.3333333333333333
 40
0.3333333333333333
 40
1.0
 40
1.0
 40
1.0
 40
1.0
 10
6.87017
 20
15.45401
 30
0.0
 10
7.21155
 20
15.45436
 30
0.0
 10
7.49243
 20
15.45457
 30
0.0
 10
7.84122
 20
15.45492
 30
0.0
 10
7.84122
 20
15.45492
 30
0.0
 10
7.29188
 20
15.80075
 30
0.0
 10
7.2421
 20
15.80156
 30
0.0
 10
6.87017
 20
15.45401
 30
0.0
  0
SPLINE
  5
61
330
1F
100
AcDbEntity
  8
Layer 1
370
    53
100
AcDbSpline
210
0.0
220
0.0
230
1.0
 70
    11
 71
     3
 72
    12
 73
     8
 74
     0
 42
0.0000000001
 43
0.0000000001
 12
1.0
 22
0.0
 32
0.0
 13
1.0
 23
0.0
 33
0.0
 40
0.0
 40
0.0
 40
0.0
 40
0.0
 40
0.3333333333333333
 40
0.3333333333333333
 40
0.3333333333333333
 40
0.3333333333333333
 40
1.0
 40
1.0
 40
1.0
 40
1.0
 10
5.95344
 20
12.57989
 30
0.0
 10
5.73433
 20
12.67175
 30
0.0
 10
5.51518
 20
12.76358
 30
0.0
 10
5.29607
 20
12.85545
 30
0.0
 10
5.29607
 20
12.85545
 30
0.0
 10
5.57286
 20
12.40668
 30
0.0
 10
5.57286
 20
12.40668
 30
0.0
 10
5.95344
 20
12.57989
 30
0.0
  0
SPLINE
  5
62
330
1F
100
AcDbEntity
  8
Layer 1
370
    53
100
AcDbSpline
210
0.0
220
0.0
230
1.0
 70
    11
 71
     3
 72
    20
 73
    16
 74
     0
 42
0.0000000001
 43
0.0000000001
 12
1.0
 22
0.0
 32
0.0
 13
1.0
 23
0.0
 33
0.0
 40
0.0
 40
0.0
 40
0.0
 40
0.0
 40
0.2
 40
0.2
 40
0.2
 40
0.2
 40
0.4
 40
0.4
 40
0.4
 40
0.4
 40
0.6
 40
0.6
 40
0.6
 40
0.6
 40
1.0
 40
1.0
 40
1.0
 40
1.0
 10
5.57318
 20
13.1225
 30
0.0
 10
5.7834
 20
13.02989
 30
0.0
 10
5.9552
 20
12.95422
 30
0.0
 10
6.127
 20
12.87855
 30
0.0
 10
6.127
 20
12.87855
 30
0.0
 10
6.14715
 20
12.90819
 30
0.0
 10
6.16729
 20
12.93785
 30
0.0
 10
6.1874
 20
12.96749
 30
0.0
 10
6.1874
 20
12.96749
 30
0.0
 10
6.06834
 20
13.08637
 30
0.0
 10
5.94924
 20
13.20526
 30
0.0
 10
5.82256
 20
13.3318
 30
0.0
 10
5.82256
 20
13.3318
 30
0.0
 10
5.72858
 20
13.25292
 30
0.0
 10
5.66811
 20
13.20216
 30
0.0
 10
5.57318
 20
13.1225
 30
0.0
  0
SPLINE
  5
63
330
1F
100
AcDbEntity
  8
Layer 1
370
    53
100
AcDbSpline
210
0.0
220
0.0
230
1.0
 70
    11
 71
     3
 72
    16
 73
    12
 74
     0
 42
0.0000000001
 43
0.0000000001
 12
1.0
 22
0.0
 32
0.0
 13
1.0
 23
0.0
 33
0.0
 40
0.0
 40
0.0
 40
0.0
 40
0.0
 40
0.25
 40
0.25
 40
0.25
 40
0.25
 40
0.5
 40
0.5
 40
0.5
 40
0.5
 40
1.0
 40
1.0
 40
1.0
 40
1.0
 10
-0.85274
 20
21.3237
 30
0.0
 10
-0.74444
 20
21.21194
 30
0.0
 10
-0.67049
 20
21.13567
 30
0.0
 10
-0.57073
 20
21.03276
 30
0.0
 10
-0.57073
 20
21.03276
 30
0.0
 10
-0.52377
 20
21.16315
 30
0.0
 10
-0.48874
 20
21.26041
 30
0.0
 10
-0.43816
 20
21.40085
 30
0.0
 10
-0.43816
 20
21.40085
 30
0.0
 10
-0.59369
 20
21.37192
 30
0.0
 10
-0.69815
 20
21.35245
 30
0.0
 10
-0.85274
 20
21.3237
 30
0.0
  0
SPLINE
  5
64
330
1F
100
AcDbEntity
  8
Layer 1
370
    53
100
AcDbSpline
210
0.0
220
0.0
230
1.0
 70
    11
 71
     3
 72
   136
 73
   132
 74
     0
 42
0.0000000001
 43
0.0000000001
 12
1.0
 22
0.0
 32
0.0
 13
1.0
 23
0.0
 33
0.0
 40
0.0
 40
0.0
 40
0.0
 40
0.0
 40
0.0294117647058824
 40
0.0294117647058824
 40
0.0294117647058824
 40
0.0294117647058824
 40
0.0588235294117647
 40
0.0588235294117647
 40
0.0588235294117647
 40
0.0588235294117647
 40
0.0882352941176471
 40
0.0882352941176471
 40
0.0882352941176471
 40
0.0882352941176471
 40
0.1176470588235294
 40
0.1176470588235294
 40
0.1176470588235294
 40
0.1176470588235294
 40
0.1470588235294118
 40
0.1470588235294118
 40
0.1470588235294118
 40
0.1470588235294118
 40
0.1764705882352941
 40
0.1764705882352941
 40
0.1764705882352941
 40
0.1764705882352941
 40
0.2058823529411765
 40
0.2058823529411765
 40
0.2058823529411765
 40
0.2058823529411765
 40
0.2352941176470588
 40
0.2352941176470588
 40
0.2352941176470588
 40
0.2352941176470588
 40
0.2647058823529412
 40
0.2647058823529412
 40
0.2647058823529412
 40
0.2647058823529412
 40
0.2941176470588235
 40
0.2941176470588235
 40
0.2941176470588235
 40
0.2941176470588235
 40
0.3235294117647059
 40
0.3235294117647059
 40
0.3235294117647059
 40
0.3235294117647059
 40
0.3529411764705883
 40
0.3529411764705883
 40
0.3529411764705883
 40
0.3529411764705883
 40
0.3823529411764706
 40
0.3823529411764706
 40
0.3823529411764706
 40
0.3823529411764706
 40
0.4117647058823529
 40
0.4117647058823529
 40
0.4117647058823529
 40
0.4117647058823529
 40
0.4411764705882353
 40
0.4411764705882353
 40
0.4411764705882353
 40
0.4411764705882353
 40
0.4705882352941176
 40
0.4705882352941176
 40
0.4705882352941176
 40
0.4705882352941176
 40
0.5
 40
0.5
 40
0.5
 40
0.5
 40
0.5294117647058824
 40
0.5294117647058824
 40
0.5294117647058824
 40
0.5294117647058824
 40
0.5588235294117647
 40
0.5588235294117647
 40
0.5588235294117647
 40
0.5588235294117647
 40
0.5882352941176471
 40
0.5882352941176471
 40
0.5882352941176471
 40
0.5882352941176471
 40
0.6176470588235294
 40
0.6176470588235294
 40
0.6176470588235294
 40
0.6176470588235294
 40
0.6470588235294118
 40
0.6470588235294118
 40
0.6470588235294118
 40
0.6470588235294118
 40
0.6764705882352942
 40
0.6764705882352942
 40
0.6764705882352942
 40
0.6764705882352942
 40
0.7058823529411765
 40
0.7058823529411765
 40
0.7058823529411765
 40
0.7058823529411765
 40
0.7352941176470589
 40
0.7352941176470589
 40
0.7352941176470589
 40
0.7352941176470589
 40
0.7647058823529411
 40
0.7647058823529411
 40
0.7647058823529411
 40
0.7647058823529411
 40
0.7941176470588235
 40
0.7941176470588235
 40
0.7941176470588235
 40
0.7941176470588235
 40
0.8235294117647058
 40
0.8235294117647058
 40
0.8235294117647058
 40
0.8235294117647058
 40
0.8529411764705882
 40
0.8529411764705882
 40
0.8529411764705882
 40
0.8529411764705882
 40
0.8823529411764706
 40
0.8823529411764706
 40
0.8823529411764706
 40
0.8823529411764706
 40
0.9117647058823529
 40
0.9117647058823529
 40
0.9117647058823529
 40
0.9117647058823529
 40
0.9411764705882353
 40
0.9411764705882353
 40
0.9411764705882353
 40
0.9411764705882353
 40
1.0
 40
1.0
 40
1.0
 40
1.0
 10
-4.89627
 20
-16.46782
 30
0.0
 10
-5.65763
 20
-16.44704
 30
0.0
 10
-6.38989
 20
-16.32431
 30
0.0
 10
-7.10042
 20
-16.11949
 30
0.0
 10
-7.10042
 20
-16.11949
 30
0.0
 10
-7.56129
 20
-15.98667
 30
0.0
 10
-8.00375
 20
-15.77521
 30
0.0
 10
-8.43548
 20
-15.56079
 30
0.0
 10
-8.43548
 20
-15.56079
 30
0.0
 10
-8.77898
 20
-15.39015
 30
0.0
 10
-8.76102
 20
-15.28383
 30
0.0
 10
-8.46059
 20
-15.05805
 30
0.0
 10
-8.46059
 20
-15.05805
 30
0.0
 10
-7.59488
 20
-14.40739
 30
0.0
 10
-6.64467
 20
-14.05101
 30
0.0
 10
-5.54605
 20
-14.17536
 30
0.0
 10
-5.54605
 20
-14.17536
 30
0.0
 10
-5.50544
 20
-14.17995
 30
0.0
 10
-5.46297
 20
-14.16757
 30
0.0
 10
-5.38384
 20
-14.15907
 30
0.0
 10
-5.38384
 20
-14.15907
 30
0.0
 10
-5.71683
 20
-13.86714
 30
0.0
 10
-6.07719
 20
-13.63247
 30
0.0
 10
-6.32498
 20
-13.31106
 30
0.0
 10
-6.32498
 20
-13.31106
 30
0.0
 10
-6.56893
 20
-12.99458
 30
0.0
 10
-6.8515
 20
-12.66699
 30
0.0
 10
-6.8986
 20
-12.23297
 30
0.0
 10
-6.8986
 20
-12.23297
 30
0.0
 10
-5.64797
 20
-11.78025
 30
0.0
 10
-2.96823
 20
-11.80025
 30
0.0
 10
-1.63085
 20
-13.27395
 30
0.0
 10
-1.63085
 20
-13.27395
 30
0.0
 10
-1.61021
 20
-13.23535
 30
0.0
 10
-1.57652
 20
-13.20113
 30
0.0
 10
-1.57501
 20
-13.16554
 30
0.0
 10
-1.57501
 20
-13.16554
 30
0.0
 10
-1.45884
 20
-10.4579
 30
0.0
 10
-1.34676
 20
-7.75012
 30
0.0
 10
-1.23091
 20
-5.04248
 30
0.0
 10
-1.23091
 20
-5.04248
 30
0.0
 10
-1.1291
 20
-2.66243
 30
0.0
 10
-1.03981
 20
9.06359
 30
0.0
 10
-1.21965
 20
11.44791
 30
0.0
 10
-1.21965
 20
11.44791
 30
0.0
 10
-1.27941
 20
12.24049
 30
0.0
 10
-1.30633
 20
13.04282
 30
0.0
 10
-1.16804
 20
13.83787
 30
0.0
 10
-1.16804
 20
13.83787
 30
0.0
 10
-1.10927
 20
14.17573
 30
0.0
 10
-1.02552
 20
14.34577
 30
0.0
 10
-0.85298
 20
14.31712
 30
0.0
 10
-0.85298
 20
14.31712
 30
0.0
 10
-0.6012
 20
14.27542
 30
0.0
 10
-0.56687
 20
14.04919
 30
0.0
 10
-0.54698
 20
13.85728
 30
0.0
 10
-0.54698
 20
13.85728
 30
0.0
 10
-0.50591
 20
13.461
 30
0.0
 10
-0.49702
 20
13.06137
 30
0.0
 10
-0.47487
 20
12.66312
 30
0.0
 10
-0.47487
 20
12.66312
 30
0.0
 10
-0.44559
 20
12.13664
 30
0.0
 10
-0.40594
 20
11.61047
 30
0.0
 10
-0.38936
 20
11.08356
 30
0.0
 10
-0.38936
 20
11.08356
 30
0.0
 10
-0.36374
 20
10.27115
 30
0.0
 10
-0.32984
 20
9.45782
 30
0.0
 10
-0.3436
 20
8.64562
 30
0.0
 10
-0.3436
 20
8.64562
 30
0.0
 10
-0.36075
 20
7.63311
 30
0.0
 10
-0.37786
 20
-2.72628
 30
0.0
 10
-0.41158
 20
-3.73865
 30
0.0
 10
-0.41158
 20
-3.73865
 30
0.0
 10
-0.46002
 20
-5.19287
 30
0.0
 10
-0.49639
 20
-6.64747
 30
0.0
 10
-0.53865
 20
-8.10187
 30
0.0
 10
-0.53865
 20
-8.10187
 30
0.0
 10
-0.55978
 20
-8.82919
 30
0.0
 10
-0.60631
 20
-9.55666
 30
0.0
 10
-0.5994
 20
-10.28366
 30
0.0
 10
-0.5994
 20
-10.28366
 30
0.0
 10
-0.5861
 20
-11.68006
 30
0.0
 10
-0.68361
 20
-13.07918
 30
0.0
 10
-0.51607
 20
-14.47247
 30
0.0
 10
-0.51607
 20
-14.47247
 30
0.0
 10
-0.49935
 20
-14.61154
 30
0.0
 10
-0.47815
 20
-14.75004
 30
0.0
 10
-0.4615
 20
-14.87118
 30
0.0
 10
-0.4615
 20
-14.87118
 30
0.0
 10
-0.03732
 20
-14.94259
 30
0.0
 10
0.35688
 20
-14.9913
 30
0.0
 10
0.74271
 20
-15.07745
 30
0.0
 10
0.74271
 20
-15.07745
 30
0.0
 10
1.5825
 20
-15.26502
 30
0.0
 10
2.23919
 20
-15.77683
 30
0.0
 10
2.82322
 20
-16.36763
 30
0.0
 10
2.82322
 20
-16.36763
 30
0.0
 10
3.04155
 20
-16.5884
 30
0.0
 10
3.1943
 20
-16.91758
 30
0.0
 10
3.27343
 20
-17.22403
 30
0.0
 10
3.27343
 20
-17.22403
 30
0.0
 10
3.49032
 20
-18.06389
 30
0.0
 10
3.50157
 20
-18.92054
 30
0.0
 10
3.26701
 20
-19.76199
 30
0.0
 10
3.26701
 20
-19.76199
 30
0.0
 10
3.20016
 20
-20.00177
 30
0.0
 10
3.07443
 20
-20.24053
 30
0.0
 10
2.92182
 20
-20.43819
 30
0.0
 10
2.92182
 20
-20.43819
 30
0.0
 10
2.4317
 20
-21.07312
 30
0.0
 10
1.80238
 20
-21.487
 30
0.0
 10
1.0293
 20
-21.76217
 30
0.0
 10
1.0293
 20
-21.76217
 30
0.0
 10
-0.21678
 20
-22.20575
 30
0.0
 10
-1.48381
 20
-22.24374
 30
0.0
 10
-2.76958
 20
-22.15897
 30
0.0
 10
-2.76958
 20
-22.15897
 30
0.0
 10
-3.5785
 20
-22.10567
 30
0.0
 10
-4.27679
 20
-21.78651
 30
0.0
 10
-4.86685
 20
-21.20873
 30
0.0
 10
-4.86685
 20
-21.20873
 30
0.0
 10
-5.33318
 20
-20.75206
 30
0.0
 10
-5.72321
 20
-20.27524
 30
0.0
 10
-5.902
 20
-19.62391
 30
0.0
 10
-5.902
 20
-19.62391
 30
0.0
 10
-6.04449
 20
-19.1048
 30
0.0
 10
-6.02876
 20
-18.60802
 30
0.0
 10
-5.88722
 20
-18.10884
 30
0.0
 10
-5.88722
 20
-18.10884
 30
0.0
 10
-5.70949
 20
-17.4823
 30
0.0
 10
-5.37065
 20
-16.94583
 30
0.0
 10
-4.89627
 20
-16.46782
 30
0.0
  0
SPLINE
  5
65
330
1F
100
AcDbEntity
  8
Layer 1
370
    53
100
AcDbSpline
210
0.0
220
0.0
230
1.0
 70
    11
 71
     3
 72
    24
 73
    20
 74
     0
 42
0.0000000001
 43
0.0000000001
 12
1.0
 22
0.0
 32
0.0
 13
1.0
 23
0.0
 33
0.0
 40
0.0
 40
0.0
 40
0.0
 40
0.0
 40
0.1666666666666667
 40
0.1666666666666667
 40
0.1666666666666667
 40
0.1666666666666667
 40
0.3333333333333333
 40
0.3333333333333333
 40
0.3333333333333333
 40
0.3333333333333333
 40
0.5
 40
0.5
 40
0.5
 40
0.5
 40
0.6666666666666666
 40
0.6666666666666666
 40
0.6666666666666666
 40
0.6666666666666666
 40
1.0
 40
1.0
 40
1.0
 40
1.0
 10
0.55471
 20
-18.56463
 30
0.0
 10
0.53415
 20
-18.523
 30
0.0
 10
0.53101
 20
-18.50737
 30
0.0
 10
0.52148
 20
-18.49876
 30
0.0
 10
0.52148
 20
-18.49876
 30
0.0
 10
-0.02356
 20
-18.00621
 30
0.0
 10
-1.07382
 20
-17.84485
 30
0.0
 10
-1.72741
 20
-18.15255
 30
0.0
 10
-1.72741
 20
-18.15255
 30
0.0
 10
-1.99626
 20
-18.27912
 30
0.0
 10
-2.22369
 20
-18.69124
 30
0.0
 10
-2.14926
 20
-18.92114
 30
0.0
 10
-2.14926
 20
-18.92114
 30
0.0
 10
-2.09137
 20
-19.09982
 30
0.0
 10
-1.95498
 20
-19.18724
 30
0.0
 10
-1.78484
 20
-19.24887
 30
0.0
 10
-1.78484
 20
-19.24887
 30
0.0
 10
-1.11124
 20
-19.49296
 30
0.0
 10
0.05952
 20
-19.15877
 30
0.0
 10
0.55471
 20
-18.56463
 30
0.0
  0
SPLINE
  5
66
330
1F
100
AcDbEntity
  8
Layer 1
370
    53
100
AcDbSpline
210
0.0
220
0.0
230
1.0
 70
    11
 71
     3
 72
    16
 73
    12
 74
     0
 42
0.0000000001
 43
0.0000000001
 12
1.0
 22
0.0
 32
0.0
 13
1.0
 23
0.0
 33
0.0
 40
0.0
 40
0.0
 40
0.0
 40
0.0
 40
0.25
 40
0.25
 40
0.25
 40
0.25
 40
0.5
 40
0.5
 40
0.5
 40
0.5
 40
1.0
 40
1.0
 40
1.0
 40
1.0
 10
-4.48518
 20
-14.02868
 30
0.0
 10
-3.79624
 20
-14.55206
 30
0.0
 10
-2.25551
 20
-14.82952
 30
0.0
 10
-1.57465
 20
-14.52352
 30
0.0
 10
-1.57465
 20
-14.52352
 30
0.0
 10
-2.30519
 20
-14.27351
 30
0.0
 10
-2.9954
 20
-14.05715
 30
0.0
 10
-3.66938
 20
-13.79853
 30
0.0
 10
-3.66938
 20
-13.79853
 30
0.0
 10
-4.02614
 20
-13.66161
 30
0.0
 10
-4.25795
 20
-13.77651
 30
0.0
 10
-4.48518
 20
-14.02868
 30
0.0
  0
SPLINE
  5
67
330
1F
100
AcDbEntity
  8
Layer 1
370
    53
100
AcDbSpline
210
0.0
220
0.0
230
1.0
 70
    11
 71
     3
 72
    28
 73
    24
 74
     0
 42
0.0000000001
 43
0.0000000001
 12
1.0
 22
0.0
 32
0.0
 13
1.0
 23
0.0
 33
0.0
 40
0.0
 40
0.0
 40
0.0
 40
0.0
 40
0.1428571428571428
 40
0.1428571428571428
 40
0.1428571428571428
 40
0.1428571428571428
 40
0.2857142857142857
 40
0.2857142857142857
 40
0.2857142857142857
 40
0.2857142857142857
 40
0.4285714285714285
 40
0.4285714285714285
 40
0.4285714285714285
 40
0.4285714285714285
 40
0.5714285714285714
 40
0.5714285714285714
 40
0.5714285714285714
 40
0.5714285714285714
 40
0.7142857142857143
 40
0.7142857142857143
 40
0.7142857142857143
 40
0.7142857142857143
 40
1.0
 40
1.0
 40
1.0
 40
1.0
 10
-5.03639
 20
-19.30761
 30
0.0
 10
-4.8581
 20
-19.39362
 30
0.0
 10
-4.74323
 20
-19.49148
 30
0.0
 10
-4.6229
 20
-19.49878
 30
0.0
 10
-4.6229
 20
-19.49878
 30
0.0
 10
-4.31306
 20
-19.51748
 30
0.0
 10
-3.99778
 20
-19.52044
 30
0.0
 10
-3.69061
 20
-19.48209
 30
0.0
 10
-3.69061
 20
-19.48209
 30
0.0
 10
-3.48692
 20
-19.45666
 30
0.0
 10
-3.28443
 20
-19.36649
 30
0.0
 10
-3.09964
 20
-19.27025
 30
0.0
 10
-3.09964
 20
-19.27025
 30
0.0
 10
-3.02016
 20
-19.22887
 30
0.0
 10
-2.94876
 20
-19.10187
 30
0.0
 10
-2.94117
 20
-19.00831
 30
0.0
 10
-2.94117
 20
-19.00831
 30
0.0
 10
-2.92844
 20
-18.85076
 30
0.0
 10
-3.06906
 20
-18.79919
 30
0.0
 10
-3.20181
 20
-18.78462
 30
0.0
 10
-3.20181
 20
-18.78462
 30
0.0
 10
-3.84047
 20
-18.71456
 30
0.0
 10
-4.44588
 20
-18.77739
 30
0.0
 10
-5.03639
 20
-19.30761
 30
0.0
  0
SPLINE
  5
68
330
1F
100
AcDbEntity
  8
Layer 1
370
    53
100
AcDbSpline
210
0.0
220
0.0
230
1.0
 70
    11
 71
     3
 72
    16
 73
    12
 74
     0
 42
0.0000000001
 43
0.0000000001
 12
1.0
 22
0.0
 32
0.0
 13
1.0
 23
0.0
 33
0.0
 40
0.0
 40
0.0
 40
0.0
 40
0.0
 40
0.25
 40
0.25
 40
0.25
 40
0.25
 40
0.5
 40
0.5
 40
0.5
 40
0.5
 40
1.0
 40
1.0
 40
1.0
 40
1.0
 10
-5.2391
 20
-19.90144
 30
0.0
 10
-4.88385
 20
-20.54519
 30
0.0
 10
-4.35994
 20
-20.94309
 30
0.0
 10
-3.69933
 20
-21.25424
 30
0.0
 10
-3.69933
 20
-21.25424
 30
0.0
 10
-3.85568
 20
-20.78137
 30
0.0
 10
-3.72512
 20
-20.37116
 30
0.0
 10
-3.56337
 20
-19.99542
 30
0.0
 10
-3.56337
 20
-19.99542
 30
0.0
 10
-4.12383
 20
-19.96399
 30
0.0
 10
-4.65634
 20
-19.93411
 30
0.0
 10
-5.2391
 20
-19.90144
 30
0.0
  0
SPLINE
  5
69
330
1F
100
AcDbEntity
  8
Layer 1
370
    53
100
AcDbSpline
210
0.0
220
0.0
230
1.0
 70
    11
 71
     3
 72
    20
 73
    16
 74
     0
 42
0.0000000001
 43
0.0000000001
 12
1.0
 22
0.0
 32
0.0
 13
1.0
 23
0.0
 33
0.0
 40
0.0
 40
0.0
 40
0.0
 40
0.0
 40
0.2
 40
0.2
 40
0.2
 40
0.2
 40
0.4
 40
0.4
 40
0.4
 40
0.4
 40
0.6
 40
0.6
 40
0.6
 40
0.6
 40
1.0
 40
1.0
 40
1.0
 40
1.0
 10
-3.91202
 20
-18.27602
 30
0.0
 10
-4.09444
 20
-18.06615
 30
0.0
 10
-4.25404
 20
-17.9049
 30
0.0
 10
-4.38647
 20
-17.72378
 30
0.0
 10
-4.38647
 20
-17.72378
 30
0.0
 10
-4.51594
 20
-17.54672
 30
0.0
 10
-4.61771
 20
-17.34941
 30
0.0
 10
-4.73427
 20
-17.15665
 30
0.0
 10
-4.73427
 20
-17.15665
 30
0.0
 10
-5.12437
 20
-17.60705
 30
0.0
 10
-5.43708
 20
-18.44457
 30
0.0
 10
-5.38166
 20
-18.90901
 30
0.0
 10
-5.38166
 20
-18.90901
 30
0.0
 10
-5.00605
 20
-18.45011
 30
0.0
 10
-4.43857
 20
-18.46743
 30
0.0
 10
-3.91202
 20
-18.27602
 30
0.0
  0
SPLINE
  5
6A
330
1F
100
AcDbEntity
  8
Layer 1
370
    53
100
AcDbSpline
210
0.0
220
0.0
230
1.0
 70
    11
 71
     3
 72
    28
 73
    24
 74
     0
 42
0.0000000001
 43
0.0000000001
 12
1.0
 22
0.0
 32
0.0
 13
1.0
 23
0.0
 33
0.0
 40
0.0
 40
0.0
 40
0.0
 40
0.0
 40
0.1428571428571428
 40
0.1428571428571428
 40
0.1428571428571428
 40
0.1428571428571428
 40
0.2857142857142857
 40
0.2857142857142857
 40
0.2857142857142857
 40
0.2857142857142857
 40
0.4285714285714285
 40
0.4285714285714285
 40
0.4285714285714285
 40
0.4285714285714285
 40
0.5714285714285714
 40
0.5714285714285714
 40
0.5714285714285714
 40
0.5714285714285714
 40
0.7142857142857143
 40
0.7142857142857143
 40
0.7142857142857143
 40
0.7142857142857143
 40
1.0
 40
1.0
 40
1.0
 40
1.0
 10
-2.86427
 20
-18.22797
 30
0.0
 10
-2.7064
 20
-18.096
 30
0.0
 10
-2.65948
 20
-17.9793
 30
0.0
 10
-2.77537
 20
-17.83653
 30
0.0
 10
-2.77537
 20
-17.83653
 30
0.0
 10
-2.98968
 20
-17.5724
 30
0.0
 10
-3.19736
 20
-17.30249
 30
0.0
 10
-3.42169
 20
-17.04715
 30
0.0
 10
-3.42169
 20
-17.04715
 30
0.0
 10
-3.4932
 20
-16.96573
 30
0.0
 10
-3.60235
 20
-16.90713
 30
0.0
 10
-3.70543
 20
-16.86604
 30
0.0
 10
-3.70543
 20
-16.86604
 30
0.0
 10
-3.86034
 20
-16.8043
 30
0.0
 10
-4.04159
 20
-16.80751
 30
0.0
 10
-4.12143
 20
-16.9634
 30
0.0
 10
-4.12143
 20
-16.9634
 30
0.0
 10
-4.16545
 20
-17.04937
 30
0.0
 10
-4.12577
 20
-17.21327
 30
0.0
 10
-4.069
 20
-17.30983
 30
0.0
 10
-4.069
 20
-17.30983
 30
0.0
 10
-3.79744
 20
-17.77186
 30
0.0
 10
-3.36144
 20
-18.02809
 30
0.0
 10
-2.86427
 20
-18.22797
 30
0.0
  0
SPLINE
  5
6B
330
1F
100
AcDbEntity
  8
Layer 1
370
    53
100
AcDbSpline
210
0.0
220
0.0
230
1.0
 70
    11
 71
     3
 72
    20
 73
    16
 74
     0
 42
0.0000000001
 43
0.0000000001
 12
1.0
 22
0.0
 32
0.0
 13
1.0
 23
0.0
 33
0.0
 40
0.0
 40
0.0
 40
0.0
 40
0.0
 40
0.2
 40
0.2
 40
0.2
 40
0.2
 40
0.4
 40
0.4
 40
0.4
 40
0.4
 40
0.6
 40
0.6
 40
0.6
 40
0.6
 40
1.0
 40
1.0
 40
1.0
 40
1.0
 10
0.30664
 20
-17.52972
 30
0.0
 10
0.87338
 20
-17.83596
 30
0.0
 10
1.00874
 20
-17.81779
 30
0.0
 10
1.36367
 20
-17.4096
 30
0.0
 10
1.36367
 20
-17.4096
 30
0.0
 10
1.47493
 20
-17.28164
 30
0.0
 10
1.57442
 20
-17.1393
 30
0.0
 10
1.65577
 20
-16.99071
 30
0.0
 10
1.65577
 20
-16.99071
 30
0.0
 10
1.74364
 20
-16.83009
 30
0.0
 10
1.80499
 20
-16.65447
 30
0.0
 10
1.69112
 20
-16.4275
 30
0.0
 10
1.69112
 20
-16.4275
 30
0.0
 10
1.01541
 20
-16.52324
 30
0.0
 10
0.74959
 20
-17.09068
 30
0.0
 10
0.30664
 20
-17.52972
 30
0.0
  0
SPLINE
  5
6C
330
1F
100
AcDbEntity
  8
Layer 1
370
    53
100
AcDbSpline
210
0.0
220
0.0
230
1.0
 70
    11
 71
     3
 72
    24
 73
    20
 74
     0
 42
0.0000000001
 43
0.0000000001
 12
1.0
 22
0.0
 32
0.0
 13
1.0
 23
0.0
 33
0.0
 40
0.0
 40
0.0
 40
0.0
 40
0.0
 40
0.1666666666666667
 40
0.1666666666666667
 40
0.1666666666666667
 40
0.1666666666666667
 40
0.3333333333333333
 40
0.3333333333333333
 40
0.3333333333333333
 40
0.3333333333333333
 40
0.5
 40
0.5
 40
0.5
 40
0.5
 40
0.6666666666666666
 40
0.6666666666666666
 40
0.6666666666666666
 40
0.6666666666666666
 40
1.0
 40
1.0
 40
1.0
 40
1.0
 10
-0.93817
 20
-17.30983
 30
0.0
 10
-0.74347
 20
-17.32204
 30
0.0
 10
-0.57911
 20
-17.33237
 30
0.0
 10
-0.36985
 20
-17.3455
 30
0.0
 10
-0.36985
 20
-17.3455
 30
0.0
 10
-0.25026
 20
-16.99095
 30
0.0
 10
-0.11193
 20
-16.66276
 30
0.0
 10
-0.03238
 20
-16.32092
 30
0.0
 10
-0.03238
 20
-16.32092
 30
0.0
 10
0.0398
 20
-16.01058
 30
0.0
 10
-0.16778
 20
-15.8633
 30
0.0
 10
-0.46009
 20
-16.00279
 30
0.0
 10
-0.46009
 20
-16.00279
 30
0.0
 10
-0.56589
 20
-16.05331
 30
0.0
 10
-0.66258
 20
-16.15882
 30
0.0
 10
-0.72241
 20
-16.26286
 30
0.0
 10
-0.72241
 20
-16.26286
 30
0.0
 10
-0.89644
 20
-16.56536
 30
0.0
 10
-0.96064
 20
-16.89849
 30
0.0
 10
-0.93817
 20
-17.30983
 30
0.0
  0
SPLINE
  5
6D
330
1F
100
AcDbEntity
  8
Layer 1
370
    53
100
AcDbSpline
210
0.0
220
0.0
230
1.0
 70
    11
 71
     3
 72
    24
 73
    20
 74
     0
 42
0.0000000001
 43
0.0000000001
 12
1.0
 22
0.0
 32
0.0
 13
1.0
 23
0.0
 33
0.0
 40
0.0
 40
0.0
 40
0.0
 40
0.0
 40
0.1666666666666667
 40
0.1666666666666667
 40
0.1666666666666667
 40
0.1666666666666667
 40
0.3333333333333333
 40
0.3333333333333333
 40
0.3333333333333333
 40
0.3333333333333333
 40
0.5
 40
0.5
 40
0.5
 40
0.5
 40
0.6666666666666666
 40
0.6666666666666666
 40
0.6666666666666666
 40
0.6666666666666666
 40
1.0
 40
1.0
 40
1.0
 40
1.0
 10
0.44034
 20
-19.61319
 30
0.0
 10
0.54177
 20
-20.02509
 30
0.0
 10
0.62379
 20
-20.40207
 30
0.0
 10
0.99219
 20
-20.6125
 30
0.0
 10
0.99219
 20
-20.6125
 30
0.0
 10
1.07633
 20
-20.66055
 30
0.0
 10
1.23572
 20
-20.68097
 30
0.0
 10
1.30038
 20
-20.63303
 30
0.0
 10
1.30038
 20
-20.63303
 30
0.0
 10
1.38533
 20
-20.5701
 30
0.0
 10
1.46947
 20
-20.41572
 30
0.0
 10
1.45137
 20
-20.32008
 30
0.0
 10
1.45137
 20
-20.32008
 30
0.0
 10
1.38279
 20
-19.9581
 30
0.0
 10
1.24958
 20
-19.61827
 30
0.0
 10
0.90887
 20
-19.39436
 30
0.0
 10
0.90887
 20
-19.39436
 30
0.0
 10
0.75883
 20
-19.46442
 30
0.0
 10
0.62125
 20
-19.5287
 30
0.0
 10
0.44034
 20
-19.61319
 30
0.0
  0
SPLINE
  5
6E
330
1F
100
AcDbEntity
  8
Layer 1
370
    53
100
AcDbSpline
210
0.0
220
0.0
230
1.0
 70
    11
 71
     3
 72
    28
 73
    24
 74
     0
 42
0.0000000001
 43
0.0000000001
 12
1.0
 22
0.0
 32
0.0
 13
1.0
 23
0.0
 33
0.0
 40
0.0
 40
0.0
 40
0.0
 40
0.0
 40
0.1428571428571428
 40
0.1428571428571428
 40
0.1428571428571428
 40
0.1428571428571428
 40
0.2857142857142857
 40
0.2857142857142857
 40
0.2857142857142857
 40
0.2857142857142857
 40
0.4285714285714285
 40
0.4285714285714285
 40
0.4285714285714285
 40
0.4285714285714285
 40
0.5714285714285714
 40
0.5714285714285714
 40
0.5714285714285714
 40
0.5714285714285714
 40
0.7142857142857143
 40
0.7142857142857143
 40
0.7142857142857143
 40
0.7142857142857143
 40
1.0
 40
1.0
 40
1.0
 40
1.0
 10
-2.24225
 20
-20.96969
 30
0.0
 10
-2.05482
 20
-21.22633
 30
0.0
 10
-1.70003
 20
-21.19233
 30
0.0
 10
-1.54421
 20
-20.93021
 30
0.0
 10
-1.54421
 20
-20.93021
 30
0.0
 10
-1.38429
 20
-20.66125
 30
0.0
 10
-1.43502
 20
-20.37931
 30
0.0
 10
-1.52495
 20
-20.10785
 30
0.0
 10
-1.52495
 20
-20.10785
 30
0.0
 10
-1.55497
 20
-20.01719
 30
0.0
 10
-1.65068
 20
-19.90388
 30
0.0
 10
-1.73344
 20
-19.88747
 30
0.0
 10
-1.73344
 20
-19.88747
 30
0.0
 10
-1.81871
 20
-19.87061
 30
0.0
 10
-1.98031
 20
-19.93478
 30
0.0
 10
-2.01192
 20
-20.00622
 30
0.0
 10
-2.01192
 20
-20.00622
 30
0.0
 10
-2.12421
 20
-20.25997
 30
0.0
 10
-2.20133
 20
-20.53023
 30
0.0
 10
-2.27725
 20
-20.79838
 30
0.0
 10
-2.27725
 20
-20.79838
 30
0.0
 10
-2.2939
 20
-20.85726
 30
0.0
 10
-2.25072
 20
-20.93314
 30
0.0
 10
-2.24225
 20
-20.96969
 30
0.0
  0
SPLINE
  5
6F
330
1F
100
AcDbEntity
  8
Layer 1
370
    53
100
AcDbSpline
210
0.0
220
0.0
230
1.0
 70
    11
 71
     3
 72
    24
 73
    20
 74
     0
 42
0.0000000001
 43
0.0000000001
 12
1.0
 22
0.0
 32
0.0
 13
1.0
 23
0.0
 33
0.0
 40
0.0
 40
0.0
 40
0.0
 40
0.0
 40
0.1666666666666667
 40
0.1666666666666667
 40
0.1666666666666667
 40
0.1666666666666667
 40
0.3333333333333333
 40
0.3333333333333333
 40
0.3333333333333333
 40
0.3333333333333333
 40
0.5
 40
0.5
 40
0.5
 40
0.5
 40
0.6666666666666666
 40
0.6666666666666666
 40
0.6666666666666666
 40
0.6666666666666666
 40
1.0
 40
1.0
 40
1.0
 40
1.0
 10
-5.7737
 20
-15.1618
 30
0.0
 10
-5.76213
 20
-15.13591
 30
0.0
 10
-5.75055
 20
-15.11001
 30
0.0
 10
-5.73895
 20
-15.08412
 30
0.0
 10
-5.73895
 20
-15.08412
 30
0.0
 10
-5.90426
 20
-14.93306
 30
0.0
 10
-6.06086
 20
-14.77043
 30
0.0
 10
-6.2388
 20
-14.63616
 30
0.0
 10
-6.2388
 20
-14.63616
 30
0.0
 10
-6.31997
 20
-14.57492
 30
0.0
 10
-6.4468
 20
-14.53492
 30
0.0
 10
-6.54699
 20
-14.54486
 30
0.0
 10
-6.54699
 20
-14.54486
 30
0.0
 10
-6.99889
 20
-14.58981
 30
0.0
 10
-7.40642
 20
-14.75173
 30
0.0
 10
-7.82242
 20
-15.0947
 30
0.0
 10
-7.82242
 20
-15.0947
 30
0.0
 10
-7.08719
 20
-15.11876
 30
0.0
 10
-6.43043
 20
-15.14028
 30
0.0
 10
-5.7737
 20
-15.1618
 30
0.0
  0
SPLINE
  5
70
330
1F
100
AcDbEntity
  8
Layer 1
370
    53
100
AcDbSpline
210
0.0
220
0.0
230
1.0
 70
    11
 71
     3
 72
    28
 73
    24
 74
     0
 42
0.0000000001
 43
0.0000000001
 12
1.0
 22
0.0
 32
0.0
 13
1.0
 23
0.0
 33
0.0
 40
0.0
 40
0.0
 40
0.0
 40
0.0
 40
0.1428571428571428
 40
0.1428571428571428
 40
0.1428571428571428
 40
0.1428571428571428
 40
0.2857142857142857
 40
0.2857142857142857
 40
0.2857142857142857
 40
0.2857142857142857
 40
0.4285714285714285
 40
0.4285714285714285
 40
0.4285714285714285
 40
0.4285714285714285
 40
0.5714285714285714
 40
0.5714285714285714
 40
0.5714285714285714
 40
0.5714285714285714
 40
0.7142857142857143
 40
0.7142857142857143
 40
0.7142857142857143
 40
0.7142857142857143
 40
1.0
 40
1.0
 40
1.0
 40
1.0
 10
-3.46353
 20
-13.51024
 30
0.0
 10
-3.44635
 20
-13.48145
 30
0.0
 10
-3.42921
 20
-13.45263
 30
0.0
 10
-3.41203
 20
-13.42381
 30
0.0
 10
-3.41203
 20
-13.42381
 30
0.0
 10
-3.63646
 20
-13.08525
 30
0.0
 10
-3.88866
 20
-12.76715
 30
0.0
 10
-4.21989
 20
-12.52239
 30
0.0
 10
-4.21989
 20
-12.52239
 30
0.0
 10
-4.44609
 20
-12.35524
 30
0.0
 10
-4.71413
 20
-12.37084
 30
0.0
 10
-5.05117
 20
-12.36251
 30
0.0
 10
-5.05117
 20
-12.36251
 30
0.0
 10
-4.86886
 20
-12.61757
 30
0.0
 10
-4.73674
 20
-12.81269
 30
0.0
 10
-4.59288
 20
-12.99867
 30
0.0
 10
-4.59288
 20
-12.99867
 30
0.0
 10
-4.53509
 20
-13.07332
 30
0.0
 10
-4.46168
 20
-13.15407
 30
0.0
 10
-4.37776
 20
-13.18706
 30
0.0
 10
-4.37776
 20
-13.18706
 30
0.0
 10
-4.07708
 20
-13.3052
 30
0.0
 10
-3.7689
 20
-13.40409
 30
0.0
 10
-3.46353
 20
-13.51024
 30
0.0
  0
SPLINE
  5
71
330
1F
100
AcDbEntity
  8
Layer 1
370
    53
100
AcDbSpline
210
0.0
220
0.0
230
1.0
 70
    11
 71
     3
 72
    16
 73
    12
 74
     0
 42
0.0000000001
 43
0.0000000001
 12
1.0
 22
0.0
 32
0.0
 13
1.0
 23
0.0
 33
0.0
 40
0.0
 40
0.0
 40
0.0
 40
0.0
 40
0.25
 40
0.25
 40
0.25
 40
0.25
 40
0.5
 40
0.5
 40
0.5
 40
0.5
 40
1.0
 40
1.0
 40
1.0
 40
1.0
 10
1.74502
 20
-19.30899
 30
0.0
 10
1.85752
 20
-19.7531
 30
0.0
 10
1.96635
 20
-20.18275
 30
0.0
 10
2.07025
 20
-20.59271
 30
0.0
 10
2.07025
 20
-20.59271
 30
0.0
 10
2.51161
 20
-20.23609
 30
0.0
 10
2.71198
 20
-19.87205
 30
0.0
 10
2.75061
 20
-19.3177
 30
0.0
 10
2.75061
 20
-19.3177
 30
0.0
 10
2.41667
 20
-19.31481
 30
0.0
 10
2.0827
 20
-19.31191
 30
0.0
 10
1.74502
 20
-19.30899
 30
0.0
  0
SPLINE
  5
72
330
1F
100
AcDbEntity
  8
Layer 1
370
    53
100
AcDbSpline
210
0.0
220
0.0
230
1.0
 70
    11
 71
     3
 72
    24
 73
    20
 74
     0
 42
0.0000000001
 43
0.0000000001
 12
1.0
 22
0.0
 32
0.0
 13
1.0
 23
0.0
 33
0.0
 40
0.0
 40
0.0
 40
0.0
 40
0.0
 40
0.1666666666666667
 40
0.1666666666666667
 40
0.1666666666666667
 40
0.1666666666666667
 40
0.3333333333333333
 40
0.3333333333333333
 40
0.3333333333333333
 40
0.3333333333333333
 40
0.5
 40
0.5
 40
0.5
 40
0.5
 40
0.6666666666666666
 40
0.6666666666666666
 40
0.6666666666666666
 40
0.6666666666666666
 40
1.0
 40
1.0
 40
1.0
 40
1.0
 10
-2.35701
 20
-15.18568
 30
0.0
 10
-3.01067
 20
-14.93405
 30
0.0
 10
-4.4221
 20
-14.6907
 30
0.0
 10
-4.75191
 20
-14.7263
 30
0.0
 10
-4.75191
 20
-14.7263
 30
0.0
 10
-4.65345
 20
-14.82966
 30
0.0
 10
-4.54861
 20
-14.91024
 30
0.0
 10
-4.48232
 20
-15.01515
 30
0.0
 10
-4.48232
 20
-15.01515
 30
0.0
 10
-4.32121
 20
-15.27017
 30
0.0
 10
-4.08922
 20
-15.30309
 30
0.0
 10
-3.81694
 20
-15.28679
 30
0.0
 10
-3.81694
 20
-15.28679
 30
0.0
 10
-3.4902
 20
-15.26721
 30
0.0
 10
-3.16145
 20
-15.28291
 30
0.0
 10
-2.83435
 20
-15.26686
 30
0.0
 10
-2.83435
 20
-15.26686
 30
0.0
 10
-2.6743
 20
-15.25899
 30
0.0
 10
-2.51608
 20
-15.21391
 30
0.0
 10
-2.35701
 20
-15.18568
 30
0.0
  0
SPLINE
  5
73
330
1F
100
AcDbEntity
  8
Layer 1
370
    53
100
AcDbSpline
210
0.0
220
0.0
230
1.0
 70
    11
 71
     3
 72
    16
 73
    12
 74
     0
 42
0.0000000001
 43
0.0000000001
 12
1.0
 22
0.0
 32
0.0
 13
1.0
 23
0.0
 33
0.0
 40
0.0
 40
0.0
 40
0.0
 40
0.0
 40
0.25
 40
0.25
 40
0.25
 40
0.25
 40
0.5
 40
0.5
 40
0.5
 40
0.5
 40
1.0
 40
1.0
 40
1.0
 40
1.0
 10
1.82877
 20
-17.77924
 30
0.0
 10
2.1921
 20
-17.82721
 30
0.0
 10
2.54713
 20
-17.8741
 30
0.0
 10
2.90298
 20
-17.92112
 30
0.0
 10
2.90298
 20
-17.92112
 30
0.0
 10
2.93191
 20
-17.39905
 30
0.0
 10
2.80282
 20
-17.02394
 30
0.0
 10
2.52808
 20
-16.75039
 30
0.0
 10
2.52808
 20
-16.75039
 30
0.0
 10
2.29987
 20
-17.0861
 30
0.0
 10
2.06725
 20
-17.4284
 30
0.0
 10
1.82877
 20
-17.77924
 30
0.0
  0
SPLINE
  5
74
330
1F
100
AcDbEntity
  8
Layer 1
370
    53
100
AcDbSpline
210
0.0
220
0.0
230
1.0
 70
    11
 71
     3
 72
    24
 73
    20
 74
     0
 42
0.0000000001
 43
0.0000000001
 12
1.0
 22
0.0
 32
0.0
 13
1.0
 23
0.0
 33
0.0
 40
0.0
 40
0.0
 40
0.0
 40
0.0
 40
0.1666666666666667
 40
0.1666666666666667
 40
0.1666666666666667
 40
0.1666666666666667
 40
0.3333333333333333
 40
0.3333333333333333
 40
0.3333333333333333
 40
0.3333333333333333
 40
0.5
 40
0.5
 40
0.5
 40
0.5
 40
0.6666666666666666
 40
0.6666666666666666
 40
0.6666666666666666
 40
0.6666666666666666
 40
1.0
 40
1.0
 40
1.0
 40
1.0
 10
-1.8217
 20
-15.96568
 30
0.0
 10
-2.23071
 20
-16.08767
 30
0.0
 10
-2.22352
 20
-16.40651
 30
0.0
 10
-2.27837
 20
-16.66919
 30
0.0
 10
-2.27837
 20
-16.66919
 30
0.0
 10
-2.3332
 20
-16.93193
 30
0.0
 10
-2.25654
 20
-17.18392
 30
0.0
 10
-2.07129
 20
-17.38264
 30
0.0
 10
-2.07129
 20
-17.38264
 30
0.0
 10
-1.95999
 20
-17.50206
 30
0.0
 10
-1.77965
 20
-17.45221
 30
0.0
 10
-1.746
 20
-17.27759
 30
0.0
 10
-1.746
 20
-17.27759
 30
0.0
 10
-1.69238
 20
-16.99956
 30
0.0
 10
-1.65985
 20
-16.71272
 30
0.0
 10
-1.66401
 20
-16.43028
 30
0.0
 10
-1.66401
 20
-16.43028
 30
0.0
 10
-1.66623
 20
-16.27834
 30
0.0
 10
-1.76343
 20
-16.12781
 30
0.0
 10
-1.8217
 20
-15.96568
 30
0.0
  0
SPLINE
  5
75
330
1F
100
AcDbEntity
  8
Layer 1
370
    53
100
AcDbSpline
210
0.0
220
0.0
230
1.0
 70
    11
 71
     3
 72
    16
 73
    12
 74
     0
 42
0.0000000001
 43
0.0000000001
 12
1.0
 22
0.0
 32
0.0
 13
1.0
 23
0.0
 33
0.0
 40
0.0
 40
0.0
 40
0.0
 40
0.0
 40
0.25
 40
0.25
 40
0.25
 40
0.25
 40
0.5
 40
0.5
 40
0.5
 40
0.5
 40
1.0
 40
1.0
 40
1.0
 40
1.0
 10
-3.7249
 20
-15.64006
 30
0.0
 10
-4.10386
 20
-15.6239
 30
0.0
 10
-4.48546
 20
-15.63001
 30
0.0
 10
-4.86103
 20
-15.58538
 30
0.0
 10
-4.86103
 20
-15.58538
 30
0.0
 10
-5.2494
 20
-15.53924
 30
0.0
 10
-5.46629
 20
-15.76459
 30
0.0
 10
-5.7774
 20
-16.04558
 30
0.0
 10
-5.7774
 20
-16.04558
 30
0.0
 10
-4.99258
 20
-16.10686
 30
0.0
 10
-4.3157
 20
-16.11222
 30
0.0
 10
-3.7249
 20
-15.64006
 30
0.0
  0
SPLINE
  5
76
330
1F
100
AcDbEntity
  8
Layer 1
370
    53
100
AcDbSpline
210
0.0
220
0.0
230
1.0
 70
    11
 71
     3
 72
    16
 73
    12
 74
     0
 42
0.0000000001
 43
0.0000000001
 12
1.0
 22
0.0
 32
0.0
 13
1.0
 23
0.0
 33
0.0
 40
0.0
 40
0.0
 40
0.0
 40
0.0
 40
0.25
 40
0.25
 40
0.25
 40
0.25
 40
0.5
 40
0.5
 40
0.5
 40
0.5
 40
1.0
 40
1.0
 40
1.0
 40
1.0
 10
2.79524
 20
-18.8539
 30
0.0
 10
2.76561
 20
-18.47456
 30
0.0
 10
2.47647
 20
-18.46204
 30
0.0
 10
2.26318
 20
-18.40916
 30
0.0
 10
2.26318
 20
-18.40916
 30
0.0
 10
1.92081
 20
-18.32424
 30
0.0
 10
1.56701
 20
-18.30223
 30
0.0
 10
1.25417
 20
-18.62149
 30
0.0
 10
1.25417
 20
-18.62149
 30
0.0
 10
1.75878
 20
-18.92336
 30
0.0
 10
2.23969
 20
-19.09831
 30
0.0
 10
2.79524
 20
-18.8539
 30
0.0
  0
SPLINE
  5
77
330
1F
100
AcDbEntity
  8
Layer 1
370
    53
100
AcDbSpline
210
0.0
220
0.0
230
1.0
 70
    11
 71
     3
 72
    16
 73
    12
 74
     0
 42
0.0000000001
 43
0.0000000001
 12
1.0
 22
0.0
 32
0.0
 13
1.0
 23
0.0
 33
0.0
 40
0.0
 40
0.0
 40
0.0
 40
0.0
 40
0.25
 40
0.25
 40
0.25
 40
0.25
 40
0.5
 40
0.5
 40
0.5
 40
0.5
 40
1.0
 40
1.0
 40
1.0
 40
1.0
 10
-2.56617
 20
-19.56623
 30
0.0
 10
-3.11248
 20
-19.7616
 30
0.0
 10
-3.18187
 20
-20.22783
 30
0.0
 10
-3.34673
 20
-20.62132
 30
0.0
 10
-3.34673
 20
-20.62132
 30
0.0
 10
-3.40441
 20
-20.7589
 30
0.0
 10
-3.46173
 20
-20.92273
 30
0.0
 10
-3.24573
 20
-21.0455
 30
0.0
 10
-3.24573
 20
-21.0455
 30
0.0
 10
-2.65348
 20
-20.74881
 30
0.0
 10
-2.61238
 20
-20.19082
 30
0.0
 10
-2.56617
 20
-19.56623
 30
0.0
  0
SPLINE
  5
78
330
1F
100
AcDbEntity
  8
Layer 1
370
    53
100
AcDbSpline
210
0.0
220
0.0
230
1.0
 70
    11
 71
     3
 72
    16
 73
    12
 74
     0
 42
0.0000000001
 43
0.0000000001
 12
1.0
 22
0.0
 32
0.0
 13
1.0
 23
0.0
 33
0.0
 40
0.0
 40
0.0
 40
0.0
 40
0.0
 40
0.25
 40
0.25
 40
0.25
 40
0.25
 40
0.5
 40
0.5
 40
0.5
 40
0.5
 40
1.0
 40
1.0
 40
1.0
 40
1.0
 10
-0.04462
 20
-21.02941
 30
0.0
 10
0.01831
 20
-20.66386
 30
0.0
 10
-0.08766
 20
-20.18733
 30
0.0
 10
-0.26479
 20
-19.95813
 30
0.0
 10
-0.26479
 20
-19.95813
 30
0.0
 10
-0.37842
 20
-19.81099
 30
0.0
 10
-0.49706
 20
-19.82845
 30
0.0
 10
-0.6248
 20
-19.92832
 30
0.0
 10
-0.6248
 20
-19.92832
 30
0.0
 10
-0.67705
 20
-20.73065
 30
0.0
 10
-0.55026
 20
-20.98154
 30
0.0
 10
-0.04462
 20
-21.02941
 30
0.0
  0
SPLINE
  5
79
330
1F
100
AcDbEntity
  8
Layer 1
370
    53
100
AcDbSpline
210
0.0
220
0.0
230
1.0
 70
    11
 71
     3
 72
    16
 73
    12
 74
     0
 42
0.0000000001
 43
0.0000000001
 12
1.0
 22
0.0
 32
0.0
 13
1.0
 23
0.0
 33
0.0
 40
0.0
 40
0.0
 40
0.0
 40
0.0
 40
0.25
 40
0.25
 40
0.25
 40
0.25
 40
0.5
 40
0.5
 40
0.5
 40
0.5
 40
1.0
 40
1.0
 40
1.0
 40
1.0
 10
-2.87132
 20
-16.71797
 30
0.0
 10
-2.82349
 20
-16.48429
 30
0.0
 10
-2.76884
 20
-16.21738
 30
0.0
 10
-2.71483
 20
-15.95351
 30
0.0
 10
-2.71483
 20
-15.95351
 30
0.0
 10
-2.95334
 20
-16.02769
 30
0.0
 10
-3.24008
 20
-16.10037
 30
0.0
 10
-3.47976
 20
-16.31235
 30
0.0
 10
-3.47976
 20
-16.31235
 30
0.0
 10
-3.2404
 20
-16.47191
 30
0.0
 10
-3.02923
 20
-16.61267
 30
0.0
 10
-2.87132
 20
-16.71797
 30
0.0
  0
SPLINE
  5
7A
330
1F
100
AcDbEntity
  8
Layer 1
370
    53
100
AcDbSpline
210
0.0
220
0.0
230
1.0
 70
    11
 71
     3
 72
    12
 73
     8
 74
     0
 42
0.0000000001
 43
0.0000000001
 12
1.0
 22
0.0
 32
0.0
 13
1.0
 23
0.0
 33
0.0
 40
0.0
 40
0.0
 40
0.0
 40
0.0
 40
0.3333333333333333
 40
0.3333333333333333
 40
0.3333333333333333
 40
0.3333333333333333
 40
1.0
 40
1.0
 40
1.0
 40
1.0
 10
-5.45824
 20
-13.54851
 30
0.0
 10
-4.96764
 20
-13.91618
 30
0.0
 10
-4.8564
 20
-13.91794
 30
0.0
 10
-4.52229
 20
-13.56322
 30
0.0
 10
-4.52229
 20
-13.56322
 30
0.0
 10
-5.00866
 20
-13.23754
 30
0.0
 10
-5.10367
 20
-13.23606
 30
0.0
 10
-5.45824
 20
-13.54851
 30
0.0
  0
SPLINE
  5
7B
330
1F
100
AcDbEntity
  8
Layer 1
370
    53
100
AcDbSpline
210
0.0
220
0.0
230
1.0
 70
    11
 71
     3
 72
    16
 73
    12
 74
     0
 42
0.0000000001
 43
0.0000000001
 12
1.0
 22
0.0
 32
0.0
 13
1.0
 23
0.0
 33
0.0
 40
0.0
 40
0.0
 40
0.0
 40
0.0
 40
0.25
 40
0.25
 40
0.25
 40
0.25
 40
0.5
 40
0.5
 40
0.5
 40
0.5
 40
1.0
 40
1.0
 40
1.0
 40
1.0
 10
1.36822
 20
-15.93184
 30
0.0
 10
1.03745
 20
-15.84958
 30
0.0
 10
0.78289
 20
-15.78622
 30
0.0
 10
0.50236
 20
-15.71644
 30
0.0
 10
0.50236
 20
-15.71644
 30
0.0
 10
0.52836
 20
-15.98183
 30
0.0
 10
0.5479
 20
-16.18221
 30
0.0
 10
0.56921
 20
-16.39984
 30
0.0
 10
0.56921
 20
-16.39984
 30
0.0
 10
0.83454
 20
-16.24444
 30
0.0
 10
1.06194
 20
-16.11127
 30
0.0
 10
1.36822
 20
-15.93184
 30
0.0
  0
SPLINE
  5
7C
330
1F
100
AcDbEntity
  8
Layer 1
370
    53
100
AcDbSpline
210
0.0
220
0.0
230
1.0
 70
    11
 71
     3
 72
    16
 73
    12
 74
     0
 42
0.0000000001
 43
0.0000000001
 12
1.0
 22
0.0
 32
0.0
 13
1.0
 23
0.0
 33
0.0
 40
0.0
 40
0.0
 40
0.0
 40
0.0
 40
0.25
 40
0.25
 40
0.25
 40
0.25
 40
0.5
 40
0.5
 40
0.5
 40
0.5
 40
1.0
 40
1.0
 40
1.0
 40
1.0
 10
-0.55862
 20
-21.51392
 30
0.0
 10
-0.70086
 20
-21.31488
 30
0.0
 10
-0.8045
 20
-21.16985
 30
0.0
 10
-0.91739
 20
-21.01192
 30
0.0
 10
-0.91739
 20
-21.01192
 30
0.0
 10
-1.06397
 20
-21.18763
 30
0.0
 10
-1.20681
 20
-21.35884
 30
0.0
 10
-1.39431
 20
-21.58363
 30
0.0
 10
-1.39431
 20
-21.58363
 30
0.0
 10
-1.09985
 20
-21.55907
 30
0.0
 10
-0.85636
 20
-21.53875
 30
0.0
 10
-0.55862
 20
-21.51392
 30
0.0
  0
SPLINE
  5
7D
330
1F
100
AcDbEntity
  8
Layer 1
370
    53
100
AcDbSpline
210
0.0
220
0.0
230
1.0
 70
    11
 71
     3
 72
    12
 73
     8
 74
     0
 42
0.0000000001
 43
0.0000000001
 12
1.0
 22
0.0
 32
0.0
 13
1.0
 23
0.0
 33
0.0
 40
0.0
 40
0.0
 40
0.0
 40
0.0
 40
0.3333333333333333
 40
0.3333333333333333
 40
0.3333333333333333
 40
0.3333333333333333
 40
1.0
 40
1.0
 40
1.0
 40
1.0
 10
-4.81506
 20
-15.24072
 30
0.0
 10
-5.25656
 20
-14.60279
 30
0.0
 10
-5.41513
 20
-14.49442
 30
0.0
 10
-5.77077
 20
-14.59669
 30
0.0
 10
-5.77077
 20
-14.59669
 30
0.0
 10
-5.43944
 20
-14.78768
 30
0.0
 10
-5.32916
 20
-15.23959
 30
0.0
 10
-4.81506
 20
-15.24072
 30
0.0
  0
SPLINE
  5
7E
330
1F
100
AcDbEntity
  8
Layer 1
370
    53
100
AcDbSpline
210
0.0
220
0.0
230
1.0
 70
    11
 71
     3
 72
    12
 73
     8
 74
     0
 42
0.0000000001
 43
0.0000000001
 12
1.0
 22
0.0
 32
0.0
 13
1.0
 23
0.0
 33
0.0
 40
0.0
 40
0.0
 40
0.0
 40
0.0
 40
0.3333333333333333
 40
0.3333333333333333
 40
0.3333333333333333
 40
0.3333333333333333
 40
1.0
 40
1.0
 40
1.0
 40
1.0
 10
-1.6353
 20
-14.08911
 30
0.0
 10
-1.79278
 20
-13.70776
 30
0.0
 10
-2.0502
 20
-13.42479
 30
0.0
 10
-2.39162
 20
-13.22054
 30
0.0
 10
-2.39162
 20
-13.22054
 30
0.0
 10
-2.12605
 20
-13.50152
 30
0.0
 10
-2.08435
 20
-13.97763
 30
0.0
 10
-1.6353
 20
-14.08911
 30
0.0
  0
SPLINE
  5
7F
330
1F
100
AcDbEntity
  8
Layer 1
370
    53
100
AcDbSpline
210
0.0
220
0.0
230
1.0
 70
    11
 71
     3
 72
    16
 73
    12
 74
     0
 42
0.0000000001
 43
0.0000000001
 12
1.0
 22
0.0
 32
0.0
 13
1.0
 23
0.0
 33
0.0
 40
0.0
 40
0.0
 40
0.0
 40
0.0
 40
0.25
 40
0.25
 40
0.25
 40
0.25
 40
0.5
 40
0.5
 40
0.5
 40
0.5
 40
1.0
 40
1.0
 40
1.0
 40
1.0
 10
-1.14942
 20
-16.21611
 30
0.0
 10
-0.99105
 20
-15.96476
 30
0.0
 10
-0.87217
 20
-15.77616
 30
0.0
 10
-0.71613
 20
-15.52848
 30
0.0
 10
-0.71613
 20
-15.52848
 30
0.0
 10
-0.98156
 20
-15.53871
 30
0.0
 10
-1.16892
 20
-15.54591
 30
0.0
 10
-1.38225
 20
-15.55409
 30
0.0
 10
-1.38225
 20
-15.55409
 30
0.0
 10
-1.30446
 20
-15.77521
 30
0.0
 10
-1.24068
 20
-15.95668
 30
0.0
 10
-1.14942
 20
-16.21611
 30
0.0
  0
SPLINE
  5
80
330
1F
100
AcDbEntity
  8
Layer 1
370
    53
100
AcDbSpline
210
0.0
220
0.0
230
1.0
 70
    11
 71
     3
 72
    12
 73
     8
 74
     0
 42
0.0000000001
 43
0.0000000001
 12
1.0
 22
0.0
 32
0.0
 13
1.0
 23
0.0
 33
0.0
 40
0.0
 40
0.0
 40
0.0
 40
0.0
 40
0.3333333333333333
 40
0.3333333333333333
 40
0.3333333333333333
 40
0.3333333333333333
 40
1.0
 40
1.0
 40
1.0
 40
1.0
 10
-6.68626
 20
-15.82587
 30
0.0
 10
-6.23083
 20
-15.97661
 30
0.0
 10
-6.15607
 20
-15.94758
 30
0.0
 10
-5.85741
 20
-15.54051
 30
0.0
 10
-5.85741
 20
-15.54051
 30
0.0
 10
-6.19922
 20
-15.39869
 30
0.0
 10
-6.40591
 20
-15.63269
 30
0.0
 10
-6.68626
 20
-15.82587
 30
0.0
  0
SPLINE
  5
81
330
1F
100
AcDbEntity
  8
Layer 1
370
    53
100
AcDbSpline
210
0.0
220
0.0
230
1.0
 70
    11
 71
     3
 72
    20
 73
    16
 74
     0
 42
0.0000000001
 43
0.0000000001
 12
1.0
 22
0.0
 32
0.0
 13
1.0
 23
0.0
 33
0.0
 40
0.0
 40
0.0
 40
0.0
 40
0.0
 40
0.2
 40
0.2
 40
0.2
 40
0.2
 40
0.4
 40
0.4
 40
0.4
 40
0.4
 40
0.6
 40
0.6
 40
0.6
 40
0.6
 40
1.0
 40
1.0
 40
1.0
 40
1.0
 10
-3.2658
 20
-12.81085
 30
0.0
 10
-3.2851
 20
-12.82546
 30
0.0
 10
-3.30439
 20
-12.84006
 30
0.0
 10
-3.32366
 20
-12.85467
 30
0.0
 10
-3.32366
 20
-12.85467
 30
0.0
 10
-3.17524
 20
-13.12151
 30
0.0
 10
-3.03572
 20
-13.39386
 30
0.0
 10
-2.87425
 20
-13.65255
 30
0.0
 10
-2.87425
 20
-13.65255
 30
0.0
 10
-2.80539
 20
-13.76297
 30
0.0
 10
-2.68516
 20
-13.82125
 30
0.0
 10
-2.49756
 20
-13.71502
 30
0.0
 10
-2.49756
 20
-13.71502
 30
0.0
 10
-2.76101
 20
-13.40493
 30
0.0
 10
-3.01342
 20
-13.10789
 30
0.0
 10
-3.2658
 20
-12.81085
 30
0.0
  0
SPLINE
  5
82
330
1F
100
AcDbEntity
  8
Layer 1
370
    53
100
AcDbSpline
210
0.0
220
0.0
230
1.0
 70
    11
 71
     3
 72
    20
 73
    16
 74
     0
 42
0.0000000001
 43
0.0000000001
 12
1.0
 22
0.0
 32
0.0
 13
1.0
 23
0.0
 33
0.0
 40
0.0
 40
0.0
 40
0.0
 40
0.0
 40
0.2
 40
0.2
 40
0.2
 40
0.2
 40
0.4
 40
0.4
 40
0.4
 40
0.4
 40
0.6
 40
0.6
 40
0.6
 40
0.6
 40
1.0
 40
1.0
 40
1.0
 40
1.0
 10
-2.60286
 20
-21.16114
 30
0.0
 10
-2.80461
 20
-21.25875
 30
0.0
 10
-2.97412
 20
-21.34077
 30
0.0
 10
-3.14367
 20
-21.42283
 30
0.0
 10
-3.14367
 20
-21.42283
 30
0.0
 10
-3.14367
 20
-21.42283
 30
0.0
 10
-3.1357
 20
-21.50245
 30
0.0
 10
-3.1357
 20
-21.50245
 30
0.0
 10
-3.1357
 20
-21.50245
 30
0.0
 10
-2.88187
 20
-21.52422
 30
0.0
 10
-2.62801
 20
-21.54599
 30
0.0
 10
-2.30815
 20
-21.57343
 30
0.0
 10
-2.30815
 20
-21.57343
 30
0.0
 10
-2.43074
 20
-21.40195
 30
0.0
 10
-2.50733
 20
-21.29477
 30
0.0
 10
-2.60286
 20
-21.16114
 30
0.0
  0
SPLINE
  5
83
330
1F
100
AcDbEntity
  8
Layer 1
370
    53
100
AcDbSpline
210
0.0
220
0.0
230
1.0
 70
    11
 71
     3
 72
    12
 73
     8
 74
     0
 42
0.0000000001
 43
0.0000000001
 12
1.0
 22
0.0
 32
0.0
 13
1.0
 23
0.0
 33
0.0
 40
0.0
 40
0.0
 40
0.0
 40
0.0
 40
0.3333333333333333
 40
0.3333333333333333
 40
0.3333333333333333
 40
0.3333333333333333
 40
1.0
 40
1.0
 40
1.0
 40
1.0
 10
-6.87017
 20
-15.45401
 30
0.0
 10
-7.21155
 20
-15.45436
 30
0.0
 10
-7.49243
 20
-15.45457
 30
0.0
 10
-7.84122
 20
-15.45492
 30
0.0
 10
-7.84122
 20
-15.45492
 30
0.0
 10
-7.29188
 20
-15.80075
 30
0.0
 10
-7.2421
 20
-15.80156
 30
0.0
 10
-6.87017
 20
-15.45401
 30
0.0
  0
SPLINE
  5
84
330
1F
100
AcDbEntity
  8
Layer 1
370
    53
100
AcDbSpline
210
0.0
220
0.0
230
1.0
 70
    11
 71
     3
 72
    12
 73
     8
 74
     0
 42
0.0000000001
 43
0.0000000001
 12
1.0
 22
0.0
 32
0.0
 13
1.0
 23
0.0
 33
0.0
 40
0.0
 40
0.0
 40
0.0
 40
0.0
 40
0.3333333333333333
 40
0.3333333333333333
 40
0.3333333333333333
 40
0.3333333333333333
 40
1.0
 40
1.0
 40
1.0
 40
1.0
 10
-5.95344
 20
-12.57989
 30
0.0
 10
-5.73433
 20
-12.67175
 30
0.0
 10
-5.51518
 20
-12.76358
 30
0.0
 10
-5.29607
 20
-12.85545
 30
0.0
 10
-5.29607
 20
-12.85545
 30
0.0
 10
-5.57286
 20
-12.40668
 30
0.0
 10
-5.57286
 20
-12.40668
 30
0.0
 10
-5.95344
 20
-12.57989
 30
0.0
  0
SPLINE
  5
85
330
1F
100
AcDbEntity
  8
Layer 1
370
    53
100
AcDbSpline
210
0.0
220
0.0
230
1.0
 70
    11
 71
     3
 72
    20
 73
    16
 74
     0
 42
0.0000000001
 43
0.0000000001
 12
1.0
 22
0.0
 32
0.0
 13
1.0
 23
0.0
 33
0.0
 40
0.0
 40
0.0
 40
0.0
 40
0.0
 40
0.2
 40
0.2
 40
0.2
 40
0.2
 40
0.4
 40
0.4
 40
0.4
 40
0.4
 40
0.6
 40
0.6
 40
0.6
 40
0.6
 40
1.0
 40
1.0
 40
1.0
 40
1.0
 10
-5.57318
 20
-13.1225
 30
0.0
 10
-5.7834
 20
-13.02989
 30
0.0
 10
-5.9552
 20
-12.95422
 30
0.0
 10
-6.127
 20
-12.87855
 30
0.0
 10
-6.127
 20
-12.87855
 30
0.0
 10
-6.14715
 20
-12.90819
 30
0.0
 10
-6.16729
 20
-12.93785
 30
0.0
 10
-6.1874
 20
-12.96749
 30
0.0
 10
-6.1874
 20
-12.96749
 30
0.0
 10
-6.06834
 20
-13.08637
 30
0.0
 10
-5.94924
 20
-13.20526
 30
0.0
 10
-5.82256
 20
-13.3318
 30
0.0
 10
-5.82256
 20
-13.3318
 30
0.0
 10
-5.72858
 20
-13.25292
 30
0.0
 10
-5.66811
 20
-13.20216
 30
0.0
 10
-5.57318
 20
-13.1225
 30
0.0
  0
SPLINE
  5
86
330
1F
100
AcDbEntity
  8
Layer 1
370
    53
100
AcDbSpline
210
0.0
220
0.0
230
1.0
 70
    11
 71
     3
 72
    16
 73
    12
 74
     0
 42
0.0000000001
 43
0.0000000001
 12
1.0
 22
0.0
 32
0.0
 13
1.0
 23
0.0
 33
0.0
 40
0.0
 40
0.0
 40
0.0
 40
0.0
 40
0.25
 40
0.25
 40
0.25
 40
0.25
 40
0.5
 40
0.5
 40
0.5
 40
0.5
 40
1.0
 40
1.0
 40
1.0
 40
1.0
 10
0.85274
 20
-21.3237
 30
0.0
 10
0.74444
 20
-21.21194
 30
0.0
 10
0.67049
 20
-21.13567
 30
0.0
 10
0.57073
 20
-21.03276
 30
0.0
 10
0.57073
 20
-21.03276
 30
0.0
 10
0.52377
 20
-21.16315
 30
0.0
 10
0.48874
 20
-21.26041
 30
0.0
 10
0.43816
 20
-21.40085
 30
0.0
 10
0.43816
 20
-21.40085
 30
0.0
 10
0.59369
 20
-21.37192
 30
0.0
 10
0.69815
 20
-21.35245
 30
0.0
 10
0.85274
 20
-21.3237
 30
0.0
  0
ENDSEC
  0
SECTION
  2
OBJECTS
  0
DICTIONARY
  5
C
330
0
100
AcDbDictionary
281
     1
  3
ACAD_GROUP
350
D
  3
ACAD_LAYOUT
350
1A
  3
ACAD_MATERIAL
350
3B
  3
ACAD_MLEADERSTYLE
350
A8
  3
ACAD_MLINESTYLE
350
17
  3
ACAD_PLOTSETTINGS
350
19
  3
ACAD_PLOTSTYLENAME
350
E
  3
ACAD_TABLESTYLE
350
A7
  3
ACAD_VISUALSTYLE
350
2A
  0
DICTIONARY
  5
D
102
{ACAD_REACTORS
330
C
102
}
330
C
100
AcDbDictionary
281
     1
  0
DICTIONARY
  5
1A
102
{ACAD_REACTORS
330
C
102
}
330
C
100
AcDbDictionary
281
     1
  3
Layout1
350
1E
  3
Layout2
350
26
  3
Model
350
22
  0
DICTIONARY
  5
3B
102
{ACAD_REACTORS
330
C
102
}
330
C
100
AcDbDictionary
281
     1
  3
ByBlock
350
3D
  3
ByLayer
350
3C
  3
Global
350
3E
  0
DICTIONARY
  5
A8
102
{ACAD_REACTORS
330
C
102
}
330
C
100
AcDbDictionary
281
     1
  0
DICTIONARY
  5
17
102
{ACAD_REACTORS
330
C
102
}
330
C
100
AcDbDictionary
281
     1
  3
Standard
350
18
  0
DICTIONARY
  5
19
102
{ACAD_REACTORS
330
C
102
}
330
C
100
AcDbDictionary
281
     1
  0
ACDBDICTIONARYWDFLT
  5
E
102
{ACAD_REACTORS
330
C
102
}
330
C
100
AcDbDictionary
281
     1
  3
Normal
350
F
100
AcDbDictionaryWithDefault
340
F
  0
DICTIONARY
  5
A7
102
{ACAD_REACTORS
330
C
102
}
330
C
100
AcDbDictionary
281
     1
  0
DICTIONARY
  5
2A
102
{ACAD_REACTORS
330
C
102
}
330
C
100
AcDbDictionary
281
     1
  3
2dWireframe
350
2F
  3
3D Hidden
350
31
  3
3dWireframe
350
30
  3
Basic
350
32
  3
Brighten
350
36
  3
ColorChange
350
3A
  3
Conceptual
350
34
  3
Dim
350
35
  3
Facepattern
350
39
  3
Flat
350
2B
  3
FlatWithEdges
350
2C
  3
Gouraud
350
2D
  3
GouraudWithEdges
350
2E
  3
Linepattern
350
38
  3
Realistic
350
33
  3
Thicken
350
37
  0
LAYOUT
  5
1E
102
{ACAD_REACTORS
330
1A
102
}
330
1A
100
AcDbPlotSettings
  1

  2
none_device
  4

  6

 40
0.0
 41
0.0
 42
0.0
 43
0.0
 44
0.0
 45
0.0
 46
0.0
 47
0.0
 48
0.0
 49
0.0
140
0.0
141
0.0
142
1.0
143
1.0
 70
   688
 72
     0
 73
     0
 74
     5
  7

 75
    16
 76
     0
 77
     2
 78
   300
147
1.0
148
0.0
149
0.0
100
AcDbLayout
  1
Layout1
 70
     1
 71
     1
 10
0.0
 20
0.0
 11
12.0
 21
9.0
 12
0.0
 22
0.0
 32
0.0
 14
1.000000000000000E+20
 24
1.000000000000000E+20
 34
1.000000000000000E+20
 15
-1.000000000000000E+20
 25
-1.000000000000000E+20
 35
-1.000000000000000E+20
146
0.0
 13
0.0
 23
0.0
 33
0.0
 16
1.0
 26
0.0
 36
0.0
 17
0.0
 27
1.0
 37
0.0
 76
     0
330
1B
  0
LAYOUT
  5
26
102
{ACAD_REACTORS
330
1A
102
}
330
1A
100
AcDbPlotSettings
  1

  2
none_device
  4

  6

 40
0.0
 41
0.0
 42
0.0
 43
0.0
 44
0.0
 45
0.0
 46
0.0
 47
0.0
 48
0.0
 49
0.0
140
0.0
141
0.0
142
1.0
143
1.0
 70
   688
 72
     0
 73
     0
 74
     5
  7

 75
    16
 76
     0
 77
     2
 78
   300
147
1.0
148
0.0
149
0.0
100
AcDbLayout
  1
Layout2
 70
     1
 71
     2
 10
0.0
 20
0.0
 11
0.0
 21
0.0
 12
0.0
 22
0.0
 32
0.0
 14
0.0
 24
0.0
 34
0.0
 15
0.0
 25
0.0
 35
0.0
146
0.0
 13
0.0
 23
0.0
 33
0.0
 16
1.0
 26
0.0
 36
0.0
 17
0.0
 27
1.0
 37
0.0
 76
     0
330
23
  0
LAYOUT
  5
22
102
{ACAD_REACTORS
330
1A
102
}
330
1A
100
AcDbPlotSettings
  1

  2
none_device
  4

  6

 40
0.0
 41
0.0
 42
0.0
 43
0.0
 44
0.0
 45
0.0
 46
0.0
 47
0.0
 48
0.0
 49
0.0
140
0.0
141
0.0
142
1.0
143
1.0
 70
  1712
 72
     0
 73
     0
 74
     0
  7

 75
     0
 76
     0
 77
     2
 78
   300
147
1.0
148
0.0
149
0.0
100
AcDbLayout
  1
Model
 70
     1
 71
     0
 10
0.0
 20
0.0
 11
12.0
 21
9.0
 12
0.0
 22
0.0
 32
0.0
 14
-8.71597
 24
-22.22157
 34
0.0
 15
8.71597
 25
22.22157
 35
0.0
146
0.0
 13
0.0
 23
0.0
 33
0.0
 16
1.0
 26
0.0
 36
0.0
 17
0.0
 27
1.0
 37
0.0
 76
     0
330
1F
331
29
  0
MATERIAL
  5
3D
102
{ACAD_REACTORS
330
3B
102
}
330
3B
100
AcDbMaterial
  1
ByBlock
 72
     1
 94
      127
  0
MATERIAL
  5
3C
102
{ACAD_REACTORS
330
3B
102
}
330
3B
100
AcDbMaterial
  1
ByLayer
 72
     1
 94
      127
  0
MATERIAL
  5
3E
102
{ACAD_REACTORS
330
3B
102
}
330
3B
100
AcDbMaterial
  1
Global
 72
     1
 94
      127
  0
MLINESTYLE
  5
18
102
{ACAD_REACTORS
330
17
102
}
330
17
100
AcDbMlineStyle
  2
Standard
 70
     0
  3

 62
   256
 51
90.0
 52
90.0
 71
     2
 49
0.5
 62
   256
  6
BYLAYER
 49
-0.5
 62
   256
  6
BYLAYER
  0
ACDBPLACEHOLDER
  5
F
102
{ACAD_REACTORS
330
E
102
}
330
E
  0
VISUALSTYLE
  5
2F
102
{ACAD_REACTORS
330
2A
102
}
102
{ACAD_XDICTIONARY
360
8F
102
}
330
2A
100
AcDbVisualStyle
  2
2dWireframe
 70
     4
 71
     0
 72
     2
 73
     0
 90
        0
 40
-0.6
 41
-30.0
 62
     5
 63
     7
421
 16777215
 74
     1
 91
        4
 64
     7
 65
   257
 75
     1
175
     1
 42
1.0
 92
        0
 66
   257
 43
1.0
 76
     1
 77
     6
 78
     2
 67
     7
 79
     5
170
     0
171
     0
290
     0
174
     0
 93
        1
 44
0.0
173
     0
291
     0
 45
0.0
  0
VISUALSTYLE
  5
31
102
{ACAD_REACTORS
330
2A
102
}
102
{ACAD_XDICTIONARY
360
93
102
}
330
2A
100
AcDbVisualStyle
  2
3D Hidden
 70
     6
 71
     1
 72
     2
 73
     2
 90
        0
 40
-0.6
 41
-30.0
 62
     5
 63
     7
421
 16777215
 74
     2
 91
        2
 64
     7
 65
   257
 75
     2
175
     1
 42
40.0
 92
        0
 66
   257
 43
1.0
 76
     1
 77
     6
 78
     2
 67
     7
 79
     3
170
     0
171
     0
290
     0
174
     0
 93
        1
 44
0.0
173
     0
291
     0
 45
0.0
  0
VISUALSTYLE
  5
30
102
{ACAD_REACTORS
330
2A
102
}
102
{ACAD_XDICTIONARY
360
91
102
}
330
2A
100
AcDbVisualStyle
  2
3dWireframe
 70
     5
 71
     0
 72
     2
 73
     0
 90
        0
 40
-0.6
 41
-30.0
 62
     5
 63
     7
421
 16777215
 74
     1
 91
        4
 64
     7
 65
   257
 75
     1
175
     1
 42
1.0
 92
        0
 66
   257
 43
1.0
 76
     1
 77
     6
 78
     2
 67
     7
 79
     5
170
     0
171
     0
290
     0
174
     0
 93
        1
 44
0.0
173
     0
291
     0
 45
0.0
  0
VISUALSTYLE
  5
32
102
{ACAD_REACTORS
330
2A
102
}
102
{ACAD_XDICTIONARY
360
95
102
}
330
2A
100
AcDbVisualStyle
  2
Basic
 70
     7
 71
     1
 72
     0
 73
     1
 90
        0
 40
-0.6
 41
-30.0
 62
     5
 63
     7
421
 16777215
 74
     0
 91
        4
 64
     7
 65
   257
 75
     1
175
     1
 42
1.0
 92
        8
 66
     7
 43
1.0
 76
     1
 77
     6
 78
     2
 67
     7
 79
     5
170
     0
171
     0
290
     0
174
     0
 93
        1
 44
0.0
173
     0
291
     1
 45
0.0
  0
VISUALSTYLE
  5
36
102
{ACAD_REACTORS
330
2A
102
}
102
{ACAD_XDICTIONARY
360
9D
102
}
330
2A
100
AcDbVisualStyle
  2
Brighten
 70
    12
 71
     2
 72
     2
 73
     0
 90
        0
 40
-0.6
 41
-30.0
 62
     5
 63
     7
421
 16777215
 74
     1
 91
        4
 64
     7
 65
   257
 75
     1
175
     1
 42
1.0
 92
        8
 66
     7
 43
1.0
 76
     1
 77
     6
 78
     2
 67
     7
 79
     5
170
     0
171
     0
290
     0
174
     0
 93
        1
 44
50.0
173
     0
291
     1
 45
0.0
  0
VISUALSTYLE
  5
3A
102
{ACAD_REACTORS
330
2A
102
}
102
{ACAD_XDICTIONARY
360
A5
102
}
330
2A
100
AcDbVisualStyle
  2
ColorChange
 70
    16
 71
     2
 72
     2
 73
     3
 90
        0
 40
-0.6
 41
-30.0
 62
     5
 63
     8
421
  8421504
 74
     1
 91
        4
 64
     7
 65
   257
 75
     1
175
     1
 42
1.0
 92
        8
 66
     8
424
  8421504
 43
1.0
 76
     1
 77
     6
 78
     2
 67
     7
 79
     5
170
     0
171
     0
290
     0
174
     0
 93
        1
 44
0.0
173
     0
291
     1
 45
0.0
  0
VISUALSTYLE
  5
34
102
{ACAD_REACTORS
330
2A
102
}
102
{ACAD_XDICTIONARY
360
99
102
}
330
2A
100
AcDbVisualStyle
  2
Conceptual
 70
     9
 71
     3
 72
     2
 73
     0
 90
        0
 40
-0.6
 41
-30.0
 62
     5
 63
     7
421
 16777215
 74
     2
 91
        2
 64
     7
 65
   257
 75
     1
175
     1
 42
40.0
 92
        8
 66
     7
 43
1.0
 76
     1
 77
     6
 78
     2
 67
     7
 79
     3
170
     0
171
     0
290
     0
174
     0
 93
        1
 44
0.0
173
     0
291
     0
 45
0.0
  0
VISUALSTYLE
  5
35
102
{ACAD_REACTORS
330
2A
102
}
102
{ACAD_XDICTIONARY
360
9B
102
}
330
2A
100
AcDbVisualStyle
  2
Dim
 70
    11
 71
     2
 72
     2
 73
     0
 90
        0
 40
-0.6
 41
-30.0
 62
     5
 63
     7
421
 16777215
 74
     1
 91
        4
 64
     7
 65
   257
 75
     1
175
     1
 42
1.0
 92
        8
 66
     7
 43
1.0
 76
     1
 77
     6
 78
     2
 67
     7
 79
     5
170
     0
171
     0
290
     0
174
     0
 93
        1
 44
-50.0
173
     0
291
     1
 45
0.0
  0
VISUALSTYLE
  5
39
102
{ACAD_REACTORS
330
2A
102
}
102
{ACAD_XDICTIONARY
360
A3
102
}
330
2A
100
AcDbVisualStyle
  2
Facepattern
 70
    15
 71
     2
 72
     2
 73
     0
 90
        0
 40
-0.6
 41
-30.0
 62
     5
 63
     7
421
 16777215
 74
     1
 91
        4
 64
     7
 65
   257
 75
     1
175
     1
 42
1.0
 92
        8
 66
     7
 43
1.0
 76
     1
 77
     6
 78
     2
 67
     7
 79
     5
170
     0
171
     0
290
     0
174
     0
 93
        1
 44
0.0
173
     0
291
     1
 45
0.0
  0
VISUALSTYLE
  5
2B
102
{ACAD_REACTORS
330
2A
102
}
102
{ACAD_XDICTIONARY
360
87
102
}
330
2A
100
AcDbVisualStyle
  2
Flat
 70
     0
 71
     2
 72
     1
 73
     1
 90
        2
 40
-0.6
 41
30.0
 62
     5
 63
     7
421
 16777215
 74
     0
 91
        4
 64
     7
 65
   257
 75
     1
175
     1
 42
1.0
 92
        8
 66
     7
 43
1.0
 76
     1
 77
     6
 78
     2
 67
     7
 79
     5
170
     0
171
     0
290
     0
174
     0
 93
       13
 44
0.0
173
     0
291
     1
 45
0.0
  0
VISUALSTYLE
  5
2C
102
{ACAD_REACTORS
330
2A
102
}
102
{ACAD_XDICTIONARY
360
89
102
}
330
2A
100
AcDbVisualStyle
  2
FlatWithEdges
 70
     1
 71
     2
 72
     1
 73
     1
 90
        2
 40
-0.6
 41
30.0
 62
     5
 63
     7
421
 16777215
 74
     1
 91
        4
 64
     7
 65
   257
 75
     1
175
     1
 42
1.0
 92
        0
 66
   257
 43
1.0
 76
     1
 77
     6
 78
     2
 67
     7
 79
     5
170
     0
171
     0
290
     0
174
     0
 93
       13
 44
0.0
173
     0
291
     1
 45
0.0
  0
VISUALSTYLE
  5
2D
102
{ACAD_REACTORS
330
2A
102
}
102
{ACAD_XDICTIONARY
360
8B
102
}
330
2A
100
AcDbVisualStyle
  2
Gouraud
 70
     2
 71
     2
 72
     2
 73
     1
 90
        2
 40
-0.6
 41
30.0
 62
     5
 63
     7
421
 16777215
 74
     0
 91
        4
 64
     7
 65
   257
 75
     1
175
     1
 42
1.0
 92
        0
 66
     7
 43
1.0
 76
     1
 77
     6
 78
     2
 67
     7
 79
     5
170
     0
171
     0
290
     0
174
     0
 93
       13
 44
0.0
173
     0
291
     1
 45
0.0
  0
VISUALSTYLE
  5
2E
102
{ACAD_REACTORS
330
2A
102
}
102
{ACAD_XDICTIONARY
360
8D
102
}
330
2A
100
AcDbVisualStyle
  2
GouraudWithEdges
 70
     3
 71
     2
 72
     2
 73
     1
 90
        2
 40
-0.6
 41
30.0
 62
     5
 63
     7
421
 16777215
 74
     1
 91
        4
 64
     7
 65
   257
 75
     1
175
     1
 42
1.0
 92
        0
 66
   257
 43
1.0
 76
     1
 77
     6
 78
     2
 67
     7
 79
     5
170
     0
171
     0
290
     0
174
     0
 93
       13
 44
0.0
173
     0
291
     1
 45
0.0
  0
VISUALSTYLE
  5
38
102
{ACAD_REACTORS
330
2A
102
}
102
{ACAD_XDICTIONARY
360
A1
102
}
330
2A
100
AcDbVisualStyle
  2
Linepattern
 70
    14
 71
     2
 72
     2
 73
     0
 90
        0
 40
-0.6
 41
-30.0
 62
     5
 63
     7
421
 16777215
 74
     1
 91
        4
 64
     7
 65
   257
 75
     7
175
     7
 42
1.0
 92
        8
 66
     7
 43
1.0
 76
     1
 77
     6
 78
     2
 67
     7
 79
     5
170
     0
171
     0
290
     0
174
     0
 93
        1
 44
0.0
173
     0
291
     1
 45
0.0
  0
VISUALSTYLE
  5
33
102
{ACAD_REACTORS
330
2A
102
}
102
{ACAD_XDICTIONARY
360
97
102
}
330
2A
100
AcDbVisualStyle
  2
Realistic
 70
     8
 71
     2
 72
     2
 73
     0
 90
        0
 40
-0.6
 41
-30.0
 62
     5
 63
     7
421
 16777215
 74
     1
 91
        0
 64
     7
 65
   257
 75
     1
175
     1
 42
1.0
 92
        8
 66
     8
424
  7895160
 43
1.0
 76
     1
 77
     6
 78
     2
 67
     7
 79
     5
170
     0
171
     0
290
     0
174
     0
 93
       13
 44
0.0
173
     0
291
     0
 45
0.0
  0
VISUALSTYLE
  5
37
102
{ACAD_REACTORS
330
2A
102
}
102
{ACAD_XDICTIONARY
360
9F
102
}
330
2A
100
AcDbVisualStyle
  2
Thicken
 70
    13
 71
     2
 72
     2
 73
     0
 90
        0
 40
-0.6
 41
-30.0
 62
     5
 63
     7
421
 16777215
 74
     1
 91
        4
 64
     7
 65
   257
 75
     1
175
     1
 42
1.0
 92
       12
 66
     7
 43
1.0
 76
     1
 77
     6
 78
     2
 67
     7
 79
     5
170
     0
171
     0
290
     0
174
     0
 93
        1
 44
0.0
173
     0
291
     1
 45
0.0
  0
DICTIONARY
  5
8F
330
2F
100
AcDbDictionary
280
     1
281
     1
  3
ACAD_XREC_ROUNDTRIP
360
90
  0
DICTIONARY
  5
93
330
31
100
AcDbDictionary
280
     1
281
     1
  3
ACAD_XREC_ROUNDTRIP
360
94
  0
DICTIONARY
  5
91
330
30
100
AcDbDictionary
280
     1
281
     1
  3
ACAD_XREC_ROUNDTRIP
360
92
  0
DICTIONARY
  5
95
330
32
100
AcDbDictionary
280
     1
281
     1
  3
ACAD_XREC_ROUNDTRIP
360
96
  0
DICTIONARY
  5
9D
330
36
100
AcDbDictionary
280
     1
281
     1
  3
ACAD_XREC_ROUNDTRIP
360
9E
  0
DICTIONARY
  5
A5
330
3A
100
AcDbDictionary
280
     1
281
     1
  3
ACAD_XREC_ROUNDTRIP
360
A6
  0
DICTIONARY
  5
99
330
34
100
AcDbDictionary
280
     1
281
     1
  3
ACAD_XREC_ROUNDTRIP
360
9A
  0
DICTIONARY
  5
9B
330
35
100
AcDbDictionary
280
     1
281
     1
  3
ACAD_XREC_ROUNDTRIP
360
9C
  0
DICTIONARY
  5
A3
330
39
100
AcDbDictionary
280
     1
281
     1
  3
ACAD_XREC_ROUNDTRIP
360
A4
  0
DICTIONARY
  5
87
330
2B
100
AcDbDictionary
280
     1
281
     1
  3
ACAD_XREC_ROUNDTRIP
360
88
  0
DICTIONARY
  5
89
330
2C
100
AcDbDictionary
280
     1
281
     1
  3
ACAD_XREC_ROUNDTRIP
360
8A
  0
DICTIONARY
  5
8B
330
2D
100
AcDbDictionary
280
     1
281
     1
  3
ACAD_XREC_ROUNDTRIP
360
8C
  0
DICTIONARY
  5
8D
330
2E
100
AcDbDictionary
280
     1
281
     1
  3
ACAD_XREC_ROUNDTRIP
360
8E
  0
DICTIONARY
  5
A1
330
38
100
AcDbDictionary
280
     1
281
     1
  3
ACAD_XREC_ROUNDTRIP
360
A2
  0
DICTIONARY
  5
97
330
33
100
AcDbDictionary
280
     1
281
     1
  3
ACAD_XREC_ROUNDTRIP
360
98
  0
DICTIONARY
  5
9F
330
37
100
AcDbDictionary
280
     1
281
     1
  3
ACAD_XREC_ROUNDTRIP
360
A0
  0
XRECORD
  5
90
102
{ACAD_REACTORS
330
8F
102
}
330
8F
100
AcDbXrecord
280
     1
102
RTVSPropertyOp0
 70
     1
102
RTVSPropertyOp1
 70
     1
102
RTVSPropertyOp2
 70
     1
102
RTVSPropertyOp3
 70
     1
102
RTVSPropertyOp4
 70
     1
102
RTVSPropertyOp5
 70
     1
102
RTVSPropertyOp6
 70
     1
102
RTVSPropertyOp7
 70
     1
102
RTVSPropertyOp8
 70
     1
102
RTVSPropertyOp9
 70
     1
102
RTVSPropertyOp10
 70
     1
102
RTVSPropertyOp11
 70
     1
102
RTVSPropertyOp12
 70
     1
102
RTVSPropertyOp13
 70
     1
102
RTVSPropertyOp14
 70
     1
102
RTVSPropertyOp15
 70
     1
102
RTVSPropertyOp16
 70
     1
102
RTVSPropertyOp17
 70
     1
102
RTVSPropertyOp18
 70
     1
102
RTVSPropertyOp19
 70
     1
102
RTVSPropertyOp20
 70
     1
102
RTVSPropertyOp21
 70
     1
102
RTVSPropertyOp22
 70
     1
102
RTVSPropertyOp23
 70
     1
102
RTVSPropertyOp24
 70
     1
102
RTVSPropertyOp25
 70
     1
102
RTVSPropertyOp26
 70
     1
102
RTVSPropertyOp27
 70
     1
102
RTVSPropertyOp28
 70
     1
102
RTVSPropertyOp29
 70
     1
102
RTVSPropertyOp30
 70
     1
102
RTVSPropertyOp31
 70
     1
102
RTVSPropertyOp32
 70
     1
  0
XRECORD
  5
94
102
{ACAD_REACTORS
330
93
102
}
330
93
100
AcDbXrecord
280
     1
102
RTVSPropertyOp0
 70
     1
102
RTVSPropertyOp1
 70
     1
102
RTVSPropertyOp2
 70
     1
102
RTVSPropertyOp3
 70
     1
102
RTVSPropertyOp4
 70
     1
102
RTVSPropertyOp5
 70
     1
102
RTVSPropertyOp6
 70
     1
102
RTVSPropertyOp7
 70
     1
102
RTVSPropertyOp8
 70
     1
102
RTVSPropertyOp9
 70
     1
102
RTVSPropertyOp10
 70
     1
102
RTVSPropertyOp11
 70
     1
102
RTVSPropertyOp12
 70
     1
102
RTVSPropertyOp13
 70
     1
102
RTVSPropertyOp14
 70
     1
102
RTVSPropertyOp15
 70
     1
102
RTVSPropertyOp16
 70
     1
102
RTVSPropertyOp17
 70
     1
102
RTVSPropertyOp18
 70
     1
102
RTVSPropertyOp19
 70
     1
102
RTVSPropertyOp20
 70
     1
102
RTVSPropertyOp21
 70
     1
102
RTVSPropertyOp22
 70
     1
102
RTVSPropertyOp23
 70
     1
102
RTVSPropertyOp24
 70
     1
102
RTVSPropertyOp25
 70
     1
102
RTVSPropertyOp26
 70
     1
102
RTVSPropertyOp27
 70
     1
102
RTVSPropertyOp28
 70
     1
102
RTVSPropertyOp29
 70
     1
102
RTVSPropertyOp30
 70
     1
102
RTVSPropertyOp31
 70
     1
102
RTVSPropertyOp32
 70
     1
  0
XRECORD
  5
92
102
{ACAD_REACTORS
330
91
102
}
330
91
100
AcDbXrecord
280
     1
102
RTVSPropertyOp0
 70
     1
102
RTVSPropertyOp1
 70
     1
102
RTVSPropertyOp2
 70
     1
102
RTVSPropertyOp3
 70
     1
102
RTVSPropertyOp4
 70
     1
102
RTVSPropertyOp5
 70
     1
102
RTVSPropertyOp6
 70
     1
102
RTVSPropertyOp7
 70
     1
102
RTVSPropertyOp8
 70
     1
102
RTVSPropertyOp9
 70
     1
102
RTVSPropertyOp10
 70
     1
102
RTVSPropertyOp11
 70
     1
102
RTVSPropertyOp12
 70
     1
102
RTVSPropertyOp13
 70
     1
102
RTVSPropertyOp14
 70
     1
102
RTVSPropertyOp15
 70
     1
102
RTVSPropertyOp16
 70
     1
102
RTVSPropertyOp17
 70
     1
102
RTVSPropertyOp18
 70
     1
102
RTVSPropertyOp19
 70
     1
102
RTVSPropertyOp20
 70
     1
102
RTVSPropertyOp21
 70
     1
102
RTVSPropertyOp22
 70
     1
102
RTVSPropertyOp23
 70
     1
102
RTVSPropertyOp24
 70
     1
102
RTVSPropertyOp25
 70
     1
102
RTVSPropertyOp26
 70
     1
102
RTVSPropertyOp27
 70
     1
102
RTVSPropertyOp28
 70
     1
102
RTVSPropertyOp29
 70
     1
102
RTVSPropertyOp30
 70
     1
102
RTVSPropertyOp31
 70
     1
102
RTVSPropertyOp32
 70
     1
  0
XRECORD
  5
96
102
{ACAD_REACTORS
330
95
102
}
330
95
100
AcDbXrecord
280
     1
102
RTVSPropertyOp0
 70
     1
102
RTVSPropertyOp1
 70
     1
102
RTVSPropertyOp2
 70
     1
102
RTVSPropertyOp3
 70
     1
102
RTVSPropertyOp4
 70
     1
102
RTVSPropertyOp5
 70
     1
102
RTVSPropertyOp6
 70
     1
102
RTVSPropertyOp7
 70
     1
102
RTVSPropertyOp8
 70
     1
102
RTVSPropertyOp9
 70
     1
102
RTVSPropertyOp10
 70
     1
102
RTVSPropertyOp11
 70
     1
102
RTVSPropertyOp12
 70
     1
102
RTVSPropertyOp13
 70
     1
102
RTVSPropertyOp14
 70
     1
102
RTVSPropertyOp15
 70
     1
102
RTVSPropertyOp16
 70
     1
102
RTVSPropertyOp17
 70
     1
102
RTVSPropertyOp18
 70
     1
102
RTVSPropertyOp19
 70
     1
102
RTVSPropertyOp20
 70
     1
102
RTVSPropertyOp21
 70
     1
102
RTVSPropertyOp22
 70
     1
102
RTVSPropertyOp23
 70
     1
102
RTVSPropertyOp24
 70
     1
102
RTVSPropertyOp25
 70
     1
102
RTVSPropertyOp26
 70
     1
102
RTVSPropertyOp27
 70
     1
102
RTVSPropertyOp28
 70
     1
102
RTVSPropertyOp29
 70
     1
102
RTVSPropertyOp30
 70
     1
102
RTVSPropertyOp31
 70
     1
102
RTVSPropertyOp32
 70
     1
  0
XRECORD
  5
9E
102
{ACAD_REACTORS
330
9D
102
}
330
9D
100
AcDbXrecord
280
     1
102
RTVSPropertyOp0
 70
     1
102
RTVSPropertyOp1
 70
     1
102
RTVSPropertyOp2
 70
     1
102
RTVSPropertyOp3
 70
     1
102
RTVSPropertyOp4
 70
     1
102
RTVSPropertyOp5
 70
     1
102
RTVSPropertyOp6
 70
     1
102
RTVSPropertyOp7
 70
     1
102
RTVSPropertyOp8
 70
     1
102
RTVSPropertyOp9
 70
     1
102
RTVSPropertyOp10
 70
     1
102
RTVSPropertyOp11
 70
     1
102
RTVSPropertyOp12
 70
     1
102
RTVSPropertyOp13
 70
     1
102
RTVSPropertyOp14
 70
     1
102
RTVSPropertyOp15
 70
     1
102
RTVSPropertyOp16
 70
     1
102
RTVSPropertyOp17
 70
     1
102
RTVSPropertyOp18
 70
     1
102
RTVSPropertyOp19
 70
     1
102
RTVSPropertyOp20
 70
     1
102
RTVSPropertyOp21
 70
     1
102
RTVSPropertyOp22
 70
     1
102
RTVSPropertyOp23
 70
     1
102
RTVSPropertyOp24
 70
     1
102
RTVSPropertyOp25
 70
     1
102
RTVSPropertyOp26
 70
     1
102
RTVSPropertyOp27
 70
     1
102
RTVSPropertyOp28
 70
     1
102
RTVSPropertyOp29
 70
     1
102
RTVSPropertyOp30
 70
     1
102
RTVSPropertyOp31
 70
     1
102
RTVSPropertyOp32
 70
     1
  0
XRECORD
  5
A6
102
{ACAD_REACTORS
330
A5
102
}
330
A5
100
AcDbXrecord
280
     1
102
RTVSPropertyOp0
 70
     1
102
RTVSPropertyOp1
 70
     1
102
RTVSPropertyOp2
 70
     1
102
RTVSPropertyOp3
 70
     1
102
RTVSPropertyOp4
 70
     1
102
RTVSPropertyOp5
 70
     1
102
RTVSPropertyOp6
 70
     1
102
RTVSPropertyOp7
 70
     1
102
RTVSPropertyOp8
 70
     1
102
RTVSPropertyOp9
 70
     1
102
RTVSPropertyOp10
 70
     1
102
RTVSPropertyOp11
 70
     1
102
RTVSPropertyOp12
 70
     1
102
RTVSPropertyOp13
 70
     1
102
RTVSPropertyOp14
 70
     1
102
RTVSPropertyOp15
 70
     1
102
RTVSPropertyOp16
 70
     1
102
RTVSPropertyOp17
 70
     1
102
RTVSPropertyOp18
 70
     1
102
RTVSPropertyOp19
 70
     1
102
RTVSPropertyOp20
 70
     1
102
RTVSPropertyOp21
 70
     1
102
RTVSPropertyOp22
 70
     1
102
RTVSPropertyOp23
 70
     1
102
RTVSPropertyOp24
 70
     1
102
RTVSPropertyOp25
 70
     1
102
RTVSPropertyOp26
 70
     1
102
RTVSPropertyOp27
 70
     1
102
RTVSPropertyOp28
 70
     1
102
RTVSPropertyOp29
 70
     1
102
RTVSPropertyOp30
 70
     1
102
RTVSPropertyOp31
 70
     1
102
RTVSPropertyOp32
 70
     1
  0
XRECORD
  5
9A
102
{ACAD_REACTORS
330
99
102
}
330
99
100
AcDbXrecord
280
     1
102
RTVSPropertyOp0
 70
     1
102
RTVSPropertyOp1
 70
     1
102
RTVSPropertyOp2
 70
     1
102
RTVSPropertyOp3
 70
     1
102
RTVSPropertyOp4
 70
     1
102
RTVSPropertyOp5
 70
     1
102
RTVSPropertyOp6
 70
     1
102
RTVSPropertyOp7
 70
     1
102
RTVSPropertyOp8
 70
     1
102
RTVSPropertyOp9
 70
     1
102
RTVSPropertyOp10
 70
     1
102
RTVSPropertyOp11
 70
     1
102
RTVSPropertyOp12
 70
     1
102
RTVSPropertyOp13
 70
     1
102
RTVSPropertyOp14
 70
     1
102
RTVSPropertyOp15
 70
     1
102
RTVSPropertyOp16
 70
     1
102
RTVSPropertyOp17
 70
     1
102
RTVSPropertyOp18
 70
     1
102
RTVSPropertyOp19
 70
     1
102
RTVSPropertyOp20
 70
     1
102
RTVSPropertyOp21
 70
     1
102
RTVSPropertyOp22
 70
     1
102
RTVSPropertyOp23
 70
     1
102
RTVSPropertyOp24
 70
     1
102
RTVSPropertyOp25
 70
     1
102
RTVSPropertyOp26
 70
     1
102
RTVSPropertyOp27
 70
     1
102
RTVSPropertyOp28
 70
     1
102
RTVSPropertyOp29
 70
     1
102
RTVSPropertyOp30
 70
     1
102
RTVSPropertyOp31
 70
     1
102
RTVSPropertyOp32
 70
     1
  0
XRECORD
  5
9C
102
{ACAD_REACTORS
330
9B
102
}
330
9B
100
AcDbXrecord
280
     1
102
RTVSPropertyOp0
 70
     1
102
RTVSPropertyOp1
 70
     1
102
RTVSPropertyOp2
 70
     1
102
RTVSPropertyOp3
 70
     1
102
RTVSPropertyOp4
 70
     1
102
RTVSPropertyOp5
 70
     1
102
RTVSPropertyOp6
 70
     1
102
RTVSPropertyOp7
 70
     1
102
RTVSPropertyOp8
 70
     1
102
RTVSPropertyOp9
 70
     1
102
RTVSPropertyOp10
 70
     1
102
RTVSPropertyOp11
 70
     1
102
RTVSPropertyOp12
 70
     1
102
RTVSPropertyOp13
 70
     1
102
RTVSPropertyOp14
 70
     1
102
RTVSPropertyOp15
 70
     1
102
RTVSPropertyOp16
 70
     1
102
RTVSPropertyOp17
 70
     1
102
RTVSPropertyOp18
 70
     1
102
RTVSPropertyOp19
 70
     1
102
RTVSPropertyOp20
 70
     1
102
RTVSPropertyOp21
 70
     1
102
RTVSPropertyOp22
 70
     1
102
RTVSPropertyOp23
 70
     1
102
RTVSPropertyOp24
 70
     1
102
RTVSPropertyOp25
 70
     1
102
RTVSPropertyOp26
 70
     1
102
RTVSPropertyOp27
 70
     1
102
RTVSPropertyOp28
 70
     1
102
RTVSPropertyOp29
 70
     1
102
RTVSPropertyOp30
 70
     1
102
RTVSPropertyOp31
 70
     1
102
RTVSPropertyOp32
 70
     1
  0
XRECORD
  5
A4
102
{ACAD_REACTORS
330
A3
102
}
330
A3
100
AcDbXrecord
280
     1
102
RTVSPropertyOp0
 70
     1
102
RTVSPropertyOp1
 70
     1
102
RTVSPropertyOp2
 70
     1
102
RTVSPropertyOp3
 70
     1
102
RTVSPropertyOp4
 70
     1
102
RTVSPropertyOp5
 70
     1
102
RTVSPropertyOp6
 70
     1
102
RTVSPropertyOp7
 70
     1
102
RTVSPropertyOp8
 70
     1
102
RTVSPropertyOp9
 70
     1
102
RTVSPropertyOp10
 70
     1
102
RTVSPropertyOp11
 70
     1
102
RTVSPropertyOp12
 70
     1
102
RTVSPropertyOp13
 70
     1
102
RTVSPropertyOp14
 70
     1
102
RTVSPropertyOp15
 70
     1
102
RTVSPropertyOp16
 70
     1
102
RTVSPropertyOp17
 70
     1
102
RTVSPropertyOp18
 70
     1
102
RTVSPropertyOp19
 70
     1
102
RTVSPropertyOp20
 70
     1
102
RTVSPropertyOp21
 70
     1
102
RTVSPropertyOp22
 70
     1
102
RTVSPropertyOp23
 70
     1
102
RTVSPropertyOp24
 70
     1
102
RTVSPropertyOp25
 70
     1
102
RTVSPropertyOp26
 70
     1
102
RTVSPropertyOp27
 70
     1
102
RTVSPropertyOp28
 70
     1
102
RTVSPropertyOp29
 70
     1
102
RTVSPropertyOp30
 70
     1
102
RTVSPropertyOp31
 70
     1
102
RTVSPropertyOp32
 70
     1
  0
XRECORD
  5
88
102
{ACAD_REACTORS
330
87
102
}
330
87
100
AcDbXrecord
280
     1
102
RTVSPropertyOp0
 70
     1
102
RTVSPropertyOp1
 70
     1
102
RTVSPropertyOp2
 70
     1
102
RTVSPropertyOp3
 70
     1
102
RTVSPropertyOp4
 70
     1
102
RTVSPropertyOp5
 70
     1
102
RTVSPropertyOp6
 70
     1
102
RTVSPropertyOp7
 70
     1
102
RTVSPropertyOp8
 70
     1
102
RTVSPropertyOp9
 70
     1
102
RTVSPropertyOp10
 70
     1
102
RTVSPropertyOp11
 70
     1
102
RTVSPropertyOp12
 70
     1
102
RTVSPropertyOp13
 70
     1
102
RTVSPropertyOp14
 70
     1
102
RTVSPropertyOp15
 70
     1
102
RTVSPropertyOp16
 70
     1
102
RTVSPropertyOp17
 70
     1
102
RTVSPropertyOp18
 70
     1
102
RTVSPropertyOp19
 70
     1
102
RTVSPropertyOp20
 70
     1
102
RTVSPropertyOp21
 70
     1
102
RTVSPropertyOp22
 70
     1
102
RTVSPropertyOp23
 70
     1
102
RTVSPropertyOp24
 70
     1
102
RTVSPropertyOp25
 70
     1
102
RTVSPropertyOp26
 70
     1
102
RTVSPropertyOp27
 70
     1
102
RTVSPropertyOp28
 70
     1
102
RTVSPropertyOp29
 70
     1
102
RTVSPropertyOp30
 70
     1
102
RTVSPropertyOp31
 70
     1
102
RTVSPropertyOp32
 70
     1
  0
XRECORD
  5
8A
102
{ACAD_REACTORS
330
89
102
}
330
89
100
AcDbXrecord
280
     1
102
RTVSPropertyOp0
 70
     1
102
RTVSPropertyOp1
 70
     1
102
RTVSPropertyOp2
 70
     1
102
RTVSPropertyOp3
 70
     1
102
RTVSPropertyOp4
 70
     1
102
RTVSPropertyOp5
 70
     1
102
RTVSPropertyOp6
 70
     1
102
RTVSPropertyOp7
 70
     1
102
RTVSPropertyOp8
 70
     1
102
RTVSPropertyOp9
 70
     1
102
RTVSPropertyOp10
 70
     1
102
RTVSPropertyOp11
 70
     1
102
RTVSPropertyOp12
 70
     1
102
RTVSPropertyOp13
 70
     1
102
RTVSPropertyOp14
 70
     1
102
RTVSPropertyOp15
 70
     1
102
RTVSPropertyOp16
 70
     1
102
RTVSPropertyOp17
 70
     1
102
RTVSPropertyOp18
 70
     1
102
RTVSPropertyOp19
 70
     1
102
RTVSPropertyOp20
 70
     1
102
RTVSPropertyOp21
 70
     1
102
RTVSPropertyOp22
 70
     1
102
RTVSPropertyOp23
 70
     1
102
RTVSPropertyOp24
 70
     1
102
RTVSPropertyOp25
 70
     1
102
RTVSPropertyOp26
 70
     1
102
RTVSPropertyOp27
 70
     1
102
RTVSPropertyOp28
 70
     1
102
RTVSPropertyOp29
 70
     1
102
RTVSPropertyOp30
 70
     1
102
RTVSPropertyOp31
 70
     1
102
RTVSPropertyOp32
 70
     1
  0
XRECORD
  5
8C
102
{ACAD_REACTORS
330
8B
102
}
330
8B
100
AcDbXrecord
280
     1
102
RTVSPropertyOp0
 70
     1
102
RTVSPropertyOp1
 70
     1
102
RTVSPropertyOp2
 70
     1
102
RTVSPropertyOp3
 70
     1
102
RTVSPropertyOp4
 70
     1
102
RTVSPropertyOp5
 70
     1
102
RTVSPropertyOp6
 70
     1
102
RTVSPropertyOp7
 70
     1
102
RTVSPropertyOp8
 70
     1
102
RTVSPropertyOp9
 70
     1
102
RTVSPropertyOp10
 70
     1
102
RTVSPropertyOp11
 70
     1
102
RTVSPropertyOp12
 70
     1
102
RTVSPropertyOp13
 70
     1
102
RTVSPropertyOp14
 70
     1
102
RTVSPropertyOp15
 70
     1
102
RTVSPropertyOp16
 70
     1
102
RTVSPropertyOp17
 70
     1
102
RTVSPropertyOp18
 70
     1
102
RTVSPropertyOp19
 70
     1
102
RTVSPropertyOp20
 70
     1
102
RTVSPropertyOp21
 70
     1
102
RTVSPropertyOp22
 70
     1
102
RTVSPropertyOp23
 70
     1
102
RTVSPropertyOp24
 70
     1
102
RTVSPropertyOp25
 70
     1
102
RTVSPropertyOp26
 70
     1
102
RTVSPropertyOp27
 70
     1
102
RTVSPropertyOp28
 70
     1
102
RTVSPropertyOp29
 70
     1
102
RTVSPropertyOp30
 70
     1
102
RTVSPropertyOp31
 70
     1
102
RTVSPropertyOp32
 70
     1
  0
XRECORD
  5
8E
102
{ACAD_REACTORS
330
8D
102
}
330
8D
100
AcDbXrecord
280
     1
102
RTVSPropertyOp0
 70
     1
102
RTVSPropertyOp1
 70
     1
102
RTVSPropertyOp2
 70
     1
102
RTVSPropertyOp3
 70
     1
102
RTVSPropertyOp4
 70
     1
102
RTVSPropertyOp5
 70
     1
102
RTVSPropertyOp6
 70
     1
102
RTVSPropertyOp7
 70
     1
102
RTVSPropertyOp8
 70
     1
102
RTVSPropertyOp9
 70
     1
102
RTVSPropertyOp10
 70
     1
102
RTVSPropertyOp11
 70
     1
102
RTVSPropertyOp12
 70
     1
102
RTVSPropertyOp13
 70
     1
102
RTVSPropertyOp14
 70
     1
102
RTVSPropertyOp15
 70
     1
102
RTVSPropertyOp16
 70
     1
102
RTVSPropertyOp17
 70
     1
102
RTVSPropertyOp18
 70
     1
102
RTVSPropertyOp19
 70
     1
102
RTVSPropertyOp20
 70
     1
102
RTVSPropertyOp21
 70
     1
102
RTVSPropertyOp22
 70
     1
102
RTVSPropertyOp23
 70
     1
102
RTVSPropertyOp24
 70
     1
102
RTVSPropertyOp25
 70
     1
102
RTVSPropertyOp26
 70
     1
102
RTVSPropertyOp27
 70
     1
102
RTVSPropertyOp28
 70
     1
102
RTVSPropertyOp29
 70
     1
102
RTVSPropertyOp30
 70
     1
102
RTVSPropertyOp31
 70
     1
102
RTVSPropertyOp32
 70
     1
  0
XRECORD
  5
A2
102
{ACAD_REACTORS
330
A1
102
}
330
A1
100
AcDbXrecord
280
     1
102
RTVSPropertyOp0
 70
     1
102
RTVSPropertyOp1
 70
     1
102
RTVSPropertyOp2
 70
     1
102
RTVSPropertyOp3
 70
     1
102
RTVSPropertyOp4
 70
     1
102
RTVSPropertyOp5
 70
     1
102
RTVSPropertyOp6
 70
     1
102
RTVSPropertyOp7
 70
     1
102
RTVSPropertyOp8
 70
     1
102
RTVSPropertyOp9
 70
     1
102
RTVSPropertyOp10
 70
     1
102
RTVSPropertyOp11
 70
     1
102
RTVSPropertyOp12
 70
     1
102
RTVSPropertyOp13
 70
     1
102
RTVSPropertyOp14
 70
     1
102
RTVSPropertyOp15
 70
     1
102
RTVSPropertyOp16
 70
     1
102
RTVSPropertyOp17
 70
     1
102
RTVSPropertyOp18
 70
     1
102
RTVSPropertyOp19
 70
     1
102
RTVSPropertyOp20
 70
     1
102
RTVSPropertyOp21
 70
     1
102
RTVSPropertyOp22
 70
     1
102
RTVSPropertyOp23
 70
     1
102
RTVSPropertyOp24
 70
     1
102
RTVSPropertyOp25
 70
     1
102
RTVSPropertyOp26
 70
     1
102
RTVSPropertyOp27
 70
     1
102
RTVSPropertyOp28
 70
     1
102
RTVSPropertyOp29
 70
     1
102
RTVSPropertyOp30
 70
     1
102
RTVSPropertyOp31
 70
     1
102
RTVSPropertyOp32
 70
     1
  0
XRECORD
  5
98
102
{ACAD_REACTORS
330
97
102
}
330
97
100
AcDbXrecord
280
     1
102
RTVSPropertyOp0
 70
     1
102
RTVSPropertyOp1
 70
     1
102
RTVSPropertyOp2
 70
     1
102
RTVSPropertyOp3
 70
     1
102
RTVSPropertyOp4
 70
     1
102
RTVSPropertyOp5
 70
     1
102
RTVSPropertyOp6
 70
     1
102
RTVSPropertyOp7
 70
     1
102
RTVSPropertyOp8
 70
     1
102
RTVSPropertyOp9
 70
     1
102
RTVSPropertyOp10
 70
     1
102
RTVSPropertyOp11
 70
     1
102
RTVSPropertyOp12
 70
     1
102
RTVSPropertyOp13
 70
     1
102
RTVSPropertyOp14
 70
     1
102
RTVSPropertyOp15
 70
     1
102
RTVSPropertyOp16
 70
     1
102
RTVSPropertyOp17
 70
     1
102
RTVSPropertyOp18
 70
     1
102
RTVSPropertyOp19
 70
     1
102
RTVSPropertyOp20
 70
     1
102
RTVSPropertyOp21
 70
     1
102
RTVSPropertyOp22
 70
     1
102
RTVSPropertyOp23
 70
     1
102
RTVSPropertyOp24
 70
     1
102
RTVSPropertyOp25
 70
     1
102
RTVSPropertyOp26
 70
     1
102
RTVSPropertyOp27
 70
     1
102
RTVSPropertyOp28
 70
     1
102
RTVSPropertyOp29
 70
     1
102
RTVSPropertyOp30
 70
     1
102
RTVSPropertyOp31
 70
     1
102
RTVSPropertyOp32
 70
     1
  0
XRECORD
  5
A0
102
{ACAD_REACTORS
330
9F
102
}
330
9F
100
AcDbXrecord
280
     1
102
RTVSPropertyOp0
 70
     1
102
RTVSPropertyOp1
 70
     1
102
RTVSPropertyOp2
 70
     1
102
RTVSPropertyOp3
 70
     1
102
RTVSPropertyOp4
 70
     1
102
RTVSPropertyOp5
 70
     1
102
RTVSPropertyOp6
 70
     1
102
RTVSPropertyOp7
 70
     1
102
RTVSPropertyOp8
 70
     1
102
RTVSPropertyOp9
 70
     1
102
RTVSPropertyOp10
 70
     1
102
RTVSPropertyOp11
 70
     1
102
RTVSPropertyOp12
 70
     1
102
RTVSPropertyOp13
 70
     1
102
RTVSPropertyOp14
 70
     1
102
RTVSPropertyOp15
 70
     1
102
RTVSPropertyOp16
 70
     1
102
RTVSPropertyOp17
 70
     1
102
RTVSPropertyOp18
 70
     1
102
RTVSPropertyOp19
 70
     1
102
RTVSPropertyOp20
 70
     1
102
RTVSPropertyOp21
 70
     1
102
RTVSPropertyOp22
 70
     1
102
RTVSPropertyOp23
 70
     1
102
RTVSPropertyOp24
 70
     1
102
RTVSPropertyOp25
 70
     1
102
RTVSPropertyOp26
 70
     1
102
RTVSPropertyOp27
 70
     1
102
RTVSPropertyOp28
 70
     1
102
RTVSPropertyOp29
 70
     1
102
RTVSPropertyOp30
 70
     1
102
RTVSPropertyOp31
 70
     1
102
RTVSPropertyOp32
 70
     1
  0
ENDSEC
  0
EOF
