<?xml version="1.0" encoding="UTF-8"?>
<!DOCTYPE svg PUBLIC "-//W3C//DTD SVG 1.1//EN" "http://www.w3.org/Graphics/SVG/1.1/DTD/svg11.dtd">
<!-- Creator: CorelDRAW X6 -->
<svg xmlns="http://www.w3.org/2000/svg" xml:space="preserve" width="300mm" height="600mm" version="1.1" style="shape-rendering:geometricPrecision; text-rendering:geometricPrecision; image-rendering:optimizeQuality; fill-rule:evenodd; clip-rule:evenodd"
viewBox="0 0 30000 60000"
 xmlns:xlink="http://www.w3.org/1999/xlink">
 <defs>
  <style type="text/css">
   <![CDATA[
    .str0 {stroke:black;stroke-width:52.92;stroke-linecap:round;stroke-linejoin:round}
    .fil0 {fill:none;fill-rule:nonzero}
   ]]>
  </style>
 </defs>
 <g id="Layer_x0020_1">
  <metadata id="CorelCorpID_0Corel-Layer"/>
  <g id="_874351360">
   <path class="fil0 str0" d="M12463 14011c425,-696 487,-737 1141,-753 -6,-103 -10,-205 -18,-306 -28,-373 63,-443 441,-341 45,12 89,24 179,49 119,-397 447,-536 817,-590 4,-641 50,-672 582,-433 270,-224 532,-440 854,-707 11,-98 34,-294 54,-469 381,-113 512,210 767,331 269,-371 563,-712 1115,-467 89,-340 172,-643 248,-948 41,-162 96,-341 287,-320 115,13 247,127 318,231 1054,1545 1291,3243 785,5012 -242,846 -587,1688 -1335,2402 45,62 126,144 173,242 734,1528 1253,3129 1648,4777 478,1996 622,4023 631,6064 6,1256 11,2514 -38,3768 -51,1286 -163,2570 -263,3855 -31,395 -115,786 -164,1181 -151,1200 -767,7692 -920,8891 -97,757 -204,1514 -310,2270 -8,59 -47,113 -82,194 -159,-23 -310,-46 -509,-75 7,-308 -5,-591 22,-870 259,-2677 1018,-10643 1256,-13321 224,-2523 307,-5052 202,-7585 -21,-493 -53,-986 -87,-1478 -104,-1473 -500,-2884 -926,-4287 -176,-578 -390,-1146 -609,-1710 -115,-295 -254,-588 -427,-852 -212,-323 -497,-501 -931,-402 -1241,283 -2382,3 -3496,-588 -844,-448 -1482,-1087 -2052,-1821 -97,-125 -178,-263 -265,-397 -105,-163 -109,-334 -9,-496 110,-178 285,-177 467,-139 154,32 308,60 453,88z"/>
   <path class="fil0 str0" d="M15507 12107c-75,1130 1160,3874 2020,4496 194,-130 398,-267 610,-409 -692,-1508 -1262,-3034 -2630,-4087z"/>
   <path class="fil0 str0" d="M18537 15776c107,-124 165,-194 226,-261 278,-311 367,-637 172,-1043 -137,-283 -225,-596 -292,-905 -194,-895 -735,-1571 -1352,-2201 -93,-95 -212,-162 -374,-283 218,1714 731,3240 1621,4693z"/>
   <path class="fil0 str0" d="M14033 13162c272,1229 619,2342 1531,3184 81,75 147,167 220,251 358,411 411,422 977,205 -131,-1036 -1679,-3131 -2727,-3641z"/>
   <path class="fil0 str0" d="M18963 9806c-384,1496 -315,2949 421,4389 278,-1534 378,-3001 -421,-4389z"/>
   <path class="fil0 str0" d="M12168 14411c702,1222 1791,1923 3108,2315 -807,-1074 -1644,-2107 -3108,-2315z"/>
   <path class="fil0 str0" d="M14085 14737c-116,-360 -184,-617 -285,-861 -35,-85 -142,-167 -234,-196 -344,-109 -494,-1 -633,459 348,181 704,366 1152,599z"/>
   <path class="fil0 str0" d="M18348 11994c2,-386 -4,-681 6,-975 6,-186 -81,-329 -241,-354 -110,-17 -269,59 -352,145 -122,127 -168,294 -16,461 188,208 361,431 602,722z"/>
   <path class="fil0 str0" d="M16738 12744c-55,-444 -75,-879 -266,-1276 -427,199 -543,420 -351,642 192,223 410,424 617,634z"/>
   <path class="fil0 str0" d="M15282 13562c25,-13 51,-26 76,-39 -63,-268 -108,-543 -200,-801 -34,-94 -182,-203 -277,-202 -93,1 -228,117 -264,213 -35,94 -8,264 61,333 182,185 401,333 605,496z"/>
  </g>
  <g id="_874737840">
   <path class="fil0 str0" d="M17537 45989c-425,696 -487,737 -1141,753 6,103 10,205 18,306 28,373 -63,443 -441,341 -45,-12 -89,-24 -179,-49 -119,397 -447,536 -817,590 -4,641 -50,672 -582,433 -270,224 -532,440 -854,707 -11,98 -34,294 -54,469 -381,113 -512,-210 -767,-331 -269,371 -563,712 -1115,467 -89,340 -172,643 -248,948 -41,162 -96,341 -287,320 -115,-13 -247,-127 -318,-231 -1054,-1545 -1291,-3243 -785,-5012 242,-846 587,-1688 1335,-2402 -45,-62 -126,-144 -173,-242 -734,-1528 -1253,-3129 -1648,-4777 -478,-1996 -622,-4023 -631,-6064 -6,-1256 -11,-2514 38,-3768 51,-1286 163,-2570 263,-3855 31,-395 115,-786 164,-1181 151,-1200 767,-7692 920,-8891 97,-757 204,-1514 310,-2270 8,-59 47,-113 82,-194 159,23 310,46 509,75 -7,308 5,591 -22,870 -259,2677 -1018,10643 -1256,13321 -224,2523 -307,5052 -202,7585 21,493 53,986 87,1478 104,1473 500,2884 926,4287 176,578 390,1146 609,1710 115,295 254,588 427,852 212,323 497,501 931,402 1241,-283 2382,-3 3496,588 844,448 1482,1087 2052,1821 97,125 178,263 265,397 105,163 109,334 9,496 -110,178 -285,177 -467,139 -154,-32 -308,-60 -453,-88z"/>
   <path class="fil0 str0" d="M14493 47893c75,-1130 -1160,-3874 -2020,-4496 -194,130 -398,267 -610,409 692,1508 1262,3034 2630,4087z"/>
   <path class="fil0 str0" d="M11463 44224c-107,124 -165,194 -226,261 -278,311 -367,637 -172,1043 137,283 225,596 292,905 194,895 735,1571 1352,2201 93,95 212,162 374,283 -218,-1714 -731,-3240 -1621,-4693z"/>
   <path class="fil0 str0" d="M15967 46838c-272,-1229 -619,-2342 -1531,-3184 -81,-75 -147,-167 -220,-251 -358,-411 -411,-422 -977,-205 131,1036 1679,3131 2727,3641z"/>
   <path class="fil0 str0" d="M11037 50194c384,-1496 315,-2949 -421,-4389 -278,1534 -378,3001 421,4389z"/>
   <path class="fil0 str0" d="M17832 45589c-702,-1222 -1791,-1923 -3108,-2315 807,1074 1644,2107 3108,2315z"/>
   <path class="fil0 str0" d="M15915 45263c116,360 184,617 285,861 35,85 142,167 234,196 344,109 494,1 633,-459 -348,-181 -704,-366 -1152,-599z"/>
   <path class="fil0 str0" d="M11652 48006c-2,386 4,681 -6,975 -6,186 81,329 241,354 110,17 269,-59 352,-145 122,-127 168,-294 16,-461 -188,-208 -361,-431 -602,-722z"/>
   <path class="fil0 str0" d="M13262 47256c55,444 75,879 266,1276 427,-199 543,-420 351,-642 -192,-223 -410,-424 -617,-634z"/>
   <path class="fil0 str0" d="M14718 46438c-25,13 -51,26 -76,39 63,268 108,543 200,801 34,94 182,203 277,202 93,-1 228,-117 264,-213 35,-94 8,-264 -61,-333 -182,-185 -401,-333 -605,-496z"/>
  </g>
 </g>
</svg>
