<?xml version="1.0" encoding="UTF-8"?>
<!DOCTYPE svg PUBLIC "-//W3C//DTD SVG 1.1//EN" "http://www.w3.org/Graphics/SVG/1.1/DTD/svg11.dtd">
<!-- Creator: CorelDRAW X6 -->
<svg xmlns="http://www.w3.org/2000/svg" xml:space="preserve" width="300mm" height="600mm" version="1.1" style="shape-rendering:geometricPrecision; text-rendering:geometricPrecision; image-rendering:optimizeQuality; fill-rule:evenodd; clip-rule:evenodd"
viewBox="0 0 30000 60000"
 xmlns:xlink="http://www.w3.org/1999/xlink">
 <defs>
  <style type="text/css">
   <![CDATA[
    .str0 {stroke:black;stroke-width:52.92;stroke-linecap:round;stroke-linejoin:round}
    .fil0 {fill:none;fill-rule:nonzero}
   ]]>
  </style>
 </defs>
 <g id="Layer_x0020_1">
  <metadata id="CorelCorpID_0Corel-Layer"/>
  <g id="_691472032">
   <path class="fil0 str0" d="M11582 20101c-211,-239 -439,-463 -643,-707 -111,-132 -209,-283 -276,-442 -121,-286 -69,-482 132,-644 214,-172 527,-183 750,-1 121,99 215,231 312,356 74,95 133,201 209,319 120,-228 87,-365 -74,-537 -246,-262 -474,-558 -639,-876 -160,-309 3,-699 268,-821 289,-133 561,-40 783,268 66,92 130,186 202,289 188,-224 55,-368 -33,-516 -271,-457 -480,-939 -527,-1472 -38,-424 306,-742 682,-607 189,68 361,254 478,428 125,187 175,423 260,643 222,-127 116,-284 89,-433 -70,-391 -159,-781 -193,-1175 -39,-447 191,-801 562,-964 264,-116 442,-78 636,141 49,55 85,121 177,254 40,-354 44,-626 107,-883 105,-431 560,-716 937,-621 384,97 549,412 468,912 -26,163 -70,323 -115,521 394,-142 698,-316 933,-622 343,-446 842,-630 1380,-657 219,-11 471,85 663,205 321,200 385,528 158,823 -148,192 -362,361 -582,463 -428,198 -895,202 -1361,161 -641,-56 -1147,240 -1631,603 153,44 295,44 437,51 362,17 687,142 970,363 398,311 337,780 -130,981 -343,148 -705,214 -1071,90 -465,-158 -925,-329 -1400,-500 -349,271 -470,430 -574,774 207,-30 410,-65 613,-88 284,-32 537,54 756,233 286,233 319,503 96,790 -219,283 -500,446 -868,398 -252,-33 -502,-84 -752,-131 -199,-38 -396,-84 -592,-125 -159,279 -291,515 -283,808 351,-106 650,-220 958,-283 348,-71 630,88 748,370 108,259 20,527 -253,757 -269,227 -599,286 -934,321 -249,26 -500,43 -776,66 -12,239 -22,432 -35,699 195,-134 302,-230 427,-288 200,-93 407,-183 621,-233 223,-52 413,61 529,249 114,186 58,384 -83,528 -188,192 -394,370 -610,529 -241,177 -502,325 -741,478 49,355 104,668 133,983 144,1592 120,3183 -86,4768 -134,1030 -198,2059 -90,3094 104,998 241,1992 329,2991 51,569 -589,7925 -641,8491 -84,903 -248,1799 -379,2698 -12,79 -18,162 -50,233 -70,159 -147,368 -362,300 -198,-63 -110,-266 -94,-419 3,-32 10,-63 19,-94 328,-1122 940,-9053 903,-10194 -33,-1015 -237,-2024 -288,-3040 -53,-1063 -124,-2145 18,-3191 147,-1090 265,-2179 352,-3273 75,-944 -112,-1862 -297,-2775 -140,-34 -250,-54 -355,-88 -408,-131 -754,-361 -966,-734 -74,-131 -87,-343 -38,-486 70,-204 284,-238 486,-199 169,32 335,81 595,145 -149,-192 -244,-330 -354,-455z"/>
   <path class="fil0 str0" d="M14224 13915c-22,-90 -126,-160 -192,-239 -81,85 -222,165 -232,257 -41,405 27,801 182,1266 265,-452 346,-854 242,-1285z"/>
   <path class="fil0 str0" d="M15840 12973c31,-136 -8,-287 -248,-352 -322,415 -358,918 -357,1437 388,-269 512,-673 606,-1085z"/>
   <path class="fil0 str0" d="M18746 12965c-499,-197 -928,-62 -1321,392 505,71 915,-73 1321,-392z"/>
   <path class="fil0 str0" d="M12512 15284c-45,477 171,842 407,1202 151,-816 82,-1019 -407,-1202z"/>
   <path class="fil0 str0" d="M16681 15370c-260,-212 -569,-240 -1329,-120 407,329 907,374 1329,120z"/>
   <path class="fil0 str0" d="M11263 18589c-61,92 -155,168 -147,231 48,378 369,567 628,810 -77,-370 -176,-729 -480,-1040z"/>
   <path class="fil0 str0" d="M11815 17151c-136,406 64,754 482,848 -53,-346 -82,-697 -482,-848z"/>
   <path class="fil0 str0" d="M13776 16964c482,235 731,218 1077,-78 -386,-243 -716,-55 -1077,78z"/>
   <path class="fil0 str0" d="M12888 18885c429,1 838,-54 1152,-399 -458,-71 -795,190 -1152,399z"/>
   <path class="fil0 str0" d="M12036 21372c-152,-308 -388,-496 -814,-570 198,393 519,461 814,570z"/>
   <path class="fil0 str0" d="M12794 20650c339,-102 647,-255 851,-577 -385,38 -643,269 -851,577z"/>
  </g>
  <g id="_781539408">
   <path class="fil0 str0" d="M18418 39899c211,239 439,463 643,707 111,132 209,283 276,442 121,286 69,482 -132,644 -214,172 -527,183 -750,1 -121,-99 -215,-231 -312,-356 -74,-95 -133,-201 -209,-319 -120,228 -87,365 74,537 246,262 474,558 639,876 160,309 -3,699 -268,821 -289,133 -561,40 -783,-268 -66,-92 -130,-186 -202,-289 -188,224 -55,368 33,516 271,457 480,939 527,1472 38,424 -306,742 -682,607 -189,-68 -361,-254 -478,-428 -125,-187 -175,-423 -260,-643 -222,127 -116,284 -89,433 70,391 159,781 193,1175 39,447 -191,801 -562,964 -264,116 -442,78 -636,-141 -49,-55 -85,-121 -177,-254 -40,354 -44,626 -107,883 -105,431 -560,716 -937,621 -384,-97 -549,-412 -468,-912 26,-163 70,-323 115,-521 -394,142 -698,316 -933,622 -343,446 -842,630 -1380,657 -219,11 -471,-85 -663,-205 -321,-200 -385,-528 -158,-823 148,-192 362,-361 582,-463 428,-198 895,-202 1361,-161 641,56 1147,-240 1631,-603 -153,-44 -295,-44 -437,-51 -362,-17 -687,-142 -970,-363 -398,-311 -337,-780 130,-981 343,-148 705,-214 1071,-90 465,158 925,329 1400,500 349,-271 470,-430 574,-774 -207,30 -410,65 -613,88 -284,32 -537,-54 -756,-233 -286,-233 -319,-503 -96,-790 219,-283 500,-446 868,-398 252,33 502,84 752,131 199,38 396,84 592,125 159,-279 291,-515 283,-808 -351,106 -650,220 -958,283 -348,71 -630,-88 -748,-370 -108,-259 -20,-527 253,-757 269,-227 599,-286 934,-321 249,-26 500,-43 776,-66 12,-239 22,-432 35,-699 -195,134 -302,230 -427,288 -200,93 -407,183 -621,233 -223,52 -413,-61 -529,-249 -114,-186 -58,-384 83,-528 188,-192 394,-370 610,-529 241,-177 502,-325 741,-478 -49,-355 -104,-668 -133,-983 -144,-1592 -120,-3183 86,-4768 134,-1030 198,-2059 90,-3094 -104,-998 -241,-1992 -329,-2991 -51,-569 589,-7925 641,-8491 84,-903 248,-1799 379,-2698 12,-79 18,-162 50,-233 70,-159 147,-368 362,-300 198,63 110,266 94,419 -3,32 -10,63 -19,94 -328,1122 -940,9053 -903,10194 33,1015 237,2024 288,3040 53,1063 124,2145 -18,3191 -147,1090 -265,2179 -352,3273 -75,944 112,1862 297,2775 140,34 250,54 355,88 408,131 754,361 966,734 74,131 87,343 38,486 -70,204 -284,238 -486,199 -169,-32 -335,-81 -595,-145 149,192 244,330 354,455z"/>
   <path class="fil0 str0" d="M15776 46085c22,90 126,160 192,239 81,-85 222,-165 232,-257 41,-405 -27,-801 -182,-1266 -265,452 -346,854 -242,1285z"/>
   <path class="fil0 str0" d="M14160 47027c-31,136 8,287 248,352 322,-415 358,-918 357,-1437 -388,269 -512,673 -606,1085z"/>
   <path class="fil0 str0" d="M11254 47035c499,197 928,62 1321,-392 -505,-71 -915,73 -1321,392z"/>
   <path class="fil0 str0" d="M17488 44716c45,-477 -171,-842 -407,-1202 -151,816 -82,1019 407,1202z"/>
   <path class="fil0 str0" d="M13319 44630c260,212 569,240 1329,120 -407,-329 -907,-374 -1329,-120z"/>
   <path class="fil0 str0" d="M18737 41411c61,-92 155,-168 147,-231 -48,-378 -369,-567 -628,-810 77,370 176,729 480,1040z"/>
   <path class="fil0 str0" d="M18185 42849c136,-406 -64,-754 -482,-848 53,346 82,697 482,848z"/>
   <path class="fil0 str0" d="M16224 43036c-482,-235 -731,-218 -1077,78 386,243 716,55 1077,-78z"/>
   <path class="fil0 str0" d="M17112 41115c-429,-1 -838,54 -1152,399 458,71 795,-190 1152,-399z"/>
   <path class="fil0 str0" d="M17964 38628c152,308 388,496 814,570 -198,-393 -519,-461 -814,-570z"/>
   <path class="fil0 str0" d="M17206 39350c-339,102 -647,255 -851,577 385,-38 643,-269 851,-577z"/>
  </g>
 </g>
</svg>
