  0
SECTION
  2
HEADER
  9
$ACADVER
  1
AC1021
  9
$ACADMAINTVER
 70
    25
  9
$DWGCODEPAGE
  3
ANSI_1252
  9
$INSBASE
 10
0.0
 20
0.0
 30
0.0
  9
$EXTMIN
 10
-8.09826
 20
-29.68017
 30
0.0
  9
$EXTMAX
 10
8.09826
 20
29.68017
 30
0.0
  9
$LIMMIN
 10
0.0
 20
0.0
  9
$LIMMAX
 10
12.0
 20
9.0
  9
$ORTHOMODE
 70
     0
  9
$REGENMODE
 70
     1
  9
$FILLMODE
 70
     1
  9
$QTEXTMODE
 70
     0
  9
$MIRRTEXT
 70
     1
  9
$LTSCALE
 40
1.0
  9
$ATTMODE
 70
     1
  9
$TEXTSIZE
 40
0.2
  9
$TRACEWID
 40
0.05
  9
$TEXTSTYLE
  7
Standard
  9
$CLAYER
  8
0
  9
$CELTYPE
  6
ByLayer
  9
$CECOLOR
 62
   256
  9
$CELTSCALE
 40
1.0
  9
$DISPSILH
 70
     0
  9
$DIMSCALE
 40
1.0
  9
$DIMASZ
 40
0.18
  9
$DIMEXO
 40
0.0625
  9
$DIMDLI
 40
0.38
  9
$DIMRND
 40
0.0
  9
$DIMDLE
 40
0.0
  9
$DIMEXE
 40
0.18
  9
$DIMTP
 40
0.0
  9
$DIMTM
 40
0.0
  9
$DIMTXT
 40
0.18
  9
$DIMCEN
 40
0.09
  9
$DIMTSZ
 40
0.0
  9
$DIMTOL
 70
     0
  9
$DIMLIM
 70
     0
  9
$DIMTIH
 70
     1
  9
$DIMTOH
 70
     1
  9
$DIMSE1
 70
     0
  9
$DIMSE2
 70
     0
  9
$DIMTAD
 70
     0
  9
$DIMZIN
 70
     0
  9
$DIMBLK
  1

  9
$DIMASO
 70
     1
  9
$DIMSHO
 70
     1
  9
$DIMPOST
  1

  9
$DIMAPOST
  1

  9
$DIMALT
 70
     0
  9
$DIMALTD
 70
     2
  9
$DIMALTF
 40
25.4
  9
$DIMLFAC
 40
1.0
  9
$DIMTOFL
 70
     0
  9
$DIMTVP
 40
0.0
  9
$DIMTIX
 70
     0
  9
$DIMSOXD
 70
     0
  9
$DIMSAH
 70
     0
  9
$DIMBLK1
  1

  9
$DIMBLK2
  1

  9
$DIMSTYLE
  2
Standard
  9
$DIMCLRD
 70
     0
  9
$DIMCLRE
 70
     0
  9
$DIMCLRT
 70
     0
  9
$DIMTFAC
 40
1.0
  9
$DIMGAP
 40
0.09
  9
$DIMJUST
 70
     0
  9
$DIMSD1
 70
     0
  9
$DIMSD2
 70
     0
  9
$DIMTOLJ
 70
     1
  9
$DIMTZIN
 70
     0
  9
$DIMALTZ
 70
     0
  9
$DIMALTTZ
 70
     0
  9
$DIMUPT
 70
     0
  9
$DIMDEC
 70
     4
  9
$DIMTDEC
 70
     4
  9
$DIMALTU
 70
     2
  9
$DIMALTTD
 70
     2
  9
$DIMTXSTY
  7
Standard
  9
$DIMAUNIT
 70
     0
  9
$DIMADEC
 70
     0
  9
$DIMALTRND
 40
0.0
  9
$DIMAZIN
 70
     0
  9
$DIMDSEP
 70
    46
  9
$DIMATFIT
 70
     3
  9
$DIMFRAC
 70
     0
  9
$DIMLDRBLK
  1

  9
$DIMLUNIT
 70
     2
  9
$DIMLWD
 70
    -2
  9
$DIMLWE
 70
    -2
  9
$DIMTMOVE
 70
     0
  9
$DIMFXL
 40
1.0
  9
$DIMFXLON
 70
     0
  9
$DIMJOGANG
 40
0.7853981633974483
  9
$DIMTFILL
 70
     0
  9
$DIMTFILLCLR
 70
     0
  9
$DIMARCSYM
 70
     0
  9
$DIMLTYPE
  6

  9
$DIMLTEX1
  6

  9
$DIMLTEX2
  6

  9
$LUNITS
 70
     2
  9
$LUPREC
 70
     4
  9
$SKETCHINC
 40
0.1
  9
$FILLETRAD
 40
0.5
  9
$AUNITS
 70
     0
  9
$AUPREC
 70
     0
  9
$MENU
  1
.
  9
$ELEVATION
 40
0.0
  9
$PELEVATION
 40
0.0
  9
$THICKNESS
 40
0.0
  9
$LIMCHECK
 70
     0
  9
$CHAMFERA
 40
0.5
  9
$CHAMFERB
 40
0.5
  9
$CHAMFERC
 40
1.0
  9
$CHAMFERD
 40
0.0
  9
$SKPOLY
 70
     0
  9
$TDCREATE
 40
2460269.492005301
  9
$TDUCREATE
 40
2460269.492005301
  9
$TDUPDATE
 40
2460269.492005359
  9
$TDUUPDATE
 40
2460269.492005359
  9
$TDINDWG
 40
0.0000000116
  9
$TDUSRTIMER
 40
0.0000000116
  9
$USRTIMER
 70
     1
  9
$ANGBASE
 50
0.0
  9
$ANGDIR
 70
     0
  9
$PDMODE
 70
     0
  9
$PDSIZE
 40
0.0
  9
$PLINEWID
 40
0.0
  9
$SPLFRAME
 70
     0
  9
$SPLINETYPE
 70
     6
  9
$SPLINESEGS
 70
     8
  9
$HANDSEED
  5
95
  9
$SURFTAB1
 70
     6
  9
$SURFTAB2
 70
     6
  9
$SURFTYPE
 70
     6
  9
$SURFU
 70
     6
  9
$SURFV
 70
     6
  9
$UCSBASE
  2

  9
$UCSNAME
  2

  9
$UCSORG
 10
0.0
 20
0.0
 30
0.0
  9
$UCSXDIR
 10
1.0
 20
0.0
 30
0.0
  9
$UCSYDIR
 10
0.0
 20
1.0
 30
0.0
  9
$UCSORTHOREF
  2

  9
$UCSORTHOVIEW
 70
     0
  9
$UCSORGTOP
 10
0.0
 20
0.0
 30
0.0
  9
$UCSORGBOTTOM
 10
0.0
 20
0.0
 30
0.0
  9
$UCSORGLEFT
 10
0.0
 20
0.0
 30
0.0
  9
$UCSORGRIGHT
 10
0.0
 20
0.0
 30
0.0
  9
$UCSORGFRONT
 10
0.0
 20
0.0
 30
0.0
  9
$UCSORGBACK
 10
0.0
 20
0.0
 30
0.0
  9
$PUCSBASE
  2

  9
$PUCSNAME
  2

  9
$PUCSORG
 10
0.0
 20
0.0
 30
0.0
  9
$PUCSXDIR
 10
1.0
 20
0.0
 30
0.0
  9
$PUCSYDIR
 10
0.0
 20
1.0
 30
0.0
  9
$PUCSORTHOREF
  2

  9
$PUCSORTHOVIEW
 70
     0
  9
$PUCSORGTOP
 10
0.0
 20
0.0
 30
0.0
  9
$PUCSORGBOTTOM
 10
0.0
 20
0.0
 30
0.0
  9
$PUCSORGLEFT
 10
0.0
 20
0.0
 30
0.0
  9
$PUCSORGRIGHT
 10
0.0
 20
0.0
 30
0.0
  9
$PUCSORGFRONT
 10
0.0
 20
0.0
 30
0.0
  9
$PUCSORGBACK
 10
0.0
 20
0.0
 30
0.0
  9
$USERI1
 70
     0
  9
$USERI2
 70
     0
  9
$USERI3
 70
     0
  9
$USERI4
 70
     0
  9
$USERI5
 70
     0
  9
$USERR1
 40
0.0
  9
$USERR2
 40
0.0
  9
$USERR3
 40
0.0
  9
$USERR4
 40
0.0
  9
$USERR5
 40
0.0
  9
$WORLDVIEW
 70
     1
  9
$SHADEDGE
 70
     3
  9
$SHADEDIF
 70
    70
  9
$TILEMODE
 70
     1
  9
$MAXACTVP
 70
    64
  9
$PINSBASE
 10
0.0
 20
0.0
 30
0.0
  9
$PLIMCHECK
 70
     0
  9
$PEXTMIN
 10
1.000000000000000E+20
 20
1.000000000000000E+20
 30
1.000000000000000E+20
  9
$PEXTMAX
 10
-1.000000000000000E+20
 20
-1.000000000000000E+20
 30
-1.000000000000000E+20
  9
$PLIMMIN
 10
0.0
 20
0.0
  9
$PLIMMAX
 10
12.0
 20
9.0
  9
$UNITMODE
 70
     0
  9
$VISRETAIN
 70
     1
  9
$PLINEGEN
 70
     0
  9
$PSLTSCALE
 70
     1
  9
$TREEDEPTH
 70
  3020
  9
$CMLSTYLE
  2
Standard
  9
$CMLJUST
 70
     0
  9
$CMLSCALE
 40
1.0
  9
$PROXYGRAPHICS
 70
     1
  9
$MEASUREMENT
 70
     0
  9
$CELWEIGHT
370
    -1
  9
$ENDCAPS
280
     0
  9
$JOINSTYLE
280
     0
  9
$LWDISPLAY
290
     0
  9
$INSUNITS
 70
     5
  9
$HYPERLINKBASE
  1

  9
$STYLESHEET
  1

  9
$XEDIT
290
     1
  9
$CEPSNTYPE
380
     0
  9
$PSTYLEMODE
290
     1
  9
$FINGERPRINTGUID
  2
{EC30E032-64FA-4916-85E9-A7BED67FC0FB}
  9
$VERSIONGUID
  2
{FAEB1C32-E019-11D5-929B-00C0DF256EC4}
  9
$EXTNAMES
290
     1
  9
$PSVPSCALE
 40
0.0
  9
$OLESTARTUP
290
     0
  9
$SORTENTS
280
   127
  9
$INDEXCTL
280
     0
  9
$HIDETEXT
280
     1
  9
$XCLIPFRAME
290
     0
  9
$HALOGAP
280
     0
  9
$OBSCOLOR
 70
   257
  9
$OBSLTYPE
280
     0
  9
$INTERSECTIONDISPLAY
280
     0
  9
$INTERSECTIONCOLOR
 70
   257
  9
$DIMASSOC
280
     2
  9
$PROJECTNAME
  1

  9
$CAMERADISPLAY
290
     0
  9
$LENSLENGTH
 40
50.0
  9
$CAMERAHEIGHT
 40
0.0
  9
$STEPSPERSEC
 40
2.0
  9
$STEPSIZE
 40
6.0
  9
$3DDWFPREC
 40
2.0
  9
$PSOLWIDTH
 40
0.25
  9
$PSOLHEIGHT
 40
4.0
  9
$LOFTANG1
 40
1.570796326794897
  9
$LOFTANG2
 40
1.570796326794897
  9
$LOFTMAG1
 40
0.0
  9
$LOFTMAG2
 40
0.0
  9
$LOFTPARAM
 70
     7
  9
$LOFTNORMALS
280
     1
  9
$LATITUDE
 40
37.795
  9
$LONGITUDE
 40
-122.394
  9
$NORTHDIRECTION
 40
0.0
  9
$TIMEZONE
 70
 -8000
  9
$LIGHTGLYPHDISPLAY
280
     1
  9
$TILEMODELIGHTSYNCH
280
     1
  9
$SOLIDHIST
280
     1
  9
$SHOWHIST
280
     1
  9
$DWFFRAME
280
     2
  9
$DGNFRAME
280
     2
  9
$REALWORLDSCALE
290
     1
  9
$INTERFERECOLOR
 62
   256
  9
$CSHADOW
280
     0
  9
$SHADOWPLANELOCATION
 40
0.0
  0
ENDSEC
  0
SECTION
  2
CLASSES
  0
CLASS
  1
ACDBDICTIONARYWDFLT
  2
AcDbDictionaryWithDefault
  3
ObjectDBX Classes
 90
        0
 91
        4
280
     0
281
     0
  0
CLASS
  1
VISUALSTYLE
  2
AcDbVisualStyle
  3
ObjectDBX Classes
 90
     4095
 91
        4
280
     0
281
     0
  0
CLASS
  1
MATERIAL
  2
AcDbMaterial
  3
ObjectDBX Classes
 90
     1153
 91
        4
280
     0
281
     0
  0
ENDSEC
  0
SECTION
  2
TABLES
  0
TABLE
  2
VPORT
  5
8
330
0
100
AcDbSymbolTable
 70
     1
  0
VPORT
  5
29
330
8
100
AcDbSymbolTableRecord
100
AcDbViewportTableRecord
  2
*Active
 70
     0
 10
0.0
 20
0.0
 11
1.0
 21
1.0
 12
10.42990654205607
 22
4.5
 13
0.0
 23
0.0
 14
0.5
 24
0.5
 15
0.5
 25
0.5
 16
0.0
 26
0.0
 36
1.0
 17
0.0
 27
0.0
 37
0.0
 40
9.0
 41
1.972972972850329
 42
50.0
 43
0.0
 44
0.0
 50
0.0
 51
0.0
 71
     0
 72
   100
 73
     1
 74
     3
 75
     0
 76
     0
 77
     0
 78
     0
281
     0
 65
     1
110
0.0
120
0.0
130
0.0
111
1.0
121
0.0
131
0.0
112
0.0
122
1.0
132
0.0
 79
     0
146
0.0
 60
     3
 61
     5
292
     1
282
     1
141
0.0
142
0.0
 63
   250
  0
ENDTAB
  0
TABLE
  2
LTYPE
  5
5
330
0
100
AcDbSymbolTable
 70
     1
  0
LTYPE
  5
14
330
5
100
AcDbSymbolTableRecord
100
AcDbLinetypeTableRecord
  2
ByBlock
 70
     0
  3

 72
    65
 73
     0
 40
0.0
  0
LTYPE
  5
15
330
5
100
AcDbSymbolTableRecord
100
AcDbLinetypeTableRecord
  2
ByLayer
 70
     0
  3

 72
    65
 73
     0
 40
0.0
  0
LTYPE
  5
16
330
5
100
AcDbSymbolTableRecord
100
AcDbLinetypeTableRecord
  2
Continuous
 70
     0
  3
Solid line
 72
    65
 73
     0
 40
0.0
  0
ENDTAB
  0
TABLE
  2
LAYER
  5
2
330
0
100
AcDbSymbolTable
 70
     2
  0
LAYER
  5
10
330
2
100
AcDbSymbolTableRecord
100
AcDbLayerTableRecord
  2
0
 70
     0
 62
     7
  6
Continuous
370
    -3
390
F
347
3E
  0
LAYER
  5
40
330
2
100
AcDbSymbolTableRecord
100
AcDbLayerTableRecord
  2
Layer 1
 70
     0
 62
     7
  6
Continuous
370
    -3
390
F
347
3E
  0
ENDTAB
  0
TABLE
  2
STYLE
  5
3
330
0
100
AcDbSymbolTable
 70
     1
  0
STYLE
  5
11
330
3
100
AcDbSymbolTableRecord
100
AcDbTextStyleTableRecord
  2
Standard
 70
     0
 40
0.0
 41
1.0
 50
0.0
 71
     0
 42
0.2
  3
txt
  4

  0
ENDTAB
  0
TABLE
  2
VIEW
  5
6
330
0
100
AcDbSymbolTable
 70
     0
  0
ENDTAB
  0
TABLE
  2
UCS
  5
7
330
0
100
AcDbSymbolTable
 70
     0
  0
ENDTAB
  0
TABLE
  2
APPID
  5
9
330
0
100
AcDbSymbolTable
 70
     2
  0
APPID
  5
12
330
9
100
AcDbSymbolTableRecord
100
AcDbRegAppTableRecord
  2
ACAD
 70
     0
  0
APPID
  5
3F
330
9
100
AcDbSymbolTableRecord
100
AcDbRegAppTableRecord
  2
ODA
 70
     0
  0
ENDTAB
  0
TABLE
  2
DIMSTYLE
  5
A
330
0
100
AcDbSymbolTable
 70
     1
100
AcDbDimStyleTable
  0
DIMSTYLE
105
27
330
A
100
AcDbSymbolTableRecord
100
AcDbDimStyleTableRecord
  2
Standard
 70
     0
178
     0
340
11
  0
ENDTAB
  0
TABLE
  2
BLOCK_RECORD
  5
1
330
0
100
AcDbSymbolTable
 70
     1
  0
BLOCK_RECORD
  5
1F
330
1
100
AcDbSymbolTableRecord
100
AcDbBlockTableRecord
  2
*Model_Space
340
22
 70
     0
280
     1
281
     0
  0
BLOCK_RECORD
  5
1B
330
1
100
AcDbSymbolTableRecord
100
AcDbBlockTableRecord
  2
*Paper_Space
340
1E
 70
     0
280
     1
281
     0
  0
BLOCK_RECORD
  5
23
330
1
100
AcDbSymbolTableRecord
100
AcDbBlockTableRecord
  2
*Paper_Space0
340
26
 70
     0
280
     1
281
     0
  0
ENDTAB
  0
ENDSEC
  0
SECTION
  2
BLOCKS
  0
BLOCK
  5
20
330
1F
100
AcDbEntity
  8
0
100
AcDbBlockBegin
  2
*Model_Space
 70
     0
 10
0.0
 20
0.0
 30
0.0
  3
*Model_Space
  1

  0
ENDBLK
  5
21
330
1F
100
AcDbEntity
  8
0
100
AcDbBlockEnd
  0
BLOCK
  5
1C
330
1B
100
AcDbEntity
 67
     1
  8
0
100
AcDbBlockBegin
  2
*Paper_Space
 70
     0
 10
0.0
 20
0.0
 30
0.0
  3
*Paper_Space
  1

  0
ENDBLK
  5
1D
330
1B
100
AcDbEntity
 67
     1
  8
0
100
AcDbBlockEnd
  0
BLOCK
  5
24
330
23
100
AcDbEntity
  8
0
100
AcDbBlockBegin
  2
*Paper_Space0
 70
     0
 10
0.0
 20
0.0
 30
0.0
  3
*Paper_Space0
  1

  0
ENDBLK
  5
25
330
23
100
AcDbEntity
  8
0
100
AcDbBlockEnd
  0
ENDSEC
  0
SECTION
  2
ENTITIES
  0
SPLINE
  5
41
330
1F
100
AcDbEntity
  8
Layer 1
370
    53
100
AcDbSpline
210
0.0
220
0.0
230
1.0
 70
    11
 71
     3
 72
   324
 73
   320
 74
     0
 42
0.0000000001
 43
0.0000000001
 12
1.0
 22
0.0
 32
0.0
 13
1.0
 23
0.0
 33
0.0
 40
0.0
 40
0.0
 40
0.0
 40
0.0
 40
0.0123456790123457
 40
0.0123456790123457
 40
0.0123456790123457
 40
0.0123456790123457
 40
0.0246913580246914
 40
0.0246913580246914
 40
0.0246913580246914
 40
0.0246913580246914
 40
0.037037037037037
 40
0.037037037037037
 40
0.037037037037037
 40
0.037037037037037
 40
0.0493827160493827
 40
0.0493827160493827
 40
0.0493827160493827
 40
0.0493827160493827
 40
0.0617283950617284
 40
0.0617283950617284
 40
0.0617283950617284
 40
0.0617283950617284
 40
0.0740740740740741
 40
0.0740740740740741
 40
0.0740740740740741
 40
0.0740740740740741
 40
0.0864197530864197
 40
0.0864197530864197
 40
0.0864197530864197
 40
0.0864197530864197
 40
0.0987654320987654
 40
0.0987654320987654
 40
0.0987654320987654
 40
0.0987654320987654
 40
0.1111111111111111
 40
0.1111111111111111
 40
0.1111111111111111
 40
0.1111111111111111
 40
0.1234567901234568
 40
0.1234567901234568
 40
0.1234567901234568
 40
0.1234567901234568
 40
0.1358024691358025
 40
0.1358024691358025
 40
0.1358024691358025
 40
0.1358024691358025
 40
0.1481481481481481
 40
0.1481481481481481
 40
0.1481481481481481
 40
0.1481481481481481
 40
0.1604938271604938
 40
0.1604938271604938
 40
0.1604938271604938
 40
0.1604938271604938
 40
0.1728395061728395
 40
0.1728395061728395
 40
0.1728395061728395
 40
0.1728395061728395
 40
0.1851851851851852
 40
0.1851851851851852
 40
0.1851851851851852
 40
0.1851851851851852
 40
0.1975308641975309
 40
0.1975308641975309
 40
0.1975308641975309
 40
0.1975308641975309
 40
0.2098765432098765
 40
0.2098765432098765
 40
0.2098765432098765
 40
0.2098765432098765
 40
0.2222222222222222
 40
0.2222222222222222
 40
0.2222222222222222
 40
0.2222222222222222
 40
0.2345679012345679
 40
0.2345679012345679
 40
0.2345679012345679
 40
0.2345679012345679
 40
0.2469135802469136
 40
0.2469135802469136
 40
0.2469135802469136
 40
0.2469135802469136
 40
0.2592592592592592
 40
0.2592592592592592
 40
0.2592592592592592
 40
0.2592592592592592
 40
0.2716049382716049
 40
0.2716049382716049
 40
0.2716049382716049
 40
0.2716049382716049
 40
0.2839506172839506
 40
0.2839506172839506
 40
0.2839506172839506
 40
0.2839506172839506
 40
0.2962962962962963
 40
0.2962962962962963
 40
0.2962962962962963
 40
0.2962962962962963
 40
0.308641975308642
 40
0.308641975308642
 40
0.308641975308642
 40
0.308641975308642
 40
0.3209876543209876
 40
0.3209876543209876
 40
0.3209876543209876
 40
0.3209876543209876
 40
0.3333333333333333
 40
0.3333333333333333
 40
0.3333333333333333
 40
0.3333333333333333
 40
0.345679012345679
 40
0.345679012345679
 40
0.345679012345679
 40
0.345679012345679
 40
0.3580246913580247
 40
0.3580246913580247
 40
0.3580246913580247
 40
0.3580246913580247
 40
0.3703703703703703
 40
0.3703703703703703
 40
0.3703703703703703
 40
0.3703703703703703
 40
0.382716049382716
 40
0.382716049382716
 40
0.382716049382716
 40
0.382716049382716
 40
0.3950617283950617
 40
0.3950617283950617
 40
0.3950617283950617
 40
0.3950617283950617
 40
0.4074074074074074
 40
0.4074074074074074
 40
0.4074074074074074
 40
0.4074074074074074
 40
0.4197530864197531
 40
0.4197530864197531
 40
0.4197530864197531
 40
0.4197530864197531
 40
0.4320987654320987
 40
0.4320987654320987
 40
0.4320987654320987
 40
0.4320987654320987
 40
0.4444444444444444
 40
0.4444444444444444
 40
0.4444444444444444
 40
0.4444444444444444
 40
0.4567901234567901
 40
0.4567901234567901
 40
0.4567901234567901
 40
0.4567901234567901
 40
0.4691358024691358
 40
0.4691358024691358
 40
0.4691358024691358
 40
0.4691358024691358
 40
0.4814814814814815
 40
0.4814814814814815
 40
0.4814814814814815
 40
0.4814814814814815
 40
0.4938271604938271
 40
0.4938271604938271
 40
0.4938271604938271
 40
0.4938271604938271
 40
0.5061728395061729
 40
0.5061728395061729
 40
0.5061728395061729
 40
0.5061728395061729
 40
0.5185185185185185
 40
0.5185185185185185
 40
0.5185185185185185
 40
0.5185185185185185
 40
0.5308641975308642
 40
0.5308641975308642
 40
0.5308641975308642
 40
0.5308641975308642
 40
0.5432098765432098
 40
0.5432098765432098
 40
0.5432098765432098
 40
0.5432098765432098
 40
0.5555555555555556
 40
0.5555555555555556
 40
0.5555555555555556
 40
0.5555555555555556
 40
0.5679012345679012
 40
0.5679012345679012
 40
0.5679012345679012
 40
0.5679012345679012
 40
0.5802469135802469
 40
0.5802469135802469
 40
0.5802469135802469
 40
0.5802469135802469
 40
0.5925925925925926
 40
0.5925925925925926
 40
0.5925925925925926
 40
0.5925925925925926
 40
0.6049382716049383
 40
0.6049382716049383
 40
0.6049382716049383
 40
0.6049382716049383
 40
0.6172839506172839
 40
0.6172839506172839
 40
0.6172839506172839
 40
0.6172839506172839
 40
0.6296296296296297
 40
0.6296296296296297
 40
0.6296296296296297
 40
0.6296296296296297
 40
0.6419753086419753
 40
0.6419753086419753
 40
0.6419753086419753
 40
0.6419753086419753
 40
0.654320987654321
 40
0.654320987654321
 40
0.654320987654321
 40
0.654320987654321
 40
0.6666666666666666
 40
0.6666666666666666
 40
0.6666666666666666
 40
0.6666666666666666
 40
0.6790123456790124
 40
0.6790123456790124
 40
0.6790123456790124
 40
0.6790123456790124
 40
0.691358024691358
 40
0.691358024691358
 40
0.691358024691358
 40
0.691358024691358
 40
0.7037037037037037
 40
0.7037037037037037
 40
0.7037037037037037
 40
0.7037037037037037
 40
0.7160493827160493
 40
0.7160493827160493
 40
0.7160493827160493
 40
0.7160493827160493
 40
0.7283950617283951
 40
0.7283950617283951
 40
0.7283950617283951
 40
0.7283950617283951
 40
0.7407407407407407
 40
0.7407407407407407
 40
0.7407407407407407
 40
0.7407407407407407
 40
0.7530864197530864
 40
0.7530864197530864
 40
0.7530864197530864
 40
0.7530864197530864
 40
0.7654320987654321
 40
0.7654320987654321
 40
0.7654320987654321
 40
0.7654320987654321
 40
0.7777777777777778
 40
0.7777777777777778
 40
0.7777777777777778
 40
0.7777777777777778
 40
0.7901234567901234
 40
0.7901234567901234
 40
0.7901234567901234
 40
0.7901234567901234
 40
0.8024691358024691
 40
0.8024691358024691
 40
0.8024691358024691
 40
0.8024691358024691
 40
0.8148148148148148
 40
0.8148148148148148
 40
0.8148148148148148
 40
0.8148148148148148
 40
0.8271604938271605
 40
0.8271604938271605
 40
0.8271604938271605
 40
0.8271604938271605
 40
0.8395061728395061
 40
0.8395061728395061
 40
0.8395061728395061
 40
0.8395061728395061
 40
0.8518518518518519
 40
0.8518518518518519
 40
0.8518518518518519
 40
0.8518518518518519
 40
0.8641975308641975
 40
0.8641975308641975
 40
0.8641975308641975
 40
0.8641975308641975
 40
0.8765432098765432
 40
0.8765432098765432
 40
0.8765432098765432
 40
0.8765432098765432
 40
0.8888888888888888
 40
0.8888888888888888
 40
0.8888888888888888
 40
0.8888888888888888
 40
0.9012345679012346
 40
0.9012345679012346
 40
0.9012345679012346
 40
0.9012345679012346
 40
0.9135802469135802
 40
0.9135802469135802
 40
0.9135802469135802
 40
0.9135802469135802
 40
0.9259259259259259
 40
0.9259259259259259
 40
0.9259259259259259
 40
0.9259259259259259
 40
0.9382716049382716
 40
0.9382716049382716
 40
0.9382716049382716
 40
0.9382716049382716
 40
0.9506172839506173
 40
0.9506172839506173
 40
0.9506172839506173
 40
0.9506172839506173
 40
0.9629629629629629
 40
0.9629629629629629
 40
0.9629629629629629
 40
0.9629629629629629
 40
0.9753086419753086
 40
0.9753086419753086
 40
0.9753086419753086
 40
0.9753086419753086
 40
1.0
 40
1.0
 40
1.0
 40
1.0
 10
-0.66116
 20
20.19698
 30
0.0
 10
-0.66013
 20
18.95926
 30
0.0
 10
-0.64694
 20
17.72143
 30
0.0
 10
-0.66133
 20
16.48389
 30
0.0
 10
-0.66133
 20
16.48389
 30
0.0
 10
-0.67682
 20
15.14622
 30
0.0
 10
-0.71954
 20
13.80891
 30
0.0
 10
-0.74755
 20
12.47139
 30
0.0
 10
-0.74755
 20
12.47139
 30
0.0
 10
-0.76568
 20
11.60458
 30
0.0
 10
-0.77655
 20
10.73763
 30
0.0
 10
-0.79461
 20
9.87082
 30
0.0
 10
-0.79461
 20
9.87082
 30
0.0
 10
-0.81472
 20
8.90576
 30
0.0
 10
-0.84019
 20
7.94084
 30
0.0
 10
-0.86175
 20
6.97582
 30
0.0
 10
-0.86175
 20
6.97582
 30
0.0
 10
-0.89766
 20
5.36677
 30
0.0
 10
-0.92415
 20
3.75746
 30
0.0
 10
-0.97086
 20
2.14869
 30
0.0
 10
-0.97086
 20
2.14869
 30
0.0
 10
-0.99495
 20
1.3203
 30
0.0
 10
-2.12293
 20
-17.22498
 30
0.0
 10
-2.1624
 20
-18.05299
 30
0.0
 10
-2.1624
 20
-18.05299
 30
0.0
 10
-2.17182
 20
-18.25033
 30
0.0
 10
-2.15951
 20
-18.44859
 30
0.0
 10
-2.15986
 20
-18.64646
 30
0.0
 10
-2.15986
 20
-18.64646
 30
0.0
 10
-2.16043
 20
-18.94347
 30
0.0
 10
-2.27776
 20
-19.02288
 30
0.0
 10
-2.55744
 20
-18.92925
 30
0.0
 10
-2.55744
 20
-18.92925
 30
0.0
 10
-2.80234
 20
-18.84727
 30
0.0
 10
-2.96924
 20
-18.69539
 30
0.0
 10
-2.99817
 20
-18.43279
 30
0.0
 10
-2.99817
 20
-18.43279
 30
0.0
 10
-3.02367
 20
-18.20115
 30
0.0
 10
-3.03256
 20
-17.96716
 30
0.0
 10
-3.03754
 20
-17.73393
 30
0.0
 10
-3.03754
 20
-17.73393
 30
0.0
 10
-3.04361
 20
-17.44977
 30
0.0
 10
-3.04269
 20
-17.16522
 30
0.0
 10
-3.03644
 20
-16.88102
 30
0.0
 10
-3.03644
 20
-16.88102
 30
0.0
 10
-3.01679
 20
-15.98973
 30
0.0
 10
-1.92163
 20
2.6194
 30
0.0
 10
-1.90569
 20
3.51077
 30
0.0
 10
-1.90569
 20
3.51077
 30
0.0
 10
-1.87813
 20
5.04655
 30
0.0
 10
-1.87097
 20
6.58286
 30
0.0
 10
-1.82942
 20
8.11822
 30
0.0
 10
-1.82942
 20
8.11822
 30
0.0
 10
-1.80461
 20
9.03424
 30
0.0
 10
-1.76105
 20
10.0149
 30
0.0
 10
-1.67677
 20
11.38392
 30
0.0
 10
-1.67677
 20
11.38392
 30
0.0
 10
-1.59672
 20
12.68398
 30
0.0
 10
-1.55668
 20
13.33404
 30
0.0
 10
-1.47628
 20
14.22361
 30
0.0
 10
-1.47628
 20
14.22361
 30
0.0
 10
-1.29425
 20
16.23712
 30
0.0
 10
-1.32671
 20
18.26443
 30
0.0
 10
-1.2178
 20
20.2832
 30
0.0
 10
-1.2178
 20
20.2832
 30
0.0
 10
-1.2171
 20
20.29667
 30
0.0
 10
-1.21424
 20
20.34296
 30
0.0
 10
-1.23167
 20
20.39842
 30
0.0
 10
-1.23167
 20
20.39842
 30
0.0
 10
-1.24126
 20
20.42907
 30
0.0
 10
-1.25679
 20
20.46047
 30
0.0
 10
-1.28095
 20
20.49314
 30
0.0
 10
-1.28095
 20
20.49314
 30
0.0
 10
-1.32815
 20
20.29121
 30
0.0
 10
-1.58603
 20
18.13517
 30
0.0
 10
-1.62646
 20
17.9319
 30
0.0
 10
-1.62646
 20
17.9319
 30
0.0
 10
-1.71162
 20
17.50384
 30
0.0
 10
-1.84349
 20
17.09268
 30
0.0
 10
-2.06422
 20
16.71489
 30
0.0
 10
-2.06422
 20
16.71489
 30
0.0
 10
-2.10299
 20
16.64856
 30
0.0
 10
-2.1824
 20
16.56143
 30
0.0
 10
-2.24058
 20
16.56326
 30
0.0
 10
-2.24058
 20
16.56326
 30
0.0
 10
-2.30203
 20
16.56513
 30
0.0
 10
-2.38441
 20
16.65065
 30
0.0
 10
-2.41665
 20
16.71898
 30
0.0
 10
-2.41665
 20
16.71898
 30
0.0
 10
-2.71909
 20
17.35952
 30
0.0
 10
-2.95735
 20
18.01533
 30
0.0
 10
-3.03997
 20
18.7308
 30
0.0
 10
-3.03997
 20
18.7308
 30
0.0
 10
-3.1439
 20
19.63035
 30
0.0
 10
-3.24046
 20
20.52439
 30
0.0
 10
-3.0338
 20
21.48684
 30
0.0
 10
-3.0338
 20
21.48684
 30
0.0
 10
-3.14394
 20
21.41629
 30
0.0
 10
-3.20451
 20
21.3875
 30
0.0
 10
-3.25294
 20
21.34492
 30
0.0
 10
-3.25294
 20
21.34492
 30
0.0
 10
-3.92978
 20
20.75003
 30
0.0
 10
-4.71761
 20
20.33273
 30
0.0
 10
-5.51608
 20
19.93412
 30
0.0
 10
-5.51608
 20
19.93412
 30
0.0
 10
-5.73181
 20
19.82646
 30
0.0
 10
-5.96055
 20
19.75548
 30
0.0
 10
-6.17391
 20
20.00454
 30
0.0
 10
-6.17391
 20
20.00454
 30
0.0
 10
-5.88428
 20
21.32516
 30
0.0
 10
-5.07465
 20
22.31883
 30
0.0
 10
-4.03597
 20
23.24847
 30
0.0
 10
-4.03597
 20
23.24847
 30
0.0
 10
-4.14935
 20
23.25168
 30
0.0
 10
-4.19126
 20
23.26135
 30
0.0
 10
-4.22887
 20
23.2526
 30
0.0
 10
-4.22887
 20
23.2526
 30
0.0
 10
-4.61477
 20
23.16278
 30
0.0
 10
-5.01489
 20
23.1092
 30
0.0
 10
-5.38217
 20
22.96967
 30
0.0
 10
-5.38217
 20
22.96967
 30
0.0
 10
-6.11062
 20
22.69292
 30
0.0
 10
-6.8166
 20
22.35997
 30
0.0
 10
-7.45925
 20
21.90943
 30
0.0
 10
-7.45925
 20
21.90943
 30
0.0
 10
-7.50995
 20
21.87387
 30
0.0
 10
-7.56138
 20
21.83877
 30
0.0
 10
-7.60859
 20
21.79891
 30
0.0
 10
-7.60859
 20
21.79891
 30
0.0
 10
-7.71389
 20
21.70994
 30
0.0
 10
-7.82417
 20
21.68239
 30
0.0
 10
-7.94923
 20
21.75696
 30
0.0
 10
-7.94923
 20
21.75696
 30
0.0
 10
-8.09824
 20
21.84579
 30
0.0
 10
-8.08399
 20
21.98048
 30
0.0
 10
-8.04779
 20
22.11729
 30
0.0
 10
-8.04779
 20
22.11729
 30
0.0
 10
-7.85415
 20
22.84969
 30
0.0
 10
-7.4553
 20
23.44292
 30
0.0
 10
-6.85368
 20
23.90647
 30
0.0
 10
-6.85368
 20
23.90647
 30
0.0
 10
-6.36564
 20
24.28246
 30
0.0
 10
-5.82416
 20
24.54394
 30
0.0
 10
-5.14299
 20
24.71716
 30
0.0
 10
-5.14299
 20
24.71716
 30
0.0
 10
-5.29539
 20
24.77177
 30
0.0
 10
-5.36386
 20
24.80838
 30
0.0
 10
-5.43639
 20
24.82045
 30
0.0
 10
-5.43639
 20
24.82045
 30
0.0
 10
-6.25487
 20
24.95641
 30
0.0
 10
-6.99966
 20
25.28746
 30
0.0
 10
-7.72289
 20
25.67664
 30
0.0
 10
-7.72289
 20
25.67664
 30
0.0
 10
-7.76649
 20
25.70014
 30
0.0
 10
-7.81217
 20
25.72208
 30
0.0
 10
-7.85038
 20
25.75284
 30
0.0
 10
-7.85038
 20
25.75284
 30
0.0
 10
-8.00087
 20
25.87406
 30
0.0
 10
-7.98659
 20
25.99947
 30
0.0
 10
-7.81249
 20
26.09782
 30
0.0
 10
-7.81249
 20
26.09782
 30
0.0
 10
-7.78035
 20
26.11599
 30
0.0
 10
-7.74546
 20
26.13074
 30
0.0
 10
-7.71015
 20
26.1415
 30
0.0
 10
-7.71015
 20
26.1415
 30
0.0
 10
-7.08182
 20
26.33334
 30
0.0
 10
-6.45631
 20
26.52419
 30
0.0
 10
-5.78709
 20
26.53407
 30
0.0
 10
-5.78709
 20
26.53407
 30
0.0
 10
-5.45929
 20
26.53894
 30
0.0
 10
-5.13258
 20
26.61916
 30
0.0
 10
-4.74022
 20
26.6744
 30
0.0
 10
-4.74022
 20
26.6744
 30
0.0
 10
-4.8916
 20
26.80271
 30
0.0
 10
-5.00434
 20
26.90805
 30
0.0
 10
-5.12697
 20
27.00023
 30
0.0
 10
-5.12697
 20
27.00023
 30
0.0
 10
-5.39843
 20
27.20431
 30
0.0
 10
-5.3978
 20
27.34913
 30
0.0
 10
-5.09949
 20
27.52206
 30
0.0
 10
-5.09949
 20
27.52206
 30
0.0
 10
-4.91798
 20
27.62726
 30
0.0
 10
-4.72988
 20
27.74769
 30
0.0
 10
-4.52993
 20
27.78844
 30
0.0
 10
-4.52993
 20
27.78844
 30
0.0
 10
-4.19035
 20
27.85765
 30
0.0
 10
-3.90714
 20
28.02568
 30
0.0
 10
-3.63172
 20
28.21015
 30
0.0
 10
-3.63172
 20
28.21015
 30
0.0
 10
-3.23971
 20
28.47272
 30
0.0
 10
-2.83
 20
28.51707
 30
0.0
 10
-2.39382
 20
28.36379
 30
0.0
 10
-2.39382
 20
28.36379
 30
0.0
 10
-2.04718
 20
28.24197
 30
0.0
 10
-1.70393
 20
28.11035
 30
0.0
 10
-1.35701
 20
27.98229
 30
0.0
 10
-1.35701
 20
27.98229
 30
0.0
 10
-1.2776
 20
28.32999
 30
0.0
 10
-1.21502
 20
28.69568
 30
0.0
 10
-1.10908
 20
29.04839
 30
0.0
 10
-1.10908
 20
29.04839
 30
0.0
 10
-0.90496
 20
29.72815
 30
0.0
 10
-0.78519
 20
29.81621
 30
0.0
 10
-0.11858
 20
29.40959
 30
0.0
 10
-0.11858
 20
29.40959
 30
0.0
 10
0.20029
 20
29.21511
 30
0.0
 10
0.41485
 20
28.92054
 30
0.0
 10
0.48209
 20
28.54991
 30
0.0
 10
0.48209
 20
28.54991
 30
0.0
 10
0.54591
 20
28.19816
 30
0.0
 10
0.57304
 20
27.83973
 30
0.0
 10
0.61512
 20
27.4841
 30
0.0
 10
0.61512
 20
27.4841
 30
0.0
 10
0.62204
 20
27.42557
 30
0.0
 10
0.62303
 20
27.36634
 30
0.0
 10
0.62786
 20
27.29
 30
0.0
 10
0.62786
 20
27.29
 30
0.0
 10
1.34915
 20
27.238
 30
0.0
 10
2.04789
 20
27.20971
 30
0.0
 10
2.73412
 20
27.44356
 30
0.0
 10
2.73412
 20
27.44356
 30
0.0
 10
3.17583
 20
27.59409
 30
0.0
 10
3.62943
 20
27.63798
 30
0.0
 10
4.08663
 20
27.4992
 30
0.0
 10
4.08663
 20
27.4992
 30
0.0
 10
4.15775
 20
27.47764
 30
0.0
 10
4.23191
 20
27.46141
 30
0.0
 10
4.29802
 20
27.42907
 30
0.0
 10
4.29802
 20
27.42907
 30
0.0
 10
4.47638
 20
27.34179
 30
0.0
 10
4.67143
 20
27.25903
 30
0.0
 10
4.68858
 20
27.02379
 30
0.0
 10
4.68858
 20
27.02379
 30
0.0
 10
4.70403
 20
26.81139
 30
0.0
 10
4.52517
 20
26.73162
 30
0.0
 10
4.38156
 20
26.64177
 30
0.0
 10
4.38156
 20
26.64177
 30
0.0
 10
3.92055
 20
26.35341
 30
0.0
 10
3.45481
 20
26.07267
 30
0.0
 10
2.99147
 20
25.78805
 30
0.0
 10
2.99147
 20
25.78805
 30
0.0
 10
2.93993
 20
25.75637
 30
0.0
 10
2.89223
 20
25.71834
 30
0.0
 10
2.82439
 20
25.67022
 30
0.0
 10
2.82439
 20
25.67022
 30
0.0
 10
3.67268
 20
25.1014
 30
0.0
 10
4.27766
 20
24.32141
 30
0.0
 10
4.89516
 20
23.55352
 30
0.0
 10
4.89516
 20
23.55352
 30
0.0
 10
5.02657
 20
23.06281
 30
0.0
 10
5.4872
 20
22.92579
 30
0.0
 10
5.83454
 20
22.66089
 30
0.0
 10
5.83454
 20
22.66089
 30
0.0
 10
6.02561
 20
22.51519
 30
0.0
 10
6.19737
 20
22.32321
 30
0.0
 10
6.32321
 20
22.11849
 30
0.0
 10
6.32321
 20
22.11849
 30
0.0
 10
6.4615
 20
21.89345
 30
0.0
 10
6.35648
 20
21.72585
 30
0.0
 10
6.09433
 20
21.71773
 30
0.0
 10
6.09433
 20
21.71773
 30
0.0
 10
5.29331
 20
21.6929
 30
0.0
 10
4.49187
 20
21.68147
 30
0.0
 10
3.67028
 20
21.66443
 30
0.0
 10
3.67028
 20
21.66443
 30
0.0
 10
3.71071
 20
21.59282
 30
0.0
 10
3.76225
 20
21.4897
 30
0.0
 10
3.82434
 20
21.39339
 30
0.0
 10
3.82434
 20
21.39339
 30
0.0
 10
4.17402
 20
20.85117
 30
0.0
 10
4.50242
 20
20.29794
 30
0.0
 10
4.71659
 20
19.68524
 30
0.0
 10
4.71659
 20
19.68524
 30
0.0
 10
4.83283
 20
19.35271
 30
0.0
 10
4.92727
 20
19.01994
 30
0.0
 10
4.66205
 20
18.68166
 30
0.0
 10
4.66205
 20
18.68166
 30
0.0
 10
4.37076
 20
18.70406
 30
0.0
 10
4.11034
 20
18.81847
 30
0.0
 10
3.90291
 20
19.01528
 30
0.0
 10
3.90291
 20
19.01528
 30
0.0
 10
3.52649
 20
19.37243
 30
0.0
 10
3.17001
 20
19.75057
 30
0.0
 10
2.80661
 20
20.12134
 30
0.0
 10
2.80661
 20
20.12134
 30
0.0
 10
2.43457
 20
20.50086
 30
0.0
 10
2.07026
 20
20.88825
 30
0.0
 10
1.68958
 20
21.25888
 30
0.0
 10
1.68958
 20
21.25888
 30
0.0
 10
1.56932
 20
21.376
 30
0.0
 10
1.40739
 20
21.45022
 30
0.0
 10
1.2128
 20
21.57803
 30
0.0
 10
1.2128
 20
21.57803
 30
0.0
 10
1.23136
 20
21.44645
 30
0.0
 10
1.23601
 20
21.36954
 30
0.0
 10
1.25358
 20
21.29571
 30
0.0
 10
1.25358
 20
21.29571
 30
0.0
 10
1.39272
 20
20.71017
 30
0.0
 10
1.37666
 20
20.11482
 30
0.0
 10
1.36767
 20
19.52014
 30
0.0
 10
1.36767
 20
19.52014
 30
0.0
 10
1.3573
 20
18.8361
 30
0.0
 10
1.28946
 20
18.15986
 30
0.0
 10
1.07363
 20
17.5056
 30
0.0
 10
1.07363
 20
17.5056
 30
0.0
 10
1.01584
 20
17.33041
 30
0.0
 10
0.97379
 20
17.14432
 30
0.0
 10
0.78096
 20
17.05546
 30
0.0
 10
0.78096
 20
17.05546
 30
0.0
 10
0.57307
 20
17.08862
 30
0.0
 10
0.49962
 20
17.26353
 30
0.0
 10
0.43644
 20
17.41515
 30
0.0
 10
0.43644
 20
17.41515
 30
0.0
 10
0.20766
 20
17.96411
 30
0.0
 10
0.02108
 20
18.34285
 30
0.0
 10
-0.11086
 20
18.83483
 30
0.0
 10
-0.11086
 20
18.83483
 30
0.0
 10
-0.20068
 20
19.1699
 30
0.0
 10
-0.35967
 20
19.6434
 30
0.0
 10
-0.66116
 20
20.19698
 30
0.0
  0
SPLINE
  5
42
330
1F
100
AcDbEntity
  8
Layer 1
370
    53
100
AcDbSpline
210
0.0
220
0.0
230
1.0
 70
    11
 71
     3
 72
    44
 73
    40
 74
     0
 42
0.0000000001
 43
0.0000000001
 12
1.0
 22
0.0
 32
0.0
 13
1.0
 23
0.0
 33
0.0
 40
0.0
 40
0.0
 40
0.0
 40
0.0
 40
0.0909090909090909
 40
0.0909090909090909
 40
0.0909090909090909
 40
0.0909090909090909
 40
0.1818181818181818
 40
0.1818181818181818
 40
0.1818181818181818
 40
0.1818181818181818
 40
0.2727272727272727
 40
0.2727272727272727
 40
0.2727272727272727
 40
0.2727272727272727
 40
0.3636363636363636
 40
0.3636363636363636
 40
0.3636363636363636
 40
0.3636363636363636
 40
0.4545454545454545
 40
0.4545454545454545
 40
0.4545454545454545
 40
0.4545454545454545
 40
0.5454545454545454
 40
0.5454545454545454
 40
0.5454545454545454
 40
0.5454545454545454
 40
0.6363636363636364
 40
0.6363636363636364
 40
0.6363636363636364
 40
0.6363636363636364
 40
0.7272727272727273
 40
0.7272727272727273
 40
0.7272727272727273
 40
0.7272727272727273
 40
0.8181818181818182
 40
0.8181818181818182
 40
0.8181818181818182
 40
0.8181818181818182
 40
1.0
 40
1.0
 40
1.0
 40
1.0
 10
-0.49482
 20
23.48833
 30
0.0
 10
-0.42935
 20
23.41636
 30
0.0
 10
-0.37237
 20
23.33441
 30
0.0
 10
-0.29758
 20
23.27468
 30
0.0
 10
-0.29758
 20
23.27468
 30
0.0
 10
0.17574
 20
22.89658
 30
0.0
 10
0.63132
 20
22.49067
 30
0.0
 10
1.13438
 20
22.15673
 30
0.0
 10
1.13438
 20
22.15673
 30
0.0
 10
1.78917
 20
21.72211
 30
0.0
 10
2.3987
 20
21.24487
 30
0.0
 10
2.92211
 20
20.65873
 30
0.0
 10
2.92211
 20
20.65873
 30
0.0
 10
3.26854
 20
20.27075
 30
0.0
 10
3.61261
 20
19.88054
 30
0.0
 10
3.96556
 20
19.49862
 30
0.0
 10
3.96556
 20
19.49862
 30
0.0
 10
4.06603
 20
19.38989
 30
0.0
 10
4.15324
 20
19.24416
 30
0.0
 10
4.34691
 20
19.23298
 30
0.0
 10
4.34691
 20
19.23298
 30
0.0
 10
4.33552
 20
19.31405
 30
0.0
 10
4.33827
 20
19.37864
 30
0.0
 10
4.31643
 20
19.43343
 30
0.0
 10
4.31643
 20
19.43343
 30
0.0
 10
4.25237
 20
19.59415
 30
0.0
 10
4.18298
 20
19.75311
 30
0.0
 10
4.10773
 20
19.9089
 30
0.0
 10
4.10773
 20
19.9089
 30
0.0
 10
3.44994
 20
21.27076
 30
0.0
 10
2.67016
 20
22.53925
 30
0.0
 10
1.40291
 20
23.43389
 30
0.0
 10
1.40291
 20
23.43389
 30
0.0
 10
1.06118
 20
23.67512
 30
0.0
 10
0.73577
 20
23.94574
 30
0.0
 10
0.34363
 20
24.02758
 30
0.0
 10
0.34363
 20
24.02758
 30
0.0
 10
0.05601
 20
23.84259
 30
0.0
 10
-0.20219
 20
23.6765
 30
0.0
 10
-0.49482
 20
23.48833
 30
0.0
  0
SPLINE
  5
43
330
1F
100
AcDbEntity
  8
Layer 1
370
    53
100
AcDbSpline
210
0.0
220
0.0
230
1.0
 70
    11
 71
     3
 72
    40
 73
    36
 74
     0
 42
0.0000000001
 43
0.0000000001
 12
1.0
 22
0.0
 32
0.0
 13
1.0
 23
0.0
 33
0.0
 40
0.0
 40
0.0
 40
0.0
 40
0.0
 40
0.1
 40
0.1
 40
0.1
 40
0.1
 40
0.2
 40
0.2
 40
0.2
 40
0.2
 40
0.3
 40
0.3
 40
0.3
 40
0.3
 40
0.4
 40
0.4
 40
0.4
 40
0.4
 40
0.5
 40
0.5
 40
0.5
 40
0.5
 40
0.6
 40
0.6
 40
0.6
 40
0.6
 40
0.7
 40
0.7
 40
0.7
 40
0.7
 40
0.8
 40
0.8
 40
0.8
 40
0.8
 40
1.0
 40
1.0
 40
1.0
 40
1.0
 10
-1.30741
 20
23.70511
 30
0.0
 10
-1.57122
 20
23.28438
 30
0.0
 10
-1.75029
 20
22.91217
 30
0.0
 10
-2.00933
 20
22.60811
 30
0.0
 10
-2.00933
 20
22.60811
 30
0.0
 10
-2.31886
 20
22.24482
 30
0.0
 10
-2.5204
 20
21.85765
 30
0.0
 10
-2.5699
 20
21.38665
 30
0.0
 10
-2.5699
 20
21.38665
 30
0.0
 10
-2.57762
 20
21.31324
 30
0.0
 10
-2.59879
 20
21.24099
 30
0.0
 10
-2.61664
 20
21.16895
 30
0.0
 10
-2.61664
 20
21.16895
 30
0.0
 10
-2.82541
 20
20.32659
 30
0.0
 10
-2.84746
 20
19.47812
 30
0.0
 10
-2.68264
 20
18.6274
 30
0.0
 10
-2.68264
 20
18.6274
 30
0.0
 10
-2.59946
 20
18.19796
 30
0.0
 10
-2.49602
 20
17.77191
 30
0.0
 10
-2.20417
 20
17.34738
 30
0.0
 10
-2.20417
 20
17.34738
 30
0.0
 10
-2.175
 20
17.53136
 30
0.0
 10
-2.15729
 20
17.64961
 30
0.0
 10
-2.13735
 20
17.7675
 30
0.0
 10
-2.13735
 20
17.7675
 30
0.0
 10
-2.01981
 20
18.4623
 30
0.0
 10
-1.91193
 20
19.15893
 30
0.0
 10
-1.78101
 20
19.85122
 30
0.0
 10
-1.78101
 20
19.85122
 30
0.0
 10
-1.65225
 20
20.53187
 30
0.0
 10
-1.48549
 20
21.2055
 30
0.0
 10
-1.36251
 20
21.88707
 30
0.0
 10
-1.36251
 20
21.88707
 30
0.0
 10
-1.25926
 20
22.45952
 30
0.0
 10
-1.23855
 20
23.04002
 30
0.0
 10
-1.30741
 20
23.70511
 30
0.0
  0
SPLINE
  5
44
330
1F
100
AcDbEntity
  8
Layer 1
370
    53
100
AcDbSpline
210
0.0
220
0.0
230
1.0
 70
    11
 71
     3
 72
    44
 73
    40
 74
     0
 42
0.0000000001
 43
0.0000000001
 12
1.0
 22
0.0
 32
0.0
 13
1.0
 23
0.0
 33
0.0
 40
0.0
 40
0.0
 40
0.0
 40
0.0
 40
0.0909090909090909
 40
0.0909090909090909
 40
0.0909090909090909
 40
0.0909090909090909
 40
0.1818181818181818
 40
0.1818181818181818
 40
0.1818181818181818
 40
0.1818181818181818
 40
0.2727272727272727
 40
0.2727272727272727
 40
0.2727272727272727
 40
0.2727272727272727
 40
0.3636363636363636
 40
0.3636363636363636
 40
0.3636363636363636
 40
0.3636363636363636
 40
0.4545454545454545
 40
0.4545454545454545
 40
0.4545454545454545
 40
0.4545454545454545
 40
0.5454545454545454
 40
0.5454545454545454
 40
0.5454545454545454
 40
0.5454545454545454
 40
0.6363636363636364
 40
0.6363636363636364
 40
0.6363636363636364
 40
0.6363636363636364
 40
0.7272727272727273
 40
0.7272727272727273
 40
0.7272727272727273
 40
0.7272727272727273
 40
0.8181818181818182
 40
0.8181818181818182
 40
0.8181818181818182
 40
0.8181818181818182
 40
1.0
 40
1.0
 40
1.0
 40
1.0
 10
0.67372
 20
24.38502
 30
0.0
 10
0.75666
 20
24.32984
 30
0.0
 10
0.80513
 20
24.29396
 30
0.0
 10
0.85685
 20
24.26373
 30
0.0
 10
0.85685
 20
24.26373
 30
0.0
 10
1.66298
 20
23.79203
 30
0.0
 10
2.41235
 20
23.24942
 30
0.0
 10
3.02675
 20
22.5366
 30
0.0
 10
3.02675
 20
22.5366
 30
0.0
 10
3.06633
 20
22.49071
 30
0.0
 10
3.11311
 20
22.4476
 30
0.0
 10
3.16426
 20
22.41556
 30
0.0
 10
3.16426
 20
22.41556
 30
0.0
 10
3.96295
 20
21.91536
 30
0.0
 10
4.80104
 20
22.00228
 30
0.0
 10
5.71393
 20
22.24246
 30
0.0
 10
5.71393
 20
22.24246
 30
0.0
 10
5.56812
 20
22.34557
 30
0.0
 10
5.46822
 20
22.41309
 30
0.0
 10
5.37163
 20
22.48513
 30
0.0
 10
5.37163
 20
22.48513
 30
0.0
 10
5.04453
 20
22.72897
 30
0.0
 10
4.70579
 20
22.95934
 30
0.0
 10
4.39577
 20
23.22339
 30
0.0
 10
4.39577
 20
23.22339
 30
0.0
 10
4.07125
 20
23.49983
 30
0.0
 10
3.75368
 20
23.76582
 30
0.0
 10
3.3083
 20
23.82114
 30
0.0
 10
3.3083
 20
23.82114
 30
0.0
 10
3.17562
 20
23.83761
 30
0.0
 10
3.04922
 20
23.90326
 30
0.0
 10
2.91936
 20
23.94468
 30
0.0
 10
2.91936
 20
23.94468
 30
0.0
 10
2.38857
 20
24.11391
 30
0.0
 10
1.85909
 20
24.28754
 30
0.0
 10
1.32586
 20
24.44873
 30
0.0
 10
1.32586
 20
24.44873
 30
0.0
 10
1.12722
 20
24.50877
 30
0.0
 10
0.91809
 20
24.56162
 30
0.0
 10
0.67372
 20
24.38502
 30
0.0
  0
SPLINE
  5
45
330
1F
100
AcDbEntity
  8
Layer 1
370
    53
100
AcDbSpline
210
0.0
220
0.0
230
1.0
 70
    11
 71
     3
 72
    40
 73
    36
 74
     0
 42
0.0000000001
 43
0.0000000001
 12
1.0
 22
0.0
 32
0.0
 13
1.0
 23
0.0
 33
0.0
 40
0.0
 40
0.0
 40
0.0
 40
0.0
 40
0.1
 40
0.1
 40
0.1
 40
0.1
 40
0.2
 40
0.2
 40
0.2
 40
0.2
 40
0.3
 40
0.3
 40
0.3
 40
0.3
 40
0.4
 40
0.4
 40
0.4
 40
0.4
 40
0.5
 40
0.5
 40
0.5
 40
0.5
 40
0.6
 40
0.6
 40
0.6
 40
0.6
 40
0.7
 40
0.7
 40
0.7
 40
0.7
 40
0.8
 40
0.8
 40
0.8
 40
0.8
 40
1.0
 40
1.0
 40
1.0
 40
1.0
 10
-0.81701
 20
23.15566
 30
0.0
 10
-0.79973
 20
22.77099
 30
0.0
 10
-0.84982
 20
22.46128
 30
0.0
 10
-0.73146
 20
22.14548
 30
0.0
 10
-0.73146
 20
22.14548
 30
0.0
 10
-0.56255
 20
21.69477
 30
0.0
 10
-0.42137
 20
21.23221
 30
0.0
 10
-0.29406
 20
20.76767
 30
0.0
 10
-0.29406
 20
20.76767
 30
0.0
 10
-0.04542
 20
19.86043
 30
0.0
 10
0.21913
 20
18.95936
 30
0.0
 10
0.5929
 20
18.09414
 30
0.0
 10
0.5929
 20
18.09414
 30
0.0
 10
0.62825
 20
18.0123
 30
0.0
 10
0.67827
 20
17.9368
 30
0.0
 10
0.75521
 20
17.79707
 30
0.0
 10
0.75521
 20
17.79707
 30
0.0
 10
0.78724
 20
17.96721
 30
0.0
 10
0.81434
 20
18.06211
 30
0.0
 10
0.82171
 20
18.15849
 30
0.0
 10
0.82171
 20
18.15849
 30
0.0
 10
0.85861
 20
18.63911
 30
0.0
 10
0.87978
 20
19.12115
 30
0.0
 10
0.92631
 20
19.60079
 30
0.0
 10
0.92631
 20
19.60079
 30
0.0
 10
1.00096
 20
20.37012
 30
0.0
 10
0.8644
 20
21.10298
 30
0.0
 10
0.59068
 20
21.81852
 30
0.0
 10
0.59068
 20
21.81852
 30
0.0
 10
0.52756
 20
21.98341
 30
0.0
 10
0.45203
 20
22.12466
 30
0.0
 10
0.30623
 20
22.23801
 30
0.0
 10
0.30623
 20
22.23801
 30
0.0
 10
-0.05417
 20
22.51822
 30
0.0
 10
-0.40194
 20
22.81463
 30
0.0
 10
-0.81701
 20
23.15566
 30
0.0
  0
SPLINE
  5
46
330
1F
100
AcDbEntity
  8
Layer 1
370
    53
100
AcDbSpline
210
0.0
220
0.0
230
1.0
 70
    11
 71
     3
 72
    16
 73
    12
 74
     0
 42
0.0000000001
 43
0.0000000001
 12
1.0
 22
0.0
 32
0.0
 13
1.0
 23
0.0
 33
0.0
 40
0.0
 40
0.0
 40
0.0
 40
0.0
 40
0.25
 40
0.25
 40
0.25
 40
0.25
 40
0.5
 40
0.5
 40
0.5
 40
0.5
 40
1.0
 40
1.0
 40
1.0
 40
1.0
 10
-5.6409
 20
20.38815
 30
0.0
 10
-4.58267
 20
20.7586
 30
0.0
 10
-2.38127
 20
22.49353
 30
0.0
 10
-1.68523
 20
23.9837
 30
0.0
 10
-1.68523
 20
23.9837
 30
0.0
 10
-1.75424
 20
24.05037
 30
0.0
 10
-1.82952
 20
24.12322
 30
0.0
 10
-1.9217
 20
24.21237
 30
0.0
 10
-1.9217
 20
24.21237
 30
0.0
 10
-3.53351
 20
23.27479
 30
0.0
 10
-4.80143
 20
22.04081
 30
0.0
 10
-5.6409
 20
20.38815
 30
0.0
  0
SPLINE
  5
47
330
1F
100
AcDbEntity
  8
Layer 1
370
    53
100
AcDbSpline
210
0.0
220
0.0
230
1.0
 70
    11
 71
     3
 72
    28
 73
    24
 74
     0
 42
0.0000000001
 43
0.0000000001
 12
1.0
 22
0.0
 32
0.0
 13
1.0
 23
0.0
 33
0.0
 40
0.0
 40
0.0
 40
0.0
 40
0.0
 40
0.1428571428571428
 40
0.1428571428571428
 40
0.1428571428571428
 40
0.1428571428571428
 40
0.2857142857142857
 40
0.2857142857142857
 40
0.2857142857142857
 40
0.2857142857142857
 40
0.4285714285714285
 40
0.4285714285714285
 40
0.4285714285714285
 40
0.4285714285714285
 40
0.5714285714285714
 40
0.5714285714285714
 40
0.5714285714285714
 40
0.5714285714285714
 40
0.7142857142857143
 40
0.7142857142857143
 40
0.7142857142857143
 40
0.7142857142857143
 40
1.0
 40
1.0
 40
1.0
 40
1.0
 10
-2.49821
 20
25.29314
 30
0.0
 10
-2.4732
 20
25.40137
 30
0.0
 10
-2.46089
 20
25.4491
 30
0.0
 10
-2.45122
 20
25.49736
 30
0.0
 10
-2.45122
 20
25.49736
 30
0.0
 10
-2.38296
 20
25.83835
 30
0.0
 10
-2.39516
 20
25.86809
 30
0.0
 10
-2.73697
 20
25.96807
 30
0.0
 10
-2.73697
 20
25.96807
 30
0.0
 10
-2.95008
 20
26.03041
 30
0.0
 10
-3.16768
 20
26.09045
 30
0.0
 10
-3.38735
 20
26.11518
 30
0.0
 10
-3.38735
 20
26.11518
 30
0.0
 10
-4.51127
 20
26.24176
 30
0.0
 10
-5.63398
 20
26.20888
 30
0.0
 10
-6.75299
 20
26.05263
 30
0.0
 10
-6.75299
 20
26.05263
 30
0.0
 10
-6.87541
 20
26.03556
 30
0.0
 10
-7.01426
 20
26.03739
 30
0.0
 10
-7.16073
 20
25.90305
 30
0.0
 10
-7.16073
 20
25.90305
 30
0.0
 10
-5.65247
 20
25.12814
 30
0.0
 10
-4.10783
 20
25.04573
 30
0.0
 10
-2.49821
 20
25.29314
 30
0.0
  0
SPLINE
  5
48
330
1F
100
AcDbEntity
  8
Layer 1
370
    53
100
AcDbSpline
210
0.0
220
0.0
230
1.0
 70
    11
 71
     3
 72
    40
 73
    36
 74
     0
 42
0.0000000001
 43
0.0000000001
 12
1.0
 22
0.0
 32
0.0
 13
1.0
 23
0.0
 33
0.0
 40
0.0
 40
0.0
 40
0.0
 40
0.0
 40
0.1
 40
0.1
 40
0.1
 40
0.1
 40
0.2
 40
0.2
 40
0.2
 40
0.2
 40
0.3
 40
0.3
 40
0.3
 40
0.3
 40
0.4
 40
0.4
 40
0.4
 40
0.4
 40
0.5
 40
0.5
 40
0.5
 40
0.5
 40
0.6
 40
0.6
 40
0.6
 40
0.6
 40
0.7
 40
0.7
 40
0.7
 40
0.7
 40
0.8
 40
0.8
 40
0.8
 40
0.8
 40
1.0
 40
1.0
 40
1.0
 40
1.0
 10
-2.32059
 20
24.55008
 30
0.0
 10
-2.3982
 20
24.72538
 30
0.0
 10
-2.50975
 20
24.75293
 30
0.0
 10
-2.68589
 20
24.72576
 30
0.0
 10
-2.68589
 20
24.72576
 30
0.0
 10
-2.97788
 20
24.68075
 30
0.0
 10
-3.27669
 20
24.67952
 30
0.0
 10
-3.57274
 20
24.66191
 30
0.0
 10
-3.57274
 20
24.66191
 30
0.0
 10
-3.696
 20
24.65461
 30
0.0
 10
-3.82367
 20
24.67133
 30
0.0
 10
-3.94238
 20
24.64533
 30
0.0
 10
-3.94238
 20
24.64533
 30
0.0
 10
-4.8063
 20
24.45628
 30
0.0
 10
-5.6427
 20
24.1949
 30
0.0
 10
-6.36748
 20
23.66221
 30
0.0
 10
-6.36748
 20
23.66221
 30
0.0
 10
-6.78146
 20
23.3579
 30
0.0
 10
-7.15837
 20
23.01867
 30
0.0
 10
-7.43255
 20
22.50789
 30
0.0
 10
-7.43255
 20
22.50789
 30
0.0
 10
-7.1414
 20
22.63203
 30
0.0
 10
-6.89654
 20
22.71811
 30
0.0
 10
-6.66871
 20
22.83682
 30
0.0
 10
-6.66871
 20
22.83682
 30
0.0
 10
-5.79182
 20
23.29359
 30
0.0
 10
-4.86821
 20
23.59405
 30
0.0
 10
-3.88449
 20
23.70567
 30
0.0
 10
-3.88449
 20
23.70567
 30
0.0
 10
-3.62096
 20
23.73555
 30
0.0
 10
-3.38629
 20
23.82996
 30
0.0
 10
-3.16877
 20
23.98818
 30
0.0
 10
-3.16877
 20
23.98818
 30
0.0
 10
-2.89939
 20
24.18407
 30
0.0
 10
-2.61364
 20
24.3575
 30
0.0
 10
-2.32059
 20
24.55008
 30
0.0
  0
SPLINE
  5
49
330
1F
100
AcDbEntity
  8
Layer 1
370
    53
100
AcDbSpline
210
0.0
220
0.0
230
1.0
 70
    11
 71
     3
 72
    40
 73
    36
 74
     0
 42
0.0000000001
 43
0.0000000001
 12
1.0
 22
0.0
 32
0.0
 13
1.0
 23
0.0
 33
0.0
 40
0.0
 40
0.0
 40
0.0
 40
0.0
 40
0.1
 40
0.1
 40
0.1
 40
0.1
 40
0.2
 40
0.2
 40
0.2
 40
0.2
 40
0.3
 40
0.3
 40
0.3
 40
0.3
 40
0.4
 40
0.4
 40
0.4
 40
0.4
 40
0.5
 40
0.5
 40
0.5
 40
0.5
 40
0.6
 40
0.6
 40
0.6
 40
0.6
 40
0.7
 40
0.7
 40
0.7
 40
0.7
 40
0.8
 40
0.8
 40
0.8
 40
0.8
 40
1.0
 40
1.0
 40
1.0
 40
1.0
 10
1.16415
 20
25.45686
 30
0.0
 10
1.3852
 20
25.46921
 30
0.0
 10
1.66824
 20
25.48625
 30
0.0
 10
1.91843
 20
25.64419
 30
0.0
 10
1.91843
 20
25.64419
 30
0.0
 10
2.19017
 20
25.81571
 30
0.0
 10
2.45765
 20
25.99414
 30
0.0
 10
2.72403
 20
26.17392
 30
0.0
 10
2.72403
 20
26.17392
 30
0.0
 10
3.05162
 20
26.39507
 30
0.0
 10
3.3754
 20
26.6218
 30
0.0
 10
3.70239
 20
26.84384
 30
0.0
 10
3.70239
 20
26.84384
 30
0.0
 10
3.82752
 20
26.92879
 30
0.0
 10
3.95699
 20
27.00732
 30
0.0
 10
4.14251
 20
27.12589
 30
0.0
 10
4.14251
 20
27.12589
 30
0.0
 10
3.99195
 20
27.16498
 30
0.0
 10
3.92065
 20
27.20385
 30
0.0
 10
3.85373
 20
27.1974
 30
0.0
 10
3.85373
 20
27.1974
 30
0.0
 10
3.52356
 20
27.16554
 30
0.0
 10
3.18504
 20
27.15796
 30
0.0
 10
2.86715
 20
27.07452
 30
0.0
 10
2.86715
 20
27.07452
 30
0.0
 10
2.2065
 20
26.9011
 30
0.0
 10
1.56043
 20
26.68721
 30
0.0
 10
0.86055
 20
26.86233
 30
0.0
 10
0.86055
 20
26.86233
 30
0.0
 10
0.69298
 20
26.90424
 30
0.0
 10
0.50238
 20
26.85435
 30
0.0
 10
0.30549
 20
26.84596
 30
0.0
 10
0.30549
 20
26.84596
 30
0.0
 10
0.5978
 20
26.37306
 30
0.0
 10
0.86736
 20
25.93703
 30
0.0
 10
1.16415
 20
25.45686
 30
0.0
  0
SPLINE
  5
4A
330
1F
100
AcDbEntity
  8
Layer 1
370
    53
100
AcDbSpline
210
0.0
220
0.0
230
1.0
 70
    11
 71
     3
 72
    32
 73
    28
 74
     0
 42
0.0000000001
 43
0.0000000001
 12
1.0
 22
0.0
 32
0.0
 13
1.0
 23
0.0
 33
0.0
 40
0.0
 40
0.0
 40
0.0
 40
0.0
 40
0.125
 40
0.125
 40
0.125
 40
0.125
 40
0.25
 40
0.25
 40
0.25
 40
0.25
 40
0.375
 40
0.375
 40
0.375
 40
0.375
 40
0.5
 40
0.5
 40
0.5
 40
0.5
 40
0.625
 40
0.625
 40
0.625
 40
0.625
 40
0.75
 40
0.75
 40
0.75
 40
0.75
 40
1.0
 40
1.0
 40
1.0
 40
1.0
 10
-0.70723
 20
29.25614
 30
0.0
 10
-0.77821
 20
28.9972
 30
0.0
 10
-0.85857
 20
28.77505
 30
0.0
 10
-0.89748
 20
28.54585
 30
0.0
 10
-0.89748
 20
28.54585
 30
0.0
 10
-0.9613
 20
28.17004
 30
0.0
 10
-1.01284
 20
27.79077
 30
0.0
 10
-1.04096
 20
27.41083
 30
0.0
 10
-1.04096
 20
27.41083
 30
0.0
 10
-1.05828
 20
27.17655
 30
0.0
 10
-0.99651
 20
27.14254
 30
0.0
 10
-0.75111
 20
27.15785
 30
0.0
 10
-0.75111
 20
27.15785
 30
0.0
 10
-0.65272
 20
27.16395
 30
0.0
 10
-0.54022
 20
27.20131
 30
0.0
 10
-0.45838
 20
27.16688
 30
0.0
 10
-0.45838
 20
27.16688
 30
0.0
 10
-0.20106
 20
27.05868
 30
0.0
 10
0.01911
 20
27.14903
 30
0.0
 10
0.26676
 20
27.2477
 30
0.0
 10
0.26676
 20
27.2477
 30
0.0
 10
0.3304
 20
27.67262
 30
0.0
 10
0.26884
 20
28.08421
 30
0.0
 10
0.16671
 20
28.49206
 30
0.0
 10
0.16671
 20
28.49206
 30
0.0
 10
0.05763
 20
28.92759
 30
0.0
 10
-0.26192
 20
29.13019
 30
0.0
 10
-0.70723
 20
29.25614
 30
0.0
  0
SPLINE
  5
4B
330
1F
100
AcDbEntity
  8
Layer 1
370
    53
100
AcDbSpline
210
0.0
220
0.0
230
1.0
 70
    11
 71
     3
 72
    32
 73
    28
 74
     0
 42
0.0000000001
 43
0.0000000001
 12
1.0
 22
0.0
 32
0.0
 13
1.0
 23
0.0
 33
0.0
 40
0.0
 40
0.0
 40
0.0
 40
0.0
 40
0.125
 40
0.125
 40
0.125
 40
0.125
 40
0.25
 40
0.25
 40
0.25
 40
0.25
 40
0.375
 40
0.375
 40
0.375
 40
0.375
 40
0.5
 40
0.5
 40
0.5
 40
0.5
 40
0.625
 40
0.625
 40
0.625
 40
0.625
 40
0.75
 40
0.75
 40
0.75
 40
0.75
 40
1.0
 40
1.0
 40
1.0
 40
1.0
 10
-3.62414
 20
27.7786
 30
0.0
 10
-3.62675
 20
27.75129
 30
0.0
 10
-3.62936
 20
27.72399
 30
0.0
 10
-3.63197
 20
27.69668
 30
0.0
 10
-3.63197
 20
27.69668
 30
0.0
 10
-2.95446
 20
27.51525
 30
0.0
 10
-2.39379
 20
27.14575
 30
0.0
 10
-1.93765
 20
26.64043
 30
0.0
 10
-1.93765
 20
26.64043
 30
0.0
 10
-1.7783
 20
26.73173
 30
0.0
 10
-1.65825
 20
26.79562
 30
0.0
 10
-1.54328
 20
26.86751
 30
0.0
 10
-1.54328
 20
26.86751
 30
0.0
 10
-1.32163
 20
27.00605
 30
0.0
 10
-1.29259
 20
27.20406
 30
0.0
 10
-1.49625
 20
27.37414
 30
0.0
 10
-1.49625
 20
27.37414
 30
0.0
 10
-1.6846
 20
27.53144
 30
0.0
 10
-1.89595
 20
27.66564
 30
0.0
 10
-2.11051
 20
27.78632
 30
0.0
 10
-2.11051
 20
27.78632
 30
0.0
 10
-2.65407
 20
28.09201
 30
0.0
 10
-2.65753
 20
28.31429
 30
0.0
 10
-3.45978
 20
27.85589
 30
0.0
 10
-3.45978
 20
27.85589
 30
0.0
 10
-3.51217
 20
27.82594
 30
0.0
 10
-3.56924
 20
27.80417
 30
0.0
 10
-3.62414
 20
27.7786
 30
0.0
  0
SPLINE
  5
4C
330
1F
100
AcDbEntity
  8
Layer 1
370
    53
100
AcDbSpline
210
0.0
220
0.0
230
1.0
 70
    11
 71
     3
 72
    24
 73
    20
 74
     0
 42
0.0000000001
 43
0.0000000001
 12
1.0
 22
0.0
 32
0.0
 13
1.0
 23
0.0
 33
0.0
 40
0.0
 40
0.0
 40
0.0
 40
0.0
 40
0.1666666666666667
 40
0.1666666666666667
 40
0.1666666666666667
 40
0.1666666666666667
 40
0.3333333333333333
 40
0.3333333333333333
 40
0.3333333333333333
 40
0.3333333333333333
 40
0.5
 40
0.5
 40
0.5
 40
0.5
 40
0.6666666666666666
 40
0.6666666666666666
 40
0.6666666666666666
 40
0.6666666666666666
 40
1.0
 40
1.0
 40
1.0
 40
1.0
 10
1.09123
 20
24.88307
 30
0.0
 10
2.0904
 20
24.70615
 30
0.0
 10
3.0095
 20
24.35743
 30
0.0
 10
3.94125
 20
24.04028
 30
0.0
 10
3.94125
 20
24.04028
 30
0.0
 10
3.64531
 20
24.43733
 30
0.0
 10
3.29324
 20
24.76496
 30
0.0
 10
2.88659
 20
25.02665
 30
0.0
 10
2.88659
 20
25.02665
 30
0.0
 10
2.55198
 20
25.24198
 30
0.0
 10
2.17616
 20
25.30806
 30
0.0
 10
1.78176
 20
25.23549
 30
0.0
 10
1.78176
 20
25.23549
 30
0.0
 10
1.60064
 20
25.20219
 30
0.0
 10
1.42256
 20
25.14917
 30
0.0
 10
1.24046
 20
25.12504
 30
0.0
 10
1.24046
 20
25.12504
 30
0.0
 10
1.08386
 20
25.10429
 30
0.0
 10
1.06283
 20
25.02079
 30
0.0
 10
1.09123
 20
24.88307
 30
0.0
  0
SPLINE
  5
4D
330
1F
100
AcDbEntity
  8
Layer 1
370
    53
100
AcDbSpline
210
0.0
220
0.0
230
1.0
 70
    11
 71
     3
 72
    28
 73
    24
 74
     0
 42
0.0000000001
 43
0.0000000001
 12
1.0
 22
0.0
 32
0.0
 13
1.0
 23
0.0
 33
0.0
 40
0.0
 40
0.0
 40
0.0
 40
0.0
 40
0.1428571428571428
 40
0.1428571428571428
 40
0.1428571428571428
 40
0.1428571428571428
 40
0.2857142857142857
 40
0.2857142857142857
 40
0.2857142857142857
 40
0.2857142857142857
 40
0.4285714285714285
 40
0.4285714285714285
 40
0.4285714285714285
 40
0.4285714285714285
 40
0.5714285714285714
 40
0.5714285714285714
 40
0.5714285714285714
 40
0.5714285714285714
 40
0.7142857142857143
 40
0.7142857142857143
 40
0.7142857142857143
 40
0.7142857142857143
 40
1.0
 40
1.0
 40
1.0
 40
1.0
 10
-2.22834
 20
26.23735
 30
0.0
 10
-2.10719
 20
26.45903
 30
0.0
 10
-2.2525
 20
26.53488
 30
0.0
 10
-2.3395
 20
26.58762
 30
0.0
 10
-2.3395
 20
26.58762
 30
0.0
 10
-2.79296
 20
26.86219
 30
0.0
 10
-3.2449
 20
27.14459
 30
0.0
 10
-3.72203
 20
27.37266
 30
0.0
 10
-3.72203
 20
27.37266
 30
0.0
 10
-4.0063
 20
27.50851
 30
0.0
 10
-4.31025
 20
27.42028
 30
0.0
 10
-4.60475
 20
27.23391
 30
0.0
 10
-4.60475
 20
27.23391
 30
0.0
 10
-4.39411
 20
27.03381
 30
0.0
 10
-4.22058
 20
26.85891
 30
0.0
 10
-4.03502
 20
26.6979
 30
0.0
 10
-4.03502
 20
26.6979
 30
0.0
 10
-3.96471
 20
26.6369
 30
0.0
 10
-3.86928
 20
26.57661
 30
0.0
 10
-3.78091
 20
26.56931
 30
0.0
 10
-3.78091
 20
26.56931
 30
0.0
 10
-3.25227
 20
26.52574
 30
0.0
 10
-2.72653
 20
26.47544
 30
0.0
 10
-2.22834
 20
26.23735
 30
0.0
  0
SPLINE
  5
4E
330
1F
100
AcDbEntity
  8
Layer 1
370
    53
100
AcDbSpline
210
0.0
220
0.0
230
1.0
 70
    11
 71
     3
 72
    20
 73
    16
 74
     0
 42
0.0000000001
 43
0.0000000001
 12
1.0
 22
0.0
 32
0.0
 13
1.0
 23
0.0
 33
0.0
 40
0.0
 40
0.0
 40
0.0
 40
0.0
 40
0.2
 40
0.2
 40
0.2
 40
0.2
 40
0.4
 40
0.4
 40
0.4
 40
0.4
 40
0.6
 40
0.6
 40
0.6
 40
0.6
 40
1.0
 40
1.0
 40
1.0
 40
1.0
 10
-0.31021
 20
25.42381
 30
0.0
 10
-0.35159
 20
25.33741
 30
0.0
 10
-0.40119
 20
25.27913
 30
0.0
 10
-0.39908
 20
25.22279
 30
0.0
 10
-0.39908
 20
25.22279
 30
0.0
 10
-0.39763
 20
25.18339
 30
0.0
 10
-0.32549
 20
25.14663
 30
0.0
 10
-0.28488
 20
25.1087
 30
0.0
 10
-0.28488
 20
25.1087
 30
0.0
 10
-0.24206
 20
25.17065
 30
0.0
 10
-0.18868
 20
25.22872
 30
0.0
 10
-0.16363
 20
25.29719
 30
0.0
 10
-0.16363
 20
25.29719
 30
0.0
 10
-0.15721
 20
25.31476
 30
0.0
 10
-0.24026
 20
25.36503
 30
0.0
 10
-0.31021
 20
25.42381
 30
0.0
  0
SPLINE
  5
4F
330
1F
100
AcDbEntity
  8
Layer 1
370
    53
100
AcDbSpline
210
0.0
220
0.0
230
1.0
 70
    11
 71
     3
 72
    20
 73
    16
 74
     0
 42
0.0000000001
 43
0.0000000001
 12
1.0
 22
0.0
 32
0.0
 13
1.0
 23
0.0
 33
0.0
 40
0.0
 40
0.0
 40
0.0
 40
0.0
 40
0.2
 40
0.2
 40
0.2
 40
0.2
 40
0.4
 40
0.4
 40
0.4
 40
0.4
 40
0.6
 40
0.6
 40
0.6
 40
0.6
 40
1.0
 40
1.0
 40
1.0
 40
1.0
 10
-1.12936
 20
24.42396
 30
0.0
 10
-1.07542
 20
24.50704
 30
0.0
 10
-1.01863
 20
24.55897
 30
0.0
 10
-1.01333
 20
24.61573
 30
0.0
 10
-1.01333
 20
24.61573
 30
0.0
 10
-1.01005
 20
24.65094
 30
0.0
 10
-1.09525
 20
24.73201
 30
0.0
 10
-1.12252
 20
24.72467
 30
0.0
 10
-1.12252
 20
24.72467
 30
0.0
 10
-1.18013
 20
24.70922
 30
0.0
 10
-1.26038
 20
24.65359
 30
0.0
 10
-1.26631
 20
24.60624
 30
0.0
 10
-1.26631
 20
24.60624
 30
0.0
 10
-1.27199
 20
24.56123
 30
0.0
 10
-1.19487
 20
24.50581
 30
0.0
 10
-1.12936
 20
24.42396
 30
0.0
  0
SPLINE
  5
50
330
1F
100
AcDbEntity
  8
Layer 1
370
    53
100
AcDbSpline
210
0.0
220
0.0
230
1.0
 70
    11
 71
     3
 72
    20
 73
    16
 74
     0
 42
0.0000000001
 43
0.0000000001
 12
1.0
 22
0.0
 32
0.0
 13
1.0
 23
0.0
 33
0.0
 40
0.0
 40
0.0
 40
0.0
 40
0.0
 40
0.2
 40
0.2
 40
0.2
 40
0.2
 40
0.4
 40
0.4
 40
0.4
 40
0.4
 40
0.6
 40
0.6
 40
0.6
 40
0.6
 40
1.0
 40
1.0
 40
1.0
 40
1.0
 10
-0.39114
 20
25.72219
 30
0.0
 10
-0.46011
 20
25.77701
 30
0.0
 10
-0.51578
 20
25.84717
 30
0.0
 10
-0.54308
 20
25.83747
 30
0.0
 10
-0.54308
 20
25.83747
 30
0.0
 10
-0.59674
 20
25.81846
 30
0.0
 10
-0.64994
 20
25.76106
 30
0.0
 10
-0.67153
 20
25.70691
 30
0.0
 10
-0.67153
 20
25.70691
 30
0.0
 10
-0.68021
 20
25.68507
 30
0.0
 10
-0.59769
 20
25.59233
 30
0.0
 10
-0.57003
 20
25.59794
 30
0.0
 10
-0.57003
 20
25.59794
 30
0.0
 10
-0.51398
 20
25.60926
 30
0.0
 10
-0.46702
 20
25.66563
 30
0.0
 10
-0.39114
 20
25.72219
 30
0.0
  0
SPLINE
  5
51
330
1F
100
AcDbEntity
  8
Layer 1
370
    53
100
AcDbSpline
210
0.0
220
0.0
230
1.0
 70
    11
 71
     3
 72
    20
 73
    16
 74
     0
 42
0.0000000001
 43
0.0000000001
 12
1.0
 22
0.0
 32
0.0
 13
1.0
 23
0.0
 33
0.0
 40
0.0
 40
0.0
 40
0.0
 40
0.0
 40
0.2
 40
0.2
 40
0.2
 40
0.2
 40
0.4
 40
0.4
 40
0.4
 40
0.4
 40
0.6
 40
0.6
 40
0.6
 40
0.6
 40
1.0
 40
1.0
 40
1.0
 40
1.0
 10
-0.9849
 20
25.40655
 30
0.0
 10
-1.05182
 20
25.44716
 30
0.0
 10
-1.11825
 20
25.50808
 30
0.0
 10
-1.13815
 20
25.49549
 30
0.0
 10
-1.13815
 20
25.49549
 30
0.0
 10
-1.18934
 20
25.46311
 30
0.0
 10
-1.25107
 20
25.39699
 30
0.0
 10
-1.24924
 20
25.34651
 30
0.0
 10
-1.24924
 20
25.34651
 30
0.0
 10
-1.24765
 20
25.30354
 30
0.0
 10
-1.16337
 20
25.26361
 30
0.0
 10
-1.11571
 20
25.22233
 30
0.0
 10
-1.11571
 20
25.22233
 30
0.0
 10
-1.07712
 20
25.2767
 30
0.0
 10
-1.03849
 20
25.3311
 30
0.0
 10
-0.9849
 20
25.40655
 30
0.0
  0
SPLINE
  5
52
330
1F
100
AcDbEntity
  8
Layer 1
370
    53
100
AcDbSpline
210
0.0
220
0.0
230
1.0
 70
    11
 71
     3
 72
    20
 73
    16
 74
     0
 42
0.0000000001
 43
0.0000000001
 12
1.0
 22
0.0
 32
0.0
 13
1.0
 23
0.0
 33
0.0
 40
0.0
 40
0.0
 40
0.0
 40
0.0
 40
0.2
 40
0.2
 40
0.2
 40
0.2
 40
0.4
 40
0.4
 40
0.4
 40
0.4
 40
0.6
 40
0.6
 40
0.6
 40
0.6
 40
1.0
 40
1.0
 40
1.0
 40
1.0
 10
-0.63512
 20
24.00642
 30
0.0
 10
-0.70917
 20
24.05122
 30
0.0
 10
-0.76237
 20
24.1083
 30
0.0
 10
-0.79927
 20
24.0992
 30
0.0
 10
-0.79927
 20
24.0992
 30
0.0
 10
-0.84195
 20
24.08868
 30
0.0
 10
-0.89872
 20
24.01841
 30
0.0
 10
-0.89649
 20
23.97692
 30
0.0
 10
-0.89649
 20
23.97692
 30
0.0
 10
-0.89448
 20
23.93911
 30
0.0
 10
-0.82121
 20
23.8768
 30
0.0
 10
-0.78022
 20
23.87747
 30
0.0
 10
-0.78022
 20
23.87747
 30
0.0
 10
-0.73993
 20
23.87815
 30
0.0
 10
-0.7007
 20
23.94447
 30
0.0
 10
-0.63512
 20
24.00642
 30
0.0
  0
SPLINE
  5
53
330
1F
100
AcDbEntity
  8
Layer 1
370
    53
100
AcDbSpline
210
0.0
220
0.0
230
1.0
 70
    11
 71
     3
 72
    20
 73
    16
 74
     0
 42
0.0000000001
 43
0.0000000001
 12
1.0
 22
0.0
 32
0.0
 13
1.0
 23
0.0
 33
0.0
 40
0.0
 40
0.0
 40
0.0
 40
0.0
 40
0.2
 40
0.2
 40
0.2
 40
0.2
 40
0.4
 40
0.4
 40
0.4
 40
0.4
 40
0.6
 40
0.6
 40
0.6
 40
0.6
 40
1.0
 40
1.0
 40
1.0
 40
1.0
 10
0.04235
 20
24.49949
 30
0.0
 10
-0.02644
 20
24.53816
 30
0.0
 10
-0.08073
 20
24.59241
 30
0.0
 10
-0.11516
 20
24.5819
 30
0.0
 10
-0.11516
 20
24.5819
 30
0.0
 10
-0.15746
 20
24.56895
 30
0.0
 10
-0.2198
 20
24.48048
 30
0.0
 10
-0.20921
 20
24.46238
 30
0.0
 10
-0.20921
 20
24.46238
 30
0.0
 10
-0.18011
 20
24.41282
 30
0.0
 10
-0.11731
 20
24.38304
 30
0.0
 10
-0.06789
 20
24.34543
 30
0.0
 10
-0.06789
 20
24.34543
 30
0.0
 10
-0.03642
 20
24.38939
 30
0.0
 10
-0.00499
 20
24.43331
 30
0.0
 10
0.04235
 20
24.49949
 30
0.0
  0
SPLINE
  5
54
330
1F
100
AcDbEntity
  8
Layer 1
370
    53
100
AcDbSpline
210
0.0
220
0.0
230
1.0
 70
    11
 71
     3
 72
    20
 73
    16
 74
     0
 42
0.0000000001
 43
0.0000000001
 12
1.0
 22
0.0
 32
0.0
 13
1.0
 23
0.0
 33
0.0
 40
0.0
 40
0.0
 40
0.0
 40
0.0
 40
0.2
 40
0.2
 40
0.2
 40
0.2
 40
0.4
 40
0.4
 40
0.4
 40
0.4
 40
0.6
 40
0.6
 40
0.6
 40
0.6
 40
1.0
 40
1.0
 40
1.0
 40
1.0
 10
-1.68185
 20
25.19157
 30
0.0
 10
-1.85337
 20
25.26389
 30
0.0
 10
-1.92558
 20
25.31392
 30
0.0
 10
-1.94453
 20
25.2985
 30
0.0
 10
-1.94453
 20
25.2985
 30
0.0
 10
-1.99187
 20
25.25991
 30
0.0
 10
-2.02792
 20
25.19429
 30
0.0
 10
-2.04034
 20
25.13375
 30
0.0
 10
-2.04034
 20
25.13375
 30
0.0
 10
-2.04422
 20
25.11488
 30
0.0
 10
-1.95179
 20
25.04764
 30
0.0
 10
-1.91419
 20
25.05526
 30
0.0
 10
-1.91419
 20
25.05526
 30
0.0
 10
-1.84924
 20
25.06849
 30
0.0
 10
-1.79269
 20
25.12296
 30
0.0
 10
-1.68185
 20
25.19157
 30
0.0
  0
SPLINE
  5
55
330
1F
100
AcDbEntity
  8
Layer 1
370
    53
100
AcDbSpline
210
0.0
220
0.0
230
1.0
 70
    11
 71
     3
 72
    20
 73
    16
 74
     0
 42
0.0000000001
 43
0.0000000001
 12
1.0
 22
0.0
 32
0.0
 13
1.0
 23
0.0
 33
0.0
 40
0.0
 40
0.0
 40
0.0
 40
0.0
 40
0.2
 40
0.2
 40
0.2
 40
0.2
 40
0.4
 40
0.4
 40
0.4
 40
0.4
 40
0.6
 40
0.6
 40
0.6
 40
0.6
 40
1.0
 40
1.0
 40
1.0
 40
1.0
 10
-1.40996
 20
26.18859
 30
0.0
 10
-1.4457
 20
26.10043
 30
0.0
 10
-1.48592
 20
26.04282
 30
0.0
 10
-1.48429
 20
25.98638
 30
0.0
 10
-1.48429
 20
25.98638
 30
0.0
 10
-1.48355
 20
25.96123
 30
0.0
 10
-1.37497
 20
25.90704
 30
0.0
 10
-1.35662
 20
25.92083
 30
0.0
 10
-1.35662
 20
25.92083
 30
0.0
 10
-1.31016
 20
25.95583
 30
0.0
 10
-1.2715
 20
26.01933
 30
0.0
 10
-1.26222
 20
26.07666
 30
0.0
 10
-1.26222
 20
26.07666
 30
0.0
 10
-1.25844
 20
26.09997
 30
0.0
 10
-1.33898
 20
26.13691
 30
0.0
 10
-1.40996
 20
26.18859
 30
0.0
  0
SPLINE
  5
56
330
1F
100
AcDbEntity
  8
Layer 1
370
    53
100
AcDbSpline
210
0.0
220
0.0
230
1.0
 70
    11
 71
     3
 72
    20
 73
    16
 74
     0
 42
0.0000000001
 43
0.0000000001
 12
1.0
 22
0.0
 32
0.0
 13
1.0
 23
0.0
 33
0.0
 40
0.0
 40
0.0
 40
0.0
 40
0.0
 40
0.2
 40
0.2
 40
0.2
 40
0.2
 40
0.4
 40
0.4
 40
0.4
 40
0.4
 40
0.6
 40
0.6
 40
0.6
 40
0.6
 40
1.0
 40
1.0
 40
1.0
 40
1.0
 10
-1.02861
 20
26.83876
 30
0.0
 10
-1.07616
 20
26.77233
 30
0.0
 10
-1.13434
 20
26.72665
 30
0.0
 10
-1.13215
 20
26.68403
 30
0.0
 10
-1.13215
 20
26.68403
 30
0.0
 10
-1.13003
 20
26.64308
 30
0.0
 10
-1.04501
 20
26.5661
 30
0.0
 10
-1.03189
 20
26.57294
 30
0.0
 10
-1.03189
 20
26.57294
 30
0.0
 10
-0.97566
 20
26.6023
 30
0.0
 10
-0.93248
 20
26.65673
 30
0.0
 10
-0.88454
 20
26.70203
 30
0.0
 10
-0.88454
 20
26.70203
 30
0.0
 10
-0.92507
 20
26.74048
 30
0.0
 10
-0.96557
 20
26.7789
 30
0.0
 10
-1.02861
 20
26.83876
 30
0.0
  0
SPLINE
  5
57
330
1F
100
AcDbEntity
  8
Layer 1
370
    53
100
AcDbSpline
210
0.0
220
0.0
230
1.0
 70
    11
 71
     3
 72
    20
 73
    16
 74
     0
 42
0.0000000001
 43
0.0000000001
 12
1.0
 22
0.0
 32
0.0
 13
1.0
 23
0.0
 33
0.0
 40
0.0
 40
0.0
 40
0.0
 40
0.0
 40
0.2
 40
0.2
 40
0.2
 40
0.2
 40
0.4
 40
0.4
 40
0.4
 40
0.4
 40
0.6
 40
0.6
 40
0.6
 40
0.6
 40
1.0
 40
1.0
 40
1.0
 40
1.0
 10
0.62006
 20
24.98051
 30
0.0
 10
0.66733
 20
25.05653
 30
0.0
 10
0.72519
 20
25.10881
 30
0.0
 10
0.71732
 20
25.14783
 30
0.0
 10
0.71732
 20
25.14783
 30
0.0
 10
0.70861
 20
25.19111
 30
0.0
 10
0.63982
 20
25.22223
 30
0.0
 10
0.5972
 20
25.25867
 30
0.0
 10
0.5972
 20
25.25867
 30
0.0
 10
0.56288
 20
25.21546
 30
0.0
 10
0.50238
 20
25.17256
 30
0.0
 10
0.50185
 20
25.12895
 30
0.0
 10
0.50185
 20
25.12895
 30
0.0
 10
0.50135
 20
25.08803
 30
0.0
 10
0.56429
 20
25.04637
 30
0.0
 10
0.62006
 20
24.98051
 30
0.0
  0
SPLINE
  5
58
330
1F
100
AcDbEntity
  8
Layer 1
370
    53
100
AcDbSpline
210
0.0
220
0.0
230
1.0
 70
    11
 71
     3
 72
    20
 73
    16
 74
     0
 42
0.0000000001
 43
0.0000000001
 12
1.0
 22
0.0
 32
0.0
 13
1.0
 23
0.0
 33
0.0
 40
0.0
 40
0.0
 40
0.0
 40
0.0
 40
0.2
 40
0.2
 40
0.2
 40
0.2
 40
0.4
 40
0.4
 40
0.4
 40
0.4
 40
0.6
 40
0.6
 40
0.6
 40
0.6
 40
1.0
 40
1.0
 40
1.0
 40
1.0
 10
0.23575
 20
25.94327
 30
0.0
 10
0.22195
 20
25.85321
 30
0.0
 10
0.19874
 20
25.79694
 30
0.0
 10
0.2119
 20
25.75111
 30
0.0
 10
0.2119
 20
25.75111
 30
0.0
 10
0.21945
 20
25.72465
 30
0.0
 10
0.2857
 20
25.71506
 30
0.0
 10
0.32556
 20
25.69784
 30
0.0
 10
0.32556
 20
25.69784
 30
0.0
 10
0.34391
 20
25.74713
 30
0.0
 10
0.3777
 20
25.79747
 30
0.0
 10
0.37446
 20
25.8453
 30
0.0
 10
0.37446
 20
25.8453
 30
0.0
 10
0.37269
 20
25.87176
 30
0.0
 10
0.30888
 20
25.89399
 30
0.0
 10
0.23575
 20
25.94327
 30
0.0
  0
SPLINE
  5
59
330
1F
100
AcDbEntity
  8
Layer 1
370
    53
100
AcDbSpline
210
0.0
220
0.0
230
1.0
 70
    11
 71
     3
 72
    20
 73
    16
 74
     0
 42
0.0000000001
 43
0.0000000001
 12
1.0
 22
0.0
 32
0.0
 13
1.0
 23
0.0
 33
0.0
 40
0.0
 40
0.0
 40
0.0
 40
0.0
 40
0.2
 40
0.2
 40
0.2
 40
0.2
 40
0.4
 40
0.4
 40
0.4
 40
0.4
 40
0.6
 40
0.6
 40
0.6
 40
0.6
 40
1.0
 40
1.0
 40
1.0
 40
1.0
 10
-0.25497
 20
26.3973
 30
0.0
 10
-0.22936
 20
26.47441
 30
0.0
 10
-0.1926
 20
26.53033
 30
0.0
 10
-0.20727
 20
26.55291
 30
0.0
 10
-0.20727
 20
26.55291
 30
0.0
 10
-0.23415
 20
26.59429
 30
0.0
 10
-0.29134
 20
26.61602
 30
0.0
 10
-0.3359
 20
26.64593
 30
0.0
 10
-0.3359
 20
26.64593
 30
0.0
 10
-0.36017
 20
26.60702
 30
0.0
 10
-0.41308
 20
26.55509
 30
0.0
 10
-0.40261
 20
26.53195
 30
0.0
 10
-0.40261
 20
26.53195
 30
0.0
 10
-0.38225
 20
26.48708
 30
0.0
 10
-0.32619
 20
26.4584
 30
0.0
 10
-0.25497
 20
26.3973
 30
0.0
  0
SPLINE
  5
5A
330
1F
100
AcDbEntity
  8
Layer 1
370
    53
100
AcDbSpline
210
0.0
220
0.0
230
1.0
 70
    11
 71
     3
 72
   324
 73
   320
 74
     0
 42
0.0000000001
 43
0.0000000001
 12
1.0
 22
0.0
 32
0.0
 13
1.0
 23
0.0
 33
0.0
 40
0.0
 40
0.0
 40
0.0
 40
0.0
 40
0.0123456790123457
 40
0.0123456790123457
 40
0.0123456790123457
 40
0.0123456790123457
 40
0.0246913580246914
 40
0.0246913580246914
 40
0.0246913580246914
 40
0.0246913580246914
 40
0.037037037037037
 40
0.037037037037037
 40
0.037037037037037
 40
0.037037037037037
 40
0.0493827160493827
 40
0.0493827160493827
 40
0.0493827160493827
 40
0.0493827160493827
 40
0.0617283950617284
 40
0.0617283950617284
 40
0.0617283950617284
 40
0.0617283950617284
 40
0.0740740740740741
 40
0.0740740740740741
 40
0.0740740740740741
 40
0.0740740740740741
 40
0.0864197530864197
 40
0.0864197530864197
 40
0.0864197530864197
 40
0.0864197530864197
 40
0.0987654320987654
 40
0.0987654320987654
 40
0.0987654320987654
 40
0.0987654320987654
 40
0.1111111111111111
 40
0.1111111111111111
 40
0.1111111111111111
 40
0.1111111111111111
 40
0.1234567901234568
 40
0.1234567901234568
 40
0.1234567901234568
 40
0.1234567901234568
 40
0.1358024691358025
 40
0.1358024691358025
 40
0.1358024691358025
 40
0.1358024691358025
 40
0.1481481481481481
 40
0.1481481481481481
 40
0.1481481481481481
 40
0.1481481481481481
 40
0.1604938271604938
 40
0.1604938271604938
 40
0.1604938271604938
 40
0.1604938271604938
 40
0.1728395061728395
 40
0.1728395061728395
 40
0.1728395061728395
 40
0.1728395061728395
 40
0.1851851851851852
 40
0.1851851851851852
 40
0.1851851851851852
 40
0.1851851851851852
 40
0.1975308641975309
 40
0.1975308641975309
 40
0.1975308641975309
 40
0.1975308641975309
 40
0.2098765432098765
 40
0.2098765432098765
 40
0.2098765432098765
 40
0.2098765432098765
 40
0.2222222222222222
 40
0.2222222222222222
 40
0.2222222222222222
 40
0.2222222222222222
 40
0.2345679012345679
 40
0.2345679012345679
 40
0.2345679012345679
 40
0.2345679012345679
 40
0.2469135802469136
 40
0.2469135802469136
 40
0.2469135802469136
 40
0.2469135802469136
 40
0.2592592592592592
 40
0.2592592592592592
 40
0.2592592592592592
 40
0.2592592592592592
 40
0.2716049382716049
 40
0.2716049382716049
 40
0.2716049382716049
 40
0.2716049382716049
 40
0.2839506172839506
 40
0.2839506172839506
 40
0.2839506172839506
 40
0.2839506172839506
 40
0.2962962962962963
 40
0.2962962962962963
 40
0.2962962962962963
 40
0.2962962962962963
 40
0.308641975308642
 40
0.308641975308642
 40
0.308641975308642
 40
0.308641975308642
 40
0.3209876543209876
 40
0.3209876543209876
 40
0.3209876543209876
 40
0.3209876543209876
 40
0.3333333333333333
 40
0.3333333333333333
 40
0.3333333333333333
 40
0.3333333333333333
 40
0.345679012345679
 40
0.345679012345679
 40
0.345679012345679
 40
0.345679012345679
 40
0.3580246913580247
 40
0.3580246913580247
 40
0.3580246913580247
 40
0.3580246913580247
 40
0.3703703703703703
 40
0.3703703703703703
 40
0.3703703703703703
 40
0.3703703703703703
 40
0.382716049382716
 40
0.382716049382716
 40
0.382716049382716
 40
0.382716049382716
 40
0.3950617283950617
 40
0.3950617283950617
 40
0.3950617283950617
 40
0.3950617283950617
 40
0.4074074074074074
 40
0.4074074074074074
 40
0.4074074074074074
 40
0.4074074074074074
 40
0.4197530864197531
 40
0.4197530864197531
 40
0.4197530864197531
 40
0.4197530864197531
 40
0.4320987654320987
 40
0.4320987654320987
 40
0.4320987654320987
 40
0.4320987654320987
 40
0.4444444444444444
 40
0.4444444444444444
 40
0.4444444444444444
 40
0.4444444444444444
 40
0.4567901234567901
 40
0.4567901234567901
 40
0.4567901234567901
 40
0.4567901234567901
 40
0.4691358024691358
 40
0.4691358024691358
 40
0.4691358024691358
 40
0.4691358024691358
 40
0.4814814814814815
 40
0.4814814814814815
 40
0.4814814814814815
 40
0.4814814814814815
 40
0.4938271604938271
 40
0.4938271604938271
 40
0.4938271604938271
 40
0.4938271604938271
 40
0.5061728395061729
 40
0.5061728395061729
 40
0.5061728395061729
 40
0.5061728395061729
 40
0.5185185185185185
 40
0.5185185185185185
 40
0.5185185185185185
 40
0.5185185185185185
 40
0.5308641975308642
 40
0.5308641975308642
 40
0.5308641975308642
 40
0.5308641975308642
 40
0.5432098765432098
 40
0.5432098765432098
 40
0.5432098765432098
 40
0.5432098765432098
 40
0.5555555555555556
 40
0.5555555555555556
 40
0.5555555555555556
 40
0.5555555555555556
 40
0.5679012345679012
 40
0.5679012345679012
 40
0.5679012345679012
 40
0.5679012345679012
 40
0.5802469135802469
 40
0.5802469135802469
 40
0.5802469135802469
 40
0.5802469135802469
 40
0.5925925925925926
 40
0.5925925925925926
 40
0.5925925925925926
 40
0.5925925925925926
 40
0.6049382716049383
 40
0.6049382716049383
 40
0.6049382716049383
 40
0.6049382716049383
 40
0.6172839506172839
 40
0.6172839506172839
 40
0.6172839506172839
 40
0.6172839506172839
 40
0.6296296296296297
 40
0.6296296296296297
 40
0.6296296296296297
 40
0.6296296296296297
 40
0.6419753086419753
 40
0.6419753086419753
 40
0.6419753086419753
 40
0.6419753086419753
 40
0.654320987654321
 40
0.654320987654321
 40
0.654320987654321
 40
0.654320987654321
 40
0.6666666666666666
 40
0.6666666666666666
 40
0.6666666666666666
 40
0.6666666666666666
 40
0.6790123456790124
 40
0.6790123456790124
 40
0.6790123456790124
 40
0.6790123456790124
 40
0.691358024691358
 40
0.691358024691358
 40
0.691358024691358
 40
0.691358024691358
 40
0.7037037037037037
 40
0.7037037037037037
 40
0.7037037037037037
 40
0.7037037037037037
 40
0.7160493827160493
 40
0.7160493827160493
 40
0.7160493827160493
 40
0.7160493827160493
 40
0.7283950617283951
 40
0.7283950617283951
 40
0.7283950617283951
 40
0.7283950617283951
 40
0.7407407407407407
 40
0.7407407407407407
 40
0.7407407407407407
 40
0.7407407407407407
 40
0.7530864197530864
 40
0.7530864197530864
 40
0.7530864197530864
 40
0.7530864197530864
 40
0.7654320987654321
 40
0.7654320987654321
 40
0.7654320987654321
 40
0.7654320987654321
 40
0.7777777777777778
 40
0.7777777777777778
 40
0.7777777777777778
 40
0.7777777777777778
 40
0.7901234567901234
 40
0.7901234567901234
 40
0.7901234567901234
 40
0.7901234567901234
 40
0.8024691358024691
 40
0.8024691358024691
 40
0.8024691358024691
 40
0.8024691358024691
 40
0.8148148148148148
 40
0.8148148148148148
 40
0.8148148148148148
 40
0.8148148148148148
 40
0.8271604938271605
 40
0.8271604938271605
 40
0.8271604938271605
 40
0.8271604938271605
 40
0.8395061728395061
 40
0.8395061728395061
 40
0.8395061728395061
 40
0.8395061728395061
 40
0.8518518518518519
 40
0.8518518518518519
 40
0.8518518518518519
 40
0.8518518518518519
 40
0.8641975308641975
 40
0.8641975308641975
 40
0.8641975308641975
 40
0.8641975308641975
 40
0.8765432098765432
 40
0.8765432098765432
 40
0.8765432098765432
 40
0.8765432098765432
 40
0.8888888888888888
 40
0.8888888888888888
 40
0.8888888888888888
 40
0.8888888888888888
 40
0.9012345679012346
 40
0.9012345679012346
 40
0.9012345679012346
 40
0.9012345679012346
 40
0.9135802469135802
 40
0.9135802469135802
 40
0.9135802469135802
 40
0.9135802469135802
 40
0.9259259259259259
 40
0.9259259259259259
 40
0.9259259259259259
 40
0.9259259259259259
 40
0.9382716049382716
 40
0.9382716049382716
 40
0.9382716049382716
 40
0.9382716049382716
 40
0.9506172839506173
 40
0.9506172839506173
 40
0.9506172839506173
 40
0.9506172839506173
 40
0.9629629629629629
 40
0.9629629629629629
 40
0.9629629629629629
 40
0.9629629629629629
 40
0.9753086419753086
 40
0.9753086419753086
 40
0.9753086419753086
 40
0.9753086419753086
 40
1.0
 40
1.0
 40
1.0
 40
1.0
 10
0.66116
 20
-20.19698
 30
0.0
 10
0.66013
 20
-18.95926
 30
0.0
 10
0.64694
 20
-17.72143
 30
0.0
 10
0.66133
 20
-16.48389
 30
0.0
 10
0.66133
 20
-16.48389
 30
0.0
 10
0.67682
 20
-15.14622
 30
0.0
 10
0.71954
 20
-13.80891
 30
0.0
 10
0.74755
 20
-12.47139
 30
0.0
 10
0.74755
 20
-12.47139
 30
0.0
 10
0.76568
 20
-11.60458
 30
0.0
 10
0.77655
 20
-10.73763
 30
0.0
 10
0.79461
 20
-9.87082
 30
0.0
 10
0.79461
 20
-9.87082
 30
0.0
 10
0.81472
 20
-8.90576
 30
0.0
 10
0.84019
 20
-7.94084
 30
0.0
 10
0.86175
 20
-6.97582
 30
0.0
 10
0.86175
 20
-6.97582
 30
0.0
 10
0.89766
 20
-5.36677
 30
0.0
 10
0.92415
 20
-3.75746
 30
0.0
 10
0.97086
 20
-2.14869
 30
0.0
 10
0.97086
 20
-2.14869
 30
0.0
 10
0.99495
 20
-1.3203
 30
0.0
 10
2.12293
 20
17.22498
 30
0.0
 10
2.1624
 20
18.05299
 30
0.0
 10
2.1624
 20
18.05299
 30
0.0
 10
2.17182
 20
18.25033
 30
0.0
 10
2.15951
 20
18.44859
 30
0.0
 10
2.15986
 20
18.64646
 30
0.0
 10
2.15986
 20
18.64646
 30
0.0
 10
2.16043
 20
18.94347
 30
0.0
 10
2.27776
 20
19.02288
 30
0.0
 10
2.55744
 20
18.92925
 30
0.0
 10
2.55744
 20
18.92925
 30
0.0
 10
2.80234
 20
18.84727
 30
0.0
 10
2.96924
 20
18.69539
 30
0.0
 10
2.99817
 20
18.43279
 30
0.0
 10
2.99817
 20
18.43279
 30
0.0
 10
3.02367
 20
18.20115
 30
0.0
 10
3.03256
 20
17.96716
 30
0.0
 10
3.03754
 20
17.73393
 30
0.0
 10
3.03754
 20
17.73393
 30
0.0
 10
3.04361
 20
17.44977
 30
0.0
 10
3.04269
 20
17.16522
 30
0.0
 10
3.03644
 20
16.88102
 30
0.0
 10
3.03644
 20
16.88102
 30
0.0
 10
3.01679
 20
15.98973
 30
0.0
 10
1.92163
 20
-2.6194
 30
0.0
 10
1.90569
 20
-3.51077
 30
0.0
 10
1.90569
 20
-3.51077
 30
0.0
 10
1.87813
 20
-5.04655
 30
0.0
 10
1.87097
 20
-6.58286
 30
0.0
 10
1.82942
 20
-8.11822
 30
0.0
 10
1.82942
 20
-8.11822
 30
0.0
 10
1.80461
 20
-9.03424
 30
0.0
 10
1.76105
 20
-10.0149
 30
0.0
 10
1.67677
 20
-11.38392
 30
0.0
 10
1.67677
 20
-11.38392
 30
0.0
 10
1.59672
 20
-12.68398
 30
0.0
 10
1.55668
 20
-13.33404
 30
0.0
 10
1.47628
 20
-14.22361
 30
0.0
 10
1.47628
 20
-14.22361
 30
0.0
 10
1.29425
 20
-16.23712
 30
0.0
 10
1.32671
 20
-18.26443
 30
0.0
 10
1.2178
 20
-20.2832
 30
0.0
 10
1.2178
 20
-20.2832
 30
0.0
 10
1.2171
 20
-20.29667
 30
0.0
 10
1.21424
 20
-20.34296
 30
0.0
 10
1.23167
 20
-20.39842
 30
0.0
 10
1.23167
 20
-20.39842
 30
0.0
 10
1.24126
 20
-20.42907
 30
0.0
 10
1.25679
 20
-20.46047
 30
0.0
 10
1.28095
 20
-20.49314
 30
0.0
 10
1.28095
 20
-20.49314
 30
0.0
 10
1.32815
 20
-20.29121
 30
0.0
 10
1.58603
 20
-18.13517
 30
0.0
 10
1.62646
 20
-17.9319
 30
0.0
 10
1.62646
 20
-17.9319
 30
0.0
 10
1.71162
 20
-17.50384
 30
0.0
 10
1.84349
 20
-17.09268
 30
0.0
 10
2.06422
 20
-16.71489
 30
0.0
 10
2.06422
 20
-16.71489
 30
0.0
 10
2.10299
 20
-16.64856
 30
0.0
 10
2.1824
 20
-16.56143
 30
0.0
 10
2.24058
 20
-16.56326
 30
0.0
 10
2.24058
 20
-16.56326
 30
0.0
 10
2.30203
 20
-16.56513
 30
0.0
 10
2.38441
 20
-16.65065
 30
0.0
 10
2.41665
 20
-16.71898
 30
0.0
 10
2.41665
 20
-16.71898
 30
0.0
 10
2.71909
 20
-17.35952
 30
0.0
 10
2.95735
 20
-18.01533
 30
0.0
 10
3.03997
 20
-18.7308
 30
0.0
 10
3.03997
 20
-18.7308
 30
0.0
 10
3.1439
 20
-19.63035
 30
0.0
 10
3.24046
 20
-20.52439
 30
0.0
 10
3.0338
 20
-21.48684
 30
0.0
 10
3.0338
 20
-21.48684
 30
0.0
 10
3.14394
 20
-21.41629
 30
0.0
 10
3.20451
 20
-21.3875
 30
0.0
 10
3.25294
 20
-21.34492
 30
0.0
 10
3.25294
 20
-21.34492
 30
0.0
 10
3.92978
 20
-20.75003
 30
0.0
 10
4.71761
 20
-20.33273
 30
0.0
 10
5.51608
 20
-19.93412
 30
0.0
 10
5.51608
 20
-19.93412
 30
0.0
 10
5.73181
 20
-19.82646
 30
0.0
 10
5.96055
 20
-19.75548
 30
0.0
 10
6.17391
 20
-20.00454
 30
0.0
 10
6.17391
 20
-20.00454
 30
0.0
 10
5.88428
 20
-21.32516
 30
0.0
 10
5.07465
 20
-22.31883
 30
0.0
 10
4.03597
 20
-23.24847
 30
0.0
 10
4.03597
 20
-23.24847
 30
0.0
 10
4.14935
 20
-23.25168
 30
0.0
 10
4.19126
 20
-23.26135
 30
0.0
 10
4.22887
 20
-23.2526
 30
0.0
 10
4.22887
 20
-23.2526
 30
0.0
 10
4.61477
 20
-23.16278
 30
0.0
 10
5.01489
 20
-23.1092
 30
0.0
 10
5.38217
 20
-22.96967
 30
0.0
 10
5.38217
 20
-22.96967
 30
0.0
 10
6.11062
 20
-22.69292
 30
0.0
 10
6.8166
 20
-22.35997
 30
0.0
 10
7.45925
 20
-21.90943
 30
0.0
 10
7.45925
 20
-21.90943
 30
0.0
 10
7.50995
 20
-21.87387
 30
0.0
 10
7.56138
 20
-21.83877
 30
0.0
 10
7.60859
 20
-21.79891
 30
0.0
 10
7.60859
 20
-21.79891
 30
0.0
 10
7.71389
 20
-21.70994
 30
0.0
 10
7.82417
 20
-21.68239
 30
0.0
 10
7.94923
 20
-21.75696
 30
0.0
 10
7.94923
 20
-21.75696
 30
0.0
 10
8.09824
 20
-21.84579
 30
0.0
 10
8.08399
 20
-21.98048
 30
0.0
 10
8.04779
 20
-22.11729
 30
0.0
 10
8.04779
 20
-22.11729
 30
0.0
 10
7.85415
 20
-22.84969
 30
0.0
 10
7.4553
 20
-23.44292
 30
0.0
 10
6.85368
 20
-23.90647
 30
0.0
 10
6.85368
 20
-23.90647
 30
0.0
 10
6.36564
 20
-24.28246
 30
0.0
 10
5.82416
 20
-24.54394
 30
0.0
 10
5.14299
 20
-24.71716
 30
0.0
 10
5.14299
 20
-24.71716
 30
0.0
 10
5.29539
 20
-24.77177
 30
0.0
 10
5.36386
 20
-24.80838
 30
0.0
 10
5.43639
 20
-24.82045
 30
0.0
 10
5.43639
 20
-24.82045
 30
0.0
 10
6.25487
 20
-24.95641
 30
0.0
 10
6.99966
 20
-25.28746
 30
0.0
 10
7.72289
 20
-25.67664
 30
0.0
 10
7.72289
 20
-25.67664
 30
0.0
 10
7.76649
 20
-25.70014
 30
0.0
 10
7.81217
 20
-25.72208
 30
0.0
 10
7.85038
 20
-25.75284
 30
0.0
 10
7.85038
 20
-25.75284
 30
0.0
 10
8.00087
 20
-25.87406
 30
0.0
 10
7.98659
 20
-25.99947
 30
0.0
 10
7.81249
 20
-26.09782
 30
0.0
 10
7.81249
 20
-26.09782
 30
0.0
 10
7.78035
 20
-26.11599
 30
0.0
 10
7.74546
 20
-26.13074
 30
0.0
 10
7.71015
 20
-26.1415
 30
0.0
 10
7.71015
 20
-26.1415
 30
0.0
 10
7.08182
 20
-26.33334
 30
0.0
 10
6.45631
 20
-26.52419
 30
0.0
 10
5.78709
 20
-26.53407
 30
0.0
 10
5.78709
 20
-26.53407
 30
0.0
 10
5.45929
 20
-26.53894
 30
0.0
 10
5.13258
 20
-26.61916
 30
0.0
 10
4.74022
 20
-26.6744
 30
0.0
 10
4.74022
 20
-26.6744
 30
0.0
 10
4.8916
 20
-26.80271
 30
0.0
 10
5.00434
 20
-26.90805
 30
0.0
 10
5.12697
 20
-27.00023
 30
0.0
 10
5.12697
 20
-27.00023
 30
0.0
 10
5.39843
 20
-27.20431
 30
0.0
 10
5.3978
 20
-27.34913
 30
0.0
 10
5.09949
 20
-27.52206
 30
0.0
 10
5.09949
 20
-27.52206
 30
0.0
 10
4.91798
 20
-27.62726
 30
0.0
 10
4.72988
 20
-27.74769
 30
0.0
 10
4.52993
 20
-27.78844
 30
0.0
 10
4.52993
 20
-27.78844
 30
0.0
 10
4.19035
 20
-27.85765
 30
0.0
 10
3.90714
 20
-28.02568
 30
0.0
 10
3.63172
 20
-28.21015
 30
0.0
 10
3.63172
 20
-28.21015
 30
0.0
 10
3.23971
 20
-28.47272
 30
0.0
 10
2.83
 20
-28.51707
 30
0.0
 10
2.39382
 20
-28.36379
 30
0.0
 10
2.39382
 20
-28.36379
 30
0.0
 10
2.04718
 20
-28.24197
 30
0.0
 10
1.70393
 20
-28.11035
 30
0.0
 10
1.35701
 20
-27.98229
 30
0.0
 10
1.35701
 20
-27.98229
 30
0.0
 10
1.2776
 20
-28.32999
 30
0.0
 10
1.21502
 20
-28.69568
 30
0.0
 10
1.10908
 20
-29.04839
 30
0.0
 10
1.10908
 20
-29.04839
 30
0.0
 10
0.90496
 20
-29.72815
 30
0.0
 10
0.78519
 20
-29.81621
 30
0.0
 10
0.11858
 20
-29.40959
 30
0.0
 10
0.11858
 20
-29.40959
 30
0.0
 10
-0.20029
 20
-29.21511
 30
0.0
 10
-0.41485
 20
-28.92054
 30
0.0
 10
-0.48209
 20
-28.54991
 30
0.0
 10
-0.48209
 20
-28.54991
 30
0.0
 10
-0.54591
 20
-28.19816
 30
0.0
 10
-0.57304
 20
-27.83973
 30
0.0
 10
-0.61512
 20
-27.4841
 30
0.0
 10
-0.61512
 20
-27.4841
 30
0.0
 10
-0.62204
 20
-27.42557
 30
0.0
 10
-0.62303
 20
-27.36634
 30
0.0
 10
-0.62786
 20
-27.29
 30
0.0
 10
-0.62786
 20
-27.29
 30
0.0
 10
-1.34915
 20
-27.238
 30
0.0
 10
-2.04789
 20
-27.20971
 30
0.0
 10
-2.73412
 20
-27.44356
 30
0.0
 10
-2.73412
 20
-27.44356
 30
0.0
 10
-3.17583
 20
-27.59409
 30
0.0
 10
-3.62943
 20
-27.63798
 30
0.0
 10
-4.08663
 20
-27.4992
 30
0.0
 10
-4.08663
 20
-27.4992
 30
0.0
 10
-4.15775
 20
-27.47764
 30
0.0
 10
-4.23191
 20
-27.46141
 30
0.0
 10
-4.29802
 20
-27.42907
 30
0.0
 10
-4.29802
 20
-27.42907
 30
0.0
 10
-4.47638
 20
-27.34179
 30
0.0
 10
-4.67143
 20
-27.25903
 30
0.0
 10
-4.68858
 20
-27.02379
 30
0.0
 10
-4.68858
 20
-27.02379
 30
0.0
 10
-4.70403
 20
-26.81139
 30
0.0
 10
-4.52517
 20
-26.73162
 30
0.0
 10
-4.38156
 20
-26.64177
 30
0.0
 10
-4.38156
 20
-26.64177
 30
0.0
 10
-3.92055
 20
-26.35341
 30
0.0
 10
-3.45481
 20
-26.07267
 30
0.0
 10
-2.99147
 20
-25.78805
 30
0.0
 10
-2.99147
 20
-25.78805
 30
0.0
 10
-2.93993
 20
-25.75637
 30
0.0
 10
-2.89223
 20
-25.71834
 30
0.0
 10
-2.82439
 20
-25.67022
 30
0.0
 10
-2.82439
 20
-25.67022
 30
0.0
 10
-3.67268
 20
-25.1014
 30
0.0
 10
-4.27766
 20
-24.32141
 30
0.0
 10
-4.89516
 20
-23.55352
 30
0.0
 10
-4.89516
 20
-23.55352
 30
0.0
 10
-5.02657
 20
-23.06281
 30
0.0
 10
-5.4872
 20
-22.92579
 30
0.0
 10
-5.83454
 20
-22.66089
 30
0.0
 10
-5.83454
 20
-22.66089
 30
0.0
 10
-6.02561
 20
-22.51519
 30
0.0
 10
-6.19737
 20
-22.32321
 30
0.0
 10
-6.32321
 20
-22.11849
 30
0.0
 10
-6.32321
 20
-22.11849
 30
0.0
 10
-6.4615
 20
-21.89345
 30
0.0
 10
-6.35648
 20
-21.72585
 30
0.0
 10
-6.09433
 20
-21.71773
 30
0.0
 10
-6.09433
 20
-21.71773
 30
0.0
 10
-5.29331
 20
-21.6929
 30
0.0
 10
-4.49187
 20
-21.68147
 30
0.0
 10
-3.67028
 20
-21.66443
 30
0.0
 10
-3.67028
 20
-21.66443
 30
0.0
 10
-3.71071
 20
-21.59282
 30
0.0
 10
-3.76225
 20
-21.4897
 30
0.0
 10
-3.82434
 20
-21.39339
 30
0.0
 10
-3.82434
 20
-21.39339
 30
0.0
 10
-4.17402
 20
-20.85117
 30
0.0
 10
-4.50242
 20
-20.29794
 30
0.0
 10
-4.71659
 20
-19.68524
 30
0.0
 10
-4.71659
 20
-19.68524
 30
0.0
 10
-4.83283
 20
-19.35271
 30
0.0
 10
-4.92727
 20
-19.01994
 30
0.0
 10
-4.66205
 20
-18.68166
 30
0.0
 10
-4.66205
 20
-18.68166
 30
0.0
 10
-4.37076
 20
-18.70406
 30
0.0
 10
-4.11034
 20
-18.81847
 30
0.0
 10
-3.90291
 20
-19.01528
 30
0.0
 10
-3.90291
 20
-19.01528
 30
0.0
 10
-3.52649
 20
-19.37243
 30
0.0
 10
-3.17001
 20
-19.75057
 30
0.0
 10
-2.80661
 20
-20.12134
 30
0.0
 10
-2.80661
 20
-20.12134
 30
0.0
 10
-2.43457
 20
-20.50086
 30
0.0
 10
-2.07026
 20
-20.88825
 30
0.0
 10
-1.68958
 20
-21.25888
 30
0.0
 10
-1.68958
 20
-21.25888
 30
0.0
 10
-1.56932
 20
-21.376
 30
0.0
 10
-1.40739
 20
-21.45022
 30
0.0
 10
-1.2128
 20
-21.57803
 30
0.0
 10
-1.2128
 20
-21.57803
 30
0.0
 10
-1.23136
 20
-21.44645
 30
0.0
 10
-1.23601
 20
-21.36954
 30
0.0
 10
-1.25358
 20
-21.29571
 30
0.0
 10
-1.25358
 20
-21.29571
 30
0.0
 10
-1.39272
 20
-20.71017
 30
0.0
 10
-1.37666
 20
-20.11482
 30
0.0
 10
-1.36767
 20
-19.52014
 30
0.0
 10
-1.36767
 20
-19.52014
 30
0.0
 10
-1.3573
 20
-18.8361
 30
0.0
 10
-1.28946
 20
-18.15986
 30
0.0
 10
-1.07363
 20
-17.5056
 30
0.0
 10
-1.07363
 20
-17.5056
 30
0.0
 10
-1.01584
 20
-17.33041
 30
0.0
 10
-0.97379
 20
-17.14432
 30
0.0
 10
-0.78096
 20
-17.05546
 30
0.0
 10
-0.78096
 20
-17.05546
 30
0.0
 10
-0.57307
 20
-17.08862
 30
0.0
 10
-0.49962
 20
-17.26353
 30
0.0
 10
-0.43644
 20
-17.41515
 30
0.0
 10
-0.43644
 20
-17.41515
 30
0.0
 10
-0.20766
 20
-17.96411
 30
0.0
 10
-0.02108
 20
-18.34285
 30
0.0
 10
0.11086
 20
-18.83483
 30
0.0
 10
0.11086
 20
-18.83483
 30
0.0
 10
0.20068
 20
-19.1699
 30
0.0
 10
0.35967
 20
-19.6434
 30
0.0
 10
0.66116
 20
-20.19698
 30
0.0
  0
SPLINE
  5
5B
330
1F
100
AcDbEntity
  8
Layer 1
370
    53
100
AcDbSpline
210
0.0
220
0.0
230
1.0
 70
    11
 71
     3
 72
    44
 73
    40
 74
     0
 42
0.0000000001
 43
0.0000000001
 12
1.0
 22
0.0
 32
0.0
 13
1.0
 23
0.0
 33
0.0
 40
0.0
 40
0.0
 40
0.0
 40
0.0
 40
0.0909090909090909
 40
0.0909090909090909
 40
0.0909090909090909
 40
0.0909090909090909
 40
0.1818181818181818
 40
0.1818181818181818
 40
0.1818181818181818
 40
0.1818181818181818
 40
0.2727272727272727
 40
0.2727272727272727
 40
0.2727272727272727
 40
0.2727272727272727
 40
0.3636363636363636
 40
0.3636363636363636
 40
0.3636363636363636
 40
0.3636363636363636
 40
0.4545454545454545
 40
0.4545454545454545
 40
0.4545454545454545
 40
0.4545454545454545
 40
0.5454545454545454
 40
0.5454545454545454
 40
0.5454545454545454
 40
0.5454545454545454
 40
0.6363636363636364
 40
0.6363636363636364
 40
0.6363636363636364
 40
0.6363636363636364
 40
0.7272727272727273
 40
0.7272727272727273
 40
0.7272727272727273
 40
0.7272727272727273
 40
0.8181818181818182
 40
0.8181818181818182
 40
0.8181818181818182
 40
0.8181818181818182
 40
1.0
 40
1.0
 40
1.0
 40
1.0
 10
0.49482
 20
-23.48833
 30
0.0
 10
0.42935
 20
-23.41636
 30
0.0
 10
0.37237
 20
-23.33441
 30
0.0
 10
0.29758
 20
-23.27468
 30
0.0
 10
0.29758
 20
-23.27468
 30
0.0
 10
-0.17574
 20
-22.89658
 30
0.0
 10
-0.63132
 20
-22.49067
 30
0.0
 10
-1.13438
 20
-22.15673
 30
0.0
 10
-1.13438
 20
-22.15673
 30
0.0
 10
-1.78917
 20
-21.72211
 30
0.0
 10
-2.3987
 20
-21.24487
 30
0.0
 10
-2.92211
 20
-20.65873
 30
0.0
 10
-2.92211
 20
-20.65873
 30
0.0
 10
-3.26854
 20
-20.27075
 30
0.0
 10
-3.61261
 20
-19.88054
 30
0.0
 10
-3.96556
 20
-19.49862
 30
0.0
 10
-3.96556
 20
-19.49862
 30
0.0
 10
-4.06603
 20
-19.38989
 30
0.0
 10
-4.15324
 20
-19.24416
 30
0.0
 10
-4.34691
 20
-19.23298
 30
0.0
 10
-4.34691
 20
-19.23298
 30
0.0
 10
-4.33552
 20
-19.31405
 30
0.0
 10
-4.33827
 20
-19.37864
 30
0.0
 10
-4.31643
 20
-19.43343
 30
0.0
 10
-4.31643
 20
-19.43343
 30
0.0
 10
-4.25237
 20
-19.59415
 30
0.0
 10
-4.18298
 20
-19.75311
 30
0.0
 10
-4.10773
 20
-19.9089
 30
0.0
 10
-4.10773
 20
-19.9089
 30
0.0
 10
-3.44994
 20
-21.27076
 30
0.0
 10
-2.67016
 20
-22.53925
 30
0.0
 10
-1.40291
 20
-23.43389
 30
0.0
 10
-1.40291
 20
-23.43389
 30
0.0
 10
-1.06118
 20
-23.67512
 30
0.0
 10
-0.73577
 20
-23.94574
 30
0.0
 10
-0.34363
 20
-24.02758
 30
0.0
 10
-0.34363
 20
-24.02758
 30
0.0
 10
-0.05601
 20
-23.84259
 30
0.0
 10
0.20219
 20
-23.6765
 30
0.0
 10
0.49482
 20
-23.48833
 30
0.0
  0
SPLINE
  5
5C
330
1F
100
AcDbEntity
  8
Layer 1
370
    53
100
AcDbSpline
210
0.0
220
0.0
230
1.0
 70
    11
 71
     3
 72
    40
 73
    36
 74
     0
 42
0.0000000001
 43
0.0000000001
 12
1.0
 22
0.0
 32
0.0
 13
1.0
 23
0.0
 33
0.0
 40
0.0
 40
0.0
 40
0.0
 40
0.0
 40
0.1
 40
0.1
 40
0.1
 40
0.1
 40
0.2
 40
0.2
 40
0.2
 40
0.2
 40
0.3
 40
0.3
 40
0.3
 40
0.3
 40
0.4
 40
0.4
 40
0.4
 40
0.4
 40
0.5
 40
0.5
 40
0.5
 40
0.5
 40
0.6
 40
0.6
 40
0.6
 40
0.6
 40
0.7
 40
0.7
 40
0.7
 40
0.7
 40
0.8
 40
0.8
 40
0.8
 40
0.8
 40
1.0
 40
1.0
 40
1.0
 40
1.0
 10
1.30741
 20
-23.70511
 30
0.0
 10
1.57122
 20
-23.28438
 30
0.0
 10
1.75029
 20
-22.91217
 30
0.0
 10
2.00933
 20
-22.60811
 30
0.0
 10
2.00933
 20
-22.60811
 30
0.0
 10
2.31886
 20
-22.24482
 30
0.0
 10
2.5204
 20
-21.85765
 30
0.0
 10
2.5699
 20
-21.38665
 30
0.0
 10
2.5699
 20
-21.38665
 30
0.0
 10
2.57762
 20
-21.31324
 30
0.0
 10
2.59879
 20
-21.24099
 30
0.0
 10
2.61664
 20
-21.16895
 30
0.0
 10
2.61664
 20
-21.16895
 30
0.0
 10
2.82541
 20
-20.32659
 30
0.0
 10
2.84746
 20
-19.47812
 30
0.0
 10
2.68264
 20
-18.6274
 30
0.0
 10
2.68264
 20
-18.6274
 30
0.0
 10
2.59946
 20
-18.19796
 30
0.0
 10
2.49602
 20
-17.77191
 30
0.0
 10
2.20417
 20
-17.34738
 30
0.0
 10
2.20417
 20
-17.34738
 30
0.0
 10
2.175
 20
-17.53136
 30
0.0
 10
2.15729
 20
-17.64961
 30
0.0
 10
2.13735
 20
-17.7675
 30
0.0
 10
2.13735
 20
-17.7675
 30
0.0
 10
2.01981
 20
-18.4623
 30
0.0
 10
1.91193
 20
-19.15893
 30
0.0
 10
1.78101
 20
-19.85122
 30
0.0
 10
1.78101
 20
-19.85122
 30
0.0
 10
1.65225
 20
-20.53187
 30
0.0
 10
1.48549
 20
-21.2055
 30
0.0
 10
1.36251
 20
-21.88707
 30
0.0
 10
1.36251
 20
-21.88707
 30
0.0
 10
1.25926
 20
-22.45952
 30
0.0
 10
1.23855
 20
-23.04002
 30
0.0
 10
1.30741
 20
-23.70511
 30
0.0
  0
SPLINE
  5
5D
330
1F
100
AcDbEntity
  8
Layer 1
370
    53
100
AcDbSpline
210
0.0
220
0.0
230
1.0
 70
    11
 71
     3
 72
    44
 73
    40
 74
     0
 42
0.0000000001
 43
0.0000000001
 12
1.0
 22
0.0
 32
0.0
 13
1.0
 23
0.0
 33
0.0
 40
0.0
 40
0.0
 40
0.0
 40
0.0
 40
0.0909090909090909
 40
0.0909090909090909
 40
0.0909090909090909
 40
0.0909090909090909
 40
0.1818181818181818
 40
0.1818181818181818
 40
0.1818181818181818
 40
0.1818181818181818
 40
0.2727272727272727
 40
0.2727272727272727
 40
0.2727272727272727
 40
0.2727272727272727
 40
0.3636363636363636
 40
0.3636363636363636
 40
0.3636363636363636
 40
0.3636363636363636
 40
0.4545454545454545
 40
0.4545454545454545
 40
0.4545454545454545
 40
0.4545454545454545
 40
0.5454545454545454
 40
0.5454545454545454
 40
0.5454545454545454
 40
0.5454545454545454
 40
0.6363636363636364
 40
0.6363636363636364
 40
0.6363636363636364
 40
0.6363636363636364
 40
0.7272727272727273
 40
0.7272727272727273
 40
0.7272727272727273
 40
0.7272727272727273
 40
0.8181818181818182
 40
0.8181818181818182
 40
0.8181818181818182
 40
0.8181818181818182
 40
1.0
 40
1.0
 40
1.0
 40
1.0
 10
-0.67372
 20
-24.38502
 30
0.0
 10
-0.75666
 20
-24.32984
 30
0.0
 10
-0.80513
 20
-24.29396
 30
0.0
 10
-0.85685
 20
-24.26373
 30
0.0
 10
-0.85685
 20
-24.26373
 30
0.0
 10
-1.66298
 20
-23.79203
 30
0.0
 10
-2.41235
 20
-23.24942
 30
0.0
 10
-3.02675
 20
-22.5366
 30
0.0
 10
-3.02675
 20
-22.5366
 30
0.0
 10
-3.06633
 20
-22.49071
 30
0.0
 10
-3.11311
 20
-22.4476
 30
0.0
 10
-3.16426
 20
-22.41556
 30
0.0
 10
-3.16426
 20
-22.41556
 30
0.0
 10
-3.96295
 20
-21.91536
 30
0.0
 10
-4.80104
 20
-22.00228
 30
0.0
 10
-5.71393
 20
-22.24246
 30
0.0
 10
-5.71393
 20
-22.24246
 30
0.0
 10
-5.56812
 20
-22.34557
 30
0.0
 10
-5.46822
 20
-22.41309
 30
0.0
 10
-5.37163
 20
-22.48513
 30
0.0
 10
-5.37163
 20
-22.48513
 30
0.0
 10
-5.04453
 20
-22.72897
 30
0.0
 10
-4.70579
 20
-22.95934
 30
0.0
 10
-4.39577
 20
-23.22339
 30
0.0
 10
-4.39577
 20
-23.22339
 30
0.0
 10
-4.07125
 20
-23.49983
 30
0.0
 10
-3.75368
 20
-23.76582
 30
0.0
 10
-3.3083
 20
-23.82114
 30
0.0
 10
-3.3083
 20
-23.82114
 30
0.0
 10
-3.17562
 20
-23.83761
 30
0.0
 10
-3.04922
 20
-23.90326
 30
0.0
 10
-2.91936
 20
-23.94468
 30
0.0
 10
-2.91936
 20
-23.94468
 30
0.0
 10
-2.38857
 20
-24.11391
 30
0.0
 10
-1.85909
 20
-24.28754
 30
0.0
 10
-1.32586
 20
-24.44873
 30
0.0
 10
-1.32586
 20
-24.44873
 30
0.0
 10
-1.12722
 20
-24.50877
 30
0.0
 10
-0.91809
 20
-24.56162
 30
0.0
 10
-0.67372
 20
-24.38502
 30
0.0
  0
SPLINE
  5
5E
330
1F
100
AcDbEntity
  8
Layer 1
370
    53
100
AcDbSpline
210
0.0
220
0.0
230
1.0
 70
    11
 71
     3
 72
    40
 73
    36
 74
     0
 42
0.0000000001
 43
0.0000000001
 12
1.0
 22
0.0
 32
0.0
 13
1.0
 23
0.0
 33
0.0
 40
0.0
 40
0.0
 40
0.0
 40
0.0
 40
0.1
 40
0.1
 40
0.1
 40
0.1
 40
0.2
 40
0.2
 40
0.2
 40
0.2
 40
0.3
 40
0.3
 40
0.3
 40
0.3
 40
0.4
 40
0.4
 40
0.4
 40
0.4
 40
0.5
 40
0.5
 40
0.5
 40
0.5
 40
0.6
 40
0.6
 40
0.6
 40
0.6
 40
0.7
 40
0.7
 40
0.7
 40
0.7
 40
0.8
 40
0.8
 40
0.8
 40
0.8
 40
1.0
 40
1.0
 40
1.0
 40
1.0
 10
0.81701
 20
-23.15566
 30
0.0
 10
0.79973
 20
-22.77099
 30
0.0
 10
0.84982
 20
-22.46128
 30
0.0
 10
0.73146
 20
-22.14548
 30
0.0
 10
0.73146
 20
-22.14548
 30
0.0
 10
0.56255
 20
-21.69477
 30
0.0
 10
0.42137
 20
-21.23221
 30
0.0
 10
0.29406
 20
-20.76767
 30
0.0
 10
0.29406
 20
-20.76767
 30
0.0
 10
0.04542
 20
-19.86043
 30
0.0
 10
-0.21913
 20
-18.95936
 30
0.0
 10
-0.5929
 20
-18.09414
 30
0.0
 10
-0.5929
 20
-18.09414
 30
0.0
 10
-0.62825
 20
-18.0123
 30
0.0
 10
-0.67827
 20
-17.9368
 30
0.0
 10
-0.75521
 20
-17.79707
 30
0.0
 10
-0.75521
 20
-17.79707
 30
0.0
 10
-0.78724
 20
-17.96721
 30
0.0
 10
-0.81434
 20
-18.06211
 30
0.0
 10
-0.82171
 20
-18.15849
 30
0.0
 10
-0.82171
 20
-18.15849
 30
0.0
 10
-0.85861
 20
-18.63911
 30
0.0
 10
-0.87978
 20
-19.12115
 30
0.0
 10
-0.92631
 20
-19.60079
 30
0.0
 10
-0.92631
 20
-19.60079
 30
0.0
 10
-1.00096
 20
-20.37012
 30
0.0
 10
-0.8644
 20
-21.10298
 30
0.0
 10
-0.59068
 20
-21.81852
 30
0.0
 10
-0.59068
 20
-21.81852
 30
0.0
 10
-0.52756
 20
-21.98341
 30
0.0
 10
-0.45203
 20
-22.12466
 30
0.0
 10
-0.30623
 20
-22.23801
 30
0.0
 10
-0.30623
 20
-22.23801
 30
0.0
 10
0.05417
 20
-22.51822
 30
0.0
 10
0.40194
 20
-22.81463
 30
0.0
 10
0.81701
 20
-23.15566
 30
0.0
  0
SPLINE
  5
5F
330
1F
100
AcDbEntity
  8
Layer 1
370
    53
100
AcDbSpline
210
0.0
220
0.0
230
1.0
 70
    11
 71
     3
 72
    16
 73
    12
 74
     0
 42
0.0000000001
 43
0.0000000001
 12
1.0
 22
0.0
 32
0.0
 13
1.0
 23
0.0
 33
0.0
 40
0.0
 40
0.0
 40
0.0
 40
0.0
 40
0.25
 40
0.25
 40
0.25
 40
0.25
 40
0.5
 40
0.5
 40
0.5
 40
0.5
 40
1.0
 40
1.0
 40
1.0
 40
1.0
 10
5.6409
 20
-20.38815
 30
0.0
 10
4.58267
 20
-20.7586
 30
0.0
 10
2.38127
 20
-22.49353
 30
0.0
 10
1.68523
 20
-23.9837
 30
0.0
 10
1.68523
 20
-23.9837
 30
0.0
 10
1.75424
 20
-24.05037
 30
0.0
 10
1.82952
 20
-24.12322
 30
0.0
 10
1.9217
 20
-24.21237
 30
0.0
 10
1.9217
 20
-24.21237
 30
0.0
 10
3.53351
 20
-23.27479
 30
0.0
 10
4.80143
 20
-22.04081
 30
0.0
 10
5.6409
 20
-20.38815
 30
0.0
  0
SPLINE
  5
60
330
1F
100
AcDbEntity
  8
Layer 1
370
    53
100
AcDbSpline
210
0.0
220
0.0
230
1.0
 70
    11
 71
     3
 72
    28
 73
    24
 74
     0
 42
0.0000000001
 43
0.0000000001
 12
1.0
 22
0.0
 32
0.0
 13
1.0
 23
0.0
 33
0.0
 40
0.0
 40
0.0
 40
0.0
 40
0.0
 40
0.1428571428571428
 40
0.1428571428571428
 40
0.1428571428571428
 40
0.1428571428571428
 40
0.2857142857142857
 40
0.2857142857142857
 40
0.2857142857142857
 40
0.2857142857142857
 40
0.4285714285714285
 40
0.4285714285714285
 40
0.4285714285714285
 40
0.4285714285714285
 40
0.5714285714285714
 40
0.5714285714285714
 40
0.5714285714285714
 40
0.5714285714285714
 40
0.7142857142857143
 40
0.7142857142857143
 40
0.7142857142857143
 40
0.7142857142857143
 40
1.0
 40
1.0
 40
1.0
 40
1.0
 10
2.49821
 20
-25.29314
 30
0.0
 10
2.4732
 20
-25.40137
 30
0.0
 10
2.46089
 20
-25.4491
 30
0.0
 10
2.45122
 20
-25.49736
 30
0.0
 10
2.45122
 20
-25.49736
 30
0.0
 10
2.38296
 20
-25.83835
 30
0.0
 10
2.39516
 20
-25.86809
 30
0.0
 10
2.73697
 20
-25.96807
 30
0.0
 10
2.73697
 20
-25.96807
 30
0.0
 10
2.95008
 20
-26.03041
 30
0.0
 10
3.16768
 20
-26.09045
 30
0.0
 10
3.38735
 20
-26.11518
 30
0.0
 10
3.38735
 20
-26.11518
 30
0.0
 10
4.51127
 20
-26.24176
 30
0.0
 10
5.63398
 20
-26.20888
 30
0.0
 10
6.75299
 20
-26.05263
 30
0.0
 10
6.75299
 20
-26.05263
 30
0.0
 10
6.87541
 20
-26.03556
 30
0.0
 10
7.01426
 20
-26.03739
 30
0.0
 10
7.16073
 20
-25.90305
 30
0.0
 10
7.16073
 20
-25.90305
 30
0.0
 10
5.65247
 20
-25.12814
 30
0.0
 10
4.10783
 20
-25.04573
 30
0.0
 10
2.49821
 20
-25.29314
 30
0.0
  0
SPLINE
  5
61
330
1F
100
AcDbEntity
  8
Layer 1
370
    53
100
AcDbSpline
210
0.0
220
0.0
230
1.0
 70
    11
 71
     3
 72
    40
 73
    36
 74
     0
 42
0.0000000001
 43
0.0000000001
 12
1.0
 22
0.0
 32
0.0
 13
1.0
 23
0.0
 33
0.0
 40
0.0
 40
0.0
 40
0.0
 40
0.0
 40
0.1
 40
0.1
 40
0.1
 40
0.1
 40
0.2
 40
0.2
 40
0.2
 40
0.2
 40
0.3
 40
0.3
 40
0.3
 40
0.3
 40
0.4
 40
0.4
 40
0.4
 40
0.4
 40
0.5
 40
0.5
 40
0.5
 40
0.5
 40
0.6
 40
0.6
 40
0.6
 40
0.6
 40
0.7
 40
0.7
 40
0.7
 40
0.7
 40
0.8
 40
0.8
 40
0.8
 40
0.8
 40
1.0
 40
1.0
 40
1.0
 40
1.0
 10
2.32059
 20
-24.55008
 30
0.0
 10
2.3982
 20
-24.72538
 30
0.0
 10
2.50975
 20
-24.75293
 30
0.0
 10
2.68589
 20
-24.72576
 30
0.0
 10
2.68589
 20
-24.72576
 30
0.0
 10
2.97788
 20
-24.68075
 30
0.0
 10
3.27669
 20
-24.67952
 30
0.0
 10
3.57274
 20
-24.66191
 30
0.0
 10
3.57274
 20
-24.66191
 30
0.0
 10
3.696
 20
-24.65461
 30
0.0
 10
3.82367
 20
-24.67133
 30
0.0
 10
3.94238
 20
-24.64533
 30
0.0
 10
3.94238
 20
-24.64533
 30
0.0
 10
4.8063
 20
-24.45628
 30
0.0
 10
5.6427
 20
-24.1949
 30
0.0
 10
6.36748
 20
-23.66221
 30
0.0
 10
6.36748
 20
-23.66221
 30
0.0
 10
6.78146
 20
-23.3579
 30
0.0
 10
7.15837
 20
-23.01867
 30
0.0
 10
7.43255
 20
-22.50789
 30
0.0
 10
7.43255
 20
-22.50789
 30
0.0
 10
7.1414
 20
-22.63203
 30
0.0
 10
6.89654
 20
-22.71811
 30
0.0
 10
6.66871
 20
-22.83682
 30
0.0
 10
6.66871
 20
-22.83682
 30
0.0
 10
5.79182
 20
-23.29359
 30
0.0
 10
4.86821
 20
-23.59405
 30
0.0
 10
3.88449
 20
-23.70567
 30
0.0
 10
3.88449
 20
-23.70567
 30
0.0
 10
3.62096
 20
-23.73555
 30
0.0
 10
3.38629
 20
-23.82996
 30
0.0
 10
3.16877
 20
-23.98818
 30
0.0
 10
3.16877
 20
-23.98818
 30
0.0
 10
2.89939
 20
-24.18407
 30
0.0
 10
2.61364
 20
-24.3575
 30
0.0
 10
2.32059
 20
-24.55008
 30
0.0
  0
SPLINE
  5
62
330
1F
100
AcDbEntity
  8
Layer 1
370
    53
100
AcDbSpline
210
0.0
220
0.0
230
1.0
 70
    11
 71
     3
 72
    40
 73
    36
 74
     0
 42
0.0000000001
 43
0.0000000001
 12
1.0
 22
0.0
 32
0.0
 13
1.0
 23
0.0
 33
0.0
 40
0.0
 40
0.0
 40
0.0
 40
0.0
 40
0.1
 40
0.1
 40
0.1
 40
0.1
 40
0.2
 40
0.2
 40
0.2
 40
0.2
 40
0.3
 40
0.3
 40
0.3
 40
0.3
 40
0.4
 40
0.4
 40
0.4
 40
0.4
 40
0.5
 40
0.5
 40
0.5
 40
0.5
 40
0.6
 40
0.6
 40
0.6
 40
0.6
 40
0.7
 40
0.7
 40
0.7
 40
0.7
 40
0.8
 40
0.8
 40
0.8
 40
0.8
 40
1.0
 40
1.0
 40
1.0
 40
1.0
 10
-1.16415
 20
-25.45686
 30
0.0
 10
-1.3852
 20
-25.46921
 30
0.0
 10
-1.66824
 20
-25.48625
 30
0.0
 10
-1.91843
 20
-25.64419
 30
0.0
 10
-1.91843
 20
-25.64419
 30
0.0
 10
-2.19017
 20
-25.81571
 30
0.0
 10
-2.45765
 20
-25.99414
 30
0.0
 10
-2.72403
 20
-26.17392
 30
0.0
 10
-2.72403
 20
-26.17392
 30
0.0
 10
-3.05162
 20
-26.39507
 30
0.0
 10
-3.3754
 20
-26.6218
 30
0.0
 10
-3.70239
 20
-26.84384
 30
0.0
 10
-3.70239
 20
-26.84384
 30
0.0
 10
-3.82752
 20
-26.92879
 30
0.0
 10
-3.95699
 20
-27.00732
 30
0.0
 10
-4.14251
 20
-27.12589
 30
0.0
 10
-4.14251
 20
-27.12589
 30
0.0
 10
-3.99195
 20
-27.16498
 30
0.0
 10
-3.92065
 20
-27.20385
 30
0.0
 10
-3.85373
 20
-27.1974
 30
0.0
 10
-3.85373
 20
-27.1974
 30
0.0
 10
-3.52356
 20
-27.16554
 30
0.0
 10
-3.18504
 20
-27.15796
 30
0.0
 10
-2.86715
 20
-27.07452
 30
0.0
 10
-2.86715
 20
-27.07452
 30
0.0
 10
-2.2065
 20
-26.9011
 30
0.0
 10
-1.56043
 20
-26.68721
 30
0.0
 10
-0.86055
 20
-26.86233
 30
0.0
 10
-0.86055
 20
-26.86233
 30
0.0
 10
-0.69298
 20
-26.90424
 30
0.0
 10
-0.50238
 20
-26.85435
 30
0.0
 10
-0.30549
 20
-26.84596
 30
0.0
 10
-0.30549
 20
-26.84596
 30
0.0
 10
-0.5978
 20
-26.37306
 30
0.0
 10
-0.86736
 20
-25.93703
 30
0.0
 10
-1.16415
 20
-25.45686
 30
0.0
  0
SPLINE
  5
63
330
1F
100
AcDbEntity
  8
Layer 1
370
    53
100
AcDbSpline
210
0.0
220
0.0
230
1.0
 70
    11
 71
     3
 72
    32
 73
    28
 74
     0
 42
0.0000000001
 43
0.0000000001
 12
1.0
 22
0.0
 32
0.0
 13
1.0
 23
0.0
 33
0.0
 40
0.0
 40
0.0
 40
0.0
 40
0.0
 40
0.125
 40
0.125
 40
0.125
 40
0.125
 40
0.25
 40
0.25
 40
0.25
 40
0.25
 40
0.375
 40
0.375
 40
0.375
 40
0.375
 40
0.5
 40
0.5
 40
0.5
 40
0.5
 40
0.625
 40
0.625
 40
0.625
 40
0.625
 40
0.75
 40
0.75
 40
0.75
 40
0.75
 40
1.0
 40
1.0
 40
1.0
 40
1.0
 10
0.70723
 20
-29.25614
 30
0.0
 10
0.77821
 20
-28.9972
 30
0.0
 10
0.85857
 20
-28.77505
 30
0.0
 10
0.89748
 20
-28.54585
 30
0.0
 10
0.89748
 20
-28.54585
 30
0.0
 10
0.9613
 20
-28.17004
 30
0.0
 10
1.01284
 20
-27.79077
 30
0.0
 10
1.04096
 20
-27.41083
 30
0.0
 10
1.04096
 20
-27.41083
 30
0.0
 10
1.05828
 20
-27.17655
 30
0.0
 10
0.99651
 20
-27.14254
 30
0.0
 10
0.75111
 20
-27.15785
 30
0.0
 10
0.75111
 20
-27.15785
 30
0.0
 10
0.65272
 20
-27.16395
 30
0.0
 10
0.54022
 20
-27.20131
 30
0.0
 10
0.45838
 20
-27.16688
 30
0.0
 10
0.45838
 20
-27.16688
 30
0.0
 10
0.20106
 20
-27.05868
 30
0.0
 10
-0.01911
 20
-27.14903
 30
0.0
 10
-0.26676
 20
-27.2477
 30
0.0
 10
-0.26676
 20
-27.2477
 30
0.0
 10
-0.3304
 20
-27.67262
 30
0.0
 10
-0.26884
 20
-28.08421
 30
0.0
 10
-0.16671
 20
-28.49206
 30
0.0
 10
-0.16671
 20
-28.49206
 30
0.0
 10
-0.05763
 20
-28.92759
 30
0.0
 10
0.26192
 20
-29.13019
 30
0.0
 10
0.70723
 20
-29.25614
 30
0.0
  0
SPLINE
  5
64
330
1F
100
AcDbEntity
  8
Layer 1
370
    53
100
AcDbSpline
210
0.0
220
0.0
230
1.0
 70
    11
 71
     3
 72
    32
 73
    28
 74
     0
 42
0.0000000001
 43
0.0000000001
 12
1.0
 22
0.0
 32
0.0
 13
1.0
 23
0.0
 33
0.0
 40
0.0
 40
0.0
 40
0.0
 40
0.0
 40
0.125
 40
0.125
 40
0.125
 40
0.125
 40
0.25
 40
0.25
 40
0.25
 40
0.25
 40
0.375
 40
0.375
 40
0.375
 40
0.375
 40
0.5
 40
0.5
 40
0.5
 40
0.5
 40
0.625
 40
0.625
 40
0.625
 40
0.625
 40
0.75
 40
0.75
 40
0.75
 40
0.75
 40
1.0
 40
1.0
 40
1.0
 40
1.0
 10
3.62414
 20
-27.7786
 30
0.0
 10
3.62675
 20
-27.75129
 30
0.0
 10
3.62936
 20
-27.72399
 30
0.0
 10
3.63197
 20
-27.69668
 30
0.0
 10
3.63197
 20
-27.69668
 30
0.0
 10
2.95446
 20
-27.51525
 30
0.0
 10
2.39379
 20
-27.14575
 30
0.0
 10
1.93765
 20
-26.64043
 30
0.0
 10
1.93765
 20
-26.64043
 30
0.0
 10
1.7783
 20
-26.73173
 30
0.0
 10
1.65825
 20
-26.79562
 30
0.0
 10
1.54328
 20
-26.86751
 30
0.0
 10
1.54328
 20
-26.86751
 30
0.0
 10
1.32163
 20
-27.00605
 30
0.0
 10
1.29259
 20
-27.20406
 30
0.0
 10
1.49625
 20
-27.37414
 30
0.0
 10
1.49625
 20
-27.37414
 30
0.0
 10
1.6846
 20
-27.53144
 30
0.0
 10
1.89595
 20
-27.66564
 30
0.0
 10
2.11051
 20
-27.78632
 30
0.0
 10
2.11051
 20
-27.78632
 30
0.0
 10
2.65407
 20
-28.09201
 30
0.0
 10
2.65753
 20
-28.31429
 30
0.0
 10
3.45978
 20
-27.85589
 30
0.0
 10
3.45978
 20
-27.85589
 30
0.0
 10
3.51217
 20
-27.82594
 30
0.0
 10
3.56924
 20
-27.80417
 30
0.0
 10
3.62414
 20
-27.7786
 30
0.0
  0
SPLINE
  5
65
330
1F
100
AcDbEntity
  8
Layer 1
370
    53
100
AcDbSpline
210
0.0
220
0.0
230
1.0
 70
    11
 71
     3
 72
    24
 73
    20
 74
     0
 42
0.0000000001
 43
0.0000000001
 12
1.0
 22
0.0
 32
0.0
 13
1.0
 23
0.0
 33
0.0
 40
0.0
 40
0.0
 40
0.0
 40
0.0
 40
0.1666666666666667
 40
0.1666666666666667
 40
0.1666666666666667
 40
0.1666666666666667
 40
0.3333333333333333
 40
0.3333333333333333
 40
0.3333333333333333
 40
0.3333333333333333
 40
0.5
 40
0.5
 40
0.5
 40
0.5
 40
0.6666666666666666
 40
0.6666666666666666
 40
0.6666666666666666
 40
0.6666666666666666
 40
1.0
 40
1.0
 40
1.0
 40
1.0
 10
-1.09123
 20
-24.88307
 30
0.0
 10
-2.0904
 20
-24.70615
 30
0.0
 10
-3.0095
 20
-24.35743
 30
0.0
 10
-3.94125
 20
-24.04028
 30
0.0
 10
-3.94125
 20
-24.04028
 30
0.0
 10
-3.64531
 20
-24.43733
 30
0.0
 10
-3.29324
 20
-24.76496
 30
0.0
 10
-2.88659
 20
-25.02665
 30
0.0
 10
-2.88659
 20
-25.02665
 30
0.0
 10
-2.55198
 20
-25.24198
 30
0.0
 10
-2.17616
 20
-25.30806
 30
0.0
 10
-1.78176
 20
-25.23549
 30
0.0
 10
-1.78176
 20
-25.23549
 30
0.0
 10
-1.60064
 20
-25.20219
 30
0.0
 10
-1.42256
 20
-25.14917
 30
0.0
 10
-1.24046
 20
-25.12504
 30
0.0
 10
-1.24046
 20
-25.12504
 30
0.0
 10
-1.08386
 20
-25.10429
 30
0.0
 10
-1.06283
 20
-25.02079
 30
0.0
 10
-1.09123
 20
-24.88307
 30
0.0
  0
SPLINE
  5
66
330
1F
100
AcDbEntity
  8
Layer 1
370
    53
100
AcDbSpline
210
0.0
220
0.0
230
1.0
 70
    11
 71
     3
 72
    28
 73
    24
 74
     0
 42
0.0000000001
 43
0.0000000001
 12
1.0
 22
0.0
 32
0.0
 13
1.0
 23
0.0
 33
0.0
 40
0.0
 40
0.0
 40
0.0
 40
0.0
 40
0.1428571428571428
 40
0.1428571428571428
 40
0.1428571428571428
 40
0.1428571428571428
 40
0.2857142857142857
 40
0.2857142857142857
 40
0.2857142857142857
 40
0.2857142857142857
 40
0.4285714285714285
 40
0.4285714285714285
 40
0.4285714285714285
 40
0.4285714285714285
 40
0.5714285714285714
 40
0.5714285714285714
 40
0.5714285714285714
 40
0.5714285714285714
 40
0.7142857142857143
 40
0.7142857142857143
 40
0.7142857142857143
 40
0.7142857142857143
 40
1.0
 40
1.0
 40
1.0
 40
1.0
 10
2.22834
 20
-26.23735
 30
0.0
 10
2.10719
 20
-26.45903
 30
0.0
 10
2.2525
 20
-26.53488
 30
0.0
 10
2.3395
 20
-26.58762
 30
0.0
 10
2.3395
 20
-26.58762
 30
0.0
 10
2.79296
 20
-26.86219
 30
0.0
 10
3.2449
 20
-27.14459
 30
0.0
 10
3.72203
 20
-27.37266
 30
0.0
 10
3.72203
 20
-27.37266
 30
0.0
 10
4.0063
 20
-27.50851
 30
0.0
 10
4.31025
 20
-27.42028
 30
0.0
 10
4.60475
 20
-27.23391
 30
0.0
 10
4.60475
 20
-27.23391
 30
0.0
 10
4.39411
 20
-27.03381
 30
0.0
 10
4.22058
 20
-26.85891
 30
0.0
 10
4.03502
 20
-26.6979
 30
0.0
 10
4.03502
 20
-26.6979
 30
0.0
 10
3.96471
 20
-26.6369
 30
0.0
 10
3.86928
 20
-26.57661
 30
0.0
 10
3.78091
 20
-26.56931
 30
0.0
 10
3.78091
 20
-26.56931
 30
0.0
 10
3.25227
 20
-26.52574
 30
0.0
 10
2.72653
 20
-26.47544
 30
0.0
 10
2.22834
 20
-26.23735
 30
0.0
  0
SPLINE
  5
67
330
1F
100
AcDbEntity
  8
Layer 1
370
    53
100
AcDbSpline
210
0.0
220
0.0
230
1.0
 70
    11
 71
     3
 72
    20
 73
    16
 74
     0
 42
0.0000000001
 43
0.0000000001
 12
1.0
 22
0.0
 32
0.0
 13
1.0
 23
0.0
 33
0.0
 40
0.0
 40
0.0
 40
0.0
 40
0.0
 40
0.2
 40
0.2
 40
0.2
 40
0.2
 40
0.4
 40
0.4
 40
0.4
 40
0.4
 40
0.6
 40
0.6
 40
0.6
 40
0.6
 40
1.0
 40
1.0
 40
1.0
 40
1.0
 10
0.31021
 20
-25.42381
 30
0.0
 10
0.35159
 20
-25.33741
 30
0.0
 10
0.40119
 20
-25.27913
 30
0.0
 10
0.39908
 20
-25.22279
 30
0.0
 10
0.39908
 20
-25.22279
 30
0.0
 10
0.39763
 20
-25.18339
 30
0.0
 10
0.32549
 20
-25.14663
 30
0.0
 10
0.28488
 20
-25.1087
 30
0.0
 10
0.28488
 20
-25.1087
 30
0.0
 10
0.24206
 20
-25.17065
 30
0.0
 10
0.18868
 20
-25.22872
 30
0.0
 10
0.16363
 20
-25.29719
 30
0.0
 10
0.16363
 20
-25.29719
 30
0.0
 10
0.15721
 20
-25.31476
 30
0.0
 10
0.24026
 20
-25.36503
 30
0.0
 10
0.31021
 20
-25.42381
 30
0.0
  0
SPLINE
  5
68
330
1F
100
AcDbEntity
  8
Layer 1
370
    53
100
AcDbSpline
210
0.0
220
0.0
230
1.0
 70
    11
 71
     3
 72
    20
 73
    16
 74
     0
 42
0.0000000001
 43
0.0000000001
 12
1.0
 22
0.0
 32
0.0
 13
1.0
 23
0.0
 33
0.0
 40
0.0
 40
0.0
 40
0.0
 40
0.0
 40
0.2
 40
0.2
 40
0.2
 40
0.2
 40
0.4
 40
0.4
 40
0.4
 40
0.4
 40
0.6
 40
0.6
 40
0.6
 40
0.6
 40
1.0
 40
1.0
 40
1.0
 40
1.0
 10
1.12936
 20
-24.42396
 30
0.0
 10
1.07542
 20
-24.50704
 30
0.0
 10
1.01863
 20
-24.55897
 30
0.0
 10
1.01333
 20
-24.61573
 30
0.0
 10
1.01333
 20
-24.61573
 30
0.0
 10
1.01005
 20
-24.65094
 30
0.0
 10
1.09525
 20
-24.73201
 30
0.0
 10
1.12252
 20
-24.72467
 30
0.0
 10
1.12252
 20
-24.72467
 30
0.0
 10
1.18013
 20
-24.70922
 30
0.0
 10
1.26038
 20
-24.65359
 30
0.0
 10
1.26631
 20
-24.60624
 30
0.0
 10
1.26631
 20
-24.60624
 30
0.0
 10
1.27199
 20
-24.56123
 30
0.0
 10
1.19487
 20
-24.50581
 30
0.0
 10
1.12936
 20
-24.42396
 30
0.0
  0
SPLINE
  5
69
330
1F
100
AcDbEntity
  8
Layer 1
370
    53
100
AcDbSpline
210
0.0
220
0.0
230
1.0
 70
    11
 71
     3
 72
    20
 73
    16
 74
     0
 42
0.0000000001
 43
0.0000000001
 12
1.0
 22
0.0
 32
0.0
 13
1.0
 23
0.0
 33
0.0
 40
0.0
 40
0.0
 40
0.0
 40
0.0
 40
0.2
 40
0.2
 40
0.2
 40
0.2
 40
0.4
 40
0.4
 40
0.4
 40
0.4
 40
0.6
 40
0.6
 40
0.6
 40
0.6
 40
1.0
 40
1.0
 40
1.0
 40
1.0
 10
0.39114
 20
-25.72219
 30
0.0
 10
0.46011
 20
-25.77701
 30
0.0
 10
0.51578
 20
-25.84717
 30
0.0
 10
0.54308
 20
-25.83747
 30
0.0
 10
0.54308
 20
-25.83747
 30
0.0
 10
0.59674
 20
-25.81846
 30
0.0
 10
0.64994
 20
-25.76106
 30
0.0
 10
0.67153
 20
-25.70691
 30
0.0
 10
0.67153
 20
-25.70691
 30
0.0
 10
0.68021
 20
-25.68507
 30
0.0
 10
0.59769
 20
-25.59233
 30
0.0
 10
0.57003
 20
-25.59794
 30
0.0
 10
0.57003
 20
-25.59794
 30
0.0
 10
0.51398
 20
-25.60926
 30
0.0
 10
0.46702
 20
-25.66563
 30
0.0
 10
0.39114
 20
-25.72219
 30
0.0
  0
SPLINE
  5
6A
330
1F
100
AcDbEntity
  8
Layer 1
370
    53
100
AcDbSpline
210
0.0
220
0.0
230
1.0
 70
    11
 71
     3
 72
    20
 73
    16
 74
     0
 42
0.0000000001
 43
0.0000000001
 12
1.0
 22
0.0
 32
0.0
 13
1.0
 23
0.0
 33
0.0
 40
0.0
 40
0.0
 40
0.0
 40
0.0
 40
0.2
 40
0.2
 40
0.2
 40
0.2
 40
0.4
 40
0.4
 40
0.4
 40
0.4
 40
0.6
 40
0.6
 40
0.6
 40
0.6
 40
1.0
 40
1.0
 40
1.0
 40
1.0
 10
0.9849
 20
-25.40655
 30
0.0
 10
1.05182
 20
-25.44716
 30
0.0
 10
1.11825
 20
-25.50808
 30
0.0
 10
1.13815
 20
-25.49549
 30
0.0
 10
1.13815
 20
-25.49549
 30
0.0
 10
1.18934
 20
-25.46311
 30
0.0
 10
1.25107
 20
-25.39699
 30
0.0
 10
1.24924
 20
-25.34651
 30
0.0
 10
1.24924
 20
-25.34651
 30
0.0
 10
1.24765
 20
-25.30354
 30
0.0
 10
1.16337
 20
-25.26361
 30
0.0
 10
1.11571
 20
-25.22233
 30
0.0
 10
1.11571
 20
-25.22233
 30
0.0
 10
1.07712
 20
-25.2767
 30
0.0
 10
1.03849
 20
-25.3311
 30
0.0
 10
0.9849
 20
-25.40655
 30
0.0
  0
SPLINE
  5
6B
330
1F
100
AcDbEntity
  8
Layer 1
370
    53
100
AcDbSpline
210
0.0
220
0.0
230
1.0
 70
    11
 71
     3
 72
    20
 73
    16
 74
     0
 42
0.0000000001
 43
0.0000000001
 12
1.0
 22
0.0
 32
0.0
 13
1.0
 23
0.0
 33
0.0
 40
0.0
 40
0.0
 40
0.0
 40
0.0
 40
0.2
 40
0.2
 40
0.2
 40
0.2
 40
0.4
 40
0.4
 40
0.4
 40
0.4
 40
0.6
 40
0.6
 40
0.6
 40
0.6
 40
1.0
 40
1.0
 40
1.0
 40
1.0
 10
0.63512
 20
-24.00642
 30
0.0
 10
0.70917
 20
-24.05122
 30
0.0
 10
0.76237
 20
-24.1083
 30
0.0
 10
0.79927
 20
-24.0992
 30
0.0
 10
0.79927
 20
-24.0992
 30
0.0
 10
0.84195
 20
-24.08868
 30
0.0
 10
0.89872
 20
-24.01841
 30
0.0
 10
0.89649
 20
-23.97692
 30
0.0
 10
0.89649
 20
-23.97692
 30
0.0
 10
0.89448
 20
-23.93911
 30
0.0
 10
0.82121
 20
-23.8768
 30
0.0
 10
0.78022
 20
-23.87747
 30
0.0
 10
0.78022
 20
-23.87747
 30
0.0
 10
0.73993
 20
-23.87815
 30
0.0
 10
0.7007
 20
-23.94447
 30
0.0
 10
0.63512
 20
-24.00642
 30
0.0
  0
SPLINE
  5
6C
330
1F
100
AcDbEntity
  8
Layer 1
370
    53
100
AcDbSpline
210
0.0
220
0.0
230
1.0
 70
    11
 71
     3
 72
    20
 73
    16
 74
     0
 42
0.0000000001
 43
0.0000000001
 12
1.0
 22
0.0
 32
0.0
 13
1.0
 23
0.0
 33
0.0
 40
0.0
 40
0.0
 40
0.0
 40
0.0
 40
0.2
 40
0.2
 40
0.2
 40
0.2
 40
0.4
 40
0.4
 40
0.4
 40
0.4
 40
0.6
 40
0.6
 40
0.6
 40
0.6
 40
1.0
 40
1.0
 40
1.0
 40
1.0
 10
-0.04235
 20
-24.49949
 30
0.0
 10
0.02644
 20
-24.53816
 30
0.0
 10
0.08073
 20
-24.59241
 30
0.0
 10
0.11516
 20
-24.5819
 30
0.0
 10
0.11516
 20
-24.5819
 30
0.0
 10
0.15746
 20
-24.56895
 30
0.0
 10
0.2198
 20
-24.48048
 30
0.0
 10
0.20921
 20
-24.46238
 30
0.0
 10
0.20921
 20
-24.46238
 30
0.0
 10
0.18011
 20
-24.41282
 30
0.0
 10
0.11731
 20
-24.38304
 30
0.0
 10
0.06789
 20
-24.34543
 30
0.0
 10
0.06789
 20
-24.34543
 30
0.0
 10
0.03642
 20
-24.38939
 30
0.0
 10
0.00499
 20
-24.43331
 30
0.0
 10
-0.04235
 20
-24.49949
 30
0.0
  0
SPLINE
  5
6D
330
1F
100
AcDbEntity
  8
Layer 1
370
    53
100
AcDbSpline
210
0.0
220
0.0
230
1.0
 70
    11
 71
     3
 72
    20
 73
    16
 74
     0
 42
0.0000000001
 43
0.0000000001
 12
1.0
 22
0.0
 32
0.0
 13
1.0
 23
0.0
 33
0.0
 40
0.0
 40
0.0
 40
0.0
 40
0.0
 40
0.2
 40
0.2
 40
0.2
 40
0.2
 40
0.4
 40
0.4
 40
0.4
 40
0.4
 40
0.6
 40
0.6
 40
0.6
 40
0.6
 40
1.0
 40
1.0
 40
1.0
 40
1.0
 10
1.68185
 20
-25.19157
 30
0.0
 10
1.85337
 20
-25.26389
 30
0.0
 10
1.92558
 20
-25.31392
 30
0.0
 10
1.94453
 20
-25.2985
 30
0.0
 10
1.94453
 20
-25.2985
 30
0.0
 10
1.99187
 20
-25.25991
 30
0.0
 10
2.02792
 20
-25.19429
 30
0.0
 10
2.04034
 20
-25.13375
 30
0.0
 10
2.04034
 20
-25.13375
 30
0.0
 10
2.04422
 20
-25.11488
 30
0.0
 10
1.95179
 20
-25.04764
 30
0.0
 10
1.91419
 20
-25.05526
 30
0.0
 10
1.91419
 20
-25.05526
 30
0.0
 10
1.84924
 20
-25.06849
 30
0.0
 10
1.79269
 20
-25.12296
 30
0.0
 10
1.68185
 20
-25.19157
 30
0.0
  0
SPLINE
  5
6E
330
1F
100
AcDbEntity
  8
Layer 1
370
    53
100
AcDbSpline
210
0.0
220
0.0
230
1.0
 70
    11
 71
     3
 72
    20
 73
    16
 74
     0
 42
0.0000000001
 43
0.0000000001
 12
1.0
 22
0.0
 32
0.0
 13
1.0
 23
0.0
 33
0.0
 40
0.0
 40
0.0
 40
0.0
 40
0.0
 40
0.2
 40
0.2
 40
0.2
 40
0.2
 40
0.4
 40
0.4
 40
0.4
 40
0.4
 40
0.6
 40
0.6
 40
0.6
 40
0.6
 40
1.0
 40
1.0
 40
1.0
 40
1.0
 10
1.40996
 20
-26.18859
 30
0.0
 10
1.4457
 20
-26.10043
 30
0.0
 10
1.48592
 20
-26.04282
 30
0.0
 10
1.48429
 20
-25.98638
 30
0.0
 10
1.48429
 20
-25.98638
 30
0.0
 10
1.48355
 20
-25.96123
 30
0.0
 10
1.37497
 20
-25.90704
 30
0.0
 10
1.35662
 20
-25.92083
 30
0.0
 10
1.35662
 20
-25.92083
 30
0.0
 10
1.31016
 20
-25.95583
 30
0.0
 10
1.2715
 20
-26.01933
 30
0.0
 10
1.26222
 20
-26.07666
 30
0.0
 10
1.26222
 20
-26.07666
 30
0.0
 10
1.25844
 20
-26.09997
 30
0.0
 10
1.33898
 20
-26.13691
 30
0.0
 10
1.40996
 20
-26.18859
 30
0.0
  0
SPLINE
  5
6F
330
1F
100
AcDbEntity
  8
Layer 1
370
    53
100
AcDbSpline
210
0.0
220
0.0
230
1.0
 70
    11
 71
     3
 72
    20
 73
    16
 74
     0
 42
0.0000000001
 43
0.0000000001
 12
1.0
 22
0.0
 32
0.0
 13
1.0
 23
0.0
 33
0.0
 40
0.0
 40
0.0
 40
0.0
 40
0.0
 40
0.2
 40
0.2
 40
0.2
 40
0.2
 40
0.4
 40
0.4
 40
0.4
 40
0.4
 40
0.6
 40
0.6
 40
0.6
 40
0.6
 40
1.0
 40
1.0
 40
1.0
 40
1.0
 10
1.02861
 20
-26.83876
 30
0.0
 10
1.07616
 20
-26.77233
 30
0.0
 10
1.13434
 20
-26.72665
 30
0.0
 10
1.13215
 20
-26.68403
 30
0.0
 10
1.13215
 20
-26.68403
 30
0.0
 10
1.13003
 20
-26.64308
 30
0.0
 10
1.04501
 20
-26.5661
 30
0.0
 10
1.03189
 20
-26.57294
 30
0.0
 10
1.03189
 20
-26.57294
 30
0.0
 10
0.97566
 20
-26.6023
 30
0.0
 10
0.93248
 20
-26.65673
 30
0.0
 10
0.88454
 20
-26.70203
 30
0.0
 10
0.88454
 20
-26.70203
 30
0.0
 10
0.92507
 20
-26.74048
 30
0.0
 10
0.96557
 20
-26.7789
 30
0.0
 10
1.02861
 20
-26.83876
 30
0.0
  0
SPLINE
  5
70
330
1F
100
AcDbEntity
  8
Layer 1
370
    53
100
AcDbSpline
210
0.0
220
0.0
230
1.0
 70
    11
 71
     3
 72
    20
 73
    16
 74
     0
 42
0.0000000001
 43
0.0000000001
 12
1.0
 22
0.0
 32
0.0
 13
1.0
 23
0.0
 33
0.0
 40
0.0
 40
0.0
 40
0.0
 40
0.0
 40
0.2
 40
0.2
 40
0.2
 40
0.2
 40
0.4
 40
0.4
 40
0.4
 40
0.4
 40
0.6
 40
0.6
 40
0.6
 40
0.6
 40
1.0
 40
1.0
 40
1.0
 40
1.0
 10
-0.62006
 20
-24.98051
 30
0.0
 10
-0.66733
 20
-25.05653
 30
0.0
 10
-0.72519
 20
-25.10881
 30
0.0
 10
-0.71732
 20
-25.14783
 30
0.0
 10
-0.71732
 20
-25.14783
 30
0.0
 10
-0.70861
 20
-25.19111
 30
0.0
 10
-0.63982
 20
-25.22223
 30
0.0
 10
-0.5972
 20
-25.25867
 30
0.0
 10
-0.5972
 20
-25.25867
 30
0.0
 10
-0.56288
 20
-25.21546
 30
0.0
 10
-0.50238
 20
-25.17256
 30
0.0
 10
-0.50185
 20
-25.12895
 30
0.0
 10
-0.50185
 20
-25.12895
 30
0.0
 10
-0.50135
 20
-25.08803
 30
0.0
 10
-0.56429
 20
-25.04637
 30
0.0
 10
-0.62006
 20
-24.98051
 30
0.0
  0
SPLINE
  5
71
330
1F
100
AcDbEntity
  8
Layer 1
370
    53
100
AcDbSpline
210
0.0
220
0.0
230
1.0
 70
    11
 71
     3
 72
    20
 73
    16
 74
     0
 42
0.0000000001
 43
0.0000000001
 12
1.0
 22
0.0
 32
0.0
 13
1.0
 23
0.0
 33
0.0
 40
0.0
 40
0.0
 40
0.0
 40
0.0
 40
0.2
 40
0.2
 40
0.2
 40
0.2
 40
0.4
 40
0.4
 40
0.4
 40
0.4
 40
0.6
 40
0.6
 40
0.6
 40
0.6
 40
1.0
 40
1.0
 40
1.0
 40
1.0
 10
-0.23575
 20
-25.94327
 30
0.0
 10
-0.22195
 20
-25.85321
 30
0.0
 10
-0.19874
 20
-25.79694
 30
0.0
 10
-0.2119
 20
-25.75111
 30
0.0
 10
-0.2119
 20
-25.75111
 30
0.0
 10
-0.21945
 20
-25.72465
 30
0.0
 10
-0.2857
 20
-25.71506
 30
0.0
 10
-0.32556
 20
-25.69784
 30
0.0
 10
-0.32556
 20
-25.69784
 30
0.0
 10
-0.34391
 20
-25.74713
 30
0.0
 10
-0.3777
 20
-25.79747
 30
0.0
 10
-0.37446
 20
-25.8453
 30
0.0
 10
-0.37446
 20
-25.8453
 30
0.0
 10
-0.37269
 20
-25.87176
 30
0.0
 10
-0.30888
 20
-25.89399
 30
0.0
 10
-0.23575
 20
-25.94327
 30
0.0
  0
SPLINE
  5
72
330
1F
100
AcDbEntity
  8
Layer 1
370
    53
100
AcDbSpline
210
0.0
220
0.0
230
1.0
 70
    11
 71
     3
 72
    20
 73
    16
 74
     0
 42
0.0000000001
 43
0.0000000001
 12
1.0
 22
0.0
 32
0.0
 13
1.0
 23
0.0
 33
0.0
 40
0.0
 40
0.0
 40
0.0
 40
0.0
 40
0.2
 40
0.2
 40
0.2
 40
0.2
 40
0.4
 40
0.4
 40
0.4
 40
0.4
 40
0.6
 40
0.6
 40
0.6
 40
0.6
 40
1.0
 40
1.0
 40
1.0
 40
1.0
 10
0.25497
 20
-26.3973
 30
0.0
 10
0.22936
 20
-26.47441
 30
0.0
 10
0.1926
 20
-26.53033
 30
0.0
 10
0.20727
 20
-26.55291
 30
0.0
 10
0.20727
 20
-26.55291
 30
0.0
 10
0.23415
 20
-26.59429
 30
0.0
 10
0.29134
 20
-26.61602
 30
0.0
 10
0.3359
 20
-26.64593
 30
0.0
 10
0.3359
 20
-26.64593
 30
0.0
 10
0.36017
 20
-26.60702
 30
0.0
 10
0.41308
 20
-26.55509
 30
0.0
 10
0.40261
 20
-26.53195
 30
0.0
 10
0.40261
 20
-26.53195
 30
0.0
 10
0.38225
 20
-26.48708
 30
0.0
 10
0.32619
 20
-26.4584
 30
0.0
 10
0.25497
 20
-26.3973
 30
0.0
  0
ENDSEC
  0
SECTION
  2
OBJECTS
  0
DICTIONARY
  5
C
330
0
100
AcDbDictionary
281
     1
  3
ACAD_GROUP
350
D
  3
ACAD_LAYOUT
350
1A
  3
ACAD_MATERIAL
350
3B
  3
ACAD_MLEADERSTYLE
350
94
  3
ACAD_MLINESTYLE
350
17
  3
ACAD_PLOTSETTINGS
350
19
  3
ACAD_PLOTSTYLENAME
350
E
  3
ACAD_TABLESTYLE
350
93
  3
ACAD_VISUALSTYLE
350
2A
  0
DICTIONARY
  5
D
102
{ACAD_REACTORS
330
C
102
}
330
C
100
AcDbDictionary
281
     1
  0
DICTIONARY
  5
1A
102
{ACAD_REACTORS
330
C
102
}
330
C
100
AcDbDictionary
281
     1
  3
Layout1
350
1E
  3
Layout2
350
26
  3
Model
350
22
  0
DICTIONARY
  5
3B
102
{ACAD_REACTORS
330
C
102
}
330
C
100
AcDbDictionary
281
     1
  3
ByBlock
350
3D
  3
ByLayer
350
3C
  3
Global
350
3E
  0
DICTIONARY
  5
94
102
{ACAD_REACTORS
330
C
102
}
330
C
100
AcDbDictionary
281
     1
  0
DICTIONARY
  5
17
102
{ACAD_REACTORS
330
C
102
}
330
C
100
AcDbDictionary
281
     1
  3
Standard
350
18
  0
DICTIONARY
  5
19
102
{ACAD_REACTORS
330
C
102
}
330
C
100
AcDbDictionary
281
     1
  0
ACDBDICTIONARYWDFLT
  5
E
102
{ACAD_REACTORS
330
C
102
}
330
C
100
AcDbDictionary
281
     1
  3
Normal
350
F
100
AcDbDictionaryWithDefault
340
F
  0
DICTIONARY
  5
93
102
{ACAD_REACTORS
330
C
102
}
330
C
100
AcDbDictionary
281
     1
  0
DICTIONARY
  5
2A
102
{ACAD_REACTORS
330
C
102
}
330
C
100
AcDbDictionary
281
     1
  3
2dWireframe
350
2F
  3
3D Hidden
350
31
  3
3dWireframe
350
30
  3
Basic
350
32
  3
Brighten
350
36
  3
ColorChange
350
3A
  3
Conceptual
350
34
  3
Dim
350
35
  3
Facepattern
350
39
  3
Flat
350
2B
  3
FlatWithEdges
350
2C
  3
Gouraud
350
2D
  3
GouraudWithEdges
350
2E
  3
Linepattern
350
38
  3
Realistic
350
33
  3
Thicken
350
37
  0
LAYOUT
  5
1E
102
{ACAD_REACTORS
330
1A
102
}
330
1A
100
AcDbPlotSettings
  1

  2
none_device
  4

  6

 40
0.0
 41
0.0
 42
0.0
 43
0.0
 44
0.0
 45
0.0
 46
0.0
 47
0.0
 48
0.0
 49
0.0
140
0.0
141
0.0
142
1.0
143
1.0
 70
   688
 72
     0
 73
     0
 74
     5
  7

 75
    16
 76
     0
 77
     2
 78
   300
147
1.0
148
0.0
149
0.0
100
AcDbLayout
  1
Layout1
 70
     1
 71
     1
 10
0.0
 20
0.0
 11
12.0
 21
9.0
 12
0.0
 22
0.0
 32
0.0
 14
1.000000000000000E+20
 24
1.000000000000000E+20
 34
1.000000000000000E+20
 15
-1.000000000000000E+20
 25
-1.000000000000000E+20
 35
-1.000000000000000E+20
146
0.0
 13
0.0
 23
0.0
 33
0.0
 16
1.0
 26
0.0
 36
0.0
 17
0.0
 27
1.0
 37
0.0
 76
     0
330
1B
  0
LAYOUT
  5
26
102
{ACAD_REACTORS
330
1A
102
}
330
1A
100
AcDbPlotSettings
  1

  2
none_device
  4

  6

 40
0.0
 41
0.0
 42
0.0
 43
0.0
 44
0.0
 45
0.0
 46
0.0
 47
0.0
 48
0.0
 49
0.0
140
0.0
141
0.0
142
1.0
143
1.0
 70
   688
 72
     0
 73
     0
 74
     5
  7

 75
    16
 76
     0
 77
     2
 78
   300
147
1.0
148
0.0
149
0.0
100
AcDbLayout
  1
Layout2
 70
     1
 71
     2
 10
0.0
 20
0.0
 11
0.0
 21
0.0
 12
0.0
 22
0.0
 32
0.0
 14
0.0
 24
0.0
 34
0.0
 15
0.0
 25
0.0
 35
0.0
146
0.0
 13
0.0
 23
0.0
 33
0.0
 16
1.0
 26
0.0
 36
0.0
 17
0.0
 27
1.0
 37
0.0
 76
     0
330
23
  0
LAYOUT
  5
22
102
{ACAD_REACTORS
330
1A
102
}
330
1A
100
AcDbPlotSettings
  1

  2
none_device
  4

  6

 40
0.0
 41
0.0
 42
0.0
 43
0.0
 44
0.0
 45
0.0
 46
0.0
 47
0.0
 48
0.0
 49
0.0
140
0.0
141
0.0
142
1.0
143
1.0
 70
  1712
 72
     0
 73
     0
 74
     0
  7

 75
     0
 76
     0
 77
     2
 78
   300
147
1.0
148
0.0
149
0.0
100
AcDbLayout
  1
Model
 70
     1
 71
     0
 10
0.0
 20
0.0
 11
12.0
 21
9.0
 12
0.0
 22
0.0
 32
0.0
 14
-8.09826
 24
-29.68017
 34
0.0
 15
8.09826
 25
29.68017
 35
0.0
146
0.0
 13
0.0
 23
0.0
 33
0.0
 16
1.0
 26
0.0
 36
0.0
 17
0.0
 27
1.0
 37
0.0
 76
     0
330
1F
331
29
  0
MATERIAL
  5
3D
102
{ACAD_REACTORS
330
3B
102
}
330
3B
100
AcDbMaterial
  1
ByBlock
 72
     1
 94
      127
  0
MATERIAL
  5
3C
102
{ACAD_REACTORS
330
3B
102
}
330
3B
100
AcDbMaterial
  1
ByLayer
 72
     1
 94
      127
  0
MATERIAL
  5
3E
102
{ACAD_REACTORS
330
3B
102
}
330
3B
100
AcDbMaterial
  1
Global
 72
     1
 94
      127
  0
MLINESTYLE
  5
18
102
{ACAD_REACTORS
330
17
102
}
330
17
100
AcDbMlineStyle
  2
Standard
 70
     0
  3

 62
   256
 51
90.0
 52
90.0
 71
     2
 49
0.5
 62
   256
  6
BYLAYER
 49
-0.5
 62
   256
  6
BYLAYER
  0
ACDBPLACEHOLDER
  5
F
102
{ACAD_REACTORS
330
E
102
}
330
E
  0
VISUALSTYLE
  5
2F
102
{ACAD_REACTORS
330
2A
102
}
102
{ACAD_XDICTIONARY
360
7B
102
}
330
2A
100
AcDbVisualStyle
  2
2dWireframe
 70
     4
 71
     0
 72
     2
 73
     0
 90
        0
 40
-0.6
 41
-30.0
 62
     5
 63
     7
421
 16777215
 74
     1
 91
        4
 64
     7
 65
   257
 75
     1
175
     1
 42
1.0
 92
        0
 66
   257
 43
1.0
 76
     1
 77
     6
 78
     2
 67
     7
 79
     5
170
     0
171
     0
290
     0
174
     0
 93
        1
 44
0.0
173
     0
291
     0
 45
0.0
  0
VISUALSTYLE
  5
31
102
{ACAD_REACTORS
330
2A
102
}
102
{ACAD_XDICTIONARY
360
7F
102
}
330
2A
100
AcDbVisualStyle
  2
3D Hidden
 70
     6
 71
     1
 72
     2
 73
     2
 90
        0
 40
-0.6
 41
-30.0
 62
     5
 63
     7
421
 16777215
 74
     2
 91
        2
 64
     7
 65
   257
 75
     2
175
     1
 42
40.0
 92
        0
 66
   257
 43
1.0
 76
     1
 77
     6
 78
     2
 67
     7
 79
     3
170
     0
171
     0
290
     0
174
     0
 93
        1
 44
0.0
173
     0
291
     0
 45
0.0
  0
VISUALSTYLE
  5
30
102
{ACAD_REACTORS
330
2A
102
}
102
{ACAD_XDICTIONARY
360
7D
102
}
330
2A
100
AcDbVisualStyle
  2
3dWireframe
 70
     5
 71
     0
 72
     2
 73
     0
 90
        0
 40
-0.6
 41
-30.0
 62
     5
 63
     7
421
 16777215
 74
     1
 91
        4
 64
     7
 65
   257
 75
     1
175
     1
 42
1.0
 92
        0
 66
   257
 43
1.0
 76
     1
 77
     6
 78
     2
 67
     7
 79
     5
170
     0
171
     0
290
     0
174
     0
 93
        1
 44
0.0
173
     0
291
     0
 45
0.0
  0
VISUALSTYLE
  5
32
102
{ACAD_REACTORS
330
2A
102
}
102
{ACAD_XDICTIONARY
360
81
102
}
330
2A
100
AcDbVisualStyle
  2
Basic
 70
     7
 71
     1
 72
     0
 73
     1
 90
        0
 40
-0.6
 41
-30.0
 62
     5
 63
     7
421
 16777215
 74
     0
 91
        4
 64
     7
 65
   257
 75
     1
175
     1
 42
1.0
 92
        8
 66
     7
 43
1.0
 76
     1
 77
     6
 78
     2
 67
     7
 79
     5
170
     0
171
     0
290
     0
174
     0
 93
        1
 44
0.0
173
     0
291
     1
 45
0.0
  0
VISUALSTYLE
  5
36
102
{ACAD_REACTORS
330
2A
102
}
102
{ACAD_XDICTIONARY
360
89
102
}
330
2A
100
AcDbVisualStyle
  2
Brighten
 70
    12
 71
     2
 72
     2
 73
     0
 90
        0
 40
-0.6
 41
-30.0
 62
     5
 63
     7
421
 16777215
 74
     1
 91
        4
 64
     7
 65
   257
 75
     1
175
     1
 42
1.0
 92
        8
 66
     7
 43
1.0
 76
     1
 77
     6
 78
     2
 67
     7
 79
     5
170
     0
171
     0
290
     0
174
     0
 93
        1
 44
50.0
173
     0
291
     1
 45
0.0
  0
VISUALSTYLE
  5
3A
102
{ACAD_REACTORS
330
2A
102
}
102
{ACAD_XDICTIONARY
360
91
102
}
330
2A
100
AcDbVisualStyle
  2
ColorChange
 70
    16
 71
     2
 72
     2
 73
     3
 90
        0
 40
-0.6
 41
-30.0
 62
     5
 63
     8
421
  8421504
 74
     1
 91
        4
 64
     7
 65
   257
 75
     1
175
     1
 42
1.0
 92
        8
 66
     8
424
  8421504
 43
1.0
 76
     1
 77
     6
 78
     2
 67
     7
 79
     5
170
     0
171
     0
290
     0
174
     0
 93
        1
 44
0.0
173
     0
291
     1
 45
0.0
  0
VISUALSTYLE
  5
34
102
{ACAD_REACTORS
330
2A
102
}
102
{ACAD_XDICTIONARY
360
85
102
}
330
2A
100
AcDbVisualStyle
  2
Conceptual
 70
     9
 71
     3
 72
     2
 73
     0
 90
        0
 40
-0.6
 41
-30.0
 62
     5
 63
     7
421
 16777215
 74
     2
 91
        2
 64
     7
 65
   257
 75
     1
175
     1
 42
40.0
 92
        8
 66
     7
 43
1.0
 76
     1
 77
     6
 78
     2
 67
     7
 79
     3
170
     0
171
     0
290
     0
174
     0
 93
        1
 44
0.0
173
     0
291
     0
 45
0.0
  0
VISUALSTYLE
  5
35
102
{ACAD_REACTORS
330
2A
102
}
102
{ACAD_XDICTIONARY
360
87
102
}
330
2A
100
AcDbVisualStyle
  2
Dim
 70
    11
 71
     2
 72
     2
 73
     0
 90
        0
 40
-0.6
 41
-30.0
 62
     5
 63
     7
421
 16777215
 74
     1
 91
        4
 64
     7
 65
   257
 75
     1
175
     1
 42
1.0
 92
        8
 66
     7
 43
1.0
 76
     1
 77
     6
 78
     2
 67
     7
 79
     5
170
     0
171
     0
290
     0
174
     0
 93
        1
 44
-50.0
173
     0
291
     1
 45
0.0
  0
VISUALSTYLE
  5
39
102
{ACAD_REACTORS
330
2A
102
}
102
{ACAD_XDICTIONARY
360
8F
102
}
330
2A
100
AcDbVisualStyle
  2
Facepattern
 70
    15
 71
     2
 72
     2
 73
     0
 90
        0
 40
-0.6
 41
-30.0
 62
     5
 63
     7
421
 16777215
 74
     1
 91
        4
 64
     7
 65
   257
 75
     1
175
     1
 42
1.0
 92
        8
 66
     7
 43
1.0
 76
     1
 77
     6
 78
     2
 67
     7
 79
     5
170
     0
171
     0
290
     0
174
     0
 93
        1
 44
0.0
173
     0
291
     1
 45
0.0
  0
VISUALSTYLE
  5
2B
102
{ACAD_REACTORS
330
2A
102
}
102
{ACAD_XDICTIONARY
360
73
102
}
330
2A
100
AcDbVisualStyle
  2
Flat
 70
     0
 71
     2
 72
     1
 73
     1
 90
        2
 40
-0.6
 41
30.0
 62
     5
 63
     7
421
 16777215
 74
     0
 91
        4
 64
     7
 65
   257
 75
     1
175
     1
 42
1.0
 92
        8
 66
     7
 43
1.0
 76
     1
 77
     6
 78
     2
 67
     7
 79
     5
170
     0
171
     0
290
     0
174
     0
 93
       13
 44
0.0
173
     0
291
     1
 45
0.0
  0
VISUALSTYLE
  5
2C
102
{ACAD_REACTORS
330
2A
102
}
102
{ACAD_XDICTIONARY
360
75
102
}
330
2A
100
AcDbVisualStyle
  2
FlatWithEdges
 70
     1
 71
     2
 72
     1
 73
     1
 90
        2
 40
-0.6
 41
30.0
 62
     5
 63
     7
421
 16777215
 74
     1
 91
        4
 64
     7
 65
   257
 75
     1
175
     1
 42
1.0
 92
        0
 66
   257
 43
1.0
 76
     1
 77
     6
 78
     2
 67
     7
 79
     5
170
     0
171
     0
290
     0
174
     0
 93
       13
 44
0.0
173
     0
291
     1
 45
0.0
  0
VISUALSTYLE
  5
2D
102
{ACAD_REACTORS
330
2A
102
}
102
{ACAD_XDICTIONARY
360
77
102
}
330
2A
100
AcDbVisualStyle
  2
Gouraud
 70
     2
 71
     2
 72
     2
 73
     1
 90
        2
 40
-0.6
 41
30.0
 62
     5
 63
     7
421
 16777215
 74
     0
 91
        4
 64
     7
 65
   257
 75
     1
175
     1
 42
1.0
 92
        0
 66
     7
 43
1.0
 76
     1
 77
     6
 78
     2
 67
     7
 79
     5
170
     0
171
     0
290
     0
174
     0
 93
       13
 44
0.0
173
     0
291
     1
 45
0.0
  0
VISUALSTYLE
  5
2E
102
{ACAD_REACTORS
330
2A
102
}
102
{ACAD_XDICTIONARY
360
79
102
}
330
2A
100
AcDbVisualStyle
  2
GouraudWithEdges
 70
     3
 71
     2
 72
     2
 73
     1
 90
        2
 40
-0.6
 41
30.0
 62
     5
 63
     7
421
 16777215
 74
     1
 91
        4
 64
     7
 65
   257
 75
     1
175
     1
 42
1.0
 92
        0
 66
   257
 43
1.0
 76
     1
 77
     6
 78
     2
 67
     7
 79
     5
170
     0
171
     0
290
     0
174
     0
 93
       13
 44
0.0
173
     0
291
     1
 45
0.0
  0
VISUALSTYLE
  5
38
102
{ACAD_REACTORS
330
2A
102
}
102
{ACAD_XDICTIONARY
360
8D
102
}
330
2A
100
AcDbVisualStyle
  2
Linepattern
 70
    14
 71
     2
 72
     2
 73
     0
 90
        0
 40
-0.6
 41
-30.0
 62
     5
 63
     7
421
 16777215
 74
     1
 91
        4
 64
     7
 65
   257
 75
     7
175
     7
 42
1.0
 92
        8
 66
     7
 43
1.0
 76
     1
 77
     6
 78
     2
 67
     7
 79
     5
170
     0
171
     0
290
     0
174
     0
 93
        1
 44
0.0
173
     0
291
     1
 45
0.0
  0
VISUALSTYLE
  5
33
102
{ACAD_REACTORS
330
2A
102
}
102
{ACAD_XDICTIONARY
360
83
102
}
330
2A
100
AcDbVisualStyle
  2
Realistic
 70
     8
 71
     2
 72
     2
 73
     0
 90
        0
 40
-0.6
 41
-30.0
 62
     5
 63
     7
421
 16777215
 74
     1
 91
        0
 64
     7
 65
   257
 75
     1
175
     1
 42
1.0
 92
        8
 66
     8
424
  7895160
 43
1.0
 76
     1
 77
     6
 78
     2
 67
     7
 79
     5
170
     0
171
     0
290
     0
174
     0
 93
       13
 44
0.0
173
     0
291
     0
 45
0.0
  0
VISUALSTYLE
  5
37
102
{ACAD_REACTORS
330
2A
102
}
102
{ACAD_XDICTIONARY
360
8B
102
}
330
2A
100
AcDbVisualStyle
  2
Thicken
 70
    13
 71
     2
 72
     2
 73
     0
 90
        0
 40
-0.6
 41
-30.0
 62
     5
 63
     7
421
 16777215
 74
     1
 91
        4
 64
     7
 65
   257
 75
     1
175
     1
 42
1.0
 92
       12
 66
     7
 43
1.0
 76
     1
 77
     6
 78
     2
 67
     7
 79
     5
170
     0
171
     0
290
     0
174
     0
 93
        1
 44
0.0
173
     0
291
     1
 45
0.0
  0
DICTIONARY
  5
7B
330
2F
100
AcDbDictionary
280
     1
281
     1
  3
ACAD_XREC_ROUNDTRIP
360
7C
  0
DICTIONARY
  5
7F
330
31
100
AcDbDictionary
280
     1
281
     1
  3
ACAD_XREC_ROUNDTRIP
360
80
  0
DICTIONARY
  5
7D
330
30
100
AcDbDictionary
280
     1
281
     1
  3
ACAD_XREC_ROUNDTRIP
360
7E
  0
DICTIONARY
  5
81
330
32
100
AcDbDictionary
280
     1
281
     1
  3
ACAD_XREC_ROUNDTRIP
360
82
  0
DICTIONARY
  5
89
330
36
100
AcDbDictionary
280
     1
281
     1
  3
ACAD_XREC_ROUNDTRIP
360
8A
  0
DICTIONARY
  5
91
330
3A
100
AcDbDictionary
280
     1
281
     1
  3
ACAD_XREC_ROUNDTRIP
360
92
  0
DICTIONARY
  5
85
330
34
100
AcDbDictionary
280
     1
281
     1
  3
ACAD_XREC_ROUNDTRIP
360
86
  0
DICTIONARY
  5
87
330
35
100
AcDbDictionary
280
     1
281
     1
  3
ACAD_XREC_ROUNDTRIP
360
88
  0
DICTIONARY
  5
8F
330
39
100
AcDbDictionary
280
     1
281
     1
  3
ACAD_XREC_ROUNDTRIP
360
90
  0
DICTIONARY
  5
73
330
2B
100
AcDbDictionary
280
     1
281
     1
  3
ACAD_XREC_ROUNDTRIP
360
74
  0
DICTIONARY
  5
75
330
2C
100
AcDbDictionary
280
     1
281
     1
  3
ACAD_XREC_ROUNDTRIP
360
76
  0
DICTIONARY
  5
77
330
2D
100
AcDbDictionary
280
     1
281
     1
  3
ACAD_XREC_ROUNDTRIP
360
78
  0
DICTIONARY
  5
79
330
2E
100
AcDbDictionary
280
     1
281
     1
  3
ACAD_XREC_ROUNDTRIP
360
7A
  0
DICTIONARY
  5
8D
330
38
100
AcDbDictionary
280
     1
281
     1
  3
ACAD_XREC_ROUNDTRIP
360
8E
  0
DICTIONARY
  5
83
330
33
100
AcDbDictionary
280
     1
281
     1
  3
ACAD_XREC_ROUNDTRIP
360
84
  0
DICTIONARY
  5
8B
330
37
100
AcDbDictionary
280
     1
281
     1
  3
ACAD_XREC_ROUNDTRIP
360
8C
  0
XRECORD
  5
7C
102
{ACAD_REACTORS
330
7B
102
}
330
7B
100
AcDbXrecord
280
     1
102
RTVSPropertyOp0
 70
     1
102
RTVSPropertyOp1
 70
     1
102
RTVSPropertyOp2
 70
     1
102
RTVSPropertyOp3
 70
     1
102
RTVSPropertyOp4
 70
     1
102
RTVSPropertyOp5
 70
     1
102
RTVSPropertyOp6
 70
     1
102
RTVSPropertyOp7
 70
     1
102
RTVSPropertyOp8
 70
     1
102
RTVSPropertyOp9
 70
     1
102
RTVSPropertyOp10
 70
     1
102
RTVSPropertyOp11
 70
     1
102
RTVSPropertyOp12
 70
     1
102
RTVSPropertyOp13
 70
     1
102
RTVSPropertyOp14
 70
     1
102
RTVSPropertyOp15
 70
     1
102
RTVSPropertyOp16
 70
     1
102
RTVSPropertyOp17
 70
     1
102
RTVSPropertyOp18
 70
     1
102
RTVSPropertyOp19
 70
     1
102
RTVSPropertyOp20
 70
     1
102
RTVSPropertyOp21
 70
     1
102
RTVSPropertyOp22
 70
     1
102
RTVSPropertyOp23
 70
     1
102
RTVSPropertyOp24
 70
     1
102
RTVSPropertyOp25
 70
     1
102
RTVSPropertyOp26
 70
     1
102
RTVSPropertyOp27
 70
     1
102
RTVSPropertyOp28
 70
     1
102
RTVSPropertyOp29
 70
     1
102
RTVSPropertyOp30
 70
     1
102
RTVSPropertyOp31
 70
     1
102
RTVSPropertyOp32
 70
     1
  0
XRECORD
  5
80
102
{ACAD_REACTORS
330
7F
102
}
330
7F
100
AcDbXrecord
280
     1
102
RTVSPropertyOp0
 70
     1
102
RTVSPropertyOp1
 70
     1
102
RTVSPropertyOp2
 70
     1
102
RTVSPropertyOp3
 70
     1
102
RTVSPropertyOp4
 70
     1
102
RTVSPropertyOp5
 70
     1
102
RTVSPropertyOp6
 70
     1
102
RTVSPropertyOp7
 70
     1
102
RTVSPropertyOp8
 70
     1
102
RTVSPropertyOp9
 70
     1
102
RTVSPropertyOp10
 70
     1
102
RTVSPropertyOp11
 70
     1
102
RTVSPropertyOp12
 70
     1
102
RTVSPropertyOp13
 70
     1
102
RTVSPropertyOp14
 70
     1
102
RTVSPropertyOp15
 70
     1
102
RTVSPropertyOp16
 70
     1
102
RTVSPropertyOp17
 70
     1
102
RTVSPropertyOp18
 70
     1
102
RTVSPropertyOp19
 70
     1
102
RTVSPropertyOp20
 70
     1
102
RTVSPropertyOp21
 70
     1
102
RTVSPropertyOp22
 70
     1
102
RTVSPropertyOp23
 70
     1
102
RTVSPropertyOp24
 70
     1
102
RTVSPropertyOp25
 70
     1
102
RTVSPropertyOp26
 70
     1
102
RTVSPropertyOp27
 70
     1
102
RTVSPropertyOp28
 70
     1
102
RTVSPropertyOp29
 70
     1
102
RTVSPropertyOp30
 70
     1
102
RTVSPropertyOp31
 70
     1
102
RTVSPropertyOp32
 70
     1
  0
XRECORD
  5
7E
102
{ACAD_REACTORS
330
7D
102
}
330
7D
100
AcDbXrecord
280
     1
102
RTVSPropertyOp0
 70
     1
102
RTVSPropertyOp1
 70
     1
102
RTVSPropertyOp2
 70
     1
102
RTVSPropertyOp3
 70
     1
102
RTVSPropertyOp4
 70
     1
102
RTVSPropertyOp5
 70
     1
102
RTVSPropertyOp6
 70
     1
102
RTVSPropertyOp7
 70
     1
102
RTVSPropertyOp8
 70
     1
102
RTVSPropertyOp9
 70
     1
102
RTVSPropertyOp10
 70
     1
102
RTVSPropertyOp11
 70
     1
102
RTVSPropertyOp12
 70
     1
102
RTVSPropertyOp13
 70
     1
102
RTVSPropertyOp14
 70
     1
102
RTVSPropertyOp15
 70
     1
102
RTVSPropertyOp16
 70
     1
102
RTVSPropertyOp17
 70
     1
102
RTVSPropertyOp18
 70
     1
102
RTVSPropertyOp19
 70
     1
102
RTVSPropertyOp20
 70
     1
102
RTVSPropertyOp21
 70
     1
102
RTVSPropertyOp22
 70
     1
102
RTVSPropertyOp23
 70
     1
102
RTVSPropertyOp24
 70
     1
102
RTVSPropertyOp25
 70
     1
102
RTVSPropertyOp26
 70
     1
102
RTVSPropertyOp27
 70
     1
102
RTVSPropertyOp28
 70
     1
102
RTVSPropertyOp29
 70
     1
102
RTVSPropertyOp30
 70
     1
102
RTVSPropertyOp31
 70
     1
102
RTVSPropertyOp32
 70
     1
  0
XRECORD
  5
82
102
{ACAD_REACTORS
330
81
102
}
330
81
100
AcDbXrecord
280
     1
102
RTVSPropertyOp0
 70
     1
102
RTVSPropertyOp1
 70
     1
102
RTVSPropertyOp2
 70
     1
102
RTVSPropertyOp3
 70
     1
102
RTVSPropertyOp4
 70
     1
102
RTVSPropertyOp5
 70
     1
102
RTVSPropertyOp6
 70
     1
102
RTVSPropertyOp7
 70
     1
102
RTVSPropertyOp8
 70
     1
102
RTVSPropertyOp9
 70
     1
102
RTVSPropertyOp10
 70
     1
102
RTVSPropertyOp11
 70
     1
102
RTVSPropertyOp12
 70
     1
102
RTVSPropertyOp13
 70
     1
102
RTVSPropertyOp14
 70
     1
102
RTVSPropertyOp15
 70
     1
102
RTVSPropertyOp16
 70
     1
102
RTVSPropertyOp17
 70
     1
102
RTVSPropertyOp18
 70
     1
102
RTVSPropertyOp19
 70
     1
102
RTVSPropertyOp20
 70
     1
102
RTVSPropertyOp21
 70
     1
102
RTVSPropertyOp22
 70
     1
102
RTVSPropertyOp23
 70
     1
102
RTVSPropertyOp24
 70
     1
102
RTVSPropertyOp25
 70
     1
102
RTVSPropertyOp26
 70
     1
102
RTVSPropertyOp27
 70
     1
102
RTVSPropertyOp28
 70
     1
102
RTVSPropertyOp29
 70
     1
102
RTVSPropertyOp30
 70
     1
102
RTVSPropertyOp31
 70
     1
102
RTVSPropertyOp32
 70
     1
  0
XRECORD
  5
8A
102
{ACAD_REACTORS
330
89
102
}
330
89
100
AcDbXrecord
280
     1
102
RTVSPropertyOp0
 70
     1
102
RTVSPropertyOp1
 70
     1
102
RTVSPropertyOp2
 70
     1
102
RTVSPropertyOp3
 70
     1
102
RTVSPropertyOp4
 70
     1
102
RTVSPropertyOp5
 70
     1
102
RTVSPropertyOp6
 70
     1
102
RTVSPropertyOp7
 70
     1
102
RTVSPropertyOp8
 70
     1
102
RTVSPropertyOp9
 70
     1
102
RTVSPropertyOp10
 70
     1
102
RTVSPropertyOp11
 70
     1
102
RTVSPropertyOp12
 70
     1
102
RTVSPropertyOp13
 70
     1
102
RTVSPropertyOp14
 70
     1
102
RTVSPropertyOp15
 70
     1
102
RTVSPropertyOp16
 70
     1
102
RTVSPropertyOp17
 70
     1
102
RTVSPropertyOp18
 70
     1
102
RTVSPropertyOp19
 70
     1
102
RTVSPropertyOp20
 70
     1
102
RTVSPropertyOp21
 70
     1
102
RTVSPropertyOp22
 70
     1
102
RTVSPropertyOp23
 70
     1
102
RTVSPropertyOp24
 70
     1
102
RTVSPropertyOp25
 70
     1
102
RTVSPropertyOp26
 70
     1
102
RTVSPropertyOp27
 70
     1
102
RTVSPropertyOp28
 70
     1
102
RTVSPropertyOp29
 70
     1
102
RTVSPropertyOp30
 70
     1
102
RTVSPropertyOp31
 70
     1
102
RTVSPropertyOp32
 70
     1
  0
XRECORD
  5
92
102
{ACAD_REACTORS
330
91
102
}
330
91
100
AcDbXrecord
280
     1
102
RTVSPropertyOp0
 70
     1
102
RTVSPropertyOp1
 70
     1
102
RTVSPropertyOp2
 70
     1
102
RTVSPropertyOp3
 70
     1
102
RTVSPropertyOp4
 70
     1
102
RTVSPropertyOp5
 70
     1
102
RTVSPropertyOp6
 70
     1
102
RTVSPropertyOp7
 70
     1
102
RTVSPropertyOp8
 70
     1
102
RTVSPropertyOp9
 70
     1
102
RTVSPropertyOp10
 70
     1
102
RTVSPropertyOp11
 70
     1
102
RTVSPropertyOp12
 70
     1
102
RTVSPropertyOp13
 70
     1
102
RTVSPropertyOp14
 70
     1
102
RTVSPropertyOp15
 70
     1
102
RTVSPropertyOp16
 70
     1
102
RTVSPropertyOp17
 70
     1
102
RTVSPropertyOp18
 70
     1
102
RTVSPropertyOp19
 70
     1
102
RTVSPropertyOp20
 70
     1
102
RTVSPropertyOp21
 70
     1
102
RTVSPropertyOp22
 70
     1
102
RTVSPropertyOp23
 70
     1
102
RTVSPropertyOp24
 70
     1
102
RTVSPropertyOp25
 70
     1
102
RTVSPropertyOp26
 70
     1
102
RTVSPropertyOp27
 70
     1
102
RTVSPropertyOp28
 70
     1
102
RTVSPropertyOp29
 70
     1
102
RTVSPropertyOp30
 70
     1
102
RTVSPropertyOp31
 70
     1
102
RTVSPropertyOp32
 70
     1
  0
XRECORD
  5
86
102
{ACAD_REACTORS
330
85
102
}
330
85
100
AcDbXrecord
280
     1
102
RTVSPropertyOp0
 70
     1
102
RTVSPropertyOp1
 70
     1
102
RTVSPropertyOp2
 70
     1
102
RTVSPropertyOp3
 70
     1
102
RTVSPropertyOp4
 70
     1
102
RTVSPropertyOp5
 70
     1
102
RTVSPropertyOp6
 70
     1
102
RTVSPropertyOp7
 70
     1
102
RTVSPropertyOp8
 70
     1
102
RTVSPropertyOp9
 70
     1
102
RTVSPropertyOp10
 70
     1
102
RTVSPropertyOp11
 70
     1
102
RTVSPropertyOp12
 70
     1
102
RTVSPropertyOp13
 70
     1
102
RTVSPropertyOp14
 70
     1
102
RTVSPropertyOp15
 70
     1
102
RTVSPropertyOp16
 70
     1
102
RTVSPropertyOp17
 70
     1
102
RTVSPropertyOp18
 70
     1
102
RTVSPropertyOp19
 70
     1
102
RTVSPropertyOp20
 70
     1
102
RTVSPropertyOp21
 70
     1
102
RTVSPropertyOp22
 70
     1
102
RTVSPropertyOp23
 70
     1
102
RTVSPropertyOp24
 70
     1
102
RTVSPropertyOp25
 70
     1
102
RTVSPropertyOp26
 70
     1
102
RTVSPropertyOp27
 70
     1
102
RTVSPropertyOp28
 70
     1
102
RTVSPropertyOp29
 70
     1
102
RTVSPropertyOp30
 70
     1
102
RTVSPropertyOp31
 70
     1
102
RTVSPropertyOp32
 70
     1
  0
XRECORD
  5
88
102
{ACAD_REACTORS
330
87
102
}
330
87
100
AcDbXrecord
280
     1
102
RTVSPropertyOp0
 70
     1
102
RTVSPropertyOp1
 70
     1
102
RTVSPropertyOp2
 70
     1
102
RTVSPropertyOp3
 70
     1
102
RTVSPropertyOp4
 70
     1
102
RTVSPropertyOp5
 70
     1
102
RTVSPropertyOp6
 70
     1
102
RTVSPropertyOp7
 70
     1
102
RTVSPropertyOp8
 70
     1
102
RTVSPropertyOp9
 70
     1
102
RTVSPropertyOp10
 70
     1
102
RTVSPropertyOp11
 70
     1
102
RTVSPropertyOp12
 70
     1
102
RTVSPropertyOp13
 70
     1
102
RTVSPropertyOp14
 70
     1
102
RTVSPropertyOp15
 70
     1
102
RTVSPropertyOp16
 70
     1
102
RTVSPropertyOp17
 70
     1
102
RTVSPropertyOp18
 70
     1
102
RTVSPropertyOp19
 70
     1
102
RTVSPropertyOp20
 70
     1
102
RTVSPropertyOp21
 70
     1
102
RTVSPropertyOp22
 70
     1
102
RTVSPropertyOp23
 70
     1
102
RTVSPropertyOp24
 70
     1
102
RTVSPropertyOp25
 70
     1
102
RTVSPropertyOp26
 70
     1
102
RTVSPropertyOp27
 70
     1
102
RTVSPropertyOp28
 70
     1
102
RTVSPropertyOp29
 70
     1
102
RTVSPropertyOp30
 70
     1
102
RTVSPropertyOp31
 70
     1
102
RTVSPropertyOp32
 70
     1
  0
XRECORD
  5
90
102
{ACAD_REACTORS
330
8F
102
}
330
8F
100
AcDbXrecord
280
     1
102
RTVSPropertyOp0
 70
     1
102
RTVSPropertyOp1
 70
     1
102
RTVSPropertyOp2
 70
     1
102
RTVSPropertyOp3
 70
     1
102
RTVSPropertyOp4
 70
     1
102
RTVSPropertyOp5
 70
     1
102
RTVSPropertyOp6
 70
     1
102
RTVSPropertyOp7
 70
     1
102
RTVSPropertyOp8
 70
     1
102
RTVSPropertyOp9
 70
     1
102
RTVSPropertyOp10
 70
     1
102
RTVSPropertyOp11
 70
     1
102
RTVSPropertyOp12
 70
     1
102
RTVSPropertyOp13
 70
     1
102
RTVSPropertyOp14
 70
     1
102
RTVSPropertyOp15
 70
     1
102
RTVSPropertyOp16
 70
     1
102
RTVSPropertyOp17
 70
     1
102
RTVSPropertyOp18
 70
     1
102
RTVSPropertyOp19
 70
     1
102
RTVSPropertyOp20
 70
     1
102
RTVSPropertyOp21
 70
     1
102
RTVSPropertyOp22
 70
     1
102
RTVSPropertyOp23
 70
     1
102
RTVSPropertyOp24
 70
     1
102
RTVSPropertyOp25
 70
     1
102
RTVSPropertyOp26
 70
     1
102
RTVSPropertyOp27
 70
     1
102
RTVSPropertyOp28
 70
     1
102
RTVSPropertyOp29
 70
     1
102
RTVSPropertyOp30
 70
     1
102
RTVSPropertyOp31
 70
     1
102
RTVSPropertyOp32
 70
     1
  0
XRECORD
  5
74
102
{ACAD_REACTORS
330
73
102
}
330
73
100
AcDbXrecord
280
     1
102
RTVSPropertyOp0
 70
     1
102
RTVSPropertyOp1
 70
     1
102
RTVSPropertyOp2
 70
     1
102
RTVSPropertyOp3
 70
     1
102
RTVSPropertyOp4
 70
     1
102
RTVSPropertyOp5
 70
     1
102
RTVSPropertyOp6
 70
     1
102
RTVSPropertyOp7
 70
     1
102
RTVSPropertyOp8
 70
     1
102
RTVSPropertyOp9
 70
     1
102
RTVSPropertyOp10
 70
     1
102
RTVSPropertyOp11
 70
     1
102
RTVSPropertyOp12
 70
     1
102
RTVSPropertyOp13
 70
     1
102
RTVSPropertyOp14
 70
     1
102
RTVSPropertyOp15
 70
     1
102
RTVSPropertyOp16
 70
     1
102
RTVSPropertyOp17
 70
     1
102
RTVSPropertyOp18
 70
     1
102
RTVSPropertyOp19
 70
     1
102
RTVSPropertyOp20
 70
     1
102
RTVSPropertyOp21
 70
     1
102
RTVSPropertyOp22
 70
     1
102
RTVSPropertyOp23
 70
     1
102
RTVSPropertyOp24
 70
     1
102
RTVSPropertyOp25
 70
     1
102
RTVSPropertyOp26
 70
     1
102
RTVSPropertyOp27
 70
     1
102
RTVSPropertyOp28
 70
     1
102
RTVSPropertyOp29
 70
     1
102
RTVSPropertyOp30
 70
     1
102
RTVSPropertyOp31
 70
     1
102
RTVSPropertyOp32
 70
     1
  0
XRECORD
  5
76
102
{ACAD_REACTORS
330
75
102
}
330
75
100
AcDbXrecord
280
     1
102
RTVSPropertyOp0
 70
     1
102
RTVSPropertyOp1
 70
     1
102
RTVSPropertyOp2
 70
     1
102
RTVSPropertyOp3
 70
     1
102
RTVSPropertyOp4
 70
     1
102
RTVSPropertyOp5
 70
     1
102
RTVSPropertyOp6
 70
     1
102
RTVSPropertyOp7
 70
     1
102
RTVSPropertyOp8
 70
     1
102
RTVSPropertyOp9
 70
     1
102
RTVSPropertyOp10
 70
     1
102
RTVSPropertyOp11
 70
     1
102
RTVSPropertyOp12
 70
     1
102
RTVSPropertyOp13
 70
     1
102
RTVSPropertyOp14
 70
     1
102
RTVSPropertyOp15
 70
     1
102
RTVSPropertyOp16
 70
     1
102
RTVSPropertyOp17
 70
     1
102
RTVSPropertyOp18
 70
     1
102
RTVSPropertyOp19
 70
     1
102
RTVSPropertyOp20
 70
     1
102
RTVSPropertyOp21
 70
     1
102
RTVSPropertyOp22
 70
     1
102
RTVSPropertyOp23
 70
     1
102
RTVSPropertyOp24
 70
     1
102
RTVSPropertyOp25
 70
     1
102
RTVSPropertyOp26
 70
     1
102
RTVSPropertyOp27
 70
     1
102
RTVSPropertyOp28
 70
     1
102
RTVSPropertyOp29
 70
     1
102
RTVSPropertyOp30
 70
     1
102
RTVSPropertyOp31
 70
     1
102
RTVSPropertyOp32
 70
     1
  0
XRECORD
  5
78
102
{ACAD_REACTORS
330
77
102
}
330
77
100
AcDbXrecord
280
     1
102
RTVSPropertyOp0
 70
     1
102
RTVSPropertyOp1
 70
     1
102
RTVSPropertyOp2
 70
     1
102
RTVSPropertyOp3
 70
     1
102
RTVSPropertyOp4
 70
     1
102
RTVSPropertyOp5
 70
     1
102
RTVSPropertyOp6
 70
     1
102
RTVSPropertyOp7
 70
     1
102
RTVSPropertyOp8
 70
     1
102
RTVSPropertyOp9
 70
     1
102
RTVSPropertyOp10
 70
     1
102
RTVSPropertyOp11
 70
     1
102
RTVSPropertyOp12
 70
     1
102
RTVSPropertyOp13
 70
     1
102
RTVSPropertyOp14
 70
     1
102
RTVSPropertyOp15
 70
     1
102
RTVSPropertyOp16
 70
     1
102
RTVSPropertyOp17
 70
     1
102
RTVSPropertyOp18
 70
     1
102
RTVSPropertyOp19
 70
     1
102
RTVSPropertyOp20
 70
     1
102
RTVSPropertyOp21
 70
     1
102
RTVSPropertyOp22
 70
     1
102
RTVSPropertyOp23
 70
     1
102
RTVSPropertyOp24
 70
     1
102
RTVSPropertyOp25
 70
     1
102
RTVSPropertyOp26
 70
     1
102
RTVSPropertyOp27
 70
     1
102
RTVSPropertyOp28
 70
     1
102
RTVSPropertyOp29
 70
     1
102
RTVSPropertyOp30
 70
     1
102
RTVSPropertyOp31
 70
     1
102
RTVSPropertyOp32
 70
     1
  0
XRECORD
  5
7A
102
{ACAD_REACTORS
330
79
102
}
330
79
100
AcDbXrecord
280
     1
102
RTVSPropertyOp0
 70
     1
102
RTVSPropertyOp1
 70
     1
102
RTVSPropertyOp2
 70
     1
102
RTVSPropertyOp3
 70
     1
102
RTVSPropertyOp4
 70
     1
102
RTVSPropertyOp5
 70
     1
102
RTVSPropertyOp6
 70
     1
102
RTVSPropertyOp7
 70
     1
102
RTVSPropertyOp8
 70
     1
102
RTVSPropertyOp9
 70
     1
102
RTVSPropertyOp10
 70
     1
102
RTVSPropertyOp11
 70
     1
102
RTVSPropertyOp12
 70
     1
102
RTVSPropertyOp13
 70
     1
102
RTVSPropertyOp14
 70
     1
102
RTVSPropertyOp15
 70
     1
102
RTVSPropertyOp16
 70
     1
102
RTVSPropertyOp17
 70
     1
102
RTVSPropertyOp18
 70
     1
102
RTVSPropertyOp19
 70
     1
102
RTVSPropertyOp20
 70
     1
102
RTVSPropertyOp21
 70
     1
102
RTVSPropertyOp22
 70
     1
102
RTVSPropertyOp23
 70
     1
102
RTVSPropertyOp24
 70
     1
102
RTVSPropertyOp25
 70
     1
102
RTVSPropertyOp26
 70
     1
102
RTVSPropertyOp27
 70
     1
102
RTVSPropertyOp28
 70
     1
102
RTVSPropertyOp29
 70
     1
102
RTVSPropertyOp30
 70
     1
102
RTVSPropertyOp31
 70
     1
102
RTVSPropertyOp32
 70
     1
  0
XRECORD
  5
8E
102
{ACAD_REACTORS
330
8D
102
}
330
8D
100
AcDbXrecord
280
     1
102
RTVSPropertyOp0
 70
     1
102
RTVSPropertyOp1
 70
     1
102
RTVSPropertyOp2
 70
     1
102
RTVSPropertyOp3
 70
     1
102
RTVSPropertyOp4
 70
     1
102
RTVSPropertyOp5
 70
     1
102
RTVSPropertyOp6
 70
     1
102
RTVSPropertyOp7
 70
     1
102
RTVSPropertyOp8
 70
     1
102
RTVSPropertyOp9
 70
     1
102
RTVSPropertyOp10
 70
     1
102
RTVSPropertyOp11
 70
     1
102
RTVSPropertyOp12
 70
     1
102
RTVSPropertyOp13
 70
     1
102
RTVSPropertyOp14
 70
     1
102
RTVSPropertyOp15
 70
     1
102
RTVSPropertyOp16
 70
     1
102
RTVSPropertyOp17
 70
     1
102
RTVSPropertyOp18
 70
     1
102
RTVSPropertyOp19
 70
     1
102
RTVSPropertyOp20
 70
     1
102
RTVSPropertyOp21
 70
     1
102
RTVSPropertyOp22
 70
     1
102
RTVSPropertyOp23
 70
     1
102
RTVSPropertyOp24
 70
     1
102
RTVSPropertyOp25
 70
     1
102
RTVSPropertyOp26
 70
     1
102
RTVSPropertyOp27
 70
     1
102
RTVSPropertyOp28
 70
     1
102
RTVSPropertyOp29
 70
     1
102
RTVSPropertyOp30
 70
     1
102
RTVSPropertyOp31
 70
     1
102
RTVSPropertyOp32
 70
     1
  0
XRECORD
  5
84
102
{ACAD_REACTORS
330
83
102
}
330
83
100
AcDbXrecord
280
     1
102
RTVSPropertyOp0
 70
     1
102
RTVSPropertyOp1
 70
     1
102
RTVSPropertyOp2
 70
     1
102
RTVSPropertyOp3
 70
     1
102
RTVSPropertyOp4
 70
     1
102
RTVSPropertyOp5
 70
     1
102
RTVSPropertyOp6
 70
     1
102
RTVSPropertyOp7
 70
     1
102
RTVSPropertyOp8
 70
     1
102
RTVSPropertyOp9
 70
     1
102
RTVSPropertyOp10
 70
     1
102
RTVSPropertyOp11
 70
     1
102
RTVSPropertyOp12
 70
     1
102
RTVSPropertyOp13
 70
     1
102
RTVSPropertyOp14
 70
     1
102
RTVSPropertyOp15
 70
     1
102
RTVSPropertyOp16
 70
     1
102
RTVSPropertyOp17
 70
     1
102
RTVSPropertyOp18
 70
     1
102
RTVSPropertyOp19
 70
     1
102
RTVSPropertyOp20
 70
     1
102
RTVSPropertyOp21
 70
     1
102
RTVSPropertyOp22
 70
     1
102
RTVSPropertyOp23
 70
     1
102
RTVSPropertyOp24
 70
     1
102
RTVSPropertyOp25
 70
     1
102
RTVSPropertyOp26
 70
     1
102
RTVSPropertyOp27
 70
     1
102
RTVSPropertyOp28
 70
     1
102
RTVSPropertyOp29
 70
     1
102
RTVSPropertyOp30
 70
     1
102
RTVSPropertyOp31
 70
     1
102
RTVSPropertyOp32
 70
     1
  0
XRECORD
  5
8C
102
{ACAD_REACTORS
330
8B
102
}
330
8B
100
AcDbXrecord
280
     1
102
RTVSPropertyOp0
 70
     1
102
RTVSPropertyOp1
 70
     1
102
RTVSPropertyOp2
 70
     1
102
RTVSPropertyOp3
 70
     1
102
RTVSPropertyOp4
 70
     1
102
RTVSPropertyOp5
 70
     1
102
RTVSPropertyOp6
 70
     1
102
RTVSPropertyOp7
 70
     1
102
RTVSPropertyOp8
 70
     1
102
RTVSPropertyOp9
 70
     1
102
RTVSPropertyOp10
 70
     1
102
RTVSPropertyOp11
 70
     1
102
RTVSPropertyOp12
 70
     1
102
RTVSPropertyOp13
 70
     1
102
RTVSPropertyOp14
 70
     1
102
RTVSPropertyOp15
 70
     1
102
RTVSPropertyOp16
 70
     1
102
RTVSPropertyOp17
 70
     1
102
RTVSPropertyOp18
 70
     1
102
RTVSPropertyOp19
 70
     1
102
RTVSPropertyOp20
 70
     1
102
RTVSPropertyOp21
 70
     1
102
RTVSPropertyOp22
 70
     1
102
RTVSPropertyOp23
 70
     1
102
RTVSPropertyOp24
 70
     1
102
RTVSPropertyOp25
 70
     1
102
RTVSPropertyOp26
 70
     1
102
RTVSPropertyOp27
 70
     1
102
RTVSPropertyOp28
 70
     1
102
RTVSPropertyOp29
 70
     1
102
RTVSPropertyOp30
 70
     1
102
RTVSPropertyOp31
 70
     1
102
RTVSPropertyOp32
 70
     1
  0
ENDSEC
  0
EOF
