<?xml version="1.0" encoding="UTF-8"?>
<!DOCTYPE svg PUBLIC "-//W3C//DTD SVG 1.1//EN" "http://www.w3.org/Graphics/SVG/1.1/DTD/svg11.dtd">
<!-- Creator: CorelDRAW X6 -->
<svg xmlns="http://www.w3.org/2000/svg" xml:space="preserve" width="300mm" height="600mm" version="1.1" style="shape-rendering:geometricPrecision; text-rendering:geometricPrecision; image-rendering:optimizeQuality; fill-rule:evenodd; clip-rule:evenodd"
viewBox="0 0 30000 60000"
 xmlns:xlink="http://www.w3.org/1999/xlink">
 <defs>
  <style type="text/css">
   <![CDATA[
    .str0 {stroke:black;stroke-width:52.92;stroke-linecap:round;stroke-linejoin:round}
    .fil0 {fill:none;fill-rule:nonzero}
   ]]>
  </style>
 </defs>
 <g id="Layer_x0020_1">
  <metadata id="CorelCorpID_0Corel-Layer"/>
  <g id="_912999280">
   <path class="fil0 str0" d="M12769 10504c162,-766 588,-1376 1194,-1848 304,-237 681,-407 1070,-224 387,182 567,531 605,962 71,791 223,1582 -127,2352 462,336 490,775 353,1250 89,55 155,99 223,137 460,261 579,490 492,1014 -74,450 -284,842 -571,1193 -82,100 -171,195 -281,319 379,61 721,51 967,341 370,436 421,1072 107,1602 -436,736 -1106,1065 -1934,1142 -485,45 -968,114 -1463,174l-14 358c309,-62 586,-149 867,-166 593,-37 1119,459 1128,1054 10,666 -364,1099 -925,1386 -210,107 -443,167 -704,262 361,351 136,658 -75,1006 171,-31 261,-55 352,-62 580,-43 1107,86 1552,480 467,413 505,973 72,1428 -417,439 -946,628 -1549,618 -139,-2 -279,-1 -411,-1 -57,222 -105,409 -141,547 318,108 614,175 879,305 564,277 715,679 523,1267 -262,800 -1138,1398 -1972,1347 -107,-6 -214,-6 -351,-9 35,324 1,633 -278,780 -235,124 -519,153 -823,235 21,489 37,1013 68,1535 141,2351 1151,16883 1291,19234 15,254 2,510 -10,764 -9,189 -78,343 -324,360 -303,-237 -306,-612 -338,-943 -119,-1203 -1077,-14590 -1159,-15796 -98,-1443 -173,-2888 -259,-4333 -9,-156 -26,-311 -40,-467 -979,131 -1285,-532 -887,-1417 -229,-71 -460,-130 -682,-213 -342,-128 -696,-242 -1013,-417 -674,-373 -1025,-917 -866,-1735 104,-533 530,-962 1077,-945 346,11 691,77 1063,121 13,-128 29,-280 42,-409 -375,-204 -739,-370 -1068,-589 -553,-369 -1009,-834 -1197,-1499 -216,-766 342,-1433 1128,-1341 281,33 558,108 869,171 -64,-357 -40,-682 279,-947 -246,-143 -467,-267 -682,-399 -492,-302 -861,-710 -1022,-1273 -198,-698 294,-1428 990,-1438 511,-7 1022,49 1441,406 69,58 155,96 303,185 -28,-148 -15,-253 -61,-298 -205,-199 -448,-362 -637,-574 -336,-378 -681,-757 -950,-1181 -247,-389 -124,-794 155,-1153 268,-346 598,-514 1040,-421 97,20 197,27 372,49 -132,-162 -217,-254 -288,-356 -295,-423 -425,-879 -296,-1396 130,-518 629,-852 1155,-758 192,34 380,93 565,139 239,-607 312,-660 947,-671 78,-431 142,-839 228,-1243z"/>
   <path class="fil0 str0" d="M14154 12707c318,-583 605,-1189 850,-1807 143,-361 185,-765 -90,-1208 -798,1361 -1277,2771 -1595,4258 282,-413 598,-807 836,-1243z"/>
   <path class="fil0 str0" d="M13001 18449c125,42 194,90 255,82 678,-85 1361,-154 2001,-419 460,-190 793,-499 955,-1058 -1195,222 -2196,739 -3211,1395z"/>
   <path class="fil0 str0" d="M13888 9436c-274,299 -468,652 -528,1051 -106,702 -179,1409 -193,2125 483,-1111 966,-2223 1462,-3364 -289,-142 -534,-38 -740,188z"/>
   <path class="fil0 str0" d="M7929 26575c-45,460 134,773 449,978 663,434 1403,668 2194,732 26,2 55,-24 168,-78 -886,-668 -1784,-1211 -2810,-1632z"/>
   <path class="fil0 str0" d="M8846 25843c-379,-121 -554,-56 -799,293 884,499 1767,997 2723,1537 -462,-885 -1020,-1542 -1924,-1830z"/>
   <path class="fil0 str0" d="M15767 16255c-297,-3 -606,4 -888,85 -489,140 -1394,982 -1693,1528 971,-561 1945,-1002 3007,-1223 -59,-294 -237,-387 -426,-389z"/>
   <path class="fil0 str0" d="M11022 20613c-29,-209 -27,-342 -68,-462 -255,-760 -774,-1307 -1444,-1716 -203,-124 -441,-171 -783,-66 778,761 1501,1468 2294,2244z"/>
   <path class="fil0 str0" d="M12412 21448c699,-86 1343,-25 1940,-322 388,-193 581,-509 632,-976 -726,128 -2112,818 -2572,1299z"/>
   <path class="fil0 str0" d="M8007 22352c950,639 1864,1253 2820,1895 -276,-1019 -1928,-2197 -2820,-1895z"/>
   <path class="fil0 str0" d="M9304 16250c523,810 1275,1391 2035,1969 -569,-917 -1191,-1791 -1889,-2668 -217,245 -289,477 -145,699z"/>
   <path class="fil0 str0" d="M8775 19757c500,608 1161,966 1921,1228 -185,-389 -1348,-1570 -2105,-2149 -150,384 -24,668 184,921z"/>
   <path class="fil0 str0" d="M12286 24653c480,150 858,189 1225,115 479,-96 948,-245 1418,-384 158,-47 287,-142 240,-375 -997,-114 -1904,155 -2883,643z"/>
   <path class="fil0 str0" d="M12878 27565c-366,77 -725,188 -1118,292 1115,726 2232,372 2479,-527 -491,83 -929,145 -1361,235z"/>
   <path class="fil0 str0" d="M11632 23258c577,171 1347,-238 1883,-1018 -782,-287 -1727,242 -1883,1018z"/>
   <path class="fil0 str0" d="M12243 15368c286,-953 -520,-2404 -1468,-2622 495,884 977,1744 1468,2622z"/>
   <path class="fil0 str0" d="M13595 15786c1184,14 2272,-752 2292,-1670 -750,588 -1589,999 -2292,1670z"/>
   <path class="fil0 str0" d="M8263 23530c661,500 1376,900 2216,1107 -219,-376 -2027,-1615 -2601,-1787 10,307 175,521 385,680z"/>
   <path class="fil0 str0" d="M10375 12898c-205,439 -155,806 53,1138 337,540 791,978 1318,1352 -376,-857 -827,-1667 -1371,-2490z"/>
   <path class="fil0 str0" d="M15028 23610c-218,-388 -515,-497 -833,-454 -854,117 -1594,471 -2136,1153 927,-453 1879,-749 2969,-700z"/>
   <path class="fil0 str0" d="M9754 15255c555,839 1175,1581 1754,2363 -217,-1304 -1023,-2396 -1754,-2363z"/>
   <path class="fil0 str0" d="M15646 13817c-722,-310 -1806,463 -2366,1665 823,-579 1582,-1113 2366,-1665z"/>
   <path class="fil0 str0" d="M11499 26423c592,125 1218,-236 1644,-968 -722,-220 -1380,180 -1644,968z"/>
   <path class="fil0 str0" d="M9853 21470c-6,75 -38,158 -13,218 237,560 618,1015 1080,1476 207,-778 -309,-1576 -1067,-1694z"/>
   <path class="fil0 str0" d="M13846 19585c-321,94 -946,697 -1172,1096 714,-323 1374,-621 2055,-930 -266,-364 -591,-252 -883,-166z"/>
   <path class="fil0 str0" d="M14195 26934c-485,-498 -1374,-333 -1989,388 704,-137 1337,-261 1989,-388z"/>
   <path class="fil0 str0" d="M9900 25226c-36,635 451,908 827,1315 113,-837 -158,-1258 -827,-1315z"/>
   <path class="fil0 str0" d="M12108 19668c-38,229 -68,459 -105,719 473,-376 802,-856 904,-1293 -479,-22 -729,155 -799,574z"/>
   <path class="fil0 str0" d="M13216 17051c21,-24 59,-43 64,-69 26,-132 65,-268 53,-398 -4,-40 -157,-101 -235,-92 -151,17 -333,28 -375,231 -66,323 -126,647 -188,971 24,9 48,18 72,27 203,-223 406,-447 609,-670z"/>
   <path class="fil0 str0" d="M11752 29169c67,60 218,105 281,69 74,-42 130,-178 132,-274 5,-283 -210,-471 -599,-550 -145,303 -43,552 187,755z"/>
   <path class="fil0 str0" d="M10939 18561c-120,281 -67,426 396,1043 249,-675 205,-783 -396,-1043z"/>
   <path class="fil0 str0" d="M12510 12424c-3,-160 -104,-289 -268,-236 -83,27 -182,182 -177,274 17,282 109,545 420,729 10,-276 29,-521 24,-766z"/>
   <path class="fil0 str0" d="M10706 28928c-372,-78 -516,77 -520,559 442,121 547,8 520,-559z"/>
   <path class="fil0 str0" d="M15305 12353c-329,96 -399,416 -652,731 814,-222 918,-353 652,-731z"/>
   <path class="fil0 str0" d="M11501 15912c172,368 318,683 472,1013 143,-408 53,-609 -472,-1013z"/>
   <path class="fil0 str0" d="M11481 25543c153,-121 267,-211 414,-327 -279,-63 -446,-46 -414,327z"/>
   <path class="fil0 str0" d="M10976 21474l-67 53c50,70 100,139 150,209 30,-24 61,-48 91,-72 -58,-63 -116,-127 -174,-190z"/>
  </g>
  <g id="_910594336">
   <path class="fil0 str0" d="M17231 49496c-162,766 -588,1376 -1194,1848 -304,237 -681,407 -1070,224 -387,-182 -567,-531 -605,-962 -71,-791 -223,-1582 127,-2352 -462,-336 -490,-775 -353,-1250 -89,-55 -155,-99 -223,-137 -460,-261 -579,-490 -492,-1014 74,-450 284,-842 571,-1193 82,-100 171,-195 281,-319 -379,-61 -721,-51 -967,-341 -370,-436 -421,-1072 -107,-1602 436,-736 1106,-1065 1934,-1142 485,-45 968,-114 1463,-174l14 -358c-309,62 -586,149 -867,166 -593,37 -1119,-459 -1128,-1054 -10,-666 364,-1099 925,-1386 210,-107 443,-167 704,-262 -361,-351 -136,-658 75,-1006 -171,31 -261,55 -352,62 -580,43 -1107,-86 -1552,-480 -467,-413 -505,-973 -72,-1428 417,-439 946,-628 1549,-618 139,2 279,1 411,1 57,-222 105,-409 141,-547 -318,-108 -614,-175 -879,-305 -564,-277 -715,-679 -523,-1267 262,-800 1138,-1398 1972,-1347 107,6 214,6 351,9 -35,-324 -1,-633 278,-780 235,-124 519,-153 823,-235 -21,-489 -37,-1013 -68,-1535 -141,-2351 -1151,-16883 -1291,-19234 -15,-254 -2,-510 10,-764 9,-189 78,-343 324,-360 303,237 306,612 338,943 119,1203 1077,14590 1159,15796 98,1443 173,2888 259,4333 9,156 26,311 40,467 979,-131 1285,532 887,1417 229,71 460,130 682,213 342,128 696,242 1013,417 674,373 1025,917 866,1735 -104,533 -530,962 -1077,945 -346,-11 -691,-77 -1063,-121 -13,128 -29,280 -42,409 375,204 739,370 1068,589 553,369 1009,834 1197,1499 216,766 -342,1433 -1128,1341 -281,-33 -558,-108 -869,-171 64,357 40,682 -279,947 246,143 467,267 682,399 492,302 861,710 1022,1273 198,698 -294,1428 -990,1438 -511,7 -1022,-49 -1441,-406 -69,-58 -155,-96 -303,-185 28,148 15,253 61,298 205,199 448,362 637,574 336,378 681,757 950,1181 247,389 124,794 -155,1153 -268,346 -598,514 -1040,421 -97,-20 -197,-27 -372,-49 132,162 217,254 288,356 295,423 425,879 296,1396 -130,518 -629,852 -1155,758 -192,-34 -380,-93 -565,-139 -239,607 -312,660 -947,671 -78,431 -142,839 -228,1243z"/>
   <path class="fil0 str0" d="M15846 47293c-318,583 -605,1189 -850,1807 -143,361 -185,765 90,1208 798,-1361 1277,-2771 1595,-4258 -282,413 -598,807 -836,1243z"/>
   <path class="fil0 str0" d="M16999 41551c-125,-42 -194,-90 -255,-82 -678,85 -1361,154 -2001,419 -460,190 -793,499 -955,1058 1195,-222 2196,-739 3211,-1395z"/>
   <path class="fil0 str0" d="M16112 50564c274,-299 468,-652 528,-1051 106,-702 179,-1409 193,-2125 -483,1111 -966,2223 -1462,3364 289,142 534,38 740,-188z"/>
   <path class="fil0 str0" d="M22071 33425c45,-460 -134,-773 -449,-978 -663,-434 -1403,-668 -2194,-732 -26,-2 -55,24 -168,78 886,668 1784,1211 2810,1632z"/>
   <path class="fil0 str0" d="M21154 34157c379,121 554,56 799,-293 -884,-499 -1767,-997 -2723,-1537 462,885 1020,1542 1924,1830z"/>
   <path class="fil0 str0" d="M14233 43745c297,3 606,-4 888,-85 489,-140 1394,-982 1693,-1528 -971,561 -1945,1002 -3007,1223 59,294 237,387 426,390z"/>
   <path class="fil0 str0" d="M18978 39387c29,209 27,342 68,462 255,760 774,1307 1444,1716 203,124 441,171 783,66 -778,-761 -1501,-1468 -2294,-2244z"/>
   <path class="fil0 str0" d="M17588 38552c-699,86 -1343,25 -1940,322 -388,193 -581,509 -632,976 726,-128 2112,-818 2572,-1299z"/>
   <path class="fil0 str0" d="M21993 37648c-950,-639 -1864,-1253 -2820,-1895 276,1019 1928,2197 2820,1895z"/>
   <path class="fil0 str0" d="M20696 43750c-523,-810 -1275,-1391 -2035,-1969 569,917 1191,1791 1889,2668 217,-245 289,-477 145,-699z"/>
   <path class="fil0 str0" d="M21225 40243c-500,-608 -1161,-966 -1921,-1228 185,389 1348,1570 2105,2149 150,-384 24,-668 -184,-921z"/>
   <path class="fil0 str0" d="M17714 35347c-480,-150 -858,-189 -1225,-115 -479,96 -948,245 -1418,384 -158,47 -287,142 -240,375 997,114 1904,-155 2883,-643z"/>
   <path class="fil0 str0" d="M17122 32435c366,-77 725,-188 1118,-292 -1115,-726 -2232,-372 -2479,527 491,-83 929,-145 1361,-235z"/>
   <path class="fil0 str0" d="M18368 36742c-577,-171 -1347,238 -1883,1018 782,287 1727,-242 1883,-1018z"/>
   <path class="fil0 str0" d="M17757 44632c-286,953 520,2404 1468,2622 -495,-884 -977,-1744 -1468,-2622z"/>
   <path class="fil0 str0" d="M16405 44214c-1184,-14 -2272,752 -2292,1670 750,-588 1589,-999 2292,-1670z"/>
   <path class="fil0 str0" d="M21737 36470c-661,-500 -1376,-900 -2216,-1107 219,376 2027,1615 2601,1787 -10,-307 -175,-521 -385,-680z"/>
   <path class="fil0 str0" d="M19625 47102c205,-439 155,-806 -53,-1138 -337,-540 -791,-978 -1318,-1352 376,857 827,1667 1371,2490z"/>
   <path class="fil0 str0" d="M14972 36390c218,388 515,497 833,454 854,-117 1594,-471 2136,-1153 -927,453 -1879,749 -2969,700z"/>
   <path class="fil0 str0" d="M20246 44745c-555,-839 -1175,-1581 -1754,-2363 217,1304 1023,2396 1754,2363z"/>
   <path class="fil0 str0" d="M14354 46183c722,310 1806,-463 2366,-1665 -823,579 -1582,1113 -2366,1665z"/>
   <path class="fil0 str0" d="M18501 33577c-592,-125 -1218,236 -1644,968 722,220 1380,-180 1644,-968z"/>
   <path class="fil0 str0" d="M20147 38530c6,-75 38,-158 13,-218 -237,-560 -618,-1015 -1080,-1476 -207,778 309,1576 1067,1694z"/>
   <path class="fil0 str0" d="M16154 40415c321,-94 946,-697 1172,-1096 -714,323 -1374,621 -2055,930 266,364 591,252 883,166z"/>
   <path class="fil0 str0" d="M15805 33066c485,498 1374,333 1989,-388 -704,137 -1337,261 -1989,388z"/>
   <path class="fil0 str0" d="M20100 34774c36,-635 -451,-908 -827,-1315 -113,837 158,1258 827,1315z"/>
   <path class="fil0 str0" d="M17892 40332c38,-229 68,-459 105,-719 -473,376 -802,856 -904,1293 479,22 729,-155 799,-574z"/>
   <path class="fil0 str0" d="M16784 42949c-21,24 -59,43 -64,69 -26,132 -65,268 -53,398 4,40 157,101 235,92 151,-17 333,-28 375,-231 66,-323 126,-647 188,-971 -24,-9 -48,-18 -72,-27 -203,223 -406,447 -609,670z"/>
   <path class="fil0 str0" d="M18248 30831c-67,-60 -218,-105 -281,-69 -74,42 -130,178 -132,274 -5,283 210,471 599,550 145,-303 43,-552 -187,-755z"/>
   <path class="fil0 str0" d="M19061 41439c120,-281 67,-426 -396,-1043 -249,675 -205,783 396,1043z"/>
   <path class="fil0 str0" d="M17490 47576c3,160 104,289 268,236 83,-27 182,-182 177,-274 -17,-282 -109,-545 -420,-729 -10,276 -29,521 -24,766z"/>
   <path class="fil0 str0" d="M19294 31072c372,78 516,-77 520,-559 -442,-121 -547,-8 -520,559z"/>
   <path class="fil0 str0" d="M14695 47647c329,-96 399,-416 652,-731 -814,222 -918,353 -652,731z"/>
   <path class="fil0 str0" d="M18499 44088c-172,-368 -318,-683 -472,-1013 -143,408 -53,609 472,1013z"/>
   <path class="fil0 str0" d="M18519 34457c-153,121 -267,211 -414,327 279,63 446,46 414,-327z"/>
   <path class="fil0 str0" d="M19024 38526l67 -53c-50,-70 -100,-139 -150,-209 -30,24 -61,48 -91,72 58,63 116,127 174,190z"/>
  </g>
 </g>
</svg>
