  0
SECTION
  2
HEADER
  9
$ACADVER
  1
AC1021
  9
$ACADMAINTVER
 70
    25
  9
$DWGCODEPAGE
  3
ANSI_1252
  9
$INSBASE
 10
0.0
 20
0.0
 30
0.0
  9
$EXTMIN
 10
-7.8399
 20
-21.67295
 30
0.0
  9
$EXTMAX
 10
7.8399
 20
21.67295
 30
0.0
  9
$LIMMIN
 10
0.0
 20
0.0
  9
$LIMMAX
 10
12.0
 20
9.0
  9
$ORTHOMODE
 70
     0
  9
$REGENMODE
 70
     1
  9
$FILLMODE
 70
     1
  9
$QTEXTMODE
 70
     0
  9
$MIRRTEXT
 70
     1
  9
$LTSCALE
 40
1.0
  9
$ATTMODE
 70
     1
  9
$TEXTSIZE
 40
0.2
  9
$TRACEWID
 40
0.05
  9
$TEXTSTYLE
  7
Standard
  9
$CLAYER
  8
0
  9
$CELTYPE
  6
ByLayer
  9
$CECOLOR
 62
   256
  9
$CELTSCALE
 40
1.0
  9
$DISPSILH
 70
     0
  9
$DIMSCALE
 40
1.0
  9
$DIMASZ
 40
0.18
  9
$DIMEXO
 40
0.0625
  9
$DIMDLI
 40
0.38
  9
$DIMRND
 40
0.0
  9
$DIMDLE
 40
0.0
  9
$DIMEXE
 40
0.18
  9
$DIMTP
 40
0.0
  9
$DIMTM
 40
0.0
  9
$DIMTXT
 40
0.18
  9
$DIMCEN
 40
0.09
  9
$DIMTSZ
 40
0.0
  9
$DIMTOL
 70
     0
  9
$DIMLIM
 70
     0
  9
$DIMTIH
 70
     1
  9
$DIMTOH
 70
     1
  9
$DIMSE1
 70
     0
  9
$DIMSE2
 70
     0
  9
$DIMTAD
 70
     0
  9
$DIMZIN
 70
     0
  9
$DIMBLK
  1

  9
$DIMASO
 70
     1
  9
$DIMSHO
 70
     1
  9
$DIMPOST
  1

  9
$DIMAPOST
  1

  9
$DIMALT
 70
     0
  9
$DIMALTD
 70
     2
  9
$DIMALTF
 40
25.4
  9
$DIMLFAC
 40
1.0
  9
$DIMTOFL
 70
     0
  9
$DIMTVP
 40
0.0
  9
$DIMTIX
 70
     0
  9
$DIMSOXD
 70
     0
  9
$DIMSAH
 70
     0
  9
$DIMBLK1
  1

  9
$DIMBLK2
  1

  9
$DIMSTYLE
  2
Standard
  9
$DIMCLRD
 70
     0
  9
$DIMCLRE
 70
     0
  9
$DIMCLRT
 70
     0
  9
$DIMTFAC
 40
1.0
  9
$DIMGAP
 40
0.09
  9
$DIMJUST
 70
     0
  9
$DIMSD1
 70
     0
  9
$DIMSD2
 70
     0
  9
$DIMTOLJ
 70
     1
  9
$DIMTZIN
 70
     0
  9
$DIMALTZ
 70
     0
  9
$DIMALTTZ
 70
     0
  9
$DIMUPT
 70
     0
  9
$DIMDEC
 70
     4
  9
$DIMTDEC
 70
     4
  9
$DIMALTU
 70
     2
  9
$DIMALTTD
 70
     2
  9
$DIMTXSTY
  7
Standard
  9
$DIMAUNIT
 70
     0
  9
$DIMADEC
 70
     0
  9
$DIMALTRND
 40
0.0
  9
$DIMAZIN
 70
     0
  9
$DIMDSEP
 70
    46
  9
$DIMATFIT
 70
     3
  9
$DIMFRAC
 70
     0
  9
$DIMLDRBLK
  1

  9
$DIMLUNIT
 70
     2
  9
$DIMLWD
 70
    -2
  9
$DIMLWE
 70
    -2
  9
$DIMTMOVE
 70
     0
  9
$DIMFXL
 40
1.0
  9
$DIMFXLON
 70
     0
  9
$DIMJOGANG
 40
0.7853981633974483
  9
$DIMTFILL
 70
     0
  9
$DIMTFILLCLR
 70
     0
  9
$DIMARCSYM
 70
     0
  9
$DIMLTYPE
  6

  9
$DIMLTEX1
  6

  9
$DIMLTEX2
  6

  9
$LUNITS
 70
     2
  9
$LUPREC
 70
     4
  9
$SKETCHINC
 40
0.1
  9
$FILLETRAD
 40
0.5
  9
$AUNITS
 70
     0
  9
$AUPREC
 70
     0
  9
$MENU
  1
.
  9
$ELEVATION
 40
0.0
  9
$PELEVATION
 40
0.0
  9
$THICKNESS
 40
0.0
  9
$LIMCHECK
 70
     0
  9
$CHAMFERA
 40
0.5
  9
$CHAMFERB
 40
0.5
  9
$CHAMFERC
 40
1.0
  9
$CHAMFERD
 40
0.0
  9
$SKPOLY
 70
     0
  9
$TDCREATE
 40
2460269.445650799
  9
$TDUCREATE
 40
2460269.445650799
  9
$TDUPDATE
 40
2460269.445650845
  9
$TDUUPDATE
 40
2460269.445650845
  9
$TDINDWG
 40
0.0000000116
  9
$TDUSRTIMER
 40
0.0000000116
  9
$USRTIMER
 70
     1
  9
$ANGBASE
 50
0.0
  9
$ANGDIR
 70
     0
  9
$PDMODE
 70
     0
  9
$PDSIZE
 40
0.0
  9
$PLINEWID
 40
0.0
  9
$SPLFRAME
 70
     0
  9
$SPLINETYPE
 70
     6
  9
$SPLINESEGS
 70
     8
  9
$HANDSEED
  5
AD
  9
$SURFTAB1
 70
     6
  9
$SURFTAB2
 70
     6
  9
$SURFTYPE
 70
     6
  9
$SURFU
 70
     6
  9
$SURFV
 70
     6
  9
$UCSBASE
  2

  9
$UCSNAME
  2

  9
$UCSORG
 10
0.0
 20
0.0
 30
0.0
  9
$UCSXDIR
 10
1.0
 20
0.0
 30
0.0
  9
$UCSYDIR
 10
0.0
 20
1.0
 30
0.0
  9
$UCSORTHOREF
  2

  9
$UCSORTHOVIEW
 70
     0
  9
$UCSORGTOP
 10
0.0
 20
0.0
 30
0.0
  9
$UCSORGBOTTOM
 10
0.0
 20
0.0
 30
0.0
  9
$UCSORGLEFT
 10
0.0
 20
0.0
 30
0.0
  9
$UCSORGRIGHT
 10
0.0
 20
0.0
 30
0.0
  9
$UCSORGFRONT
 10
0.0
 20
0.0
 30
0.0
  9
$UCSORGBACK
 10
0.0
 20
0.0
 30
0.0
  9
$PUCSBASE
  2

  9
$PUCSNAME
  2

  9
$PUCSORG
 10
0.0
 20
0.0
 30
0.0
  9
$PUCSXDIR
 10
1.0
 20
0.0
 30
0.0
  9
$PUCSYDIR
 10
0.0
 20
1.0
 30
0.0
  9
$PUCSORTHOREF
  2

  9
$PUCSORTHOVIEW
 70
     0
  9
$PUCSORGTOP
 10
0.0
 20
0.0
 30
0.0
  9
$PUCSORGBOTTOM
 10
0.0
 20
0.0
 30
0.0
  9
$PUCSORGLEFT
 10
0.0
 20
0.0
 30
0.0
  9
$PUCSORGRIGHT
 10
0.0
 20
0.0
 30
0.0
  9
$PUCSORGFRONT
 10
0.0
 20
0.0
 30
0.0
  9
$PUCSORGBACK
 10
0.0
 20
0.0
 30
0.0
  9
$USERI1
 70
     0
  9
$USERI2
 70
     0
  9
$USERI3
 70
     0
  9
$USERI4
 70
     0
  9
$USERI5
 70
     0
  9
$USERR1
 40
0.0
  9
$USERR2
 40
0.0
  9
$USERR3
 40
0.0
  9
$USERR4
 40
0.0
  9
$USERR5
 40
0.0
  9
$WORLDVIEW
 70
     1
  9
$SHADEDGE
 70
     3
  9
$SHADEDIF
 70
    70
  9
$TILEMODE
 70
     1
  9
$MAXACTVP
 70
    64
  9
$PINSBASE
 10
0.0
 20
0.0
 30
0.0
  9
$PLIMCHECK
 70
     0
  9
$PEXTMIN
 10
1.000000000000000E+20
 20
1.000000000000000E+20
 30
1.000000000000000E+20
  9
$PEXTMAX
 10
-1.000000000000000E+20
 20
-1.000000000000000E+20
 30
-1.000000000000000E+20
  9
$PLIMMIN
 10
0.0
 20
0.0
  9
$PLIMMAX
 10
12.0
 20
9.0
  9
$UNITMODE
 70
     0
  9
$VISRETAIN
 70
     1
  9
$PLINEGEN
 70
     0
  9
$PSLTSCALE
 70
     1
  9
$TREEDEPTH
 70
  3020
  9
$CMLSTYLE
  2
Standard
  9
$CMLJUST
 70
     0
  9
$CMLSCALE
 40
1.0
  9
$PROXYGRAPHICS
 70
     1
  9
$MEASUREMENT
 70
     0
  9
$CELWEIGHT
370
    -1
  9
$ENDCAPS
280
     0
  9
$JOINSTYLE
280
     0
  9
$LWDISPLAY
290
     0
  9
$INSUNITS
 70
     5
  9
$HYPERLINKBASE
  1

  9
$STYLESHEET
  1

  9
$XEDIT
290
     1
  9
$CEPSNTYPE
380
     0
  9
$PSTYLEMODE
290
     1
  9
$FINGERPRINTGUID
  2
{2304F503-0B9A-4936-A670-99B643E936D0}
  9
$VERSIONGUID
  2
{FAEB1C32-E019-11D5-929B-00C0DF256EC4}
  9
$EXTNAMES
290
     1
  9
$PSVPSCALE
 40
0.0
  9
$OLESTARTUP
290
     0
  9
$SORTENTS
280
   127
  9
$INDEXCTL
280
     0
  9
$HIDETEXT
280
     1
  9
$XCLIPFRAME
290
     0
  9
$HALOGAP
280
     0
  9
$OBSCOLOR
 70
   257
  9
$OBSLTYPE
280
     0
  9
$INTERSECTIONDISPLAY
280
     0
  9
$INTERSECTIONCOLOR
 70
   257
  9
$DIMASSOC
280
     2
  9
$PROJECTNAME
  1

  9
$CAMERADISPLAY
290
     0
  9
$LENSLENGTH
 40
50.0
  9
$CAMERAHEIGHT
 40
0.0
  9
$STEPSPERSEC
 40
2.0
  9
$STEPSIZE
 40
6.0
  9
$3DDWFPREC
 40
2.0
  9
$PSOLWIDTH
 40
0.25
  9
$PSOLHEIGHT
 40
4.0
  9
$LOFTANG1
 40
1.570796326794897
  9
$LOFTANG2
 40
1.570796326794897
  9
$LOFTMAG1
 40
0.0
  9
$LOFTMAG2
 40
0.0
  9
$LOFTPARAM
 70
     7
  9
$LOFTNORMALS
280
     1
  9
$LATITUDE
 40
37.795
  9
$LONGITUDE
 40
-122.394
  9
$NORTHDIRECTION
 40
0.0
  9
$TIMEZONE
 70
 -8000
  9
$LIGHTGLYPHDISPLAY
280
     1
  9
$TILEMODELIGHTSYNCH
280
     1
  9
$SOLIDHIST
280
     1
  9
$SHOWHIST
280
     1
  9
$DWFFRAME
280
     2
  9
$DGNFRAME
280
     2
  9
$REALWORLDSCALE
290
     1
  9
$INTERFERECOLOR
 62
   256
  9
$CSHADOW
280
     0
  9
$SHADOWPLANELOCATION
 40
0.0
  0
ENDSEC
  0
SECTION
  2
CLASSES
  0
CLASS
  1
ACDBDICTIONARYWDFLT
  2
AcDbDictionaryWithDefault
  3
ObjectDBX Classes
 90
        0
 91
        4
280
     0
281
     0
  0
CLASS
  1
VISUALSTYLE
  2
AcDbVisualStyle
  3
ObjectDBX Classes
 90
     4095
 91
        4
280
     0
281
     0
  0
CLASS
  1
MATERIAL
  2
AcDbMaterial
  3
ObjectDBX Classes
 90
     1153
 91
        4
280
     0
281
     0
  0
ENDSEC
  0
SECTION
  2
TABLES
  0
TABLE
  2
VPORT
  5
8
330
0
100
AcDbSymbolTable
 70
     1
  0
VPORT
  5
29
330
8
100
AcDbSymbolTableRecord
100
AcDbViewportTableRecord
  2
*Active
 70
     0
 10
0.0
 20
0.0
 11
1.0
 21
1.0
 12
10.42990654205607
 22
4.5
 13
0.0
 23
0.0
 14
0.5
 24
0.5
 15
0.5
 25
0.5
 16
0.0
 26
0.0
 36
1.0
 17
0.0
 27
0.0
 37
0.0
 40
9.0
 41
1.972972972850329
 42
50.0
 43
0.0
 44
0.0
 50
0.0
 51
0.0
 71
     0
 72
   100
 73
     1
 74
     3
 75
     0
 76
     0
 77
     0
 78
     0
281
     0
 65
     1
110
0.0
120
0.0
130
0.0
111
1.0
121
0.0
131
0.0
112
0.0
122
1.0
132
0.0
 79
     0
146
0.0
 60
     3
 61
     5
292
     1
282
     1
141
0.0
142
0.0
 63
   250
  0
ENDTAB
  0
TABLE
  2
LTYPE
  5
5
330
0
100
AcDbSymbolTable
 70
     1
  0
LTYPE
  5
14
330
5
100
AcDbSymbolTableRecord
100
AcDbLinetypeTableRecord
  2
ByBlock
 70
     0
  3

 72
    65
 73
     0
 40
0.0
  0
LTYPE
  5
15
330
5
100
AcDbSymbolTableRecord
100
AcDbLinetypeTableRecord
  2
ByLayer
 70
     0
  3

 72
    65
 73
     0
 40
0.0
  0
LTYPE
  5
16
330
5
100
AcDbSymbolTableRecord
100
AcDbLinetypeTableRecord
  2
Continuous
 70
     0
  3
Solid line
 72
    65
 73
     0
 40
0.0
  0
ENDTAB
  0
TABLE
  2
LAYER
  5
2
330
0
100
AcDbSymbolTable
 70
     2
  0
LAYER
  5
10
330
2
100
AcDbSymbolTableRecord
100
AcDbLayerTableRecord
  2
0
 70
     0
 62
     7
  6
Continuous
370
    -3
390
F
347
3E
  0
LAYER
  5
40
330
2
100
AcDbSymbolTableRecord
100
AcDbLayerTableRecord
  2
Layer 1
 70
     0
 62
     7
  6
Continuous
370
    -3
390
F
347
3E
  0
ENDTAB
  0
TABLE
  2
STYLE
  5
3
330
0
100
AcDbSymbolTable
 70
     1
  0
STYLE
  5
11
330
3
100
AcDbSymbolTableRecord
100
AcDbTextStyleTableRecord
  2
Standard
 70
     0
 40
0.0
 41
1.0
 50
0.0
 71
     0
 42
0.2
  3
txt
  4

  0
ENDTAB
  0
TABLE
  2
VIEW
  5
6
330
0
100
AcDbSymbolTable
 70
     0
  0
ENDTAB
  0
TABLE
  2
UCS
  5
7
330
0
100
AcDbSymbolTable
 70
     0
  0
ENDTAB
  0
TABLE
  2
APPID
  5
9
330
0
100
AcDbSymbolTable
 70
     2
  0
APPID
  5
12
330
9
100
AcDbSymbolTableRecord
100
AcDbRegAppTableRecord
  2
ACAD
 70
     0
  0
APPID
  5
3F
330
9
100
AcDbSymbolTableRecord
100
AcDbRegAppTableRecord
  2
ODA
 70
     0
  0
ENDTAB
  0
TABLE
  2
DIMSTYLE
  5
A
330
0
100
AcDbSymbolTable
 70
     1
100
AcDbDimStyleTable
  0
DIMSTYLE
105
27
330
A
100
AcDbSymbolTableRecord
100
AcDbDimStyleTableRecord
  2
Standard
 70
     0
178
     0
340
11
  0
ENDTAB
  0
TABLE
  2
BLOCK_RECORD
  5
1
330
0
100
AcDbSymbolTable
 70
     1
  0
BLOCK_RECORD
  5
1F
330
1
100
AcDbSymbolTableRecord
100
AcDbBlockTableRecord
  2
*Model_Space
340
22
 70
     0
280
     1
281
     0
  0
BLOCK_RECORD
  5
1B
330
1
100
AcDbSymbolTableRecord
100
AcDbBlockTableRecord
  2
*Paper_Space
340
1E
 70
     0
280
     1
281
     0
  0
BLOCK_RECORD
  5
23
330
1
100
AcDbSymbolTableRecord
100
AcDbBlockTableRecord
  2
*Paper_Space0
340
26
 70
     0
280
     1
281
     0
  0
ENDTAB
  0
ENDSEC
  0
SECTION
  2
BLOCKS
  0
BLOCK
  5
20
330
1F
100
AcDbEntity
  8
0
100
AcDbBlockBegin
  2
*Model_Space
 70
     0
 10
0.0
 20
0.0
 30
0.0
  3
*Model_Space
  1

  0
ENDBLK
  5
21
330
1F
100
AcDbEntity
  8
0
100
AcDbBlockEnd
  0
BLOCK
  5
1C
330
1B
100
AcDbEntity
 67
     1
  8
0
100
AcDbBlockBegin
  2
*Paper_Space
 70
     0
 10
0.0
 20
0.0
 30
0.0
  3
*Paper_Space
  1

  0
ENDBLK
  5
1D
330
1B
100
AcDbEntity
 67
     1
  8
0
100
AcDbBlockEnd
  0
BLOCK
  5
24
330
23
100
AcDbEntity
  8
0
100
AcDbBlockBegin
  2
*Paper_Space0
 70
     0
 10
0.0
 20
0.0
 30
0.0
  3
*Paper_Space0
  1

  0
ENDBLK
  5
25
330
23
100
AcDbEntity
  8
0
100
AcDbBlockEnd
  0
ENDSEC
  0
SECTION
  2
ENTITIES
  0
SPLINE
  5
41
330
1F
100
AcDbEntity
  8
Layer 1
370
    53
100
AcDbSpline
210
0.0
220
0.0
230
1.0
 70
    11
 71
     3
 72
   276
 73
   272
 74
     0
 42
0.0000000001
 43
0.0000000001
 12
1.0
 22
0.0
 32
0.0
 13
1.0
 23
0.0
 33
0.0
 40
0.0
 40
0.0
 40
0.0
 40
0.0
 40
0.0144927536231884
 40
0.0144927536231884
 40
0.0144927536231884
 40
0.0144927536231884
 40
0.0289855072463768
 40
0.0289855072463768
 40
0.0289855072463768
 40
0.0289855072463768
 40
0.0434782608695652
 40
0.0434782608695652
 40
0.0434782608695652
 40
0.0434782608695652
 40
0.0579710144927536
 40
0.0579710144927536
 40
0.0579710144927536
 40
0.0579710144927536
 40
0.072463768115942
 40
0.072463768115942
 40
0.072463768115942
 40
0.072463768115942
 40
0.0869565217391304
 40
0.0869565217391304
 40
0.0869565217391304
 40
0.0869565217391304
 40
0.1014492753623188
 40
0.1014492753623188
 40
0.1014492753623188
 40
0.1014492753623188
 40
0.1159420289855072
 40
0.1159420289855072
 40
0.1159420289855072
 40
0.1159420289855072
 40
0.1304347826086956
 40
0.1304347826086956
 40
0.1304347826086956
 40
0.1304347826086956
 40
0.1449275362318841
 40
0.1449275362318841
 40
0.1449275362318841
 40
0.1449275362318841
 40
0.1594202898550725
 40
0.1594202898550725
 40
0.1594202898550725
 40
0.1594202898550725
 40
0.1739130434782609
 40
0.1739130434782609
 40
0.1739130434782609
 40
0.1739130434782609
 40
0.1884057971014493
 40
0.1884057971014493
 40
0.1884057971014493
 40
0.1884057971014493
 40
0.2028985507246377
 40
0.2028985507246377
 40
0.2028985507246377
 40
0.2028985507246377
 40
0.2173913043478261
 40
0.2173913043478261
 40
0.2173913043478261
 40
0.2173913043478261
 40
0.2318840579710145
 40
0.2318840579710145
 40
0.2318840579710145
 40
0.2318840579710145
 40
0.2463768115942029
 40
0.2463768115942029
 40
0.2463768115942029
 40
0.2463768115942029
 40
0.2608695652173913
 40
0.2608695652173913
 40
0.2608695652173913
 40
0.2608695652173913
 40
0.2753623188405797
 40
0.2753623188405797
 40
0.2753623188405797
 40
0.2753623188405797
 40
0.2898550724637681
 40
0.2898550724637681
 40
0.2898550724637681
 40
0.2898550724637681
 40
0.3043478260869565
 40
0.3043478260869565
 40
0.3043478260869565
 40
0.3043478260869565
 40
0.3188405797101449
 40
0.3188405797101449
 40
0.3188405797101449
 40
0.3188405797101449
 40
0.3333333333333333
 40
0.3333333333333333
 40
0.3333333333333333
 40
0.3333333333333333
 40
0.3478260869565217
 40
0.3478260869565217
 40
0.3478260869565217
 40
0.3478260869565217
 40
0.3623188405797101
 40
0.3623188405797101
 40
0.3623188405797101
 40
0.3623188405797101
 40
0.3768115942028986
 40
0.3768115942028986
 40
0.3768115942028986
 40
0.3768115942028986
 40
0.391304347826087
 40
0.391304347826087
 40
0.391304347826087
 40
0.391304347826087
 40
0.4057971014492754
 40
0.4057971014492754
 40
0.4057971014492754
 40
0.4057971014492754
 40
0.4202898550724637
 40
0.4202898550724637
 40
0.4202898550724637
 40
0.4202898550724637
 40
0.4347826086956522
 40
0.4347826086956522
 40
0.4347826086956522
 40
0.4347826086956522
 40
0.4492753623188406
 40
0.4492753623188406
 40
0.4492753623188406
 40
0.4492753623188406
 40
0.463768115942029
 40
0.463768115942029
 40
0.463768115942029
 40
0.463768115942029
 40
0.4782608695652174
 40
0.4782608695652174
 40
0.4782608695652174
 40
0.4782608695652174
 40
0.4927536231884058
 40
0.4927536231884058
 40
0.4927536231884058
 40
0.4927536231884058
 40
0.5072463768115942
 40
0.5072463768115942
 40
0.5072463768115942
 40
0.5072463768115942
 40
0.5217391304347826
 40
0.5217391304347826
 40
0.5217391304347826
 40
0.5217391304347826
 40
0.5362318840579711
 40
0.5362318840579711
 40
0.5362318840579711
 40
0.5362318840579711
 40
0.5507246376811594
 40
0.5507246376811594
 40
0.5507246376811594
 40
0.5507246376811594
 40
0.5652173913043478
 40
0.5652173913043478
 40
0.5652173913043478
 40
0.5652173913043478
 40
0.5797101449275363
 40
0.5797101449275363
 40
0.5797101449275363
 40
0.5797101449275363
 40
0.5942028985507246
 40
0.5942028985507246
 40
0.5942028985507246
 40
0.5942028985507246
 40
0.6086956521739131
 40
0.6086956521739131
 40
0.6086956521739131
 40
0.6086956521739131
 40
0.6231884057971014
 40
0.6231884057971014
 40
0.6231884057971014
 40
0.6231884057971014
 40
0.6376811594202898
 40
0.6376811594202898
 40
0.6376811594202898
 40
0.6376811594202898
 40
0.6521739130434783
 40
0.6521739130434783
 40
0.6521739130434783
 40
0.6521739130434783
 40
0.6666666666666666
 40
0.6666666666666666
 40
0.6666666666666666
 40
0.6666666666666666
 40
0.6811594202898551
 40
0.6811594202898551
 40
0.6811594202898551
 40
0.6811594202898551
 40
0.6956521739130435
 40
0.6956521739130435
 40
0.6956521739130435
 40
0.6956521739130435
 40
0.7101449275362319
 40
0.7101449275362319
 40
0.7101449275362319
 40
0.7101449275362319
 40
0.7246376811594203
 40
0.7246376811594203
 40
0.7246376811594203
 40
0.7246376811594203
 40
0.7391304347826086
 40
0.7391304347826086
 40
0.7391304347826086
 40
0.7391304347826086
 40
0.7536231884057971
 40
0.7536231884057971
 40
0.7536231884057971
 40
0.7536231884057971
 40
0.7681159420289855
 40
0.7681159420289855
 40
0.7681159420289855
 40
0.7681159420289855
 40
0.782608695652174
 40
0.782608695652174
 40
0.782608695652174
 40
0.782608695652174
 40
0.7971014492753623
 40
0.7971014492753623
 40
0.7971014492753623
 40
0.7971014492753623
 40
0.8115942028985508
 40
0.8115942028985508
 40
0.8115942028985508
 40
0.8115942028985508
 40
0.8260869565217391
 40
0.8260869565217391
 40
0.8260869565217391
 40
0.8260869565217391
 40
0.8405797101449275
 40
0.8405797101449275
 40
0.8405797101449275
 40
0.8405797101449275
 40
0.855072463768116
 40
0.855072463768116
 40
0.855072463768116
 40
0.855072463768116
 40
0.8695652173913043
 40
0.8695652173913043
 40
0.8695652173913043
 40
0.8695652173913043
 40
0.8840579710144928
 40
0.8840579710144928
 40
0.8840579710144928
 40
0.8840579710144928
 40
0.8985507246376812
 40
0.8985507246376812
 40
0.8985507246376812
 40
0.8985507246376812
 40
0.9130434782608695
 40
0.9130434782608695
 40
0.9130434782608695
 40
0.9130434782608695
 40
0.927536231884058
 40
0.927536231884058
 40
0.927536231884058
 40
0.927536231884058
 40
0.9420289855072463
 40
0.9420289855072463
 40
0.9420289855072463
 40
0.9420289855072463
 40
0.9565217391304348
 40
0.9565217391304348
 40
0.9565217391304348
 40
0.9565217391304348
 40
0.9710144927536232
 40
0.9710144927536232
 40
0.9710144927536232
 40
0.9710144927536232
 40
1.0
 40
1.0
 40
1.0
 40
1.0
 10
-2.23124
 20
19.49617
 30
0.0
 10
-2.06956
 20
20.26233
 30
0.0
 10
-1.64337
 20
20.87186
 30
0.0
 10
-1.03744
 20
21.34444
 30
0.0
 10
-1.03744
 20
21.34444
 30
0.0
 10
-0.73359
 20
21.58137
 30
0.0
 10
-0.35644
 20
21.75137
 30
0.0
 10
0.03282
 20
21.56839
 30
0.0
 10
0.03282
 20
21.56839
 30
0.0
 10
0.41992
 20
21.38642
 30
0.0
 10
0.59945
 20
21.03735
 30
0.0
 10
0.6379
 20
20.60664
 30
0.0
 10
0.6379
 20
20.60664
 30
0.0
 10
0.70849
 20
19.81589
 30
0.0
 10
0.86058
 20
19.02422
 30
0.0
 10
0.51041
 20
18.25453
 30
0.0
 10
0.51041
 20
18.25453
 30
0.0
 10
0.97205
 20
17.91823
 30
0.0
 10
1.00066
 20
17.47927
 30
0.0
 10
0.86361
 20
17.00496
 30
0.0
 10
0.86361
 20
17.00496
 30
0.0
 10
0.95251
 20
16.95003
 30
0.0
 10
1.01813
 20
16.90643
 30
0.0
 10
1.0865
 20
16.86769
 30
0.0
 10
1.0865
 20
16.86769
 30
0.0
 10
1.54669
 20
16.60702
 30
0.0
 10
1.66555
 20
16.3779
 30
0.0
 10
1.57897
 20
15.85377
 30
0.0
 10
1.57897
 20
15.85377
 30
0.0
 10
1.50464
 20
15.40352
 30
0.0
 10
1.29513
 20
15.0118
 30
0.0
 10
1.00821
 20
14.66071
 30
0.0
 10
1.00821
 20
14.66071
 30
0.0
 10
0.92619
 20
14.56035
 30
0.0
 10
0.83683
 20
14.46591
 30
0.0
 10
0.72684
 20
14.34159
 30
0.0
 10
0.72684
 20
14.34159
 30
0.0
 10
1.10537
 20
14.28081
 30
0.0
 10
1.44749
 20
14.291
 30
0.0
 10
1.69416
 20
14.00024
 30
0.0
 10
1.69416
 20
14.00024
 30
0.0
 10
2.06415
 20
13.56403
 30
0.0
 10
2.11513
 20
12.92812
 30
0.0
 10
1.80112
 20
12.39824
 30
0.0
 10
1.80112
 20
12.39824
 30
0.0
 10
1.36523
 20
11.6626
 30
0.0
 10
0.69484
 20
11.33335
 30
0.0
 10
-0.13274
 20
11.25673
 30
0.0
 10
-0.13274
 20
11.25673
 30
0.0
 10
-0.61802
 20
11.21182
 30
0.0
 10
-1.10101
 20
11.14257
 30
0.0
 10
-1.59543
 20
11.08302
 30
0.0
 10
-1.59543
 20
11.08302
 30
0.0
 10
-1.59543
 20
11.08302
 30
0.0
 10
-1.6094
 20
10.72481
 30
0.0
 10
-1.6094
 20
10.72481
 30
0.0
 10
-1.6094
 20
10.72481
 30
0.0
 10
-1.30082
 20
10.7864
 30
0.0
 10
-1.02361
 20
10.87382
 30
0.0
 10
-0.74206
 20
10.89125
 30
0.0
 10
-0.74206
 20
10.89125
 30
0.0
 10
-0.14946
 20
10.92797
 30
0.0
 10
0.37695
 20
10.43232
 30
0.0
 10
0.38598
 20
9.83694
 30
0.0
 10
0.38598
 20
9.83694
 30
0.0
 10
0.39611
 20
9.17082
 30
0.0
 10
0.02224
 20
8.73775
 30
0.0
 10
-0.53932
 20
8.45066
 30
0.0
 10
-0.53932
 20
8.45066
 30
0.0
 10
-0.7489
 20
8.34349
 30
0.0
 10
-0.98262
 20
8.28352
 30
0.0
 10
-1.24286
 20
8.18827
 30
0.0
 10
-1.24286
 20
8.18827
 30
0.0
 10
-0.88222
 20
7.83753
 30
0.0
 10
-1.10718
 20
7.53016
 30
0.0
 10
-1.31814
 20
7.18235
 30
0.0
 10
-1.31814
 20
7.18235
 30
0.0
 10
-1.14676
 20
7.21294
 30
0.0
 10
-1.05709
 20
7.23718
 30
0.0
 10
-0.96611
 20
7.24388
 30
0.0
 10
-0.96611
 20
7.24388
 30
0.0
 10
-0.3866
 20
7.28653
 30
0.0
 10
0.14091
 20
7.15752
 30
0.0
 10
0.58633
 20
6.76382
 30
0.0
 10
0.58633
 20
6.76382
 30
0.0
 10
1.05316
 20
6.35125
 30
0.0
 10
1.09108
 20
5.79047
 30
0.0
 10
0.65868
 20
5.33606
 30
0.0
 10
0.65868
 20
5.33606
 30
0.0
 10
0.24128
 20
4.89745
 30
0.0
 10
-0.28747
 20
4.7078
 30
0.0
 10
-0.89026
 20
4.71757
 30
0.0
 10
-0.89026
 20
4.71757
 30
0.0
 10
-1.02968
 20
4.71982
 30
0.0
 10
-1.16917
 20
4.71834
 30
0.0
 10
-1.30142
 20
4.71855
 30
0.0
 10
-1.30142
 20
4.71855
 30
0.0
 10
-1.35864
 20
4.49659
 30
0.0
 10
-1.40687
 20
4.30961
 30
0.0
 10
-1.44239
 20
4.17186
 30
0.0
 10
-1.44239
 20
4.17186
 30
0.0
 10
-1.12472
 20
4.06415
 30
0.0
 10
-0.82859
 20
3.99734
 30
0.0
 10
-0.56373
 20
3.86698
 30
0.0
 10
-0.56373
 20
3.86698
 30
0.0
 10
-0.00006
 20
3.58963
 30
0.0
 10
0.1516
 20
3.18831
 30
0.0
 10
-0.04109
 20
2.60005
 30
0.0
 10
-0.04109
 20
2.60005
 30
0.0
 10
-0.3032
 20
1.79988
 30
0.0
 10
-1.1794
 20
1.20182
 30
0.0
 10
-2.01319
 20
1.25258
 30
0.0
 10
-2.01319
 20
1.25258
 30
0.0
 10
-2.11983
 20
1.25907
 30
0.0
 10
-2.2269
 20
1.25848
 30
0.0
 10
-2.36459
 20
1.26193
 30
0.0
 10
-2.36459
 20
1.26193
 30
0.0
 10
-2.32913
 20
0.93798
 30
0.0
 10
-2.36321
 20
0.62898
 30
0.0
 10
-2.64258
 20
0.48155
 30
0.0
 10
-2.64258
 20
0.48155
 30
0.0
 10
-2.87721
 20
0.35769
 30
0.0
 10
-3.1619
 20
0.32873
 30
0.0
 10
-3.46518
 20
0.24678
 30
0.0
 10
-3.46518
 20
0.24678
 30
0.0
 10
-3.44388
 20
-0.24231
 30
0.0
 10
-3.42842
 20
-0.76587
 30
0.0
 10
-3.39713
 20
-1.28851
 30
0.0
 10
-3.39713
 20
-1.28851
 30
0.0
 10
-3.25641
 20
-3.63995
 30
0.0
 10
-2.24577
 20
-18.17111
 30
0.0
 10
-2.10635
 20
-20.52259
 30
0.0
 10
-2.10635
 20
-20.52259
 30
0.0
 10
-2.09136
 20
-20.77617
 30
0.0
 10
-2.10424
 20
-21.03214
 30
0.0
 10
-2.11644
 20
-21.28639
 30
0.0
 10
-2.11644
 20
-21.28639
 30
0.0
 10
-2.12555
 20
-21.47523
 30
0.0
 10
-2.1942
 20
-21.62918
 30
0.0
 10
-2.44029
 20
-21.6465
 30
0.0
 10
-2.44029
 20
-21.6465
 30
0.0
 10
-2.74354
 20
-21.40912
 30
0.0
 10
-2.74584
 20
-21.03454
 30
0.0
 10
-2.77861
 20
-20.70378
 30
0.0
 10
-2.77861
 20
-20.70378
 30
0.0
 10
-2.89778
 20
-19.50042
 30
0.0
 10
-3.85603
 20
-6.11416
 30
0.0
 10
-3.93791
 20
-4.90759
 30
0.0
 10
-3.93791
 20
-4.90759
 30
0.0
 10
-4.03591
 20
-3.46413
 30
0.0
 10
-4.11098
 20
-2.01911
 30
0.0
 10
-4.19713
 20
-0.57488
 30
0.0
 10
-4.19713
 20
-0.57488
 30
0.0
 10
-4.20641
 20
-0.4193
 30
0.0
 10
-4.22337
 20
-0.26422
 30
0.0
 10
-4.23689
 20
-0.10794
 30
0.0
 10
-4.23689
 20
-0.10794
 30
0.0
 10
-5.2156
 20
-0.23868
 30
0.0
 10
-5.52237
 20
0.42426
 30
0.0
 10
-5.12391
 20
1.30952
 30
0.0
 10
-5.12391
 20
1.30952
 30
0.0
 10
-5.35297
 20
1.38015
 30
0.0
 10
-5.58376
 20
1.43934
 30
0.0
 10
-5.80555
 20
1.52253
 30
0.0
 10
-5.80555
 20
1.52253
 30
0.0
 10
-6.14771
 20
1.65083
 30
0.0
 10
-6.50115
 20
1.76408
 30
0.0
 10
-6.81873
 20
1.93979
 30
0.0
 10
-6.81873
 20
1.93979
 30
0.0
 10
-7.4932
 20
2.31293
 30
0.0
 10
-7.84421
 20
2.85695
 30
0.0
 10
-7.68434
 20
3.67472
 30
0.0
 10
-7.68434
 20
3.67472
 30
0.0
 10
-7.58016
 20
4.20745
 30
0.0
 10
-7.1539
 20
4.63692
 30
0.0
 10
-6.60734
 20
4.61999
 30
0.0
 10
-6.60734
 20
4.61999
 30
0.0
 10
-6.26091
 20
4.60926
 30
0.0
 10
-5.91618
 20
4.54329
 30
0.0
 10
-5.54446
 20
4.49895
 30
0.0
 10
-5.54446
 20
4.49895
 30
0.0
 10
-5.53123
 20
4.62697
 30
0.0
 10
-5.51549
 20
4.77916
 30
0.0
 10
-5.50219
 20
4.90786
 30
0.0
 10
-5.50219
 20
4.90786
 30
0.0
 10
-5.87681
 20
5.11208
 30
0.0
 10
-6.2414
 20
5.27774
 30
0.0
 10
-6.56995
 20
5.49731
 30
0.0
 10
-6.56995
 20
5.49731
 30
0.0
 10
-7.12257
 20
5.8666
 30
0.0
 10
-7.57893
 20
6.331
 30
0.0
 10
-7.76674
 20
6.99612
 30
0.0
 10
-7.76674
 20
6.99612
 30
0.0
 10
-7.983
 20
7.76197
 30
0.0
 10
-7.4243
 20
8.42928
 30
0.0
 10
-6.63867
 20
8.33742
 30
0.0
 10
-6.63867
 20
8.33742
 30
0.0
 10
-6.35729
 20
8.30451
 30
0.0
 10
-6.08086
 20
8.22933
 30
0.0
 10
-5.76981
 20
8.16692
 30
0.0
 10
-5.76981
 20
8.16692
 30
0.0
 10
-5.83423
 20
8.52386
 30
0.0
 10
-5.8095
 20
8.84849
 30
0.0
 10
-5.49094
 20
9.1141
 30
0.0
 10
-5.49094
 20
9.1141
 30
0.0
 10
-5.73683
 20
9.25753
 30
0.0
 10
-5.95767
 20
9.38111
 30
0.0
 10
-6.17328
 20
9.51326
 30
0.0
 10
-6.17328
 20
9.51326
 30
0.0
 10
-6.66562
 20
9.81503
 30
0.0
 10
-7.03473
 20
10.22295
 30
0.0
 10
-7.19496
 20
10.78661
 30
0.0
 10
-7.19496
 20
10.78661
 30
0.0
 10
-7.39333
 20
11.48416
 30
0.0
 10
-6.90099
 20
12.21466
 30
0.0
 10
-6.20454
 20
12.22478
 30
0.0
 10
-6.20454
 20
12.22478
 30
0.0
 10
-5.69403
 20
12.23219
 30
0.0
 10
-5.18251
 20
12.17529
 30
0.0
 10
-4.76372
 20
11.81888
 30
0.0
 10
-4.76372
 20
11.81888
 30
0.0
 10
-4.69518
 20
11.76053
 30
0.0
 10
-4.60893
 20
11.72296
 30
0.0
 10
-4.46122
 20
11.6337
 30
0.0
 10
-4.46122
 20
11.6337
 30
0.0
 10
-4.48873
 20
11.78166
 30
0.0
 10
-4.47603
 20
11.887
 30
0.0
 10
-4.52221
 20
11.93191
 30
0.0
 10
-4.52221
 20
11.93191
 30
0.0
 10
-4.72696
 20
12.13126
 30
0.0
 10
-4.97052
 20
12.29372
 30
0.0
 10
-5.15922
 20
12.50581
 30
0.0
 10
-5.15922
 20
12.50581
 30
0.0
 10
-5.49514
 20
12.88335
 30
0.0
 10
-5.83987
 20
13.26283
 30
0.0
 10
-6.10908
 20
13.68708
 30
0.0
 10
-6.10908
 20
13.68708
 30
0.0
 10
-6.3556
 20
14.07563
 30
0.0
 10
-6.23304
 20
14.48069
 30
0.0
 10
-5.95435
 20
14.83964
 30
0.0
 10
-5.95435
 20
14.83964
 30
0.0
 10
-5.68606
 20
15.18522
 30
0.0
 10
-5.35674
 20
15.35339
 30
0.0
 10
-4.91464
 20
15.26086
 30
0.0
 10
-4.91464
 20
15.26086
 30
0.0
 10
-4.81749
 20
15.2405
 30
0.0
 10
-4.71737
 20
15.23415
 30
0.0
 10
-4.54218
 20
15.21147
 30
0.0
 10
-4.54218
 20
15.21147
 30
0.0
 10
-4.67437
 20
15.37378
 30
0.0
 10
-4.75924
 20
15.46561
 30
0.0
 10
-4.83012
 20
15.56718
 30
0.0
 10
-4.83012
 20
15.56718
 30
0.0
 10
-5.12557
 20
15.99019
 30
0.0
 10
-5.25532
 20
16.44616
 30
0.0
 10
-5.12589
 20
16.96354
 30
0.0
 10
-5.12589
 20
16.96354
 30
0.0
 10
-4.9962
 20
17.48188
 30
0.0
 10
-4.49717
 20
17.81539
 30
0.0
 10
-3.97114
 20
17.7218
 30
0.0
 10
-3.97114
 20
17.7218
 30
0.0
 10
-3.77891
 20
17.68758
 30
0.0
 10
-3.59098
 20
17.62863
 30
0.0
 10
-3.40585
 20
17.58274
 30
0.0
 10
-3.40585
 20
17.58274
 30
0.0
 10
-3.16677
 20
18.18994
 30
0.0
 10
-3.0936
 20
18.24226
 30
0.0
 10
-2.45889
 20
18.2533
 30
0.0
 10
-2.45889
 20
18.2533
 30
0.0
 10
-2.38071
 20
18.684
 30
0.0
 10
-2.31643
 20
19.09231
 30
0.0
 10
-2.23124
 20
19.49617
 30
0.0
  0
SPLINE
  5
42
330
1F
100
AcDbEntity
  8
Layer 1
370
    53
100
AcDbSpline
210
0.0
220
0.0
230
1.0
 70
    11
 71
     3
 72
    20
 73
    16
 74
     0
 42
0.0000000001
 43
0.0000000001
 12
1.0
 22
0.0
 32
0.0
 13
1.0
 23
0.0
 33
0.0
 40
0.0
 40
0.0
 40
0.0
 40
0.0
 40
0.2
 40
0.2
 40
0.2
 40
0.2
 40
0.4
 40
0.4
 40
0.4
 40
0.4
 40
0.6
 40
0.6
 40
0.6
 40
0.6
 40
1.0
 40
1.0
 40
1.0
 40
1.0
 10
-0.84609
 20
17.29307
 30
0.0
 10
-0.5276
 20
17.87653
 30
0.0
 10
-0.24157
 20
18.48193
 30
0.0
 10
0.00354
 20
19.09968
 30
0.0
 10
0.00354
 20
19.09968
 30
0.0
 10
0.14677
 20
19.46064
 30
0.0
 10
0.18811
 20
19.86436
 30
0.0
 10
-0.08677
 20
20.30802
 30
0.0
 10
-0.08677
 20
20.30802
 30
0.0
 10
-0.88479
 20
18.94742
 30
0.0
 10
-1.36369
 20
17.53726
 30
0.0
 10
-1.68217
 20
16.05002
 30
0.0
 10
-1.68217
 20
16.05002
 30
0.0
 10
-1.40062
 20
16.46281
 30
0.0
 10
-1.08432
 20
16.85662
 30
0.0
 10
-0.84609
 20
17.29307
 30
0.0
  0
SPLINE
  5
43
330
1F
100
AcDbEntity
  8
Layer 1
370
    53
100
AcDbSpline
210
0.0
220
0.0
230
1.0
 70
    11
 71
     3
 72
    20
 73
    16
 74
     0
 42
0.0000000001
 43
0.0000000001
 12
1.0
 22
0.0
 32
0.0
 13
1.0
 23
0.0
 33
0.0
 40
0.0
 40
0.0
 40
0.0
 40
0.0
 40
0.2
 40
0.2
 40
0.2
 40
0.2
 40
0.4
 40
0.4
 40
0.4
 40
0.4
 40
0.6
 40
0.6
 40
0.6
 40
0.6
 40
1.0
 40
1.0
 40
1.0
 40
1.0
 10
-1.99869
 20
11.55056
 30
0.0
 10
-1.87331
 20
11.50833
 30
0.0
 10
-1.80515
 20
11.46088
 30
0.0
 10
-1.74395
 20
11.46853
 30
0.0
 10
-1.74395
 20
11.46853
 30
0.0
 10
-1.06563
 20
11.55338
 30
0.0
 10
-0.38289
 20
11.62256
 30
0.0
 10
0.2574
 20
11.88746
 30
0.0
 10
0.2574
 20
11.88746
 30
0.0
 10
0.71721
 20
12.07768
 30
0.0
 10
1.05087
 20
12.38653
 30
0.0
 10
1.21233
 20
12.94586
 30
0.0
 10
1.21233
 20
12.94586
 30
0.0
 10
0.01691
 20
12.72347
 30
0.0
 10
-0.98385
 20
12.20707
 30
0.0
 10
-1.99869
 20
11.55056
 30
0.0
  0
SPLINE
  5
44
330
1F
100
AcDbEntity
  8
Layer 1
370
    53
100
AcDbSpline
210
0.0
220
0.0
230
1.0
 70
    11
 71
     3
 72
    20
 73
    16
 74
     0
 42
0.0000000001
 43
0.0000000001
 12
1.0
 22
0.0
 32
0.0
 13
1.0
 23
0.0
 33
0.0
 40
0.0
 40
0.0
 40
0.0
 40
0.0
 40
0.2
 40
0.2
 40
0.2
 40
0.2
 40
0.4
 40
0.4
 40
0.4
 40
0.4
 40
0.6
 40
0.6
 40
0.6
 40
0.6
 40
1.0
 40
1.0
 40
1.0
 40
1.0
 10
-1.11219
 20
20.56438
 30
0.0
 10
-1.38581
 20
20.26551
 30
0.0
 10
-1.58036
 20
19.91283
 30
0.0
 10
-1.64048
 20
19.51307
 30
0.0
 10
-1.64048
 20
19.51307
 30
0.0
 10
-1.74603
 20
18.81118
 30
0.0
 10
-1.81979
 20
18.1045
 30
0.0
 10
-1.8339
 20
17.38818
 30
0.0
 10
-1.8339
 20
17.38818
 30
0.0
 10
-1.35081
 20
18.49964
 30
0.0
 10
-0.86772
 20
19.6111
 30
0.0
 10
-0.37185
 20
20.75195
 30
0.0
 10
-0.37185
 20
20.75195
 30
0.0
 10
-0.66131
 20
20.89395
 30
0.0
 10
-0.90596
 20
20.78966
 30
0.0
 10
-1.11219
 20
20.56438
 30
0.0
  0
SPLINE
  5
45
330
1F
100
AcDbEntity
  8
Layer 1
370
    53
100
AcDbSpline
210
0.0
220
0.0
230
1.0
 70
    11
 71
     3
 72
    20
 73
    16
 74
     0
 42
0.0000000001
 43
0.0000000001
 12
1.0
 22
0.0
 32
0.0
 13
1.0
 23
0.0
 33
0.0
 40
0.0
 40
0.0
 40
0.0
 40
0.0
 40
0.2
 40
0.2
 40
0.2
 40
0.2
 40
0.4
 40
0.4
 40
0.4
 40
0.4
 40
0.6
 40
0.6
 40
0.6
 40
0.6
 40
1.0
 40
1.0
 40
1.0
 40
1.0
 10
-7.07086
 20
3.42467
 30
0.0
 10
-7.11594
 20
2.96465
 30
0.0
 10
-6.93652
 20
2.65195
 30
0.0
 10
-6.62223
 20
2.44624
 30
0.0
 10
-6.62223
 20
2.44624
 30
0.0
 10
-5.95961
 20
2.01247
 30
0.0
 10
-5.21962
 20
1.77868
 30
0.0
 10
-4.42873
 20
1.71458
 30
0.0
 10
-4.42873
 20
1.71458
 30
0.0
 10
-4.40255
 20
1.71246
 30
0.0
 10
-4.37412
 20
1.73882
 30
0.0
 10
-4.26119
 20
1.79276
 30
0.0
 10
-4.26119
 20
1.79276
 30
0.0
 10
-5.14698
 20
2.46109
 30
0.0
 10
-6.0454
 20
3.00405
 30
0.0
 10
-7.07086
 20
3.42467
 30
0.0
  0
SPLINE
  5
46
330
1F
100
AcDbEntity
  8
Layer 1
370
    53
100
AcDbSpline
210
0.0
220
0.0
230
1.0
 70
    11
 71
     3
 72
    16
 73
    12
 74
     0
 42
0.0000000001
 43
0.0000000001
 12
1.0
 22
0.0
 32
0.0
 13
1.0
 23
0.0
 33
0.0
 40
0.0
 40
0.0
 40
0.0
 40
0.0
 40
0.25
 40
0.25
 40
0.25
 40
0.25
 40
0.5
 40
0.5
 40
0.5
 40
0.5
 40
1.0
 40
1.0
 40
1.0
 40
1.0
 10
-6.15367
 20
4.15732
 30
0.0
 10
-6.5328
 20
4.27836
 30
0.0
 10
-6.70781
 20
4.21341
 30
0.0
 10
-6.95285
 20
3.86413
 30
0.0
 10
-6.95285
 20
3.86413
 30
0.0
 10
-6.06851
 20
3.36498
 30
0.0
 10
-5.18589
 20
2.86682
 30
0.0
 10
-4.22955
 20
2.32707
 30
0.0
 10
-4.22955
 20
2.32707
 30
0.0
 10
-4.69119
 20
3.21219
 30
0.0
 10
-5.24911
 20
3.86857
 30
0.0
 10
-6.15367
 20
4.15732
 30
0.0
  0
SPLINE
  5
47
330
1F
100
AcDbEntity
  8
Layer 1
370
    53
100
AcDbSpline
210
0.0
220
0.0
230
1.0
 70
    11
 71
     3
 72
    20
 73
    16
 74
     0
 42
0.0000000001
 43
0.0000000001
 12
1.0
 22
0.0
 32
0.0
 13
1.0
 23
0.0
 33
0.0
 40
0.0
 40
0.0
 40
0.0
 40
0.0
 40
0.2
 40
0.2
 40
0.2
 40
0.2
 40
0.4
 40
0.4
 40
0.4
 40
0.4
 40
0.6
 40
0.6
 40
0.6
 40
0.6
 40
1.0
 40
1.0
 40
1.0
 40
1.0
 10
0.76681
 20
13.7449
 30
0.0
 10
0.47016
 20
13.74815
 30
0.0
 10
0.16042
 20
13.74116
 30
0.0
 10
-0.12134
 20
13.66027
 30
0.0
 10
-0.12134
 20
13.66027
 30
0.0
 10
-0.61051
 20
13.5198
 30
0.0
 10
-1.51552
 20
12.67832
 30
0.0
 10
-1.81436
 20
12.13229
 30
0.0
 10
-1.81436
 20
12.13229
 30
0.0
 10
-0.84362
 20
12.69356
 30
0.0
 10
0.13043
 20
13.13463
 30
0.0
 10
1.19261
 20
13.3554
 30
0.0
 10
1.19261
 20
13.3554
 30
0.0
 10
1.13398
 20
13.64923
 30
0.0
 10
0.95572
 20
13.74282
 30
0.0
 10
0.76681
 20
13.7449
 30
0.0
  0
SPLINE
  5
48
330
1F
100
AcDbEntity
  8
Layer 1
370
    53
100
AcDbSpline
210
0.0
220
0.0
230
1.0
 70
    11
 71
     3
 72
    20
 73
    16
 74
     0
 42
0.0000000001
 43
0.0000000001
 12
1.0
 22
0.0
 32
0.0
 13
1.0
 23
0.0
 33
0.0
 40
0.0
 40
0.0
 40
0.0
 40
0.0
 40
0.2
 40
0.2
 40
0.2
 40
0.2
 40
0.4
 40
0.4
 40
0.4
 40
0.4
 40
0.6
 40
0.6
 40
0.6
 40
0.6
 40
1.0
 40
1.0
 40
1.0
 40
1.0
 10
-3.97752
 20
9.38651
 30
0.0
 10
-4.00659
 20
9.59546
 30
0.0
 10
-4.00493
 20
9.72899
 30
0.0
 10
-4.04505
 20
9.84851
 30
0.0
 10
-4.04505
 20
9.84851
 30
0.0
 10
-4.30042
 20
10.60839
 30
0.0
 10
-4.81855
 20
11.15573
 30
0.0
 10
-5.48896
 20
11.56428
 30
0.0
 10
-5.48896
 20
11.56428
 30
0.0
 10
-5.69199
 20
11.688
 30
0.0
 10
-5.92983
 20
11.7352
 30
0.0
 10
-6.27171
 20
11.63014
 30
0.0
 10
-6.27171
 20
11.63014
 30
0.0
 10
-5.49376
 20
10.86934
 30
0.0
 10
-4.77036
 20
10.16185
 30
0.0
 10
-3.97752
 20
9.38651
 30
0.0
  0
SPLINE
  5
49
330
1F
100
AcDbEntity
  8
Layer 1
370
    53
100
AcDbSpline
210
0.0
220
0.0
230
1.0
 70
    11
 71
     3
 72
    16
 73
    12
 74
     0
 42
0.0000000001
 43
0.0000000001
 12
1.0
 22
0.0
 32
0.0
 13
1.0
 23
0.0
 33
0.0
 40
0.0
 40
0.0
 40
0.0
 40
0.0
 40
0.25
 40
0.25
 40
0.25
 40
0.25
 40
0.5
 40
0.5
 40
0.5
 40
0.5
 40
1.0
 40
1.0
 40
1.0
 40
1.0
 10
-2.58825
 20
8.5518
 30
0.0
 10
-1.88922
 20
8.63785
 30
0.0
 10
-1.24498
 20
8.57632
 30
0.0
 10
-0.6479
 20
8.87396
 30
0.0
 10
-0.6479
 20
8.87396
 30
0.0
 10
-0.25992
 20
9.06735
 30
0.0
 10
-0.06659
 20
9.38316
 30
0.0
 10
-0.01629
 20
9.85038
 30
0.0
 10
-0.01629
 20
9.85038
 30
0.0
 10
-0.74248
 20
9.72288
 30
0.0
 10
-2.12819
 20
9.03232
 30
0.0
 10
-2.58825
 20
8.5518
 30
0.0
  0
SPLINE
  5
4A
330
1F
100
AcDbEntity
  8
Layer 1
370
    53
100
AcDbSpline
210
0.0
220
0.0
230
1.0
 70
    11
 71
     3
 72
    12
 73
     8
 74
     0
 42
0.0000000001
 43
0.0000000001
 12
1.0
 22
0.0
 32
0.0
 13
1.0
 23
0.0
 33
0.0
 40
0.0
 40
0.0
 40
0.0
 40
0.0
 40
0.3333333333333333
 40
0.3333333333333333
 40
0.3333333333333333
 40
0.3333333333333333
 40
1.0
 40
1.0
 40
1.0
 40
1.0
 10
-6.99268
 20
7.64785
 30
0.0
 10
-6.04247
 20
7.00932
 30
0.0
 10
-5.12828
 20
6.39499
 30
0.0
 10
-4.17286
 20
5.75297
 30
0.0
 10
-4.17286
 20
5.75297
 30
0.0
 10
-4.44859
 20
6.77214
 30
0.0
 10
-6.10089
 20
7.94996
 30
0.0
 10
-6.99268
 20
7.64785
 30
0.0
  0
SPLINE
  5
4B
330
1F
100
AcDbEntity
  8
Layer 1
370
    53
100
AcDbSpline
210
0.0
220
0.0
230
1.0
 70
    11
 71
     3
 72
    16
 73
    12
 74
     0
 42
0.0000000001
 43
0.0000000001
 12
1.0
 22
0.0
 32
0.0
 13
1.0
 23
0.0
 33
0.0
 40
0.0
 40
0.0
 40
0.0
 40
0.0
 40
0.25
 40
0.25
 40
0.25
 40
0.25
 40
0.5
 40
0.5
 40
0.5
 40
0.5
 40
1.0
 40
1.0
 40
1.0
 40
1.0
 10
-5.69555
 20
13.75034
 30
0.0
 10
-5.17235
 20
12.94053
 30
0.0
 10
-4.42072
 20
12.3594
 30
0.0
 10
-3.66098
 20
11.78141
 30
0.0
 10
-3.66098
 20
11.78141
 30
0.0
 10
-4.23022
 20
12.69871
 30
0.0
 10
-4.85234
 20
13.57222
 30
0.0
 10
-5.55017
 20
14.44915
 30
0.0
 10
-5.55017
 20
14.44915
 30
0.0
 10
-5.76702
 20
14.20369
 30
0.0
 10
-5.83867
 20
13.97185
 30
0.0
 10
-5.69555
 20
13.75034
 30
0.0
  0
SPLINE
  5
4C
330
1F
100
AcDbEntity
  8
Layer 1
370
    53
100
AcDbSpline
210
0.0
220
0.0
230
1.0
 70
    11
 71
     3
 72
    16
 73
    12
 74
     0
 42
0.0000000001
 43
0.0000000001
 12
1.0
 22
0.0
 32
0.0
 13
1.0
 23
0.0
 33
0.0
 40
0.0
 40
0.0
 40
0.0
 40
0.0
 40
0.25
 40
0.25
 40
0.25
 40
0.25
 40
0.5
 40
0.5
 40
0.5
 40
0.5
 40
1.0
 40
1.0
 40
1.0
 40
1.0
 10
-6.22475
 20
10.24295
 30
0.0
 10
-5.72501
 20
9.63497
 30
0.0
 10
-5.06394
 20
9.27733
 30
0.0
 10
-4.30395
 20
9.01514
 30
0.0
 10
-4.30395
 20
9.01514
 30
0.0
 10
-4.48919
 20
9.40443
 30
0.0
 10
-5.65167
 20
10.58479
 30
0.0
 10
-6.40855
 20
11.16419
 30
0.0
 10
-6.40855
 20
11.16419
 30
0.0
 10
-6.55834
 20
10.78062
 30
0.0
 10
-6.43275
 20
10.49603
 30
0.0
 10
-6.22475
 20
10.24295
 30
0.0
  0
SPLINE
  5
4D
330
1F
100
AcDbEntity
  8
Layer 1
370
    53
100
AcDbSpline
210
0.0
220
0.0
230
1.0
 70
    11
 71
     3
 72
    20
 73
    16
 74
     0
 42
0.0000000001
 43
0.0000000001
 12
1.0
 22
0.0
 32
0.0
 13
1.0
 23
0.0
 33
0.0
 40
0.0
 40
0.0
 40
0.0
 40
0.0
 40
0.2
 40
0.2
 40
0.2
 40
0.2
 40
0.4
 40
0.4
 40
0.4
 40
0.4
 40
0.6
 40
0.6
 40
0.6
 40
0.6
 40
1.0
 40
1.0
 40
1.0
 40
1.0
 10
-2.71409
 20
5.34699
 30
0.0
 10
-2.23399
 20
5.19738
 30
0.0
 10
-1.85602
 20
5.15812
 30
0.0
 10
-1.48903
 20
5.23156
 30
0.0
 10
-1.48903
 20
5.23156
 30
0.0
 10
-1.00982
 20
5.32752
 30
0.0
 10
-0.54076
 20
5.47696
 30
0.0
 10
-0.07086
 20
5.61521
 30
0.0
 10
-0.07086
 20
5.61521
 30
0.0
 10
0.08711
 20
5.66171
 30
0.0
 10
0.21623
 20
5.75717
 30
0.0
 10
0.16867
 20
5.99039
 30
0.0
 10
0.16867
 20
5.99039
 30
0.0
 10
-0.82806
 20
6.10405
 30
0.0
 10
-1.73551
 20
5.83513
 30
0.0
 10
-2.71409
 20
5.34699
 30
0.0
  0
SPLINE
  5
4E
330
1F
100
AcDbEntity
  8
Layer 1
370
    53
100
AcDbSpline
210
0.0
220
0.0
230
1.0
 70
    11
 71
     3
 72
    16
 73
    12
 74
     0
 42
0.0000000001
 43
0.0000000001
 12
1.0
 22
0.0
 32
0.0
 13
1.0
 23
0.0
 33
0.0
 40
0.0
 40
0.0
 40
0.0
 40
0.0
 40
0.25
 40
0.25
 40
0.25
 40
0.25
 40
0.5
 40
0.5
 40
0.5
 40
0.5
 40
1.0
 40
1.0
 40
1.0
 40
1.0
 10
-2.12212
 20
2.43467
 30
0.0
 10
-2.4881
 20
2.3578
 30
0.0
 10
-2.84694
 20
2.24682
 30
0.0
 10
-3.23994
 20
2.14271
 30
0.0
 10
-3.23994
 20
2.14271
 30
0.0
 10
-2.12544
 20
1.41673
 30
0.0
 10
-1.00826
 20
1.77046
 30
0.0
 10
-0.76125
 20
2.67001
 30
0.0
 10
-0.76125
 20
2.67001
 30
0.0
 10
-1.25232
 20
2.58654
 30
0.0
 10
-1.69029
 20
2.52537
 30
0.0
 10
-2.12212
 20
2.43467
 30
0.0
  0
SPLINE
  5
4F
330
1F
100
AcDbEntity
  8
Layer 1
370
    53
100
AcDbSpline
210
0.0
220
0.0
230
1.0
 70
    11
 71
     3
 72
    12
 73
     8
 74
     0
 42
0.0000000001
 43
0.0000000001
 12
1.0
 22
0.0
 32
0.0
 13
1.0
 23
0.0
 33
0.0
 40
0.0
 40
0.0
 40
0.0
 40
0.0
 40
0.3333333333333333
 40
0.3333333333333333
 40
0.3333333333333333
 40
0.3333333333333333
 40
1.0
 40
1.0
 40
1.0
 40
1.0
 10
-3.36831
 20
6.74212
 30
0.0
 10
-2.79103
 20
6.57099
 30
0.0
 10
-2.02144
 20
6.9799
 30
0.0
 10
-1.48518
 20
7.76045
 30
0.0
 10
-1.48518
 20
7.76045
 30
0.0
 10
-2.26708
 20
8.04768
 30
0.0
 10
-3.21193
 20
7.51809
 30
0.0
 10
-3.36831
 20
6.74212
 30
0.0
  0
SPLINE
  5
50
330
1F
100
AcDbEntity
  8
Layer 1
370
    53
100
AcDbSpline
210
0.0
220
0.0
230
1.0
 70
    11
 71
     3
 72
    12
 73
     8
 74
     0
 42
0.0000000001
 43
0.0000000001
 12
1.0
 22
0.0
 32
0.0
 13
1.0
 23
0.0
 33
0.0
 40
0.0
 40
0.0
 40
0.0
 40
0.0
 40
0.3333333333333333
 40
0.3333333333333333
 40
0.3333333333333333
 40
0.3333333333333333
 40
1.0
 40
1.0
 40
1.0
 40
1.0
 10
-2.7567
 20
14.63158
 30
0.0
 10
-2.47063
 20
15.58492
 30
0.0
 10
-3.27655
 20
17.03509
 30
0.0
 10
-4.22503
 20
17.25374
 30
0.0
 10
-4.22503
 20
17.25374
 30
0.0
 10
-3.73001
 20
16.36968
 30
0.0
 10
-3.24826
 20
15.50943
 30
0.0
 10
-2.7567
 20
14.63158
 30
0.0
  0
SPLINE
  5
51
330
1F
100
AcDbEntity
  8
Layer 1
370
    53
100
AcDbSpline
210
0.0
220
0.0
230
1.0
 70
    11
 71
     3
 72
    12
 73
     8
 74
     0
 42
0.0000000001
 43
0.0000000001
 12
1.0
 22
0.0
 32
0.0
 13
1.0
 23
0.0
 33
0.0
 40
0.0
 40
0.0
 40
0.0
 40
0.0
 40
0.3333333333333333
 40
0.3333333333333333
 40
0.3333333333333333
 40
0.3333333333333333
 40
1.0
 40
1.0
 40
1.0
 40
1.0
 10
-1.40479
 20
14.2136
 30
0.0
 10
-0.22093
 20
14.19946
 30
0.0
 10
0.86686
 20
14.9653
 30
0.0
 10
0.88732
 20
15.88401
 30
0.0
 10
0.88732
 20
15.88401
 30
0.0
 10
0.13731
 20
15.29579
 30
0.0
 10
-0.70188
 20
14.88487
 30
0.0
 10
-1.40479
 20
14.2136
 30
0.0
  0
SPLINE
  5
52
330
1F
100
AcDbEntity
  8
Layer 1
370
    53
100
AcDbSpline
210
0.0
220
0.0
230
1.0
 70
    11
 71
     3
 72
    16
 73
    12
 74
     0
 42
0.0000000001
 43
0.0000000001
 12
1.0
 22
0.0
 32
0.0
 13
1.0
 23
0.0
 33
0.0
 40
0.0
 40
0.0
 40
0.0
 40
0.0
 40
0.25
 40
0.25
 40
0.25
 40
0.25
 40
0.5
 40
0.5
 40
0.5
 40
0.5
 40
1.0
 40
1.0
 40
1.0
 40
1.0
 10
-6.73723
 20
6.47038
 30
0.0
 10
-6.07602
 20
5.97077
 30
0.0
 10
-5.36119
 20
5.57037
 30
0.0
 10
-4.52119
 20
5.36297
 30
0.0
 10
-4.52119
 20
5.36297
 30
0.0
 10
-4.74058
 20
5.73889
 30
0.0
 10
-6.54864
 20
6.97792
 30
0.0
 10
-7.1219
 20
7.15025
 30
0.0
 10
-7.1219
 20
7.15025
 30
0.0
 10
-7.11181
 20
6.84291
 30
0.0
 10
-6.94717
 20
6.62899
 30
0.0
 10
-6.73723
 20
6.47038
 30
0.0
  0
SPLINE
  5
53
330
1F
100
AcDbEntity
  8
Layer 1
370
    53
100
AcDbSpline
210
0.0
220
0.0
230
1.0
 70
    11
 71
     3
 72
    16
 73
    12
 74
     0
 42
0.0000000001
 43
0.0000000001
 12
1.0
 22
0.0
 32
0.0
 13
1.0
 23
0.0
 33
0.0
 40
0.0
 40
0.0
 40
0.0
 40
0.0
 40
0.25
 40
0.25
 40
0.25
 40
0.25
 40
0.5
 40
0.5
 40
0.5
 40
0.5
 40
1.0
 40
1.0
 40
1.0
 40
1.0
 10
-4.62536
 20
17.10247
 30
0.0
 10
-4.83026
 20
16.66389
 30
0.0
 10
-4.77988
 20
16.29665
 30
0.0
 10
-4.57266
 20
15.96412
 30
0.0
 10
-4.57266
 20
15.96412
 30
0.0
 10
-4.23576
 20
15.42367
 30
0.0
 10
-3.7817
 20
14.9858
 30
0.0
 10
-3.25422
 20
14.61217
 30
0.0
 10
-3.25422
 20
14.61217
 30
0.0
 10
-3.63035
 20
15.46907
 30
0.0
 10
-4.08117
 20
16.27958
 30
0.0
 10
-4.62536
 20
17.10247
 30
0.0
  0
SPLINE
  5
54
330
1F
100
AcDbEntity
  8
Layer 1
370
    53
100
AcDbSpline
210
0.0
220
0.0
230
1.0
 70
    11
 71
     3
 72
    16
 73
    12
 74
     0
 42
0.0000000001
 43
0.0000000001
 12
1.0
 22
0.0
 32
0.0
 13
1.0
 23
0.0
 33
0.0
 40
0.0
 40
0.0
 40
0.0
 40
0.0
 40
0.25
 40
0.25
 40
0.25
 40
0.25
 40
0.5
 40
0.5
 40
0.5
 40
0.5
 40
1.0
 40
1.0
 40
1.0
 40
1.0
 10
0.02813
 20
6.39012
 30
0.0
 10
-0.19014
 20
6.77839
 30
0.0
 10
-0.48686
 20
6.88729
 30
0.0
 10
-0.80528
 20
6.84362
 30
0.0
 10
-0.80528
 20
6.84362
 30
0.0
 10
-1.65903
 20
6.7266
 30
0.0
 10
-2.39881
 20
6.37294
 30
0.0
 10
-2.94124
 20
5.69035
 30
0.0
 10
-2.94124
 20
5.69035
 30
0.0
 10
-2.01379
 20
6.14286
 30
0.0
 10
-1.06249
 20
6.43972
 30
0.0
 10
0.02813
 20
6.39012
 30
0.0
  0
SPLINE
  5
55
330
1F
100
AcDbEntity
  8
Layer 1
370
    53
100
AcDbSpline
210
0.0
220
0.0
230
1.0
 70
    11
 71
     3
 72
    12
 73
     8
 74
     0
 42
0.0000000001
 43
0.0000000001
 12
1.0
 22
0.0
 32
0.0
 13
1.0
 23
0.0
 33
0.0
 40
0.0
 40
0.0
 40
0.0
 40
0.0
 40
0.3333333333333333
 40
0.3333333333333333
 40
0.3333333333333333
 40
0.3333333333333333
 40
1.0
 40
1.0
 40
1.0
 40
1.0
 10
-5.24594
 20
14.74489
 30
0.0
 10
-4.69109
 20
13.90605
 30
0.0
 10
-4.07062
 20
13.16395
 30
0.0
 10
-3.49203
 20
12.38212
 30
0.0
 10
-3.49203
 20
12.38212
 30
0.0
 10
-3.70927
 20
13.68567
 30
0.0
 10
-4.51459
 20
14.77861
 30
0.0
 10
-5.24594
 20
14.74489
 30
0.0
  0
SPLINE
  5
56
330
1F
100
AcDbEntity
  8
Layer 1
370
    53
100
AcDbSpline
210
0.0
220
0.0
230
1.0
 70
    11
 71
     3
 72
    12
 73
     8
 74
     0
 42
0.0000000001
 43
0.0000000001
 12
1.0
 22
0.0
 32
0.0
 13
1.0
 23
0.0
 33
0.0
 40
0.0
 40
0.0
 40
0.0
 40
0.0
 40
0.3333333333333333
 40
0.3333333333333333
 40
0.3333333333333333
 40
0.3333333333333333
 40
1.0
 40
1.0
 40
1.0
 40
1.0
 10
0.64556
 20
16.18284
 30
0.0
 10
-0.07654
 20
16.49294
 30
0.0
 10
-1.16049
 20
15.71951
 30
0.0
 10
-1.72077
 20
14.51784
 30
0.0
 10
-1.72077
 20
14.51784
 30
0.0
 10
-0.89827
 20
15.09654
 30
0.0
 10
-0.13905
 20
15.63078
 30
0.0
 10
0.64556
 20
16.18284
 30
0.0
  0
SPLINE
  5
57
330
1F
100
AcDbEntity
  8
Layer 1
370
    53
100
AcDbSpline
210
0.0
220
0.0
230
1.0
 70
    11
 71
     3
 72
    12
 73
     8
 74
     0
 42
0.0000000001
 43
0.0000000001
 12
1.0
 22
0.0
 32
0.0
 13
1.0
 23
0.0
 33
0.0
 40
0.0
 40
0.0
 40
0.0
 40
0.0
 40
0.3333333333333333
 40
0.3333333333333333
 40
0.3333333333333333
 40
0.3333333333333333
 40
1.0
 40
1.0
 40
1.0
 40
1.0
 10
-3.50113
 20
3.57707
 30
0.0
 10
-2.90899
 20
3.45219
 30
0.0
 10
-2.28271
 20
3.81354
 30
0.0
 10
-1.8574
 20
4.54531
 30
0.0
 10
-1.8574
 20
4.54531
 30
0.0
 10
-2.57975
 20
4.76547
 30
0.0
 10
-3.23768
 20
4.36539
 30
0.0
 10
-3.50113
 20
3.57707
 30
0.0
  0
SPLINE
  5
58
330
1F
100
AcDbEntity
  8
Layer 1
370
    53
100
AcDbSpline
210
0.0
220
0.0
230
1.0
 70
    11
 71
     3
 72
    16
 73
    12
 74
     0
 42
0.0000000001
 43
0.0000000001
 12
1.0
 22
0.0
 32
0.0
 13
1.0
 23
0.0
 33
0.0
 40
0.0
 40
0.0
 40
0.0
 40
0.0
 40
0.25
 40
0.25
 40
0.25
 40
0.25
 40
0.5
 40
0.5
 40
0.5
 40
0.5
 40
1.0
 40
1.0
 40
1.0
 40
1.0
 10
-5.14681
 20
8.52979
 30
0.0
 10
-5.15256
 20
8.45511
 30
0.0
 10
-5.18476
 20
8.37143
 30
0.0
 10
-5.15958
 20
8.31202
 30
0.0
 10
-5.15958
 20
8.31202
 30
0.0
 10
-4.92258
 20
7.75234
 30
0.0
 10
-4.54183
 20
7.29655
 30
0.0
 10
-4.07986
 20
6.83586
 30
0.0
 10
-4.07986
 20
6.83586
 30
0.0
 10
-3.87303
 20
7.61405
 30
0.0
 10
-4.38869
 20
8.41193
 30
0.0
 10
-5.14681
 20
8.52979
 30
0.0
  0
SPLINE
  5
59
330
1F
100
AcDbEntity
  8
Layer 1
370
    53
100
AcDbSpline
210
0.0
220
0.0
230
1.0
 70
    11
 71
     3
 72
    16
 73
    12
 74
     0
 42
0.0000000001
 43
0.0000000001
 12
1.0
 22
0.0
 32
0.0
 13
1.0
 23
0.0
 33
0.0
 40
0.0
 40
0.0
 40
0.0
 40
0.0
 40
0.25
 40
0.25
 40
0.25
 40
0.25
 40
0.5
 40
0.5
 40
0.5
 40
0.5
 40
1.0
 40
1.0
 40
1.0
 40
1.0
 10
-1.15435
 20
10.41549
 30
0.0
 10
-1.47576
 20
10.32148
 30
0.0
 10
-2.10022
 20
9.71847
 30
0.0
 10
-2.32649
 20
9.31966
 30
0.0
 10
-2.32649
 20
9.31966
 30
0.0
 10
-1.61289
 20
9.64256
 30
0.0
 10
-0.95298
 20
9.94115
 30
0.0
 10
-0.2718
 20
10.24933
 30
0.0
 10
-0.2718
 20
10.24933
 30
0.0
 10
-0.53759
 20
10.61294
 30
0.0
 10
-0.86264
 20
10.50083
 30
0.0
 10
-1.15435
 20
10.41549
 30
0.0
  0
SPLINE
  5
5A
330
1F
100
AcDbEntity
  8
Layer 1
370
    53
100
AcDbSpline
210
0.0
220
0.0
230
1.0
 70
    11
 71
     3
 72
    12
 73
     8
 74
     0
 42
0.0000000001
 43
0.0000000001
 12
1.0
 22
0.0
 32
0.0
 13
1.0
 23
0.0
 33
0.0
 40
0.0
 40
0.0
 40
0.0
 40
0.0
 40
0.3333333333333333
 40
0.3333333333333333
 40
0.3333333333333333
 40
0.3333333333333333
 40
1.0
 40
1.0
 40
1.0
 40
1.0
 10
-0.80453
 20
3.06628
 30
0.0
 10
-1.28999
 20
3.56448
 30
0.0
 10
-2.17815
 20
3.39931
 30
0.0
 10
-2.79374
 20
2.67834
 30
0.0
 10
-2.79374
 20
2.67834
 30
0.0
 10
-2.08925
 20
2.81574
 30
0.0
 10
-1.457
 20
2.93904
 30
0.0
 10
-0.80453
 20
3.06628
 30
0.0
  0
SPLINE
  5
5B
330
1F
100
AcDbEntity
  8
Layer 1
370
    53
100
AcDbSpline
210
0.0
220
0.0
230
1.0
 70
    11
 71
     3
 72
    12
 73
     8
 74
     0
 42
0.0000000001
 43
0.0000000001
 12
1.0
 22
0.0
 32
0.0
 13
1.0
 23
0.0
 33
0.0
 40
0.0
 40
0.0
 40
0.0
 40
0.0
 40
0.3333333333333333
 40
0.3333333333333333
 40
0.3333333333333333
 40
0.3333333333333333
 40
1.0
 40
1.0
 40
1.0
 40
1.0
 10
-5.0996
 20
4.77394
 30
0.0
 10
-5.13523
 20
4.13884
 30
0.0
 10
-4.64897
 20
3.86582
 30
0.0
 10
-4.27294
 20
3.45935
 30
0.0
 10
-4.27294
 20
3.45935
 30
0.0
 10
-4.15966
 20
4.296
 30
0.0
 10
-4.43109
 20
4.71781
 30
0.0
 10
-5.0996
 20
4.77394
 30
0.0
  0
SPLINE
  5
5C
330
1F
100
AcDbEntity
  8
Layer 1
370
    53
100
AcDbSpline
210
0.0
220
0.0
230
1.0
 70
    11
 71
     3
 72
    16
 73
    12
 74
     0
 42
0.0000000001
 43
0.0000000001
 12
1.0
 22
0.0
 32
0.0
 13
1.0
 23
0.0
 33
0.0
 40
0.0
 40
0.0
 40
0.0
 40
0.0
 40
0.25
 40
0.25
 40
0.25
 40
0.25
 40
0.5
 40
0.5
 40
0.5
 40
0.5
 40
1.0
 40
1.0
 40
1.0
 40
1.0
 10
-2.89178
 20
10.33248
 30
0.0
 10
-2.92991
 20
10.10364
 30
0.0
 10
-2.95934
 20
9.87334
 30
0.0
 10
-2.99708
 20
9.61328
 30
0.0
 10
-2.99708
 20
9.61328
 30
0.0
 10
-2.52436
 20
9.98913
 30
0.0
 10
-2.19469
 20
10.4688
 30
0.0
 10
-2.09281
 20
10.90656
 30
0.0
 10
-2.09281
 20
10.90656
 30
0.0
 10
-2.57192
 20
10.92893
 30
0.0
 10
-2.82193
 20
10.75141
 30
0.0
 10
-2.89178
 20
10.33248
 30
0.0
  0
SPLINE
  5
5D
330
1F
100
AcDbEntity
  8
Layer 1
370
    53
100
AcDbSpline
210
0.0
220
0.0
230
1.0
 70
    11
 71
     3
 72
    32
 73
    28
 74
     0
 42
0.0000000001
 43
0.0000000001
 12
1.0
 22
0.0
 32
0.0
 13
1.0
 23
0.0
 33
0.0
 40
0.0
 40
0.0
 40
0.0
 40
0.0
 40
0.125
 40
0.125
 40
0.125
 40
0.125
 40
0.25
 40
0.25
 40
0.25
 40
0.25
 40
0.375
 40
0.375
 40
0.375
 40
0.375
 40
0.5
 40
0.5
 40
0.5
 40
0.5
 40
0.625
 40
0.625
 40
0.625
 40
0.625
 40
0.75
 40
0.75
 40
0.75
 40
0.75
 40
1.0
 40
1.0
 40
1.0
 40
1.0
 10
-1.78363
 20
12.94875
 30
0.0
 10
-1.76222
 20
12.97225
 30
0.0
 10
-1.72497
 20
12.99162
 30
0.0
 10
-1.71975
 20
13.01779
 30
0.0
 10
-1.71975
 20
13.01779
 30
0.0
 10
-1.69353
 20
13.15001
 30
0.0
 10
-1.65501
 20
13.28576
 30
0.0
 10
-1.66686
 20
13.41604
 30
0.0
 10
-1.66686
 20
13.41604
 30
0.0
 10
-1.6705
 20
13.45608
 30
0.0
 10
-1.82371
 20
13.51726
 30
0.0
 10
-1.90153
 20
13.5084
 30
0.0
 10
-1.90153
 20
13.5084
 30
0.0
 10
-2.05294
 20
13.49119
 30
0.0
 10
-2.23448
 20
13.47993
 30
0.0
 10
-2.27615
 20
13.27737
 30
0.0
 10
-2.27615
 20
13.27737
 30
0.0
 10
-2.34261
 20
12.9544
 30
0.0
 10
-2.40198
 20
12.62998
 30
0.0
 10
-2.46442
 20
12.30617
 30
0.0
 10
-2.46442
 20
12.30617
 30
0.0
 10
-2.44047
 20
12.2971
 30
0.0
 10
-2.41652
 20
12.28804
 30
0.0
 10
-2.39263
 20
12.27901
 30
0.0
 10
-2.39263
 20
12.27901
 30
0.0
 10
-2.18968
 20
12.50228
 30
0.0
 10
-1.98676
 20
12.72562
 30
0.0
 10
-1.78363
 20
12.94875
 30
0.0
  0
SPLINE
  5
5E
330
1F
100
AcDbEntity
  8
Layer 1
370
    53
100
AcDbSpline
210
0.0
220
0.0
230
1.0
 70
    11
 71
     3
 72
    20
 73
    16
 74
     0
 42
0.0000000001
 43
0.0000000001
 12
1.0
 22
0.0
 32
0.0
 13
1.0
 23
0.0
 33
0.0
 40
0.0
 40
0.0
 40
0.0
 40
0.0
 40
0.2
 40
0.2
 40
0.2
 40
0.2
 40
0.4
 40
0.4
 40
0.4
 40
0.4
 40
0.6
 40
0.6
 40
0.6
 40
0.6
 40
1.0
 40
1.0
 40
1.0
 40
1.0
 10
-3.24763
 20
0.8308
 30
0.0
 10
-3.18028
 20
0.77115
 30
0.0
 10
-3.02993
 20
0.72596
 30
0.0
 10
-2.96671
 20
0.76152
 30
0.0
 10
-2.96671
 20
0.76152
 30
0.0
 10
-2.89256
 20
0.80318
 30
0.0
 10
-2.83668
 20
0.93949
 30
0.0
 10
-2.83495
 20
1.03587
 30
0.0
 10
-2.83495
 20
1.03587
 30
0.0
 10
-2.82973
 20
1.31901
 30
0.0
 10
-3.04474
 20
1.50672
 30
0.0
 10
-3.43414
 20
1.58621
 30
0.0
 10
-3.43414
 20
1.58621
 30
0.0
 10
-3.57878
 20
1.28324
 30
0.0
 10
-3.4769
 20
1.03393
 30
0.0
 10
-3.24763
 20
0.8308
 30
0.0
  0
SPLINE
  5
5F
330
1F
100
AcDbEntity
  8
Layer 1
370
    53
100
AcDbSpline
210
0.0
220
0.0
230
1.0
 70
    11
 71
     3
 72
    12
 73
     8
 74
     0
 42
0.0000000001
 43
0.0000000001
 12
1.0
 22
0.0
 32
0.0
 13
1.0
 23
0.0
 33
0.0
 40
0.0
 40
0.0
 40
0.0
 40
0.0
 40
0.3333333333333333
 40
0.3333333333333333
 40
0.3333333333333333
 40
0.3333333333333333
 40
1.0
 40
1.0
 40
1.0
 40
1.0
 10
-4.06131
 20
11.43897
 30
0.0
 10
-4.18146
 20
11.15753
 30
0.0
 10
-4.12827
 20
11.01267
 30
0.0
 10
-3.665
 20
10.3962
 30
0.0
 10
-3.665
 20
10.3962
 30
0.0
 10
-3.41583
 20
11.07141
 30
0.0
 10
-3.45979
 20
11.1789
 30
0.0
 10
-4.06131
 20
11.43897
 30
0.0
  0
SPLINE
  5
60
330
1F
100
AcDbEntity
  8
Layer 1
370
    53
100
AcDbSpline
210
0.0
220
0.0
230
1.0
 70
    11
 71
     3
 72
    20
 73
    16
 74
     0
 42
0.0000000001
 43
0.0000000001
 12
1.0
 22
0.0
 32
0.0
 13
1.0
 23
0.0
 33
0.0
 40
0.0
 40
0.0
 40
0.0
 40
0.0
 40
0.2
 40
0.2
 40
0.2
 40
0.2
 40
0.4
 40
0.4
 40
0.4
 40
0.4
 40
0.6
 40
0.6
 40
0.6
 40
0.6
 40
1.0
 40
1.0
 40
1.0
 40
1.0
 10
-2.49035
 20
17.57582
 30
0.0
 10
-2.49349
 20
17.73584
 30
0.0
 10
-2.59428
 20
17.8645
 30
0.0
 10
-2.75804
 20
17.81194
 30
0.0
 10
-2.75804
 20
17.81194
 30
0.0
 10
-2.84126
 20
17.78523
 30
0.0
 10
-2.94039
 20
17.6299
 30
0.0
 10
-2.93503
 20
17.53839
 30
0.0
 10
-2.93503
 20
17.53839
 30
0.0
 10
-2.91848
 20
17.25621
 30
0.0
 10
-2.82592
 20
16.99332
 30
0.0
 10
-2.51473
 20
16.80938
 30
0.0
 10
-2.51473
 20
16.80938
 30
0.0
 10
-2.50464
 20
17.08522
 30
0.0
 10
-2.48549
 20
17.33075
 30
0.0
 10
-2.49035
 20
17.57582
 30
0.0
  0
SPLINE
  5
61
330
1F
100
AcDbEntity
  8
Layer 1
370
    53
100
AcDbSpline
210
0.0
220
0.0
230
1.0
 70
    11
 71
     3
 72
    12
 73
     8
 74
     0
 42
0.0000000001
 43
0.0000000001
 12
1.0
 22
0.0
 32
0.0
 13
1.0
 23
0.0
 33
0.0
 40
0.0
 40
0.0
 40
0.0
 40
0.0
 40
0.3333333333333333
 40
0.3333333333333333
 40
0.3333333333333333
 40
0.3333333333333333
 40
1.0
 40
1.0
 40
1.0
 40
1.0
 10
-4.29389
 20
1.07228
 30
0.0
 10
-4.66555
 20
1.15
 30
0.0
 10
-4.80969
 20
0.99516
 30
0.0
 10
-4.81435
 20
0.51323
 30
0.0
 10
-4.81435
 20
0.51323
 30
0.0
 10
-4.37256
 20
0.39237
 30
0.0
 10
-4.26719
 20
0.50554
 30
0.0
 10
-4.29389
 20
1.07228
 30
0.0
  0
SPLINE
  5
62
330
1F
100
AcDbEntity
  8
Layer 1
370
    53
100
AcDbSpline
210
0.0
220
0.0
230
1.0
 70
    11
 71
     3
 72
    12
 73
     8
 74
     0
 42
0.0000000001
 43
0.0000000001
 12
1.0
 22
0.0
 32
0.0
 13
1.0
 23
0.0
 33
0.0
 40
0.0
 40
0.0
 40
0.0
 40
0.0
 40
0.3333333333333333
 40
0.3333333333333333
 40
0.3333333333333333
 40
0.3333333333333333
 40
1.0
 40
1.0
 40
1.0
 40
1.0
 10
0.30509
 20
17.64694
 30
0.0
 10
-0.02405
 20
17.55053
 30
0.0
 10
-0.0939
 20
17.23123
 30
0.0
 10
-0.34666
 20
16.91613
 30
0.0
 10
-0.34666
 20
16.91613
 30
0.0
 10
0.46748
 20
17.13774
 30
0.0
 10
0.57098
 20
17.26873
 30
0.0
 10
0.30509
 20
17.64694
 30
0.0
  0
SPLINE
  5
63
330
1F
100
AcDbEntity
  8
Layer 1
370
    53
100
AcDbSpline
210
0.0
220
0.0
230
1.0
 70
    11
 71
     3
 72
    12
 73
     8
 74
     0
 42
0.0000000001
 43
0.0000000001
 12
1.0
 22
0.0
 32
0.0
 13
1.0
 23
0.0
 33
0.0
 40
0.0
 40
0.0
 40
0.0
 40
0.0
 40
0.3333333333333333
 40
0.3333333333333333
 40
0.3333333333333333
 40
0.3333333333333333
 40
1.0
 40
1.0
 40
1.0
 40
1.0
 10
-3.49852
 20
14.08812
 30
0.0
 10
-3.32697
 20
13.72021
 30
0.0
 10
-3.18003
 20
13.40504
 30
0.0
 10
-3.02622
 20
13.07508
 30
0.0
 10
-3.02622
 20
13.07508
 30
0.0
 10
-2.88338
 20
13.48282
 30
0.0
 10
-2.97355
 20
13.68363
 30
0.0
 10
-3.49852
 20
14.08812
 30
0.0
  0
SPLINE
  5
64
330
1F
100
AcDbEntity
  8
Layer 1
370
    53
100
AcDbSpline
210
0.0
220
0.0
230
1.0
 70
    11
 71
     3
 72
    12
 73
     8
 74
     0
 42
0.0000000001
 43
0.0000000001
 12
1.0
 22
0.0
 32
0.0
 13
1.0
 23
0.0
 33
0.0
 40
0.0
 40
0.0
 40
0.0
 40
0.0
 40
0.3333333333333333
 40
0.3333333333333333
 40
0.3333333333333333
 40
0.3333333333333333
 40
1.0
 40
1.0
 40
1.0
 40
1.0
 10
-3.51944
 20
4.45722
 30
0.0
 10
-3.36634
 20
4.57815
 30
0.0
 10
-3.2526
 20
4.66797
 30
0.0
 10
-3.10528
 20
4.78431
 30
0.0
 10
-3.10528
 20
4.78431
 30
0.0
 10
-3.3845
 20
4.84728
 30
0.0
 10
-3.55172
 20
4.83056
 30
0.0
 10
-3.51944
 20
4.45722
 30
0.0
  0
SPLINE
  5
65
330
1F
100
AcDbEntity
  8
Layer 1
370
    53
100
AcDbSpline
210
0.0
220
0.0
230
1.0
 70
    11
 71
     3
 72
    20
 73
    16
 74
     0
 42
0.0000000001
 43
0.0000000001
 12
1.0
 22
0.0
 32
0.0
 13
1.0
 23
0.0
 33
0.0
 40
0.0
 40
0.0
 40
0.0
 40
0.0
 40
0.2
 40
0.2
 40
0.2
 40
0.2
 40
0.4
 40
0.4
 40
0.4
 40
0.4
 40
0.6
 40
0.6
 40
0.6
 40
0.6
 40
1.0
 40
1.0
 40
1.0
 40
1.0
 10
-4.02363
 20
8.52563
 30
0.0
 10
-4.02363
 20
8.52563
 30
0.0
 10
-4.0902
 20
8.47225
 30
0.0
 10
-4.0902
 20
8.47225
 30
0.0
 10
-4.0902
 20
8.47225
 30
0.0
 10
-4.04032
 20
8.40261
 30
0.0
 10
-3.99047
 20
8.33297
 30
0.0
 10
-3.94059
 20
8.26334
 30
0.0
 10
-3.94059
 20
8.26334
 30
0.0
 10
-3.91025
 20
8.2875
 30
0.0
 10
-3.87991
 20
8.31163
 30
0.0
 10
-3.84957
 20
8.3358
 30
0.0
 10
-3.84957
 20
8.3358
 30
0.0
 10
-3.9076
 20
8.39909
 30
0.0
 10
-3.9656
 20
8.46237
 30
0.0
 10
-4.02363
 20
8.52563
 30
0.0
  0
SPLINE
  5
66
330
1F
100
AcDbEntity
  8
Layer 1
370
    53
100
AcDbSpline
210
0.0
220
0.0
230
1.0
 70
    11
 71
     3
 72
   276
 73
   272
 74
     0
 42
0.0000000001
 43
0.0000000001
 12
1.0
 22
0.0
 32
0.0
 13
1.0
 23
0.0
 33
0.0
 40
0.0
 40
0.0
 40
0.0
 40
0.0
 40
0.0144927536231884
 40
0.0144927536231884
 40
0.0144927536231884
 40
0.0144927536231884
 40
0.0289855072463768
 40
0.0289855072463768
 40
0.0289855072463768
 40
0.0289855072463768
 40
0.0434782608695652
 40
0.0434782608695652
 40
0.0434782608695652
 40
0.0434782608695652
 40
0.0579710144927536
 40
0.0579710144927536
 40
0.0579710144927536
 40
0.0579710144927536
 40
0.072463768115942
 40
0.072463768115942
 40
0.072463768115942
 40
0.072463768115942
 40
0.0869565217391304
 40
0.0869565217391304
 40
0.0869565217391304
 40
0.0869565217391304
 40
0.1014492753623188
 40
0.1014492753623188
 40
0.1014492753623188
 40
0.1014492753623188
 40
0.1159420289855072
 40
0.1159420289855072
 40
0.1159420289855072
 40
0.1159420289855072
 40
0.1304347826086956
 40
0.1304347826086956
 40
0.1304347826086956
 40
0.1304347826086956
 40
0.1449275362318841
 40
0.1449275362318841
 40
0.1449275362318841
 40
0.1449275362318841
 40
0.1594202898550725
 40
0.1594202898550725
 40
0.1594202898550725
 40
0.1594202898550725
 40
0.1739130434782609
 40
0.1739130434782609
 40
0.1739130434782609
 40
0.1739130434782609
 40
0.1884057971014493
 40
0.1884057971014493
 40
0.1884057971014493
 40
0.1884057971014493
 40
0.2028985507246377
 40
0.2028985507246377
 40
0.2028985507246377
 40
0.2028985507246377
 40
0.2173913043478261
 40
0.2173913043478261
 40
0.2173913043478261
 40
0.2173913043478261
 40
0.2318840579710145
 40
0.2318840579710145
 40
0.2318840579710145
 40
0.2318840579710145
 40
0.2463768115942029
 40
0.2463768115942029
 40
0.2463768115942029
 40
0.2463768115942029
 40
0.2608695652173913
 40
0.2608695652173913
 40
0.2608695652173913
 40
0.2608695652173913
 40
0.2753623188405797
 40
0.2753623188405797
 40
0.2753623188405797
 40
0.2753623188405797
 40
0.2898550724637681
 40
0.2898550724637681
 40
0.2898550724637681
 40
0.2898550724637681
 40
0.3043478260869565
 40
0.3043478260869565
 40
0.3043478260869565
 40
0.3043478260869565
 40
0.3188405797101449
 40
0.3188405797101449
 40
0.3188405797101449
 40
0.3188405797101449
 40
0.3333333333333333
 40
0.3333333333333333
 40
0.3333333333333333
 40
0.3333333333333333
 40
0.3478260869565217
 40
0.3478260869565217
 40
0.3478260869565217
 40
0.3478260869565217
 40
0.3623188405797101
 40
0.3623188405797101
 40
0.3623188405797101
 40
0.3623188405797101
 40
0.3768115942028986
 40
0.3768115942028986
 40
0.3768115942028986
 40
0.3768115942028986
 40
0.391304347826087
 40
0.391304347826087
 40
0.391304347826087
 40
0.391304347826087
 40
0.4057971014492754
 40
0.4057971014492754
 40
0.4057971014492754
 40
0.4057971014492754
 40
0.4202898550724637
 40
0.4202898550724637
 40
0.4202898550724637
 40
0.4202898550724637
 40
0.4347826086956522
 40
0.4347826086956522
 40
0.4347826086956522
 40
0.4347826086956522
 40
0.4492753623188406
 40
0.4492753623188406
 40
0.4492753623188406
 40
0.4492753623188406
 40
0.463768115942029
 40
0.463768115942029
 40
0.463768115942029
 40
0.463768115942029
 40
0.4782608695652174
 40
0.4782608695652174
 40
0.4782608695652174
 40
0.4782608695652174
 40
0.4927536231884058
 40
0.4927536231884058
 40
0.4927536231884058
 40
0.4927536231884058
 40
0.5072463768115942
 40
0.5072463768115942
 40
0.5072463768115942
 40
0.5072463768115942
 40
0.5217391304347826
 40
0.5217391304347826
 40
0.5217391304347826
 40
0.5217391304347826
 40
0.5362318840579711
 40
0.5362318840579711
 40
0.5362318840579711
 40
0.5362318840579711
 40
0.5507246376811594
 40
0.5507246376811594
 40
0.5507246376811594
 40
0.5507246376811594
 40
0.5652173913043478
 40
0.5652173913043478
 40
0.5652173913043478
 40
0.5652173913043478
 40
0.5797101449275363
 40
0.5797101449275363
 40
0.5797101449275363
 40
0.5797101449275363
 40
0.5942028985507246
 40
0.5942028985507246
 40
0.5942028985507246
 40
0.5942028985507246
 40
0.6086956521739131
 40
0.6086956521739131
 40
0.6086956521739131
 40
0.6086956521739131
 40
0.6231884057971014
 40
0.6231884057971014
 40
0.6231884057971014
 40
0.6231884057971014
 40
0.6376811594202898
 40
0.6376811594202898
 40
0.6376811594202898
 40
0.6376811594202898
 40
0.6521739130434783
 40
0.6521739130434783
 40
0.6521739130434783
 40
0.6521739130434783
 40
0.6666666666666666
 40
0.6666666666666666
 40
0.6666666666666666
 40
0.6666666666666666
 40
0.6811594202898551
 40
0.6811594202898551
 40
0.6811594202898551
 40
0.6811594202898551
 40
0.6956521739130435
 40
0.6956521739130435
 40
0.6956521739130435
 40
0.6956521739130435
 40
0.7101449275362319
 40
0.7101449275362319
 40
0.7101449275362319
 40
0.7101449275362319
 40
0.7246376811594203
 40
0.7246376811594203
 40
0.7246376811594203
 40
0.7246376811594203
 40
0.7391304347826086
 40
0.7391304347826086
 40
0.7391304347826086
 40
0.7391304347826086
 40
0.7536231884057971
 40
0.7536231884057971
 40
0.7536231884057971
 40
0.7536231884057971
 40
0.7681159420289855
 40
0.7681159420289855
 40
0.7681159420289855
 40
0.7681159420289855
 40
0.782608695652174
 40
0.782608695652174
 40
0.782608695652174
 40
0.782608695652174
 40
0.7971014492753623
 40
0.7971014492753623
 40
0.7971014492753623
 40
0.7971014492753623
 40
0.8115942028985508
 40
0.8115942028985508
 40
0.8115942028985508
 40
0.8115942028985508
 40
0.8260869565217391
 40
0.8260869565217391
 40
0.8260869565217391
 40
0.8260869565217391
 40
0.8405797101449275
 40
0.8405797101449275
 40
0.8405797101449275
 40
0.8405797101449275
 40
0.855072463768116
 40
0.855072463768116
 40
0.855072463768116
 40
0.855072463768116
 40
0.8695652173913043
 40
0.8695652173913043
 40
0.8695652173913043
 40
0.8695652173913043
 40
0.8840579710144928
 40
0.8840579710144928
 40
0.8840579710144928
 40
0.8840579710144928
 40
0.8985507246376812
 40
0.8985507246376812
 40
0.8985507246376812
 40
0.8985507246376812
 40
0.9130434782608695
 40
0.9130434782608695
 40
0.9130434782608695
 40
0.9130434782608695
 40
0.927536231884058
 40
0.927536231884058
 40
0.927536231884058
 40
0.927536231884058
 40
0.9420289855072463
 40
0.9420289855072463
 40
0.9420289855072463
 40
0.9420289855072463
 40
0.9565217391304348
 40
0.9565217391304348
 40
0.9565217391304348
 40
0.9565217391304348
 40
0.9710144927536232
 40
0.9710144927536232
 40
0.9710144927536232
 40
0.9710144927536232
 40
1.0
 40
1.0
 40
1.0
 40
1.0
 10
2.23124
 20
-19.49617
 30
0.0
 10
2.06956
 20
-20.26233
 30
0.0
 10
1.64337
 20
-20.87186
 30
0.0
 10
1.03744
 20
-21.34444
 30
0.0
 10
1.03744
 20
-21.34444
 30
0.0
 10
0.73359
 20
-21.58137
 30
0.0
 10
0.35644
 20
-21.75137
 30
0.0
 10
-0.03282
 20
-21.56839
 30
0.0
 10
-0.03282
 20
-21.56839
 30
0.0
 10
-0.41992
 20
-21.38642
 30
0.0
 10
-0.59945
 20
-21.03735
 30
0.0
 10
-0.6379
 20
-20.60664
 30
0.0
 10
-0.6379
 20
-20.60664
 30
0.0
 10
-0.70849
 20
-19.81589
 30
0.0
 10
-0.86058
 20
-19.02422
 30
0.0
 10
-0.51041
 20
-18.25453
 30
0.0
 10
-0.51041
 20
-18.25453
 30
0.0
 10
-0.97205
 20
-17.91823
 30
0.0
 10
-1.00066
 20
-17.47927
 30
0.0
 10
-0.86361
 20
-17.00496
 30
0.0
 10
-0.86361
 20
-17.00496
 30
0.0
 10
-0.95251
 20
-16.95003
 30
0.0
 10
-1.01813
 20
-16.90643
 30
0.0
 10
-1.0865
 20
-16.86769
 30
0.0
 10
-1.0865
 20
-16.86769
 30
0.0
 10
-1.54669
 20
-16.60702
 30
0.0
 10
-1.66555
 20
-16.3779
 30
0.0
 10
-1.57897
 20
-15.85377
 30
0.0
 10
-1.57897
 20
-15.85377
 30
0.0
 10
-1.50464
 20
-15.40352
 30
0.0
 10
-1.29513
 20
-15.0118
 30
0.0
 10
-1.00821
 20
-14.66071
 30
0.0
 10
-1.00821
 20
-14.66071
 30
0.0
 10
-0.92619
 20
-14.56035
 30
0.0
 10
-0.83683
 20
-14.46591
 30
0.0
 10
-0.72684
 20
-14.34159
 30
0.0
 10
-0.72684
 20
-14.34159
 30
0.0
 10
-1.10537
 20
-14.28081
 30
0.0
 10
-1.44749
 20
-14.291
 30
0.0
 10
-1.69416
 20
-14.00024
 30
0.0
 10
-1.69416
 20
-14.00024
 30
0.0
 10
-2.06415
 20
-13.56403
 30
0.0
 10
-2.11513
 20
-12.92812
 30
0.0
 10
-1.80112
 20
-12.39824
 30
0.0
 10
-1.80112
 20
-12.39824
 30
0.0
 10
-1.36523
 20
-11.6626
 30
0.0
 10
-0.69484
 20
-11.33335
 30
0.0
 10
0.13274
 20
-11.25673
 30
0.0
 10
0.13274
 20
-11.25673
 30
0.0
 10
0.61802
 20
-11.21182
 30
0.0
 10
1.10101
 20
-11.14257
 30
0.0
 10
1.59543
 20
-11.08302
 30
0.0
 10
1.59543
 20
-11.08302
 30
0.0
 10
1.59543
 20
-11.08302
 30
0.0
 10
1.6094
 20
-10.72481
 30
0.0
 10
1.6094
 20
-10.72481
 30
0.0
 10
1.6094
 20
-10.72481
 30
0.0
 10
1.30082
 20
-10.7864
 30
0.0
 10
1.02361
 20
-10.87382
 30
0.0
 10
0.74206
 20
-10.89125
 30
0.0
 10
0.74206
 20
-10.89125
 30
0.0
 10
0.14946
 20
-10.92797
 30
0.0
 10
-0.37695
 20
-10.43232
 30
0.0
 10
-0.38598
 20
-9.83694
 30
0.0
 10
-0.38598
 20
-9.83694
 30
0.0
 10
-0.39611
 20
-9.17082
 30
0.0
 10
-0.02224
 20
-8.73775
 30
0.0
 10
0.53932
 20
-8.45066
 30
0.0
 10
0.53932
 20
-8.45066
 30
0.0
 10
0.7489
 20
-8.34349
 30
0.0
 10
0.98262
 20
-8.28352
 30
0.0
 10
1.24286
 20
-8.18827
 30
0.0
 10
1.24286
 20
-8.18827
 30
0.0
 10
0.88222
 20
-7.83753
 30
0.0
 10
1.10718
 20
-7.53016
 30
0.0
 10
1.31814
 20
-7.18235
 30
0.0
 10
1.31814
 20
-7.18235
 30
0.0
 10
1.14676
 20
-7.21294
 30
0.0
 10
1.05709
 20
-7.23718
 30
0.0
 10
0.96611
 20
-7.24388
 30
0.0
 10
0.96611
 20
-7.24388
 30
0.0
 10
0.3866
 20
-7.28653
 30
0.0
 10
-0.14091
 20
-7.15752
 30
0.0
 10
-0.58633
 20
-6.76382
 30
0.0
 10
-0.58633
 20
-6.76382
 30
0.0
 10
-1.05316
 20
-6.35125
 30
0.0
 10
-1.09108
 20
-5.79047
 30
0.0
 10
-0.65868
 20
-5.33606
 30
0.0
 10
-0.65868
 20
-5.33606
 30
0.0
 10
-0.24128
 20
-4.89745
 30
0.0
 10
0.28747
 20
-4.7078
 30
0.0
 10
0.89026
 20
-4.71757
 30
0.0
 10
0.89026
 20
-4.71757
 30
0.0
 10
1.02968
 20
-4.71982
 30
0.0
 10
1.16917
 20
-4.71834
 30
0.0
 10
1.30142
 20
-4.71855
 30
0.0
 10
1.30142
 20
-4.71855
 30
0.0
 10
1.35864
 20
-4.49659
 30
0.0
 10
1.40687
 20
-4.30961
 30
0.0
 10
1.44239
 20
-4.17186
 30
0.0
 10
1.44239
 20
-4.17186
 30
0.0
 10
1.12472
 20
-4.06415
 30
0.0
 10
0.82859
 20
-3.99734
 30
0.0
 10
0.56373
 20
-3.86698
 30
0.0
 10
0.56373
 20
-3.86698
 30
0.0
 10
0.00006
 20
-3.58963
 30
0.0
 10
-0.1516
 20
-3.18831
 30
0.0
 10
0.04109
 20
-2.60005
 30
0.0
 10
0.04109
 20
-2.60005
 30
0.0
 10
0.3032
 20
-1.79988
 30
0.0
 10
1.1794
 20
-1.20182
 30
0.0
 10
2.01319
 20
-1.25258
 30
0.0
 10
2.01319
 20
-1.25258
 30
0.0
 10
2.11983
 20
-1.25907
 30
0.0
 10
2.2269
 20
-1.25848
 30
0.0
 10
2.36459
 20
-1.26193
 30
0.0
 10
2.36459
 20
-1.26193
 30
0.0
 10
2.32913
 20
-0.93798
 30
0.0
 10
2.36321
 20
-0.62898
 30
0.0
 10
2.64258
 20
-0.48155
 30
0.0
 10
2.64258
 20
-0.48155
 30
0.0
 10
2.87721
 20
-0.35769
 30
0.0
 10
3.1619
 20
-0.32873
 30
0.0
 10
3.46518
 20
-0.24678
 30
0.0
 10
3.46518
 20
-0.24678
 30
0.0
 10
3.44388
 20
0.24231
 30
0.0
 10
3.42842
 20
0.76587
 30
0.0
 10
3.39713
 20
1.28851
 30
0.0
 10
3.39713
 20
1.28851
 30
0.0
 10
3.25641
 20
3.63995
 30
0.0
 10
2.24577
 20
18.17111
 30
0.0
 10
2.10635
 20
20.52259
 30
0.0
 10
2.10635
 20
20.52259
 30
0.0
 10
2.09136
 20
20.77617
 30
0.0
 10
2.10424
 20
21.03214
 30
0.0
 10
2.11644
 20
21.28639
 30
0.0
 10
2.11644
 20
21.28639
 30
0.0
 10
2.12555
 20
21.47523
 30
0.0
 10
2.1942
 20
21.62918
 30
0.0
 10
2.44029
 20
21.6465
 30
0.0
 10
2.44029
 20
21.6465
 30
0.0
 10
2.74354
 20
21.40912
 30
0.0
 10
2.74584
 20
21.03454
 30
0.0
 10
2.77861
 20
20.70378
 30
0.0
 10
2.77861
 20
20.70378
 30
0.0
 10
2.89778
 20
19.50042
 30
0.0
 10
3.85603
 20
6.11416
 30
0.0
 10
3.93791
 20
4.90759
 30
0.0
 10
3.93791
 20
4.90759
 30
0.0
 10
4.03591
 20
3.46413
 30
0.0
 10
4.11098
 20
2.01911
 30
0.0
 10
4.19713
 20
0.57488
 30
0.0
 10
4.19713
 20
0.57488
 30
0.0
 10
4.20641
 20
0.4193
 30
0.0
 10
4.22337
 20
0.26422
 30
0.0
 10
4.23689
 20
0.10794
 30
0.0
 10
4.23689
 20
0.10794
 30
0.0
 10
5.2156
 20
0.23868
 30
0.0
 10
5.52237
 20
-0.42426
 30
0.0
 10
5.12391
 20
-1.30952
 30
0.0
 10
5.12391
 20
-1.30952
 30
0.0
 10
5.35297
 20
-1.38015
 30
0.0
 10
5.58376
 20
-1.43934
 30
0.0
 10
5.80555
 20
-1.52253
 30
0.0
 10
5.80555
 20
-1.52253
 30
0.0
 10
6.14771
 20
-1.65083
 30
0.0
 10
6.50115
 20
-1.76408
 30
0.0
 10
6.81873
 20
-1.93979
 30
0.0
 10
6.81873
 20
-1.93979
 30
0.0
 10
7.4932
 20
-2.31293
 30
0.0
 10
7.84421
 20
-2.85695
 30
0.0
 10
7.68434
 20
-3.67472
 30
0.0
 10
7.68434
 20
-3.67472
 30
0.0
 10
7.58016
 20
-4.20745
 30
0.0
 10
7.1539
 20
-4.63692
 30
0.0
 10
6.60734
 20
-4.61999
 30
0.0
 10
6.60734
 20
-4.61999
 30
0.0
 10
6.26091
 20
-4.60926
 30
0.0
 10
5.91618
 20
-4.54329
 30
0.0
 10
5.54446
 20
-4.49895
 30
0.0
 10
5.54446
 20
-4.49895
 30
0.0
 10
5.53123
 20
-4.62697
 30
0.0
 10
5.51549
 20
-4.77916
 30
0.0
 10
5.50219
 20
-4.90786
 30
0.0
 10
5.50219
 20
-4.90786
 30
0.0
 10
5.87681
 20
-5.11208
 30
0.0
 10
6.2414
 20
-5.27774
 30
0.0
 10
6.56995
 20
-5.49731
 30
0.0
 10
6.56995
 20
-5.49731
 30
0.0
 10
7.12257
 20
-5.8666
 30
0.0
 10
7.57893
 20
-6.331
 30
0.0
 10
7.76674
 20
-6.99612
 30
0.0
 10
7.76674
 20
-6.99612
 30
0.0
 10
7.983
 20
-7.76197
 30
0.0
 10
7.4243
 20
-8.42928
 30
0.0
 10
6.63867
 20
-8.33742
 30
0.0
 10
6.63867
 20
-8.33742
 30
0.0
 10
6.35729
 20
-8.30451
 30
0.0
 10
6.08086
 20
-8.22933
 30
0.0
 10
5.76981
 20
-8.16692
 30
0.0
 10
5.76981
 20
-8.16692
 30
0.0
 10
5.83423
 20
-8.52386
 30
0.0
 10
5.8095
 20
-8.84849
 30
0.0
 10
5.49094
 20
-9.1141
 30
0.0
 10
5.49094
 20
-9.1141
 30
0.0
 10
5.73683
 20
-9.25753
 30
0.0
 10
5.95767
 20
-9.38111
 30
0.0
 10
6.17328
 20
-9.51326
 30
0.0
 10
6.17328
 20
-9.51326
 30
0.0
 10
6.66562
 20
-9.81503
 30
0.0
 10
7.03473
 20
-10.22295
 30
0.0
 10
7.19496
 20
-10.78661
 30
0.0
 10
7.19496
 20
-10.78661
 30
0.0
 10
7.39333
 20
-11.48416
 30
0.0
 10
6.90099
 20
-12.21466
 30
0.0
 10
6.20454
 20
-12.22478
 30
0.0
 10
6.20454
 20
-12.22478
 30
0.0
 10
5.69403
 20
-12.23219
 30
0.0
 10
5.18251
 20
-12.17529
 30
0.0
 10
4.76372
 20
-11.81888
 30
0.0
 10
4.76372
 20
-11.81888
 30
0.0
 10
4.69518
 20
-11.76053
 30
0.0
 10
4.60893
 20
-11.72296
 30
0.0
 10
4.46122
 20
-11.6337
 30
0.0
 10
4.46122
 20
-11.6337
 30
0.0
 10
4.48873
 20
-11.78166
 30
0.0
 10
4.47603
 20
-11.887
 30
0.0
 10
4.52221
 20
-11.93191
 30
0.0
 10
4.52221
 20
-11.93191
 30
0.0
 10
4.72696
 20
-12.13126
 30
0.0
 10
4.97052
 20
-12.29372
 30
0.0
 10
5.15922
 20
-12.50581
 30
0.0
 10
5.15922
 20
-12.50581
 30
0.0
 10
5.49514
 20
-12.88335
 30
0.0
 10
5.83987
 20
-13.26283
 30
0.0
 10
6.10908
 20
-13.68708
 30
0.0
 10
6.10908
 20
-13.68708
 30
0.0
 10
6.3556
 20
-14.07563
 30
0.0
 10
6.23304
 20
-14.48069
 30
0.0
 10
5.95435
 20
-14.83964
 30
0.0
 10
5.95435
 20
-14.83964
 30
0.0
 10
5.68606
 20
-15.18522
 30
0.0
 10
5.35674
 20
-15.35339
 30
0.0
 10
4.91464
 20
-15.26086
 30
0.0
 10
4.91464
 20
-15.26086
 30
0.0
 10
4.81749
 20
-15.2405
 30
0.0
 10
4.71737
 20
-15.23415
 30
0.0
 10
4.54218
 20
-15.21147
 30
0.0
 10
4.54218
 20
-15.21147
 30
0.0
 10
4.67437
 20
-15.37378
 30
0.0
 10
4.75924
 20
-15.46561
 30
0.0
 10
4.83012
 20
-15.56718
 30
0.0
 10
4.83012
 20
-15.56718
 30
0.0
 10
5.12557
 20
-15.99019
 30
0.0
 10
5.25532
 20
-16.44616
 30
0.0
 10
5.12589
 20
-16.96354
 30
0.0
 10
5.12589
 20
-16.96354
 30
0.0
 10
4.9962
 20
-17.48188
 30
0.0
 10
4.49717
 20
-17.81539
 30
0.0
 10
3.97114
 20
-17.7218
 30
0.0
 10
3.97114
 20
-17.7218
 30
0.0
 10
3.77891
 20
-17.68758
 30
0.0
 10
3.59098
 20
-17.62863
 30
0.0
 10
3.40585
 20
-17.58274
 30
0.0
 10
3.40585
 20
-17.58274
 30
0.0
 10
3.16677
 20
-18.18994
 30
0.0
 10
3.0936
 20
-18.24226
 30
0.0
 10
2.45889
 20
-18.2533
 30
0.0
 10
2.45889
 20
-18.2533
 30
0.0
 10
2.38071
 20
-18.684
 30
0.0
 10
2.31643
 20
-19.09231
 30
0.0
 10
2.23124
 20
-19.49617
 30
0.0
  0
SPLINE
  5
67
330
1F
100
AcDbEntity
  8
Layer 1
370
    53
100
AcDbSpline
210
0.0
220
0.0
230
1.0
 70
    11
 71
     3
 72
    20
 73
    16
 74
     0
 42
0.0000000001
 43
0.0000000001
 12
1.0
 22
0.0
 32
0.0
 13
1.0
 23
0.0
 33
0.0
 40
0.0
 40
0.0
 40
0.0
 40
0.0
 40
0.2
 40
0.2
 40
0.2
 40
0.2
 40
0.4
 40
0.4
 40
0.4
 40
0.4
 40
0.6
 40
0.6
 40
0.6
 40
0.6
 40
1.0
 40
1.0
 40
1.0
 40
1.0
 10
0.84609
 20
-17.29307
 30
0.0
 10
0.5276
 20
-17.87653
 30
0.0
 10
0.24157
 20
-18.48193
 30
0.0
 10
-0.00354
 20
-19.09968
 30
0.0
 10
-0.00354
 20
-19.09968
 30
0.0
 10
-0.14677
 20
-19.46064
 30
0.0
 10
-0.18811
 20
-19.86436
 30
0.0
 10
0.08677
 20
-20.30802
 30
0.0
 10
0.08677
 20
-20.30802
 30
0.0
 10
0.88479
 20
-18.94742
 30
0.0
 10
1.36369
 20
-17.53726
 30
0.0
 10
1.68217
 20
-16.05002
 30
0.0
 10
1.68217
 20
-16.05002
 30
0.0
 10
1.40062
 20
-16.46281
 30
0.0
 10
1.08432
 20
-16.85662
 30
0.0
 10
0.84609
 20
-17.29307
 30
0.0
  0
SPLINE
  5
68
330
1F
100
AcDbEntity
  8
Layer 1
370
    53
100
AcDbSpline
210
0.0
220
0.0
230
1.0
 70
    11
 71
     3
 72
    20
 73
    16
 74
     0
 42
0.0000000001
 43
0.0000000001
 12
1.0
 22
0.0
 32
0.0
 13
1.0
 23
0.0
 33
0.0
 40
0.0
 40
0.0
 40
0.0
 40
0.0
 40
0.2
 40
0.2
 40
0.2
 40
0.2
 40
0.4
 40
0.4
 40
0.4
 40
0.4
 40
0.6
 40
0.6
 40
0.6
 40
0.6
 40
1.0
 40
1.0
 40
1.0
 40
1.0
 10
1.99869
 20
-11.55056
 30
0.0
 10
1.87331
 20
-11.50833
 30
0.0
 10
1.80515
 20
-11.46088
 30
0.0
 10
1.74395
 20
-11.46853
 30
0.0
 10
1.74395
 20
-11.46853
 30
0.0
 10
1.06563
 20
-11.55338
 30
0.0
 10
0.38289
 20
-11.62256
 30
0.0
 10
-0.2574
 20
-11.88746
 30
0.0
 10
-0.2574
 20
-11.88746
 30
0.0
 10
-0.71721
 20
-12.07768
 30
0.0
 10
-1.05087
 20
-12.38653
 30
0.0
 10
-1.21233
 20
-12.94586
 30
0.0
 10
-1.21233
 20
-12.94586
 30
0.0
 10
-0.01691
 20
-12.72347
 30
0.0
 10
0.98385
 20
-12.20707
 30
0.0
 10
1.99869
 20
-11.55056
 30
0.0
  0
SPLINE
  5
69
330
1F
100
AcDbEntity
  8
Layer 1
370
    53
100
AcDbSpline
210
0.0
220
0.0
230
1.0
 70
    11
 71
     3
 72
    20
 73
    16
 74
     0
 42
0.0000000001
 43
0.0000000001
 12
1.0
 22
0.0
 32
0.0
 13
1.0
 23
0.0
 33
0.0
 40
0.0
 40
0.0
 40
0.0
 40
0.0
 40
0.2
 40
0.2
 40
0.2
 40
0.2
 40
0.4
 40
0.4
 40
0.4
 40
0.4
 40
0.6
 40
0.6
 40
0.6
 40
0.6
 40
1.0
 40
1.0
 40
1.0
 40
1.0
 10
1.11219
 20
-20.56438
 30
0.0
 10
1.38581
 20
-20.26551
 30
0.0
 10
1.58036
 20
-19.91283
 30
0.0
 10
1.64048
 20
-19.51307
 30
0.0
 10
1.64048
 20
-19.51307
 30
0.0
 10
1.74603
 20
-18.81118
 30
0.0
 10
1.81979
 20
-18.1045
 30
0.0
 10
1.8339
 20
-17.38818
 30
0.0
 10
1.8339
 20
-17.38818
 30
0.0
 10
1.35081
 20
-18.49964
 30
0.0
 10
0.86772
 20
-19.6111
 30
0.0
 10
0.37185
 20
-20.75195
 30
0.0
 10
0.37185
 20
-20.75195
 30
0.0
 10
0.66131
 20
-20.89395
 30
0.0
 10
0.90596
 20
-20.78966
 30
0.0
 10
1.11219
 20
-20.56438
 30
0.0
  0
SPLINE
  5
6A
330
1F
100
AcDbEntity
  8
Layer 1
370
    53
100
AcDbSpline
210
0.0
220
0.0
230
1.0
 70
    11
 71
     3
 72
    20
 73
    16
 74
     0
 42
0.0000000001
 43
0.0000000001
 12
1.0
 22
0.0
 32
0.0
 13
1.0
 23
0.0
 33
0.0
 40
0.0
 40
0.0
 40
0.0
 40
0.0
 40
0.2
 40
0.2
 40
0.2
 40
0.2
 40
0.4
 40
0.4
 40
0.4
 40
0.4
 40
0.6
 40
0.6
 40
0.6
 40
0.6
 40
1.0
 40
1.0
 40
1.0
 40
1.0
 10
7.07086
 20
-3.42467
 30
0.0
 10
7.11594
 20
-2.96465
 30
0.0
 10
6.93652
 20
-2.65195
 30
0.0
 10
6.62223
 20
-2.44624
 30
0.0
 10
6.62223
 20
-2.44624
 30
0.0
 10
5.95961
 20
-2.01247
 30
0.0
 10
5.21962
 20
-1.77868
 30
0.0
 10
4.42873
 20
-1.71458
 30
0.0
 10
4.42873
 20
-1.71458
 30
0.0
 10
4.40255
 20
-1.71246
 30
0.0
 10
4.37412
 20
-1.73882
 30
0.0
 10
4.26119
 20
-1.79276
 30
0.0
 10
4.26119
 20
-1.79276
 30
0.0
 10
5.14698
 20
-2.46109
 30
0.0
 10
6.0454
 20
-3.00405
 30
0.0
 10
7.07086
 20
-3.42467
 30
0.0
  0
SPLINE
  5
6B
330
1F
100
AcDbEntity
  8
Layer 1
370
    53
100
AcDbSpline
210
0.0
220
0.0
230
1.0
 70
    11
 71
     3
 72
    16
 73
    12
 74
     0
 42
0.0000000001
 43
0.0000000001
 12
1.0
 22
0.0
 32
0.0
 13
1.0
 23
0.0
 33
0.0
 40
0.0
 40
0.0
 40
0.0
 40
0.0
 40
0.25
 40
0.25
 40
0.25
 40
0.25
 40
0.5
 40
0.5
 40
0.5
 40
0.5
 40
1.0
 40
1.0
 40
1.0
 40
1.0
 10
6.15367
 20
-4.15732
 30
0.0
 10
6.5328
 20
-4.27836
 30
0.0
 10
6.70781
 20
-4.21341
 30
0.0
 10
6.95285
 20
-3.86413
 30
0.0
 10
6.95285
 20
-3.86413
 30
0.0
 10
6.06851
 20
-3.36498
 30
0.0
 10
5.18589
 20
-2.86682
 30
0.0
 10
4.22955
 20
-2.32707
 30
0.0
 10
4.22955
 20
-2.32707
 30
0.0
 10
4.69119
 20
-3.21219
 30
0.0
 10
5.24911
 20
-3.86857
 30
0.0
 10
6.15367
 20
-4.15732
 30
0.0
  0
SPLINE
  5
6C
330
1F
100
AcDbEntity
  8
Layer 1
370
    53
100
AcDbSpline
210
0.0
220
0.0
230
1.0
 70
    11
 71
     3
 72
    20
 73
    16
 74
     0
 42
0.0000000001
 43
0.0000000001
 12
1.0
 22
0.0
 32
0.0
 13
1.0
 23
0.0
 33
0.0
 40
0.0
 40
0.0
 40
0.0
 40
0.0
 40
0.2
 40
0.2
 40
0.2
 40
0.2
 40
0.4
 40
0.4
 40
0.4
 40
0.4
 40
0.6
 40
0.6
 40
0.6
 40
0.6
 40
1.0
 40
1.0
 40
1.0
 40
1.0
 10
-0.76681
 20
-13.7449
 30
0.0
 10
-0.47016
 20
-13.74815
 30
0.0
 10
-0.16042
 20
-13.74116
 30
0.0
 10
0.12134
 20
-13.66027
 30
0.0
 10
0.12134
 20
-13.66027
 30
0.0
 10
0.61051
 20
-13.5198
 30
0.0
 10
1.51552
 20
-12.67832
 30
0.0
 10
1.81436
 20
-12.13229
 30
0.0
 10
1.81436
 20
-12.13229
 30
0.0
 10
0.84362
 20
-12.69356
 30
0.0
 10
-0.13043
 20
-13.13463
 30
0.0
 10
-1.19261
 20
-13.3554
 30
0.0
 10
-1.19261
 20
-13.3554
 30
0.0
 10
-1.13398
 20
-13.64923
 30
0.0
 10
-0.95572
 20
-13.74282
 30
0.0
 10
-0.76681
 20
-13.7449
 30
0.0
  0
SPLINE
  5
6D
330
1F
100
AcDbEntity
  8
Layer 1
370
    53
100
AcDbSpline
210
0.0
220
0.0
230
1.0
 70
    11
 71
     3
 72
    20
 73
    16
 74
     0
 42
0.0000000001
 43
0.0000000001
 12
1.0
 22
0.0
 32
0.0
 13
1.0
 23
0.0
 33
0.0
 40
0.0
 40
0.0
 40
0.0
 40
0.0
 40
0.2
 40
0.2
 40
0.2
 40
0.2
 40
0.4
 40
0.4
 40
0.4
 40
0.4
 40
0.6
 40
0.6
 40
0.6
 40
0.6
 40
1.0
 40
1.0
 40
1.0
 40
1.0
 10
3.97752
 20
-9.38651
 30
0.0
 10
4.00659
 20
-9.59546
 30
0.0
 10
4.00493
 20
-9.72899
 30
0.0
 10
4.04505
 20
-9.84851
 30
0.0
 10
4.04505
 20
-9.84851
 30
0.0
 10
4.30042
 20
-10.60839
 30
0.0
 10
4.81855
 20
-11.15573
 30
0.0
 10
5.48896
 20
-11.56428
 30
0.0
 10
5.48896
 20
-11.56428
 30
0.0
 10
5.69199
 20
-11.688
 30
0.0
 10
5.92983
 20
-11.7352
 30
0.0
 10
6.27171
 20
-11.63014
 30
0.0
 10
6.27171
 20
-11.63014
 30
0.0
 10
5.49376
 20
-10.86934
 30
0.0
 10
4.77036
 20
-10.16185
 30
0.0
 10
3.97752
 20
-9.38651
 30
0.0
  0
SPLINE
  5
6E
330
1F
100
AcDbEntity
  8
Layer 1
370
    53
100
AcDbSpline
210
0.0
220
0.0
230
1.0
 70
    11
 71
     3
 72
    16
 73
    12
 74
     0
 42
0.0000000001
 43
0.0000000001
 12
1.0
 22
0.0
 32
0.0
 13
1.0
 23
0.0
 33
0.0
 40
0.0
 40
0.0
 40
0.0
 40
0.0
 40
0.25
 40
0.25
 40
0.25
 40
0.25
 40
0.5
 40
0.5
 40
0.5
 40
0.5
 40
1.0
 40
1.0
 40
1.0
 40
1.0
 10
2.58825
 20
-8.5518
 30
0.0
 10
1.88922
 20
-8.63785
 30
0.0
 10
1.24498
 20
-8.57632
 30
0.0
 10
0.6479
 20
-8.87396
 30
0.0
 10
0.6479
 20
-8.87396
 30
0.0
 10
0.25992
 20
-9.06735
 30
0.0
 10
0.06659
 20
-9.38316
 30
0.0
 10
0.01629
 20
-9.85038
 30
0.0
 10
0.01629
 20
-9.85038
 30
0.0
 10
0.74248
 20
-9.72288
 30
0.0
 10
2.12819
 20
-9.03232
 30
0.0
 10
2.58825
 20
-8.5518
 30
0.0
  0
SPLINE
  5
6F
330
1F
100
AcDbEntity
  8
Layer 1
370
    53
100
AcDbSpline
210
0.0
220
0.0
230
1.0
 70
    11
 71
     3
 72
    12
 73
     8
 74
     0
 42
0.0000000001
 43
0.0000000001
 12
1.0
 22
0.0
 32
0.0
 13
1.0
 23
0.0
 33
0.0
 40
0.0
 40
0.0
 40
0.0
 40
0.0
 40
0.3333333333333333
 40
0.3333333333333333
 40
0.3333333333333333
 40
0.3333333333333333
 40
1.0
 40
1.0
 40
1.0
 40
1.0
 10
6.99268
 20
-7.64785
 30
0.0
 10
6.04247
 20
-7.00932
 30
0.0
 10
5.12828
 20
-6.39499
 30
0.0
 10
4.17286
 20
-5.75297
 30
0.0
 10
4.17286
 20
-5.75297
 30
0.0
 10
4.44859
 20
-6.77214
 30
0.0
 10
6.10089
 20
-7.94996
 30
0.0
 10
6.99268
 20
-7.64785
 30
0.0
  0
SPLINE
  5
70
330
1F
100
AcDbEntity
  8
Layer 1
370
    53
100
AcDbSpline
210
0.0
220
0.0
230
1.0
 70
    11
 71
     3
 72
    16
 73
    12
 74
     0
 42
0.0000000001
 43
0.0000000001
 12
1.0
 22
0.0
 32
0.0
 13
1.0
 23
0.0
 33
0.0
 40
0.0
 40
0.0
 40
0.0
 40
0.0
 40
0.25
 40
0.25
 40
0.25
 40
0.25
 40
0.5
 40
0.5
 40
0.5
 40
0.5
 40
1.0
 40
1.0
 40
1.0
 40
1.0
 10
5.69555
 20
-13.75034
 30
0.0
 10
5.17235
 20
-12.94053
 30
0.0
 10
4.42072
 20
-12.3594
 30
0.0
 10
3.66098
 20
-11.78141
 30
0.0
 10
3.66098
 20
-11.78141
 30
0.0
 10
4.23022
 20
-12.69871
 30
0.0
 10
4.85234
 20
-13.57222
 30
0.0
 10
5.55017
 20
-14.44915
 30
0.0
 10
5.55017
 20
-14.44915
 30
0.0
 10
5.76702
 20
-14.20369
 30
0.0
 10
5.83867
 20
-13.97185
 30
0.0
 10
5.69555
 20
-13.75034
 30
0.0
  0
SPLINE
  5
71
330
1F
100
AcDbEntity
  8
Layer 1
370
    53
100
AcDbSpline
210
0.0
220
0.0
230
1.0
 70
    11
 71
     3
 72
    16
 73
    12
 74
     0
 42
0.0000000001
 43
0.0000000001
 12
1.0
 22
0.0
 32
0.0
 13
1.0
 23
0.0
 33
0.0
 40
0.0
 40
0.0
 40
0.0
 40
0.0
 40
0.25
 40
0.25
 40
0.25
 40
0.25
 40
0.5
 40
0.5
 40
0.5
 40
0.5
 40
1.0
 40
1.0
 40
1.0
 40
1.0
 10
6.22475
 20
-10.24295
 30
0.0
 10
5.72501
 20
-9.63497
 30
0.0
 10
5.06394
 20
-9.27733
 30
0.0
 10
4.30395
 20
-9.01514
 30
0.0
 10
4.30395
 20
-9.01514
 30
0.0
 10
4.48919
 20
-9.40443
 30
0.0
 10
5.65167
 20
-10.58479
 30
0.0
 10
6.40855
 20
-11.16419
 30
0.0
 10
6.40855
 20
-11.16419
 30
0.0
 10
6.55834
 20
-10.78062
 30
0.0
 10
6.43275
 20
-10.49603
 30
0.0
 10
6.22475
 20
-10.24295
 30
0.0
  0
SPLINE
  5
72
330
1F
100
AcDbEntity
  8
Layer 1
370
    53
100
AcDbSpline
210
0.0
220
0.0
230
1.0
 70
    11
 71
     3
 72
    20
 73
    16
 74
     0
 42
0.0000000001
 43
0.0000000001
 12
1.0
 22
0.0
 32
0.0
 13
1.0
 23
0.0
 33
0.0
 40
0.0
 40
0.0
 40
0.0
 40
0.0
 40
0.2
 40
0.2
 40
0.2
 40
0.2
 40
0.4
 40
0.4
 40
0.4
 40
0.4
 40
0.6
 40
0.6
 40
0.6
 40
0.6
 40
1.0
 40
1.0
 40
1.0
 40
1.0
 10
2.71409
 20
-5.34699
 30
0.0
 10
2.23399
 20
-5.19738
 30
0.0
 10
1.85602
 20
-5.15812
 30
0.0
 10
1.48903
 20
-5.23156
 30
0.0
 10
1.48903
 20
-5.23156
 30
0.0
 10
1.00982
 20
-5.32752
 30
0.0
 10
0.54076
 20
-5.47696
 30
0.0
 10
0.07086
 20
-5.61521
 30
0.0
 10
0.07086
 20
-5.61521
 30
0.0
 10
-0.08711
 20
-5.66171
 30
0.0
 10
-0.21623
 20
-5.75717
 30
0.0
 10
-0.16867
 20
-5.99039
 30
0.0
 10
-0.16867
 20
-5.99039
 30
0.0
 10
0.82806
 20
-6.10405
 30
0.0
 10
1.73551
 20
-5.83513
 30
0.0
 10
2.71409
 20
-5.34699
 30
0.0
  0
SPLINE
  5
73
330
1F
100
AcDbEntity
  8
Layer 1
370
    53
100
AcDbSpline
210
0.0
220
0.0
230
1.0
 70
    11
 71
     3
 72
    16
 73
    12
 74
     0
 42
0.0000000001
 43
0.0000000001
 12
1.0
 22
0.0
 32
0.0
 13
1.0
 23
0.0
 33
0.0
 40
0.0
 40
0.0
 40
0.0
 40
0.0
 40
0.25
 40
0.25
 40
0.25
 40
0.25
 40
0.5
 40
0.5
 40
0.5
 40
0.5
 40
1.0
 40
1.0
 40
1.0
 40
1.0
 10
2.12212
 20
-2.43467
 30
0.0
 10
2.4881
 20
-2.3578
 30
0.0
 10
2.84694
 20
-2.24682
 30
0.0
 10
3.23994
 20
-2.14271
 30
0.0
 10
3.23994
 20
-2.14271
 30
0.0
 10
2.12544
 20
-1.41673
 30
0.0
 10
1.00826
 20
-1.77046
 30
0.0
 10
0.76125
 20
-2.67001
 30
0.0
 10
0.76125
 20
-2.67001
 30
0.0
 10
1.25232
 20
-2.58654
 30
0.0
 10
1.69029
 20
-2.52537
 30
0.0
 10
2.12212
 20
-2.43467
 30
0.0
  0
SPLINE
  5
74
330
1F
100
AcDbEntity
  8
Layer 1
370
    53
100
AcDbSpline
210
0.0
220
0.0
230
1.0
 70
    11
 71
     3
 72
    12
 73
     8
 74
     0
 42
0.0000000001
 43
0.0000000001
 12
1.0
 22
0.0
 32
0.0
 13
1.0
 23
0.0
 33
0.0
 40
0.0
 40
0.0
 40
0.0
 40
0.0
 40
0.3333333333333333
 40
0.3333333333333333
 40
0.3333333333333333
 40
0.3333333333333333
 40
1.0
 40
1.0
 40
1.0
 40
1.0
 10
3.36831
 20
-6.74212
 30
0.0
 10
2.79103
 20
-6.57099
 30
0.0
 10
2.02144
 20
-6.9799
 30
0.0
 10
1.48518
 20
-7.76045
 30
0.0
 10
1.48518
 20
-7.76045
 30
0.0
 10
2.26708
 20
-8.04768
 30
0.0
 10
3.21193
 20
-7.51809
 30
0.0
 10
3.36831
 20
-6.74212
 30
0.0
  0
SPLINE
  5
75
330
1F
100
AcDbEntity
  8
Layer 1
370
    53
100
AcDbSpline
210
0.0
220
0.0
230
1.0
 70
    11
 71
     3
 72
    12
 73
     8
 74
     0
 42
0.0000000001
 43
0.0000000001
 12
1.0
 22
0.0
 32
0.0
 13
1.0
 23
0.0
 33
0.0
 40
0.0
 40
0.0
 40
0.0
 40
0.0
 40
0.3333333333333333
 40
0.3333333333333333
 40
0.3333333333333333
 40
0.3333333333333333
 40
1.0
 40
1.0
 40
1.0
 40
1.0
 10
2.7567
 20
-14.63158
 30
0.0
 10
2.47063
 20
-15.58492
 30
0.0
 10
3.27655
 20
-17.03509
 30
0.0
 10
4.22503
 20
-17.25374
 30
0.0
 10
4.22503
 20
-17.25374
 30
0.0
 10
3.73001
 20
-16.36968
 30
0.0
 10
3.24826
 20
-15.50943
 30
0.0
 10
2.7567
 20
-14.63158
 30
0.0
  0
SPLINE
  5
76
330
1F
100
AcDbEntity
  8
Layer 1
370
    53
100
AcDbSpline
210
0.0
220
0.0
230
1.0
 70
    11
 71
     3
 72
    12
 73
     8
 74
     0
 42
0.0000000001
 43
0.0000000001
 12
1.0
 22
0.0
 32
0.0
 13
1.0
 23
0.0
 33
0.0
 40
0.0
 40
0.0
 40
0.0
 40
0.0
 40
0.3333333333333333
 40
0.3333333333333333
 40
0.3333333333333333
 40
0.3333333333333333
 40
1.0
 40
1.0
 40
1.0
 40
1.0
 10
1.40479
 20
-14.2136
 30
0.0
 10
0.22093
 20
-14.19946
 30
0.0
 10
-0.86686
 20
-14.9653
 30
0.0
 10
-0.88732
 20
-15.88401
 30
0.0
 10
-0.88732
 20
-15.88401
 30
0.0
 10
-0.13731
 20
-15.29579
 30
0.0
 10
0.70188
 20
-14.88487
 30
0.0
 10
1.40479
 20
-14.2136
 30
0.0
  0
SPLINE
  5
77
330
1F
100
AcDbEntity
  8
Layer 1
370
    53
100
AcDbSpline
210
0.0
220
0.0
230
1.0
 70
    11
 71
     3
 72
    16
 73
    12
 74
     0
 42
0.0000000001
 43
0.0000000001
 12
1.0
 22
0.0
 32
0.0
 13
1.0
 23
0.0
 33
0.0
 40
0.0
 40
0.0
 40
0.0
 40
0.0
 40
0.25
 40
0.25
 40
0.25
 40
0.25
 40
0.5
 40
0.5
 40
0.5
 40
0.5
 40
1.0
 40
1.0
 40
1.0
 40
1.0
 10
6.73723
 20
-6.47038
 30
0.0
 10
6.07602
 20
-5.97077
 30
0.0
 10
5.36119
 20
-5.57037
 30
0.0
 10
4.52119
 20
-5.36297
 30
0.0
 10
4.52119
 20
-5.36297
 30
0.0
 10
4.74058
 20
-5.73889
 30
0.0
 10
6.54864
 20
-6.97792
 30
0.0
 10
7.1219
 20
-7.15025
 30
0.0
 10
7.1219
 20
-7.15025
 30
0.0
 10
7.11181
 20
-6.84291
 30
0.0
 10
6.94717
 20
-6.62899
 30
0.0
 10
6.73723
 20
-6.47038
 30
0.0
  0
SPLINE
  5
78
330
1F
100
AcDbEntity
  8
Layer 1
370
    53
100
AcDbSpline
210
0.0
220
0.0
230
1.0
 70
    11
 71
     3
 72
    16
 73
    12
 74
     0
 42
0.0000000001
 43
0.0000000001
 12
1.0
 22
0.0
 32
0.0
 13
1.0
 23
0.0
 33
0.0
 40
0.0
 40
0.0
 40
0.0
 40
0.0
 40
0.25
 40
0.25
 40
0.25
 40
0.25
 40
0.5
 40
0.5
 40
0.5
 40
0.5
 40
1.0
 40
1.0
 40
1.0
 40
1.0
 10
4.62536
 20
-17.10247
 30
0.0
 10
4.83026
 20
-16.66389
 30
0.0
 10
4.77988
 20
-16.29665
 30
0.0
 10
4.57266
 20
-15.96412
 30
0.0
 10
4.57266
 20
-15.96412
 30
0.0
 10
4.23576
 20
-15.42367
 30
0.0
 10
3.7817
 20
-14.9858
 30
0.0
 10
3.25422
 20
-14.61217
 30
0.0
 10
3.25422
 20
-14.61217
 30
0.0
 10
3.63035
 20
-15.46907
 30
0.0
 10
4.08117
 20
-16.27958
 30
0.0
 10
4.62536
 20
-17.10247
 30
0.0
  0
SPLINE
  5
79
330
1F
100
AcDbEntity
  8
Layer 1
370
    53
100
AcDbSpline
210
0.0
220
0.0
230
1.0
 70
    11
 71
     3
 72
    16
 73
    12
 74
     0
 42
0.0000000001
 43
0.0000000001
 12
1.0
 22
0.0
 32
0.0
 13
1.0
 23
0.0
 33
0.0
 40
0.0
 40
0.0
 40
0.0
 40
0.0
 40
0.25
 40
0.25
 40
0.25
 40
0.25
 40
0.5
 40
0.5
 40
0.5
 40
0.5
 40
1.0
 40
1.0
 40
1.0
 40
1.0
 10
-0.02813
 20
-6.39012
 30
0.0
 10
0.19014
 20
-6.77839
 30
0.0
 10
0.48686
 20
-6.88729
 30
0.0
 10
0.80528
 20
-6.84362
 30
0.0
 10
0.80528
 20
-6.84362
 30
0.0
 10
1.65903
 20
-6.7266
 30
0.0
 10
2.39881
 20
-6.37294
 30
0.0
 10
2.94124
 20
-5.69035
 30
0.0
 10
2.94124
 20
-5.69035
 30
0.0
 10
2.01379
 20
-6.14286
 30
0.0
 10
1.06249
 20
-6.43972
 30
0.0
 10
-0.02813
 20
-6.39012
 30
0.0
  0
SPLINE
  5
7A
330
1F
100
AcDbEntity
  8
Layer 1
370
    53
100
AcDbSpline
210
0.0
220
0.0
230
1.0
 70
    11
 71
     3
 72
    12
 73
     8
 74
     0
 42
0.0000000001
 43
0.0000000001
 12
1.0
 22
0.0
 32
0.0
 13
1.0
 23
0.0
 33
0.0
 40
0.0
 40
0.0
 40
0.0
 40
0.0
 40
0.3333333333333333
 40
0.3333333333333333
 40
0.3333333333333333
 40
0.3333333333333333
 40
1.0
 40
1.0
 40
1.0
 40
1.0
 10
5.24594
 20
-14.74489
 30
0.0
 10
4.69109
 20
-13.90605
 30
0.0
 10
4.07062
 20
-13.16395
 30
0.0
 10
3.49203
 20
-12.38212
 30
0.0
 10
3.49203
 20
-12.38212
 30
0.0
 10
3.70927
 20
-13.68567
 30
0.0
 10
4.51459
 20
-14.77861
 30
0.0
 10
5.24594
 20
-14.74489
 30
0.0
  0
SPLINE
  5
7B
330
1F
100
AcDbEntity
  8
Layer 1
370
    53
100
AcDbSpline
210
0.0
220
0.0
230
1.0
 70
    11
 71
     3
 72
    12
 73
     8
 74
     0
 42
0.0000000001
 43
0.0000000001
 12
1.0
 22
0.0
 32
0.0
 13
1.0
 23
0.0
 33
0.0
 40
0.0
 40
0.0
 40
0.0
 40
0.0
 40
0.3333333333333333
 40
0.3333333333333333
 40
0.3333333333333333
 40
0.3333333333333333
 40
1.0
 40
1.0
 40
1.0
 40
1.0
 10
-0.64556
 20
-16.18284
 30
0.0
 10
0.07654
 20
-16.49294
 30
0.0
 10
1.16049
 20
-15.71951
 30
0.0
 10
1.72077
 20
-14.51784
 30
0.0
 10
1.72077
 20
-14.51784
 30
0.0
 10
0.89827
 20
-15.09654
 30
0.0
 10
0.13905
 20
-15.63078
 30
0.0
 10
-0.64556
 20
-16.18284
 30
0.0
  0
SPLINE
  5
7C
330
1F
100
AcDbEntity
  8
Layer 1
370
    53
100
AcDbSpline
210
0.0
220
0.0
230
1.0
 70
    11
 71
     3
 72
    12
 73
     8
 74
     0
 42
0.0000000001
 43
0.0000000001
 12
1.0
 22
0.0
 32
0.0
 13
1.0
 23
0.0
 33
0.0
 40
0.0
 40
0.0
 40
0.0
 40
0.0
 40
0.3333333333333333
 40
0.3333333333333333
 40
0.3333333333333333
 40
0.3333333333333333
 40
1.0
 40
1.0
 40
1.0
 40
1.0
 10
3.50113
 20
-3.57707
 30
0.0
 10
2.90899
 20
-3.45219
 30
0.0
 10
2.28271
 20
-3.81354
 30
0.0
 10
1.8574
 20
-4.54531
 30
0.0
 10
1.8574
 20
-4.54531
 30
0.0
 10
2.57975
 20
-4.76547
 30
0.0
 10
3.23768
 20
-4.36539
 30
0.0
 10
3.50113
 20
-3.57707
 30
0.0
  0
SPLINE
  5
7D
330
1F
100
AcDbEntity
  8
Layer 1
370
    53
100
AcDbSpline
210
0.0
220
0.0
230
1.0
 70
    11
 71
     3
 72
    16
 73
    12
 74
     0
 42
0.0000000001
 43
0.0000000001
 12
1.0
 22
0.0
 32
0.0
 13
1.0
 23
0.0
 33
0.0
 40
0.0
 40
0.0
 40
0.0
 40
0.0
 40
0.25
 40
0.25
 40
0.25
 40
0.25
 40
0.5
 40
0.5
 40
0.5
 40
0.5
 40
1.0
 40
1.0
 40
1.0
 40
1.0
 10
5.14681
 20
-8.52979
 30
0.0
 10
5.15256
 20
-8.45511
 30
0.0
 10
5.18476
 20
-8.37143
 30
0.0
 10
5.15958
 20
-8.31202
 30
0.0
 10
5.15958
 20
-8.31202
 30
0.0
 10
4.92258
 20
-7.75234
 30
0.0
 10
4.54183
 20
-7.29655
 30
0.0
 10
4.07986
 20
-6.83586
 30
0.0
 10
4.07986
 20
-6.83586
 30
0.0
 10
3.87303
 20
-7.61405
 30
0.0
 10
4.38869
 20
-8.41193
 30
0.0
 10
5.14681
 20
-8.52979
 30
0.0
  0
SPLINE
  5
7E
330
1F
100
AcDbEntity
  8
Layer 1
370
    53
100
AcDbSpline
210
0.0
220
0.0
230
1.0
 70
    11
 71
     3
 72
    16
 73
    12
 74
     0
 42
0.0000000001
 43
0.0000000001
 12
1.0
 22
0.0
 32
0.0
 13
1.0
 23
0.0
 33
0.0
 40
0.0
 40
0.0
 40
0.0
 40
0.0
 40
0.25
 40
0.25
 40
0.25
 40
0.25
 40
0.5
 40
0.5
 40
0.5
 40
0.5
 40
1.0
 40
1.0
 40
1.0
 40
1.0
 10
1.15435
 20
-10.41549
 30
0.0
 10
1.47576
 20
-10.32148
 30
0.0
 10
2.10022
 20
-9.71847
 30
0.0
 10
2.32649
 20
-9.31966
 30
0.0
 10
2.32649
 20
-9.31966
 30
0.0
 10
1.61289
 20
-9.64256
 30
0.0
 10
0.95298
 20
-9.94115
 30
0.0
 10
0.2718
 20
-10.24933
 30
0.0
 10
0.2718
 20
-10.24933
 30
0.0
 10
0.53759
 20
-10.61294
 30
0.0
 10
0.86264
 20
-10.50083
 30
0.0
 10
1.15435
 20
-10.41549
 30
0.0
  0
SPLINE
  5
7F
330
1F
100
AcDbEntity
  8
Layer 1
370
    53
100
AcDbSpline
210
0.0
220
0.0
230
1.0
 70
    11
 71
     3
 72
    12
 73
     8
 74
     0
 42
0.0000000001
 43
0.0000000001
 12
1.0
 22
0.0
 32
0.0
 13
1.0
 23
0.0
 33
0.0
 40
0.0
 40
0.0
 40
0.0
 40
0.0
 40
0.3333333333333333
 40
0.3333333333333333
 40
0.3333333333333333
 40
0.3333333333333333
 40
1.0
 40
1.0
 40
1.0
 40
1.0
 10
0.80453
 20
-3.06628
 30
0.0
 10
1.28999
 20
-3.56448
 30
0.0
 10
2.17815
 20
-3.39931
 30
0.0
 10
2.79374
 20
-2.67834
 30
0.0
 10
2.79374
 20
-2.67834
 30
0.0
 10
2.08925
 20
-2.81574
 30
0.0
 10
1.457
 20
-2.93904
 30
0.0
 10
0.80453
 20
-3.06628
 30
0.0
  0
SPLINE
  5
80
330
1F
100
AcDbEntity
  8
Layer 1
370
    53
100
AcDbSpline
210
0.0
220
0.0
230
1.0
 70
    11
 71
     3
 72
    12
 73
     8
 74
     0
 42
0.0000000001
 43
0.0000000001
 12
1.0
 22
0.0
 32
0.0
 13
1.0
 23
0.0
 33
0.0
 40
0.0
 40
0.0
 40
0.0
 40
0.0
 40
0.3333333333333333
 40
0.3333333333333333
 40
0.3333333333333333
 40
0.3333333333333333
 40
1.0
 40
1.0
 40
1.0
 40
1.0
 10
5.0996
 20
-4.77394
 30
0.0
 10
5.13523
 20
-4.13884
 30
0.0
 10
4.64897
 20
-3.86582
 30
0.0
 10
4.27294
 20
-3.45935
 30
0.0
 10
4.27294
 20
-3.45935
 30
0.0
 10
4.15966
 20
-4.296
 30
0.0
 10
4.43109
 20
-4.71781
 30
0.0
 10
5.0996
 20
-4.77394
 30
0.0
  0
SPLINE
  5
81
330
1F
100
AcDbEntity
  8
Layer 1
370
    53
100
AcDbSpline
210
0.0
220
0.0
230
1.0
 70
    11
 71
     3
 72
    16
 73
    12
 74
     0
 42
0.0000000001
 43
0.0000000001
 12
1.0
 22
0.0
 32
0.0
 13
1.0
 23
0.0
 33
0.0
 40
0.0
 40
0.0
 40
0.0
 40
0.0
 40
0.25
 40
0.25
 40
0.25
 40
0.25
 40
0.5
 40
0.5
 40
0.5
 40
0.5
 40
1.0
 40
1.0
 40
1.0
 40
1.0
 10
2.89178
 20
-10.33248
 30
0.0
 10
2.92991
 20
-10.10364
 30
0.0
 10
2.95934
 20
-9.87334
 30
0.0
 10
2.99708
 20
-9.61328
 30
0.0
 10
2.99708
 20
-9.61328
 30
0.0
 10
2.52436
 20
-9.98913
 30
0.0
 10
2.19469
 20
-10.4688
 30
0.0
 10
2.09281
 20
-10.90656
 30
0.0
 10
2.09281
 20
-10.90656
 30
0.0
 10
2.57192
 20
-10.92893
 30
0.0
 10
2.82193
 20
-10.75141
 30
0.0
 10
2.89178
 20
-10.33248
 30
0.0
  0
SPLINE
  5
82
330
1F
100
AcDbEntity
  8
Layer 1
370
    53
100
AcDbSpline
210
0.0
220
0.0
230
1.0
 70
    11
 71
     3
 72
    32
 73
    28
 74
     0
 42
0.0000000001
 43
0.0000000001
 12
1.0
 22
0.0
 32
0.0
 13
1.0
 23
0.0
 33
0.0
 40
0.0
 40
0.0
 40
0.0
 40
0.0
 40
0.125
 40
0.125
 40
0.125
 40
0.125
 40
0.25
 40
0.25
 40
0.25
 40
0.25
 40
0.375
 40
0.375
 40
0.375
 40
0.375
 40
0.5
 40
0.5
 40
0.5
 40
0.5
 40
0.625
 40
0.625
 40
0.625
 40
0.625
 40
0.75
 40
0.75
 40
0.75
 40
0.75
 40
1.0
 40
1.0
 40
1.0
 40
1.0
 10
1.78363
 20
-12.94875
 30
0.0
 10
1.76222
 20
-12.97225
 30
0.0
 10
1.72497
 20
-12.99162
 30
0.0
 10
1.71975
 20
-13.01779
 30
0.0
 10
1.71975
 20
-13.01779
 30
0.0
 10
1.69353
 20
-13.15001
 30
0.0
 10
1.65501
 20
-13.28576
 30
0.0
 10
1.66686
 20
-13.41604
 30
0.0
 10
1.66686
 20
-13.41604
 30
0.0
 10
1.6705
 20
-13.45608
 30
0.0
 10
1.82371
 20
-13.51726
 30
0.0
 10
1.90153
 20
-13.5084
 30
0.0
 10
1.90153
 20
-13.5084
 30
0.0
 10
2.05294
 20
-13.49119
 30
0.0
 10
2.23448
 20
-13.47993
 30
0.0
 10
2.27615
 20
-13.27737
 30
0.0
 10
2.27615
 20
-13.27737
 30
0.0
 10
2.34261
 20
-12.9544
 30
0.0
 10
2.40198
 20
-12.62998
 30
0.0
 10
2.46442
 20
-12.30617
 30
0.0
 10
2.46442
 20
-12.30617
 30
0.0
 10
2.44047
 20
-12.2971
 30
0.0
 10
2.41652
 20
-12.28804
 30
0.0
 10
2.39263
 20
-12.27901
 30
0.0
 10
2.39263
 20
-12.27901
 30
0.0
 10
2.18968
 20
-12.50228
 30
0.0
 10
1.98676
 20
-12.72562
 30
0.0
 10
1.78363
 20
-12.94875
 30
0.0
  0
SPLINE
  5
83
330
1F
100
AcDbEntity
  8
Layer 1
370
    53
100
AcDbSpline
210
0.0
220
0.0
230
1.0
 70
    11
 71
     3
 72
    20
 73
    16
 74
     0
 42
0.0000000001
 43
0.0000000001
 12
1.0
 22
0.0
 32
0.0
 13
1.0
 23
0.0
 33
0.0
 40
0.0
 40
0.0
 40
0.0
 40
0.0
 40
0.2
 40
0.2
 40
0.2
 40
0.2
 40
0.4
 40
0.4
 40
0.4
 40
0.4
 40
0.6
 40
0.6
 40
0.6
 40
0.6
 40
1.0
 40
1.0
 40
1.0
 40
1.0
 10
3.24763
 20
-0.8308
 30
0.0
 10
3.18028
 20
-0.77115
 30
0.0
 10
3.02993
 20
-0.72596
 30
0.0
 10
2.96671
 20
-0.76152
 30
0.0
 10
2.96671
 20
-0.76152
 30
0.0
 10
2.89256
 20
-0.80318
 30
0.0
 10
2.83668
 20
-0.93949
 30
0.0
 10
2.83495
 20
-1.03587
 30
0.0
 10
2.83495
 20
-1.03587
 30
0.0
 10
2.82973
 20
-1.31901
 30
0.0
 10
3.04474
 20
-1.50672
 30
0.0
 10
3.43414
 20
-1.58621
 30
0.0
 10
3.43414
 20
-1.58621
 30
0.0
 10
3.57878
 20
-1.28324
 30
0.0
 10
3.4769
 20
-1.03393
 30
0.0
 10
3.24763
 20
-0.8308
 30
0.0
  0
SPLINE
  5
84
330
1F
100
AcDbEntity
  8
Layer 1
370
    53
100
AcDbSpline
210
0.0
220
0.0
230
1.0
 70
    11
 71
     3
 72
    12
 73
     8
 74
     0
 42
0.0000000001
 43
0.0000000001
 12
1.0
 22
0.0
 32
0.0
 13
1.0
 23
0.0
 33
0.0
 40
0.0
 40
0.0
 40
0.0
 40
0.0
 40
0.3333333333333333
 40
0.3333333333333333
 40
0.3333333333333333
 40
0.3333333333333333
 40
1.0
 40
1.0
 40
1.0
 40
1.0
 10
4.06131
 20
-11.43897
 30
0.0
 10
4.18146
 20
-11.15753
 30
0.0
 10
4.12827
 20
-11.01267
 30
0.0
 10
3.665
 20
-10.3962
 30
0.0
 10
3.665
 20
-10.3962
 30
0.0
 10
3.41583
 20
-11.07141
 30
0.0
 10
3.45979
 20
-11.1789
 30
0.0
 10
4.06131
 20
-11.43897
 30
0.0
  0
SPLINE
  5
85
330
1F
100
AcDbEntity
  8
Layer 1
370
    53
100
AcDbSpline
210
0.0
220
0.0
230
1.0
 70
    11
 71
     3
 72
    20
 73
    16
 74
     0
 42
0.0000000001
 43
0.0000000001
 12
1.0
 22
0.0
 32
0.0
 13
1.0
 23
0.0
 33
0.0
 40
0.0
 40
0.0
 40
0.0
 40
0.0
 40
0.2
 40
0.2
 40
0.2
 40
0.2
 40
0.4
 40
0.4
 40
0.4
 40
0.4
 40
0.6
 40
0.6
 40
0.6
 40
0.6
 40
1.0
 40
1.0
 40
1.0
 40
1.0
 10
2.49035
 20
-17.57582
 30
0.0
 10
2.49349
 20
-17.73584
 30
0.0
 10
2.59428
 20
-17.8645
 30
0.0
 10
2.75804
 20
-17.81194
 30
0.0
 10
2.75804
 20
-17.81194
 30
0.0
 10
2.84126
 20
-17.78523
 30
0.0
 10
2.94039
 20
-17.6299
 30
0.0
 10
2.93503
 20
-17.53839
 30
0.0
 10
2.93503
 20
-17.53839
 30
0.0
 10
2.91848
 20
-17.25621
 30
0.0
 10
2.82592
 20
-16.99332
 30
0.0
 10
2.51473
 20
-16.80938
 30
0.0
 10
2.51473
 20
-16.80938
 30
0.0
 10
2.50464
 20
-17.08522
 30
0.0
 10
2.48549
 20
-17.33075
 30
0.0
 10
2.49035
 20
-17.57582
 30
0.0
  0
SPLINE
  5
86
330
1F
100
AcDbEntity
  8
Layer 1
370
    53
100
AcDbSpline
210
0.0
220
0.0
230
1.0
 70
    11
 71
     3
 72
    12
 73
     8
 74
     0
 42
0.0000000001
 43
0.0000000001
 12
1.0
 22
0.0
 32
0.0
 13
1.0
 23
0.0
 33
0.0
 40
0.0
 40
0.0
 40
0.0
 40
0.0
 40
0.3333333333333333
 40
0.3333333333333333
 40
0.3333333333333333
 40
0.3333333333333333
 40
1.0
 40
1.0
 40
1.0
 40
1.0
 10
4.29389
 20
-1.07228
 30
0.0
 10
4.66555
 20
-1.15
 30
0.0
 10
4.80969
 20
-0.99516
 30
0.0
 10
4.81435
 20
-0.51323
 30
0.0
 10
4.81435
 20
-0.51323
 30
0.0
 10
4.37256
 20
-0.39237
 30
0.0
 10
4.26719
 20
-0.50554
 30
0.0
 10
4.29389
 20
-1.07228
 30
0.0
  0
SPLINE
  5
87
330
1F
100
AcDbEntity
  8
Layer 1
370
    53
100
AcDbSpline
210
0.0
220
0.0
230
1.0
 70
    11
 71
     3
 72
    12
 73
     8
 74
     0
 42
0.0000000001
 43
0.0000000001
 12
1.0
 22
0.0
 32
0.0
 13
1.0
 23
0.0
 33
0.0
 40
0.0
 40
0.0
 40
0.0
 40
0.0
 40
0.3333333333333333
 40
0.3333333333333333
 40
0.3333333333333333
 40
0.3333333333333333
 40
1.0
 40
1.0
 40
1.0
 40
1.0
 10
-0.30509
 20
-17.64694
 30
0.0
 10
0.02405
 20
-17.55053
 30
0.0
 10
0.0939
 20
-17.23123
 30
0.0
 10
0.34666
 20
-16.91613
 30
0.0
 10
0.34666
 20
-16.91613
 30
0.0
 10
-0.46748
 20
-17.13774
 30
0.0
 10
-0.57098
 20
-17.26873
 30
0.0
 10
-0.30509
 20
-17.64694
 30
0.0
  0
SPLINE
  5
88
330
1F
100
AcDbEntity
  8
Layer 1
370
    53
100
AcDbSpline
210
0.0
220
0.0
230
1.0
 70
    11
 71
     3
 72
    12
 73
     8
 74
     0
 42
0.0000000001
 43
0.0000000001
 12
1.0
 22
0.0
 32
0.0
 13
1.0
 23
0.0
 33
0.0
 40
0.0
 40
0.0
 40
0.0
 40
0.0
 40
0.3333333333333333
 40
0.3333333333333333
 40
0.3333333333333333
 40
0.3333333333333333
 40
1.0
 40
1.0
 40
1.0
 40
1.0
 10
3.49852
 20
-14.08812
 30
0.0
 10
3.32697
 20
-13.72021
 30
0.0
 10
3.18003
 20
-13.40504
 30
0.0
 10
3.02622
 20
-13.07508
 30
0.0
 10
3.02622
 20
-13.07508
 30
0.0
 10
2.88338
 20
-13.48282
 30
0.0
 10
2.97355
 20
-13.68363
 30
0.0
 10
3.49852
 20
-14.08812
 30
0.0
  0
SPLINE
  5
89
330
1F
100
AcDbEntity
  8
Layer 1
370
    53
100
AcDbSpline
210
0.0
220
0.0
230
1.0
 70
    11
 71
     3
 72
    12
 73
     8
 74
     0
 42
0.0000000001
 43
0.0000000001
 12
1.0
 22
0.0
 32
0.0
 13
1.0
 23
0.0
 33
0.0
 40
0.0
 40
0.0
 40
0.0
 40
0.0
 40
0.3333333333333333
 40
0.3333333333333333
 40
0.3333333333333333
 40
0.3333333333333333
 40
1.0
 40
1.0
 40
1.0
 40
1.0
 10
3.51944
 20
-4.45722
 30
0.0
 10
3.36634
 20
-4.57815
 30
0.0
 10
3.2526
 20
-4.66797
 30
0.0
 10
3.10528
 20
-4.78431
 30
0.0
 10
3.10528
 20
-4.78431
 30
0.0
 10
3.3845
 20
-4.84728
 30
0.0
 10
3.55172
 20
-4.83056
 30
0.0
 10
3.51944
 20
-4.45722
 30
0.0
  0
SPLINE
  5
8A
330
1F
100
AcDbEntity
  8
Layer 1
370
    53
100
AcDbSpline
210
0.0
220
0.0
230
1.0
 70
    11
 71
     3
 72
    20
 73
    16
 74
     0
 42
0.0000000001
 43
0.0000000001
 12
1.0
 22
0.0
 32
0.0
 13
1.0
 23
0.0
 33
0.0
 40
0.0
 40
0.0
 40
0.0
 40
0.0
 40
0.2
 40
0.2
 40
0.2
 40
0.2
 40
0.4
 40
0.4
 40
0.4
 40
0.4
 40
0.6
 40
0.6
 40
0.6
 40
0.6
 40
1.0
 40
1.0
 40
1.0
 40
1.0
 10
4.02363
 20
-8.52563
 30
0.0
 10
4.02363
 20
-8.52563
 30
0.0
 10
4.0902
 20
-8.47225
 30
0.0
 10
4.0902
 20
-8.47225
 30
0.0
 10
4.0902
 20
-8.47225
 30
0.0
 10
4.04032
 20
-8.40261
 30
0.0
 10
3.99047
 20
-8.33297
 30
0.0
 10
3.94059
 20
-8.26334
 30
0.0
 10
3.94059
 20
-8.26334
 30
0.0
 10
3.91025
 20
-8.2875
 30
0.0
 10
3.87991
 20
-8.31163
 30
0.0
 10
3.84957
 20
-8.3358
 30
0.0
 10
3.84957
 20
-8.3358
 30
0.0
 10
3.9076
 20
-8.39909
 30
0.0
 10
3.9656
 20
-8.46237
 30
0.0
 10
4.02363
 20
-8.52563
 30
0.0
  0
ENDSEC
  0
SECTION
  2
OBJECTS
  0
DICTIONARY
  5
C
330
0
100
AcDbDictionary
281
     1
  3
ACAD_GROUP
350
D
  3
ACAD_LAYOUT
350
1A
  3
ACAD_MATERIAL
350
3B
  3
ACAD_MLEADERSTYLE
350
AC
  3
ACAD_MLINESTYLE
350
17
  3
ACAD_PLOTSETTINGS
350
19
  3
ACAD_PLOTSTYLENAME
350
E
  3
ACAD_TABLESTYLE
350
AB
  3
ACAD_VISUALSTYLE
350
2A
  0
DICTIONARY
  5
D
102
{ACAD_REACTORS
330
C
102
}
330
C
100
AcDbDictionary
281
     1
  0
DICTIONARY
  5
1A
102
{ACAD_REACTORS
330
C
102
}
330
C
100
AcDbDictionary
281
     1
  3
Layout1
350
1E
  3
Layout2
350
26
  3
Model
350
22
  0
DICTIONARY
  5
3B
102
{ACAD_REACTORS
330
C
102
}
330
C
100
AcDbDictionary
281
     1
  3
ByBlock
350
3D
  3
ByLayer
350
3C
  3
Global
350
3E
  0
DICTIONARY
  5
AC
102
{ACAD_REACTORS
330
C
102
}
330
C
100
AcDbDictionary
281
     1
  0
DICTIONARY
  5
17
102
{ACAD_REACTORS
330
C
102
}
330
C
100
AcDbDictionary
281
     1
  3
Standard
350
18
  0
DICTIONARY
  5
19
102
{ACAD_REACTORS
330
C
102
}
330
C
100
AcDbDictionary
281
     1
  0
ACDBDICTIONARYWDFLT
  5
E
102
{ACAD_REACTORS
330
C
102
}
330
C
100
AcDbDictionary
281
     1
  3
Normal
350
F
100
AcDbDictionaryWithDefault
340
F
  0
DICTIONARY
  5
AB
102
{ACAD_REACTORS
330
C
102
}
330
C
100
AcDbDictionary
281
     1
  0
DICTIONARY
  5
2A
102
{ACAD_REACTORS
330
C
102
}
330
C
100
AcDbDictionary
281
     1
  3
2dWireframe
350
2F
  3
3D Hidden
350
31
  3
3dWireframe
350
30
  3
Basic
350
32
  3
Brighten
350
36
  3
ColorChange
350
3A
  3
Conceptual
350
34
  3
Dim
350
35
  3
Facepattern
350
39
  3
Flat
350
2B
  3
FlatWithEdges
350
2C
  3
Gouraud
350
2D
  3
GouraudWithEdges
350
2E
  3
Linepattern
350
38
  3
Realistic
350
33
  3
Thicken
350
37
  0
LAYOUT
  5
1E
102
{ACAD_REACTORS
330
1A
102
}
330
1A
100
AcDbPlotSettings
  1

  2
none_device
  4

  6

 40
0.0
 41
0.0
 42
0.0
 43
0.0
 44
0.0
 45
0.0
 46
0.0
 47
0.0
 48
0.0
 49
0.0
140
0.0
141
0.0
142
1.0
143
1.0
 70
   688
 72
     0
 73
     0
 74
     5
  7

 75
    16
 76
     0
 77
     2
 78
   300
147
1.0
148
0.0
149
0.0
100
AcDbLayout
  1
Layout1
 70
     1
 71
     1
 10
0.0
 20
0.0
 11
12.0
 21
9.0
 12
0.0
 22
0.0
 32
0.0
 14
1.000000000000000E+20
 24
1.000000000000000E+20
 34
1.000000000000000E+20
 15
-1.000000000000000E+20
 25
-1.000000000000000E+20
 35
-1.000000000000000E+20
146
0.0
 13
0.0
 23
0.0
 33
0.0
 16
1.0
 26
0.0
 36
0.0
 17
0.0
 27
1.0
 37
0.0
 76
     0
330
1B
  0
LAYOUT
  5
26
102
{ACAD_REACTORS
330
1A
102
}
330
1A
100
AcDbPlotSettings
  1

  2
none_device
  4

  6

 40
0.0
 41
0.0
 42
0.0
 43
0.0
 44
0.0
 45
0.0
 46
0.0
 47
0.0
 48
0.0
 49
0.0
140
0.0
141
0.0
142
1.0
143
1.0
 70
   688
 72
     0
 73
     0
 74
     5
  7

 75
    16
 76
     0
 77
     2
 78
   300
147
1.0
148
0.0
149
0.0
100
AcDbLayout
  1
Layout2
 70
     1
 71
     2
 10
0.0
 20
0.0
 11
0.0
 21
0.0
 12
0.0
 22
0.0
 32
0.0
 14
0.0
 24
0.0
 34
0.0
 15
0.0
 25
0.0
 35
0.0
146
0.0
 13
0.0
 23
0.0
 33
0.0
 16
1.0
 26
0.0
 36
0.0
 17
0.0
 27
1.0
 37
0.0
 76
     0
330
23
  0
LAYOUT
  5
22
102
{ACAD_REACTORS
330
1A
102
}
330
1A
100
AcDbPlotSettings
  1

  2
none_device
  4

  6

 40
0.0
 41
0.0
 42
0.0
 43
0.0
 44
0.0
 45
0.0
 46
0.0
 47
0.0
 48
0.0
 49
0.0
140
0.0
141
0.0
142
1.0
143
1.0
 70
  1712
 72
     0
 73
     0
 74
     0
  7

 75
     0
 76
     0
 77
     2
 78
   300
147
1.0
148
0.0
149
0.0
100
AcDbLayout
  1
Model
 70
     1
 71
     0
 10
0.0
 20
0.0
 11
12.0
 21
9.0
 12
0.0
 22
0.0
 32
0.0
 14
-7.8399
 24
-21.67295
 34
0.0
 15
7.8399
 25
21.67295
 35
0.0
146
0.0
 13
0.0
 23
0.0
 33
0.0
 16
1.0
 26
0.0
 36
0.0
 17
0.0
 27
1.0
 37
0.0
 76
     0
330
1F
331
29
  0
MATERIAL
  5
3D
102
{ACAD_REACTORS
330
3B
102
}
330
3B
100
AcDbMaterial
  1
ByBlock
 72
     1
 94
      127
  0
MATERIAL
  5
3C
102
{ACAD_REACTORS
330
3B
102
}
330
3B
100
AcDbMaterial
  1
ByLayer
 72
     1
 94
      127
  0
MATERIAL
  5
3E
102
{ACAD_REACTORS
330
3B
102
}
330
3B
100
AcDbMaterial
  1
Global
 72
     1
 94
      127
  0
MLINESTYLE
  5
18
102
{ACAD_REACTORS
330
17
102
}
330
17
100
AcDbMlineStyle
  2
Standard
 70
     0
  3

 62
   256
 51
90.0
 52
90.0
 71
     2
 49
0.5
 62
   256
  6
BYLAYER
 49
-0.5
 62
   256
  6
BYLAYER
  0
ACDBPLACEHOLDER
  5
F
102
{ACAD_REACTORS
330
E
102
}
330
E
  0
VISUALSTYLE
  5
2F
102
{ACAD_REACTORS
330
2A
102
}
102
{ACAD_XDICTIONARY
360
93
102
}
330
2A
100
AcDbVisualStyle
  2
2dWireframe
 70
     4
 71
     0
 72
     2
 73
     0
 90
        0
 40
-0.6
 41
-30.0
 62
     5
 63
     7
421
 16777215
 74
     1
 91
        4
 64
     7
 65
   257
 75
     1
175
     1
 42
1.0
 92
        0
 66
   257
 43
1.0
 76
     1
 77
     6
 78
     2
 67
     7
 79
     5
170
     0
171
     0
290
     0
174
     0
 93
        1
 44
0.0
173
     0
291
     0
 45
0.0
  0
VISUALSTYLE
  5
31
102
{ACAD_REACTORS
330
2A
102
}
102
{ACAD_XDICTIONARY
360
97
102
}
330
2A
100
AcDbVisualStyle
  2
3D Hidden
 70
     6
 71
     1
 72
     2
 73
     2
 90
        0
 40
-0.6
 41
-30.0
 62
     5
 63
     7
421
 16777215
 74
     2
 91
        2
 64
     7
 65
   257
 75
     2
175
     1
 42
40.0
 92
        0
 66
   257
 43
1.0
 76
     1
 77
     6
 78
     2
 67
     7
 79
     3
170
     0
171
     0
290
     0
174
     0
 93
        1
 44
0.0
173
     0
291
     0
 45
0.0
  0
VISUALSTYLE
  5
30
102
{ACAD_REACTORS
330
2A
102
}
102
{ACAD_XDICTIONARY
360
95
102
}
330
2A
100
AcDbVisualStyle
  2
3dWireframe
 70
     5
 71
     0
 72
     2
 73
     0
 90
        0
 40
-0.6
 41
-30.0
 62
     5
 63
     7
421
 16777215
 74
     1
 91
        4
 64
     7
 65
   257
 75
     1
175
     1
 42
1.0
 92
        0
 66
   257
 43
1.0
 76
     1
 77
     6
 78
     2
 67
     7
 79
     5
170
     0
171
     0
290
     0
174
     0
 93
        1
 44
0.0
173
     0
291
     0
 45
0.0
  0
VISUALSTYLE
  5
32
102
{ACAD_REACTORS
330
2A
102
}
102
{ACAD_XDICTIONARY
360
99
102
}
330
2A
100
AcDbVisualStyle
  2
Basic
 70
     7
 71
     1
 72
     0
 73
     1
 90
        0
 40
-0.6
 41
-30.0
 62
     5
 63
     7
421
 16777215
 74
     0
 91
        4
 64
     7
 65
   257
 75
     1
175
     1
 42
1.0
 92
        8
 66
     7
 43
1.0
 76
     1
 77
     6
 78
     2
 67
     7
 79
     5
170
     0
171
     0
290
     0
174
     0
 93
        1
 44
0.0
173
     0
291
     1
 45
0.0
  0
VISUALSTYLE
  5
36
102
{ACAD_REACTORS
330
2A
102
}
102
{ACAD_XDICTIONARY
360
A1
102
}
330
2A
100
AcDbVisualStyle
  2
Brighten
 70
    12
 71
     2
 72
     2
 73
     0
 90
        0
 40
-0.6
 41
-30.0
 62
     5
 63
     7
421
 16777215
 74
     1
 91
        4
 64
     7
 65
   257
 75
     1
175
     1
 42
1.0
 92
        8
 66
     7
 43
1.0
 76
     1
 77
     6
 78
     2
 67
     7
 79
     5
170
     0
171
     0
290
     0
174
     0
 93
        1
 44
50.0
173
     0
291
     1
 45
0.0
  0
VISUALSTYLE
  5
3A
102
{ACAD_REACTORS
330
2A
102
}
102
{ACAD_XDICTIONARY
360
A9
102
}
330
2A
100
AcDbVisualStyle
  2
ColorChange
 70
    16
 71
     2
 72
     2
 73
     3
 90
        0
 40
-0.6
 41
-30.0
 62
     5
 63
     8
421
  8421504
 74
     1
 91
        4
 64
     7
 65
   257
 75
     1
175
     1
 42
1.0
 92
        8
 66
     8
424
  8421504
 43
1.0
 76
     1
 77
     6
 78
     2
 67
     7
 79
     5
170
     0
171
     0
290
     0
174
     0
 93
        1
 44
0.0
173
     0
291
     1
 45
0.0
  0
VISUALSTYLE
  5
34
102
{ACAD_REACTORS
330
2A
102
}
102
{ACAD_XDICTIONARY
360
9D
102
}
330
2A
100
AcDbVisualStyle
  2
Conceptual
 70
     9
 71
     3
 72
     2
 73
     0
 90
        0
 40
-0.6
 41
-30.0
 62
     5
 63
     7
421
 16777215
 74
     2
 91
        2
 64
     7
 65
   257
 75
     1
175
     1
 42
40.0
 92
        8
 66
     7
 43
1.0
 76
     1
 77
     6
 78
     2
 67
     7
 79
     3
170
     0
171
     0
290
     0
174
     0
 93
        1
 44
0.0
173
     0
291
     0
 45
0.0
  0
VISUALSTYLE
  5
35
102
{ACAD_REACTORS
330
2A
102
}
102
{ACAD_XDICTIONARY
360
9F
102
}
330
2A
100
AcDbVisualStyle
  2
Dim
 70
    11
 71
     2
 72
     2
 73
     0
 90
        0
 40
-0.6
 41
-30.0
 62
     5
 63
     7
421
 16777215
 74
     1
 91
        4
 64
     7
 65
   257
 75
     1
175
     1
 42
1.0
 92
        8
 66
     7
 43
1.0
 76
     1
 77
     6
 78
     2
 67
     7
 79
     5
170
     0
171
     0
290
     0
174
     0
 93
        1
 44
-50.0
173
     0
291
     1
 45
0.0
  0
VISUALSTYLE
  5
39
102
{ACAD_REACTORS
330
2A
102
}
102
{ACAD_XDICTIONARY
360
A7
102
}
330
2A
100
AcDbVisualStyle
  2
Facepattern
 70
    15
 71
     2
 72
     2
 73
     0
 90
        0
 40
-0.6
 41
-30.0
 62
     5
 63
     7
421
 16777215
 74
     1
 91
        4
 64
     7
 65
   257
 75
     1
175
     1
 42
1.0
 92
        8
 66
     7
 43
1.0
 76
     1
 77
     6
 78
     2
 67
     7
 79
     5
170
     0
171
     0
290
     0
174
     0
 93
        1
 44
0.0
173
     0
291
     1
 45
0.0
  0
VISUALSTYLE
  5
2B
102
{ACAD_REACTORS
330
2A
102
}
102
{ACAD_XDICTIONARY
360
8B
102
}
330
2A
100
AcDbVisualStyle
  2
Flat
 70
     0
 71
     2
 72
     1
 73
     1
 90
        2
 40
-0.6
 41
30.0
 62
     5
 63
     7
421
 16777215
 74
     0
 91
        4
 64
     7
 65
   257
 75
     1
175
     1
 42
1.0
 92
        8
 66
     7
 43
1.0
 76
     1
 77
     6
 78
     2
 67
     7
 79
     5
170
     0
171
     0
290
     0
174
     0
 93
       13
 44
0.0
173
     0
291
     1
 45
0.0
  0
VISUALSTYLE
  5
2C
102
{ACAD_REACTORS
330
2A
102
}
102
{ACAD_XDICTIONARY
360
8D
102
}
330
2A
100
AcDbVisualStyle
  2
FlatWithEdges
 70
     1
 71
     2
 72
     1
 73
     1
 90
        2
 40
-0.6
 41
30.0
 62
     5
 63
     7
421
 16777215
 74
     1
 91
        4
 64
     7
 65
   257
 75
     1
175
     1
 42
1.0
 92
        0
 66
   257
 43
1.0
 76
     1
 77
     6
 78
     2
 67
     7
 79
     5
170
     0
171
     0
290
     0
174
     0
 93
       13
 44
0.0
173
     0
291
     1
 45
0.0
  0
VISUALSTYLE
  5
2D
102
{ACAD_REACTORS
330
2A
102
}
102
{ACAD_XDICTIONARY
360
8F
102
}
330
2A
100
AcDbVisualStyle
  2
Gouraud
 70
     2
 71
     2
 72
     2
 73
     1
 90
        2
 40
-0.6
 41
30.0
 62
     5
 63
     7
421
 16777215
 74
     0
 91
        4
 64
     7
 65
   257
 75
     1
175
     1
 42
1.0
 92
        0
 66
     7
 43
1.0
 76
     1
 77
     6
 78
     2
 67
     7
 79
     5
170
     0
171
     0
290
     0
174
     0
 93
       13
 44
0.0
173
     0
291
     1
 45
0.0
  0
VISUALSTYLE
  5
2E
102
{ACAD_REACTORS
330
2A
102
}
102
{ACAD_XDICTIONARY
360
91
102
}
330
2A
100
AcDbVisualStyle
  2
GouraudWithEdges
 70
     3
 71
     2
 72
     2
 73
     1
 90
        2
 40
-0.6
 41
30.0
 62
     5
 63
     7
421
 16777215
 74
     1
 91
        4
 64
     7
 65
   257
 75
     1
175
     1
 42
1.0
 92
        0
 66
   257
 43
1.0
 76
     1
 77
     6
 78
     2
 67
     7
 79
     5
170
     0
171
     0
290
     0
174
     0
 93
       13
 44
0.0
173
     0
291
     1
 45
0.0
  0
VISUALSTYLE
  5
38
102
{ACAD_REACTORS
330
2A
102
}
102
{ACAD_XDICTIONARY
360
A5
102
}
330
2A
100
AcDbVisualStyle
  2
Linepattern
 70
    14
 71
     2
 72
     2
 73
     0
 90
        0
 40
-0.6
 41
-30.0
 62
     5
 63
     7
421
 16777215
 74
     1
 91
        4
 64
     7
 65
   257
 75
     7
175
     7
 42
1.0
 92
        8
 66
     7
 43
1.0
 76
     1
 77
     6
 78
     2
 67
     7
 79
     5
170
     0
171
     0
290
     0
174
     0
 93
        1
 44
0.0
173
     0
291
     1
 45
0.0
  0
VISUALSTYLE
  5
33
102
{ACAD_REACTORS
330
2A
102
}
102
{ACAD_XDICTIONARY
360
9B
102
}
330
2A
100
AcDbVisualStyle
  2
Realistic
 70
     8
 71
     2
 72
     2
 73
     0
 90
        0
 40
-0.6
 41
-30.0
 62
     5
 63
     7
421
 16777215
 74
     1
 91
        0
 64
     7
 65
   257
 75
     1
175
     1
 42
1.0
 92
        8
 66
     8
424
  7895160
 43
1.0
 76
     1
 77
     6
 78
     2
 67
     7
 79
     5
170
     0
171
     0
290
     0
174
     0
 93
       13
 44
0.0
173
     0
291
     0
 45
0.0
  0
VISUALSTYLE
  5
37
102
{ACAD_REACTORS
330
2A
102
}
102
{ACAD_XDICTIONARY
360
A3
102
}
330
2A
100
AcDbVisualStyle
  2
Thicken
 70
    13
 71
     2
 72
     2
 73
     0
 90
        0
 40
-0.6
 41
-30.0
 62
     5
 63
     7
421
 16777215
 74
     1
 91
        4
 64
     7
 65
   257
 75
     1
175
     1
 42
1.0
 92
       12
 66
     7
 43
1.0
 76
     1
 77
     6
 78
     2
 67
     7
 79
     5
170
     0
171
     0
290
     0
174
     0
 93
        1
 44
0.0
173
     0
291
     1
 45
0.0
  0
DICTIONARY
  5
93
330
2F
100
AcDbDictionary
280
     1
281
     1
  3
ACAD_XREC_ROUNDTRIP
360
94
  0
DICTIONARY
  5
97
330
31
100
AcDbDictionary
280
     1
281
     1
  3
ACAD_XREC_ROUNDTRIP
360
98
  0
DICTIONARY
  5
95
330
30
100
AcDbDictionary
280
     1
281
     1
  3
ACAD_XREC_ROUNDTRIP
360
96
  0
DICTIONARY
  5
99
330
32
100
AcDbDictionary
280
     1
281
     1
  3
ACAD_XREC_ROUNDTRIP
360
9A
  0
DICTIONARY
  5
A1
330
36
100
AcDbDictionary
280
     1
281
     1
  3
ACAD_XREC_ROUNDTRIP
360
A2
  0
DICTIONARY
  5
A9
330
3A
100
AcDbDictionary
280
     1
281
     1
  3
ACAD_XREC_ROUNDTRIP
360
AA
  0
DICTIONARY
  5
9D
330
34
100
AcDbDictionary
280
     1
281
     1
  3
ACAD_XREC_ROUNDTRIP
360
9E
  0
DICTIONARY
  5
9F
330
35
100
AcDbDictionary
280
     1
281
     1
  3
ACAD_XREC_ROUNDTRIP
360
A0
  0
DICTIONARY
  5
A7
330
39
100
AcDbDictionary
280
     1
281
     1
  3
ACAD_XREC_ROUNDTRIP
360
A8
  0
DICTIONARY
  5
8B
330
2B
100
AcDbDictionary
280
     1
281
     1
  3
ACAD_XREC_ROUNDTRIP
360
8C
  0
DICTIONARY
  5
8D
330
2C
100
AcDbDictionary
280
     1
281
     1
  3
ACAD_XREC_ROUNDTRIP
360
8E
  0
DICTIONARY
  5
8F
330
2D
100
AcDbDictionary
280
     1
281
     1
  3
ACAD_XREC_ROUNDTRIP
360
90
  0
DICTIONARY
  5
91
330
2E
100
AcDbDictionary
280
     1
281
     1
  3
ACAD_XREC_ROUNDTRIP
360
92
  0
DICTIONARY
  5
A5
330
38
100
AcDbDictionary
280
     1
281
     1
  3
ACAD_XREC_ROUNDTRIP
360
A6
  0
DICTIONARY
  5
9B
330
33
100
AcDbDictionary
280
     1
281
     1
  3
ACAD_XREC_ROUNDTRIP
360
9C
  0
DICTIONARY
  5
A3
330
37
100
AcDbDictionary
280
     1
281
     1
  3
ACAD_XREC_ROUNDTRIP
360
A4
  0
XRECORD
  5
94
102
{ACAD_REACTORS
330
93
102
}
330
93
100
AcDbXrecord
280
     1
102
RTVSPropertyOp0
 70
     1
102
RTVSPropertyOp1
 70
     1
102
RTVSPropertyOp2
 70
     1
102
RTVSPropertyOp3
 70
     1
102
RTVSPropertyOp4
 70
     1
102
RTVSPropertyOp5
 70
     1
102
RTVSPropertyOp6
 70
     1
102
RTVSPropertyOp7
 70
     1
102
RTVSPropertyOp8
 70
     1
102
RTVSPropertyOp9
 70
     1
102
RTVSPropertyOp10
 70
     1
102
RTVSPropertyOp11
 70
     1
102
RTVSPropertyOp12
 70
     1
102
RTVSPropertyOp13
 70
     1
102
RTVSPropertyOp14
 70
     1
102
RTVSPropertyOp15
 70
     1
102
RTVSPropertyOp16
 70
     1
102
RTVSPropertyOp17
 70
     1
102
RTVSPropertyOp18
 70
     1
102
RTVSPropertyOp19
 70
     1
102
RTVSPropertyOp20
 70
     1
102
RTVSPropertyOp21
 70
     1
102
RTVSPropertyOp22
 70
     1
102
RTVSPropertyOp23
 70
     1
102
RTVSPropertyOp24
 70
     1
102
RTVSPropertyOp25
 70
     1
102
RTVSPropertyOp26
 70
     1
102
RTVSPropertyOp27
 70
     1
102
RTVSPropertyOp28
 70
     1
102
RTVSPropertyOp29
 70
     1
102
RTVSPropertyOp30
 70
     1
102
RTVSPropertyOp31
 70
     1
102
RTVSPropertyOp32
 70
     1
  0
XRECORD
  5
98
102
{ACAD_REACTORS
330
97
102
}
330
97
100
AcDbXrecord
280
     1
102
RTVSPropertyOp0
 70
     1
102
RTVSPropertyOp1
 70
     1
102
RTVSPropertyOp2
 70
     1
102
RTVSPropertyOp3
 70
     1
102
RTVSPropertyOp4
 70
     1
102
RTVSPropertyOp5
 70
     1
102
RTVSPropertyOp6
 70
     1
102
RTVSPropertyOp7
 70
     1
102
RTVSPropertyOp8
 70
     1
102
RTVSPropertyOp9
 70
     1
102
RTVSPropertyOp10
 70
     1
102
RTVSPropertyOp11
 70
     1
102
RTVSPropertyOp12
 70
     1
102
RTVSPropertyOp13
 70
     1
102
RTVSPropertyOp14
 70
     1
102
RTVSPropertyOp15
 70
     1
102
RTVSPropertyOp16
 70
     1
102
RTVSPropertyOp17
 70
     1
102
RTVSPropertyOp18
 70
     1
102
RTVSPropertyOp19
 70
     1
102
RTVSPropertyOp20
 70
     1
102
RTVSPropertyOp21
 70
     1
102
RTVSPropertyOp22
 70
     1
102
RTVSPropertyOp23
 70
     1
102
RTVSPropertyOp24
 70
     1
102
RTVSPropertyOp25
 70
     1
102
RTVSPropertyOp26
 70
     1
102
RTVSPropertyOp27
 70
     1
102
RTVSPropertyOp28
 70
     1
102
RTVSPropertyOp29
 70
     1
102
RTVSPropertyOp30
 70
     1
102
RTVSPropertyOp31
 70
     1
102
RTVSPropertyOp32
 70
     1
  0
XRECORD
  5
96
102
{ACAD_REACTORS
330
95
102
}
330
95
100
AcDbXrecord
280
     1
102
RTVSPropertyOp0
 70
     1
102
RTVSPropertyOp1
 70
     1
102
RTVSPropertyOp2
 70
     1
102
RTVSPropertyOp3
 70
     1
102
RTVSPropertyOp4
 70
     1
102
RTVSPropertyOp5
 70
     1
102
RTVSPropertyOp6
 70
     1
102
RTVSPropertyOp7
 70
     1
102
RTVSPropertyOp8
 70
     1
102
RTVSPropertyOp9
 70
     1
102
RTVSPropertyOp10
 70
     1
102
RTVSPropertyOp11
 70
     1
102
RTVSPropertyOp12
 70
     1
102
RTVSPropertyOp13
 70
     1
102
RTVSPropertyOp14
 70
     1
102
RTVSPropertyOp15
 70
     1
102
RTVSPropertyOp16
 70
     1
102
RTVSPropertyOp17
 70
     1
102
RTVSPropertyOp18
 70
     1
102
RTVSPropertyOp19
 70
     1
102
RTVSPropertyOp20
 70
     1
102
RTVSPropertyOp21
 70
     1
102
RTVSPropertyOp22
 70
     1
102
RTVSPropertyOp23
 70
     1
102
RTVSPropertyOp24
 70
     1
102
RTVSPropertyOp25
 70
     1
102
RTVSPropertyOp26
 70
     1
102
RTVSPropertyOp27
 70
     1
102
RTVSPropertyOp28
 70
     1
102
RTVSPropertyOp29
 70
     1
102
RTVSPropertyOp30
 70
     1
102
RTVSPropertyOp31
 70
     1
102
RTVSPropertyOp32
 70
     1
  0
XRECORD
  5
9A
102
{ACAD_REACTORS
330
99
102
}
330
99
100
AcDbXrecord
280
     1
102
RTVSPropertyOp0
 70
     1
102
RTVSPropertyOp1
 70
     1
102
RTVSPropertyOp2
 70
     1
102
RTVSPropertyOp3
 70
     1
102
RTVSPropertyOp4
 70
     1
102
RTVSPropertyOp5
 70
     1
102
RTVSPropertyOp6
 70
     1
102
RTVSPropertyOp7
 70
     1
102
RTVSPropertyOp8
 70
     1
102
RTVSPropertyOp9
 70
     1
102
RTVSPropertyOp10
 70
     1
102
RTVSPropertyOp11
 70
     1
102
RTVSPropertyOp12
 70
     1
102
RTVSPropertyOp13
 70
     1
102
RTVSPropertyOp14
 70
     1
102
RTVSPropertyOp15
 70
     1
102
RTVSPropertyOp16
 70
     1
102
RTVSPropertyOp17
 70
     1
102
RTVSPropertyOp18
 70
     1
102
RTVSPropertyOp19
 70
     1
102
RTVSPropertyOp20
 70
     1
102
RTVSPropertyOp21
 70
     1
102
RTVSPropertyOp22
 70
     1
102
RTVSPropertyOp23
 70
     1
102
RTVSPropertyOp24
 70
     1
102
RTVSPropertyOp25
 70
     1
102
RTVSPropertyOp26
 70
     1
102
RTVSPropertyOp27
 70
     1
102
RTVSPropertyOp28
 70
     1
102
RTVSPropertyOp29
 70
     1
102
RTVSPropertyOp30
 70
     1
102
RTVSPropertyOp31
 70
     1
102
RTVSPropertyOp32
 70
     1
  0
XRECORD
  5
A2
102
{ACAD_REACTORS
330
A1
102
}
330
A1
100
AcDbXrecord
280
     1
102
RTVSPropertyOp0
 70
     1
102
RTVSPropertyOp1
 70
     1
102
RTVSPropertyOp2
 70
     1
102
RTVSPropertyOp3
 70
     1
102
RTVSPropertyOp4
 70
     1
102
RTVSPropertyOp5
 70
     1
102
RTVSPropertyOp6
 70
     1
102
RTVSPropertyOp7
 70
     1
102
RTVSPropertyOp8
 70
     1
102
RTVSPropertyOp9
 70
     1
102
RTVSPropertyOp10
 70
     1
102
RTVSPropertyOp11
 70
     1
102
RTVSPropertyOp12
 70
     1
102
RTVSPropertyOp13
 70
     1
102
RTVSPropertyOp14
 70
     1
102
RTVSPropertyOp15
 70
     1
102
RTVSPropertyOp16
 70
     1
102
RTVSPropertyOp17
 70
     1
102
RTVSPropertyOp18
 70
     1
102
RTVSPropertyOp19
 70
     1
102
RTVSPropertyOp20
 70
     1
102
RTVSPropertyOp21
 70
     1
102
RTVSPropertyOp22
 70
     1
102
RTVSPropertyOp23
 70
     1
102
RTVSPropertyOp24
 70
     1
102
RTVSPropertyOp25
 70
     1
102
RTVSPropertyOp26
 70
     1
102
RTVSPropertyOp27
 70
     1
102
RTVSPropertyOp28
 70
     1
102
RTVSPropertyOp29
 70
     1
102
RTVSPropertyOp30
 70
     1
102
RTVSPropertyOp31
 70
     1
102
RTVSPropertyOp32
 70
     1
  0
XRECORD
  5
AA
102
{ACAD_REACTORS
330
A9
102
}
330
A9
100
AcDbXrecord
280
     1
102
RTVSPropertyOp0
 70
     1
102
RTVSPropertyOp1
 70
     1
102
RTVSPropertyOp2
 70
     1
102
RTVSPropertyOp3
 70
     1
102
RTVSPropertyOp4
 70
     1
102
RTVSPropertyOp5
 70
     1
102
RTVSPropertyOp6
 70
     1
102
RTVSPropertyOp7
 70
     1
102
RTVSPropertyOp8
 70
     1
102
RTVSPropertyOp9
 70
     1
102
RTVSPropertyOp10
 70
     1
102
RTVSPropertyOp11
 70
     1
102
RTVSPropertyOp12
 70
     1
102
RTVSPropertyOp13
 70
     1
102
RTVSPropertyOp14
 70
     1
102
RTVSPropertyOp15
 70
     1
102
RTVSPropertyOp16
 70
     1
102
RTVSPropertyOp17
 70
     1
102
RTVSPropertyOp18
 70
     1
102
RTVSPropertyOp19
 70
     1
102
RTVSPropertyOp20
 70
     1
102
RTVSPropertyOp21
 70
     1
102
RTVSPropertyOp22
 70
     1
102
RTVSPropertyOp23
 70
     1
102
RTVSPropertyOp24
 70
     1
102
RTVSPropertyOp25
 70
     1
102
RTVSPropertyOp26
 70
     1
102
RTVSPropertyOp27
 70
     1
102
RTVSPropertyOp28
 70
     1
102
RTVSPropertyOp29
 70
     1
102
RTVSPropertyOp30
 70
     1
102
RTVSPropertyOp31
 70
     1
102
RTVSPropertyOp32
 70
     1
  0
XRECORD
  5
9E
102
{ACAD_REACTORS
330
9D
102
}
330
9D
100
AcDbXrecord
280
     1
102
RTVSPropertyOp0
 70
     1
102
RTVSPropertyOp1
 70
     1
102
RTVSPropertyOp2
 70
     1
102
RTVSPropertyOp3
 70
     1
102
RTVSPropertyOp4
 70
     1
102
RTVSPropertyOp5
 70
     1
102
RTVSPropertyOp6
 70
     1
102
RTVSPropertyOp7
 70
     1
102
RTVSPropertyOp8
 70
     1
102
RTVSPropertyOp9
 70
     1
102
RTVSPropertyOp10
 70
     1
102
RTVSPropertyOp11
 70
     1
102
RTVSPropertyOp12
 70
     1
102
RTVSPropertyOp13
 70
     1
102
RTVSPropertyOp14
 70
     1
102
RTVSPropertyOp15
 70
     1
102
RTVSPropertyOp16
 70
     1
102
RTVSPropertyOp17
 70
     1
102
RTVSPropertyOp18
 70
     1
102
RTVSPropertyOp19
 70
     1
102
RTVSPropertyOp20
 70
     1
102
RTVSPropertyOp21
 70
     1
102
RTVSPropertyOp22
 70
     1
102
RTVSPropertyOp23
 70
     1
102
RTVSPropertyOp24
 70
     1
102
RTVSPropertyOp25
 70
     1
102
RTVSPropertyOp26
 70
     1
102
RTVSPropertyOp27
 70
     1
102
RTVSPropertyOp28
 70
     1
102
RTVSPropertyOp29
 70
     1
102
RTVSPropertyOp30
 70
     1
102
RTVSPropertyOp31
 70
     1
102
RTVSPropertyOp32
 70
     1
  0
XRECORD
  5
A0
102
{ACAD_REACTORS
330
9F
102
}
330
9F
100
AcDbXrecord
280
     1
102
RTVSPropertyOp0
 70
     1
102
RTVSPropertyOp1
 70
     1
102
RTVSPropertyOp2
 70
     1
102
RTVSPropertyOp3
 70
     1
102
RTVSPropertyOp4
 70
     1
102
RTVSPropertyOp5
 70
     1
102
RTVSPropertyOp6
 70
     1
102
RTVSPropertyOp7
 70
     1
102
RTVSPropertyOp8
 70
     1
102
RTVSPropertyOp9
 70
     1
102
RTVSPropertyOp10
 70
     1
102
RTVSPropertyOp11
 70
     1
102
RTVSPropertyOp12
 70
     1
102
RTVSPropertyOp13
 70
     1
102
RTVSPropertyOp14
 70
     1
102
RTVSPropertyOp15
 70
     1
102
RTVSPropertyOp16
 70
     1
102
RTVSPropertyOp17
 70
     1
102
RTVSPropertyOp18
 70
     1
102
RTVSPropertyOp19
 70
     1
102
RTVSPropertyOp20
 70
     1
102
RTVSPropertyOp21
 70
     1
102
RTVSPropertyOp22
 70
     1
102
RTVSPropertyOp23
 70
     1
102
RTVSPropertyOp24
 70
     1
102
RTVSPropertyOp25
 70
     1
102
RTVSPropertyOp26
 70
     1
102
RTVSPropertyOp27
 70
     1
102
RTVSPropertyOp28
 70
     1
102
RTVSPropertyOp29
 70
     1
102
RTVSPropertyOp30
 70
     1
102
RTVSPropertyOp31
 70
     1
102
RTVSPropertyOp32
 70
     1
  0
XRECORD
  5
A8
102
{ACAD_REACTORS
330
A7
102
}
330
A7
100
AcDbXrecord
280
     1
102
RTVSPropertyOp0
 70
     1
102
RTVSPropertyOp1
 70
     1
102
RTVSPropertyOp2
 70
     1
102
RTVSPropertyOp3
 70
     1
102
RTVSPropertyOp4
 70
     1
102
RTVSPropertyOp5
 70
     1
102
RTVSPropertyOp6
 70
     1
102
RTVSPropertyOp7
 70
     1
102
RTVSPropertyOp8
 70
     1
102
RTVSPropertyOp9
 70
     1
102
RTVSPropertyOp10
 70
     1
102
RTVSPropertyOp11
 70
     1
102
RTVSPropertyOp12
 70
     1
102
RTVSPropertyOp13
 70
     1
102
RTVSPropertyOp14
 70
     1
102
RTVSPropertyOp15
 70
     1
102
RTVSPropertyOp16
 70
     1
102
RTVSPropertyOp17
 70
     1
102
RTVSPropertyOp18
 70
     1
102
RTVSPropertyOp19
 70
     1
102
RTVSPropertyOp20
 70
     1
102
RTVSPropertyOp21
 70
     1
102
RTVSPropertyOp22
 70
     1
102
RTVSPropertyOp23
 70
     1
102
RTVSPropertyOp24
 70
     1
102
RTVSPropertyOp25
 70
     1
102
RTVSPropertyOp26
 70
     1
102
RTVSPropertyOp27
 70
     1
102
RTVSPropertyOp28
 70
     1
102
RTVSPropertyOp29
 70
     1
102
RTVSPropertyOp30
 70
     1
102
RTVSPropertyOp31
 70
     1
102
RTVSPropertyOp32
 70
     1
  0
XRECORD
  5
8C
102
{ACAD_REACTORS
330
8B
102
}
330
8B
100
AcDbXrecord
280
     1
102
RTVSPropertyOp0
 70
     1
102
RTVSPropertyOp1
 70
     1
102
RTVSPropertyOp2
 70
     1
102
RTVSPropertyOp3
 70
     1
102
RTVSPropertyOp4
 70
     1
102
RTVSPropertyOp5
 70
     1
102
RTVSPropertyOp6
 70
     1
102
RTVSPropertyOp7
 70
     1
102
RTVSPropertyOp8
 70
     1
102
RTVSPropertyOp9
 70
     1
102
RTVSPropertyOp10
 70
     1
102
RTVSPropertyOp11
 70
     1
102
RTVSPropertyOp12
 70
     1
102
RTVSPropertyOp13
 70
     1
102
RTVSPropertyOp14
 70
     1
102
RTVSPropertyOp15
 70
     1
102
RTVSPropertyOp16
 70
     1
102
RTVSPropertyOp17
 70
     1
102
RTVSPropertyOp18
 70
     1
102
RTVSPropertyOp19
 70
     1
102
RTVSPropertyOp20
 70
     1
102
RTVSPropertyOp21
 70
     1
102
RTVSPropertyOp22
 70
     1
102
RTVSPropertyOp23
 70
     1
102
RTVSPropertyOp24
 70
     1
102
RTVSPropertyOp25
 70
     1
102
RTVSPropertyOp26
 70
     1
102
RTVSPropertyOp27
 70
     1
102
RTVSPropertyOp28
 70
     1
102
RTVSPropertyOp29
 70
     1
102
RTVSPropertyOp30
 70
     1
102
RTVSPropertyOp31
 70
     1
102
RTVSPropertyOp32
 70
     1
  0
XRECORD
  5
8E
102
{ACAD_REACTORS
330
8D
102
}
330
8D
100
AcDbXrecord
280
     1
102
RTVSPropertyOp0
 70
     1
102
RTVSPropertyOp1
 70
     1
102
RTVSPropertyOp2
 70
     1
102
RTVSPropertyOp3
 70
     1
102
RTVSPropertyOp4
 70
     1
102
RTVSPropertyOp5
 70
     1
102
RTVSPropertyOp6
 70
     1
102
RTVSPropertyOp7
 70
     1
102
RTVSPropertyOp8
 70
     1
102
RTVSPropertyOp9
 70
     1
102
RTVSPropertyOp10
 70
     1
102
RTVSPropertyOp11
 70
     1
102
RTVSPropertyOp12
 70
     1
102
RTVSPropertyOp13
 70
     1
102
RTVSPropertyOp14
 70
     1
102
RTVSPropertyOp15
 70
     1
102
RTVSPropertyOp16
 70
     1
102
RTVSPropertyOp17
 70
     1
102
RTVSPropertyOp18
 70
     1
102
RTVSPropertyOp19
 70
     1
102
RTVSPropertyOp20
 70
     1
102
RTVSPropertyOp21
 70
     1
102
RTVSPropertyOp22
 70
     1
102
RTVSPropertyOp23
 70
     1
102
RTVSPropertyOp24
 70
     1
102
RTVSPropertyOp25
 70
     1
102
RTVSPropertyOp26
 70
     1
102
RTVSPropertyOp27
 70
     1
102
RTVSPropertyOp28
 70
     1
102
RTVSPropertyOp29
 70
     1
102
RTVSPropertyOp30
 70
     1
102
RTVSPropertyOp31
 70
     1
102
RTVSPropertyOp32
 70
     1
  0
XRECORD
  5
90
102
{ACAD_REACTORS
330
8F
102
}
330
8F
100
AcDbXrecord
280
     1
102
RTVSPropertyOp0
 70
     1
102
RTVSPropertyOp1
 70
     1
102
RTVSPropertyOp2
 70
     1
102
RTVSPropertyOp3
 70
     1
102
RTVSPropertyOp4
 70
     1
102
RTVSPropertyOp5
 70
     1
102
RTVSPropertyOp6
 70
     1
102
RTVSPropertyOp7
 70
     1
102
RTVSPropertyOp8
 70
     1
102
RTVSPropertyOp9
 70
     1
102
RTVSPropertyOp10
 70
     1
102
RTVSPropertyOp11
 70
     1
102
RTVSPropertyOp12
 70
     1
102
RTVSPropertyOp13
 70
     1
102
RTVSPropertyOp14
 70
     1
102
RTVSPropertyOp15
 70
     1
102
RTVSPropertyOp16
 70
     1
102
RTVSPropertyOp17
 70
     1
102
RTVSPropertyOp18
 70
     1
102
RTVSPropertyOp19
 70
     1
102
RTVSPropertyOp20
 70
     1
102
RTVSPropertyOp21
 70
     1
102
RTVSPropertyOp22
 70
     1
102
RTVSPropertyOp23
 70
     1
102
RTVSPropertyOp24
 70
     1
102
RTVSPropertyOp25
 70
     1
102
RTVSPropertyOp26
 70
     1
102
RTVSPropertyOp27
 70
     1
102
RTVSPropertyOp28
 70
     1
102
RTVSPropertyOp29
 70
     1
102
RTVSPropertyOp30
 70
     1
102
RTVSPropertyOp31
 70
     1
102
RTVSPropertyOp32
 70
     1
  0
XRECORD
  5
92
102
{ACAD_REACTORS
330
91
102
}
330
91
100
AcDbXrecord
280
     1
102
RTVSPropertyOp0
 70
     1
102
RTVSPropertyOp1
 70
     1
102
RTVSPropertyOp2
 70
     1
102
RTVSPropertyOp3
 70
     1
102
RTVSPropertyOp4
 70
     1
102
RTVSPropertyOp5
 70
     1
102
RTVSPropertyOp6
 70
     1
102
RTVSPropertyOp7
 70
     1
102
RTVSPropertyOp8
 70
     1
102
RTVSPropertyOp9
 70
     1
102
RTVSPropertyOp10
 70
     1
102
RTVSPropertyOp11
 70
     1
102
RTVSPropertyOp12
 70
     1
102
RTVSPropertyOp13
 70
     1
102
RTVSPropertyOp14
 70
     1
102
RTVSPropertyOp15
 70
     1
102
RTVSPropertyOp16
 70
     1
102
RTVSPropertyOp17
 70
     1
102
RTVSPropertyOp18
 70
     1
102
RTVSPropertyOp19
 70
     1
102
RTVSPropertyOp20
 70
     1
102
RTVSPropertyOp21
 70
     1
102
RTVSPropertyOp22
 70
     1
102
RTVSPropertyOp23
 70
     1
102
RTVSPropertyOp24
 70
     1
102
RTVSPropertyOp25
 70
     1
102
RTVSPropertyOp26
 70
     1
102
RTVSPropertyOp27
 70
     1
102
RTVSPropertyOp28
 70
     1
102
RTVSPropertyOp29
 70
     1
102
RTVSPropertyOp30
 70
     1
102
RTVSPropertyOp31
 70
     1
102
RTVSPropertyOp32
 70
     1
  0
XRECORD
  5
A6
102
{ACAD_REACTORS
330
A5
102
}
330
A5
100
AcDbXrecord
280
     1
102
RTVSPropertyOp0
 70
     1
102
RTVSPropertyOp1
 70
     1
102
RTVSPropertyOp2
 70
     1
102
RTVSPropertyOp3
 70
     1
102
RTVSPropertyOp4
 70
     1
102
RTVSPropertyOp5
 70
     1
102
RTVSPropertyOp6
 70
     1
102
RTVSPropertyOp7
 70
     1
102
RTVSPropertyOp8
 70
     1
102
RTVSPropertyOp9
 70
     1
102
RTVSPropertyOp10
 70
     1
102
RTVSPropertyOp11
 70
     1
102
RTVSPropertyOp12
 70
     1
102
RTVSPropertyOp13
 70
     1
102
RTVSPropertyOp14
 70
     1
102
RTVSPropertyOp15
 70
     1
102
RTVSPropertyOp16
 70
     1
102
RTVSPropertyOp17
 70
     1
102
RTVSPropertyOp18
 70
     1
102
RTVSPropertyOp19
 70
     1
102
RTVSPropertyOp20
 70
     1
102
RTVSPropertyOp21
 70
     1
102
RTVSPropertyOp22
 70
     1
102
RTVSPropertyOp23
 70
     1
102
RTVSPropertyOp24
 70
     1
102
RTVSPropertyOp25
 70
     1
102
RTVSPropertyOp26
 70
     1
102
RTVSPropertyOp27
 70
     1
102
RTVSPropertyOp28
 70
     1
102
RTVSPropertyOp29
 70
     1
102
RTVSPropertyOp30
 70
     1
102
RTVSPropertyOp31
 70
     1
102
RTVSPropertyOp32
 70
     1
  0
XRECORD
  5
9C
102
{ACAD_REACTORS
330
9B
102
}
330
9B
100
AcDbXrecord
280
     1
102
RTVSPropertyOp0
 70
     1
102
RTVSPropertyOp1
 70
     1
102
RTVSPropertyOp2
 70
     1
102
RTVSPropertyOp3
 70
     1
102
RTVSPropertyOp4
 70
     1
102
RTVSPropertyOp5
 70
     1
102
RTVSPropertyOp6
 70
     1
102
RTVSPropertyOp7
 70
     1
102
RTVSPropertyOp8
 70
     1
102
RTVSPropertyOp9
 70
     1
102
RTVSPropertyOp10
 70
     1
102
RTVSPropertyOp11
 70
     1
102
RTVSPropertyOp12
 70
     1
102
RTVSPropertyOp13
 70
     1
102
RTVSPropertyOp14
 70
     1
102
RTVSPropertyOp15
 70
     1
102
RTVSPropertyOp16
 70
     1
102
RTVSPropertyOp17
 70
     1
102
RTVSPropertyOp18
 70
     1
102
RTVSPropertyOp19
 70
     1
102
RTVSPropertyOp20
 70
     1
102
RTVSPropertyOp21
 70
     1
102
RTVSPropertyOp22
 70
     1
102
RTVSPropertyOp23
 70
     1
102
RTVSPropertyOp24
 70
     1
102
RTVSPropertyOp25
 70
     1
102
RTVSPropertyOp26
 70
     1
102
RTVSPropertyOp27
 70
     1
102
RTVSPropertyOp28
 70
     1
102
RTVSPropertyOp29
 70
     1
102
RTVSPropertyOp30
 70
     1
102
RTVSPropertyOp31
 70
     1
102
RTVSPropertyOp32
 70
     1
  0
XRECORD
  5
A4
102
{ACAD_REACTORS
330
A3
102
}
330
A3
100
AcDbXrecord
280
     1
102
RTVSPropertyOp0
 70
     1
102
RTVSPropertyOp1
 70
     1
102
RTVSPropertyOp2
 70
     1
102
RTVSPropertyOp3
 70
     1
102
RTVSPropertyOp4
 70
     1
102
RTVSPropertyOp5
 70
     1
102
RTVSPropertyOp6
 70
     1
102
RTVSPropertyOp7
 70
     1
102
RTVSPropertyOp8
 70
     1
102
RTVSPropertyOp9
 70
     1
102
RTVSPropertyOp10
 70
     1
102
RTVSPropertyOp11
 70
     1
102
RTVSPropertyOp12
 70
     1
102
RTVSPropertyOp13
 70
     1
102
RTVSPropertyOp14
 70
     1
102
RTVSPropertyOp15
 70
     1
102
RTVSPropertyOp16
 70
     1
102
RTVSPropertyOp17
 70
     1
102
RTVSPropertyOp18
 70
     1
102
RTVSPropertyOp19
 70
     1
102
RTVSPropertyOp20
 70
     1
102
RTVSPropertyOp21
 70
     1
102
RTVSPropertyOp22
 70
     1
102
RTVSPropertyOp23
 70
     1
102
RTVSPropertyOp24
 70
     1
102
RTVSPropertyOp25
 70
     1
102
RTVSPropertyOp26
 70
     1
102
RTVSPropertyOp27
 70
     1
102
RTVSPropertyOp28
 70
     1
102
RTVSPropertyOp29
 70
     1
102
RTVSPropertyOp30
 70
     1
102
RTVSPropertyOp31
 70
     1
102
RTVSPropertyOp32
 70
     1
  0
ENDSEC
  0
EOF
